MFile 1 2 960
MTrk
0 TimeSig 4/4 24 8
0 KeySig 3 minor
0 Tempo 697674
364800 Tempo 697674
365025 Tempo 708087
365250 Tempo 718815
365475 Tempo 729874
365700 Tempo 741278
365925 Tempo 753044
366150 Tempo 765190
366375 Tempo 777734
366600 Tempo 790697
366825 Tempo 804098
367050 Tempo 817962
367275 Tempo 832312
367500 Tempo 847175
367725 Tempo 862577
367950 Tempo 878552
368175 Tempo 895128
368400 Tempo 912342
368640 TimeSig 6/4 72 8
368641 Meta TrkEnd
TrkEnd
MTrk
0 PrCh ch=1 p=0
0 Par ch=1 c=121 v=0
0 Par ch=1 c=64 v=0
0 Par ch=1 c=91 v=48
0 Par ch=1 c=10 v=51
0 Par ch=1 c=7 v=100
0 On ch=1 n=66 v=68
0 Par ch=1 c=121 v=0
0 Par ch=1 c=64 v=0
0 Par ch=1 c=91 v=48
0 Par ch=1 c=10 v=51
0 Par ch=1 c=7 v=100
0 Meta TrkName "Klavier"
240 On ch=1 n=73 v=80
244 Off ch=1 n=66 v=0
480 On ch=1 n=78 v=91
484 Off ch=1 n=73 v=0
720 On ch=1 n=71 v=78
724 Off ch=1 n=78 v=0
960 On ch=1 n=66 v=66
964 Off ch=1 n=71 v=0
1200 On ch=1 n=71 v=75
1204 Off ch=1 n=66 v=0
1440 On ch=1 n=73 v=85
1444 Off ch=1 n=71 v=0
1680 On ch=1 n=76 v=93
1684 Off ch=1 n=73 v=0
1920 On ch=1 n=66 v=61
1924 Off ch=1 n=76 v=0
2160 On ch=1 n=73 v=72
2164 Off ch=1 n=66 v=0
2400 On ch=1 n=78 v=92
2404 Off ch=1 n=73 v=0
2640 On ch=1 n=71 v=79
2644 Off ch=1 n=78 v=0
2880 On ch=1 n=66 v=63
2884 Off ch=1 n=71 v=0
3120 On ch=1 n=71 v=68
3124 Off ch=1 n=66 v=0
3360 On ch=1 n=73 v=83
3364 Off ch=1 n=71 v=0
3600 On ch=1 n=76 v=89
3604 Off ch=1 n=73 v=0
3840 On ch=1 n=66 v=52
3844 Off ch=1 n=76 v=0
4080 On ch=1 n=73 v=60
4084 Off ch=1 n=66 v=0
4320 On ch=1 n=78 v=86
4324 Off ch=1 n=73 v=0
4560 On ch=1 n=71 v=75
4564 Off ch=1 n=78 v=0
4800 On ch=1 n=66 v=64
4804 Off ch=1 n=71 v=0
5040 On ch=1 n=71 v=73
5044 Off ch=1 n=66 v=0
5280 On ch=1 n=73 v=80
5284 Off ch=1 n=71 v=0
5520 On ch=1 n=76 v=96
5524 Off ch=1 n=73 v=0
5760 On ch=1 n=66 v=58
5764 Off ch=1 n=76 v=0
6000 On ch=1 n=73 v=61
6004 Off ch=1 n=66 v=0
6240 On ch=1 n=78 v=88
6244 Off ch=1 n=73 v=0
6480 On ch=1 n=71 v=75
6484 Off ch=1 n=78 v=0
6720 On ch=1 n=66 v=62
6724 Off ch=1 n=71 v=0
6960 On ch=1 n=71 v=64
6964 Off ch=1 n=66 v=0
7200 On ch=1 n=73 v=85
7204 Off ch=1 n=71 v=0
7440 On ch=1 n=76 v=90
7444 Off ch=1 n=73 v=0
7680 On ch=1 n=66 v=58
7680 On ch=1 n=30 v=67
7684 Off ch=1 n=76 v=0
7920 On ch=1 n=73 v=69
7924 Off ch=1 n=66 v=0
8160 On ch=1 n=78 v=88
8164 Off ch=1 n=73 v=0
8400 On ch=1 n=71 v=76
8404 Off ch=1 n=78 v=0
8640 On ch=1 n=66 v=66
8644 Off ch=1 n=71 v=0
8880 On ch=1 n=71 v=70
8884 Off ch=1 n=66 v=0
9120 On ch=1 n=73 v=80
9124 Off ch=1 n=71 v=0
9360 On ch=1 n=76 v=85
9364 Off ch=1 n=73 v=0
9600 On ch=1 n=66 v=59
9604 Off ch=1 n=76 v=0
9840 On ch=1 n=73 v=67
9844 Off ch=1 n=66 v=0
10080 On ch=1 n=78 v=90
10084 Off ch=1 n=73 v=0
10320 On ch=1 n=71 v=78
10324 Off ch=1 n=78 v=0
10560 On ch=1 n=66 v=60
10564 Off ch=1 n=71 v=0
10800 On ch=1 n=71 v=71
10804 Off ch=1 n=66 v=0
11040 On ch=1 n=73 v=83
11044 Off ch=1 n=71 v=0
11280 On ch=1 n=76 v=88
11284 Off ch=1 n=73 v=0
11520 On ch=1 n=66 v=57
11520 Off ch=1 n=30 v=0
11520 On ch=1 n=28 v=73
11524 Off ch=1 n=76 v=0
11760 On ch=1 n=73 v=67
11764 Off ch=1 n=66 v=0
12000 On ch=1 n=78 v=85
12004 Off ch=1 n=73 v=0
12240 On ch=1 n=71 v=73
12244 Off ch=1 n=78 v=0
12480 On ch=1 n=66 v=69
12484 Off ch=1 n=71 v=0
12720 On ch=1 n=71 v=74
12724 Off ch=1 n=66 v=0
12960 On ch=1 n=73 v=79
12964 Off ch=1 n=71 v=0
13200 On ch=1 n=76 v=82
13204 Off ch=1 n=73 v=0
13440 On ch=1 n=66 v=59
13444 Off ch=1 n=76 v=0
13680 On ch=1 n=73 v=65
13684 Off ch=1 n=66 v=0
13920 On ch=1 n=78 v=88
13924 Off ch=1 n=73 v=0
14160 On ch=1 n=71 v=72
14164 Off ch=1 n=78 v=0
14400 On ch=1 n=66 v=63
14404 Off ch=1 n=71 v=0
14640 On ch=1 n=71 v=73
14644 Off ch=1 n=66 v=0
14880 On ch=1 n=73 v=82
14884 Off ch=1 n=71 v=0
15120 On ch=1 n=76 v=89
15124 Off ch=1 n=73 v=0
15360 On ch=1 n=66 v=62
15360 Off ch=1 n=28 v=0
15360 On ch=1 n=26 v=72
15364 Off ch=1 n=76 v=0
15600 On ch=1 n=73 v=69
15604 Off ch=1 n=66 v=0
15840 On ch=1 n=78 v=89
15844 Off ch=1 n=73 v=0
16080 On ch=1 n=71 v=80
16084 Off ch=1 n=78 v=0
16320 On ch=1 n=66 v=60
16324 Off ch=1 n=71 v=0
16560 On ch=1 n=71 v=71
16564 Off ch=1 n=66 v=0
16800 On ch=1 n=73 v=85
16804 Off ch=1 n=71 v=0
17040 On ch=1 n=76 v=98
17044 Off ch=1 n=73 v=0
17280 On ch=1 n=66 v=59
17284 Off ch=1 n=76 v=0
17520 On ch=1 n=73 v=67
17524 Off ch=1 n=66 v=0
17760 On ch=1 n=78 v=86
17764 Off ch=1 n=73 v=0
18000 On ch=1 n=71 v=74
18004 Off ch=1 n=78 v=0
18240 On ch=1 n=66 v=65
18244 Off ch=1 n=71 v=0
18480 On ch=1 n=71 v=74
18484 Off ch=1 n=66 v=0
18720 On ch=1 n=73 v=86
18724 Off ch=1 n=71 v=0
18960 On ch=1 n=76 v=94
18964 Off ch=1 n=73 v=0
19200 On ch=1 n=66 v=62
19204 Off ch=1 n=76 v=0
19440 On ch=1 n=73 v=70
19444 Off ch=1 n=66 v=0
19680 On ch=1 n=78 v=85
19684 Off ch=1 n=73 v=0
19920 On ch=1 n=71 v=76
19924 Off ch=1 n=78 v=0
20160 On ch=1 n=66 v=63
20164 Off ch=1 n=71 v=0
20400 On ch=1 n=71 v=68
20404 Off ch=1 n=66 v=0
20640 On ch=1 n=73 v=84
20644 Off ch=1 n=71 v=0
20880 On ch=1 n=76 v=95
20884 Off ch=1 n=73 v=0
21120 On ch=1 n=66 v=61
21124 Off ch=1 n=76 v=0
21360 On ch=1 n=73 v=71
21364 Off ch=1 n=66 v=0
21600 On ch=1 n=78 v=91
21604 Off ch=1 n=73 v=0
21840 On ch=1 n=71 v=76
21844 Off ch=1 n=78 v=0
22080 On ch=1 n=66 v=68
22084 Off ch=1 n=71 v=0
22320 On ch=1 n=71 v=72
22324 Off ch=1 n=66 v=0
22560 On ch=1 n=73 v=88
22564 Off ch=1 n=71 v=0
22800 On ch=1 n=76 v=92
22804 Off ch=1 n=73 v=0
23025 Off ch=1 n=76 v=0
23040 On ch=1 n=64 v=54
23040 Off ch=1 n=26 v=0
23040 On ch=1 n=42 v=87
23149 On ch=1 n=49 v=87
23258 On ch=1 n=57 v=87
23280 On ch=1 n=73 v=68
23520 On ch=1 n=78 v=75
23524 Off ch=1 n=73 v=0
23760 On ch=1 n=71 v=61
23764 Off ch=1 n=78 v=0
24000 On ch=1 n=66 v=54
24004 Off ch=1 n=71 v=0
24240 On ch=1 n=71 v=83
24244 Off ch=1 n=66 v=0
24480 On ch=1 n=57 v=48
24480 On ch=1 n=73 v=93
24484 Off ch=1 n=71 v=0
24506 Off ch=1 n=64 v=0
24720 On ch=1 n=76 v=86
24724 Off ch=1 n=73 v=0
24960 Off ch=1 n=57 v=0
24960 On ch=1 n=57 v=72
24960 On ch=1 n=66 v=67
24964 Off ch=1 n=76 v=0
25185 Off ch=1 n=66 v=0
25200 On ch=1 n=73 v=84
25440 Off ch=1 n=73 v=0
25440 On ch=1 n=78 v=92
25680 Off ch=1 n=78 v=0
25680 On ch=1 n=71 v=68
25920 Off ch=1 n=71 v=0
25920 On ch=1 n=66 v=64
26160 Off ch=1 n=66 v=0
26160 On ch=1 n=71 v=89
26325 Off ch=1 n=57 v=0
26400 Off ch=1 n=71 v=0
26400 On ch=1 n=57 v=72
26400 On ch=1 n=73 v=78
26640 On ch=1 n=59 v=77
26640 On ch=1 n=76 v=83
26644 Off ch=1 n=57 v=0
26644 Off ch=1 n=73 v=0
26880 On ch=1 n=61 v=84
26880 Off ch=1 n=42 v=0
26880 Off ch=1 n=49 v=0
26880 Off ch=1 n=57 v=0
26880 On ch=1 n=40 v=69
26880 On ch=1 n=47 v=69
26884 Off ch=1 n=59 v=0
26884 Off ch=1 n=76 v=0
27120 On ch=1 n=73 v=67
27360 On ch=1 n=62 v=89
27360 On ch=1 n=78 v=80
27364 Off ch=1 n=73 v=0
27368 Off ch=1 n=61 v=0
27600 On ch=1 n=71 v=62
27604 Off ch=1 n=78 v=0
27840 On ch=1 n=61 v=73
27840 On ch=1 n=66 v=53
27844 Off ch=1 n=71 v=0
27848 Off ch=1 n=62 v=0
28080 On ch=1 n=71 v=85
28084 Off ch=1 n=66 v=0
28320 On ch=1 n=59 v=71
28320 On ch=1 n=73 v=88
28324 Off ch=1 n=71 v=0
28328 Off ch=1 n=61 v=0
28560 On ch=1 n=76 v=81
28564 Off ch=1 n=73 v=0
28800 On ch=1 n=57 v=74
28800 On ch=1 n=66 v=60
28804 Off ch=1 n=76 v=0
28808 Off ch=1 n=59 v=0
29040 On ch=1 n=73 v=90
29044 Off ch=1 n=66 v=0
29280 On ch=1 n=68 v=96
29280 On ch=1 n=78 v=107
29284 Off ch=1 n=73 v=0
29288 Off ch=1 n=57 v=0
29520 On ch=1 n=71 v=66
29524 Off ch=1 n=78 v=0
29760 On ch=1 n=66 v=56
29764 Off ch=1 n=71 v=0
30000 On ch=1 n=71 v=82
30004 Off ch=1 n=66 v=0
30240 On ch=1 n=61 v=66
30240 On ch=1 n=73 v=89
30244 Off ch=1 n=71 v=0
30259 Off ch=1 n=68 v=0
30465 Off ch=1 n=73 v=0
30480 On ch=1 n=76 v=81
30694 Off ch=1 n=61 v=0
30720 Off ch=1 n=76 v=0
30720 On ch=1 n=64 v=81
30720 Off ch=1 n=40 v=0
30720 Off ch=1 n=47 v=0
30720 On ch=1 n=38 v=82
30829 On ch=1 n=45 v=82
30938 On ch=1 n=54 v=82
30960 On ch=1 n=73 v=74
31200 On ch=1 n=78 v=79
31204 Off ch=1 n=73 v=0
31440 On ch=1 n=71 v=64
31444 Off ch=1 n=78 v=0
31680 On ch=1 n=66 v=55
31684 Off ch=1 n=71 v=0
31920 On ch=1 n=71 v=81
31924 Off ch=1 n=66 v=0
32160 On ch=1 n=57 v=77
32160 On ch=1 n=73 v=88
32164 Off ch=1 n=71 v=0
32186 Off ch=1 n=64 v=0
32400 On ch=1 n=76 v=83
32404 Off ch=1 n=73 v=0
32640 Off ch=1 n=57 v=0
32640 On ch=1 n=57 v=70
32640 On ch=1 n=66 v=65
32644 Off ch=1 n=76 v=0
32865 Off ch=1 n=66 v=0
32880 On ch=1 n=73 v=84
33120 Off ch=1 n=73 v=0
33120 On ch=1 n=78 v=90
33360 Off ch=1 n=78 v=0
33360 On ch=1 n=71 v=67
33600 Off ch=1 n=71 v=0
33600 On ch=1 n=66 v=64
33840 Off ch=1 n=66 v=0
33840 On ch=1 n=71 v=86
34005 Off ch=1 n=57 v=0
34080 Off ch=1 n=71 v=0
34080 On ch=1 n=57 v=77
34080 On ch=1 n=73 v=82
34320 On ch=1 n=59 v=76
34320 On ch=1 n=76 v=89
34324 Off ch=1 n=57 v=0
34324 Off ch=1 n=73 v=0
34560 On ch=1 n=61 v=77
34560 Off ch=1 n=38 v=0
34560 Off ch=1 n=45 v=0
34560 Off ch=1 n=54 v=0
34560 On ch=1 n=38 v=73
34560 On ch=1 n=45 v=73
34564 Off ch=1 n=59 v=0
34564 Off ch=1 n=76 v=0
34800 On ch=1 n=73 v=66
35040 On ch=1 n=59 v=75
35040 On ch=1 n=78 v=73
35044 Off ch=1 n=73 v=0
35048 Off ch=1 n=61 v=0
35280 On ch=1 n=57 v=71
35280 On ch=1 n=71 v=62
35284 Off ch=1 n=59 v=0
35284 Off ch=1 n=78 v=0
35520 On ch=1 n=66 v=50
35524 Off ch=1 n=71 v=0
35760 On ch=1 n=56 v=69
35760 On ch=1 n=71 v=87
35764 Off ch=1 n=66 v=0
35768 Off ch=1 n=57 v=0
36000 On ch=1 n=73 v=90
36004 Off ch=1 n=71 v=0
36240 On ch=1 n=57 v=76
36240 On ch=1 n=76 v=85
36244 Off ch=1 n=73 v=0
36248 Off ch=1 n=56 v=0
36465 Off ch=1 n=76 v=0
36480 On ch=1 n=66 v=56
36720 Off ch=1 n=66 v=0
36720 On ch=1 n=73 v=85
36960 Off ch=1 n=73 v=0
36960 On ch=1 n=78 v=93
37200 Off ch=1 n=78 v=0
37200 On ch=1 n=71 v=64
37440 Off ch=1 n=71 v=0
37440 On ch=1 n=66 v=65
37440 Off ch=1 n=38 v=0
37440 Off ch=1 n=45 v=0
37440 On ch=1 n=40 v=67
37680 Off ch=1 n=66 v=0
37680 On ch=1 n=71 v=83
37920 Off ch=1 n=71 v=0
37920 On ch=1 n=73 v=81
38160 Off ch=1 n=73 v=0
38160 On ch=1 n=76 v=82
38291 Off ch=1 n=57 v=0
38400 Off ch=1 n=76 v=0
38400 On ch=1 n=69 v=93
38400 On ch=1 n=71 v=93
38400 On ch=1 n=73 v=93
38400 On ch=1 n=76 v=93
38400 Off ch=1 n=40 v=0
38400 On ch=1 n=42 v=79
38880 On ch=1 n=66 v=66
39120 Off ch=1 n=66 v=0
39120 On ch=1 n=61 v=63
39360 Off ch=1 n=61 v=0
39360 On ch=1 n=54 v=66
39600 Off ch=1 n=54 v=0
39600 On ch=1 n=59 v=82
39840 Off ch=1 n=69 v=0
39840 On ch=1 n=69 v=83
39840 Off ch=1 n=59 v=0
39840 On ch=1 n=61 v=79
39866 Off ch=1 n=71 v=0
39866 Off ch=1 n=73 v=0
39866 Off ch=1 n=76 v=0
40080 Off ch=1 n=61 v=0
40080 On ch=1 n=64 v=83
40320 Off ch=1 n=69 v=0
40320 On ch=1 n=69 v=74
40320 Off ch=1 n=64 v=0
40320 On ch=1 n=54 v=70
40560 Off ch=1 n=54 v=0
40560 On ch=1 n=59 v=79
40800 Off ch=1 n=59 v=0
40800 On ch=1 n=66 v=96
41040 Off ch=1 n=66 v=0
41040 On ch=1 n=61 v=69
41280 Off ch=1 n=61 v=0
41280 On ch=1 n=54 v=73
41520 Off ch=1 n=54 v=0
41520 On ch=1 n=59 v=81
41685 Off ch=1 n=69 v=0
41760 On ch=1 n=69 v=82
41760 Off ch=1 n=59 v=0
41760 On ch=1 n=61 v=85
42000 On ch=1 n=71 v=90
42000 Off ch=1 n=61 v=0
42000 On ch=1 n=64 v=81
42004 Off ch=1 n=69 v=0
42240 On ch=1 n=69 v=82
42240 On ch=1 n=73 v=82
42240 Off ch=1 n=42 v=0
42240 Off ch=1 n=64 v=0
42240 On ch=1 n=40 v=71
42244 Off ch=1 n=71 v=0
42720 On ch=1 n=74 v=87
42720 On ch=1 n=66 v=68
42728 Off ch=1 n=69 v=0
42728 Off ch=1 n=73 v=0
42960 Off ch=1 n=66 v=0
42960 On ch=1 n=61 v=57
43200 On ch=1 n=73 v=76
43200 Off ch=1 n=61 v=0
43200 On ch=1 n=52 v=68
43208 Off ch=1 n=74 v=0
43440 Off ch=1 n=52 v=0
43440 On ch=1 n=59 v=80
43680 On ch=1 n=71 v=68
43680 Off ch=1 n=59 v=0
43680 On ch=1 n=61 v=81
43688 Off ch=1 n=73 v=0
43920 Off ch=1 n=61 v=0
43920 On ch=1 n=64 v=77
44160 On ch=1 n=69 v=69
44160 Off ch=1 n=64 v=0
44160 On ch=1 n=52 v=70
44168 Off ch=1 n=71 v=0
44400 Off ch=1 n=52 v=0
44400 On ch=1 n=59 v=85
44640 On ch=1 n=71 v=90
44640 On ch=1 n=80 v=90
44640 Off ch=1 n=59 v=0
44640 On ch=1 n=66 v=89
44648 Off ch=1 n=69 v=0
44880 Off ch=1 n=66 v=0
44880 On ch=1 n=61 v=68
45120 Off ch=1 n=61 v=0
45120 On ch=1 n=52 v=64
45360 Off ch=1 n=52 v=0
45360 On ch=1 n=59 v=81
45600 On ch=1 n=73 v=82
45600 On ch=1 n=81 v=82
45600 Off ch=1 n=59 v=0
45600 On ch=1 n=61 v=76
45619 Off ch=1 n=71 v=0
45619 Off ch=1 n=80 v=0
45840 Off ch=1 n=61 v=0
45840 On ch=1 n=64 v=89
46054 Off ch=1 n=73 v=0
46054 Off ch=1 n=81 v=0
46080 On ch=1 n=69 v=69
46080 On ch=1 n=73 v=69
46080 On ch=1 n=76 v=69
46080 Off ch=1 n=40 v=0
46080 Off ch=1 n=64 v=0
46080 On ch=1 n=38 v=70
46560 On ch=1 n=66 v=68
46800 Off ch=1 n=66 v=0
46800 On ch=1 n=59 v=67
47040 Off ch=1 n=59 v=0
47040 On ch=1 n=50 v=68
47280 Off ch=1 n=50 v=0
47280 On ch=1 n=57 v=83
47520 On ch=1 n=74 v=62
47520 Off ch=1 n=57 v=0
47520 On ch=1 n=59 v=83
47546 Off ch=1 n=69 v=0
47546 Off ch=1 n=73 v=0
47546 Off ch=1 n=76 v=0
47760 On ch=1 n=73 v=75
47760 Off ch=1 n=59 v=0
47760 On ch=1 n=64 v=87
47764 Off ch=1 n=74 v=0
48000 On ch=1 n=71 v=68
48000 Off ch=1 n=64 v=0
48000 On ch=1 n=50 v=68
48004 Off ch=1 n=73 v=0
48240 Off ch=1 n=50 v=0
48240 On ch=1 n=57 v=79
48480 On ch=1 n=69 v=73
48480 Off ch=1 n=57 v=0
48480 On ch=1 n=66 v=95
48488 Off ch=1 n=71 v=0
48720 Off ch=1 n=66 v=0
48720 On ch=1 n=59 v=72
48960 Off ch=1 n=59 v=0
48960 On ch=1 n=50 v=64
49200 Off ch=1 n=50 v=0
49200 On ch=1 n=57 v=82
49391 Off ch=1 n=69 v=0
49440 On ch=1 n=69 v=74
49440 Off ch=1 n=57 v=0
49440 On ch=1 n=59 v=80
49680 On ch=1 n=71 v=78
49680 Off ch=1 n=59 v=0
49680 On ch=1 n=64 v=86
49684 Off ch=1 n=69 v=0
49920 On ch=1 n=69 v=82
49920 On ch=1 n=73 v=82
49920 Off ch=1 n=38 v=0
49920 Off ch=1 n=64 v=0
49920 On ch=1 n=38 v=79
49924 Off ch=1 n=71 v=0
50400 On ch=1 n=74 v=88
50400 On ch=1 n=66 v=68
50408 Off ch=1 n=69 v=0
50408 Off ch=1 n=73 v=0
50640 On ch=1 n=73 v=70
50640 Off ch=1 n=66 v=0
50640 On ch=1 n=59 v=69
50644 Off ch=1 n=74 v=0
50880 Off ch=1 n=59 v=0
50880 On ch=1 n=50 v=67
51120 On ch=1 n=71 v=64
51120 Off ch=1 n=50 v=0
51120 On ch=1 n=57 v=77
51128 Off ch=1 n=73 v=0
51360 Off ch=1 n=57 v=0
51360 On ch=1 n=59 v=78
51600 On ch=1 n=69 v=73
51600 Off ch=1 n=59 v=0
51600 On ch=1 n=64 v=79
51608 Off ch=1 n=71 v=0
51840 Off ch=1 n=64 v=0
51840 On ch=1 n=50 v=64
52080 Off ch=1 n=50 v=0
52080 On ch=1 n=57 v=83
52320 Off ch=1 n=57 v=0
52320 On ch=1 n=66 v=99
52560 Off ch=1 n=66 v=0
52560 On ch=1 n=59 v=70
52800 Off ch=1 n=38 v=0
52800 Off ch=1 n=59 v=0
52800 On ch=1 n=52 v=84
53040 On ch=1 n=59 v=68
53280 Off ch=1 n=59 v=0
53280 On ch=1 n=64 v=87
53651 Off ch=1 n=69 v=0
53760 On ch=1 n=61 v=59
53760 On ch=1 n=66 v=59
53760 Off ch=1 n=52 v=0
53760 Off ch=1 n=64 v=0
53760 On ch=1 n=57 v=82
53760 On ch=1 n=47 v=71
53869 On ch=1 n=54 v=71
54720 On ch=1 n=69 v=73
54960 Off ch=1 n=69 v=0
54960 On ch=1 n=76 v=91
55200 Off ch=1 n=76 v=0
55200 On ch=1 n=81 v=83
55440 Off ch=1 n=81 v=0
55440 On ch=1 n=95 v=86
55680 Off ch=1 n=95 v=0
55680 On ch=1 n=88 v=84
55680 On ch=1 n=100 v=84
55680 On ch=1 n=64 v=99
55718 Off ch=1 n=57 v=0
56640 On ch=1 n=61 v=72
56659 Off ch=1 n=64 v=0
57600 Off ch=1 n=61 v=0
57600 Off ch=1 n=66 v=0
57600 Off ch=1 n=88 v=0
57600 Off ch=1 n=100 v=0
57600 On ch=1 n=73 v=70
57600 On ch=1 n=78 v=70
57600 Off ch=1 n=61 v=0
57600 On ch=1 n=61 v=78
57600 On ch=1 n=42 v=73
57671 Off ch=1 n=54 v=0
57675 Off ch=1 n=47 v=0
57709 On ch=1 n=52 v=76
57818 On ch=1 n=57 v=76
57960 On ch=1 n=59 v=76
57964 Off ch=1 n=61 v=0
58320 On ch=1 n=61 v=74
58324 Off ch=1 n=59 v=0
59040 On ch=1 n=100 v=70
59280 Off ch=1 n=100 v=0
59280 On ch=1 n=95 v=67
59520 Off ch=1 n=95 v=0
59520 On ch=1 n=93 v=71
59760 Off ch=1 n=93 v=0
59760 On ch=1 n=92 v=70
60000 Off ch=1 n=92 v=0
60000 On ch=1 n=88 v=62
60240 Off ch=1 n=88 v=0
60240 On ch=1 n=83 v=67
60371 Off ch=1 n=61 v=0
60480 Off ch=1 n=83 v=0
60480 On ch=1 n=81 v=71
60960 On ch=1 n=59 v=71
61245 Off ch=1 n=42 v=0
61253 Off ch=1 n=52 v=0
61256 Off ch=1 n=57 v=0
61440 Off ch=1 n=73 v=0
61440 Off ch=1 n=78 v=0
61440 Off ch=1 n=81 v=0
61440 On ch=1 n=61 v=72
61440 On ch=1 n=66 v=72
61440 Off ch=1 n=59 v=0
61440 On ch=1 n=59 v=76
61440 On ch=1 n=40 v=75
61549 On ch=1 n=47 v=75
61658 On ch=1 n=52 v=75
61800 On ch=1 n=57 v=74
61804 Off ch=1 n=59 v=0
62160 On ch=1 n=59 v=79
62164 Off ch=1 n=57 v=0
62880 On ch=1 n=93 v=67
63120 Off ch=1 n=93 v=0
63120 On ch=1 n=92 v=73
63360 Off ch=1 n=92 v=0
63360 On ch=1 n=88 v=70
63600 Off ch=1 n=88 v=0
63600 On ch=1 n=83 v=68
63840 Off ch=1 n=83 v=0
63840 On ch=1 n=81 v=68
64080 Off ch=1 n=81 v=0
64080 On ch=1 n=80 v=74
64211 Off ch=1 n=59 v=0
64320 Off ch=1 n=80 v=0
64320 On ch=1 n=76 v=71
64320 On ch=1 n=57 v=70
65085 Off ch=1 n=40 v=0
65093 Off ch=1 n=47 v=0
65096 Off ch=1 n=52 v=0
65280 Off ch=1 n=61 v=0
65280 Off ch=1 n=66 v=0
65280 Off ch=1 n=76 v=0
65280 On ch=1 n=61 v=75
65280 On ch=1 n=66 v=75
65280 Off ch=1 n=57 v=0
65280 On ch=1 n=57 v=76
65280 On ch=1 n=38 v=71
65389 On ch=1 n=45 v=71
65498 On ch=1 n=50 v=71
65640 On ch=1 n=59 v=77
65644 Off ch=1 n=57 v=0
66000 On ch=1 n=54 v=71
66004 Off ch=1 n=59 v=0
66480 On ch=1 n=69 v=69
66720 Off ch=1 n=69 v=0
66720 On ch=1 n=76 v=83
66960 Off ch=1 n=76 v=0
66960 On ch=1 n=81 v=86
67200 Off ch=1 n=81 v=0
67200 On ch=1 n=88 v=94
67440 Off ch=1 n=88 v=0
67440 On ch=1 n=83 v=67
67680 Off ch=1 n=83 v=0
67680 On ch=1 n=81 v=72
67920 Off ch=1 n=81 v=0
67920 On ch=1 n=76 v=67
68051 Off ch=1 n=54 v=0
68160 Off ch=1 n=76 v=0
68160 On ch=1 n=73 v=91
68160 On ch=1 n=69 v=94
68400 Off ch=1 n=69 v=0
68400 On ch=1 n=64 v=69
68640 Off ch=1 n=64 v=0
68640 On ch=1 n=62 v=68
68880 Off ch=1 n=73 v=0
68880 On ch=1 n=73 v=80
68880 Off ch=1 n=62 v=0
68880 On ch=1 n=61 v=69
68925 Off ch=1 n=38 v=0
68933 Off ch=1 n=45 v=0
68936 Off ch=1 n=50 v=0
69120 Off ch=1 n=61 v=0
69120 Off ch=1 n=66 v=0
69120 On ch=1 n=69 v=68
69120 On ch=1 n=73 v=90
69120 Off ch=1 n=61 v=0
69120 On ch=1 n=47 v=68
69120 On ch=1 n=54 v=68
69120 On ch=1 n=57 v=68
69124 Off ch=1 n=73 v=0
70320 On ch=1 n=54 v=68
70560 Off ch=1 n=54 v=0
70560 On ch=1 n=59 v=83
70800 Off ch=1 n=59 v=0
70800 On ch=1 n=61 v=81
71040 On ch=1 n=76 v=90
71040 On ch=1 n=78 v=90
71040 On ch=1 n=81 v=90
71040 Off ch=1 n=61 v=0
71040 On ch=1 n=64 v=82
71078 Off ch=1 n=69 v=0
71078 Off ch=1 n=73 v=0
72000 Off ch=1 n=76 v=0
72000 Off ch=1 n=78 v=0
72000 On ch=1 n=73 v=86
72000 On ch=1 n=76 v=86
72000 On ch=1 n=78 v=86
72019 Off ch=1 n=81 v=0
72960 Off ch=1 n=73 v=0
72960 Off ch=1 n=78 v=0
72960 On ch=1 n=73 v=81
72960 On ch=1 n=78 v=81
72960 Off ch=1 n=47 v=0
72960 Off ch=1 n=54 v=0
72960 Off ch=1 n=57 v=0
72960 Off ch=1 n=64 v=0
72960 On ch=1 n=42 v=71
72979 Off ch=1 n=76 v=0
73069 On ch=1 n=52 v=71
73178 On ch=1 n=57 v=71
73320 On ch=1 n=71 v=78
73320 On ch=1 n=76 v=78
73324 Off ch=1 n=73 v=0
73324 Off ch=1 n=78 v=0
73680 On ch=1 n=73 v=79
73680 On ch=1 n=78 v=79
73684 Off ch=1 n=71 v=0
73684 Off ch=1 n=76 v=0
74640 On ch=1 n=54 v=69
74880 Off ch=1 n=54 v=0
74880 On ch=1 n=61 v=93
75120 Off ch=1 n=61 v=0
75120 On ch=1 n=69 v=96
75360 Off ch=1 n=69 v=0
75360 On ch=1 n=68 v=73
75600 Off ch=1 n=68 v=0
75600 On ch=1 n=64 v=69
75731 Off ch=1 n=73 v=0
75731 Off ch=1 n=78 v=0
75840 On ch=1 n=76 v=85
75840 On ch=1 n=81 v=85
75840 Off ch=1 n=64 v=0
75840 On ch=1 n=59 v=71
76080 Off ch=1 n=59 v=0
76080 On ch=1 n=52 v=70
76320 Off ch=1 n=52 v=0
76320 On ch=1 n=42 v=67
76800 Off ch=1 n=76 v=0
76800 Off ch=1 n=81 v=0
76800 On ch=1 n=76 v=79
76800 On ch=1 n=81 v=79
76800 Off ch=1 n=42 v=0
76800 Off ch=1 n=52 v=0
76800 Off ch=1 n=57 v=0
76800 Off ch=1 n=42 v=0
76800 On ch=1 n=47 v=81
76909 On ch=1 n=54 v=81
77018 On ch=1 n=57 v=81
77160 On ch=1 n=73 v=72
77160 On ch=1 n=78 v=72
77164 Off ch=1 n=76 v=0
77164 Off ch=1 n=81 v=0
77520 On ch=1 n=76 v=82
77520 On ch=1 n=81 v=82
77524 Off ch=1 n=73 v=0
77524 Off ch=1 n=78 v=0
78480 On ch=1 n=47 v=69
78720 Off ch=1 n=47 v=0
78720 On ch=1 n=54 v=83
78960 Off ch=1 n=54 v=0
78960 On ch=1 n=57 v=83
79200 Off ch=1 n=57 v=0
79200 On ch=1 n=59 v=77
79440 Off ch=1 n=59 v=0
79440 On ch=1 n=61 v=80
79680 Off ch=1 n=76 v=0
79680 Off ch=1 n=81 v=0
79680 On ch=1 n=71 v=80
79680 On ch=1 n=76 v=80
79680 On ch=1 n=81 v=80
79680 On ch=1 n=83 v=80
79680 Off ch=1 n=61 v=0
79680 On ch=1 n=64 v=79
80640 Off ch=1 n=47 v=0
80640 Off ch=1 n=54 v=0
80640 Off ch=1 n=57 v=0
80640 On ch=1 n=49 v=87
80640 On ch=1 n=56 v=87
80640 On ch=1 n=59 v=87
82080 On ch=1 n=81 v=69
82080 On ch=1 n=93 v=69
82414 Off ch=1 n=71 v=0
82414 Off ch=1 n=76 v=0
82414 Off ch=1 n=81 v=0
82414 Off ch=1 n=83 v=0
82560 On ch=1 n=80 v=75
82560 On ch=1 n=92 v=75
82568 Off ch=1 n=81 v=0
82568 Off ch=1 n=93 v=0
83280 On ch=1 n=81 v=78
83280 On ch=1 n=93 v=78
83291 Off ch=1 n=80 v=0
83291 Off ch=1 n=92 v=0
84000 On ch=1 n=83 v=84
84000 On ch=1 n=95 v=84
84011 Off ch=1 n=81 v=0
84011 Off ch=1 n=93 v=0
84480 On ch=1 n=78 v=79
84480 On ch=1 n=90 v=79
84480 Off ch=1 n=64 v=0
84480 Off ch=1 n=49 v=0
84480 Off ch=1 n=56 v=0
84480 Off ch=1 n=59 v=0
84480 On ch=1 n=50 v=70
84488 Off ch=1 n=83 v=0
84488 Off ch=1 n=95 v=0
85200 Off ch=1 n=50 v=0
85200 On ch=1 n=57 v=79
85440 On ch=1 n=81 v=76
85440 On ch=1 n=93 v=76
85459 Off ch=1 n=78 v=0
85459 Off ch=1 n=90 v=0
85680 Off ch=1 n=57 v=0
85680 On ch=1 n=64 v=87
86160 Off ch=1 n=64 v=0
86160 On ch=1 n=69 v=88
86351 Off ch=1 n=81 v=0
86351 Off ch=1 n=93 v=0
86400 On ch=1 n=80 v=75
86400 On ch=1 n=92 v=75
86400 Off ch=1 n=69 v=0
86400 On ch=1 n=52 v=64
86880 On ch=1 n=81 v=81
86880 On ch=1 n=93 v=81
86888 Off ch=1 n=80 v=0
86888 Off ch=1 n=92 v=0
87120 Off ch=1 n=52 v=0
87120 On ch=1 n=59 v=85
87360 On ch=1 n=83 v=78
87360 On ch=1 n=95 v=78
87368 Off ch=1 n=81 v=0
87368 Off ch=1 n=93 v=0
87600 Off ch=1 n=59 v=0
87600 On ch=1 n=64 v=85
87840 Off ch=1 n=83 v=0
87840 Off ch=1 n=95 v=0
87840 On ch=1 n=83 v=78
87840 On ch=1 n=95 v=78
88080 Off ch=1 n=64 v=0
88080 On ch=1 n=71 v=92
88320 Off ch=1 n=71 v=0
88320 On ch=1 n=54 v=68
88800 On ch=1 n=81 v=74
88800 On ch=1 n=93 v=74
88819 Off ch=1 n=83 v=0
88819 Off ch=1 n=95 v=0
89040 Off ch=1 n=54 v=0
89040 On ch=1 n=61 v=91
89280 On ch=1 n=76 v=66
89280 On ch=1 n=88 v=66
89288 Off ch=1 n=81 v=0
89288 Off ch=1 n=93 v=0
89520 Off ch=1 n=61 v=0
89520 On ch=1 n=64 v=84
89760 On ch=1 n=83 v=78
89760 On ch=1 n=95 v=78
89768 Off ch=1 n=76 v=0
89768 Off ch=1 n=88 v=0
90000 On ch=1 n=81 v=74
90000 On ch=1 n=93 v=74
90000 Off ch=1 n=64 v=0
90000 On ch=1 n=69 v=85
90004 Off ch=1 n=83 v=0
90004 Off ch=1 n=95 v=0
90240 Off ch=1 n=69 v=0
90240 On ch=1 n=66 v=73
90480 Off ch=1 n=66 v=0
90480 On ch=1 n=76 v=95
90683 Off ch=1 n=81 v=0
90683 Off ch=1 n=93 v=0
90720 On ch=1 n=78 v=73
90720 On ch=1 n=90 v=73
90960 Off ch=1 n=76 v=0
90960 On ch=1 n=73 v=74
91200 On ch=1 n=85 v=85
91200 On ch=1 n=97 v=85
91208 Off ch=1 n=78 v=0
91208 Off ch=1 n=90 v=0
91440 Off ch=1 n=73 v=0
91440 On ch=1 n=69 v=67
91680 On ch=1 n=83 v=75
91680 On ch=1 n=95 v=75
91688 Off ch=1 n=85 v=0
91688 Off ch=1 n=97 v=0
91920 Off ch=1 n=69 v=0
91920 On ch=1 n=64 v=67
92160 Off ch=1 n=64 v=0
92160 On ch=1 n=50 v=65
92640 On ch=1 n=78 v=65
92640 On ch=1 n=90 v=65
92659 Off ch=1 n=83 v=0
92659 Off ch=1 n=95 v=0
92880 Off ch=1 n=50 v=0
92880 On ch=1 n=57 v=80
93120 On ch=1 n=85 v=89
93120 On ch=1 n=97 v=89
93128 Off ch=1 n=78 v=0
93128 Off ch=1 n=90 v=0
93360 Off ch=1 n=57 v=0
93360 On ch=1 n=64 v=94
93600 On ch=1 n=83 v=86
93600 On ch=1 n=95 v=86
93608 Off ch=1 n=85 v=0
93608 Off ch=1 n=97 v=0
93840 Off ch=1 n=64 v=0
93840 On ch=1 n=69 v=89
94080 Off ch=1 n=69 v=0
94080 On ch=1 n=49 v=71
94511 Off ch=1 n=83 v=0
94511 Off ch=1 n=95 v=0
94560 On ch=1 n=76 v=59
94560 On ch=1 n=88 v=59
94800 Off ch=1 n=49 v=0
94800 On ch=1 n=56 v=84
95040 Off ch=1 n=76 v=0
95040 Off ch=1 n=88 v=0
95040 On ch=1 n=76 v=77
95040 On ch=1 n=88 v=77
95280 Off ch=1 n=56 v=0
95280 On ch=1 n=64 v=93
95520 On ch=1 n=83 v=90
95520 On ch=1 n=95 v=90
95528 Off ch=1 n=76 v=0
95528 Off ch=1 n=88 v=0
95760 Off ch=1 n=64 v=0
95760 On ch=1 n=71 v=95
96000 On ch=1 n=81 v=72
96000 On ch=1 n=93 v=72
96000 Off ch=1 n=71 v=0
96000 On ch=1 n=54 v=69
96008 Off ch=1 n=83 v=0
96008 Off ch=1 n=95 v=0
96480 On ch=1 n=80 v=71
96480 On ch=1 n=92 v=71
96488 Off ch=1 n=81 v=0
96488 Off ch=1 n=93 v=0
96720 Off ch=1 n=54 v=0
96720 On ch=1 n=61 v=87
96960 On ch=1 n=81 v=79
96960 On ch=1 n=93 v=79
96968 Off ch=1 n=80 v=0
96968 Off ch=1 n=92 v=0
97200 Off ch=1 n=61 v=0
97200 On ch=1 n=64 v=83
97440 On ch=1 n=83 v=86
97440 On ch=1 n=95 v=86
97448 Off ch=1 n=81 v=0
97448 Off ch=1 n=93 v=0
97680 On ch=1 n=85 v=80
97680 On ch=1 n=97 v=80
97680 Off ch=1 n=64 v=0
97680 On ch=1 n=69 v=91
97684 Off ch=1 n=83 v=0
97684 Off ch=1 n=95 v=0
97920 Off ch=1 n=69 v=0
97920 On ch=1 n=57 v=70
98160 Off ch=1 n=57 v=0
98160 On ch=1 n=64 v=92
98363 Off ch=1 n=85 v=0
98363 Off ch=1 n=97 v=0
98400 On ch=1 n=85 v=66
98400 On ch=1 n=93 v=66
98400 Off ch=1 n=64 v=0
98400 On ch=1 n=69 v=90
98640 Off ch=1 n=69 v=0
98640 On ch=1 n=76 v=85
98880 Off ch=1 n=85 v=0
98880 Off ch=1 n=93 v=0
98880 On ch=1 n=85 v=72
98880 On ch=1 n=93 v=72
98880 Off ch=1 n=76 v=0
98880 On ch=1 n=71 v=66
99120 Off ch=1 n=71 v=0
99120 On ch=1 n=69 v=68
99360 On ch=1 n=80 v=60
99360 On ch=1 n=88 v=60
99360 Off ch=1 n=69 v=0
99360 On ch=1 n=68 v=74
99368 Off ch=1 n=85 v=0
99368 Off ch=1 n=93 v=0
99600 Off ch=1 n=68 v=0
99600 On ch=1 n=64 v=65
99840 On ch=1 n=78 v=80
99840 On ch=1 n=81 v=80
99840 On ch=1 n=90 v=80
99840 Off ch=1 n=64 v=0
99840 On ch=1 n=50 v=66
99848 Off ch=1 n=80 v=0
99848 Off ch=1 n=88 v=0
100080 Off ch=1 n=50 v=0
100080 On ch=1 n=57 v=81
100320 Off ch=1 n=57 v=0
100320 On ch=1 n=62 v=88
100560 Off ch=1 n=62 v=0
100560 On ch=1 n=64 v=80
100800 Off ch=1 n=81 v=0
100800 Off ch=1 n=90 v=0
100800 On ch=1 n=81 v=85
100800 On ch=1 n=90 v=85
100800 On ch=1 n=93 v=85
100819 Off ch=1 n=78 v=0
101040 Off ch=1 n=64 v=0
101040 On ch=1 n=62 v=71
101280 Off ch=1 n=62 v=0
101280 On ch=1 n=69 v=89
101520 Off ch=1 n=69 v=0
101520 On ch=1 n=76 v=95
101711 Off ch=1 n=81 v=0
101711 Off ch=1 n=90 v=0
101711 Off ch=1 n=93 v=0
101760 On ch=1 n=80 v=71
101760 On ch=1 n=83 v=71
101760 On ch=1 n=92 v=71
101760 Off ch=1 n=76 v=0
101760 On ch=1 n=52 v=71
102000 Off ch=1 n=52 v=0
102000 On ch=1 n=59 v=88
102240 On ch=1 n=81 v=78
102240 On ch=1 n=90 v=78
102240 On ch=1 n=93 v=78
102240 Off ch=1 n=59 v=0
102240 On ch=1 n=64 v=87
102248 Off ch=1 n=80 v=0
102248 Off ch=1 n=83 v=0
102248 Off ch=1 n=92 v=0
102480 Off ch=1 n=64 v=0
102480 On ch=1 n=68 v=81
102720 On ch=1 n=83 v=79
102720 On ch=1 n=92 v=79
102720 On ch=1 n=95 v=79
102728 Off ch=1 n=81 v=0
102728 Off ch=1 n=90 v=0
102728 Off ch=1 n=93 v=0
102960 Off ch=1 n=68 v=0
102960 On ch=1 n=64 v=72
103200 Off ch=1 n=83 v=0
103200 Off ch=1 n=92 v=0
103200 Off ch=1 n=95 v=0
103200 On ch=1 n=83 v=83
103200 On ch=1 n=92 v=83
103200 On ch=1 n=95 v=83
103200 Off ch=1 n=64 v=0
103200 On ch=1 n=71 v=91
103440 Off ch=1 n=71 v=0
103440 On ch=1 n=76 v=93
103680 Off ch=1 n=76 v=0
103680 On ch=1 n=54 v=72
103920 Off ch=1 n=54 v=0
103920 On ch=1 n=61 v=88
104160 On ch=1 n=85 v=88
104160 On ch=1 n=88 v=88
104160 On ch=1 n=97 v=88
104160 Off ch=1 n=61 v=0
104160 On ch=1 n=64 v=84
104179 Off ch=1 n=83 v=0
104179 Off ch=1 n=92 v=0
104179 Off ch=1 n=95 v=0
104400 Off ch=1 n=64 v=0
104400 On ch=1 n=69 v=88
104640 On ch=1 n=83 v=65
104640 On ch=1 n=92 v=65
104640 On ch=1 n=95 v=65
104648 Off ch=1 n=85 v=0
104648 Off ch=1 n=88 v=0
104648 Off ch=1 n=97 v=0
104880 Off ch=1 n=69 v=0
104880 On ch=1 n=64 v=65
105120 On ch=1 n=81 v=58
105120 On ch=1 n=85 v=58
105120 On ch=1 n=93 v=58
105120 Off ch=1 n=64 v=0
105120 On ch=1 n=69 v=83
105128 Off ch=1 n=83 v=0
105128 Off ch=1 n=92 v=0
105128 Off ch=1 n=95 v=0
105360 Off ch=1 n=69 v=0
105360 On ch=1 n=76 v=91
105600 Off ch=1 n=76 v=0
105600 On ch=1 n=49 v=72
105840 Off ch=1 n=49 v=0
105840 On ch=1 n=56 v=83
106031 Off ch=1 n=81 v=0
106031 Off ch=1 n=85 v=0
106031 Off ch=1 n=93 v=0
106080 On ch=1 n=81 v=77
106080 On ch=1 n=85 v=77
106080 On ch=1 n=93 v=77
106080 Off ch=1 n=56 v=0
106080 On ch=1 n=59 v=78
106320 Off ch=1 n=59 v=0
106320 On ch=1 n=64 v=88
106560 On ch=1 n=80 v=73
106560 On ch=1 n=88 v=73
106560 On ch=1 n=92 v=73
106568 Off ch=1 n=81 v=0
106568 Off ch=1 n=85 v=0
106568 Off ch=1 n=93 v=0
106800 Off ch=1 n=64 v=0
106800 On ch=1 n=64 v=74
107040 Off ch=1 n=80 v=0
107040 Off ch=1 n=88 v=0
107040 On ch=1 n=80 v=69
107040 On ch=1 n=88 v=69
107040 Off ch=1 n=64 v=0
107040 On ch=1 n=71 v=97
107048 Off ch=1 n=92 v=0
107280 Off ch=1 n=71 v=0
107280 On ch=1 n=76 v=89
107520 On ch=1 n=78 v=73
107520 On ch=1 n=81 v=73
107520 On ch=1 n=90 v=73
107520 Off ch=1 n=76 v=0
107520 On ch=1 n=47 v=68
107528 Off ch=1 n=80 v=0
107528 Off ch=1 n=88 v=0
107760 Off ch=1 n=47 v=0
107760 On ch=1 n=54 v=82
108000 On ch=1 n=85 v=90
108000 On ch=1 n=93 v=90
108000 On ch=1 n=97 v=90
108000 Off ch=1 n=54 v=0
108000 On ch=1 n=57 v=75
108008 Off ch=1 n=78 v=0
108008 Off ch=1 n=81 v=0
108008 Off ch=1 n=90 v=0
108240 Off ch=1 n=57 v=0
108240 On ch=1 n=62 v=84
108480 Off ch=1 n=62 v=0
108480 On ch=1 n=59 v=78
108720 Off ch=1 n=59 v=0
108720 On ch=1 n=66 v=88
108911 Off ch=1 n=85 v=0
108911 Off ch=1 n=93 v=0
108911 Off ch=1 n=97 v=0
108960 Off ch=1 n=66 v=0
108960 On ch=1 n=69 v=86
109200 On ch=1 n=78 v=69
109200 On ch=1 n=90 v=69
109200 Off ch=1 n=69 v=0
109200 On ch=1 n=74 v=93
109440 On ch=1 n=76 v=63
109440 On ch=1 n=80 v=63
109440 On ch=1 n=88 v=63
109440 Off ch=1 n=74 v=0
109440 On ch=1 n=49 v=66
109444 Off ch=1 n=78 v=0
109444 Off ch=1 n=90 v=0
109680 Off ch=1 n=49 v=0
109680 On ch=1 n=56 v=81
109920 On ch=1 n=83 v=95
109920 On ch=1 n=92 v=95
109920 On ch=1 n=95 v=95
109920 Off ch=1 n=56 v=0
109920 On ch=1 n=59 v=79
109928 Off ch=1 n=76 v=0
109928 Off ch=1 n=80 v=0
109928 Off ch=1 n=88 v=0
110160 Off ch=1 n=59 v=0
110160 On ch=1 n=64 v=92
110400 Off ch=1 n=64 v=0
110400 On ch=1 n=61 v=72
110640 Off ch=1 n=61 v=0
110640 On ch=1 n=68 v=89
110880 Off ch=1 n=92 v=0
110880 On ch=1 n=80 v=94
110880 On ch=1 n=92 v=94
110880 Off ch=1 n=68 v=0
110880 On ch=1 n=71 v=87
110899 Off ch=1 n=83 v=0
110899 Off ch=1 n=95 v=0
111120 On ch=1 n=81 v=81
111120 On ch=1 n=85 v=81
111120 On ch=1 n=93 v=81
111120 Off ch=1 n=71 v=0
111120 On ch=1 n=76 v=88
111124 Off ch=1 n=80 v=0
111124 Off ch=1 n=92 v=0
111360 Off ch=1 n=76 v=0
111360 On ch=1 n=50 v=72
111600 Off ch=1 n=50 v=0
111600 On ch=1 n=57 v=81
111840 On ch=1 n=90 v=66
111840 Off ch=1 n=57 v=0
111840 On ch=1 n=64 v=89
112080 Off ch=1 n=90 v=0
112080 On ch=1 n=83 v=59
112080 Off ch=1 n=64 v=0
112080 On ch=1 n=66 v=85
112320 Off ch=1 n=83 v=0
112320 On ch=1 n=78 v=65
112320 Off ch=1 n=66 v=0
112320 On ch=1 n=62 v=70
112560 Off ch=1 n=78 v=0
112560 On ch=1 n=83 v=85
112560 Off ch=1 n=62 v=0
112560 On ch=1 n=66 v=83
112800 Off ch=1 n=83 v=0
112800 On ch=1 n=85 v=82
112800 Off ch=1 n=66 v=0
112800 On ch=1 n=71 v=83
113040 Off ch=1 n=85 v=0
113040 On ch=1 n=88 v=84
113040 Off ch=1 n=71 v=0
113040 On ch=1 n=76 v=86
113280 Off ch=1 n=88 v=0
113280 On ch=1 n=78 v=62
113280 Off ch=1 n=76 v=0
113280 On ch=1 n=50 v=72
113520 Off ch=1 n=78 v=0
113520 On ch=1 n=85 v=84
113520 Off ch=1 n=50 v=0
113520 On ch=1 n=57 v=80
113760 Off ch=1 n=85 v=0
113760 On ch=1 n=90 v=94
113760 Off ch=1 n=57 v=0
113760 On ch=1 n=64 v=86
114000 Off ch=1 n=90 v=0
114000 On ch=1 n=83 v=66
114000 Off ch=1 n=64 v=0
114000 On ch=1 n=66 v=86
114240 Off ch=1 n=83 v=0
114240 On ch=1 n=78 v=64
114240 Off ch=1 n=66 v=0
114240 On ch=1 n=62 v=68
114480 Off ch=1 n=78 v=0
114480 On ch=1 n=83 v=86
114480 Off ch=1 n=62 v=0
114480 On ch=1 n=66 v=84
114720 Off ch=1 n=83 v=0
114720 On ch=1 n=85 v=86
114720 Off ch=1 n=66 v=0
114720 On ch=1 n=71 v=86
114960 Off ch=1 n=85 v=0
114960 On ch=1 n=88 v=90
114960 Off ch=1 n=71 v=0
114960 On ch=1 n=76 v=89
114994 Off ch=1 n=81 v=0
114994 Off ch=1 n=85 v=0
114994 Off ch=1 n=93 v=0
115200 Off ch=1 n=88 v=0
115200 On ch=1 n=78 v=53
115200 Off ch=1 n=76 v=0
115200 On ch=1 n=52 v=73
115440 Off ch=1 n=78 v=0
115440 On ch=1 n=85 v=86
115440 Off ch=1 n=52 v=0
115440 On ch=1 n=59 v=84
115680 Off ch=1 n=85 v=0
115680 On ch=1 n=90 v=85
115680 Off ch=1 n=59 v=0
115680 On ch=1 n=64 v=86
115920 Off ch=1 n=90 v=0
115920 On ch=1 n=83 v=62
115920 Off ch=1 n=64 v=0
115920 On ch=1 n=66 v=86
116160 Off ch=1 n=83 v=0
116160 On ch=1 n=78 v=65
116160 Off ch=1 n=66 v=0
116160 On ch=1 n=64 v=77
116400 Off ch=1 n=78 v=0
116400 On ch=1 n=83 v=80
116400 Off ch=1 n=64 v=0
116400 On ch=1 n=66 v=85
116640 Off ch=1 n=83 v=0
116640 On ch=1 n=85 v=80
116640 Off ch=1 n=66 v=0
116640 On ch=1 n=71 v=88
116880 Off ch=1 n=85 v=0
116880 On ch=1 n=88 v=87
116880 Off ch=1 n=71 v=0
116880 On ch=1 n=76 v=90
117120 Off ch=1 n=88 v=0
117120 On ch=1 n=93 v=90
117240 Off ch=1 n=93 v=0
117240 On ch=1 n=92 v=74
117360 Off ch=1 n=92 v=0
117360 On ch=1 n=88 v=69
117480 Off ch=1 n=88 v=0
117480 On ch=1 n=83 v=67
117600 Off ch=1 n=83 v=0
117600 On ch=1 n=81 v=71
117720 Off ch=1 n=81 v=0
117720 On ch=1 n=80 v=71
117840 Off ch=1 n=80 v=0
117840 On ch=1 n=76 v=62
117960 Off ch=1 n=76 v=0
117960 On ch=1 n=71 v=65
118080 Off ch=1 n=71 v=0
118080 On ch=1 n=69 v=92
118080 Off ch=1 n=76 v=0
118080 On ch=1 n=40 v=82
118080 On ch=1 n=52 v=82
118200 Off ch=1 n=69 v=0
118200 On ch=1 n=68 v=73
118320 Off ch=1 n=68 v=0
118320 On ch=1 n=64 v=68
118320 Off ch=1 n=40 v=0
118320 Off ch=1 n=52 v=0
118320 On ch=1 n=40 v=87
118320 On ch=1 n=52 v=87
118560 Off ch=1 n=64 v=0
118560 Off ch=1 n=40 v=0
118560 Off ch=1 n=52 v=0
119040 On ch=1 n=66 v=67
119040 On ch=1 n=69 v=67
119040 On ch=1 n=73 v=67
119040 On ch=1 n=78 v=67
119040 On ch=1 n=30 v=75
119040 On ch=1 n=42 v=75
119520 Off ch=1 n=30 v=0
119520 Off ch=1 n=42 v=0
119520 On ch=1 n=42 v=77
119760 Off ch=1 n=69 v=0
119760 Off ch=1 n=73 v=0
119760 On ch=1 n=69 v=60
119760 On ch=1 n=71 v=60
119760 On ch=1 n=73 v=60
119760 On ch=1 n=76 v=60
119760 Off ch=1 n=42 v=0
119760 On ch=1 n=54 v=83
119771 Off ch=1 n=66 v=0
119771 Off ch=1 n=78 v=0
120000 Off ch=1 n=54 v=0
120000 On ch=1 n=61 v=96
120000 On ch=1 n=64 v=96
120480 Off ch=1 n=61 v=0
120480 Off ch=1 n=64 v=0
120480 On ch=1 n=54 v=69
120720 Off ch=1 n=54 v=0
120720 On ch=1 n=42 v=63
120960 Off ch=1 n=69 v=0
120960 Off ch=1 n=71 v=0
120960 Off ch=1 n=73 v=0
120960 On ch=1 n=64 v=69
120960 On ch=1 n=69 v=69
120960 On ch=1 n=71 v=69
120960 On ch=1 n=73 v=69
120983 Off ch=1 n=76 v=0
121200 Off ch=1 n=42 v=0
121200 On ch=1 n=42 v=79
121440 Off ch=1 n=42 v=0
121440 On ch=1 n=42 v=74
121680 Off ch=1 n=69 v=0
121680 Off ch=1 n=71 v=0
121680 Off ch=1 n=73 v=0
121680 On ch=1 n=69 v=71
121680 On ch=1 n=71 v=71
121680 On ch=1 n=73 v=71
121680 On ch=1 n=76 v=71
121680 Off ch=1 n=42 v=0
121680 On ch=1 n=54 v=86
121691 Off ch=1 n=64 v=0
121920 Off ch=1 n=54 v=0
121920 On ch=1 n=61 v=99
121920 On ch=1 n=64 v=99
122160 Off ch=1 n=61 v=0
122160 Off ch=1 n=64 v=0
122160 On ch=1 n=54 v=69
122400 Off ch=1 n=54 v=0
122400 On ch=1 n=42 v=66
122640 Off ch=1 n=42 v=0
122640 On ch=1 n=54 v=80
122820 Off ch=1 n=69 v=0
122820 Off ch=1 n=71 v=0
122820 Off ch=1 n=73 v=0
122820 Off ch=1 n=76 v=0
122880 On ch=1 n=66 v=80
122880 On ch=1 n=69 v=80
122880 On ch=1 n=73 v=80
122880 On ch=1 n=78 v=80
122880 Off ch=1 n=54 v=0
122880 On ch=1 n=28 v=71
122880 On ch=1 n=40 v=71
123360 Off ch=1 n=28 v=0
123360 Off ch=1 n=40 v=0
123360 On ch=1 n=40 v=78
123600 Off ch=1 n=69 v=0
123600 Off ch=1 n=73 v=0
123600 On ch=1 n=69 v=79
123600 On ch=1 n=71 v=79
123600 On ch=1 n=73 v=79
123600 On ch=1 n=76 v=79
123600 Off ch=1 n=40 v=0
123600 On ch=1 n=52 v=86
123611 Off ch=1 n=66 v=0
123611 Off ch=1 n=78 v=0
123840 Off ch=1 n=52 v=0
123840 On ch=1 n=61 v=98
123840 On ch=1 n=64 v=98
124320 Off ch=1 n=61 v=0
124320 Off ch=1 n=64 v=0
124320 On ch=1 n=52 v=74
124560 Off ch=1 n=52 v=0
124560 On ch=1 n=40 v=66
124800 Off ch=1 n=69 v=0
124800 Off ch=1 n=71 v=0
124800 Off ch=1 n=73 v=0
124800 On ch=1 n=64 v=66
124800 On ch=1 n=69 v=66
124800 On ch=1 n=71 v=66
124800 On ch=1 n=73 v=66
124823 Off ch=1 n=76 v=0
125040 Off ch=1 n=40 v=0
125040 On ch=1 n=40 v=75
125280 Off ch=1 n=40 v=0
125280 On ch=1 n=40 v=75
125520 Off ch=1 n=69 v=0
125520 Off ch=1 n=71 v=0
125520 Off ch=1 n=73 v=0
125520 On ch=1 n=69 v=68
125520 On ch=1 n=71 v=68
125520 On ch=1 n=73 v=68
125520 On ch=1 n=76 v=68
125520 Off ch=1 n=40 v=0
125520 On ch=1 n=52 v=87
125531 Off ch=1 n=64 v=0
125760 Off ch=1 n=52 v=0
125760 On ch=1 n=61 v=94
125760 On ch=1 n=64 v=94
126000 Off ch=1 n=61 v=0
126000 Off ch=1 n=64 v=0
126000 On ch=1 n=52 v=73
126240 Off ch=1 n=52 v=0
126240 On ch=1 n=40 v=64
126480 Off ch=1 n=40 v=0
126480 On ch=1 n=52 v=87
126660 Off ch=1 n=69 v=0
126660 Off ch=1 n=71 v=0
126660 Off ch=1 n=73 v=0
126660 Off ch=1 n=76 v=0
126720 On ch=1 n=66 v=76
126720 On ch=1 n=69 v=76
126720 On ch=1 n=73 v=76
126720 On ch=1 n=78 v=76
126720 Off ch=1 n=52 v=0
126720 On ch=1 n=26 v=67
126720 On ch=1 n=38 v=67
127200 Off ch=1 n=26 v=0
127200 Off ch=1 n=38 v=0
127200 On ch=1 n=38 v=76
127440 Off ch=1 n=69 v=0
127440 Off ch=1 n=73 v=0
127440 On ch=1 n=69 v=68
127440 On ch=1 n=71 v=68
127440 On ch=1 n=73 v=68
127440 On ch=1 n=76 v=68
127440 Off ch=1 n=38 v=0
127440 On ch=1 n=50 v=89
127451 Off ch=1 n=66 v=0
127451 Off ch=1 n=78 v=0
127680 Off ch=1 n=50 v=0
127680 On ch=1 n=61 v=95
127680 On ch=1 n=64 v=95
128160 Off ch=1 n=61 v=0
128160 Off ch=1 n=64 v=0
128160 On ch=1 n=50 v=67
128400 Off ch=1 n=50 v=0
128400 On ch=1 n=38 v=62
128640 Off ch=1 n=69 v=0
128640 Off ch=1 n=71 v=0
128640 Off ch=1 n=73 v=0
128640 On ch=1 n=64 v=72
128640 On ch=1 n=69 v=72
128640 On ch=1 n=71 v=72
128640 On ch=1 n=73 v=72
128663 Off ch=1 n=76 v=0
128880 Off ch=1 n=38 v=0
128880 On ch=1 n=38 v=76
129120 Off ch=1 n=38 v=0
129120 On ch=1 n=38 v=77
129360 Off ch=1 n=69 v=0
129360 Off ch=1 n=71 v=0
129360 Off ch=1 n=73 v=0
129360 On ch=1 n=69 v=75
129360 On ch=1 n=71 v=75
129360 On ch=1 n=73 v=75
129360 On ch=1 n=76 v=75
129360 Off ch=1 n=38 v=0
129360 On ch=1 n=50 v=90
129371 Off ch=1 n=64 v=0
129600 Off ch=1 n=50 v=0
129600 On ch=1 n=61 v=95
129600 On ch=1 n=64 v=95
129840 Off ch=1 n=61 v=0
129840 Off ch=1 n=64 v=0
129840 On ch=1 n=50 v=73
130080 Off ch=1 n=50 v=0
130080 On ch=1 n=38 v=69
130320 Off ch=1 n=38 v=0
130320 On ch=1 n=50 v=90
130500 Off ch=1 n=69 v=0
130500 Off ch=1 n=71 v=0
130500 Off ch=1 n=73 v=0
130500 Off ch=1 n=76 v=0
130560 On ch=1 n=66 v=85
130560 On ch=1 n=69 v=85
130560 On ch=1 n=73 v=85
130560 On ch=1 n=78 v=85
130560 Off ch=1 n=50 v=0
130560 On ch=1 n=26 v=67
130560 On ch=1 n=38 v=67
131040 Off ch=1 n=26 v=0
131040 Off ch=1 n=38 v=0
131040 On ch=1 n=38 v=77
131280 Off ch=1 n=69 v=0
131280 Off ch=1 n=73 v=0
131280 On ch=1 n=69 v=77
131280 On ch=1 n=71 v=77
131280 On ch=1 n=73 v=77
131280 On ch=1 n=76 v=77
131280 Off ch=1 n=38 v=0
131280 On ch=1 n=50 v=87
131291 Off ch=1 n=66 v=0
131291 Off ch=1 n=78 v=0
131520 Off ch=1 n=50 v=0
131520 On ch=1 n=61 v=97
131520 On ch=1 n=64 v=97
132000 Off ch=1 n=61 v=0
132000 Off ch=1 n=64 v=0
132000 On ch=1 n=50 v=71
132240 Off ch=1 n=50 v=0
132240 On ch=1 n=38 v=64
132480 Off ch=1 n=69 v=0
132480 Off ch=1 n=71 v=0
132480 Off ch=1 n=73 v=0
132480 On ch=1 n=64 v=67
132480 On ch=1 n=69 v=67
132480 On ch=1 n=71 v=67
132480 On ch=1 n=73 v=67
132503 Off ch=1 n=76 v=0
132720 Off ch=1 n=38 v=0
132720 On ch=1 n=38 v=78
132960 Off ch=1 n=38 v=0
132960 On ch=1 n=38 v=79
133200 Off ch=1 n=69 v=0
133200 Off ch=1 n=71 v=0
133200 Off ch=1 n=73 v=0
133200 On ch=1 n=69 v=74
133200 On ch=1 n=71 v=74
133200 On ch=1 n=73 v=74
133200 On ch=1 n=76 v=74
133200 Off ch=1 n=38 v=0
133200 On ch=1 n=50 v=88
133211 Off ch=1 n=64 v=0
133440 On ch=1 n=64 v=65
133440 Off ch=1 n=50 v=0
133440 On ch=1 n=40 v=80
133440 On ch=1 n=52 v=80
133560 Off ch=1 n=64 v=0
133560 On ch=1 n=69 v=84
133680 Off ch=1 n=69 v=0
133680 On ch=1 n=71 v=84
133680 Off ch=1 n=40 v=0
133680 Off ch=1 n=52 v=0
133680 On ch=1 n=52 v=78
133800 Off ch=1 n=71 v=0
133800 On ch=1 n=76 v=91
133920 Off ch=1 n=76 v=0
133920 On ch=1 n=81 v=82
133920 Off ch=1 n=52 v=0
133920 On ch=1 n=64 v=96
134040 Off ch=1 n=81 v=0
134040 On ch=1 n=83 v=85
134160 Off ch=1 n=83 v=0
134160 On ch=1 n=88 v=85
134340 Off ch=1 n=69 v=0
134340 Off ch=1 n=71 v=0
134340 Off ch=1 n=73 v=0
134340 Off ch=1 n=76 v=0
134400 Off ch=1 n=88 v=0
134400 On ch=1 n=78 v=94
134400 On ch=1 n=81 v=94
134400 On ch=1 n=85 v=94
134400 On ch=1 n=90 v=94
134400 Off ch=1 n=64 v=0
134400 On ch=1 n=42 v=69
134400 On ch=1 n=54 v=69
134640 On ch=1 n=71 v=72
134880 Off ch=1 n=71 v=0
134880 On ch=1 n=73 v=76
134880 Off ch=1 n=42 v=0
134880 Off ch=1 n=54 v=0
134880 On ch=1 n=54 v=67
135120 Off ch=1 n=78 v=0
135120 Off ch=1 n=81 v=0
135120 Off ch=1 n=85 v=0
135120 Off ch=1 n=90 v=0
135120 Off ch=1 n=73 v=0
135120 On ch=1 n=76 v=75
135120 On ch=1 n=88 v=75
135120 Off ch=1 n=54 v=0
135120 On ch=1 n=59 v=85
135360 On ch=1 n=71 v=68
135360 Off ch=1 n=59 v=0
135360 On ch=1 n=61 v=93
135360 On ch=1 n=66 v=93
135600 Off ch=1 n=71 v=0
135600 On ch=1 n=73 v=81
135840 Off ch=1 n=73 v=0
135840 On ch=1 n=76 v=84
135840 Off ch=1 n=61 v=0
135840 Off ch=1 n=66 v=0
135840 On ch=1 n=54 v=69
136080 Off ch=1 n=76 v=0
136080 On ch=1 n=71 v=63
136080 Off ch=1 n=54 v=0
136080 On ch=1 n=42 v=64
136320 Off ch=1 n=76 v=0
136320 Off ch=1 n=88 v=0
136320 Off ch=1 n=71 v=0
136320 On ch=1 n=73 v=67
136320 On ch=1 n=85 v=67
136560 On ch=1 n=71 v=69
136560 Off ch=1 n=42 v=0
136560 On ch=1 n=42 v=77
136800 Off ch=1 n=71 v=0
136800 On ch=1 n=73 v=87
136800 Off ch=1 n=42 v=0
136800 On ch=1 n=54 v=87
137040 Off ch=1 n=73 v=0
137040 Off ch=1 n=85 v=0
137040 Off ch=1 n=73 v=0
137040 On ch=1 n=76 v=85
137040 On ch=1 n=88 v=85
137040 Off ch=1 n=54 v=0
137040 On ch=1 n=59 v=84
137280 On ch=1 n=71 v=68
137280 Off ch=1 n=59 v=0
137280 On ch=1 n=61 v=88
137280 On ch=1 n=66 v=88
137520 Off ch=1 n=71 v=0
137520 On ch=1 n=73 v=79
137520 Off ch=1 n=61 v=0
137520 Off ch=1 n=66 v=0
137520 On ch=1 n=59 v=73
137760 Off ch=1 n=73 v=0
137760 On ch=1 n=76 v=83
137760 Off ch=1 n=59 v=0
137760 On ch=1 n=54 v=72
138000 Off ch=1 n=76 v=0
138000 On ch=1 n=71 v=66
138240 Off ch=1 n=76 v=0
138240 Off ch=1 n=88 v=0
138240 Off ch=1 n=71 v=0
138240 On ch=1 n=78 v=78
138240 On ch=1 n=90 v=78
138240 Off ch=1 n=54 v=0
138240 On ch=1 n=40 v=71
138240 On ch=1 n=52 v=71
138480 On ch=1 n=71 v=70
138720 Off ch=1 n=71 v=0
138720 On ch=1 n=73 v=81
138720 Off ch=1 n=40 v=0
138720 Off ch=1 n=52 v=0
138720 On ch=1 n=52 v=76
138960 Off ch=1 n=78 v=0
138960 Off ch=1 n=90 v=0
138960 Off ch=1 n=73 v=0
138960 On ch=1 n=76 v=70
138960 On ch=1 n=88 v=70
138960 Off ch=1 n=52 v=0
138960 On ch=1 n=59 v=85
139200 On ch=1 n=71 v=69
139200 Off ch=1 n=59 v=0
139200 On ch=1 n=61 v=87
139200 On ch=1 n=66 v=87
139440 Off ch=1 n=71 v=0
139440 On ch=1 n=73 v=79
139680 Off ch=1 n=73 v=0
139680 On ch=1 n=76 v=80
139680 Off ch=1 n=61 v=0
139680 Off ch=1 n=66 v=0
139680 On ch=1 n=52 v=67
139920 Off ch=1 n=76 v=0
139920 On ch=1 n=71 v=66
139920 Off ch=1 n=52 v=0
139920 On ch=1 n=40 v=65
140160 Off ch=1 n=76 v=0
140160 Off ch=1 n=88 v=0
140160 Off ch=1 n=71 v=0
140160 On ch=1 n=73 v=71
140160 On ch=1 n=85 v=71
140400 On ch=1 n=71 v=71
140400 Off ch=1 n=40 v=0
140400 On ch=1 n=40 v=85
140640 Off ch=1 n=71 v=0
140640 On ch=1 n=73 v=80
140640 Off ch=1 n=40 v=0
140640 On ch=1 n=52 v=91
140880 Off ch=1 n=73 v=0
140880 Off ch=1 n=85 v=0
140880 Off ch=1 n=73 v=0
140880 On ch=1 n=76 v=81
140880 On ch=1 n=88 v=81
140880 Off ch=1 n=52 v=0
140880 On ch=1 n=59 v=84
141120 On ch=1 n=71 v=72
141120 Off ch=1 n=59 v=0
141120 On ch=1 n=61 v=92
141120 On ch=1 n=66 v=92
141360 Off ch=1 n=71 v=0
141360 On ch=1 n=73 v=79
141360 Off ch=1 n=61 v=0
141360 Off ch=1 n=66 v=0
141360 On ch=1 n=59 v=72
141600 Off ch=1 n=73 v=0
141600 On ch=1 n=76 v=87
141600 Off ch=1 n=59 v=0
141600 On ch=1 n=52 v=66
141840 Off ch=1 n=76 v=0
141840 On ch=1 n=71 v=64
142080 Off ch=1 n=76 v=0
142080 Off ch=1 n=88 v=0
142080 Off ch=1 n=71 v=0
142080 On ch=1 n=78 v=81
142080 On ch=1 n=90 v=81
142080 Off ch=1 n=52 v=0
142080 On ch=1 n=38 v=75
142080 On ch=1 n=50 v=75
142320 On ch=1 n=71 v=64
142560 Off ch=1 n=71 v=0
142560 On ch=1 n=73 v=77
142560 Off ch=1 n=38 v=0
142560 Off ch=1 n=50 v=0
142560 On ch=1 n=50 v=78
142800 Off ch=1 n=78 v=0
142800 Off ch=1 n=90 v=0
142800 Off ch=1 n=73 v=0
142800 On ch=1 n=76 v=74
142800 On ch=1 n=88 v=74
142800 Off ch=1 n=50 v=0
142800 On ch=1 n=59 v=84
143040 On ch=1 n=71 v=76
143040 Off ch=1 n=59 v=0
143040 On ch=1 n=61 v=92
143040 On ch=1 n=66 v=92
143280 Off ch=1 n=71 v=0
143280 On ch=1 n=73 v=83
143520 Off ch=1 n=73 v=0
143520 On ch=1 n=76 v=81
143520 Off ch=1 n=61 v=0
143520 Off ch=1 n=66 v=0
143520 On ch=1 n=50 v=72
143760 Off ch=1 n=76 v=0
143760 On ch=1 n=71 v=66
143760 Off ch=1 n=50 v=0
143760 On ch=1 n=38 v=68
144000 Off ch=1 n=76 v=0
144000 Off ch=1 n=88 v=0
144000 Off ch=1 n=71 v=0
144000 On ch=1 n=73 v=67
144000 On ch=1 n=85 v=67
144240 On ch=1 n=71 v=68
144240 Off ch=1 n=38 v=0
144240 On ch=1 n=38 v=76
144480 Off ch=1 n=71 v=0
144480 On ch=1 n=73 v=81
144480 Off ch=1 n=38 v=0
144480 On ch=1 n=50 v=85
144720 Off ch=1 n=73 v=0
144720 Off ch=1 n=85 v=0
144720 Off ch=1 n=73 v=0
144720 On ch=1 n=76 v=81
144720 On ch=1 n=88 v=81
144720 Off ch=1 n=50 v=0
144720 On ch=1 n=59 v=85
144960 On ch=1 n=71 v=71
144960 Off ch=1 n=59 v=0
144960 On ch=1 n=61 v=93
144960 On ch=1 n=66 v=93
145200 Off ch=1 n=71 v=0
145200 On ch=1 n=73 v=79
145200 Off ch=1 n=61 v=0
145200 Off ch=1 n=66 v=0
145200 On ch=1 n=59 v=73
145440 Off ch=1 n=73 v=0
145440 On ch=1 n=76 v=80
145440 Off ch=1 n=59 v=0
145440 On ch=1 n=50 v=64
145680 Off ch=1 n=76 v=0
145680 On ch=1 n=71 v=69
145920 Off ch=1 n=76 v=0
145920 Off ch=1 n=88 v=0
145920 Off ch=1 n=71 v=0
145920 On ch=1 n=78 v=86
145920 On ch=1 n=90 v=86
145920 Off ch=1 n=50 v=0
145920 On ch=1 n=38 v=77
145920 On ch=1 n=50 v=77
146160 On ch=1 n=71 v=67
146400 Off ch=1 n=71 v=0
146400 On ch=1 n=73 v=78
146400 Off ch=1 n=38 v=0
146400 Off ch=1 n=50 v=0
146400 On ch=1 n=50 v=73
146640 Off ch=1 n=78 v=0
146640 Off ch=1 n=90 v=0
146640 Off ch=1 n=73 v=0
146640 On ch=1 n=76 v=73
146640 On ch=1 n=88 v=73
146640 Off ch=1 n=50 v=0
146640 On ch=1 n=59 v=86
146880 On ch=1 n=71 v=68
146880 Off ch=1 n=59 v=0
146880 On ch=1 n=61 v=93
146880 On ch=1 n=66 v=93
147120 Off ch=1 n=71 v=0
147120 On ch=1 n=73 v=80
147360 Off ch=1 n=73 v=0
147360 On ch=1 n=76 v=83
147360 Off ch=1 n=61 v=0
147360 Off ch=1 n=66 v=0
147360 On ch=1 n=50 v=66
147600 Off ch=1 n=76 v=0
147600 On ch=1 n=71 v=68
147600 Off ch=1 n=50 v=0
147600 On ch=1 n=38 v=62
147840 Off ch=1 n=76 v=0
147840 Off ch=1 n=88 v=0
147840 Off ch=1 n=71 v=0
147840 On ch=1 n=73 v=67
147840 On ch=1 n=85 v=67
148080 On ch=1 n=71 v=73
148080 Off ch=1 n=38 v=0
148080 On ch=1 n=38 v=78
148320 Off ch=1 n=71 v=0
148320 On ch=1 n=73 v=82
148320 Off ch=1 n=38 v=0
148320 On ch=1 n=50 v=87
148560 Off ch=1 n=73 v=0
148560 Off ch=1 n=85 v=0
148560 Off ch=1 n=73 v=0
148560 On ch=1 n=76 v=80
148560 On ch=1 n=88 v=80
148560 Off ch=1 n=50 v=0
148560 On ch=1 n=59 v=87
148800 On ch=1 n=83 v=68
148800 Off ch=1 n=59 v=0
148800 On ch=1 n=40 v=72
148800 On ch=1 n=52 v=72
148920 Off ch=1 n=83 v=0
148920 On ch=1 n=81 v=71
149040 Off ch=1 n=81 v=0
149040 On ch=1 n=80 v=72
149160 Off ch=1 n=80 v=0
149160 On ch=1 n=76 v=65
149280 Off ch=1 n=76 v=0
149280 On ch=1 n=71 v=67
149400 Off ch=1 n=71 v=0
149400 On ch=1 n=69 v=75
149520 Off ch=1 n=69 v=0
149520 On ch=1 n=68 v=69
149640 Off ch=1 n=68 v=0
149640 On ch=1 n=64 v=68
149760 Off ch=1 n=76 v=0
149760 Off ch=1 n=88 v=0
149760 Off ch=1 n=64 v=0
149760 On ch=1 n=69 v=51
149760 On ch=1 n=73 v=51
149760 On ch=1 n=76 v=51
149760 Off ch=1 n=40 v=0
149760 Off ch=1 n=52 v=0
149760 On ch=1 n=42 v=69
150240 Off ch=1 n=42 v=0
150240 On ch=1 n=54 v=83
150480 Off ch=1 n=54 v=0
150480 On ch=1 n=57 v=80
150720 Off ch=1 n=57 v=0
150720 On ch=1 n=61 v=96
150720 On ch=1 n=64 v=96
151200 Off ch=1 n=69 v=0
151200 Off ch=1 n=73 v=0
151200 Off ch=1 n=76 v=0
151200 On ch=1 n=69 v=59
151440 Off ch=1 n=69 v=0
151440 On ch=1 n=64 v=72
151440 On ch=1 n=69 v=72
151440 Off ch=1 n=61 v=0
151440 Off ch=1 n=64 v=0
151440 On ch=1 n=42 v=71
151920 Off ch=1 n=42 v=0
151920 On ch=1 n=42 v=78
152400 Off ch=1 n=42 v=0
152400 On ch=1 n=54 v=86
152640 Off ch=1 n=54 v=0
152640 On ch=1 n=61 v=94
152640 On ch=1 n=64 v=94
152880 Off ch=1 n=61 v=0
152880 Off ch=1 n=64 v=0
152880 On ch=1 n=57 v=72
153120 Off ch=1 n=64 v=0
153120 Off ch=1 n=69 v=0
153120 On ch=1 n=69 v=76
153120 Off ch=1 n=57 v=0
153120 On ch=1 n=54 v=76
153360 Off ch=1 n=69 v=0
153360 On ch=1 n=71 v=81
153600 Off ch=1 n=71 v=0
153600 On ch=1 n=64 v=83
153600 On ch=1 n=69 v=83
153600 On ch=1 n=73 v=83
153600 Off ch=1 n=54 v=0
153600 On ch=1 n=40 v=65
154080 Off ch=1 n=64 v=0
154080 Off ch=1 n=69 v=0
154080 Off ch=1 n=73 v=0
154080 On ch=1 n=74 v=83
154080 Off ch=1 n=40 v=0
154080 On ch=1 n=52 v=81
154320 Off ch=1 n=74 v=0
154320 On ch=1 n=73 v=73
154320 Off ch=1 n=52 v=0
154320 On ch=1 n=57 v=81
154560 Off ch=1 n=57 v=0
154560 On ch=1 n=59 v=91
154560 On ch=1 n=64 v=91
154800 Off ch=1 n=73 v=0
154800 On ch=1 n=71 v=64
154800 Off ch=1 n=59 v=0
154800 Off ch=1 n=64 v=0
154800 On ch=1 n=57 v=69
155040 Off ch=1 n=57 v=0
155040 On ch=1 n=52 v=71
155280 Off ch=1 n=71 v=0
155280 On ch=1 n=64 v=71
155280 On ch=1 n=69 v=71
155280 Off ch=1 n=52 v=0
155280 On ch=1 n=40 v=64
155760 Off ch=1 n=40 v=0
155760 On ch=1 n=40 v=79
156000 Off ch=1 n=64 v=0
156000 Off ch=1 n=69 v=0
156000 On ch=1 n=71 v=93
156000 On ch=1 n=76 v=93
156000 On ch=1 n=80 v=93
156000 Off ch=1 n=40 v=0
156000 On ch=1 n=52 v=92
156240 Off ch=1 n=52 v=0
156240 On ch=1 n=57 v=78
156480 Off ch=1 n=57 v=0
156480 On ch=1 n=59 v=93
156480 On ch=1 n=64 v=93
156720 Off ch=1 n=59 v=0
156720 Off ch=1 n=64 v=0
156720 On ch=1 n=57 v=74
156960 Off ch=1 n=71 v=0
156960 Off ch=1 n=76 v=0
156960 Off ch=1 n=80 v=0
156960 On ch=1 n=73 v=67
156960 Off ch=1 n=57 v=0
156960 On ch=1 n=52 v=71
157200 Off ch=1 n=52 v=0
157200 On ch=1 n=57 v=82
157440 Off ch=1 n=73 v=0
157440 On ch=1 n=69 v=77
157440 On ch=1 n=73 v=77
157440 On ch=1 n=76 v=77
157440 Off ch=1 n=57 v=0
157440 On ch=1 n=38 v=71
157920 Off ch=1 n=38 v=0
157920 On ch=1 n=50 v=80
158160 Off ch=1 n=50 v=0
158160 On ch=1 n=54 v=80
158400 Off ch=1 n=54 v=0
158400 On ch=1 n=57 v=94
158400 On ch=1 n=64 v=94
158880 Off ch=1 n=69 v=0
158880 Off ch=1 n=73 v=0
158880 Off ch=1 n=76 v=0
158880 On ch=1 n=69 v=64
159120 Off ch=1 n=69 v=0
159120 On ch=1 n=64 v=72
159120 On ch=1 n=69 v=72
159120 Off ch=1 n=57 v=0
159120 Off ch=1 n=64 v=0
159120 On ch=1 n=38 v=73
159600 Off ch=1 n=38 v=0
159600 On ch=1 n=38 v=75
160080 Off ch=1 n=38 v=0
160080 On ch=1 n=50 v=83
160320 Off ch=1 n=50 v=0
160320 On ch=1 n=57 v=97
160320 On ch=1 n=64 v=97
160560 Off ch=1 n=57 v=0
160560 Off ch=1 n=64 v=0
160560 On ch=1 n=54 v=72
160800 Off ch=1 n=64 v=0
160800 Off ch=1 n=69 v=0
160800 On ch=1 n=69 v=77
160800 Off ch=1 n=54 v=0
160800 On ch=1 n=50 v=69
161040 Off ch=1 n=69 v=0
161040 On ch=1 n=71 v=83
161280 Off ch=1 n=71 v=0
161280 On ch=1 n=64 v=79
161280 On ch=1 n=69 v=79
161280 On ch=1 n=73 v=79
161280 Off ch=1 n=50 v=0
161280 On ch=1 n=38 v=62
161760 Off ch=1 n=64 v=0
161760 Off ch=1 n=69 v=0
161760 Off ch=1 n=73 v=0
161760 On ch=1 n=71 v=76
161760 Off ch=1 n=38 v=0
161760 On ch=1 n=50 v=83
162000 Off ch=1 n=71 v=0
162000 On ch=1 n=69 v=69
162000 Off ch=1 n=50 v=0
162000 On ch=1 n=54 v=86
162240 Off ch=1 n=54 v=0
162240 On ch=1 n=57 v=94
162240 On ch=1 n=64 v=94
162480 Off ch=1 n=69 v=0
162480 On ch=1 n=68 v=72
162960 Off ch=1 n=68 v=0
162960 On ch=1 n=64 v=83
162960 On ch=1 n=69 v=83
162960 Off ch=1 n=57 v=0
162960 Off ch=1 n=64 v=0
162960 On ch=1 n=38 v=71
163440 Off ch=1 n=38 v=0
163440 On ch=1 n=50 v=84
163680 Off ch=1 n=50 v=0
163680 On ch=1 n=64 v=99
163920 Off ch=1 n=64 v=0
163920 On ch=1 n=57 v=73
164160 On ch=1 n=64 v=69
164160 Off ch=1 n=57 v=0
164160 On ch=1 n=40 v=68
164160 On ch=1 n=52 v=68
164280 Off ch=1 n=64 v=0
164280 On ch=1 n=68 v=78
164400 Off ch=1 n=68 v=0
164400 On ch=1 n=69 v=81
164520 Off ch=1 n=69 v=0
164520 On ch=1 n=71 v=78
164640 Off ch=1 n=71 v=0
164640 On ch=1 n=76 v=85
164760 Off ch=1 n=76 v=0
164760 On ch=1 n=80 v=91
164880 Off ch=1 n=80 v=0
164880 On ch=1 n=81 v=81
165000 Off ch=1 n=81 v=0
165000 On ch=1 n=83 v=82
165120 Off ch=1 n=64 v=0
165120 Off ch=1 n=69 v=0
165120 Off ch=1 n=83 v=0
165120 On ch=1 n=76 v=97
165120 On ch=1 n=88 v=97
165120 Off ch=1 n=40 v=0
165120 Off ch=1 n=52 v=0
165120 On ch=1 n=42 v=67
165360 On ch=1 n=83 v=64
165600 Off ch=1 n=83 v=0
165600 On ch=1 n=81 v=70
165600 Off ch=1 n=42 v=0
165600 On ch=1 n=54 v=81
165840 Off ch=1 n=81 v=0
165840 On ch=1 n=80 v=72
165840 Off ch=1 n=54 v=0
165840 On ch=1 n=57 v=78
166080 Off ch=1 n=80 v=0
166080 On ch=1 n=76 v=69
166080 Off ch=1 n=57 v=0
166080 On ch=1 n=61 v=94
166080 On ch=1 n=64 v=94
166320 Off ch=1 n=76 v=0
166320 On ch=1 n=80 v=84
166560 Off ch=1 n=76 v=0
166560 Off ch=1 n=88 v=0
166560 Off ch=1 n=80 v=0
166560 On ch=1 n=69 v=72
166560 On ch=1 n=81 v=72
166800 Off ch=1 n=69 v=0
166800 Off ch=1 n=81 v=0
166800 On ch=1 n=69 v=76
166800 On ch=1 n=81 v=76
166800 Off ch=1 n=61 v=0
166800 Off ch=1 n=64 v=0
166800 On ch=1 n=42 v=69
167040 On ch=1 n=76 v=69
167280 Off ch=1 n=76 v=0
167280 On ch=1 n=71 v=67
167280 Off ch=1 n=42 v=0
167280 On ch=1 n=42 v=76
167520 Off ch=1 n=71 v=0
167520 On ch=1 n=69 v=70
167760 Off ch=1 n=69 v=0
167760 On ch=1 n=68 v=69
167760 Off ch=1 n=42 v=0
167760 On ch=1 n=54 v=86
168000 Off ch=1 n=68 v=0
168000 On ch=1 n=64 v=69
168000 Off ch=1 n=54 v=0
168000 On ch=1 n=61 v=98
168000 On ch=1 n=64 v=98
168240 Off ch=1 n=64 v=0
168240 On ch=1 n=68 v=81
168240 Off ch=1 n=61 v=0
168240 Off ch=1 n=64 v=0
168240 On ch=1 n=57 v=69
168480 Off ch=1 n=69 v=0
168480 Off ch=1 n=81 v=0
168480 Off ch=1 n=68 v=0
168480 On ch=1 n=69 v=77
168480 On ch=1 n=81 v=77
168480 Off ch=1 n=57 v=0
168480 On ch=1 n=54 v=78
168720 Off ch=1 n=69 v=0
168720 Off ch=1 n=81 v=0
168720 On ch=1 n=71 v=79
168720 On ch=1 n=83 v=79
168960 Off ch=1 n=71 v=0
168960 Off ch=1 n=83 v=0
168960 On ch=1 n=85 v=82
168960 On ch=1 n=76 v=68
168960 Off ch=1 n=54 v=0
168960 On ch=1 n=40 v=68
169200 Off ch=1 n=76 v=0
169200 On ch=1 n=73 v=67
169440 Off ch=1 n=73 v=0
169440 On ch=1 n=76 v=79
169440 Off ch=1 n=40 v=0
169440 On ch=1 n=52 v=82
169680 Off ch=1 n=85 v=0
169680 Off ch=1 n=76 v=0
169680 On ch=1 n=83 v=76
169680 On ch=1 n=74 v=68
169680 Off ch=1 n=52 v=0
169680 On ch=1 n=57 v=79
169920 Off ch=1 n=83 v=0
169920 Off ch=1 n=74 v=0
169920 On ch=1 n=81 v=75
169920 On ch=1 n=73 v=72
169920 Off ch=1 n=57 v=0
169920 On ch=1 n=59 v=88
169920 On ch=1 n=64 v=88
170160 Off ch=1 n=81 v=0
170160 Off ch=1 n=73 v=0
170160 On ch=1 n=80 v=75
170160 On ch=1 n=71 v=72
170160 Off ch=1 n=59 v=0
170160 Off ch=1 n=64 v=0
170160 On ch=1 n=57 v=71
170400 Off ch=1 n=57 v=0
170400 On ch=1 n=52 v=72
170640 Off ch=1 n=80 v=0
170640 Off ch=1 n=71 v=0
170640 On ch=1 n=81 v=81
170640 On ch=1 n=73 v=74
170640 Off ch=1 n=52 v=0
170640 On ch=1 n=40 v=68
170880 Off ch=1 n=73 v=0
170880 On ch=1 n=69 v=68
171000 Off ch=1 n=69 v=0
171000 On ch=1 n=73 v=83
171120 Off ch=1 n=73 v=0
171120 On ch=1 n=74 v=79
171120 Off ch=1 n=40 v=0
171120 On ch=1 n=40 v=81
171240 Off ch=1 n=74 v=0
171240 On ch=1 n=76 v=79
171360 Off ch=1 n=76 v=0
171360 On ch=1 n=80 v=84
171360 Off ch=1 n=40 v=0
171360 On ch=1 n=52 v=86
171480 Off ch=1 n=80 v=0
171480 On ch=1 n=81 v=82
171600 Off ch=1 n=81 v=0
171600 On ch=1 n=83 v=82
171600 Off ch=1 n=52 v=0
171600 On ch=1 n=57 v=81
171720 Off ch=1 n=83 v=0
171720 On ch=1 n=88 v=87
171840 Off ch=1 n=81 v=0
171840 Off ch=1 n=88 v=0
171840 On ch=1 n=80 v=93
171840 On ch=1 n=92 v=93
171840 Off ch=1 n=57 v=0
171840 On ch=1 n=59 v=86
171840 On ch=1 n=64 v=86
172080 Off ch=1 n=59 v=0
172080 Off ch=1 n=64 v=0
172080 On ch=1 n=57 v=74
172320 Off ch=1 n=80 v=0
172320 Off ch=1 n=92 v=0
172320 On ch=1 n=81 v=82
172320 On ch=1 n=93 v=82
172320 Off ch=1 n=57 v=0
172320 On ch=1 n=52 v=68
172560 Off ch=1 n=52 v=0
172560 On ch=1 n=57 v=80
172800 Off ch=1 n=81 v=0
172800 Off ch=1 n=93 v=0
172800 On ch=1 n=76 v=72
172800 On ch=1 n=88 v=72
172800 Off ch=1 n=57 v=0
172800 On ch=1 n=38 v=70
173040 On ch=1 n=83 v=70
173280 Off ch=1 n=83 v=0
173280 On ch=1 n=81 v=65
173280 Off ch=1 n=38 v=0
173280 On ch=1 n=50 v=85
173520 Off ch=1 n=81 v=0
173520 On ch=1 n=80 v=72
173520 Off ch=1 n=50 v=0
173520 On ch=1 n=54 v=80
173760 Off ch=1 n=80 v=0
173760 On ch=1 n=76 v=67
173760 Off ch=1 n=54 v=0
173760 On ch=1 n=57 v=91
173760 On ch=1 n=64 v=91
174000 Off ch=1 n=76 v=0
174000 On ch=1 n=80 v=84
174240 Off ch=1 n=76 v=0
174240 Off ch=1 n=88 v=0
174240 Off ch=1 n=80 v=0
174240 On ch=1 n=69 v=61
174240 On ch=1 n=81 v=61
174480 Off ch=1 n=69 v=0
174480 Off ch=1 n=81 v=0
174480 On ch=1 n=69 v=74
174480 On ch=1 n=81 v=74
174480 Off ch=1 n=57 v=0
174480 Off ch=1 n=64 v=0
174480 On ch=1 n=38 v=71
174720 On ch=1 n=76 v=71
174960 Off ch=1 n=76 v=0
174960 On ch=1 n=71 v=64
174960 Off ch=1 n=38 v=0
174960 On ch=1 n=38 v=74
175200 Off ch=1 n=71 v=0
175200 On ch=1 n=69 v=73
175440 Off ch=1 n=69 v=0
175440 On ch=1 n=68 v=72
175440 Off ch=1 n=38 v=0
175440 On ch=1 n=50 v=88
175680 Off ch=1 n=68 v=0
175680 On ch=1 n=64 v=71
175680 Off ch=1 n=50 v=0
175680 On ch=1 n=57 v=98
175680 On ch=1 n=64 v=98
175920 Off ch=1 n=64 v=0
175920 On ch=1 n=68 v=84
175920 Off ch=1 n=57 v=0
175920 Off ch=1 n=64 v=0
175920 On ch=1 n=54 v=73
176160 Off ch=1 n=69 v=0
176160 Off ch=1 n=81 v=0
176160 Off ch=1 n=68 v=0
176160 On ch=1 n=69 v=74
176160 On ch=1 n=81 v=74
176160 Off ch=1 n=54 v=0
176160 On ch=1 n=50 v=66
176400 Off ch=1 n=69 v=0
176400 Off ch=1 n=81 v=0
176400 On ch=1 n=71 v=85
176400 On ch=1 n=83 v=85
176640 Off ch=1 n=71 v=0
176640 Off ch=1 n=83 v=0
176640 On ch=1 n=85 v=78
176640 On ch=1 n=76 v=70
176640 Off ch=1 n=50 v=0
176640 On ch=1 n=38 v=66
176880 Off ch=1 n=76 v=0
176880 On ch=1 n=73 v=71
177120 Off ch=1 n=85 v=0
177120 Off ch=1 n=73 v=0
177120 On ch=1 n=86 v=78
177120 On ch=1 n=74 v=80
177120 Off ch=1 n=38 v=0
177120 On ch=1 n=50 v=86
177360 Off ch=1 n=86 v=0
177360 Off ch=1 n=74 v=0
177360 On ch=1 n=85 v=73
177360 On ch=1 n=76 v=81
177360 Off ch=1 n=50 v=0
177360 On ch=1 n=54 v=79
177600 Off ch=1 n=76 v=0
177600 On ch=1 n=73 v=72
177600 Off ch=1 n=54 v=0
177600 On ch=1 n=57 v=94
177600 On ch=1 n=64 v=94
177840 Off ch=1 n=85 v=0
177840 Off ch=1 n=73 v=0
177840 On ch=1 n=83 v=73
177840 On ch=1 n=74 v=74
178080 Off ch=1 n=74 v=0
178080 On ch=1 n=71 v=73
178320 Off ch=1 n=83 v=0
178320 Off ch=1 n=71 v=0
178320 On ch=1 n=81 v=64
178320 On ch=1 n=73 v=77
178320 Off ch=1 n=57 v=0
178320 Off ch=1 n=64 v=0
178320 On ch=1 n=38 v=72
178800 Off ch=1 n=73 v=0
178800 On ch=1 n=76 v=82
178800 Off ch=1 n=38 v=0
178800 On ch=1 n=50 v=84
179040 Off ch=1 n=76 v=0
179040 On ch=1 n=71 v=64
179040 Off ch=1 n=50 v=0
179040 On ch=1 n=64 v=98
179280 Off ch=1 n=71 v=0
179280 On ch=1 n=69 v=67
179280 Off ch=1 n=64 v=0
179280 On ch=1 n=57 v=76
179520 Off ch=1 n=69 v=0
179520 On ch=1 n=68 v=75
179520 Off ch=1 n=57 v=0
179520 On ch=1 n=40 v=73
179520 On ch=1 n=52 v=73
179760 Off ch=1 n=68 v=0
179760 On ch=1 n=69 v=80
180000 Off ch=1 n=69 v=0
180000 On ch=1 n=71 v=80
180240 Off ch=1 n=71 v=0
180240 On ch=1 n=64 v=62
180480 Off ch=1 n=81 v=0
180480 Off ch=1 n=64 v=0
180480 On ch=1 n=61 v=57
180480 On ch=1 n=62 v=57
180480 On ch=1 n=66 v=57
180480 On ch=1 n=69 v=57
180480 Off ch=1 n=40 v=0
180480 Off ch=1 n=52 v=0
180480 On ch=1 n=35 v=69
180480 On ch=1 n=47 v=69
181440 On ch=1 n=61 v=69
181519 Off ch=1 n=61 v=0
181519 On ch=1 n=62 v=76
181598 Off ch=1 n=62 v=0
181598 On ch=1 n=66 v=83
181680 Off ch=1 n=66 v=0
181680 On ch=1 n=69 v=90
181759 Off ch=1 n=69 v=0
181759 On ch=1 n=73 v=83
181838 Off ch=1 n=73 v=0
181838 On ch=1 n=74 v=79
181920 Off ch=1 n=74 v=0
181920 On ch=1 n=78 v=82
181999 Off ch=1 n=78 v=0
181999 On ch=1 n=81 v=90
182078 Off ch=1 n=81 v=0
182078 On ch=1 n=85 v=87
182160 Off ch=1 n=85 v=0
182160 On ch=1 n=86 v=83
182239 Off ch=1 n=86 v=0
182239 On ch=1 n=90 v=86
182318 Off ch=1 n=90 v=0
182318 On ch=1 n=93 v=82
182400 Off ch=1 n=61 v=0
182400 Off ch=1 n=62 v=0
182400 Off ch=1 n=66 v=0
182400 Off ch=1 n=69 v=0
182400 On ch=1 n=76 v=81
183360 Off ch=1 n=76 v=0
183360 On ch=1 n=73 v=74
184320 Off ch=1 n=93 v=0
184320 Off ch=1 n=73 v=0
184320 On ch=1 n=64 v=77
184320 On ch=1 n=66 v=77
184320 On ch=1 n=69 v=77
184320 On ch=1 n=73 v=77
184320 Off ch=1 n=35 v=0
184320 Off ch=1 n=47 v=0
184320 On ch=1 n=42 v=83
184429 On ch=1 n=52 v=83
184538 On ch=1 n=57 v=83
184680 Off ch=1 n=64 v=0
184680 Off ch=1 n=66 v=0
184680 Off ch=1 n=69 v=0
184680 Off ch=1 n=73 v=0
184680 On ch=1 n=71 v=74
185040 Off ch=1 n=71 v=0
185040 On ch=1 n=73 v=81
185760 On ch=1 n=100 v=66
185880 Off ch=1 n=100 v=0
185880 On ch=1 n=97 v=70
186000 Off ch=1 n=97 v=0
186000 On ch=1 n=93 v=68
186120 Off ch=1 n=93 v=0
186120 On ch=1 n=92 v=70
186240 Off ch=1 n=92 v=0
186240 On ch=1 n=88 v=68
186360 Off ch=1 n=88 v=0
186360 On ch=1 n=85 v=70
186480 Off ch=1 n=85 v=0
186480 On ch=1 n=81 v=71
186600 Off ch=1 n=81 v=0
186600 On ch=1 n=80 v=71
186720 Off ch=1 n=80 v=0
186720 On ch=1 n=76 v=92
186840 Off ch=1 n=76 v=0
186840 On ch=1 n=73 v=74
186960 Off ch=1 n=73 v=0
186960 On ch=1 n=69 v=71
187080 Off ch=1 n=69 v=0
187080 On ch=1 n=68 v=69
187200 Off ch=1 n=73 v=0
187200 Off ch=1 n=68 v=0
187200 On ch=1 n=64 v=68
187680 Off ch=1 n=64 v=0
187920 On ch=1 n=69 v=66
188040 Off ch=1 n=69 v=0
188040 On ch=1 n=70 v=84
188160 Off ch=1 n=70 v=0
188160 On ch=1 n=64 v=82
188160 On ch=1 n=66 v=82
188160 On ch=1 n=71 v=82
188160 Off ch=1 n=42 v=0
188160 Off ch=1 n=52 v=0
188160 Off ch=1 n=57 v=0
188160 On ch=1 n=40 v=76
188269 On ch=1 n=47 v=76
188378 On ch=1 n=54 v=76
188520 Off ch=1 n=64 v=0
188520 Off ch=1 n=66 v=0
188520 Off ch=1 n=71 v=0
188520 On ch=1 n=69 v=77
188880 Off ch=1 n=69 v=0
188880 On ch=1 n=71 v=80
189120 On ch=1 n=64 v=65
189240 Off ch=1 n=64 v=0
189240 On ch=1 n=66 v=82
189360 Off ch=1 n=66 v=0
189360 On ch=1 n=71 v=88
189480 Off ch=1 n=71 v=0
189480 On ch=1 n=73 v=77
189600 Off ch=1 n=73 v=0
189600 On ch=1 n=76 v=80
189720 Off ch=1 n=76 v=0
189720 On ch=1 n=78 v=82
189840 Off ch=1 n=78 v=0
189840 On ch=1 n=83 v=84
189960 Off ch=1 n=83 v=0
189960 On ch=1 n=85 v=83
190080 Off ch=1 n=85 v=0
190080 On ch=1 n=88 v=86
190200 Off ch=1 n=88 v=0
190200 On ch=1 n=85 v=72
190320 Off ch=1 n=85 v=0
190320 On ch=1 n=83 v=64
190440 Off ch=1 n=83 v=0
190440 On ch=1 n=78 v=64
190560 Off ch=1 n=78 v=0
190560 On ch=1 n=76 v=73
190680 Off ch=1 n=76 v=0
190680 On ch=1 n=73 v=73
190800 Off ch=1 n=73 v=0
190800 On ch=1 n=71 v=69
190920 Off ch=1 n=71 v=0
190920 On ch=1 n=66 v=66
191040 Off ch=1 n=71 v=0
191040 Off ch=1 n=66 v=0
191040 On ch=1 n=64 v=69
191520 Off ch=1 n=64 v=0
191520 On ch=1 n=69 v=67
192000 Off ch=1 n=69 v=0
192000 On ch=1 n=61 v=74
192000 On ch=1 n=66 v=74
192000 On ch=1 n=69 v=74
192000 Off ch=1 n=40 v=0
192000 Off ch=1 n=47 v=0
192000 Off ch=1 n=54 v=0
192000 On ch=1 n=38 v=70
192109 On ch=1 n=45 v=70
192218 On ch=1 n=54 v=70
192360 Off ch=1 n=61 v=0
192360 Off ch=1 n=66 v=0
192360 Off ch=1 n=69 v=0
192360 On ch=1 n=71 v=83
192720 Off ch=1 n=71 v=0
192720 On ch=1 n=66 v=67
193440 On ch=1 n=90 v=69
193560 Off ch=1 n=90 v=0
193560 On ch=1 n=88 v=74
193680 Off ch=1 n=88 v=0
193680 On ch=1 n=85 v=71
193800 Off ch=1 n=85 v=0
193800 On ch=1 n=83 v=69
193920 Off ch=1 n=83 v=0
193920 On ch=1 n=78 v=65
194040 Off ch=1 n=78 v=0
194040 On ch=1 n=76 v=70
194160 Off ch=1 n=76 v=0
194160 On ch=1 n=73 v=73
194280 Off ch=1 n=73 v=0
194280 On ch=1 n=71 v=66
194400 Off ch=1 n=71 v=0
194400 On ch=1 n=78 v=90
194520 Off ch=1 n=78 v=0
194520 On ch=1 n=76 v=76
194640 Off ch=1 n=76 v=0
194640 On ch=1 n=73 v=66
194760 Off ch=1 n=73 v=0
194760 On ch=1 n=71 v=71
194880 Off ch=1 n=71 v=0
194880 On ch=1 n=66 v=64
195000 Off ch=1 n=66 v=0
195000 On ch=1 n=64 v=73
195120 Off ch=1 n=64 v=0
195120 On ch=1 n=61 v=70
195240 Off ch=1 n=61 v=0
195240 On ch=1 n=59 v=72
195360 Off ch=1 n=59 v=0
195360 On ch=1 n=57 v=62
195518 Off ch=1 n=57 v=0
195518 On ch=1 n=59 v=76
195679 Off ch=1 n=59 v=0
195679 On ch=1 n=60 v=81
195840 Off ch=1 n=66 v=0
195840 Off ch=1 n=60 v=0
195840 On ch=1 n=61 v=66
195840 Off ch=1 n=38 v=0
195840 Off ch=1 n=45 v=0
195840 Off ch=1 n=54 v=0
195840 On ch=1 n=35 v=73
195949 On ch=1 n=42 v=73
196058 On ch=1 n=50 v=73
196800 On ch=1 n=73 v=67
196800 On ch=1 n=74 v=67
196800 On ch=1 n=78 v=67
196800 On ch=1 n=81 v=67
197280 Off ch=1 n=61 v=0
197280 On ch=1 n=57 v=72
197760 Off ch=1 n=73 v=0
197760 Off ch=1 n=74 v=0
197760 Off ch=1 n=78 v=0
197760 Off ch=1 n=81 v=0
197760 Off ch=1 n=57 v=0
197760 On ch=1 n=69 v=95
197760 On ch=1 n=85 v=96
197760 On ch=1 n=86 v=96
197760 On ch=1 n=90 v=96
197760 On ch=1 n=93 v=96
199091 Off ch=1 n=69 v=0
199091 On ch=1 n=70 v=80
199200 On ch=1 n=71 v=80
199200 Off ch=1 n=70 v=0
199680 Off ch=1 n=85 v=0
199680 Off ch=1 n=86 v=0
199680 Off ch=1 n=90 v=0
199680 Off ch=1 n=93 v=0
199680 Off ch=1 n=71 v=0
199680 On ch=1 n=61 v=64
199680 On ch=1 n=66 v=64
199680 Off ch=1 n=35 v=0
199680 Off ch=1 n=42 v=0
199680 Off ch=1 n=50 v=0
199680 On ch=1 n=42 v=83
199789 On ch=1 n=52 v=83
199898 On ch=1 n=57 v=83
200040 Off ch=1 n=61 v=0
200040 Off ch=1 n=66 v=0
200040 On ch=1 n=64 v=73
200400 Off ch=1 n=64 v=0
200400 On ch=1 n=66 v=83
200640 On ch=1 n=80 v=72
200640 On ch=1 n=81 v=72
200640 On ch=1 n=85 v=72
200640 On ch=1 n=88 v=72
201600 Off ch=1 n=66 v=0
201600 Off ch=1 n=80 v=0
201600 Off ch=1 n=81 v=0
201600 Off ch=1 n=85 v=0
201600 Off ch=1 n=88 v=0
201600 On ch=1 n=92 v=101
201600 On ch=1 n=93 v=101
201600 On ch=1 n=97 v=101
201600 On ch=1 n=100 v=101
202080 On ch=1 n=64 v=70
202560 Off ch=1 n=64 v=0
202560 On ch=1 n=61 v=69
202879 Off ch=1 n=61 v=0
202879 On ch=1 n=64 v=79
203198 Off ch=1 n=64 v=0
203198 On ch=1 n=66 v=79
203393 Off ch=1 n=66 v=0
203393 On ch=1 n=64 v=84
203453 On ch=1 n=66 v=84
203520 Off ch=1 n=92 v=0
203520 Off ch=1 n=93 v=0
203520 Off ch=1 n=97 v=0
203520 Off ch=1 n=100 v=0
203520 On ch=1 n=69 v=84
203520 Off ch=1 n=64 v=0
203520 Off ch=1 n=66 v=0
203520 Off ch=1 n=42 v=0
203520 Off ch=1 n=52 v=0
203520 Off ch=1 n=57 v=0
203520 On ch=1 n=35 v=72
203629 On ch=1 n=50 v=72
203880 Off ch=1 n=69 v=0
203880 On ch=1 n=66 v=71
204240 Off ch=1 n=66 v=0
204240 On ch=1 n=69 v=77
204480 On ch=1 n=74 v=69
204480 On ch=1 n=78 v=69
204480 On ch=1 n=81 v=69
205440 Off ch=1 n=74 v=0
205440 Off ch=1 n=78 v=0
205440 Off ch=1 n=81 v=0
205440 On ch=1 n=86 v=93
205440 On ch=1 n=90 v=93
205440 On ch=1 n=93 v=93
206400 Off ch=1 n=69 v=0
207120 On ch=1 n=69 v=69
207240 Off ch=1 n=69 v=0
207240 On ch=1 n=70 v=81
207360 Off ch=1 n=86 v=0
207360 Off ch=1 n=90 v=0
207360 Off ch=1 n=93 v=0
207360 Off ch=1 n=70 v=0
207360 On ch=1 n=66 v=78
207360 On ch=1 n=68 v=78
207360 On ch=1 n=71 v=78
207360 Off ch=1 n=35 v=0
207360 Off ch=1 n=50 v=0
207360 On ch=1 n=37 v=81
207360 On ch=1 n=52 v=81
209280 On ch=1 n=76 v=68
209280 On ch=1 n=80 v=68
209280 On ch=1 n=83 v=68
211200 Off ch=1 n=66 v=0
211200 Off ch=1 n=68 v=0
211200 Off ch=1 n=76 v=0
211200 Off ch=1 n=80 v=0
211200 Off ch=1 n=83 v=0
211200 On ch=1 n=88 v=92
211200 On ch=1 n=92 v=92
211200 On ch=1 n=95 v=92
211200 Off ch=1 n=37 v=0
211200 Off ch=1 n=52 v=0
211200 On ch=1 n=25 v=68
211320 Off ch=1 n=25 v=0
211320 On ch=1 n=37 v=84
211440 Off ch=1 n=37 v=0
211440 On ch=1 n=25 v=70
211560 Off ch=1 n=25 v=0
211560 On ch=1 n=37 v=88
211680 Off ch=1 n=37 v=0
211680 On ch=1 n=25 v=68
211800 Off ch=1 n=25 v=0
211800 On ch=1 n=37 v=86
211920 Off ch=1 n=37 v=0
211920 On ch=1 n=25 v=68
212040 Off ch=1 n=25 v=0
212040 On ch=1 n=37 v=85
212160 Off ch=1 n=37 v=0
212160 On ch=1 n=25 v=67
212254 Off ch=1 n=25 v=0
212280 On ch=1 n=37 v=67
212374 Off ch=1 n=37 v=0
212400 On ch=1 n=25 v=67
212494 Off ch=1 n=25 v=0
212520 On ch=1 n=37 v=67
212614 Off ch=1 n=37 v=0
212640 On ch=1 n=69 v=73
212640 On ch=1 n=81 v=73
212640 On ch=1 n=25 v=67
212734 Off ch=1 n=25 v=0
212760 On ch=1 n=37 v=67
212854 Off ch=1 n=37 v=0
212880 On ch=1 n=25 v=67
212974 Off ch=1 n=25 v=0
213000 On ch=1 n=37 v=67
213094 Off ch=1 n=37 v=0
213120 Off ch=1 n=71 v=0
213120 Off ch=1 n=88 v=0
213120 Off ch=1 n=92 v=0
213120 Off ch=1 n=95 v=0
213120 Off ch=1 n=69 v=0
213120 Off ch=1 n=81 v=0
213120 On ch=1 n=68 v=73
213120 On ch=1 n=71 v=73
213120 On ch=1 n=76 v=73
213120 On ch=1 n=80 v=73
213840 Off ch=1 n=68 v=0
213840 Off ch=1 n=71 v=0
213840 Off ch=1 n=76 v=0
213840 Off ch=1 n=80 v=0
213840 On ch=1 n=69 v=79
213840 On ch=1 n=81 v=79
214560 Off ch=1 n=69 v=0
214560 Off ch=1 n=81 v=0
214560 On ch=1 n=71 v=82
214560 On ch=1 n=76 v=82
214560 On ch=1 n=80 v=82
214560 On ch=1 n=83 v=82
215040 Off ch=1 n=71 v=0
215040 Off ch=1 n=76 v=0
215040 Off ch=1 n=80 v=0
215040 Off ch=1 n=83 v=0
215040 On ch=1 n=66 v=65
215040 On ch=1 n=69 v=65
215040 On ch=1 n=74 v=65
215040 On ch=1 n=78 v=65
215040 On ch=1 n=26 v=68
215040 On ch=1 n=38 v=68
216000 Off ch=1 n=66 v=0
216000 Off ch=1 n=69 v=0
216000 Off ch=1 n=74 v=0
216000 Off ch=1 n=78 v=0
216000 On ch=1 n=69 v=76
216000 On ch=1 n=74 v=76
216000 On ch=1 n=78 v=76
216000 On ch=1 n=81 v=76
216000 Off ch=1 n=26 v=0
216000 Off ch=1 n=38 v=0
216720 On ch=1 n=26 v=68
216720 On ch=1 n=38 v=68
216960 Off ch=1 n=69 v=0
216960 Off ch=1 n=74 v=0
216960 Off ch=1 n=78 v=0
216960 Off ch=1 n=81 v=0
216960 On ch=1 n=68 v=74
216960 On ch=1 n=71 v=74
216960 On ch=1 n=76 v=74
216960 On ch=1 n=80 v=74
216960 Off ch=1 n=26 v=0
216960 Off ch=1 n=38 v=0
216960 On ch=1 n=28 v=74
216960 On ch=1 n=40 v=74
217440 Off ch=1 n=68 v=0
217440 Off ch=1 n=71 v=0
217440 Off ch=1 n=76 v=0
217440 Off ch=1 n=80 v=0
217440 On ch=1 n=69 v=77
217440 On ch=1 n=81 v=77
217920 Off ch=1 n=69 v=0
217920 Off ch=1 n=81 v=0
217920 On ch=1 n=71 v=84
217920 On ch=1 n=76 v=84
217920 On ch=1 n=80 v=84
217920 On ch=1 n=83 v=84
217920 Off ch=1 n=28 v=0
217920 Off ch=1 n=40 v=0
218400 Off ch=1 n=71 v=0
218400 Off ch=1 n=76 v=0
218400 Off ch=1 n=80 v=0
218400 Off ch=1 n=83 v=0
218400 On ch=1 n=71 v=80
218400 On ch=1 n=76 v=80
218400 On ch=1 n=80 v=80
218400 On ch=1 n=83 v=80
218640 On ch=1 n=28 v=67
218640 On ch=1 n=40 v=67
218880 Off ch=1 n=28 v=0
218880 Off ch=1 n=40 v=0
218880 On ch=1 n=30 v=68
218880 On ch=1 n=42 v=68
219360 Off ch=1 n=71 v=0
219360 Off ch=1 n=76 v=0
219360 Off ch=1 n=80 v=0
219360 Off ch=1 n=83 v=0
219360 On ch=1 n=69 v=71
219360 On ch=1 n=73 v=71
219360 On ch=1 n=76 v=71
219360 On ch=1 n=81 v=71
219600 On ch=1 n=61 v=72
219600 On ch=1 n=64 v=72
219840 Off ch=1 n=69 v=0
219840 Off ch=1 n=73 v=0
219840 Off ch=1 n=76 v=0
219840 Off ch=1 n=81 v=0
219840 On ch=1 n=64 v=64
219840 On ch=1 n=76 v=64
220320 Off ch=1 n=64 v=0
220320 Off ch=1 n=76 v=0
220320 On ch=1 n=71 v=89
220320 On ch=1 n=83 v=89
220320 Off ch=1 n=30 v=0
220320 Off ch=1 n=42 v=0
220320 Off ch=1 n=61 v=0
220320 Off ch=1 n=64 v=0
220320 On ch=1 n=42 v=68
220560 Off ch=1 n=71 v=0
220560 Off ch=1 n=83 v=0
220560 On ch=1 n=69 v=75
220560 On ch=1 n=73 v=75
220560 On ch=1 n=76 v=75
220560 On ch=1 n=81 v=75
220560 Off ch=1 n=42 v=0
220560 On ch=1 n=30 v=65
221040 On ch=1 n=42 v=59
221280 Off ch=1 n=69 v=0
221280 Off ch=1 n=73 v=0
221280 Off ch=1 n=76 v=0
221280 Off ch=1 n=81 v=0
221280 On ch=1 n=66 v=71
221280 On ch=1 n=78 v=71
221280 Off ch=1 n=42 v=0
221280 On ch=1 n=42 v=69
221520 Off ch=1 n=42 v=0
221520 On ch=1 n=54 v=73
221760 Off ch=1 n=66 v=0
221760 Off ch=1 n=78 v=0
221760 On ch=1 n=73 v=85
221760 On ch=1 n=78 v=85
221760 On ch=1 n=81 v=85
221760 On ch=1 n=85 v=85
221760 Off ch=1 n=54 v=0
221760 On ch=1 n=61 v=80
221760 On ch=1 n=64 v=80
222000 Off ch=1 n=61 v=0
222000 Off ch=1 n=64 v=0
222000 On ch=1 n=54 v=62
222240 Off ch=1 n=73 v=0
222240 Off ch=1 n=78 v=0
222240 Off ch=1 n=81 v=0
222240 Off ch=1 n=85 v=0
222240 On ch=1 n=71 v=75
222240 On ch=1 n=74 v=75
222240 On ch=1 n=78 v=75
222240 On ch=1 n=83 v=75
222240 Off ch=1 n=54 v=0
222240 On ch=1 n=42 v=57
222480 Off ch=1 n=42 v=0
222480 On ch=1 n=42 v=67
222720 Off ch=1 n=30 v=0
222720 Off ch=1 n=42 v=0
222720 On ch=1 n=26 v=77
222720 On ch=1 n=38 v=77
222960 Off ch=1 n=26 v=0
222960 Off ch=1 n=38 v=0
222960 On ch=1 n=26 v=80
222960 On ch=1 n=38 v=80
223200 Off ch=1 n=71 v=0
223200 Off ch=1 n=74 v=0
223200 Off ch=1 n=78 v=0
223200 Off ch=1 n=83 v=0
223200 On ch=1 n=66 v=71
223200 On ch=1 n=78 v=71
223200 Off ch=1 n=26 v=0
223200 Off ch=1 n=38 v=0
223200 On ch=1 n=26 v=75
223200 On ch=1 n=38 v=75
223440 Off ch=1 n=26 v=0
223440 Off ch=1 n=38 v=0
223680 Off ch=1 n=66 v=0
223680 Off ch=1 n=78 v=0
223680 On ch=1 n=73 v=86
223680 On ch=1 n=78 v=86
223680 On ch=1 n=81 v=86
223680 On ch=1 n=85 v=86
224160 Off ch=1 n=73 v=0
224160 Off ch=1 n=78 v=0
224160 Off ch=1 n=81 v=0
224160 Off ch=1 n=85 v=0
224160 On ch=1 n=71 v=70
224160 On ch=1 n=76 v=70
224160 On ch=1 n=80 v=70
224160 On ch=1 n=83 v=70
224400 On ch=1 n=26 v=70
224400 On ch=1 n=38 v=70
224640 Off ch=1 n=26 v=0
224640 Off ch=1 n=38 v=0
224640 On ch=1 n=25 v=74
224640 On ch=1 n=37 v=74
224880 Off ch=1 n=25 v=0
224880 Off ch=1 n=37 v=0
224880 On ch=1 n=25 v=77
224880 On ch=1 n=37 v=77
225120 Off ch=1 n=71 v=0
225120 Off ch=1 n=76 v=0
225120 Off ch=1 n=80 v=0
225120 Off ch=1 n=83 v=0
225120 On ch=1 n=64 v=57
225120 On ch=1 n=76 v=57
225120 Off ch=1 n=25 v=0
225120 Off ch=1 n=37 v=0
225120 On ch=1 n=25 v=76
225120 On ch=1 n=37 v=76
225360 Off ch=1 n=25 v=0
225360 Off ch=1 n=37 v=0
225600 Off ch=1 n=64 v=0
225600 Off ch=1 n=76 v=0
225600 On ch=1 n=64 v=76
225600 On ch=1 n=76 v=76
226080 Off ch=1 n=64 v=0
226080 Off ch=1 n=76 v=0
226080 On ch=1 n=71 v=92
226080 On ch=1 n=76 v=92
226080 On ch=1 n=80 v=92
226080 On ch=1 n=83 v=92
226320 On ch=1 n=25 v=70
226320 On ch=1 n=37 v=70
226560 Off ch=1 n=71 v=0
226560 Off ch=1 n=76 v=0
226560 Off ch=1 n=80 v=0
226560 Off ch=1 n=83 v=0
226560 On ch=1 n=69 v=75
226560 On ch=1 n=73 v=75
226560 On ch=1 n=76 v=75
226560 On ch=1 n=81 v=75
226560 Off ch=1 n=25 v=0
226560 Off ch=1 n=37 v=0
226560 On ch=1 n=30 v=88
226560 On ch=1 n=42 v=88
227040 Off ch=1 n=69 v=0
227040 Off ch=1 n=73 v=0
227040 Off ch=1 n=76 v=0
227040 Off ch=1 n=81 v=0
227040 On ch=1 n=68 v=72
227040 On ch=1 n=80 v=72
227280 On ch=1 n=61 v=71
227280 On ch=1 n=64 v=71
227520 Off ch=1 n=68 v=0
227520 Off ch=1 n=80 v=0
227520 On ch=1 n=69 v=80
227520 On ch=1 n=73 v=80
227520 On ch=1 n=76 v=80
227520 On ch=1 n=81 v=80
228000 Off ch=1 n=69 v=0
228000 Off ch=1 n=73 v=0
228000 Off ch=1 n=76 v=0
228000 Off ch=1 n=81 v=0
228000 On ch=1 n=71 v=78
228000 On ch=1 n=83 v=78
228000 Off ch=1 n=30 v=0
228000 Off ch=1 n=42 v=0
228000 Off ch=1 n=61 v=0
228000 Off ch=1 n=64 v=0
228000 On ch=1 n=32 v=68
228000 On ch=1 n=44 v=68
228240 Off ch=1 n=71 v=0
228240 Off ch=1 n=83 v=0
228240 On ch=1 n=73 v=81
228240 On ch=1 n=76 v=81
228240 On ch=1 n=81 v=81
228240 On ch=1 n=85 v=81
228240 Off ch=1 n=32 v=0
228240 Off ch=1 n=44 v=0
228240 On ch=1 n=33 v=76
228240 On ch=1 n=45 v=76
228720 On ch=1 n=57 v=67
228960 Off ch=1 n=73 v=0
228960 Off ch=1 n=76 v=0
228960 Off ch=1 n=81 v=0
228960 Off ch=1 n=85 v=0
228960 On ch=1 n=73 v=68
228960 On ch=1 n=76 v=68
228960 On ch=1 n=81 v=68
228960 Off ch=1 n=57 v=0
228960 On ch=1 n=69 v=98
229200 Off ch=1 n=69 v=0
229200 On ch=1 n=64 v=64
229440 Off ch=1 n=73 v=0
229440 Off ch=1 n=76 v=0
229440 Off ch=1 n=81 v=0
229440 On ch=1 n=69 v=74
229440 On ch=1 n=73 v=74
229440 On ch=1 n=76 v=74
229440 On ch=1 n=81 v=74
229440 Off ch=1 n=64 v=0
229440 On ch=1 n=57 v=63
229680 Off ch=1 n=57 v=0
229680 On ch=1 n=52 v=64
229920 Off ch=1 n=69 v=0
229920 Off ch=1 n=73 v=0
229920 Off ch=1 n=76 v=0
229920 Off ch=1 n=81 v=0
229920 On ch=1 n=64 v=66
229920 On ch=1 n=76 v=66
229920 Off ch=1 n=52 v=0
229920 On ch=1 n=45 v=65
230160 Off ch=1 n=45 v=0
230160 On ch=1 n=40 v=69
230400 Off ch=1 n=64 v=0
230400 Off ch=1 n=76 v=0
230400 On ch=1 n=66 v=77
230400 On ch=1 n=69 v=77
230400 On ch=1 n=74 v=77
230400 On ch=1 n=78 v=77
230400 Off ch=1 n=33 v=0
230400 Off ch=1 n=45 v=0
230400 Off ch=1 n=40 v=0
230400 On ch=1 n=26 v=71
230400 On ch=1 n=38 v=71
230880 On ch=1 n=50 v=71
231120 Off ch=1 n=50 v=0
231120 On ch=1 n=54 v=78
231360 Off ch=1 n=66 v=0
231360 Off ch=1 n=69 v=0
231360 Off ch=1 n=74 v=0
231360 Off ch=1 n=78 v=0
231360 On ch=1 n=69 v=83
231360 On ch=1 n=74 v=83
231360 On ch=1 n=78 v=83
231360 On ch=1 n=81 v=83
231360 Off ch=1 n=54 v=0
231360 On ch=1 n=57 v=92
231360 On ch=1 n=64 v=92
231600 Off ch=1 n=57 v=0
231600 Off ch=1 n=64 v=0
231600 On ch=1 n=54 v=73
231840 Off ch=1 n=54 v=0
231840 On ch=1 n=50 v=71
232080 Off ch=1 n=26 v=0
232080 Off ch=1 n=38 v=0
232080 Off ch=1 n=50 v=0
232080 On ch=1 n=28 v=69
232080 On ch=1 n=40 v=69
232320 Off ch=1 n=69 v=0
232320 Off ch=1 n=74 v=0
232320 Off ch=1 n=78 v=0
232320 Off ch=1 n=81 v=0
232320 On ch=1 n=68 v=71
232320 On ch=1 n=71 v=71
232320 On ch=1 n=76 v=71
232320 On ch=1 n=80 v=71
232560 On ch=1 n=52 v=63
232800 Off ch=1 n=68 v=0
232800 Off ch=1 n=71 v=0
232800 Off ch=1 n=76 v=0
232800 Off ch=1 n=80 v=0
232800 On ch=1 n=69 v=80
232800 On ch=1 n=81 v=80
232800 Off ch=1 n=52 v=0
232800 On ch=1 n=52 v=68
233040 Off ch=1 n=52 v=0
233040 On ch=1 n=56 v=77
233280 Off ch=1 n=69 v=0
233280 Off ch=1 n=81 v=0
233280 On ch=1 n=71 v=78
233280 On ch=1 n=76 v=78
233280 On ch=1 n=80 v=78
233280 On ch=1 n=83 v=78
233280 Off ch=1 n=56 v=0
233280 On ch=1 n=59 v=85
233280 On ch=1 n=64 v=85
233520 Off ch=1 n=59 v=0
233520 Off ch=1 n=64 v=0
233520 On ch=1 n=56 v=64
233760 Off ch=1 n=71 v=0
233760 Off ch=1 n=76 v=0
233760 Off ch=1 n=80 v=0
233760 Off ch=1 n=83 v=0
233760 On ch=1 n=71 v=78
233760 On ch=1 n=76 v=78
233760 On ch=1 n=80 v=78
233760 On ch=1 n=83 v=78
233760 Off ch=1 n=56 v=0
233760 On ch=1 n=52 v=62
234000 Off ch=1 n=52 v=0
234000 On ch=1 n=56 v=75
234240 Off ch=1 n=28 v=0
234240 Off ch=1 n=40 v=0
234240 Off ch=1 n=56 v=0
234240 On ch=1 n=30 v=74
234240 On ch=1 n=42 v=74
234720 Off ch=1 n=71 v=0
234720 Off ch=1 n=76 v=0
234720 Off ch=1 n=80 v=0
234720 Off ch=1 n=83 v=0
234720 On ch=1 n=73 v=80
234720 On ch=1 n=76 v=80
234720 On ch=1 n=81 v=80
234720 On ch=1 n=85 v=80
234720 On ch=1 n=54 v=67
234960 Off ch=1 n=54 v=0
234960 On ch=1 n=57 v=80
235200 Off ch=1 n=73 v=0
235200 Off ch=1 n=76 v=0
235200 Off ch=1 n=81 v=0
235200 Off ch=1 n=85 v=0
235200 On ch=1 n=71 v=76
235200 On ch=1 n=83 v=76
235200 Off ch=1 n=57 v=0
235200 On ch=1 n=61 v=88
235200 On ch=1 n=64 v=88
235440 Off ch=1 n=61 v=0
235440 Off ch=1 n=64 v=0
235440 On ch=1 n=57 v=73
235680 Off ch=1 n=71 v=0
235680 Off ch=1 n=83 v=0
235680 On ch=1 n=69 v=75
235680 On ch=1 n=73 v=75
235680 On ch=1 n=76 v=75
235680 On ch=1 n=81 v=75
235680 Off ch=1 n=57 v=0
235680 On ch=1 n=54 v=68
235920 Off ch=1 n=30 v=0
235920 Off ch=1 n=42 v=0
235920 Off ch=1 n=54 v=0
235920 On ch=1 n=37 v=68
235920 On ch=1 n=49 v=68
236400 On ch=1 n=49 v=62
236640 Off ch=1 n=69 v=0
236640 Off ch=1 n=73 v=0
236640 Off ch=1 n=76 v=0
236640 Off ch=1 n=81 v=0
236640 On ch=1 n=69 v=76
236640 On ch=1 n=73 v=76
236640 On ch=1 n=76 v=76
236640 On ch=1 n=81 v=76
236640 Off ch=1 n=49 v=0
236640 On ch=1 n=49 v=69
236880 Off ch=1 n=49 v=0
236880 On ch=1 n=56 v=76
237120 Off ch=1 n=69 v=0
237120 Off ch=1 n=73 v=0
237120 Off ch=1 n=76 v=0
237120 Off ch=1 n=81 v=0
237120 On ch=1 n=68 v=76
237120 On ch=1 n=80 v=76
237120 Off ch=1 n=56 v=0
237120 On ch=1 n=59 v=84
237120 On ch=1 n=64 v=84
237360 Off ch=1 n=59 v=0
237360 Off ch=1 n=64 v=0
237360 On ch=1 n=56 v=67
237600 Off ch=1 n=68 v=0
237600 Off ch=1 n=80 v=0
237600 On ch=1 n=64 v=68
237600 On ch=1 n=76 v=68
237600 Off ch=1 n=56 v=0
237600 On ch=1 n=49 v=63
237840 Off ch=1 n=49 v=0
237840 On ch=1 n=56 v=74
238080 Off ch=1 n=64 v=0
238080 Off ch=1 n=76 v=0
238080 On ch=1 n=66 v=78
238080 On ch=1 n=69 v=78
238080 On ch=1 n=73 v=78
238080 On ch=1 n=78 v=78
238080 Off ch=1 n=37 v=0
238080 Off ch=1 n=49 v=0
238080 Off ch=1 n=56 v=0
238080 On ch=1 n=35 v=74
238080 On ch=1 n=47 v=74
238560 Off ch=1 n=66 v=0
238560 Off ch=1 n=69 v=0
238560 Off ch=1 n=73 v=0
238560 Off ch=1 n=78 v=0
238560 On ch=1 n=73 v=93
238560 On ch=1 n=85 v=93
238560 On ch=1 n=47 v=67
238800 Off ch=1 n=47 v=0
238800 On ch=1 n=54 v=81
239040 Off ch=1 n=54 v=0
239040 On ch=1 n=57 v=90
239040 On ch=1 n=62 v=90
239280 Off ch=1 n=57 v=0
239280 Off ch=1 n=62 v=0
239280 On ch=1 n=54 v=73
239520 Off ch=1 n=73 v=0
239520 Off ch=1 n=85 v=0
239520 Off ch=1 n=54 v=0
239520 On ch=1 n=47 v=70
239760 On ch=1 n=66 v=65
239760 On ch=1 n=78 v=65
239760 Off ch=1 n=35 v=0
239760 Off ch=1 n=47 v=0
239760 Off ch=1 n=47 v=0
239760 On ch=1 n=37 v=77
239760 On ch=1 n=49 v=77
240000 Off ch=1 n=66 v=0
240000 Off ch=1 n=78 v=0
240000 On ch=1 n=64 v=70
240000 On ch=1 n=68 v=70
240000 On ch=1 n=71 v=70
240000 On ch=1 n=76 v=70
240240 On ch=1 n=49 v=71
240480 Off ch=1 n=64 v=0
240480 Off ch=1 n=68 v=0
240480 Off ch=1 n=71 v=0
240480 Off ch=1 n=76 v=0
240480 On ch=1 n=71 v=90
240480 On ch=1 n=83 v=90
240480 Off ch=1 n=49 v=0
240480 On ch=1 n=49 v=76
240720 Off ch=1 n=49 v=0
240720 On ch=1 n=56 v=83
240960 Off ch=1 n=56 v=0
240960 On ch=1 n=59 v=96
240960 On ch=1 n=64 v=96
241200 Off ch=1 n=59 v=0
241200 Off ch=1 n=64 v=0
241200 On ch=1 n=56 v=68
241440 Off ch=1 n=71 v=0
241440 Off ch=1 n=83 v=0
241440 On ch=1 n=68 v=69
241440 On ch=1 n=80 v=69
241440 Off ch=1 n=56 v=0
241440 On ch=1 n=49 v=71
241680 Off ch=1 n=68 v=0
241680 Off ch=1 n=80 v=0
241680 On ch=1 n=69 v=79
241680 On ch=1 n=73 v=79
241680 On ch=1 n=76 v=79
241680 On ch=1 n=81 v=79
241680 Off ch=1 n=49 v=0
241680 On ch=1 n=56 v=83
241920 Off ch=1 n=37 v=0
241920 Off ch=1 n=49 v=0
241920 Off ch=1 n=56 v=0
241920 On ch=1 n=38 v=71
241920 On ch=1 n=50 v=71
242400 On ch=1 n=78 v=68
242400 Off ch=1 n=38 v=0
242400 Off ch=1 n=50 v=0
242400 On ch=1 n=50 v=79
242640 Off ch=1 n=78 v=0
242640 On ch=1 n=71 v=61
242640 Off ch=1 n=50 v=0
242640 On ch=1 n=54 v=80
242880 Off ch=1 n=71 v=0
242880 On ch=1 n=66 v=62
242880 Off ch=1 n=54 v=0
242880 On ch=1 n=59 v=98
242880 On ch=1 n=64 v=98
243120 Off ch=1 n=66 v=0
243120 On ch=1 n=71 v=85
243360 Off ch=1 n=71 v=0
243360 On ch=1 n=73 v=87
243360 Off ch=1 n=59 v=0
243360 Off ch=1 n=64 v=0
243360 On ch=1 n=50 v=67
243600 Off ch=1 n=73 v=0
243600 On ch=1 n=76 v=82
243600 Off ch=1 n=50 v=0
243600 On ch=1 n=38 v=65
243840 Off ch=1 n=76 v=0
243840 On ch=1 n=66 v=64
244080 Off ch=1 n=66 v=0
244080 On ch=1 n=73 v=88
244080 Off ch=1 n=38 v=0
244080 On ch=1 n=50 v=92
244320 Off ch=1 n=73 v=0
244320 On ch=1 n=78 v=86
244320 Off ch=1 n=50 v=0
244320 On ch=1 n=50 v=77
244560 Off ch=1 n=78 v=0
244560 On ch=1 n=71 v=64
244560 Off ch=1 n=50 v=0
244560 On ch=1 n=54 v=80
244800 Off ch=1 n=71 v=0
244800 On ch=1 n=66 v=63
244800 Off ch=1 n=54 v=0
244800 On ch=1 n=59 v=93
244800 On ch=1 n=64 v=93
245040 Off ch=1 n=66 v=0
245040 On ch=1 n=71 v=86
245040 Off ch=1 n=59 v=0
245040 Off ch=1 n=64 v=0
245040 On ch=1 n=54 v=70
245280 Off ch=1 n=71 v=0
245280 On ch=1 n=73 v=81
245280 Off ch=1 n=54 v=0
245280 On ch=1 n=50 v=71
245520 Off ch=1 n=73 v=0
245520 On ch=1 n=76 v=83
245760 Off ch=1 n=69 v=0
245760 Off ch=1 n=73 v=0
245760 Off ch=1 n=76 v=0
245760 Off ch=1 n=81 v=0
245760 Off ch=1 n=76 v=0
245760 On ch=1 n=66 v=57
245760 Off ch=1 n=50 v=0
245760 On ch=1 n=40 v=81
245760 On ch=1 n=52 v=81
246000 Off ch=1 n=66 v=0
246000 On ch=1 n=73 v=89
246240 Off ch=1 n=73 v=0
246240 On ch=1 n=78 v=91
246240 Off ch=1 n=40 v=0
246240 Off ch=1 n=52 v=0
246240 On ch=1 n=52 v=77
246480 Off ch=1 n=78 v=0
246480 On ch=1 n=71 v=60
246480 Off ch=1 n=52 v=0
246480 On ch=1 n=56 v=82
246720 Off ch=1 n=71 v=0
246720 On ch=1 n=66 v=67
246720 Off ch=1 n=56 v=0
246720 On ch=1 n=59 v=96
246720 On ch=1 n=64 v=96
246960 Off ch=1 n=66 v=0
246960 On ch=1 n=71 v=81
247200 Off ch=1 n=71 v=0
247200 On ch=1 n=73 v=80
247200 Off ch=1 n=59 v=0
247200 Off ch=1 n=64 v=0
247200 On ch=1 n=52 v=66
247440 Off ch=1 n=73 v=0
247440 On ch=1 n=76 v=82
247440 Off ch=1 n=52 v=0
247440 On ch=1 n=40 v=65
247680 Off ch=1 n=76 v=0
247680 On ch=1 n=66 v=59
247800 Off ch=1 n=66 v=0
247800 On ch=1 n=71 v=76
247920 Off ch=1 n=71 v=0
247920 On ch=1 n=73 v=85
247920 Off ch=1 n=40 v=0
247920 On ch=1 n=52 v=90
248040 Off ch=1 n=73 v=0
248040 On ch=1 n=78 v=89
248160 Off ch=1 n=78 v=0
248160 On ch=1 n=83 v=68
248160 Off ch=1 n=52 v=0
248160 On ch=1 n=52 v=78
248254 Off ch=1 n=83 v=0
248254 On ch=1 n=85 v=77
248351 Off ch=1 n=85 v=0
248351 On ch=1 n=90 v=89
248400 Off ch=1 n=52 v=0
248400 On ch=1 n=56 v=83
248445 Off ch=1 n=90 v=0
248445 On ch=1 n=95 v=88
248543 Off ch=1 n=95 v=0
248543 On ch=1 n=97 v=77
248640 Off ch=1 n=97 v=0
248640 On ch=1 n=90 v=86
248640 On ch=1 n=102 v=86
248640 Off ch=1 n=56 v=0
248640 On ch=1 n=59 v=96
248640 On ch=1 n=64 v=96
249600 Off ch=1 n=90 v=0
249600 Off ch=1 n=102 v=0
249600 On ch=1 n=73 v=62
249600 On ch=1 n=76 v=62
249600 On ch=1 n=81 v=62
249600 Off ch=1 n=59 v=0
249600 Off ch=1 n=64 v=0
249600 On ch=1 n=42 v=68
249600 On ch=1 n=54 v=68
250080 Off ch=1 n=42 v=0
250080 Off ch=1 n=54 v=0
250080 On ch=1 n=54 v=73
250320 Off ch=1 n=54 v=0
250320 On ch=1 n=61 v=95
250320 On ch=1 n=64 v=95
250560 Off ch=1 n=73 v=0
250560 Off ch=1 n=76 v=0
250560 Off ch=1 n=81 v=0
250560 On ch=1 n=73 v=73
250560 On ch=1 n=76 v=73
250560 On ch=1 n=81 v=73
250800 Off ch=1 n=61 v=0
250800 Off ch=1 n=64 v=0
250800 On ch=1 n=57 v=71
251040 Off ch=1 n=57 v=0
251040 On ch=1 n=61 v=96
251040 On ch=1 n=64 v=96
251040 On ch=1 n=69 v=96
251280 Off ch=1 n=73 v=0
251280 Off ch=1 n=76 v=0
251280 Off ch=1 n=81 v=0
251280 On ch=1 n=81 v=76
251520 Off ch=1 n=81 v=0
251520 On ch=1 n=71 v=73
251520 On ch=1 n=80 v=73
251520 Off ch=1 n=61 v=0
251520 Off ch=1 n=64 v=0
251520 Off ch=1 n=69 v=0
251520 On ch=1 n=40 v=67
251520 On ch=1 n=52 v=67
251760 Off ch=1 n=71 v=0
251760 Off ch=1 n=80 v=0
251760 On ch=1 n=76 v=69
252000 Off ch=1 n=40 v=0
252000 Off ch=1 n=52 v=0
252000 On ch=1 n=52 v=75
252240 Off ch=1 n=76 v=0
252240 On ch=1 n=71 v=79
252240 On ch=1 n=76 v=79
252240 Off ch=1 n=52 v=0
252240 On ch=1 n=57 v=97
252240 On ch=1 n=59 v=97
252240 On ch=1 n=64 v=97
252720 Off ch=1 n=57 v=0
252720 Off ch=1 n=59 v=0
252720 Off ch=1 n=64 v=0
252720 On ch=1 n=59 v=70
252960 Off ch=1 n=71 v=0
252960 Off ch=1 n=76 v=0
252960 On ch=1 n=73 v=72
252960 Off ch=1 n=59 v=0
252960 On ch=1 n=57 v=75
253200 Off ch=1 n=73 v=0
253200 On ch=1 n=76 v=79
253200 Off ch=1 n=57 v=0
253200 On ch=1 n=52 v=68
253440 Off ch=1 n=76 v=0
253440 On ch=1 n=73 v=85
253440 On ch=1 n=76 v=85
253440 On ch=1 n=81 v=85
253440 Off ch=1 n=52 v=0
253440 On ch=1 n=38 v=70
253440 On ch=1 n=50 v=70
253920 Off ch=1 n=73 v=0
253920 Off ch=1 n=76 v=0
253920 Off ch=1 n=81 v=0
253920 On ch=1 n=81 v=75
253920 Off ch=1 n=38 v=0
253920 Off ch=1 n=50 v=0
253920 On ch=1 n=50 v=75
254160 Off ch=1 n=81 v=0
254160 On ch=1 n=73 v=72
254160 On ch=1 n=76 v=72
254160 On ch=1 n=81 v=72
254160 Off ch=1 n=50 v=0
254160 On ch=1 n=54 v=96
254160 On ch=1 n=57 v=96
254160 On ch=1 n=64 v=96
254400 Off ch=1 n=73 v=0
254400 Off ch=1 n=76 v=0
254400 Off ch=1 n=81 v=0
254400 On ch=1 n=81 v=79
254640 Off ch=1 n=54 v=0
254640 Off ch=1 n=57 v=0
254640 Off ch=1 n=64 v=0
254640 On ch=1 n=57 v=70
254880 Off ch=1 n=81 v=0
254880 On ch=1 n=73 v=80
254880 On ch=1 n=76 v=80
254880 On ch=1 n=81 v=80
254880 Off ch=1 n=57 v=0
254880 On ch=1 n=64 v=99
254880 On ch=1 n=69 v=99
255120 Off ch=1 n=73 v=0
255120 Off ch=1 n=76 v=0
255120 Off ch=1 n=81 v=0
255120 On ch=1 n=83 v=80
255360 Off ch=1 n=83 v=0
255360 On ch=1 n=71 v=70
255360 On ch=1 n=80 v=70
255360 Off ch=1 n=64 v=0
255360 Off ch=1 n=69 v=0
255360 On ch=1 n=37 v=69
255360 On ch=1 n=49 v=69
255600 Off ch=1 n=71 v=0
255600 Off ch=1 n=80 v=0
255600 On ch=1 n=76 v=64
255840 Off ch=1 n=37 v=0
255840 Off ch=1 n=49 v=0
255840 On ch=1 n=49 v=76
256080 Off ch=1 n=76 v=0
256080 On ch=1 n=71 v=77
256080 On ch=1 n=76 v=77
256080 Off ch=1 n=49 v=0
256080 On ch=1 n=57 v=100
256080 On ch=1 n=59 v=100
256080 On ch=1 n=64 v=100
256560 Off ch=1 n=57 v=0
256560 Off ch=1 n=59 v=0
256560 Off ch=1 n=64 v=0
256560 On ch=1 n=59 v=75
256800 Off ch=1 n=59 v=0
256800 On ch=1 n=57 v=72
257040 Off ch=1 n=71 v=0
257040 Off ch=1 n=76 v=0
257040 On ch=1 n=73 v=64
257040 Off ch=1 n=57 v=0
257040 On ch=1 n=52 v=72
257160 Off ch=1 n=73 v=0
257160 On ch=1 n=74 v=80
257280 Off ch=1 n=74 v=0
257280 On ch=1 n=73 v=82
257280 On ch=1 n=76 v=82
257280 Off ch=1 n=52 v=0
257280 On ch=1 n=35 v=69
257280 On ch=1 n=47 v=69
257760 Off ch=1 n=73 v=0
257760 Off ch=1 n=76 v=0
257760 On ch=1 n=71 v=72
257760 On ch=1 n=74 v=72
257760 Off ch=1 n=35 v=0
257760 Off ch=1 n=47 v=0
257760 On ch=1 n=47 v=79
258000 Off ch=1 n=71 v=0
258000 Off ch=1 n=74 v=0
258000 On ch=1 n=69 v=74
258000 On ch=1 n=73 v=74
258000 Off ch=1 n=47 v=0
258000 On ch=1 n=54 v=80
258240 Off ch=1 n=69 v=0
258240 Off ch=1 n=73 v=0
258240 On ch=1 n=71 v=75
258240 On ch=1 n=74 v=75
258240 Off ch=1 n=54 v=0
258240 On ch=1 n=57 v=98
258240 On ch=1 n=64 v=98
258480 Off ch=1 n=71 v=0
258480 Off ch=1 n=74 v=0
258480 On ch=1 n=73 v=83
258480 On ch=1 n=76 v=83
258480 Off ch=1 n=57 v=0
258480 Off ch=1 n=64 v=0
258480 On ch=1 n=54 v=71
258720 Off ch=1 n=54 v=0
258720 On ch=1 n=47 v=67
258960 Off ch=1 n=73 v=0
258960 Off ch=1 n=76 v=0
258960 On ch=1 n=73 v=89
258960 On ch=1 n=76 v=89
258960 On ch=1 n=81 v=89
258960 Off ch=1 n=47 v=0
258960 On ch=1 n=54 v=77
259200 Off ch=1 n=54 v=0
259200 On ch=1 n=37 v=72
259200 On ch=1 n=49 v=72
259680 Off ch=1 n=73 v=0
259680 Off ch=1 n=76 v=0
259680 Off ch=1 n=81 v=0
259680 On ch=1 n=83 v=78
259680 Off ch=1 n=37 v=0
259680 Off ch=1 n=49 v=0
259680 On ch=1 n=49 v=77
259920 Off ch=1 n=83 v=0
259920 On ch=1 n=73 v=74
259920 On ch=1 n=76 v=74
259920 On ch=1 n=81 v=74
259920 Off ch=1 n=49 v=0
259920 On ch=1 n=52 v=79
260160 Off ch=1 n=52 v=0
260160 On ch=1 n=57 v=100
260160 On ch=1 n=64 v=100
260400 Off ch=1 n=57 v=0
260400 Off ch=1 n=64 v=0
260400 On ch=1 n=52 v=65
260640 Off ch=1 n=52 v=0
260640 On ch=1 n=49 v=70
260880 Off ch=1 n=73 v=0
260880 Off ch=1 n=76 v=0
260880 Off ch=1 n=81 v=0
260880 On ch=1 n=76 v=69
260880 Off ch=1 n=49 v=0
260880 On ch=1 n=52 v=76
261000 Off ch=1 n=76 v=0
261000 On ch=1 n=81 v=90
261120 Off ch=1 n=81 v=0
261120 On ch=1 n=76 v=79
261120 On ch=1 n=78 v=79
261120 On ch=1 n=83 v=79
261120 Off ch=1 n=52 v=0
261120 On ch=1 n=38 v=70
261120 On ch=1 n=50 v=70
261600 Off ch=1 n=76 v=0
261600 Off ch=1 n=78 v=0
261600 Off ch=1 n=83 v=0
261600 On ch=1 n=76 v=76
261600 On ch=1 n=78 v=76
261600 On ch=1 n=83 v=76
261600 Off ch=1 n=38 v=0
261600 Off ch=1 n=50 v=0
261600 On ch=1 n=50 v=77
261840 Off ch=1 n=76 v=0
261840 Off ch=1 n=78 v=0
261840 Off ch=1 n=83 v=0
261840 On ch=1 n=76 v=72
261840 On ch=1 n=78 v=72
261840 On ch=1 n=81 v=72
261840 Off ch=1 n=50 v=0
261840 On ch=1 n=54 v=79
262080 Off ch=1 n=54 v=0
262080 On ch=1 n=57 v=93
262080 On ch=1 n=64 v=93
262320 Off ch=1 n=76 v=0
262320 Off ch=1 n=78 v=0
262320 Off ch=1 n=81 v=0
262320 On ch=1 n=76 v=75
262320 On ch=1 n=78 v=75
262320 On ch=1 n=81 v=75
262320 Off ch=1 n=57 v=0
262320 Off ch=1 n=64 v=0
262320 On ch=1 n=54 v=74
262560 Off ch=1 n=76 v=0
262560 Off ch=1 n=78 v=0
262560 Off ch=1 n=81 v=0
262560 On ch=1 n=76 v=73
262560 On ch=1 n=80 v=73
262560 Off ch=1 n=54 v=0
262560 On ch=1 n=50 v=74
262800 Off ch=1 n=50 v=0
262800 On ch=1 n=54 v=77
263040 Off ch=1 n=76 v=0
263040 Off ch=1 n=80 v=0
263040 On ch=1 n=76 v=75
263040 On ch=1 n=80 v=75
263040 Off ch=1 n=54 v=0
263040 On ch=1 n=40 v=75
263040 On ch=1 n=52 v=75
263280 Off ch=1 n=76 v=0
263280 Off ch=1 n=80 v=0
263280 On ch=1 n=76 v=78
263280 On ch=1 n=78 v=78
263280 On ch=1 n=81 v=78
263520 Off ch=1 n=40 v=0
263520 Off ch=1 n=52 v=0
263520 On ch=1 n=52 v=74
263760 Off ch=1 n=76 v=0
263760 Off ch=1 n=78 v=0
263760 Off ch=1 n=81 v=0
263760 On ch=1 n=76 v=80
263760 On ch=1 n=78 v=80
263760 On ch=1 n=83 v=80
263760 Off ch=1 n=52 v=0
263760 On ch=1 n=56 v=76
264000 Off ch=1 n=56 v=0
264000 On ch=1 n=59 v=96
264000 On ch=1 n=64 v=96
264240 Off ch=1 n=59 v=0
264240 Off ch=1 n=64 v=0
264240 On ch=1 n=56 v=70
264480 Off ch=1 n=56 v=0
264480 On ch=1 n=40 v=67
264480 On ch=1 n=52 v=67
264720 Off ch=1 n=40 v=0
264720 Off ch=1 n=52 v=0
264720 On ch=1 n=40 v=77
264720 On ch=1 n=52 v=77
264960 Off ch=1 n=76 v=0
264960 Off ch=1 n=78 v=0
264960 Off ch=1 n=83 v=0
264960 On ch=1 n=64 v=56
264960 On ch=1 n=69 v=56
264960 Off ch=1 n=40 v=0
264960 Off ch=1 n=52 v=0
264960 On ch=1 n=42 v=78
264960 On ch=1 n=54 v=78
265440 On ch=1 n=69 v=69
265440 Off ch=1 n=42 v=0
265440 Off ch=1 n=54 v=0
265440 On ch=1 n=54 v=72
265560 Off ch=1 n=69 v=0
265560 On ch=1 n=76 v=89
265680 Off ch=1 n=76 v=0
265680 On ch=1 n=81 v=91
265680 Off ch=1 n=54 v=0
265680 On ch=1 n=61 v=89
265800 Off ch=1 n=81 v=0
265800 On ch=1 n=88 v=88
265920 Off ch=1 n=64 v=0
265920 Off ch=1 n=69 v=0
265920 Off ch=1 n=88 v=0
265920 On ch=1 n=64 v=71
265920 On ch=1 n=69 v=71
265920 On ch=1 n=93 v=90
265920 Off ch=1 n=61 v=0
265920 On ch=1 n=64 v=88
266040 Off ch=1 n=93 v=0
266040 On ch=1 n=88 v=68
266160 Off ch=1 n=88 v=0
266160 On ch=1 n=81 v=59
266160 Off ch=1 n=64 v=0
266160 On ch=1 n=61 v=71
266280 Off ch=1 n=81 v=0
266280 On ch=1 n=76 v=64
266400 Off ch=1 n=76 v=0
266400 On ch=1 n=69 v=63
266400 Off ch=1 n=61 v=0
266400 On ch=1 n=54 v=71
266640 Off ch=1 n=64 v=0
266640 Off ch=1 n=69 v=0
266640 Off ch=1 n=69 v=0
266640 On ch=1 n=69 v=79
266880 Off ch=1 n=69 v=0
266880 On ch=1 n=64 v=71
266880 On ch=1 n=68 v=71
266880 Off ch=1 n=54 v=0
266880 On ch=1 n=40 v=72
266880 On ch=1 n=52 v=72
267120 Off ch=1 n=64 v=0
267120 Off ch=1 n=68 v=0
267120 On ch=1 n=64 v=68
267360 On ch=1 n=71 v=67
267360 Off ch=1 n=40 v=0
267360 Off ch=1 n=52 v=0
267360 On ch=1 n=52 v=77
267480 Off ch=1 n=71 v=0
267480 On ch=1 n=76 v=84
267600 Off ch=1 n=64 v=0
267600 Off ch=1 n=76 v=0
267600 On ch=1 n=64 v=74
267600 On ch=1 n=83 v=95
267720 Off ch=1 n=83 v=0
267720 On ch=1 n=88 v=92
267840 Off ch=1 n=88 v=0
267840 On ch=1 n=95 v=93
267840 Off ch=1 n=52 v=0
267840 On ch=1 n=56 v=78
267840 On ch=1 n=59 v=78
267960 Off ch=1 n=95 v=0
267960 On ch=1 n=88 v=66
268080 Off ch=1 n=88 v=0
268080 On ch=1 n=83 v=67
268080 Off ch=1 n=56 v=0
268080 Off ch=1 n=59 v=0
268080 On ch=1 n=52 v=75
268200 Off ch=1 n=83 v=0
268200 On ch=1 n=76 v=59
268320 Off ch=1 n=64 v=0
268320 Off ch=1 n=76 v=0
268320 On ch=1 n=71 v=60
268320 Off ch=1 n=52 v=0
268320 On ch=1 n=40 v=65
268560 Off ch=1 n=71 v=0
268560 On ch=1 n=64 v=69
268800 Off ch=1 n=64 v=0
268800 On ch=1 n=66 v=90
268800 On ch=1 n=69 v=90
268800 Off ch=1 n=40 v=0
268800 On ch=1 n=38 v=85
268800 On ch=1 n=50 v=85
269280 On ch=1 n=69 v=63
269280 Off ch=1 n=38 v=0
269280 Off ch=1 n=50 v=0
269280 On ch=1 n=50 v=79
269400 Off ch=1 n=69 v=0
269400 On ch=1 n=76 v=89
269520 Off ch=1 n=76 v=0
269520 On ch=1 n=81 v=87
269520 Off ch=1 n=50 v=0
269520 On ch=1 n=57 v=86
269640 Off ch=1 n=81 v=0
269640 On ch=1 n=88 v=91
269760 Off ch=1 n=66 v=0
269760 Off ch=1 n=69 v=0
269760 Off ch=1 n=88 v=0
269760 On ch=1 n=66 v=75
269760 On ch=1 n=69 v=75
269760 On ch=1 n=93 v=87
269760 Off ch=1 n=57 v=0
269760 On ch=1 n=66 v=90
269880 Off ch=1 n=93 v=0
269880 On ch=1 n=88 v=66
270000 Off ch=1 n=88 v=0
270000 On ch=1 n=81 v=64
270000 Off ch=1 n=66 v=0
270000 On ch=1 n=57 v=69
270120 Off ch=1 n=81 v=0
270120 On ch=1 n=76 v=63
270240 Off ch=1 n=76 v=0
270240 On ch=1 n=69 v=64
270240 Off ch=1 n=57 v=0
270240 On ch=1 n=50 v=69
270480 Off ch=1 n=66 v=0
270480 Off ch=1 n=69 v=0
270480 Off ch=1 n=69 v=0
270480 On ch=1 n=71 v=82
270720 Off ch=1 n=71 v=0
270720 On ch=1 n=68 v=79
270720 On ch=1 n=71 v=79
270720 On ch=1 n=73 v=79
270720 Off ch=1 n=50 v=0
270720 On ch=1 n=37 v=70
270720 On ch=1 n=49 v=70
270960 Off ch=1 n=68 v=0
270960 Off ch=1 n=71 v=0
270960 Off ch=1 n=73 v=0
270960 On ch=1 n=64 v=60
271200 On ch=1 n=71 v=69
271200 Off ch=1 n=37 v=0
271200 Off ch=1 n=49 v=0
271200 On ch=1 n=49 v=73
271320 Off ch=1 n=71 v=0
271320 On ch=1 n=76 v=84
271440 Off ch=1 n=64 v=0
271440 Off ch=1 n=76 v=0
271440 On ch=1 n=64 v=71
271440 On ch=1 n=83 v=96
271560 Off ch=1 n=83 v=0
271560 On ch=1 n=88 v=91
271680 Off ch=1 n=88 v=0
271680 On ch=1 n=95 v=90
271680 Off ch=1 n=49 v=0
271680 On ch=1 n=56 v=83
271680 On ch=1 n=59 v=83
271800 Off ch=1 n=95 v=0
271800 On ch=1 n=88 v=65
271920 Off ch=1 n=88 v=0
271920 On ch=1 n=83 v=67
271920 Off ch=1 n=56 v=0
271920 Off ch=1 n=59 v=0
271920 On ch=1 n=49 v=70
272040 Off ch=1 n=83 v=0
272040 On ch=1 n=76 v=56
272160 Off ch=1 n=64 v=0
272160 Off ch=1 n=76 v=0
272160 On ch=1 n=71 v=64
272160 Off ch=1 n=49 v=0
272160 On ch=1 n=37 v=60
272400 Off ch=1 n=71 v=0
272400 On ch=1 n=66 v=69
272400 On ch=1 n=78 v=69
272640 Off ch=1 n=66 v=0
272640 Off ch=1 n=78 v=0
272640 On ch=1 n=69 v=79
272640 On ch=1 n=73 v=79
272640 On ch=1 n=76 v=79
272640 On ch=1 n=81 v=79
272640 Off ch=1 n=37 v=0
272640 On ch=1 n=35 v=82
272640 On ch=1 n=47 v=82
273120 Off ch=1 n=69 v=0
273120 Off ch=1 n=73 v=0
273120 Off ch=1 n=76 v=0
273120 Off ch=1 n=81 v=0
273120 On ch=1 n=68 v=74
273120 On ch=1 n=80 v=74
273120 Off ch=1 n=35 v=0
273120 Off ch=1 n=47 v=0
273120 On ch=1 n=47 v=77
273278 Off ch=1 n=47 v=0
273278 On ch=1 n=54 v=83
273360 Off ch=1 n=68 v=0
273360 Off ch=1 n=80 v=0
273360 On ch=1 n=69 v=80
273360 On ch=1 n=81 v=80
273439 Off ch=1 n=54 v=0
273439 On ch=1 n=57 v=83
273600 Off ch=1 n=69 v=0
273600 Off ch=1 n=81 v=0
273600 On ch=1 n=76 v=63
273600 Off ch=1 n=57 v=0
273600 On ch=1 n=64 v=89
273758 Off ch=1 n=64 v=0
273758 On ch=1 n=57 v=74
273919 Off ch=1 n=57 v=0
273919 On ch=1 n=54 v=70
274080 Off ch=1 n=76 v=0
274080 On ch=1 n=66 v=80
274080 On ch=1 n=71 v=80
274080 On ch=1 n=73 v=80
274080 On ch=1 n=78 v=80
274080 Off ch=1 n=54 v=0
274080 On ch=1 n=57 v=75
274238 Off ch=1 n=57 v=0
274238 On ch=1 n=54 v=70
274399 Off ch=1 n=54 v=0
274399 On ch=1 n=47 v=69
274560 Off ch=1 n=47 v=0
274560 On ch=1 n=37 v=74
274560 On ch=1 n=49 v=74
275040 On ch=1 n=64 v=72
275040 Off ch=1 n=37 v=0
275040 Off ch=1 n=49 v=0
275040 On ch=1 n=49 v=73
275119 Off ch=1 n=64 v=0
275119 On ch=1 n=69 v=90
275198 Off ch=1 n=69 v=0
275198 On ch=1 n=71 v=85
275198 Off ch=1 n=49 v=0
275198 On ch=1 n=52 v=81
275280 Off ch=1 n=71 v=0
275280 On ch=1 n=76 v=89
275359 Off ch=1 n=76 v=0
275359 On ch=1 n=81 v=91
275359 Off ch=1 n=52 v=0
275359 On ch=1 n=57 v=82
275438 Off ch=1 n=81 v=0
275438 On ch=1 n=83 v=89
275520 Off ch=1 n=83 v=0
275520 On ch=1 n=88 v=91
275520 Off ch=1 n=57 v=0
275520 On ch=1 n=64 v=95
275599 Off ch=1 n=88 v=0
275599 On ch=1 n=83 v=71
275678 Off ch=1 n=83 v=0
275678 On ch=1 n=81 v=72
275678 Off ch=1 n=64 v=0
275678 On ch=1 n=57 v=70
275760 Off ch=1 n=81 v=0
275760 On ch=1 n=76 v=68
275839 Off ch=1 n=57 v=0
275839 On ch=1 n=52 v=69
276000 Off ch=1 n=66 v=0
276000 Off ch=1 n=71 v=0
276000 Off ch=1 n=73 v=0
276000 Off ch=1 n=78 v=0
276000 Off ch=1 n=76 v=0
276000 On ch=1 n=64 v=74
276000 On ch=1 n=76 v=74
276000 Off ch=1 n=52 v=0
276000 On ch=1 n=57 v=80
276158 Off ch=1 n=57 v=0
276158 On ch=1 n=52 v=69
276240 Off ch=1 n=64 v=0
276240 Off ch=1 n=76 v=0
276240 On ch=1 n=66 v=85
276240 On ch=1 n=78 v=85
276319 Off ch=1 n=52 v=0
276319 On ch=1 n=49 v=71
276480 Off ch=1 n=66 v=0
276480 Off ch=1 n=78 v=0
276480 On ch=1 n=69 v=85
276480 On ch=1 n=73 v=85
276480 On ch=1 n=76 v=85
276480 On ch=1 n=81 v=85
276480 Off ch=1 n=49 v=0
276480 On ch=1 n=38 v=76
276480 On ch=1 n=50 v=76
276960 Off ch=1 n=69 v=0
276960 Off ch=1 n=73 v=0
276960 Off ch=1 n=76 v=0
276960 Off ch=1 n=81 v=0
276960 On ch=1 n=68 v=77
276960 On ch=1 n=80 v=77
276960 Off ch=1 n=38 v=0
276960 Off ch=1 n=50 v=0
276960 On ch=1 n=50 v=78
277118 Off ch=1 n=50 v=0
277118 On ch=1 n=54 v=82
277200 Off ch=1 n=68 v=0
277200 Off ch=1 n=80 v=0
277200 On ch=1 n=69 v=79
277200 On ch=1 n=81 v=79
277279 Off ch=1 n=54 v=0
277279 On ch=1 n=57 v=79
277440 Off ch=1 n=69 v=0
277440 Off ch=1 n=81 v=0
277440 On ch=1 n=76 v=67
277440 Off ch=1 n=57 v=0
277440 On ch=1 n=64 v=92
277598 Off ch=1 n=64 v=0
277598 On ch=1 n=57 v=70
277759 Off ch=1 n=57 v=0
277759 On ch=1 n=54 v=72
277920 Off ch=1 n=76 v=0
277920 On ch=1 n=71 v=89
277920 On ch=1 n=76 v=89
277920 On ch=1 n=78 v=89
277920 On ch=1 n=83 v=89
277920 Off ch=1 n=54 v=0
277920 On ch=1 n=57 v=81
278078 Off ch=1 n=57 v=0
278078 On ch=1 n=54 v=76
278239 Off ch=1 n=54 v=0
278239 On ch=1 n=50 v=74
278400 Off ch=1 n=50 v=0
278400 On ch=1 n=40 v=80
278400 On ch=1 n=52 v=80
278880 Off ch=1 n=71 v=0
278880 Off ch=1 n=76 v=0
278880 Off ch=1 n=78 v=0
278880 Off ch=1 n=83 v=0
278880 On ch=1 n=69 v=70
278880 On ch=1 n=76 v=70
278880 On ch=1 n=78 v=70
278880 On ch=1 n=81 v=70
278880 Off ch=1 n=40 v=0
278880 Off ch=1 n=52 v=0
278880 On ch=1 n=52 v=77
279038 On ch=1 n=57 v=82
279199 On ch=1 n=59 v=83
279360 On ch=1 n=64 v=96
279518 On ch=1 n=69 v=110
279679 Off ch=1 n=69 v=0
279679 On ch=1 n=71 v=101
279840 Off ch=1 n=71 v=0
279840 On ch=1 n=76 v=108
279998 Off ch=1 n=76 v=0
279998 On ch=1 n=81 v=112
280159 Off ch=1 n=81 v=0
280159 On ch=1 n=83 v=103
280320 Off ch=1 n=69 v=0
280320 Off ch=1 n=76 v=0
280320 Off ch=1 n=78 v=0
280320 Off ch=1 n=81 v=0
280320 On ch=1 n=88 v=89
280320 On ch=1 n=100 v=89
280320 Off ch=1 n=83 v=0
280320 On ch=1 n=28 v=62
280320 On ch=1 n=40 v=62
284160 Off ch=1 n=88 v=0
284160 Off ch=1 n=100 v=0
284160 Off ch=1 n=28 v=0
284160 Off ch=1 n=40 v=0
285600 On ch=1 n=69 v=69
286080 Off ch=1 n=69 v=0
286080 On ch=1 n=64 v=72
286080 On ch=1 n=68 v=72
286800 Off ch=1 n=64 v=0
286800 Off ch=1 n=68 v=0
286800 On ch=1 n=66 v=81
286800 On ch=1 n=69 v=81
287520 Off ch=1 n=66 v=0
287520 Off ch=1 n=69 v=0
287520 On ch=1 n=68 v=84
287520 On ch=1 n=71 v=84
288000 Off ch=1 n=68 v=0
288000 Off ch=1 n=71 v=0
288000 On ch=1 n=62 v=67
288000 On ch=1 n=66 v=67
288000 Off ch=1 n=52 v=0
288000 Off ch=1 n=57 v=0
288000 Off ch=1 n=59 v=0
288000 Off ch=1 n=64 v=0
288000 On ch=1 n=50 v=71
288000 On ch=1 n=57 v=71
288240 On ch=1 n=74 v=67
288480 Off ch=1 n=74 v=0
288480 On ch=1 n=78 v=79
288720 Off ch=1 n=78 v=0
288720 On ch=1 n=81 v=86
288960 Off ch=1 n=62 v=0
288960 Off ch=1 n=66 v=0
288960 Off ch=1 n=81 v=0
288960 On ch=1 n=66 v=82
288960 On ch=1 n=69 v=82
289200 On ch=1 n=74 v=67
289440 Off ch=1 n=74 v=0
289440 On ch=1 n=78 v=87
289680 Off ch=1 n=78 v=0
289680 On ch=1 n=81 v=87
289920 Off ch=1 n=66 v=0
289920 Off ch=1 n=69 v=0
289920 Off ch=1 n=81 v=0
289920 On ch=1 n=64 v=71
289920 On ch=1 n=68 v=71
289920 Off ch=1 n=50 v=0
289920 Off ch=1 n=57 v=0
289920 On ch=1 n=52 v=71
289920 On ch=1 n=59 v=71
290160 On ch=1 n=76 v=72
290400 Off ch=1 n=64 v=0
290400 Off ch=1 n=68 v=0
290400 Off ch=1 n=76 v=0
290400 On ch=1 n=66 v=76
290400 On ch=1 n=69 v=76
290400 On ch=1 n=81 v=89
290640 Off ch=1 n=81 v=0
290640 On ch=1 n=83 v=84
290880 Off ch=1 n=66 v=0
290880 Off ch=1 n=69 v=0
290880 Off ch=1 n=83 v=0
290880 On ch=1 n=68 v=85
290880 On ch=1 n=71 v=85
291120 On ch=1 n=76 v=65
291360 Off ch=1 n=68 v=0
291360 Off ch=1 n=71 v=0
291360 Off ch=1 n=76 v=0
291360 On ch=1 n=68 v=74
291360 On ch=1 n=71 v=74
291360 On ch=1 n=81 v=86
291600 Off ch=1 n=81 v=0
291600 On ch=1 n=83 v=77
291840 Off ch=1 n=83 v=0
291840 Off ch=1 n=52 v=0
291840 Off ch=1 n=59 v=0
291840 On ch=1 n=54 v=90
291840 On ch=1 n=61 v=90
291840 On ch=1 n=64 v=90
292080 On ch=1 n=76 v=68
292320 Off ch=1 n=68 v=0
292320 Off ch=1 n=71 v=0
292320 Off ch=1 n=76 v=0
292320 On ch=1 n=66 v=77
292320 On ch=1 n=69 v=77
292320 On ch=1 n=81 v=84
292560 Off ch=1 n=81 v=0
292560 On ch=1 n=83 v=87
292800 Off ch=1 n=66 v=0
292800 Off ch=1 n=69 v=0
292800 Off ch=1 n=83 v=0
292800 On ch=1 n=61 v=65
292800 On ch=1 n=64 v=65
293040 On ch=1 n=76 v=67
293280 Off ch=1 n=61 v=0
293280 Off ch=1 n=64 v=0
293280 Off ch=1 n=76 v=0
293280 On ch=1 n=68 v=87
293280 On ch=1 n=71 v=87
293280 On ch=1 n=81 v=87
293520 Off ch=1 n=68 v=0
293520 Off ch=1 n=71 v=0
293520 Off ch=1 n=81 v=0
293520 On ch=1 n=66 v=75
293520 On ch=1 n=69 v=75
293520 On ch=1 n=83 v=86
293760 Off ch=1 n=83 v=0
294000 On ch=1 n=76 v=70
294240 Off ch=1 n=66 v=0
294240 Off ch=1 n=69 v=0
294240 Off ch=1 n=76 v=0
294240 On ch=1 n=66 v=69
294240 On ch=1 n=80 v=85
294480 Off ch=1 n=80 v=0
294480 On ch=1 n=81 v=80
294720 Off ch=1 n=66 v=0
294720 Off ch=1 n=81 v=0
294720 On ch=1 n=69 v=87
294720 On ch=1 n=73 v=87
294960 On ch=1 n=76 v=66
295200 Off ch=1 n=69 v=0
295200 Off ch=1 n=73 v=0
295200 Off ch=1 n=76 v=0
295200 On ch=1 n=68 v=76
295200 On ch=1 n=71 v=76
295200 On ch=1 n=80 v=86
295440 Off ch=1 n=80 v=0
295440 On ch=1 n=81 v=83
295680 Off ch=1 n=81 v=0
295680 Off ch=1 n=54 v=0
295680 Off ch=1 n=61 v=0
295680 Off ch=1 n=64 v=0
295680 On ch=1 n=50 v=71
295680 On ch=1 n=54 v=71
295680 On ch=1 n=57 v=71
295920 On ch=1 n=76 v=71
296160 Off ch=1 n=68 v=0
296160 Off ch=1 n=71 v=0
296160 Off ch=1 n=76 v=0
296160 On ch=1 n=66 v=66
296160 On ch=1 n=80 v=84
296400 Off ch=1 n=80 v=0
296400 On ch=1 n=81 v=81
296640 Off ch=1 n=66 v=0
296640 Off ch=1 n=81 v=0
296640 On ch=1 n=69 v=88
296640 On ch=1 n=73 v=88
296880 On ch=1 n=76 v=64
297120 Off ch=1 n=69 v=0
297120 Off ch=1 n=73 v=0
297120 Off ch=1 n=76 v=0
297120 On ch=1 n=68 v=70
297120 On ch=1 n=71 v=70
297120 On ch=1 n=80 v=78
297360 Off ch=1 n=80 v=0
297360 On ch=1 n=81 v=79
297600 Off ch=1 n=81 v=0
297600 Off ch=1 n=50 v=0
297600 Off ch=1 n=54 v=0
297600 Off ch=1 n=57 v=0
297600 On ch=1 n=49 v=78
297600 On ch=1 n=56 v=78
297600 On ch=1 n=59 v=78
297840 On ch=1 n=76 v=66
298080 Off ch=1 n=68 v=0
298080 Off ch=1 n=71 v=0
298080 Off ch=1 n=76 v=0
298080 On ch=1 n=64 v=59
298080 On ch=1 n=81 v=83
298320 Off ch=1 n=81 v=0
298320 On ch=1 n=83 v=81
298560 Off ch=1 n=64 v=0
298560 Off ch=1 n=83 v=0
298560 On ch=1 n=61 v=76
298560 On ch=1 n=64 v=76
298800 On ch=1 n=76 v=66
299040 Off ch=1 n=61 v=0
299040 Off ch=1 n=64 v=0
299040 Off ch=1 n=76 v=0
299040 On ch=1 n=68 v=83
299040 On ch=1 n=71 v=83
299040 On ch=1 n=81 v=81
299280 Off ch=1 n=81 v=0
299280 On ch=1 n=83 v=87
299520 Off ch=1 n=68 v=0
299520 Off ch=1 n=71 v=0
299520 Off ch=1 n=83 v=0
299520 On ch=1 n=69 v=70
299520 Off ch=1 n=49 v=0
299520 Off ch=1 n=56 v=0
299520 Off ch=1 n=59 v=0
299520 On ch=1 n=54 v=85
299520 On ch=1 n=61 v=85
299520 On ch=1 n=64 v=85
299760 On ch=1 n=76 v=73
300000 Off ch=1 n=69 v=0
300000 Off ch=1 n=76 v=0
300000 On ch=1 n=64 v=71
300000 On ch=1 n=68 v=71
300000 On ch=1 n=80 v=81
300240 Off ch=1 n=80 v=0
300240 On ch=1 n=81 v=82
300480 Off ch=1 n=64 v=0
300480 Off ch=1 n=68 v=0
300480 Off ch=1 n=81 v=0
300480 On ch=1 n=66 v=74
300480 On ch=1 n=69 v=74
300720 On ch=1 n=76 v=71
300960 Off ch=1 n=66 v=0
300960 Off ch=1 n=69 v=0
300960 Off ch=1 n=76 v=0
300960 On ch=1 n=68 v=79
300960 On ch=1 n=71 v=79
300960 On ch=1 n=80 v=87
301200 Off ch=1 n=68 v=0
301200 Off ch=1 n=71 v=0
301200 Off ch=1 n=80 v=0
301200 On ch=1 n=69 v=86
301200 On ch=1 n=73 v=86
301200 On ch=1 n=81 v=81
301440 Off ch=1 n=81 v=0
301440 Off ch=1 n=54 v=0
301440 Off ch=1 n=61 v=0
301440 Off ch=1 n=64 v=0
301440 On ch=1 n=45 v=68
301680 On ch=1 n=52 v=63
301920 Off ch=1 n=69 v=0
301920 Off ch=1 n=73 v=0
301920 On ch=1 n=73 v=87
301920 On ch=1 n=81 v=87
301920 Off ch=1 n=52 v=0
301920 On ch=1 n=57 v=80
302160 Off ch=1 n=57 v=0
302160 On ch=1 n=64 v=91
302400 Off ch=1 n=73 v=0
302400 Off ch=1 n=81 v=0
302400 On ch=1 n=73 v=84
302400 On ch=1 n=81 v=84
302400 Off ch=1 n=64 v=0
302400 On ch=1 n=59 v=74
302640 Off ch=1 n=59 v=0
302640 On ch=1 n=57 v=72
302880 Off ch=1 n=73 v=0
302880 Off ch=1 n=81 v=0
302880 On ch=1 n=68 v=64
302880 On ch=1 n=76 v=64
302880 Off ch=1 n=57 v=0
302880 On ch=1 n=56 v=77
303120 Off ch=1 n=56 v=0
303120 On ch=1 n=52 v=75
303360 Off ch=1 n=68 v=0
303360 Off ch=1 n=76 v=0
303360 On ch=1 n=66 v=82
303360 On ch=1 n=69 v=82
303360 On ch=1 n=78 v=82
303360 Off ch=1 n=45 v=0
303360 Off ch=1 n=52 v=0
303360 On ch=1 n=38 v=67
303840 On ch=1 n=57 v=65
304080 Off ch=1 n=57 v=0
304080 On ch=1 n=62 v=90
304320 Off ch=1 n=66 v=0
304320 Off ch=1 n=69 v=0
304320 Off ch=1 n=78 v=0
304320 On ch=1 n=69 v=81
304320 On ch=1 n=78 v=81
304320 On ch=1 n=81 v=81
304320 Off ch=1 n=62 v=0
304320 On ch=1 n=50 v=66
304560 Off ch=1 n=50 v=0
304560 On ch=1 n=57 v=85
304800 Off ch=1 n=57 v=0
304800 On ch=1 n=64 v=90
305040 Off ch=1 n=64 v=0
305040 On ch=1 n=69 v=89
305280 Off ch=1 n=69 v=0
305280 Off ch=1 n=78 v=0
305280 Off ch=1 n=81 v=0
305280 On ch=1 n=68 v=72
305280 On ch=1 n=71 v=72
305280 On ch=1 n=80 v=72
305280 Off ch=1 n=38 v=0
305280 Off ch=1 n=69 v=0
305280 On ch=1 n=40 v=78
305760 Off ch=1 n=68 v=0
305760 Off ch=1 n=71 v=0
305760 Off ch=1 n=80 v=0
305760 On ch=1 n=69 v=83
305760 On ch=1 n=78 v=83
305760 On ch=1 n=81 v=83
305760 On ch=1 n=59 v=69
306000 Off ch=1 n=59 v=0
306000 On ch=1 n=64 v=87
306240 Off ch=1 n=69 v=0
306240 Off ch=1 n=78 v=0
306240 Off ch=1 n=81 v=0
306240 On ch=1 n=71 v=79
306240 On ch=1 n=80 v=79
306240 On ch=1 n=83 v=79
306240 Off ch=1 n=64 v=0
306240 On ch=1 n=52 v=66
306480 Off ch=1 n=52 v=0
306480 On ch=1 n=59 v=87
306720 Off ch=1 n=71 v=0
306720 Off ch=1 n=80 v=0
306720 Off ch=1 n=83 v=0
306720 On ch=1 n=80 v=76
306720 On ch=1 n=83 v=76
306720 Off ch=1 n=59 v=0
306720 On ch=1 n=64 v=87
306960 Off ch=1 n=64 v=0
306960 On ch=1 n=71 v=88
307200 Off ch=1 n=40 v=0
307200 Off ch=1 n=71 v=0
307200 On ch=1 n=42 v=78
307680 Off ch=1 n=80 v=0
307680 Off ch=1 n=83 v=0
307680 On ch=1 n=73 v=79
307680 On ch=1 n=76 v=79
307680 On ch=1 n=85 v=79
307680 On ch=1 n=61 v=66
307920 Off ch=1 n=61 v=0
307920 On ch=1 n=64 v=81
308160 Off ch=1 n=73 v=0
308160 Off ch=1 n=76 v=0
308160 Off ch=1 n=85 v=0
308160 On ch=1 n=71 v=72
308160 On ch=1 n=80 v=72
308160 On ch=1 n=83 v=72
308160 Off ch=1 n=64 v=0
308160 On ch=1 n=54 v=71
308400 Off ch=1 n=54 v=0
308400 On ch=1 n=61 v=94
308640 Off ch=1 n=71 v=0
308640 Off ch=1 n=80 v=0
308640 Off ch=1 n=83 v=0
308640 On ch=1 n=73 v=71
308640 On ch=1 n=81 v=71
308640 Off ch=1 n=61 v=0
308640 On ch=1 n=64 v=82
308880 Off ch=1 n=64 v=0
308880 On ch=1 n=69 v=93
309120 Off ch=1 n=42 v=0
309120 Off ch=1 n=69 v=0
309120 On ch=1 n=37 v=70
309600 Off ch=1 n=73 v=0
309600 Off ch=1 n=81 v=0
309600 On ch=1 n=69 v=76
309600 On ch=1 n=73 v=76
309600 On ch=1 n=81 v=76
309600 On ch=1 n=59 v=68
309840 Off ch=1 n=59 v=0
309840 On ch=1 n=64 v=83
310080 Off ch=1 n=69 v=0
310080 Off ch=1 n=73 v=0
310080 Off ch=1 n=81 v=0
310080 On ch=1 n=68 v=74
310080 On ch=1 n=76 v=74
310080 On ch=1 n=80 v=74
310080 Off ch=1 n=64 v=0
310080 On ch=1 n=49 v=66
310320 Off ch=1 n=49 v=0
310320 On ch=1 n=56 v=80
310560 Off ch=1 n=68 v=0
310560 Off ch=1 n=76 v=0
310560 Off ch=1 n=80 v=0
310560 On ch=1 n=68 v=68
310560 On ch=1 n=76 v=68
310560 Off ch=1 n=56 v=0
310560 On ch=1 n=59 v=78
310800 Off ch=1 n=59 v=0
310800 On ch=1 n=64 v=87
311040 Off ch=1 n=68 v=0
311040 Off ch=1 n=76 v=0
311040 On ch=1 n=66 v=78
311040 On ch=1 n=69 v=78
311040 On ch=1 n=78 v=78
311040 Off ch=1 n=37 v=0
311040 Off ch=1 n=64 v=0
311040 On ch=1 n=35 v=76
311520 Off ch=1 n=66 v=0
311520 Off ch=1 n=69 v=0
311520 Off ch=1 n=78 v=0
311520 On ch=1 n=73 v=92
311520 On ch=1 n=81 v=92
311520 On ch=1 n=85 v=92
311520 On ch=1 n=54 v=68
311760 Off ch=1 n=54 v=0
311760 On ch=1 n=57 v=77
312000 Off ch=1 n=57 v=0
312000 On ch=1 n=47 v=70
312240 Off ch=1 n=47 v=0
312240 On ch=1 n=54 v=83
312480 Off ch=1 n=73 v=0
312480 Off ch=1 n=81 v=0
312480 Off ch=1 n=85 v=0
312480 Off ch=1 n=54 v=0
312480 On ch=1 n=57 v=82
312720 On ch=1 n=66 v=70
312720 On ch=1 n=78 v=70
312720 Off ch=1 n=57 v=0
312720 On ch=1 n=62 v=87
312960 Off ch=1 n=66 v=0
312960 Off ch=1 n=78 v=0
312960 On ch=1 n=64 v=75
312960 On ch=1 n=68 v=75
312960 On ch=1 n=76 v=75
312960 Off ch=1 n=35 v=0
312960 Off ch=1 n=62 v=0
312960 On ch=1 n=37 v=79
313440 Off ch=1 n=64 v=0
313440 Off ch=1 n=68 v=0
313440 Off ch=1 n=76 v=0
313440 On ch=1 n=71 v=93
313440 On ch=1 n=80 v=93
313440 On ch=1 n=83 v=93
313440 On ch=1 n=56 v=66
313680 Off ch=1 n=56 v=0
313680 On ch=1 n=59 v=75
313920 Off ch=1 n=59 v=0
313920 On ch=1 n=49 v=68
314160 Off ch=1 n=49 v=0
314160 On ch=1 n=56 v=81
314400 Off ch=1 n=71 v=0
314400 Off ch=1 n=80 v=0
314400 Off ch=1 n=83 v=0
314400 On ch=1 n=68 v=75
314400 On ch=1 n=80 v=75
314400 Off ch=1 n=56 v=0
314400 On ch=1 n=59 v=82
314640 Off ch=1 n=68 v=0
314640 Off ch=1 n=80 v=0
314640 On ch=1 n=69 v=78
314640 On ch=1 n=73 v=78
314640 On ch=1 n=81 v=78
314640 Off ch=1 n=59 v=0
314640 On ch=1 n=64 v=89
314880 Off ch=1 n=37 v=0
314880 Off ch=1 n=64 v=0
314880 On ch=1 n=38 v=76
315360 On ch=1 n=78 v=70
315360 On ch=1 n=59 v=74
315600 Off ch=1 n=78 v=0
315600 On ch=1 n=71 v=59
315600 Off ch=1 n=59 v=0
315600 On ch=1 n=64 v=83
315840 Off ch=1 n=71 v=0
315840 On ch=1 n=66 v=65
315840 Off ch=1 n=64 v=0
315840 On ch=1 n=50 v=67
316080 Off ch=1 n=66 v=0
316080 On ch=1 n=71 v=89
316080 Off ch=1 n=50 v=0
316080 On ch=1 n=57 v=83
316320 Off ch=1 n=71 v=0
316320 On ch=1 n=73 v=80
316320 Off ch=1 n=57 v=0
316320 On ch=1 n=59 v=79
316560 Off ch=1 n=73 v=0
316560 On ch=1 n=76 v=90
316560 Off ch=1 n=59 v=0
316560 On ch=1 n=64 v=87
316800 Off ch=1 n=76 v=0
316800 On ch=1 n=66 v=59
316800 Off ch=1 n=64 v=0
316800 On ch=1 n=50 v=67
317040 Off ch=1 n=66 v=0
317040 On ch=1 n=73 v=85
317040 Off ch=1 n=50 v=0
317040 On ch=1 n=57 v=85
317280 Off ch=1 n=73 v=0
317280 On ch=1 n=78 v=90
317280 Off ch=1 n=57 v=0
317280 On ch=1 n=59 v=76
317520 Off ch=1 n=78 v=0
317520 On ch=1 n=71 v=67
317520 Off ch=1 n=59 v=0
317520 On ch=1 n=64 v=89
317760 Off ch=1 n=71 v=0
317760 On ch=1 n=66 v=62
317760 Off ch=1 n=64 v=0
317760 On ch=1 n=50 v=67
318000 Off ch=1 n=66 v=0
318000 On ch=1 n=71 v=86
318000 Off ch=1 n=50 v=0
318000 On ch=1 n=57 v=78
318240 Off ch=1 n=71 v=0
318240 On ch=1 n=73 v=80
318240 Off ch=1 n=57 v=0
318240 On ch=1 n=59 v=76
318480 Off ch=1 n=73 v=0
318480 On ch=1 n=76 v=83
318480 Off ch=1 n=59 v=0
318480 On ch=1 n=64 v=87
318720 Off ch=1 n=69 v=0
318720 Off ch=1 n=73 v=0
318720 Off ch=1 n=81 v=0
318720 Off ch=1 n=76 v=0
318720 On ch=1 n=66 v=56
318720 Off ch=1 n=38 v=0
318720 Off ch=1 n=64 v=0
318720 On ch=1 n=40 v=80
318960 Off ch=1 n=66 v=0
318960 On ch=1 n=73 v=84
319200 Off ch=1 n=73 v=0
319200 On ch=1 n=78 v=87
319200 On ch=1 n=59 v=69
319440 Off ch=1 n=78 v=0
319440 On ch=1 n=71 v=59
319440 Off ch=1 n=59 v=0
319440 On ch=1 n=64 v=85
319680 Off ch=1 n=71 v=0
319680 On ch=1 n=66 v=64
319680 Off ch=1 n=64 v=0
319680 On ch=1 n=52 v=72
319920 Off ch=1 n=66 v=0
319920 On ch=1 n=71 v=88
319920 Off ch=1 n=52 v=0
319920 On ch=1 n=57 v=81
320160 Off ch=1 n=71 v=0
320160 On ch=1 n=73 v=84
320160 Off ch=1 n=57 v=0
320160 On ch=1 n=59 v=78
320400 Off ch=1 n=73 v=0
320400 On ch=1 n=76 v=82
320400 Off ch=1 n=59 v=0
320400 On ch=1 n=64 v=85
320640 Off ch=1 n=76 v=0
320640 On ch=1 n=66 v=64
320640 Off ch=1 n=64 v=0
320640 On ch=1 n=52 v=65
320880 Off ch=1 n=66 v=0
320880 On ch=1 n=73 v=83
320880 Off ch=1 n=52 v=0
320880 On ch=1 n=57 v=79
321120 Off ch=1 n=73 v=0
321120 On ch=1 n=78 v=90
321120 Off ch=1 n=57 v=0
321120 On ch=1 n=59 v=76
321360 Off ch=1 n=78 v=0
321360 On ch=1 n=71 v=67
321360 Off ch=1 n=59 v=0
321360 On ch=1 n=64 v=87
321600 Off ch=1 n=71 v=0
321600 On ch=1 n=66 v=70
321600 Off ch=1 n=64 v=0
321600 On ch=1 n=40 v=82
321600 On ch=1 n=52 v=82
321840 Off ch=1 n=66 v=0
321840 On ch=1 n=71 v=84
321840 Off ch=1 n=40 v=0
321840 Off ch=1 n=52 v=0
321840 On ch=1 n=40 v=88
321840 On ch=1 n=52 v=88
322080 Off ch=1 n=71 v=0
322080 On ch=1 n=73 v=78
322080 Off ch=1 n=40 v=0
322080 Off ch=1 n=52 v=0
322320 Off ch=1 n=73 v=0
322320 On ch=1 n=76 v=80
322560 Off ch=1 n=76 v=0
322560 Off ch=1 n=40 v=0
322560 On ch=1 n=42 v=89
322560 On ch=1 n=49 v=89
322560 On ch=1 n=54 v=89
322800 On ch=1 n=71 v=71
322920 Off ch=1 n=71 v=0
322920 On ch=1 n=73 v=79
323040 Off ch=1 n=73 v=0
323040 On ch=1 n=76 v=81
323040 Off ch=1 n=42 v=0
323040 Off ch=1 n=49 v=0
323040 Off ch=1 n=54 v=0
323040 On ch=1 n=54 v=79
323134 Off ch=1 n=76 v=0
323134 On ch=1 n=78 v=87
323231 Off ch=1 n=78 v=0
323231 On ch=1 n=83 v=86
323280 Off ch=1 n=54 v=0
323280 On ch=1 n=59 v=79
323325 Off ch=1 n=83 v=0
323325 On ch=1 n=85 v=85
323423 Off ch=1 n=85 v=0
323423 On ch=1 n=88 v=87
323520 Off ch=1 n=88 v=0
323520 On ch=1 n=66 v=66
323520 On ch=1 n=90 v=86
323520 Off ch=1 n=59 v=0
323520 On ch=1 n=61 v=90
323520 On ch=1 n=66 v=90
323614 Off ch=1 n=90 v=0
323614 On ch=1 n=88 v=70
323711 Off ch=1 n=88 v=0
323711 On ch=1 n=85 v=68
323805 Off ch=1 n=85 v=0
323805 On ch=1 n=83 v=72
323903 Off ch=1 n=83 v=0
323903 On ch=1 n=78 v=61
324000 Off ch=1 n=78 v=0
324000 On ch=1 n=76 v=71
324000 Off ch=1 n=61 v=0
324000 Off ch=1 n=66 v=0
324000 On ch=1 n=54 v=72
324120 Off ch=1 n=76 v=0
324120 On ch=1 n=73 v=66
324240 Off ch=1 n=73 v=0
324240 On ch=1 n=71 v=68
324240 Off ch=1 n=54 v=0
324240 On ch=1 n=42 v=64
324480 Off ch=1 n=66 v=0
324480 Off ch=1 n=71 v=0
324480 On ch=1 n=66 v=72
324720 On ch=1 n=71 v=69
324720 Off ch=1 n=42 v=0
324720 On ch=1 n=54 v=87
324840 Off ch=1 n=71 v=0
324840 On ch=1 n=73 v=81
324960 Off ch=1 n=73 v=0
324960 On ch=1 n=76 v=82
324960 Off ch=1 n=54 v=0
324960 On ch=1 n=54 v=77
325054 Off ch=1 n=76 v=0
325054 On ch=1 n=78 v=79
325151 Off ch=1 n=78 v=0
325151 On ch=1 n=83 v=89
325200 Off ch=1 n=54 v=0
325200 On ch=1 n=59 v=81
325245 Off ch=1 n=83 v=0
325245 On ch=1 n=85 v=84
325343 Off ch=1 n=85 v=0
325343 On ch=1 n=88 v=83
325440 Off ch=1 n=66 v=0
325440 Off ch=1 n=88 v=0
325440 On ch=1 n=66 v=76
325440 On ch=1 n=90 v=79
325440 Off ch=1 n=59 v=0
325440 On ch=1 n=61 v=90
325440 On ch=1 n=66 v=90
325534 Off ch=1 n=90 v=0
325534 On ch=1 n=88 v=74
325631 Off ch=1 n=88 v=0
325631 On ch=1 n=85 v=70
325725 Off ch=1 n=85 v=0
325725 On ch=1 n=83 v=69
325823 Off ch=1 n=83 v=0
325823 On ch=1 n=78 v=67
325920 Off ch=1 n=78 v=0
325920 On ch=1 n=76 v=65
325920 Off ch=1 n=61 v=0
325920 Off ch=1 n=66 v=0
325920 On ch=1 n=59 v=70
326040 Off ch=1 n=76 v=0
326040 On ch=1 n=73 v=70
326160 Off ch=1 n=73 v=0
326160 On ch=1 n=71 v=71
326160 Off ch=1 n=59 v=0
326160 On ch=1 n=54 v=73
326400 Off ch=1 n=66 v=0
326400 Off ch=1 n=71 v=0
326400 On ch=1 n=66 v=77
326400 Off ch=1 n=54 v=0
326400 On ch=1 n=40 v=71
326400 On ch=1 n=47 v=71
326400 On ch=1 n=52 v=71
326640 On ch=1 n=71 v=66
326760 Off ch=1 n=71 v=0
326760 On ch=1 n=73 v=82
326880 Off ch=1 n=73 v=0
326880 On ch=1 n=76 v=83
326880 Off ch=1 n=40 v=0
326880 Off ch=1 n=47 v=0
326880 Off ch=1 n=52 v=0
326880 On ch=1 n=52 v=79
326974 Off ch=1 n=76 v=0
326974 On ch=1 n=78 v=81
327071 Off ch=1 n=78 v=0
327071 On ch=1 n=83 v=87
327120 Off ch=1 n=52 v=0
327120 On ch=1 n=59 v=83
327165 Off ch=1 n=83 v=0
327165 On ch=1 n=85 v=85
327263 Off ch=1 n=85 v=0
327263 On ch=1 n=88 v=87
327360 Off ch=1 n=66 v=0
327360 Off ch=1 n=88 v=0
327360 On ch=1 n=69 v=83
327360 On ch=1 n=90 v=82
327360 Off ch=1 n=59 v=0
327360 On ch=1 n=64 v=99
327360 On ch=1 n=69 v=99
327454 Off ch=1 n=90 v=0
327454 On ch=1 n=88 v=74
327551 Off ch=1 n=88 v=0
327551 On ch=1 n=85 v=72
327645 Off ch=1 n=85 v=0
327645 On ch=1 n=83 v=65
327743 Off ch=1 n=83 v=0
327743 On ch=1 n=78 v=68
327840 Off ch=1 n=78 v=0
327840 On ch=1 n=76 v=70
327840 Off ch=1 n=64 v=0
327840 Off ch=1 n=69 v=0
327840 On ch=1 n=52 v=68
327960 Off ch=1 n=76 v=0
327960 On ch=1 n=73 v=70
328080 Off ch=1 n=73 v=0
328080 On ch=1 n=71 v=68
328080 Off ch=1 n=52 v=0
328080 On ch=1 n=40 v=61
328320 Off ch=1 n=69 v=0
328320 Off ch=1 n=71 v=0
328320 On ch=1 n=68 v=75
328560 On ch=1 n=71 v=67
328560 Off ch=1 n=40 v=0
328560 On ch=1 n=40 v=80
328680 Off ch=1 n=71 v=0
328680 On ch=1 n=73 v=79
328800 Off ch=1 n=73 v=0
328800 On ch=1 n=76 v=80
328800 Off ch=1 n=40 v=0
328800 On ch=1 n=52 v=86
328894 Off ch=1 n=76 v=0
328894 On ch=1 n=78 v=81
328991 Off ch=1 n=78 v=0
328991 On ch=1 n=83 v=90
329040 Off ch=1 n=52 v=0
329040 On ch=1 n=59 v=84
329085 Off ch=1 n=83 v=0
329085 On ch=1 n=85 v=81
329183 Off ch=1 n=85 v=0
329183 On ch=1 n=88 v=83
329280 Off ch=1 n=68 v=0
329280 Off ch=1 n=88 v=0
329280 On ch=1 n=64 v=66
329280 On ch=1 n=90 v=83
329280 Off ch=1 n=59 v=0
329280 On ch=1 n=64 v=88
329374 Off ch=1 n=90 v=0
329374 On ch=1 n=88 v=72
329471 Off ch=1 n=88 v=0
329471 On ch=1 n=85 v=67
329520 Off ch=1 n=64 v=0
329520 On ch=1 n=59 v=73
329565 Off ch=1 n=85 v=0
329565 On ch=1 n=83 v=69
329663 Off ch=1 n=83 v=0
329663 On ch=1 n=78 v=65
329760 Off ch=1 n=78 v=0
329760 On ch=1 n=76 v=70
329760 Off ch=1 n=59 v=0
329760 On ch=1 n=52 v=71
329880 Off ch=1 n=76 v=0
329880 On ch=1 n=73 v=65
330000 Off ch=1 n=73 v=0
330000 On ch=1 n=71 v=70
330000 Off ch=1 n=52 v=0
330000 On ch=1 n=40 v=61
330240 Off ch=1 n=64 v=0
330240 Off ch=1 n=71 v=0
330240 Off ch=1 n=40 v=0
330240 On ch=1 n=38 v=83
330240 On ch=1 n=45 v=83
330240 On ch=1 n=50 v=83
330480 On ch=1 n=71 v=69
330600 Off ch=1 n=71 v=0
330600 On ch=1 n=73 v=80
330720 Off ch=1 n=73 v=0
330720 On ch=1 n=76 v=80
330720 Off ch=1 n=38 v=0
330720 Off ch=1 n=45 v=0
330720 Off ch=1 n=50 v=0
330720 On ch=1 n=50 v=77
330814 Off ch=1 n=76 v=0
330814 On ch=1 n=78 v=84
330911 Off ch=1 n=78 v=0
330911 On ch=1 n=83 v=88
330960 Off ch=1 n=50 v=0
330960 On ch=1 n=57 v=85
331005 Off ch=1 n=83 v=0
331005 On ch=1 n=85 v=83
331103 Off ch=1 n=85 v=0
331103 On ch=1 n=88 v=85
331200 Off ch=1 n=88 v=0
331200 On ch=1 n=66 v=64
331200 On ch=1 n=90 v=87
331200 Off ch=1 n=57 v=0
331200 On ch=1 n=62 v=93
331200 On ch=1 n=66 v=93
331294 Off ch=1 n=90 v=0
331294 On ch=1 n=88 v=71
331391 Off ch=1 n=88 v=0
331391 On ch=1 n=85 v=76
331485 Off ch=1 n=85 v=0
331485 On ch=1 n=83 v=68
331583 Off ch=1 n=83 v=0
331583 On ch=1 n=78 v=67
331680 Off ch=1 n=78 v=0
331680 On ch=1 n=76 v=71
331680 Off ch=1 n=62 v=0
331680 Off ch=1 n=66 v=0
331680 On ch=1 n=50 v=66
331800 Off ch=1 n=76 v=0
331800 On ch=1 n=73 v=69
331920 Off ch=1 n=73 v=0
331920 On ch=1 n=71 v=72
331920 Off ch=1 n=50 v=0
331920 On ch=1 n=38 v=69
332160 Off ch=1 n=66 v=0
332160 Off ch=1 n=71 v=0
332160 On ch=1 n=66 v=71
332400 On ch=1 n=71 v=69
332400 Off ch=1 n=38 v=0
332400 On ch=1 n=50 v=86
332520 Off ch=1 n=71 v=0
332520 On ch=1 n=73 v=79
332640 Off ch=1 n=73 v=0
332640 On ch=1 n=76 v=81
332640 Off ch=1 n=50 v=0
332640 On ch=1 n=50 v=72
332734 Off ch=1 n=76 v=0
332734 On ch=1 n=78 v=83
332831 Off ch=1 n=78 v=0
332831 On ch=1 n=83 v=84
332880 Off ch=1 n=50 v=0
332880 On ch=1 n=57 v=81
332925 Off ch=1 n=83 v=0
332925 On ch=1 n=85 v=84
333023 Off ch=1 n=85 v=0
333023 On ch=1 n=88 v=83
333120 Off ch=1 n=66 v=0
333120 Off ch=1 n=88 v=0
333120 On ch=1 n=66 v=77
333120 On ch=1 n=90 v=81
333120 Off ch=1 n=57 v=0
333120 On ch=1 n=62 v=93
333120 On ch=1 n=66 v=93
333214 Off ch=1 n=90 v=0
333214 On ch=1 n=88 v=69
333311 Off ch=1 n=88 v=0
333311 On ch=1 n=85 v=72
333405 Off ch=1 n=85 v=0
333405 On ch=1 n=83 v=71
333503 Off ch=1 n=83 v=0
333503 On ch=1 n=78 v=67
333600 Off ch=1 n=78 v=0
333600 On ch=1 n=76 v=75
333600 Off ch=1 n=62 v=0
333600 Off ch=1 n=66 v=0
333600 On ch=1 n=57 v=71
333720 Off ch=1 n=76 v=0
333720 On ch=1 n=73 v=70
333840 Off ch=1 n=73 v=0
333840 On ch=1 n=71 v=71
333840 Off ch=1 n=57 v=0
333840 On ch=1 n=50 v=68
334080 Off ch=1 n=66 v=0
334080 Off ch=1 n=71 v=0
334080 On ch=1 n=66 v=72
334080 Off ch=1 n=50 v=0
334080 On ch=1 n=38 v=75
334080 On ch=1 n=45 v=75
334080 On ch=1 n=50 v=75
334320 On ch=1 n=71 v=68
334440 Off ch=1 n=71 v=0
334440 On ch=1 n=73 v=77
334560 Off ch=1 n=73 v=0
334560 On ch=1 n=76 v=82
334560 Off ch=1 n=38 v=0
334560 Off ch=1 n=45 v=0
334560 Off ch=1 n=50 v=0
334560 On ch=1 n=50 v=80
334654 Off ch=1 n=76 v=0
334654 On ch=1 n=78 v=87
334751 Off ch=1 n=78 v=0
334751 On ch=1 n=83 v=86
334800 Off ch=1 n=50 v=0
334800 On ch=1 n=57 v=79
334845 Off ch=1 n=83 v=0
334845 On ch=1 n=85 v=85
334943 Off ch=1 n=85 v=0
334943 On ch=1 n=88 v=87
335040 Off ch=1 n=66 v=0
335040 Off ch=1 n=88 v=0
335040 On ch=1 n=64 v=71
335040 On ch=1 n=90 v=85
335040 Off ch=1 n=57 v=0
335040 On ch=1 n=64 v=90
335134 Off ch=1 n=90 v=0
335134 On ch=1 n=88 v=76
335231 Off ch=1 n=88 v=0
335231 On ch=1 n=85 v=70
335325 Off ch=1 n=85 v=0
335325 On ch=1 n=83 v=67
335423 Off ch=1 n=83 v=0
335423 On ch=1 n=78 v=66
335520 Off ch=1 n=78 v=0
335520 On ch=1 n=76 v=70
335520 Off ch=1 n=64 v=0
335520 On ch=1 n=50 v=69
335640 Off ch=1 n=76 v=0
335640 On ch=1 n=73 v=66
335760 Off ch=1 n=73 v=0
335760 On ch=1 n=71 v=71
335760 Off ch=1 n=50 v=0
335760 On ch=1 n=40 v=63
336000 Off ch=1 n=64 v=0
336000 Off ch=1 n=71 v=0
336000 On ch=1 n=66 v=81
336240 On ch=1 n=71 v=70
336240 Off ch=1 n=40 v=0
336240 On ch=1 n=40 v=77
336360 Off ch=1 n=71 v=0
336360 On ch=1 n=73 v=80
336480 Off ch=1 n=73 v=0
336480 On ch=1 n=76 v=83
336480 Off ch=1 n=40 v=0
336480 On ch=1 n=52 v=89
336574 Off ch=1 n=76 v=0
336574 On ch=1 n=78 v=79
336671 Off ch=1 n=78 v=0
336671 On ch=1 n=83 v=89
336720 Off ch=1 n=52 v=0
336720 On ch=1 n=59 v=84
336765 Off ch=1 n=83 v=0
336765 On ch=1 n=85 v=81
336863 Off ch=1 n=85 v=0
336863 On ch=1 n=88 v=89
336960 Off ch=1 n=66 v=0
336960 Off ch=1 n=88 v=0
336960 On ch=1 n=69 v=80
336960 On ch=1 n=90 v=86
336960 Off ch=1 n=59 v=0
336960 On ch=1 n=64 v=99
336960 On ch=1 n=69 v=99
337054 Off ch=1 n=90 v=0
337054 On ch=1 n=88 v=69
337151 Off ch=1 n=88 v=0
337151 On ch=1 n=85 v=69
337200 Off ch=1 n=64 v=0
337200 Off ch=1 n=69 v=0
337200 On ch=1 n=59 v=72
337245 Off ch=1 n=85 v=0
337245 On ch=1 n=83 v=66
337343 Off ch=1 n=83 v=0
337343 On ch=1 n=78 v=68
337440 Off ch=1 n=78 v=0
337440 On ch=1 n=76 v=71
337440 Off ch=1 n=59 v=0
337440 On ch=1 n=52 v=67
337560 Off ch=1 n=76 v=0
337560 On ch=1 n=73 v=70
337680 Off ch=1 n=73 v=0
337680 On ch=1 n=71 v=68
337680 Off ch=1 n=52 v=0
337680 On ch=1 n=40 v=67
337920 Off ch=1 n=69 v=0
337920 Off ch=1 n=71 v=0
337920 On ch=1 n=78 v=93
337920 Off ch=1 n=40 v=0
337920 On ch=1 n=42 v=67
337920 On ch=1 n=49 v=67
337920 On ch=1 n=54 v=67
338160 On ch=1 n=71 v=69
338400 Off ch=1 n=71 v=0
338400 On ch=1 n=73 v=80
338400 On ch=1 n=54 v=67
338640 Off ch=1 n=78 v=0
338640 Off ch=1 n=73 v=0
338640 On ch=1 n=76 v=75
338640 Off ch=1 n=54 v=0
338640 On ch=1 n=59 v=80
338880 On ch=1 n=71 v=67
338880 Off ch=1 n=59 v=0
338880 On ch=1 n=66 v=87
339120 Off ch=1 n=71 v=0
339120 On ch=1 n=73 v=80
339120 On ch=1 n=54 v=77
339360 Off ch=1 n=73 v=0
339360 On ch=1 n=76 v=89
339360 Off ch=1 n=54 v=0
339360 On ch=1 n=59 v=92
339600 Off ch=1 n=76 v=0
339600 On ch=1 n=71 v=69
339600 Off ch=1 n=59 v=0
339600 On ch=1 n=61 v=93
339840 Off ch=1 n=76 v=0
339840 Off ch=1 n=71 v=0
339840 On ch=1 n=73 v=70
339840 Off ch=1 n=66 v=0
339840 Off ch=1 n=61 v=0
339840 On ch=1 n=66 v=84
340080 On ch=1 n=71 v=69
340080 On ch=1 n=54 v=72
340320 Off ch=1 n=71 v=0
340320 On ch=1 n=73 v=80
340320 Off ch=1 n=54 v=0
340320 On ch=1 n=59 v=86
340560 Off ch=1 n=73 v=0
340560 Off ch=1 n=73 v=0
340560 On ch=1 n=76 v=81
340560 Off ch=1 n=59 v=0
340560 On ch=1 n=61 v=87
340800 On ch=1 n=71 v=70
340800 Off ch=1 n=66 v=0
340800 Off ch=1 n=61 v=0
340800 On ch=1 n=66 v=88
341040 Off ch=1 n=71 v=0
341040 On ch=1 n=73 v=78
341040 On ch=1 n=54 v=80
341280 Off ch=1 n=73 v=0
341280 On ch=1 n=76 v=81
341280 Off ch=1 n=54 v=0
341280 On ch=1 n=59 v=92
341520 Off ch=1 n=76 v=0
341520 On ch=1 n=71 v=69
341520 Off ch=1 n=59 v=0
341520 On ch=1 n=61 v=92
341760 Off ch=1 n=76 v=0
341760 Off ch=1 n=71 v=0
341760 On ch=1 n=78 v=82
341760 Off ch=1 n=42 v=0
341760 Off ch=1 n=49 v=0
341760 Off ch=1 n=54 v=0
341760 Off ch=1 n=66 v=0
341760 Off ch=1 n=61 v=0
341760 On ch=1 n=40 v=71
341760 On ch=1 n=47 v=71
341760 On ch=1 n=52 v=71
341760 On ch=1 n=66 v=77
342000 On ch=1 n=71 v=68
342000 On ch=1 n=52 v=69
342240 Off ch=1 n=71 v=0
342240 On ch=1 n=73 v=79
342240 Off ch=1 n=52 v=0
342240 On ch=1 n=59 v=86
342480 Off ch=1 n=78 v=0
342480 Off ch=1 n=73 v=0
342480 On ch=1 n=76 v=71
342480 Off ch=1 n=59 v=0
342480 On ch=1 n=61 v=82
342720 On ch=1 n=71 v=68
342720 Off ch=1 n=66 v=0
342720 Off ch=1 n=61 v=0
342720 On ch=1 n=69 v=84
342960 Off ch=1 n=71 v=0
342960 On ch=1 n=73 v=75
342960 On ch=1 n=52 v=77
343200 Off ch=1 n=73 v=0
343200 On ch=1 n=76 v=79
343200 Off ch=1 n=52 v=0
343200 On ch=1 n=59 v=90
343440 Off ch=1 n=76 v=0
343440 On ch=1 n=71 v=64
343440 Off ch=1 n=59 v=0
343440 On ch=1 n=61 v=91
343680 Off ch=1 n=76 v=0
343680 Off ch=1 n=71 v=0
343680 On ch=1 n=73 v=68
343680 Off ch=1 n=69 v=0
343680 Off ch=1 n=61 v=0
343680 On ch=1 n=68 v=96
343920 On ch=1 n=71 v=70
343920 On ch=1 n=52 v=90
344160 Off ch=1 n=71 v=0
344160 On ch=1 n=73 v=76
344160 Off ch=1 n=52 v=0
344160 On ch=1 n=59 v=106
344400 Off ch=1 n=73 v=0
344400 Off ch=1 n=73 v=0
344400 On ch=1 n=76 v=79
344400 Off ch=1 n=59 v=0
344400 On ch=1 n=61 v=101
344640 On ch=1 n=71 v=67
344640 Off ch=1 n=68 v=0
344640 Off ch=1 n=61 v=0
344640 On ch=1 n=64 v=84
344880 Off ch=1 n=71 v=0
344880 On ch=1 n=73 v=82
344880 On ch=1 n=52 v=75
345120 Off ch=1 n=73 v=0
345120 On ch=1 n=76 v=80
345120 Off ch=1 n=52 v=0
345120 On ch=1 n=59 v=88
345360 Off ch=1 n=76 v=0
345360 On ch=1 n=71 v=67
345360 Off ch=1 n=59 v=0
345360 On ch=1 n=61 v=87
345600 Off ch=1 n=76 v=0
345600 Off ch=1 n=71 v=0
345600 On ch=1 n=78 v=80
345600 Off ch=1 n=40 v=0
345600 Off ch=1 n=47 v=0
345600 Off ch=1 n=52 v=0
345600 Off ch=1 n=64 v=0
345600 Off ch=1 n=61 v=0
345600 On ch=1 n=38 v=75
345600 On ch=1 n=45 v=75
345600 On ch=1 n=50 v=75
345840 On ch=1 n=71 v=67
346080 Off ch=1 n=71 v=0
346080 On ch=1 n=73 v=84
346080 On ch=1 n=50 v=72
346320 Off ch=1 n=78 v=0
346320 Off ch=1 n=73 v=0
346320 On ch=1 n=76 v=74
346320 Off ch=1 n=50 v=0
346320 On ch=1 n=57 v=82
346560 On ch=1 n=71 v=65
346560 Off ch=1 n=57 v=0
346560 On ch=1 n=66 v=91
346800 Off ch=1 n=71 v=0
346800 On ch=1 n=73 v=83
346800 On ch=1 n=50 v=79
347040 Off ch=1 n=73 v=0
347040 On ch=1 n=76 v=84
347040 Off ch=1 n=50 v=0
347040 On ch=1 n=57 v=96
347280 Off ch=1 n=76 v=0
347280 On ch=1 n=71 v=70
347280 Off ch=1 n=57 v=0
347280 On ch=1 n=59 v=94
347520 Off ch=1 n=76 v=0
347520 Off ch=1 n=71 v=0
347520 On ch=1 n=73 v=74
347520 Off ch=1 n=66 v=0
347520 Off ch=1 n=59 v=0
347520 On ch=1 n=66 v=87
347760 On ch=1 n=71 v=68
347760 On ch=1 n=50 v=83
348000 Off ch=1 n=71 v=0
348000 On ch=1 n=73 v=80
348000 Off ch=1 n=50 v=0
348000 On ch=1 n=57 v=96
348240 Off ch=1 n=73 v=0
348240 Off ch=1 n=73 v=0
348240 On ch=1 n=76 v=85
348240 Off ch=1 n=57 v=0
348240 On ch=1 n=59 v=91
348480 On ch=1 n=71 v=66
348480 Off ch=1 n=66 v=0
348480 Off ch=1 n=59 v=0
348480 On ch=1 n=66 v=87
348720 Off ch=1 n=71 v=0
348720 On ch=1 n=73 v=84
348720 On ch=1 n=50 v=87
348960 Off ch=1 n=73 v=0
348960 On ch=1 n=76 v=82
348960 Off ch=1 n=50 v=0
348960 On ch=1 n=57 v=95
349200 Off ch=1 n=76 v=0
349200 On ch=1 n=71 v=68
349200 Off ch=1 n=57 v=0
349200 On ch=1 n=59 v=85
349440 Off ch=1 n=76 v=0
349440 Off ch=1 n=71 v=0
349440 On ch=1 n=78 v=81
349440 Off ch=1 n=38 v=0
349440 Off ch=1 n=45 v=0
349440 Off ch=1 n=50 v=0
349440 Off ch=1 n=66 v=0
349440 Off ch=1 n=59 v=0
349440 On ch=1 n=38 v=80
349440 On ch=1 n=45 v=80
349440 On ch=1 n=50 v=80
349440 On ch=1 n=66 v=78
349680 On ch=1 n=71 v=69
349680 On ch=1 n=50 v=67
349920 Off ch=1 n=71 v=0
349920 On ch=1 n=73 v=85
349920 Off ch=1 n=50 v=0
349920 On ch=1 n=57 v=84
350160 Off ch=1 n=78 v=0
350160 Off ch=1 n=73 v=0
350160 On ch=1 n=76 v=74
350160 Off ch=1 n=57 v=0
350160 On ch=1 n=59 v=77
350400 On ch=1 n=71 v=68
350400 Off ch=1 n=66 v=0
350400 Off ch=1 n=59 v=0
350400 On ch=1 n=64 v=85
350640 Off ch=1 n=71 v=0
350640 On ch=1 n=73 v=81
350640 On ch=1 n=50 v=80
350880 Off ch=1 n=73 v=0
350880 On ch=1 n=76 v=82
350880 Off ch=1 n=50 v=0
350880 On ch=1 n=57 v=93
351120 Off ch=1 n=76 v=0
351120 On ch=1 n=71 v=68
351120 Off ch=1 n=57 v=0
351120 On ch=1 n=59 v=85
351360 Off ch=1 n=76 v=0
351360 Off ch=1 n=71 v=0
351360 On ch=1 n=73 v=71
351360 Off ch=1 n=64 v=0
351360 Off ch=1 n=59 v=0
351360 On ch=1 n=66 v=90
351600 On ch=1 n=71 v=69
351600 On ch=1 n=50 v=79
351840 Off ch=1 n=71 v=0
351840 On ch=1 n=73 v=79
351840 Off ch=1 n=50 v=0
351840 On ch=1 n=57 v=91
352080 Off ch=1 n=73 v=0
352080 Off ch=1 n=73 v=0
352080 On ch=1 n=76 v=83
352080 Off ch=1 n=57 v=0
352080 On ch=1 n=59 v=91
352320 Off ch=1 n=38 v=0
352320 Off ch=1 n=45 v=0
352320 Off ch=1 n=50 v=0
352320 Off ch=1 n=66 v=0
352320 Off ch=1 n=59 v=0
352320 On ch=1 n=40 v=71
352320 On ch=1 n=69 v=82
352560 On ch=1 n=64 v=68
352800 Off ch=1 n=64 v=0
352800 On ch=1 n=59 v=66
353040 Off ch=1 n=59 v=0
353040 On ch=1 n=52 v=68
353280 Off ch=1 n=76 v=0
353280 On ch=1 n=78 v=87
353280 Off ch=1 n=40 v=0
353280 Off ch=1 n=69 v=0
353280 Off ch=1 n=52 v=0
353280 On ch=1 n=30 v=63
353280 On ch=1 n=42 v=63
353520 On ch=1 n=85 v=90
353760 Off ch=1 n=85 v=0
353760 On ch=1 n=90 v=85
354000 Off ch=1 n=90 v=0
354000 On ch=1 n=83 v=70
354240 Off ch=1 n=83 v=0
354240 On ch=1 n=78 v=63
354480 Off ch=1 n=78 v=0
354480 On ch=1 n=83 v=83
354720 Off ch=1 n=83 v=0
354720 On ch=1 n=85 v=88
354960 Off ch=1 n=85 v=0
354960 On ch=1 n=88 v=83
355200 Off ch=1 n=88 v=0
355200 On ch=1 n=78 v=59
355440 Off ch=1 n=78 v=0
355440 On ch=1 n=85 v=88
355680 Off ch=1 n=85 v=0
355680 On ch=1 n=90 v=91
355920 Off ch=1 n=90 v=0
355920 On ch=1 n=83 v=65
356160 Off ch=1 n=83 v=0
356160 On ch=1 n=78 v=61
356400 Off ch=1 n=78 v=0
356400 On ch=1 n=83 v=84
356640 Off ch=1 n=83 v=0
356640 On ch=1 n=85 v=82
356880 Off ch=1 n=85 v=0
356880 On ch=1 n=88 v=88
357120 Off ch=1 n=78 v=0
357120 Off ch=1 n=88 v=0
357120 On ch=1 n=78 v=77
357360 Off ch=1 n=78 v=0
357360 On ch=1 n=85 v=83
357600 Off ch=1 n=85 v=0
357600 On ch=1 n=90 v=89
357840 Off ch=1 n=90 v=0
357840 On ch=1 n=83 v=63
358080 Off ch=1 n=83 v=0
358080 On ch=1 n=78 v=64
358320 Off ch=1 n=78 v=0
358320 On ch=1 n=83 v=85
358560 Off ch=1 n=83 v=0
358560 On ch=1 n=85 v=87
358800 Off ch=1 n=85 v=0
358800 On ch=1 n=88 v=81
359040 Off ch=1 n=88 v=0
359040 On ch=1 n=78 v=61
359280 Off ch=1 n=78 v=0
359280 On ch=1 n=85 v=89
359520 Off ch=1 n=85 v=0
359520 On ch=1 n=90 v=88
359760 Off ch=1 n=90 v=0
359760 On ch=1 n=83 v=67
360000 Off ch=1 n=83 v=0
360000 On ch=1 n=78 v=61
360240 Off ch=1 n=78 v=0
360240 On ch=1 n=83 v=86
360480 Off ch=1 n=83 v=0
360480 On ch=1 n=85 v=86
360720 Off ch=1 n=85 v=0
360720 On ch=1 n=88 v=83
360960 Off ch=1 n=88 v=0
360960 On ch=1 n=78 v=55
360960 On ch=1 n=66 v=73
361200 Off ch=1 n=78 v=0
361200 Off ch=1 n=66 v=0
361200 On ch=1 n=85 v=86
361200 On ch=1 n=71 v=86
361440 Off ch=1 n=85 v=0
361440 Off ch=1 n=71 v=0
361440 On ch=1 n=90 v=93
361440 On ch=1 n=73 v=81
361680 Off ch=1 n=90 v=0
361680 Off ch=1 n=73 v=0
361680 On ch=1 n=83 v=65
361680 On ch=1 n=76 v=87
361920 Off ch=1 n=83 v=0
361920 Off ch=1 n=76 v=0
361920 On ch=1 n=78 v=63
361920 On ch=1 n=66 v=57
362160 Off ch=1 n=78 v=0
362160 Off ch=1 n=66 v=0
362160 On ch=1 n=83 v=84
362160 On ch=1 n=71 v=87
362400 Off ch=1 n=83 v=0
362400 Off ch=1 n=71 v=0
362400 On ch=1 n=85 v=93
362400 On ch=1 n=73 v=83
362640 Off ch=1 n=85 v=0
362640 Off ch=1 n=73 v=0
362640 On ch=1 n=88 v=87
362640 On ch=1 n=76 v=84
362880 Off ch=1 n=88 v=0
362880 Off ch=1 n=76 v=0
362880 On ch=1 n=78 v=62
362880 On ch=1 n=66 v=59
363120 Off ch=1 n=78 v=0
363120 Off ch=1 n=66 v=0
363120 On ch=1 n=85 v=88
363120 On ch=1 n=71 v=84
363360 Off ch=1 n=85 v=0
363360 Off ch=1 n=71 v=0
363360 On ch=1 n=90 v=89
363360 On ch=1 n=73 v=83
363600 Off ch=1 n=90 v=0
363600 Off ch=1 n=73 v=0
363600 On ch=1 n=83 v=66
363600 On ch=1 n=76 v=84
363840 Off ch=1 n=83 v=0
363840 Off ch=1 n=76 v=0
363840 On ch=1 n=78 v=65
363840 On ch=1 n=66 v=61
364080 Off ch=1 n=78 v=0
364080 Off ch=1 n=66 v=0
364080 On ch=1 n=83 v=85
364080 On ch=1 n=71 v=82
364320 Off ch=1 n=83 v=0
364320 Off ch=1 n=71 v=0
364320 On ch=1 n=85 v=85
364320 On ch=1 n=73 v=83
364560 Off ch=1 n=85 v=0
364560 Off ch=1 n=73 v=0
364560 On ch=1 n=88 v=88
364560 On ch=1 n=76 v=81
364800 Off ch=1 n=88 v=0
364800 Off ch=1 n=76 v=0
364800 On ch=1 n=78 v=60
364800 On ch=1 n=66 v=57
365040 Off ch=1 n=78 v=0
365040 Off ch=1 n=66 v=0
365040 On ch=1 n=85 v=89
365040 On ch=1 n=71 v=86
365280 Off ch=1 n=85 v=0
365280 Off ch=1 n=71 v=0
365280 On ch=1 n=90 v=85
365280 On ch=1 n=73 v=81
365520 Off ch=1 n=90 v=0
365520 Off ch=1 n=73 v=0
365520 On ch=1 n=83 v=63
365520 On ch=1 n=76 v=82
365760 Off ch=1 n=83 v=0
365760 Off ch=1 n=76 v=0
365760 On ch=1 n=78 v=65
365760 On ch=1 n=66 v=62
366000 Off ch=1 n=78 v=0
366000 Off ch=1 n=66 v=0
366000 On ch=1 n=83 v=89
366000 On ch=1 n=71 v=84
366240 Off ch=1 n=83 v=0
366240 Off ch=1 n=71 v=0
366240 On ch=1 n=85 v=83
366240 On ch=1 n=73 v=84
366480 Off ch=1 n=85 v=0
366480 Off ch=1 n=73 v=0
366480 On ch=1 n=88 v=79
366480 On ch=1 n=76 v=85
366720 Off ch=1 n=88 v=0
366720 Off ch=1 n=76 v=0
366720 On ch=1 n=78 v=61
366720 On ch=1 n=66 v=62
366960 Off ch=1 n=78 v=0
366960 Off ch=1 n=66 v=0
366960 On ch=1 n=85 v=93
366960 On ch=1 n=71 v=88
367200 Off ch=1 n=85 v=0
367200 Off ch=1 n=71 v=0
367200 On ch=1 n=90 v=85
367200 On ch=1 n=73 v=83
367440 Off ch=1 n=90 v=0
367440 Off ch=1 n=73 v=0
367440 On ch=1 n=83 v=60
367440 On ch=1 n=76 v=82
367680 Off ch=1 n=83 v=0
367680 Off ch=1 n=76 v=0
367680 On ch=1 n=78 v=64
367680 On ch=1 n=66 v=58
367920 Off ch=1 n=78 v=0
367920 Off ch=1 n=66 v=0
367920 On ch=1 n=83 v=87
367920 On ch=1 n=71 v=80
368160 Off ch=1 n=83 v=0
368160 Off ch=1 n=71 v=0
368160 On ch=1 n=85 v=83
368160 On ch=1 n=73 v=81
368400 Off ch=1 n=85 v=0
368400 Off ch=1 n=73 v=0
368400 On ch=1 n=83 v=88
368400 On ch=1 n=92 v=88
368400 On ch=1 n=76 v=86
374400 Off ch=1 n=83 v=0
374400 Off ch=1 n=92 v=0
374400 Off ch=1 n=76 v=0
374400 Off ch=1 n=30 v=0
374400 Off ch=1 n=42 v=0
374401 Meta TrkEnd
TrkEnd