MFile 1 2 480
MTrk
0 TimeSig 4/4 24 8
0 KeySig 0 major
0 Tempo 315789
0 Par ch=1 c=121 v=0
0 PrCh ch=1 p=0
0 Par ch=1 c=7 v=100
0 Par ch=1 c=10 v=64
0 Par ch=1 c=91 v=0
0 Par ch=1 c=93 v=0
0 Meta 0x21 00
960 On ch=1 n=63 v=85
1187 On ch=1 n=63 v=0
1200 On ch=1 n=65 v=85
1655 On ch=1 n=65 v=0
1680 On ch=1 n=63 v=85
1680 On ch=1 n=70 v=85
2363 On ch=1 n=63 v=0
2363 On ch=1 n=70 v=0
2400 On ch=1 n=63 v=85
2627 On ch=1 n=63 v=0
2640 On ch=1 n=63 v=85
3323 On ch=1 n=63 v=0
3360 On ch=1 n=65 v=85
3587 On ch=1 n=65 v=0
3600 On ch=1 n=65 v=85
4739 On ch=1 n=65 v=0
4800 On ch=1 n=63 v=85
5027 On ch=1 n=63 v=0
5040 On ch=1 n=65 v=85
5495 On ch=1 n=65 v=0
5520 On ch=1 n=63 v=85
5520 On ch=1 n=70 v=85
6203 On ch=1 n=63 v=0
6203 On ch=1 n=70 v=0
6240 On ch=1 n=63 v=85
6695 On ch=1 n=63 v=0
6720 On ch=1 n=63 v=85
7175 On ch=1 n=63 v=0
7200 On ch=1 n=67 v=85
7427 On ch=1 n=67 v=0
7440 On ch=1 n=65 v=85
7895 On ch=1 n=65 v=0
7920 On ch=1 n=67 v=85
8147 On ch=1 n=67 v=0
8160 On ch=1 n=63 v=85
8843 On ch=1 n=63 v=0
8880 On ch=1 n=63 v=85
9107 On ch=1 n=63 v=0
9120 On ch=1 n=63 v=85
9347 On ch=1 n=63 v=0
9360 On ch=1 n=58 v=85
9587 On ch=1 n=58 v=0
9600 On ch=1 n=63 v=85
10055 On ch=1 n=63 v=0
10080 On ch=1 n=65 v=85
10535 On ch=1 n=65 v=0
10560 On ch=1 n=67 v=85
11015 On ch=1 n=67 v=0
11040 On ch=1 n=68 v=85
11267 On ch=1 n=68 v=0
11280 On ch=1 n=67 v=85
11735 On ch=1 n=67 v=0
11760 On ch=1 n=63 v=85
12671 On ch=1 n=63 v=0
12720 On ch=1 n=58 v=85
12947 On ch=1 n=58 v=0
12960 On ch=1 n=67 v=85
13187 On ch=1 n=67 v=0
13200 On ch=1 n=65 v=85
13883 On ch=1 n=65 v=0
13920 On ch=1 n=63 v=85
14375 On ch=1 n=63 v=0
14400 On ch=1 n=67 v=85
14627 On ch=1 n=67 v=0
14640 On ch=1 n=68 v=85
15095 On ch=1 n=68 v=0
15120 On ch=1 n=67 v=85
15575 On ch=1 n=67 v=0
15600 On ch=1 n=63 v=85
16283 On ch=1 n=63 v=0
16320 On ch=1 n=63 v=85
16547 On ch=1 n=63 v=0
16560 On ch=1 n=65 v=85
17015 On ch=1 n=65 v=0
17040 On ch=1 n=63 v=85
17040 On ch=1 n=70 v=85
17723 On ch=1 n=63 v=0
17723 On ch=1 n=70 v=0
17760 On ch=1 n=63 v=85
17987 On ch=1 n=63 v=0
18000 On ch=1 n=63 v=85
18683 On ch=1 n=63 v=0
18720 On ch=1 n=60 v=85
18947 On ch=1 n=60 v=0
18960 On ch=1 n=65 v=85
20099 On ch=1 n=65 v=0
20160 On ch=1 n=63 v=85
20387 On ch=1 n=63 v=0
20400 On ch=1 n=65 v=85
20855 On ch=1 n=65 v=0
20880 On ch=1 n=63 v=85
20880 On ch=1 n=70 v=85
21563 On ch=1 n=63 v=0
21563 On ch=1 n=70 v=0
21600 On ch=1 n=63 v=85
22055 On ch=1 n=63 v=0
22080 On ch=1 n=63 v=85
22535 On ch=1 n=63 v=0
22560 On ch=1 n=67 v=85
22787 On ch=1 n=67 v=0
22800 On ch=1 n=65 v=85
23255 On ch=1 n=65 v=0
23280 On ch=1 n=67 v=85
23963 On ch=1 n=67 v=0
24000 On ch=1 n=70 v=85
24227 On ch=1 n=70 v=0
24240 On ch=1 n=67 v=85
24695 On ch=1 n=67 v=0
24720 On ch=1 n=67 v=85
24720 On ch=1 n=70 v=85
25403 On ch=1 n=67 v=0
25403 On ch=1 n=70 v=0
25440 On ch=1 n=67 v=85
25440 On ch=1 n=72 v=85
25895 On ch=1 n=67 v=0
25895 On ch=1 n=72 v=0
26400 On ch=1 n=67 v=85
26627 On ch=1 n=67 v=0
26640 On ch=1 n=67 v=85
26640 On ch=1 n=70 v=85
27323 On ch=1 n=67 v=0
27323 On ch=1 n=70 v=0
27360 On ch=1 n=67 v=85
27360 On ch=1 n=72 v=85
28271 On ch=1 n=67 v=0
28271 On ch=1 n=72 v=0
28320 On ch=1 n=67 v=85
28775 On ch=1 n=67 v=0
28800 On ch=1 n=67 v=85
28800 On ch=1 n=75 v=85
29027 On ch=1 n=67 v=0
29027 On ch=1 n=75 v=0
29040 On ch=1 n=67 v=85
29040 On ch=1 n=74 v=85
29495 On ch=1 n=67 v=0
29495 On ch=1 n=74 v=0
29520 On ch=1 n=67 v=85
29520 On ch=1 n=70 v=85
29975 On ch=1 n=67 v=0
29975 On ch=1 n=70 v=0
30000 On ch=1 n=67 v=85
30455 On ch=1 n=67 v=0
30480 On ch=1 n=67 v=85
30480 On ch=1 n=70 v=85
30935 On ch=1 n=67 v=0
30935 On ch=1 n=70 v=0
30960 On ch=1 n=67 v=85
30960 On ch=1 n=72 v=85
32441 On ch=1 n=67 v=0
32441 On ch=1 n=72 v=0
32640 On ch=1 n=58 v=96
32640 On ch=1 n=70 v=96
33095 On ch=1 n=58 v=0
33095 On ch=1 n=70 v=0
33120 On ch=1 n=60 v=96
33575 On ch=1 n=60 v=0
33600 On ch=1 n=63 v=96
33827 On ch=1 n=63 v=0
33840 On ch=1 n=65 v=96
34067 On ch=1 n=65 v=0
34080 On ch=1 n=63 v=96
34307 On ch=1 n=63 v=0
34320 On ch=1 n=60 v=96
34320 On ch=1 n=65 v=96
34775 On ch=1 n=60 v=0
34775 On ch=1 n=65 v=0
34800 On ch=1 n=60 v=96
34800 On ch=1 n=65 v=96
35027 On ch=1 n=60 v=0
35027 On ch=1 n=65 v=0
35040 On ch=1 n=60 v=96
35040 On ch=1 n=63 v=96
35495 On ch=1 n=60 v=0
35495 On ch=1 n=63 v=0
35520 On ch=1 n=60 v=96
35747 On ch=1 n=60 v=0
35760 On ch=1 n=63 v=96
35987 On ch=1 n=63 v=0
36000 On ch=1 n=65 v=96
36227 On ch=1 n=65 v=0
36240 On ch=1 n=67 v=96
36467 On ch=1 n=67 v=0
36480 On ch=1 n=65 v=96
36935 On ch=1 n=65 v=0
36960 On ch=1 n=67 v=96
37415 On ch=1 n=67 v=0
37440 On ch=1 n=65 v=96
37667 On ch=1 n=65 v=0
37680 On ch=1 n=63 v=96
37907 On ch=1 n=63 v=0
37920 On ch=1 n=63 v=96
38147 On ch=1 n=63 v=0
38160 On ch=1 n=65 v=96
38615 On ch=1 n=65 v=0
38640 On ch=1 n=63 v=96
38867 On ch=1 n=63 v=0
38880 On ch=1 n=65 v=96
39107 On ch=1 n=65 v=0
39120 On ch=1 n=67 v=96
39575 On ch=1 n=67 v=0
39600 On ch=1 n=65 v=96
39827 On ch=1 n=65 v=0
39840 On ch=1 n=63 v=96
40067 On ch=1 n=63 v=0
40080 On ch=1 n=60 v=96
40307 On ch=1 n=60 v=0
40320 On ch=1 n=58 v=96
40775 On ch=1 n=58 v=0
40800 On ch=1 n=60 v=96
41255 On ch=1 n=60 v=0
41280 On ch=1 n=60 v=96
41280 On ch=1 n=63 v=96
41507 On ch=1 n=60 v=0
41507 On ch=1 n=63 v=0
41520 On ch=1 n=60 v=96
41520 On ch=1 n=65 v=96
41747 On ch=1 n=60 v=0
41747 On ch=1 n=65 v=0
41760 On ch=1 n=60 v=96
41760 On ch=1 n=63 v=96
41987 On ch=1 n=60 v=0
41987 On ch=1 n=63 v=0
42000 On ch=1 n=60 v=96
42000 On ch=1 n=65 v=96
42455 On ch=1 n=60 v=0
42455 On ch=1 n=65 v=0
42480 On ch=1 n=60 v=96
42480 On ch=1 n=65 v=96
42707 On ch=1 n=60 v=0
42707 On ch=1 n=65 v=0
42720 On ch=1 n=60 v=96
42720 On ch=1 n=63 v=96
43175 On ch=1 n=60 v=0
43175 On ch=1 n=63 v=0
43200 On ch=1 n=60 v=96
43427 On ch=1 n=60 v=0
43440 On ch=1 n=63 v=96
43667 On ch=1 n=63 v=0
43680 On ch=1 n=65 v=96
43907 On ch=1 n=65 v=0
43920 On ch=1 n=67 v=96
44147 On ch=1 n=67 v=0
44160 On ch=1 n=65 v=96
44387 On ch=1 n=65 v=0
44400 On ch=1 n=67 v=96
44627 On ch=1 n=67 v=0
44640 On ch=1 n=75 v=96
45095 On ch=1 n=75 v=0
45120 On ch=1 n=67 v=96
45347 On ch=1 n=67 v=0
45360 On ch=1 n=65 v=96
45815 On ch=1 n=65 v=0
45840 On ch=1 n=65 v=96
46295 On ch=1 n=65 v=0
46320 On ch=1 n=63 v=96
46547 On ch=1 n=63 v=0
46560 On ch=1 n=65 v=96
46787 On ch=1 n=65 v=0
46800 On ch=1 n=70 v=96
47027 On ch=1 n=70 v=0
47040 On ch=1 n=75 v=96
47267 On ch=1 n=75 v=0
47280 On ch=1 n=77 v=96
47735 On ch=1 n=77 v=0
47760 On ch=1 n=77 v=96
47760 On ch=1 n=82 v=96
48443 On ch=1 n=77 v=0
48443 On ch=1 n=82 v=0
48480 On ch=1 n=75 v=96
48707 On ch=1 n=75 v=0
48720 On ch=1 n=75 v=96
49403 On ch=1 n=75 v=0
49440 On ch=1 n=77 v=96
49667 On ch=1 n=77 v=0
49680 On ch=1 n=77 v=96
50819 On ch=1 n=77 v=0
50880 On ch=1 n=75 v=96
51107 On ch=1 n=75 v=0
51120 On ch=1 n=77 v=96
51575 On ch=1 n=77 v=0
51600 On ch=1 n=75 v=96
51600 On ch=1 n=82 v=96
52283 On ch=1 n=75 v=0
52283 On ch=1 n=82 v=0
52320 On ch=1 n=75 v=96
52775 On ch=1 n=75 v=0
52800 On ch=1 n=75 v=96
53255 On ch=1 n=75 v=0
53280 On ch=1 n=79 v=96
53507 On ch=1 n=79 v=0
53520 On ch=1 n=77 v=96
53975 On ch=1 n=77 v=0
54000 On ch=1 n=79 v=96
54227 On ch=1 n=79 v=0
54240 On ch=1 n=75 v=96
54923 On ch=1 n=75 v=0
54960 On ch=1 n=75 v=96
55187 On ch=1 n=75 v=0
55200 On ch=1 n=75 v=96
55427 On ch=1 n=75 v=0
55440 On ch=1 n=70 v=96
55667 On ch=1 n=70 v=0
55680 On ch=1 n=75 v=96
56135 On ch=1 n=75 v=0
56160 On ch=1 n=77 v=96
56615 On ch=1 n=77 v=0
56640 On ch=1 n=79 v=96
57095 On ch=1 n=79 v=0
57120 On ch=1 n=80 v=96
57347 On ch=1 n=80 v=0
57360 On ch=1 n=79 v=96
57815 On ch=1 n=79 v=0
57840 On ch=1 n=75 v=96
58751 On ch=1 n=75 v=0
58800 On ch=1 n=75 v=96
59027 On ch=1 n=75 v=0
59040 On ch=1 n=75 v=96
59267 On ch=1 n=75 v=0
59280 On ch=1 n=70 v=96
59507 On ch=1 n=70 v=0
59520 On ch=1 n=75 v=96
59975 On ch=1 n=75 v=0
60000 On ch=1 n=77 v=96
60455 On ch=1 n=77 v=0
60480 On ch=1 n=79 v=96
60935 On ch=1 n=79 v=0
60960 On ch=1 n=80 v=96
61187 On ch=1 n=80 v=0
61200 On ch=1 n=79 v=96
61655 On ch=1 n=79 v=0
61680 On ch=1 n=84 v=96
61907 On ch=1 n=84 v=0
61920 On ch=1 n=82 v=96
62375 On ch=1 n=82 v=0
62400 On ch=1 n=75 v=96
62627 On ch=1 n=75 v=0
62640 On ch=1 n=77 v=96
63095 On ch=1 n=77 v=0
63120 On ch=1 n=75 v=96
63120 On ch=1 n=82 v=96
63803 On ch=1 n=75 v=0
63803 On ch=1 n=82 v=0
63840 On ch=1 n=75 v=96
64067 On ch=1 n=75 v=0
64080 On ch=1 n=75 v=96
64763 On ch=1 n=75 v=0
64800 On ch=1 n=72 v=96
65027 On ch=1 n=72 v=0
65040 On ch=1 n=77 v=96
66179 On ch=1 n=77 v=0
66240 On ch=1 n=75 v=96
66467 On ch=1 n=75 v=0
66480 On ch=1 n=77 v=96
66935 On ch=1 n=77 v=0
66960 On ch=1 n=75 v=96
66960 On ch=1 n=82 v=96
67643 On ch=1 n=75 v=0
67643 On ch=1 n=82 v=0
67680 On ch=1 n=75 v=96
68135 On ch=1 n=75 v=0
68160 On ch=1 n=75 v=96
68615 On ch=1 n=75 v=0
68640 On ch=1 n=79 v=96
68867 On ch=1 n=79 v=0
68880 On ch=1 n=77 v=96
69335 On ch=1 n=77 v=0
69360 On ch=1 n=79 v=96
70043 On ch=1 n=79 v=0
70080 On ch=1 n=82 v=96
70307 On ch=1 n=82 v=0
70320 On ch=1 n=79 v=96
70775 On ch=1 n=79 v=0
70800 On ch=1 n=79 v=96
70800 On ch=1 n=82 v=96
71483 On ch=1 n=79 v=0
71483 On ch=1 n=82 v=0
71520 On ch=1 n=79 v=96
71520 On ch=1 n=84 v=96
72431 On ch=1 n=79 v=0
72431 On ch=1 n=84 v=0
72480 On ch=1 n=79 v=96
72707 On ch=1 n=79 v=0
72720 On ch=1 n=79 v=96
72720 On ch=1 n=82 v=96
73403 On ch=1 n=79 v=0
73403 On ch=1 n=82 v=0
73440 On ch=1 n=79 v=96
73440 On ch=1 n=84 v=96
74351 On ch=1 n=79 v=0
74351 On ch=1 n=84 v=0
74400 On ch=1 n=79 v=96
74855 On ch=1 n=79 v=0
74880 On ch=1 n=79 v=96
74880 On ch=1 n=87 v=96
75107 On ch=1 n=79 v=0
75107 On ch=1 n=87 v=0
75120 On ch=1 n=79 v=96
75120 On ch=1 n=86 v=96
75575 On ch=1 n=79 v=0
75575 On ch=1 n=86 v=0
75600 On ch=1 n=79 v=96
75600 On ch=1 n=82 v=96
76055 On ch=1 n=79 v=0
76055 On ch=1 n=82 v=0
76080 On ch=1 n=79 v=96
76535 On ch=1 n=79 v=0
76560 On ch=1 n=79 v=96
76560 On ch=1 n=84 v=96
78155 On ch=1 n=79 v=0
78155 On ch=1 n=84 v=0
78240 On ch=1 n=60 v=96
78240 On ch=1 n=72 v=96
78695 On ch=1 n=60 v=0
78695 On ch=1 n=72 v=0
78720 On ch=1 n=58 v=96
78720 On ch=1 n=70 v=96
79175 On ch=1 n=58 v=0
79175 On ch=1 n=70 v=0
79200 On ch=1 n=56 v=96
79200 On ch=1 n=68 v=96
79427 On ch=1 n=56 v=0
79427 On ch=1 n=68 v=0
79440 On ch=1 n=55 v=96
79440 On ch=1 n=67 v=96
79895 On ch=1 n=55 v=0
79895 On ch=1 n=67 v=0
79920 On ch=1 n=56 v=96
79920 On ch=1 n=68 v=96
80147 On ch=1 n=56 v=0
80147 On ch=1 n=68 v=0
80160 On ch=1 n=58 v=96
80160 On ch=1 n=70 v=96
81299 On ch=1 n=58 v=0
81299 On ch=1 n=70 v=0
81360 On ch=1 n=51 v=96
81360 On ch=1 n=63 v=96
81815 On ch=1 n=51 v=0
81815 On ch=1 n=63 v=0
81840 On ch=1 n=63 v=96
81840 On ch=1 n=75 v=96
82295 On ch=1 n=63 v=0
82295 On ch=1 n=75 v=0
82320 On ch=1 n=62 v=96
82320 On ch=1 n=74 v=96
82775 On ch=1 n=62 v=0
82775 On ch=1 n=74 v=0
82800 On ch=1 n=60 v=96
82800 On ch=1 n=72 v=96
83027 On ch=1 n=60 v=0
83027 On ch=1 n=72 v=0
83040 On ch=1 n=58 v=96
83040 On ch=1 n=70 v=96
83495 On ch=1 n=58 v=0
83495 On ch=1 n=70 v=0
83520 On ch=1 n=55 v=96
83520 On ch=1 n=67 v=96
83747 On ch=1 n=55 v=0
83747 On ch=1 n=67 v=0
83760 On ch=1 n=58 v=96
83760 On ch=1 n=70 v=96
84899 On ch=1 n=58 v=0
84899 On ch=1 n=70 v=0
84960 On ch=1 n=51 v=96
84960 On ch=1 n=63 v=96
85415 On ch=1 n=51 v=0
85415 On ch=1 n=63 v=0
85440 On ch=1 n=60 v=96
85440 On ch=1 n=72 v=96
85895 On ch=1 n=60 v=0
85895 On ch=1 n=72 v=0
85920 On ch=1 n=58 v=96
85920 On ch=1 n=70 v=96
86375 On ch=1 n=58 v=0
86375 On ch=1 n=70 v=0
86400 On ch=1 n=56 v=96
86400 On ch=1 n=68 v=96
86627 On ch=1 n=56 v=0
86627 On ch=1 n=68 v=0
86640 On ch=1 n=55 v=96
86640 On ch=1 n=67 v=96
87095 On ch=1 n=55 v=0
87095 On ch=1 n=67 v=0
87120 On ch=1 n=56 v=96
87120 On ch=1 n=68 v=96
87347 On ch=1 n=56 v=0
87347 On ch=1 n=68 v=0
87360 On ch=1 n=58 v=96
87360 On ch=1 n=70 v=96
88499 On ch=1 n=58 v=0
88499 On ch=1 n=70 v=0
88560 On ch=1 n=55 v=96
88560 On ch=1 n=67 v=96
89015 On ch=1 n=55 v=0
89015 On ch=1 n=67 v=0
89040 On ch=1 n=56 v=96
89040 On ch=1 n=68 v=96
89495 On ch=1 n=56 v=0
89495 On ch=1 n=68 v=0
89520 On ch=1 n=58 v=96
89520 On ch=1 n=62 v=96
89520 On ch=1 n=70 v=96
89975 On ch=1 n=58 v=0
89975 On ch=1 n=62 v=0
89975 On ch=1 n=70 v=0
90000 On ch=1 n=55 v=96
90000 On ch=1 n=67 v=96
90227 On ch=1 n=55 v=0
90227 On ch=1 n=67 v=0
90240 On ch=1 n=58 v=96
90240 On ch=1 n=70 v=96
90695 On ch=1 n=58 v=0
90695 On ch=1 n=70 v=0
90720 On ch=1 n=58 v=96
90720 On ch=1 n=70 v=96
90947 On ch=1 n=58 v=0
90947 On ch=1 n=70 v=0
90960 On ch=1 n=59 v=96
90960 On ch=1 n=71 v=96
91871 On ch=1 n=59 v=0
91871 On ch=1 n=71 v=0
91920 On ch=1 n=62 v=96
91920 On ch=1 n=67 v=96
91920 On ch=1 n=71 v=96
91920 On ch=1 n=74 v=96
92160 TimeSig 5/8 24 8
92375 On ch=1 n=62 v=0
92375 On ch=1 n=67 v=0
92375 On ch=1 n=71 v=0
92375 On ch=1 n=74 v=0
92400 On ch=1 n=60 v=96
92400 On ch=1 n=72 v=96
92627 On ch=1 n=60 v=0
92627 On ch=1 n=72 v=0
92640 On ch=1 n=62 v=96
92640 On ch=1 n=74 v=96
93095 On ch=1 n=62 v=0
93095 On ch=1 n=74 v=0
93120 On ch=1 n=63 v=96
93120 On ch=1 n=75 v=96
93360 TimeSig 4/4 24 8
93803 On ch=1 n=63 v=0
93803 On ch=1 n=75 v=0
93840 On ch=1 n=62 v=96
93840 On ch=1 n=74 v=96
94067 On ch=1 n=62 v=0
94067 On ch=1 n=74 v=0
94080 On ch=1 n=63 v=96
94080 On ch=1 n=75 v=96
94763 On ch=1 n=63 v=0
94763 On ch=1 n=75 v=0
94800 On ch=1 n=62 v=96
94800 On ch=1 n=74 v=96
95027 On ch=1 n=62 v=0
95027 On ch=1 n=74 v=0
95040 On ch=1 n=60 v=96
95040 On ch=1 n=72 v=96
95495 On ch=1 n=60 v=0
95495 On ch=1 n=72 v=0
95520 On ch=1 n=58 v=96
95520 On ch=1 n=70 v=96
95747 On ch=1 n=58 v=0
95747 On ch=1 n=70 v=0
95760 On ch=1 n=60 v=96
95760 On ch=1 n=72 v=96
96671 On ch=1 n=60 v=0
96671 On ch=1 n=72 v=0
96720 On ch=1 n=63 v=96
96720 On ch=1 n=75 v=96
96947 On ch=1 n=63 v=0
96947 On ch=1 n=75 v=0
96960 On ch=1 n=65 v=96
96960 On ch=1 n=70 v=96
96960 On ch=1 n=77 v=96
97643 On ch=1 n=65 v=0
97643 On ch=1 n=70 v=0
97643 On ch=1 n=77 v=0
97680 On ch=1 n=63 v=96
97680 On ch=1 n=75 v=96
97907 On ch=1 n=63 v=0
97907 On ch=1 n=75 v=0
97920 On ch=1 n=65 v=96
97920 On ch=1 n=70 v=96
97920 On ch=1 n=77 v=96
98603 On ch=1 n=65 v=0
98603 On ch=1 n=70 v=0
98603 On ch=1 n=77 v=0
98640 On ch=1 n=63 v=96
98640 On ch=1 n=75 v=96
98867 On ch=1 n=63 v=0
98867 On ch=1 n=75 v=0
98880 On ch=1 n=62 v=96
98880 On ch=1 n=74 v=96
99335 On ch=1 n=62 v=0
99335 On ch=1 n=74 v=0
99360 On ch=1 n=60 v=96
99360 On ch=1 n=72 v=96
99587 On ch=1 n=60 v=0
99587 On ch=1 n=72 v=0
99600 On ch=1 n=62 v=96
99600 On ch=1 n=74 v=96
100511 On ch=1 n=62 v=0
100511 On ch=1 n=74 v=0
100560 On ch=1 n=70 v=96
100787 On ch=1 n=70 v=0
100800 On ch=1 n=67 v=96
100800 On ch=1 n=70 v=96
100800 On ch=1 n=79 v=96
101483 On ch=1 n=67 v=0
101483 On ch=1 n=70 v=0
101483 On ch=1 n=79 v=0
101520 On ch=1 n=67 v=96
101520 On ch=1 n=70 v=96
101520 On ch=1 n=74 v=96
101747 On ch=1 n=67 v=0
101747 On ch=1 n=70 v=0
101747 On ch=1 n=74 v=0
101760 On ch=1 n=67 v=96
101760 On ch=1 n=70 v=96
101760 On ch=1 n=74 v=96
102443 On ch=1 n=67 v=0
102443 On ch=1 n=70 v=0
102443 On ch=1 n=74 v=0
102480 On ch=1 n=67 v=96
102480 On ch=1 n=70 v=96
102707 On ch=1 n=67 v=0
102707 On ch=1 n=70 v=0
102720 On ch=1 n=67 v=96
102720 On ch=1 n=70 v=96
103403 On ch=1 n=67 v=0
103403 On ch=1 n=70 v=0
103440 On ch=1 n=67 v=96
103667 On ch=1 n=67 v=0
103680 On ch=1 n=67 v=96
103680 On ch=1 n=70 v=96
104363 On ch=1 n=67 v=0
104363 On ch=1 n=70 v=0
104400 On ch=1 n=67 v=96
104400 On ch=1 n=70 v=96
104400 On ch=1 n=74 v=96
104627 On ch=1 n=67 v=0
104627 On ch=1 n=70 v=0
104627 On ch=1 n=74 v=0
104640 On ch=1 n=67 v=96
104640 On ch=1 n=75 v=96
105323 On ch=1 n=67 v=0
105323 On ch=1 n=75 v=0
105360 On ch=1 n=67 v=96
105360 On ch=1 n=74 v=96
105587 On ch=1 n=67 v=0
105587 On ch=1 n=74 v=0
105600 On ch=1 n=67 v=96
105600 On ch=1 n=72 v=96
106283 On ch=1 n=67 v=0
106283 On ch=1 n=72 v=0
106320 On ch=1 n=67 v=96
106320 On ch=1 n=70 v=96
106547 On ch=1 n=67 v=0
106547 On ch=1 n=70 v=0
106560 On ch=1 n=67 v=96
106560 On ch=1 n=72 v=96
107699 On ch=1 n=67 v=0
107699 On ch=1 n=72 v=0
107760 On ch=1 n=60 v=96
107760 On ch=1 n=72 v=96
107987 On ch=1 n=60 v=0
107987 On ch=1 n=72 v=0
108000 On ch=1 n=62 v=96
108000 On ch=1 n=74 v=96
108455 On ch=1 n=62 v=0
108455 On ch=1 n=74 v=0
108480 On ch=1 n=63 v=96
108480 On ch=1 n=68 v=96
108480 On ch=1 n=75 v=96
109163 On ch=1 n=63 v=0
109163 On ch=1 n=68 v=0
109163 On ch=1 n=75 v=0
109200 On ch=1 n=62 v=96
109200 On ch=1 n=74 v=96
109427 On ch=1 n=62 v=0
109427 On ch=1 n=74 v=0
109440 On ch=1 n=63 v=96
109440 On ch=1 n=75 v=96
110123 On ch=1 n=63 v=0
110123 On ch=1 n=75 v=0
110160 On ch=1 n=62 v=96
110160 On ch=1 n=74 v=96
110387 On ch=1 n=62 v=0
110387 On ch=1 n=74 v=0
110400 On ch=1 n=60 v=96
110400 On ch=1 n=72 v=96
110855 On ch=1 n=60 v=0
110855 On ch=1 n=72 v=0
110880 On ch=1 n=58 v=96
110880 On ch=1 n=70 v=96
111107 On ch=1 n=58 v=0
111107 On ch=1 n=70 v=0
111120 On ch=1 n=60 v=96
111120 On ch=1 n=72 v=96
112031 On ch=1 n=60 v=0
112031 On ch=1 n=72 v=0
112080 On ch=1 n=63 v=96
112080 On ch=1 n=75 v=96
112307 On ch=1 n=63 v=0
112307 On ch=1 n=75 v=0
112320 On ch=1 n=65 v=96
112320 On ch=1 n=70 v=96
112320 On ch=1 n=77 v=96
113003 On ch=1 n=65 v=0
113003 On ch=1 n=70 v=0
113003 On ch=1 n=77 v=0
113040 On ch=1 n=63 v=96
113040 On ch=1 n=75 v=96
113267 On ch=1 n=63 v=0
113267 On ch=1 n=75 v=0
113280 On ch=1 n=65 v=96
113280 On ch=1 n=70 v=96
113280 On ch=1 n=77 v=96
113963 On ch=1 n=65 v=0
113963 On ch=1 n=70 v=0
113963 On ch=1 n=77 v=0
114000 On ch=1 n=63 v=96
114000 On ch=1 n=75 v=96
114227 On ch=1 n=63 v=0
114227 On ch=1 n=75 v=0
114240 On ch=1 n=62 v=96
114240 On ch=1 n=74 v=96
114695 On ch=1 n=62 v=0
114695 On ch=1 n=74 v=0
114720 On ch=1 n=63 v=96
114720 On ch=1 n=75 v=96
114947 On ch=1 n=63 v=0
114947 On ch=1 n=75 v=0
114960 On ch=1 n=62 v=96
114960 On ch=1 n=74 v=96
115871 On ch=1 n=62 v=0
115871 On ch=1 n=74 v=0
115920 On ch=1 n=70 v=96
116147 On ch=1 n=70 v=0
116160 On ch=1 n=67 v=96
116160 On ch=1 n=70 v=96
116160 On ch=1 n=79 v=96
116843 On ch=1 n=67 v=0
116843 On ch=1 n=70 v=0
116843 On ch=1 n=79 v=0
116880 On ch=1 n=67 v=96
116880 On ch=1 n=70 v=96
116880 On ch=1 n=74 v=96
117107 On ch=1 n=67 v=0
117107 On ch=1 n=70 v=0
117107 On ch=1 n=74 v=0
117120 On ch=1 n=67 v=96
117120 On ch=1 n=70 v=96
117120 On ch=1 n=74 v=96
117803 On ch=1 n=67 v=0
117803 On ch=1 n=70 v=0
117803 On ch=1 n=74 v=0
117840 On ch=1 n=67 v=96
117840 On ch=1 n=70 v=96
118067 On ch=1 n=67 v=0
118067 On ch=1 n=70 v=0
118080 On ch=1 n=67 v=96
118080 On ch=1 n=70 v=96
118763 On ch=1 n=67 v=0
118763 On ch=1 n=70 v=0
118800 On ch=1 n=67 v=96
119027 On ch=1 n=67 v=0
119040 On ch=1 n=67 v=96
119040 On ch=1 n=70 v=96
119723 On ch=1 n=67 v=0
119723 On ch=1 n=70 v=0
119760 On ch=1 n=67 v=96
119760 On ch=1 n=74 v=96
119987 On ch=1 n=67 v=0
119987 On ch=1 n=74 v=0
120000 On ch=1 n=67 v=96
120000 On ch=1 n=75 v=96
120683 On ch=1 n=67 v=0
120683 On ch=1 n=75 v=0
120720 On ch=1 n=67 v=96
120720 On ch=1 n=74 v=96
120947 On ch=1 n=67 v=0
120947 On ch=1 n=74 v=0
120960 On ch=1 n=67 v=96
120960 On ch=1 n=72 v=96
121643 On ch=1 n=67 v=0
121643 On ch=1 n=72 v=0
121680 On ch=1 n=67 v=96
121680 On ch=1 n=70 v=96
121907 On ch=1 n=67 v=0
121907 On ch=1 n=70 v=0
121920 On ch=1 n=67 v=96
121920 On ch=1 n=72 v=96
122603 On ch=1 n=67 v=0
122603 On ch=1 n=72 v=0
122640 On ch=1 n=67 v=96
122640 On ch=1 n=75 v=96
122867 On ch=1 n=67 v=0
122867 On ch=1 n=75 v=0
122880 On ch=1 n=67 v=96
122880 On ch=1 n=74 v=96
123563 On ch=1 n=67 v=0
123563 On ch=1 n=74 v=0
123600 On ch=1 n=70 v=96
123827 On ch=1 n=70 v=0
123840 On ch=1 n=68 v=96
124751 On ch=1 n=68 v=0
124800 On ch=1 n=56 v=96
124800 On ch=1 n=60 v=96
124800 On ch=1 n=63 v=96
125483 On ch=1 n=56 v=0
125483 On ch=1 n=60 v=0
125483 On ch=1 n=63 v=0
125520 On ch=1 n=68 v=96
125520 On ch=1 n=80 v=96
125975 On ch=1 n=68 v=0
125975 On ch=1 n=80 v=0
126000 On ch=1 n=70 v=96
126000 On ch=1 n=82 v=96
126455 On ch=1 n=70 v=0
126455 On ch=1 n=82 v=0
126480 On ch=1 n=74 v=96
126480 On ch=1 n=86 v=96
126707 On ch=1 n=74 v=0
126707 On ch=1 n=86 v=0
126720 On ch=1 n=74 v=96
126720 On ch=1 n=86 v=96
127403 On ch=1 n=74 v=0
127403 On ch=1 n=86 v=0
127440 On ch=1 n=70 v=96
127440 On ch=1 n=82 v=96
127895 On ch=1 n=70 v=0
127895 On ch=1 n=82 v=0
127920 On ch=1 n=71 v=96
127920 On ch=1 n=75 v=96
127920 On ch=1 n=78 v=96
127920 On ch=1 n=83 v=96
128375 On ch=1 n=71 v=0
128375 On ch=1 n=75 v=0
128375 On ch=1 n=78 v=0
128375 On ch=1 n=83 v=0
128400 On ch=1 n=75 v=96
128400 On ch=1 n=78 v=96
128400 On ch=1 n=83 v=96
128400 On ch=1 n=87 v=96
128627 On ch=1 n=75 v=0
128627 On ch=1 n=78 v=0
128627 On ch=1 n=83 v=0
128627 On ch=1 n=87 v=0
128640 On ch=1 n=75 v=96
128640 On ch=1 n=78 v=96
128640 On ch=1 n=83 v=96
128640 On ch=1 n=87 v=96
129323 On ch=1 n=75 v=0
129323 On ch=1 n=78 v=0
129323 On ch=1 n=83 v=0
129323 On ch=1 n=87 v=0
129360 On ch=1 n=71 v=96
129360 On ch=1 n=83 v=96
129815 On ch=1 n=71 v=0
129815 On ch=1 n=83 v=0
129840 On ch=1 n=77 v=96
129840 On ch=1 n=82 v=96
129840 On ch=1 n=85 v=96
129953 On ch=1 n=77 v=0
129953 On ch=1 n=82 v=0
129953 On ch=1 n=85 v=0
129960 On ch=1 n=73 v=96
130073 On ch=1 n=73 v=0
130080 On ch=1 n=70 v=96
130193 On ch=1 n=70 v=0
130200 On ch=1 n=68 v=96
130313 On ch=1 n=68 v=0
130800 On ch=1 n=78 v=96
130800 On ch=1 n=90 v=96
131711 On ch=1 n=78 v=0
131711 On ch=1 n=90 v=0
131760 On ch=1 n=77 v=96
131760 On ch=1 n=89 v=96
131987 On ch=1 n=77 v=0
131987 On ch=1 n=89 v=0
132000 On ch=1 n=75 v=96
132000 On ch=1 n=87 v=96
132455 On ch=1 n=75 v=0
132455 On ch=1 n=87 v=0
132480 On ch=1 n=77 v=96
132480 On ch=1 n=89 v=96
132935 On ch=1 n=77 v=0
132935 On ch=1 n=89 v=0
132960 On ch=1 n=75 v=96
132960 On ch=1 n=87 v=96
133415 On ch=1 n=75 v=0
133415 On ch=1 n=87 v=0
133440 On ch=1 n=77 v=96
133440 On ch=1 n=89 v=96
133895 On ch=1 n=77 v=0
133895 On ch=1 n=89 v=0
133920 On ch=1 n=75 v=96
133920 On ch=1 n=87 v=96
134375 On ch=1 n=75 v=0
134375 On ch=1 n=87 v=0
134400 On ch=1 n=70 v=96
134400 On ch=1 n=82 v=96
134855 On ch=1 n=70 v=0
134855 On ch=1 n=82 v=0
134880 On ch=1 n=75 v=96
134880 On ch=1 n=87 v=96
135563 On ch=1 n=75 v=0
135563 On ch=1 n=87 v=0
135600 On ch=1 n=75 v=96
135600 On ch=1 n=80 v=96
135600 On ch=1 n=84 v=96
136511 On ch=1 n=75 v=0
136511 On ch=1 n=80 v=0
136511 On ch=1 n=84 v=0
136560 On ch=1 n=74 v=96
136560 On ch=1 n=86 v=96
137471 On ch=1 n=74 v=0
137471 On ch=1 n=86 v=0
137520 On ch=1 n=70 v=96
137520 On ch=1 n=79 v=96
137520 On ch=1 n=82 v=96
137747 On ch=1 n=70 v=0
137747 On ch=1 n=79 v=0
137747 On ch=1 n=82 v=0
137760 On ch=1 n=77 v=96
138215 On ch=1 n=77 v=0
138240 On ch=1 n=77 v=96
138240 On ch=1 n=80 v=96
138695 On ch=1 n=77 v=0
138695 On ch=1 n=80 v=0
138720 On ch=1 n=79 v=96
139403 On ch=1 n=79 v=0
139440 On ch=1 n=77 v=96
139440 On ch=1 n=89 v=96
139667 On ch=1 n=77 v=0
139667 On ch=1 n=89 v=0
139680 On ch=1 n=75 v=96
139680 On ch=1 n=87 v=96
140135 On ch=1 n=75 v=0
140135 On ch=1 n=87 v=0
140160 On ch=1 n=77 v=96
140160 On ch=1 n=89 v=96
140615 On ch=1 n=77 v=0
140615 On ch=1 n=89 v=0
140640 On ch=1 n=75 v=96
140640 On ch=1 n=87 v=96
141095 On ch=1 n=75 v=0
141095 On ch=1 n=87 v=0
141120 On ch=1 n=77 v=96
141120 On ch=1 n=89 v=96
141575 On ch=1 n=77 v=0
141575 On ch=1 n=89 v=0
141600 On ch=1 n=75 v=96
141600 On ch=1 n=87 v=96
142055 On ch=1 n=75 v=0
142055 On ch=1 n=87 v=0
142080 On ch=1 n=70 v=96
142080 On ch=1 n=82 v=96
142535 On ch=1 n=70 v=0
142535 On ch=1 n=82 v=0
142560 On ch=1 n=75 v=96
142560 On ch=1 n=87 v=96
143243 On ch=1 n=75 v=0
143243 On ch=1 n=87 v=0
143280 On ch=1 n=75 v=96
143280 On ch=1 n=80 v=96
143280 On ch=1 n=84 v=96
144191 On ch=1 n=75 v=0
144191 On ch=1 n=80 v=0
144191 On ch=1 n=84 v=0
144240 On ch=1 n=63 v=96
144467 On ch=1 n=63 v=0
144480 On ch=1 n=65 v=92
144935 On ch=1 n=65 v=0
144960 On ch=1 n=70 v=84
145643 On ch=1 n=70 v=0
145680 On ch=1 n=63 v=80
146135 On ch=1 n=63 v=0
146160 On ch=1 n=63 v=80
146615 On ch=1 n=63 v=0
146640 On ch=1 n=60 v=80
146867 On ch=1 n=60 v=0
146880 On ch=1 n=63 v=80
147335 On ch=1 n=63 v=0
147360 On ch=1 n=65 v=80
148043 On ch=1 n=65 v=0
148080 On ch=1 n=63 v=80
148307 On ch=1 n=63 v=0
148320 On ch=1 n=63 v=80
148547 On ch=1 n=63 v=0
148560 On ch=1 n=65 v=80
148787 On ch=1 n=65 v=0
148800 On ch=1 n=70 v=80
149483 On ch=1 n=70 v=0
149520 On ch=1 n=63 v=80
149975 On ch=1 n=63 v=0
150000 On ch=1 n=63 v=80
150455 On ch=1 n=63 v=0
150480 On ch=1 n=67 v=80
150707 On ch=1 n=67 v=0
150720 On ch=1 n=65 v=80
151175 On ch=1 n=65 v=0
151200 On ch=1 n=67 v=80
151427 On ch=1 n=67 v=0
151440 On ch=1 n=63 v=80
152123 On ch=1 n=63 v=0
152160 On ch=1 n=63 v=80
152387 On ch=1 n=63 v=0
152400 On ch=1 n=63 v=80
152627 On ch=1 n=63 v=0
152640 On ch=1 n=58 v=80
152867 On ch=1 n=58 v=0
152880 On ch=1 n=63 v=80
153107 On ch=1 n=63 v=0
153120 On ch=1 n=63 v=80
153347 On ch=1 n=63 v=0
153360 On ch=1 n=65 v=80
153587 On ch=1 n=65 v=0
153600 On ch=1 n=65 v=80
153827 On ch=1 n=65 v=0
153840 On ch=1 n=67 v=80
154067 On ch=1 n=67 v=0
154080 On ch=1 n=67 v=80
154307 On ch=1 n=67 v=0
154320 On ch=1 n=68 v=80
154547 On ch=1 n=68 v=0
154560 On ch=1 n=67 v=80
155015 On ch=1 n=67 v=0
155040 On ch=1 n=63 v=80
155951 On ch=1 n=63 v=0
156000 On ch=1 n=63 v=80
156227 On ch=1 n=63 v=0
156240 On ch=1 n=63 v=80
156467 On ch=1 n=63 v=0
156480 On ch=1 n=58 v=80
156707 On ch=1 n=58 v=0
156720 On ch=1 n=63 v=80
157175 On ch=1 n=63 v=0
157200 On ch=1 n=65 v=80
157427 On ch=1 n=65 v=0
157440 On ch=1 n=65 v=80
157667 On ch=1 n=65 v=0
157680 On ch=1 n=67 v=80
157907 On ch=1 n=67 v=0
157920 On ch=1 n=67 v=80
158147 On ch=1 n=67 v=0
158160 On ch=1 n=68 v=80
158387 On ch=1 n=68 v=0
158400 On ch=1 n=67 v=80
158855 On ch=1 n=67 v=0
158880 On ch=1 n=72 v=80
159107 On ch=1 n=72 v=0
159120 On ch=1 n=70 v=80
160031 On ch=1 n=70 v=0
160080 On ch=1 n=74 v=80
160535 On ch=1 n=74 v=0
160560 On ch=1 n=67 v=80
160560 On ch=1 n=70 v=80
161243 On ch=1 n=67 v=0
161243 On ch=1 n=70 v=0
161280 On ch=1 n=70 v=80
161507 On ch=1 n=70 v=0
161520 On ch=1 n=70 v=80
161975 On ch=1 n=70 v=0
162000 On ch=1 n=67 v=80
162227 On ch=1 n=67 v=0
162240 On ch=1 n=65 v=80
162695 On ch=1 n=65 v=0
162720 On ch=1 n=67 v=80
163745 On ch=1 n=67 v=0
163920 On ch=1 n=74 v=80
164375 On ch=1 n=74 v=0
164400 On ch=1 n=67 v=80
164400 On ch=1 n=70 v=80
165083 On ch=1 n=67 v=0
165083 On ch=1 n=70 v=0
165120 On ch=1 n=70 v=80
165347 On ch=1 n=70 v=0
165360 On ch=1 n=70 v=80
165815 On ch=1 n=70 v=0
165840 On ch=1 n=67 v=80
166067 On ch=1 n=67 v=0
166080 On ch=1 n=65 v=80
166535 On ch=1 n=65 v=0
166560 On ch=1 n=67 v=80
167243 On ch=1 n=67 v=0
167280 On ch=1 n=70 v=80
167507 On ch=1 n=70 v=0
167520 On ch=1 n=67 v=80
167975 On ch=1 n=67 v=0
168000 On ch=1 n=67 v=80
168000 On ch=1 n=70 v=80
168683 On ch=1 n=67 v=0
168683 On ch=1 n=70 v=0
168720 On ch=1 n=67 v=80
168720 On ch=1 n=72 v=80
169631 On ch=1 n=67 v=0
169631 On ch=1 n=72 v=0
169680 On ch=1 n=67 v=80
169907 On ch=1 n=67 v=0
169920 On ch=1 n=67 v=80
169920 On ch=1 n=70 v=80
170603 On ch=1 n=67 v=0
170603 On ch=1 n=70 v=0
170640 On ch=1 n=67 v=80
170640 On ch=1 n=72 v=80
171551 On ch=1 n=67 v=0
171551 On ch=1 n=72 v=0
171600 On ch=1 n=67 v=80
172055 On ch=1 n=67 v=0
172080 On ch=1 n=67 v=80
172080 On ch=1 n=75 v=80
172307 On ch=1 n=67 v=0
172307 On ch=1 n=75 v=0
172320 On ch=1 n=67 v=80
172320 On ch=1 n=74 v=80
172775 On ch=1 n=67 v=0
172775 On ch=1 n=74 v=0
172800 On ch=1 n=67 v=80
172800 On ch=1 n=70 v=80
173255 On ch=1 n=67 v=0
173255 On ch=1 n=70 v=0
173280 On ch=1 n=67 v=80
173507 On ch=1 n=67 v=0
173520 On ch=1 n=67 v=80
173520 On ch=1 n=72 v=80
175343 On ch=1 n=67 v=0
175343 On ch=1 n=72 v=0
175440 Tempo 400000
175440 On ch=1 n=72 v=80
175440 On ch=1 n=84 v=80
175895 On ch=1 n=72 v=0
175895 On ch=1 n=84 v=0
175920 Tempo 315789
175920 On ch=1 n=70 v=80
175920 On ch=1 n=82 v=80
176375 On ch=1 n=70 v=0
176375 On ch=1 n=82 v=0
176400 On ch=1 n=68 v=80
176400 On ch=1 n=80 v=80
176627 On ch=1 n=68 v=0
176627 On ch=1 n=80 v=0
176640 On ch=1 n=67 v=80
176640 On ch=1 n=79 v=80
177095 On ch=1 n=67 v=0
177095 On ch=1 n=79 v=0
177120 On ch=1 n=68 v=80
177120 On ch=1 n=80 v=80
177347 On ch=1 n=68 v=0
177347 On ch=1 n=80 v=0
177360 On ch=1 n=70 v=80
177360 On ch=1 n=82 v=80
178727 On ch=1 n=70 v=0
178727 On ch=1 n=82 v=0
178800 On ch=1 n=63 v=80
178800 On ch=1 n=75 v=80
179255 On ch=1 n=63 v=0
179255 On ch=1 n=75 v=0
179280 On ch=1 n=75 v=80
179280 On ch=1 n=87 v=80
179735 On ch=1 n=75 v=0
179735 On ch=1 n=87 v=0
179760 On ch=1 n=74 v=80
179760 On ch=1 n=86 v=80
180215 On ch=1 n=74 v=0
180215 On ch=1 n=86 v=0
180240 On ch=1 n=72 v=80
180240 On ch=1 n=84 v=80
180467 On ch=1 n=72 v=0
180467 On ch=1 n=84 v=0
180480 On ch=1 n=70 v=80
180480 On ch=1 n=82 v=80
180935 On ch=1 n=70 v=0
180935 On ch=1 n=82 v=0
180960 On ch=1 n=67 v=80
180960 On ch=1 n=79 v=80
181187 On ch=1 n=67 v=0
181187 On ch=1 n=79 v=0
181200 On ch=1 n=70 v=80
181200 On ch=1 n=82 v=80
182567 On ch=1 n=70 v=0
182567 On ch=1 n=82 v=0
182640 On ch=1 n=63 v=80
182640 On ch=1 n=75 v=80
183095 On ch=1 n=63 v=0
183095 On ch=1 n=75 v=0
183120 On ch=1 n=72 v=80
183120 On ch=1 n=84 v=80
183575 On ch=1 n=72 v=0
183575 On ch=1 n=84 v=0
183600 On ch=1 n=70 v=80
183600 On ch=1 n=82 v=80
184055 On ch=1 n=70 v=0
184055 On ch=1 n=82 v=0
184080 On ch=1 n=68 v=80
184080 On ch=1 n=80 v=80
184307 On ch=1 n=68 v=0
184307 On ch=1 n=80 v=0
184320 On ch=1 n=67 v=80
184320 On ch=1 n=79 v=80
184775 On ch=1 n=67 v=0
184775 On ch=1 n=79 v=0
184800 On ch=1 n=68 v=80
184800 On ch=1 n=80 v=80
185027 On ch=1 n=68 v=0
185027 On ch=1 n=80 v=0
185040 On ch=1 n=70 v=80
185040 On ch=1 n=82 v=80
186407 On ch=1 n=70 v=0
186407 On ch=1 n=82 v=0
186480 On ch=1 n=67 v=80
186480 On ch=1 n=79 v=80
186935 On ch=1 n=67 v=0
186935 On ch=1 n=79 v=0
186960 On ch=1 n=68 v=80
186960 On ch=1 n=80 v=80
187415 On ch=1 n=68 v=0
187415 On ch=1 n=80 v=0
187440 On ch=1 n=70 v=80
187440 On ch=1 n=82 v=80
187895 On ch=1 n=70 v=0
187895 On ch=1 n=82 v=0
187920 On ch=1 n=67 v=80
187920 On ch=1 n=79 v=80
188147 On ch=1 n=67 v=0
188147 On ch=1 n=79 v=0
188160 On ch=1 n=70 v=80
188160 On ch=1 n=82 v=80
188615 On ch=1 n=70 v=0
188615 On ch=1 n=82 v=0
188640 On ch=1 n=70 v=80
188640 On ch=1 n=82 v=80
188867 On ch=1 n=70 v=0
188867 On ch=1 n=82 v=0
188880 On ch=1 n=71 v=80
188880 On ch=1 n=83 v=80
189791 On ch=1 n=71 v=0
189791 On ch=1 n=83 v=0
189840 On ch=1 n=74 v=80
189840 On ch=1 n=79 v=80
189870 On ch=1 n=83 v=80
189885 On ch=1 n=86 v=80
190182 On ch=1 n=83 v=0
190183 On ch=1 n=86 v=0
190295 On ch=1 n=74 v=0
190295 On ch=1 n=79 v=0
190320 On ch=1 n=72 v=80
190320 On ch=1 n=84 v=80
190547 On ch=1 n=72 v=0
190547 On ch=1 n=84 v=0
190560 On ch=1 n=74 v=80
190560 On ch=1 n=86 v=80
191015 On ch=1 n=74 v=0
191015 On ch=1 n=86 v=0
191040 On ch=1 n=75 v=80
191040 On ch=1 n=80 v=80
191040 On ch=1 n=87 v=80
191723 On ch=1 n=75 v=0
191723 On ch=1 n=80 v=0
191723 On ch=1 n=87 v=0
191760 On ch=1 n=74 v=80
191760 On ch=1 n=86 v=80
191987 On ch=1 n=74 v=0
191987 On ch=1 n=86 v=0
192000 On ch=1 n=75 v=80
192000 On ch=1 n=80 v=80
192000 On ch=1 n=87 v=80
192683 On ch=1 n=75 v=0
192683 On ch=1 n=80 v=0
192683 On ch=1 n=87 v=0
192720 On ch=1 n=74 v=80
192720 On ch=1 n=86 v=80
192947 On ch=1 n=74 v=0
192947 On ch=1 n=86 v=0
192960 On ch=1 n=72 v=80
192960 On ch=1 n=84 v=80
193415 On ch=1 n=72 v=0
193415 On ch=1 n=84 v=0
193440 On ch=1 n=70 v=80
193440 On ch=1 n=82 v=80
193667 On ch=1 n=70 v=0
193667 On ch=1 n=82 v=0
193680 On ch=1 n=72 v=80
193680 On ch=1 n=84 v=80
194591 On ch=1 n=72 v=0
194591 On ch=1 n=84 v=0
194640 On ch=1 n=75 v=80
194640 On ch=1 n=87 v=80
194867 On ch=1 n=75 v=0
194867 On ch=1 n=87 v=0
194880 On ch=1 n=77 v=80
194880 On ch=1 n=82 v=80
194880 On ch=1 n=89 v=80
195563 On ch=1 n=77 v=0
195563 On ch=1 n=82 v=0
195563 On ch=1 n=89 v=0
195600 On ch=1 n=75 v=80
195600 On ch=1 n=87 v=80
195827 On ch=1 n=75 v=0
195827 On ch=1 n=87 v=0
195840 On ch=1 n=77 v=80
195840 On ch=1 n=82 v=80
195840 On ch=1 n=89 v=80
196523 On ch=1 n=77 v=0
196523 On ch=1 n=82 v=0
196523 On ch=1 n=89 v=0
196560 On ch=1 n=75 v=80
196560 On ch=1 n=87 v=80
196787 On ch=1 n=75 v=0
196787 On ch=1 n=87 v=0
196800 On ch=1 n=74 v=80
196800 On ch=1 n=82 v=80
196800 On ch=1 n=86 v=80
197255 On ch=1 n=74 v=0
197255 On ch=1 n=82 v=0
197255 On ch=1 n=86 v=0
197280 On ch=1 n=72 v=80
197280 On ch=1 n=84 v=80
197507 On ch=1 n=72 v=0
197507 On ch=1 n=84 v=0
197520 On ch=1 n=74 v=80
197520 On ch=1 n=82 v=80
197520 On ch=1 n=86 v=80
198431 On ch=1 n=74 v=0
198431 On ch=1 n=82 v=0
198431 On ch=1 n=86 v=0
198480 On ch=1 n=70 v=80
198480 On ch=1 n=82 v=80
198707 On ch=1 n=70 v=0
198707 On ch=1 n=82 v=0
198720 On ch=1 n=79 v=80
198720 On ch=1 n=86 v=80
198720 On ch=1 n=91 v=80
199403 On ch=1 n=79 v=0
199403 On ch=1 n=86 v=0
199403 On ch=1 n=91 v=0
199440 On ch=1 n=79 v=80
199440 On ch=1 n=82 v=80
199440 On ch=1 n=86 v=80
199667 On ch=1 n=79 v=0
199667 On ch=1 n=82 v=0
199667 On ch=1 n=86 v=0
199680 On ch=1 n=79 v=80
199680 On ch=1 n=82 v=80
199680 On ch=1 n=86 v=80
200363 On ch=1 n=79 v=0
200363 On ch=1 n=82 v=0
200363 On ch=1 n=86 v=0
200400 On ch=1 n=79 v=80
200400 On ch=1 n=82 v=80
200627 On ch=1 n=79 v=0
200627 On ch=1 n=82 v=0
200640 On ch=1 n=79 v=80
200640 On ch=1 n=82 v=80
201323 On ch=1 n=79 v=0
201323 On ch=1 n=82 v=0
201360 On ch=1 n=79 v=80
201587 On ch=1 n=79 v=0
201600 On ch=1 n=79 v=80
201600 On ch=1 n=82 v=80
202283 On ch=1 n=79 v=0
202283 On ch=1 n=82 v=0
202320 On ch=1 n=79 v=80
202320 On ch=1 n=86 v=80
202547 On ch=1 n=79 v=0
202547 On ch=1 n=86 v=0
202560 On ch=1 n=79 v=80
202560 On ch=1 n=87 v=80
203243 On ch=1 n=79 v=0
203243 On ch=1 n=87 v=0
203280 On ch=1 n=79 v=80
203280 On ch=1 n=86 v=80
203507 On ch=1 n=79 v=0
203507 On ch=1 n=86 v=0
203520 On ch=1 n=79 v=80
203520 On ch=1 n=84 v=80
204203 On ch=1 n=79 v=0
204203 On ch=1 n=84 v=0
204240 On ch=1 n=79 v=80
204240 On ch=1 n=82 v=80
204467 On ch=1 n=79 v=0
204467 On ch=1 n=82 v=0
204480 On ch=1 n=79 v=80
204480 On ch=1 n=84 v=80
205619 On ch=1 n=79 v=0
205619 On ch=1 n=84 v=0
205680 On ch=1 n=72 v=80
205680 On ch=1 n=84 v=80
205907 On ch=1 n=72 v=0
205907 On ch=1 n=84 v=0
205920 On ch=1 n=74 v=80
205920 On ch=1 n=86 v=80
206375 On ch=1 n=74 v=0
206375 On ch=1 n=86 v=0
206400 On ch=1 n=75 v=80
206400 On ch=1 n=80 v=80
206400 On ch=1 n=87 v=80
207083 On ch=1 n=75 v=0
207083 On ch=1 n=80 v=0
207083 On ch=1 n=87 v=0
207120 On ch=1 n=74 v=80
207120 On ch=1 n=86 v=80
207347 On ch=1 n=74 v=0
207347 On ch=1 n=86 v=0
207360 On ch=1 n=75 v=80
207360 On ch=1 n=80 v=80
207360 On ch=1 n=87 v=80
208043 On ch=1 n=75 v=0
208043 On ch=1 n=80 v=0
208043 On ch=1 n=87 v=0
208080 On ch=1 n=74 v=80
208080 On ch=1 n=86 v=80
208307 On ch=1 n=74 v=0
208307 On ch=1 n=86 v=0
208320 On ch=1 n=72 v=80
208320 On ch=1 n=84 v=80
208775 On ch=1 n=72 v=0
208775 On ch=1 n=84 v=0
208800 On ch=1 n=70 v=80
208800 On ch=1 n=82 v=80
209027 On ch=1 n=70 v=0
209027 On ch=1 n=82 v=0
209040 On ch=1 n=72 v=80
209040 On ch=1 n=84 v=80
209951 On ch=1 n=72 v=0
209951 On ch=1 n=84 v=0
210000 On ch=1 n=75 v=80
210000 On ch=1 n=87 v=80
210227 On ch=1 n=75 v=0
210227 On ch=1 n=87 v=0
210240 On ch=1 n=77 v=80
210240 On ch=1 n=82 v=80
210240 On ch=1 n=89 v=80
210923 On ch=1 n=77 v=0
210923 On ch=1 n=82 v=0
210923 On ch=1 n=89 v=0
210960 On ch=1 n=75 v=80
210960 On ch=1 n=87 v=80
211187 On ch=1 n=75 v=0
211187 On ch=1 n=87 v=0
211200 On ch=1 n=77 v=80
211200 On ch=1 n=82 v=80
211200 On ch=1 n=89 v=80
211883 On ch=1 n=77 v=0
211883 On ch=1 n=82 v=0
211883 On ch=1 n=89 v=0
211920 On ch=1 n=75 v=80
211920 On ch=1 n=87 v=80
212147 On ch=1 n=75 v=0
212147 On ch=1 n=87 v=0
212160 On ch=1 n=74 v=80
212160 On ch=1 n=82 v=80
212160 On ch=1 n=86 v=80
212615 On ch=1 n=74 v=0
212615 On ch=1 n=82 v=0
212615 On ch=1 n=86 v=0
212640 On ch=1 n=75 v=80
212640 On ch=1 n=87 v=80
212867 On ch=1 n=75 v=0
212867 On ch=1 n=87 v=0
212880 On ch=1 n=74 v=80
212880 On ch=1 n=82 v=80
212880 On ch=1 n=86 v=80
213791 On ch=1 n=74 v=0
213791 On ch=1 n=82 v=0
213791 On ch=1 n=86 v=0
213840 On ch=1 n=70 v=80
213840 On ch=1 n=82 v=80
214067 On ch=1 n=70 v=0
214067 On ch=1 n=82 v=0
214080 On ch=1 n=79 v=80
214080 On ch=1 n=86 v=80
214080 On ch=1 n=91 v=80
214763 On ch=1 n=79 v=0
214763 On ch=1 n=86 v=0
214763 On ch=1 n=91 v=0
214800 On ch=1 n=79 v=80
214800 On ch=1 n=82 v=80
214800 On ch=1 n=86 v=80
215027 On ch=1 n=79 v=0
215027 On ch=1 n=82 v=0
215027 On ch=1 n=86 v=0
215040 On ch=1 n=79 v=80
215040 On ch=1 n=82 v=80
215040 On ch=1 n=86 v=80
215723 On ch=1 n=79 v=0
215723 On ch=1 n=82 v=0
215723 On ch=1 n=86 v=0
215760 On ch=1 n=79 v=80
215760 On ch=1 n=82 v=80
215987 On ch=1 n=79 v=0
215987 On ch=1 n=82 v=0
216000 On ch=1 n=79 v=80
216000 On ch=1 n=82 v=80
216683 On ch=1 n=79 v=0
216683 On ch=1 n=82 v=0
216720 On ch=1 n=79 v=80
216947 On ch=1 n=79 v=0
216960 On ch=1 n=79 v=80
216960 On ch=1 n=82 v=80
217643 On ch=1 n=79 v=0
217643 On ch=1 n=82 v=0
217680 On ch=1 n=79 v=80
217680 On ch=1 n=86 v=80
217907 On ch=1 n=79 v=0
217907 On ch=1 n=86 v=0
217920 On ch=1 n=79 v=80
217920 On ch=1 n=87 v=80
218603 On ch=1 n=79 v=0
218603 On ch=1 n=87 v=0
218640 On ch=1 n=79 v=80
218640 On ch=1 n=86 v=80
218867 On ch=1 n=79 v=0
218867 On ch=1 n=86 v=0
218880 On ch=1 n=79 v=80
218880 On ch=1 n=84 v=80
219563 On ch=1 n=79 v=0
219563 On ch=1 n=84 v=0
219600 On ch=1 n=79 v=80
219600 On ch=1 n=82 v=80
219827 On ch=1 n=79 v=0
219827 On ch=1 n=82 v=0
219840 On ch=1 n=79 v=80
219840 On ch=1 n=84 v=80
220523 On ch=1 n=79 v=0
220523 On ch=1 n=84 v=0
220560 On ch=1 n=61 v=80
220560 On ch=1 n=65 v=80
220560 On ch=1 n=68 v=80
221243 On ch=1 n=61 v=0
221243 On ch=1 n=65 v=0
221243 On ch=1 n=68 v=0
221280 On ch=1 n=61 v=80
221280 On ch=1 n=65 v=80
221280 On ch=1 n=68 v=80
221963 On ch=1 n=61 v=0
221963 On ch=1 n=65 v=0
221963 On ch=1 n=68 v=0
222000 TimeSig 9/8 24 8
222000 On ch=1 n=61 v=80
222000 On ch=1 n=65 v=80
222000 On ch=1 n=68 v=80
222683 On ch=1 n=61 v=0
222683 On ch=1 n=65 v=0
222683 On ch=1 n=68 v=0
222720 On ch=1 n=61 v=80
222720 On ch=1 n=65 v=80
222720 On ch=1 n=68 v=80
223403 On ch=1 n=61 v=0
223403 On ch=1 n=65 v=0
223403 On ch=1 n=68 v=0
223440 On ch=1 n=61 v=80
223440 On ch=1 n=65 v=80
223440 On ch=1 n=68 v=80
224123 On ch=1 n=61 v=0
224123 On ch=1 n=65 v=0
224123 On ch=1 n=68 v=0
224160 TimeSig 4/4 24 8
224160 KeySig 250 major
225120 On ch=1 n=66 v=80
225347 On ch=1 n=66 v=0
225360 On ch=1 n=68 v=80
225815 On ch=1 n=68 v=0
225840 On ch=1 n=73 v=80
226523 On ch=1 n=73 v=0
226560 On ch=1 n=66 v=80
226787 On ch=1 n=66 v=0
226800 On ch=1 n=66 v=80
227483 On ch=1 n=66 v=0
227520 On ch=1 n=68 v=80
227747 On ch=1 n=68 v=0
227760 On ch=1 n=68 v=80
227987 On ch=1 n=68 v=0
228000 On ch=1 n=59 v=80
228911 On ch=1 n=59 v=0
228960 On ch=1 n=66 v=80
229187 On ch=1 n=66 v=0
229200 On ch=1 n=68 v=80
229655 On ch=1 n=68 v=0
229680 On ch=1 n=73 v=80
230363 On ch=1 n=73 v=0
230400 On ch=1 n=66 v=80
230855 On ch=1 n=66 v=0
230880 On ch=1 n=66 v=80
231335 On ch=1 n=66 v=0
231360 On ch=1 n=70 v=80
231587 On ch=1 n=70 v=0
231600 On ch=1 n=68 v=80
231827 On ch=1 n=68 v=0
231840 On ch=1 n=61 v=80
231840 On ch=1 n=65 v=80
232067 On ch=1 n=61 v=0
232067 On ch=1 n=65 v=0
232080 On ch=1 n=70 v=80
232307 On ch=1 n=70 v=0
232320 On ch=1 n=66 v=80
232775 On ch=1 n=66 v=0
232800 On ch=1 n=66 v=80
233027 On ch=1 n=66 v=0
233040 On ch=1 n=68 v=80
233495 On ch=1 n=68 v=0
233520 On ch=1 n=66 v=80
233520 On ch=1 n=73 v=80
234203 On ch=1 n=66 v=0
234203 On ch=1 n=73 v=0
234240 On ch=1 n=66 v=80
234467 On ch=1 n=66 v=0
234480 On ch=1 n=66 v=80
235163 On ch=1 n=66 v=0
235200 On ch=1 n=68 v=80
235427 On ch=1 n=68 v=0
235440 On ch=1 n=68 v=80
235667 On ch=1 n=68 v=0
235680 On ch=1 n=60 v=80
235680 On ch=1 n=63 v=80
236591 On ch=1 n=60 v=0
236591 On ch=1 n=63 v=0
236640 On ch=1 n=70 v=80
236867 On ch=1 n=70 v=0
236880 On ch=1 n=68 v=80
237335 On ch=1 n=68 v=0
237360 On ch=1 n=66 v=80
237815 On ch=1 n=66 v=0
237840 On ch=1 n=70 v=80
238295 On ch=1 n=70 v=0
238320 On ch=1 n=71 v=80
238547 On ch=1 n=71 v=0
238560 On ch=1 n=70 v=80
239015 On ch=1 n=70 v=0
239040 On ch=1 n=66 v=80
239495 On ch=1 n=66 v=0
239520 On ch=1 n=54 v=80
239520 On ch=1 n=58 v=80
239520 On ch=1 n=61 v=80
239520 On ch=1 n=66 v=80
240431 On ch=1 n=54 v=0
240431 On ch=1 n=58 v=0
240431 On ch=1 n=61 v=0
240431 On ch=1 n=66 v=0
240480 On ch=1 n=66 v=80
240480 On ch=1 n=78 v=80
240707 On ch=1 n=66 v=0
240707 On ch=1 n=78 v=0
240720 On ch=1 n=68 v=80
240720 On ch=1 n=80 v=80
241175 On ch=1 n=68 v=0
241175 On ch=1 n=80 v=0
241200 On ch=1 n=73 v=80
241200 On ch=1 n=85 v=80
241883 On ch=1 n=73 v=0
241883 On ch=1 n=85 v=0
241920 On ch=1 n=66 v=80
241920 On ch=1 n=78 v=80
242147 On ch=1 n=66 v=0
242147 On ch=1 n=78 v=0
242160 On ch=1 n=66 v=80
242160 On ch=1 n=78 v=80
242843 On ch=1 n=66 v=0
242843 On ch=1 n=78 v=0
242880 On ch=1 n=68 v=80
242880 On ch=1 n=80 v=80
243107 On ch=1 n=68 v=0
243107 On ch=1 n=80 v=0
243120 On ch=1 n=68 v=80
243120 On ch=1 n=80 v=80
243347 On ch=1 n=68 v=0
243347 On ch=1 n=80 v=0
243360 On ch=1 n=56 v=80
244271 On ch=1 n=56 v=0
244320 On ch=1 n=66 v=80
244320 On ch=1 n=78 v=80
244547 On ch=1 n=66 v=0
244547 On ch=1 n=78 v=0
244560 On ch=1 n=68 v=80
244560 On ch=1 n=80 v=80
245015 On ch=1 n=68 v=0
245015 On ch=1 n=80 v=0
245040 On ch=1 n=73 v=80
245040 On ch=1 n=85 v=80
245723 On ch=1 n=73 v=0
245723 On ch=1 n=85 v=0
245760 On ch=1 n=66 v=80
245760 On ch=1 n=78 v=80
246215 On ch=1 n=66 v=0
246215 On ch=1 n=78 v=0
246240 On ch=1 n=78 v=96
246240 On ch=1 n=90 v=96
246695 On ch=1 n=78 v=0
246695 On ch=1 n=90 v=0
246720 On ch=1 n=77 v=80
246720 On ch=1 n=89 v=80
246947 On ch=1 n=77 v=0
246947 On ch=1 n=89 v=0
246960 On ch=1 n=73 v=80
246960 On ch=1 n=85 v=80
247415 On ch=1 n=73 v=0
247415 On ch=1 n=85 v=0
247440 On ch=1 n=70 v=80
247440 On ch=1 n=82 v=80
248123 On ch=1 n=70 v=0
248123 On ch=1 n=82 v=0
248160 On ch=1 n=66 v=80
248160 On ch=1 n=78 v=80
248387 On ch=1 n=66 v=0
248387 On ch=1 n=78 v=0
248400 On ch=1 n=68 v=80
248400 On ch=1 n=80 v=80
248855 On ch=1 n=68 v=0
248855 On ch=1 n=80 v=0
248880 On ch=1 n=73 v=80
248880 On ch=1 n=85 v=80
249563 On ch=1 n=73 v=0
249563 On ch=1 n=85 v=0
249600 On ch=1 n=70 v=80
249600 On ch=1 n=82 v=80
249827 On ch=1 n=70 v=0
249827 On ch=1 n=82 v=0
249840 On ch=1 n=73 v=80
249840 On ch=1 n=85 v=80
250523 On ch=1 n=73 v=0
250523 On ch=1 n=85 v=0
250560 On ch=1 n=70 v=80
250560 On ch=1 n=82 v=80
250787 On ch=1 n=70 v=0
250787 On ch=1 n=82 v=0
250800 On ch=1 n=75 v=80
250800 On ch=1 n=87 v=80
251711 On ch=1 n=75 v=0
251711 On ch=1 n=87 v=0
251760 On ch=1 n=77 v=80
251760 On ch=1 n=89 v=80
252215 On ch=1 n=77 v=0
252215 On ch=1 n=89 v=0
252240 On ch=1 n=75 v=80
252240 On ch=1 n=87 v=80
252695 On ch=1 n=75 v=0
252695 On ch=1 n=87 v=0
252720 On ch=1 n=77 v=80
252720 On ch=1 n=82 v=80
252720 On ch=1 n=89 v=80
253175 On ch=1 n=77 v=0
253175 On ch=1 n=82 v=0
253175 On ch=1 n=89 v=0
253200 On ch=1 n=75 v=80
253200 On ch=1 n=87 v=80
253655 On ch=1 n=75 v=0
253655 On ch=1 n=87 v=0
253680 On ch=1 n=70 v=80
253680 On ch=1 n=82 v=80
254135 On ch=1 n=70 v=0
254135 On ch=1 n=82 v=0
254160 On ch=1 n=75 v=80
254160 On ch=1 n=87 v=80
254843 On ch=1 n=75 v=0
254843 On ch=1 n=87 v=0
254880 KeySig 253 major
254880 On ch=1 n=55 v=80
254880 On ch=1 n=58 v=80
255791 On ch=1 n=55 v=0
255791 On ch=1 n=58 v=0
255840 On ch=1 n=60 v=80
255840 On ch=1 n=63 v=80
256067 On ch=1 n=60 v=0
256067 On ch=1 n=63 v=0
256080 On ch=1 n=60 v=80
256080 On ch=1 n=65 v=80
256307 On ch=1 n=60 v=0
256307 On ch=1 n=65 v=0
256320 On ch=1 n=60 v=80
256320 On ch=1 n=63 v=80
256547 On ch=1 n=60 v=0
256547 On ch=1 n=63 v=0
256560 On ch=1 n=60 v=80
256560 On ch=1 n=65 v=80
257015 On ch=1 n=60 v=0
257015 On ch=1 n=65 v=0
257040 On ch=1 n=60 v=80
257040 On ch=1 n=65 v=80
257267 On ch=1 n=60 v=0
257267 On ch=1 n=65 v=0
257280 On ch=1 n=60 v=80
257280 On ch=1 n=63 v=80
257735 On ch=1 n=60 v=0
257735 On ch=1 n=63 v=0
257760 On ch=1 n=60 v=80
257987 On ch=1 n=60 v=0
258000 On ch=1 n=63 v=80
258227 On ch=1 n=63 v=0
258240 On ch=1 n=65 v=80
258467 On ch=1 n=65 v=0
258480 On ch=1 n=67 v=80
258707 On ch=1 n=67 v=0
258720 On ch=1 n=65 v=80
259175 On ch=1 n=65 v=0
259200 On ch=1 n=67 v=80
259655 On ch=1 n=67 v=0
259680 On ch=1 n=65 v=80
259907 On ch=1 n=65 v=0
259920 On ch=1 n=63 v=80
260147 On ch=1 n=63 v=0
260160 On ch=1 n=63 v=80
260387 On ch=1 n=63 v=0
260400 On ch=1 n=65 v=80
260855 On ch=1 n=65 v=0
260880 On ch=1 n=63 v=80
261107 On ch=1 n=63 v=0
261120 On ch=1 n=65 v=80
261347 On ch=1 n=65 v=0
261360 On ch=1 n=67 v=80
261815 On ch=1 n=67 v=0
261840 On ch=1 n=65 v=80
262067 On ch=1 n=65 v=0
262080 On ch=1 n=63 v=80
262307 On ch=1 n=63 v=0
262320 On ch=1 n=60 v=80
262547 On ch=1 n=60 v=0
262560 On ch=1 n=53 v=80
262787 On ch=1 n=53 v=0
262800 On ch=1 n=55 v=80
263027 On ch=1 n=55 v=0
263040 On ch=1 n=58 v=80
263267 On ch=1 n=58 v=0
263280 On ch=1 n=60 v=80
263507 On ch=1 n=60 v=0
263520 On ch=1 n=62 v=80
263747 On ch=1 n=62 v=0
263760 On ch=1 n=63 v=80
263987 On ch=1 n=63 v=0
264000 On ch=1 n=62 v=80
264227 On ch=1 n=62 v=0
264240 On ch=1 n=60 v=80
264695 On ch=1 n=60 v=0
264720 On ch=1 n=60 v=80
264947 On ch=1 n=60 v=0
264960 On ch=1 n=63 v=80
265187 On ch=1 n=63 v=0
265200 On ch=1 n=65 v=80
265427 On ch=1 n=65 v=0
265440 On ch=1 n=67 v=80
265667 On ch=1 n=67 v=0
265680 On ch=1 n=68 v=80
265907 On ch=1 n=68 v=0
265920 On ch=1 n=67 v=80
266147 On ch=1 n=67 v=0
266160 On ch=1 n=65 v=80
266387 On ch=1 n=65 v=0
266640 On ch=1 n=60 v=80
266867 On ch=1 n=60 v=0
266880 On ch=1 n=67 v=80
267107 On ch=1 n=67 v=0
267120 On ch=1 n=65 v=80
267347 On ch=1 n=65 v=0
267360 On ch=1 n=70 v=80
267815 On ch=1 n=70 v=0
267840 On ch=1 n=70 v=80
268067 On ch=1 n=70 v=0
268080 On ch=1 n=60 v=80
268307 On ch=1 n=60 v=0
268320 On ch=1 n=67 v=80
268547 On ch=1 n=67 v=0
268560 On ch=1 n=65 v=80
268787 On ch=1 n=65 v=0
268800 On ch=1 n=72 v=80
269255 On ch=1 n=72 v=0
269280 On ch=1 n=72 v=80
269507 On ch=1 n=72 v=0
269520 On ch=1 n=60 v=80
269747 On ch=1 n=60 v=0
269760 On ch=1 n=67 v=80
269987 On ch=1 n=67 v=0
270000 On ch=1 n=65 v=80
270227 On ch=1 n=65 v=0
270240 On ch=1 n=74 v=80
270695 On ch=1 n=74 v=0
270720 On ch=1 n=74 v=80
270947 On ch=1 n=74 v=0
270960 On ch=1 n=67 v=80
271187 On ch=1 n=67 v=0
271200 On ch=1 n=70 v=80
271427 On ch=1 n=70 v=0
271440 On ch=1 n=72 v=80
271667 On ch=1 n=72 v=0
271680 On ch=1 n=77 v=80
272135 On ch=1 n=77 v=0
272160 On ch=1 n=77 v=80
272387 On ch=1 n=77 v=0
272400 On ch=1 n=67 v=80
272627 On ch=1 n=67 v=0
272640 On ch=1 n=70 v=80
272867 On ch=1 n=70 v=0
272880 On ch=1 n=72 v=80
273107 On ch=1 n=72 v=0
273120 On ch=1 n=77 v=80
273347 On ch=1 n=77 v=0
273360 On ch=1 n=79 v=80
273587 On ch=1 n=79 v=0
273600 On ch=1 n=79 v=80
273827 On ch=1 n=79 v=0
273840 On ch=1 n=77 v=80
274067 On ch=1 n=77 v=0
274080 On ch=1 n=79 v=80
274307 On ch=1 n=79 v=0
274320 On ch=1 n=80 v=80
274547 On ch=1 n=80 v=0
274560 On ch=1 n=79 v=80
274787 On ch=1 n=79 v=0
274800 On ch=1 n=77 v=80
275255 On ch=1 n=77 v=0
275280 On ch=1 n=75 v=80
275735 On ch=1 n=75 v=0
275760 On ch=1 n=77 v=80
276215 On ch=1 n=77 v=0
276240 On ch=1 n=70 v=80
276695 On ch=1 n=70 v=0
276720 On ch=1 n=82 v=80
276947 On ch=1 n=82 v=0
276960 On ch=1 n=82 v=80
277187 On ch=1 n=82 v=0
277200 On ch=1 n=77 v=80
277427 On ch=1 n=77 v=0
277440 On ch=1 n=77 v=80
277895 On ch=1 n=77 v=0
277920 On ch=1 n=58 v=80
278375 On ch=1 n=58 v=0
278400 On ch=1 n=60 v=80
278855 On ch=1 n=60 v=0
278880 On ch=1 n=60 v=80
278880 On ch=1 n=63 v=80
279107 On ch=1 n=60 v=0
279107 On ch=1 n=63 v=0
279120 On ch=1 n=60 v=80
279120 On ch=1 n=65 v=80
279347 On ch=1 n=60 v=0
279347 On ch=1 n=65 v=0
279360 On ch=1 n=60 v=80
279360 On ch=1 n=63 v=80
279587 On ch=1 n=60 v=0
279587 On ch=1 n=63 v=0
279600 On ch=1 n=60 v=80
279600 On ch=1 n=65 v=80
280055 On ch=1 n=60 v=0
280055 On ch=1 n=65 v=0
280080 On ch=1 n=60 v=80
280080 On ch=1 n=65 v=80
280307 On ch=1 n=60 v=0
280307 On ch=1 n=65 v=0
280320 On ch=1 n=60 v=80
280320 On ch=1 n=63 v=80
280775 On ch=1 n=60 v=0
280775 On ch=1 n=63 v=0
280800 On ch=1 n=60 v=80
281027 On ch=1 n=60 v=0
281040 On ch=1 n=63 v=80
281267 On ch=1 n=63 v=0
281280 On ch=1 n=65 v=80
281507 On ch=1 n=65 v=0
281520 On ch=1 n=67 v=80
281747 On ch=1 n=67 v=0
281760 On ch=1 n=65 v=80
282215 On ch=1 n=65 v=0
282240 On ch=1 n=67 v=80
282695 On ch=1 n=67 v=0
282720 On ch=1 n=65 v=80
282947 On ch=1 n=65 v=0
282960 On ch=1 n=63 v=80
283187 On ch=1 n=63 v=0
283200 On ch=1 n=63 v=80
283427 On ch=1 n=63 v=0
283440 On ch=1 n=65 v=80
283895 On ch=1 n=65 v=0
283920 On ch=1 n=63 v=80
284147 On ch=1 n=63 v=0
284160 On ch=1 n=65 v=80
284387 On ch=1 n=65 v=0
284400 On ch=1 n=67 v=80
284627 On ch=1 n=67 v=0
284640 On ch=1 n=72 v=80
284640 On ch=1 n=84 v=80
285551 On ch=1 n=72 v=0
285551 On ch=1 n=84 v=0
285600 On ch=1 n=70 v=80
285600 On ch=1 n=82 v=80
286055 On ch=1 n=70 v=0
286055 On ch=1 n=82 v=0
286080 On ch=1 n=68 v=80
286080 On ch=1 n=80 v=80
286307 On ch=1 n=68 v=0
286307 On ch=1 n=80 v=0
286320 On ch=1 n=67 v=80
286320 On ch=1 n=79 v=80
286775 On ch=1 n=67 v=0
286775 On ch=1 n=79 v=0
286800 On ch=1 n=68 v=80
286800 On ch=1 n=80 v=80
287027 On ch=1 n=68 v=0
287027 On ch=1 n=80 v=0
287040 On ch=1 n=70 v=80
287040 On ch=1 n=82 v=80
288407 On ch=1 n=70 v=0
288407 On ch=1 n=82 v=0
288480 On ch=1 n=63 v=80
288480 On ch=1 n=75 v=80
288935 On ch=1 n=63 v=0
288935 On ch=1 n=75 v=0
288960 On ch=1 n=75 v=80
288960 On ch=1 n=87 v=80
289415 On ch=1 n=75 v=0
289415 On ch=1 n=87 v=0
289440 On ch=1 n=74 v=80
289440 On ch=1 n=86 v=80
289895 On ch=1 n=74 v=0
289895 On ch=1 n=86 v=0
289920 On ch=1 n=72 v=80
289920 On ch=1 n=84 v=80
290147 On ch=1 n=72 v=0
290147 On ch=1 n=84 v=0
290160 On ch=1 n=70 v=80
290160 On ch=1 n=82 v=80
290615 On ch=1 n=70 v=0
290615 On ch=1 n=82 v=0
290640 On ch=1 n=67 v=80
290640 On ch=1 n=79 v=80
290867 On ch=1 n=67 v=0
290867 On ch=1 n=79 v=0
290880 On ch=1 n=70 v=80
290880 On ch=1 n=82 v=80
292247 On ch=1 n=70 v=0
292247 On ch=1 n=82 v=0
292320 On ch=1 n=63 v=80
292320 On ch=1 n=75 v=80
292775 On ch=1 n=63 v=0
292775 On ch=1 n=75 v=0
292800 On ch=1 n=72 v=80
292800 On ch=1 n=84 v=80
293255 On ch=1 n=72 v=0
293255 On ch=1 n=84 v=0
293280 On ch=1 n=70 v=80
293280 On ch=1 n=82 v=80
293735 On ch=1 n=70 v=0
293735 On ch=1 n=82 v=0
293760 On ch=1 n=68 v=80
293760 On ch=1 n=80 v=80
293987 On ch=1 n=68 v=0
293987 On ch=1 n=80 v=0
294000 On ch=1 n=67 v=80
294000 On ch=1 n=79 v=80
294455 On ch=1 n=67 v=0
294455 On ch=1 n=79 v=0
294480 On ch=1 n=68 v=80
294480 On ch=1 n=80 v=80
294707 On ch=1 n=68 v=0
294707 On ch=1 n=80 v=0
294720 On ch=1 n=70 v=80
294720 On ch=1 n=82 v=80
296087 On ch=1 n=70 v=0
296087 On ch=1 n=82 v=0
296160 On ch=1 n=67 v=80
296160 On ch=1 n=79 v=80
296615 On ch=1 n=67 v=0
296615 On ch=1 n=79 v=0
296640 On ch=1 n=68 v=80
296640 On ch=1 n=80 v=80
297095 On ch=1 n=68 v=0
297095 On ch=1 n=80 v=0
297120 On ch=1 n=70 v=80
297120 On ch=1 n=82 v=80
297575 On ch=1 n=70 v=0
297575 On ch=1 n=82 v=0
297600 On ch=1 n=67 v=80
297600 On ch=1 n=79 v=80
297827 On ch=1 n=67 v=0
297827 On ch=1 n=79 v=0
297840 On ch=1 n=70 v=80
297840 On ch=1 n=82 v=80
298295 On ch=1 n=70 v=0
298295 On ch=1 n=82 v=0
298320 On ch=1 n=70 v=80
298320 On ch=1 n=82 v=80
298547 On ch=1 n=70 v=0
298547 On ch=1 n=82 v=0
298560 On ch=1 n=71 v=80
298560 On ch=1 n=83 v=80
299471 On ch=1 n=71 v=0
299471 On ch=1 n=83 v=0
299520 On ch=1 n=74 v=80
299535 On ch=1 n=79 v=80
299565 On ch=1 n=83 v=80
299580 On ch=1 n=86 v=80
300960 Tempo 600000
303623 On ch=1 n=74 v=0
303623 On ch=1 n=79 v=0
303625 On ch=1 n=83 v=0
303626 On ch=1 n=86 v=0
303840 Tempo 352941
303840 On ch=1 n=72 v=80
303840 On ch=1 n=84 v=80
304067 On ch=1 n=72 v=0
304067 On ch=1 n=84 v=0
304080 On ch=1 n=74 v=80
304080 On ch=1 n=86 v=80
304535 On ch=1 n=74 v=0
304535 On ch=1 n=86 v=0
304560 Tempo 333333
304560 On ch=1 n=75 v=80
304560 On ch=1 n=80 v=80
304560 On ch=1 n=87 v=80
305243 On ch=1 n=75 v=0
305243 On ch=1 n=80 v=0
305243 On ch=1 n=87 v=0
305280 On ch=1 n=74 v=80
305280 On ch=1 n=86 v=80
305507 On ch=1 n=74 v=0
305507 On ch=1 n=86 v=0
305520 On ch=1 n=75 v=80
305520 On ch=1 n=80 v=80
305520 On ch=1 n=87 v=80
306203 On ch=1 n=75 v=0
306203 On ch=1 n=80 v=0
306203 On ch=1 n=87 v=0
306240 On ch=1 n=74 v=80
306240 On ch=1 n=86 v=80
306467 On ch=1 n=74 v=0
306467 On ch=1 n=86 v=0
306480 On ch=1 n=72 v=80
306480 On ch=1 n=84 v=80
306935 On ch=1 n=72 v=0
306935 On ch=1 n=84 v=0
306960 On ch=1 n=70 v=80
306960 On ch=1 n=82 v=80
307187 On ch=1 n=70 v=0
307187 On ch=1 n=82 v=0
307200 On ch=1 n=72 v=80
307200 On ch=1 n=84 v=80
308111 On ch=1 n=72 v=0
308111 On ch=1 n=84 v=0
308160 On ch=1 n=75 v=80
308160 On ch=1 n=87 v=80
308387 On ch=1 n=75 v=0
308387 On ch=1 n=87 v=0
308400 On ch=1 n=77 v=80
308400 On ch=1 n=82 v=80
308400 On ch=1 n=89 v=80
309083 On ch=1 n=77 v=0
309083 On ch=1 n=82 v=0
309083 On ch=1 n=89 v=0
309120 On ch=1 n=75 v=80
309120 On ch=1 n=87 v=80
309347 On ch=1 n=75 v=0
309347 On ch=1 n=87 v=0
309360 On ch=1 n=77 v=80
309360 On ch=1 n=82 v=80
309360 On ch=1 n=89 v=80
310043 On ch=1 n=77 v=0
310043 On ch=1 n=82 v=0
310043 On ch=1 n=89 v=0
310080 On ch=1 n=75 v=80
310080 On ch=1 n=87 v=80
310307 On ch=1 n=75 v=0
310307 On ch=1 n=87 v=0
310320 On ch=1 n=74 v=80
310320 On ch=1 n=82 v=80
310320 On ch=1 n=86 v=80
310775 On ch=1 n=74 v=0
310775 On ch=1 n=82 v=0
310775 On ch=1 n=86 v=0
310800 On ch=1 n=72 v=80
310800 On ch=1 n=84 v=80
311027 On ch=1 n=72 v=0
311027 On ch=1 n=84 v=0
311040 On ch=1 n=74 v=80
311040 On ch=1 n=82 v=80
311040 On ch=1 n=86 v=80
311951 On ch=1 n=74 v=0
311951 On ch=1 n=82 v=0
311951 On ch=1 n=86 v=0
312000 On ch=1 n=70 v=80
312000 On ch=1 n=82 v=80
312227 On ch=1 n=70 v=0
312227 On ch=1 n=82 v=0
312240 On ch=1 n=79 v=80
312240 On ch=1 n=86 v=80
312240 On ch=1 n=91 v=80
312923 On ch=1 n=79 v=0
312923 On ch=1 n=86 v=0
312923 On ch=1 n=91 v=0
312960 On ch=1 n=79 v=80
312960 On ch=1 n=82 v=80
312960 On ch=1 n=86 v=80
313187 On ch=1 n=79 v=0
313187 On ch=1 n=82 v=0
313187 On ch=1 n=86 v=0
313200 On ch=1 n=79 v=80
313200 On ch=1 n=82 v=80
313200 On ch=1 n=86 v=80
313883 On ch=1 n=79 v=0
313883 On ch=1 n=82 v=0
313883 On ch=1 n=86 v=0
313920 On ch=1 n=79 v=80
313920 On ch=1 n=82 v=80
314147 On ch=1 n=79 v=0
314147 On ch=1 n=82 v=0
314160 On ch=1 n=79 v=80
314160 On ch=1 n=82 v=80
314843 On ch=1 n=79 v=0
314843 On ch=1 n=82 v=0
314880 On ch=1 n=79 v=80
315107 On ch=1 n=79 v=0
315120 On ch=1 n=79 v=80
315120 On ch=1 n=82 v=80
315803 On ch=1 n=79 v=0
315803 On ch=1 n=82 v=0
315840 On ch=1 n=79 v=80
315840 On ch=1 n=86 v=80
316067 On ch=1 n=79 v=0
316067 On ch=1 n=86 v=0
316080 On ch=1 n=79 v=80
316080 On ch=1 n=87 v=80
316763 On ch=1 n=79 v=0
316763 On ch=1 n=87 v=0
316800 On ch=1 n=79 v=80
316800 On ch=1 n=86 v=80
317027 On ch=1 n=79 v=0
317027 On ch=1 n=86 v=0
317040 On ch=1 n=79 v=80
317040 On ch=1 n=84 v=80
317723 On ch=1 n=79 v=0
317723 On ch=1 n=84 v=0
317760 On ch=1 n=79 v=80
317760 On ch=1 n=82 v=80
317987 On ch=1 n=79 v=0
317987 On ch=1 n=82 v=0
318000 On ch=1 n=79 v=80
318000 On ch=1 n=84 v=80
319139 On ch=1 n=79 v=0
319139 On ch=1 n=84 v=0
319200 On ch=1 n=72 v=80
319427 On ch=1 n=72 v=0
319440 On ch=1 n=74 v=80
319895 On ch=1 n=74 v=0
319920 On ch=1 n=75 v=80
320603 On ch=1 n=75 v=0
320640 On ch=1 n=74 v=80
320867 On ch=1 n=74 v=0
320880 On ch=1 n=75 v=80
321563 On ch=1 n=75 v=0
321600 On ch=1 n=74 v=80
321827 On ch=1 n=74 v=0
321840 On ch=1 n=72 v=80
322295 On ch=1 n=72 v=0
322320 On ch=1 n=70 v=80
322547 On ch=1 n=70 v=0
322560 On ch=1 n=72 v=80
323471 On ch=1 n=72 v=0
323520 On ch=1 n=75 v=80
323747 On ch=1 n=75 v=0
323760 On ch=1 n=74 v=80
323760 On ch=1 n=77 v=80
324443 On ch=1 n=74 v=0
324443 On ch=1 n=77 v=0
324480 On ch=1 n=75 v=80
324707 On ch=1 n=75 v=0
324720 On ch=1 n=77 v=80
325403 On ch=1 n=77 v=0
325440 On ch=1 n=75 v=80
325667 On ch=1 n=75 v=0
325680 On ch=1 n=74 v=80
326135 On ch=1 n=74 v=0
326160 On ch=1 n=75 v=80
326387 On ch=1 n=75 v=0
326400 On ch=1 n=74 v=80
327311 On ch=1 n=74 v=0
327360 On ch=1 n=70 v=80
327587 On ch=1 n=70 v=0
327600 On ch=1 n=70 v=80
327600 On ch=1 n=79 v=80
328283 On ch=1 n=70 v=0
328283 On ch=1 n=79 v=0
328320 On ch=1 n=74 v=80
328547 On ch=1 n=74 v=0
328560 On ch=1 n=74 v=80
329243 On ch=1 n=74 v=0
329280 On ch=1 n=70 v=80
329507 On ch=1 n=70 v=0
329520 On ch=1 n=70 v=80
330203 On ch=1 n=70 v=0
330240 On ch=1 n=67 v=80
330467 On ch=1 n=67 v=0
330480 On ch=1 n=70 v=80
331163 On ch=1 n=70 v=0
331200 On ch=1 n=74 v=80
331427 On ch=1 n=74 v=0
331440 On ch=1 n=72 v=80
331440 On ch=1 n=75 v=80
332123 On ch=1 n=72 v=0
332123 On ch=1 n=75 v=0
332160 On ch=1 n=77 v=80
332387 On ch=1 n=77 v=0
332400 On ch=1 n=74 v=80
333083 On ch=1 n=74 v=0
333120 On ch=1 n=67 v=80
333120 On ch=1 n=72 v=80
333347 On ch=1 n=67 v=0
333347 On ch=1 n=72 v=0
333360 On ch=1 n=67 v=80
333360 On ch=1 n=75 v=80
334499 On ch=1 n=67 v=0
334499 On ch=1 n=75 v=0
334560 On ch=1 n=60 v=80
334560 On ch=1 n=72 v=80
334787 On ch=1 n=60 v=0
334787 On ch=1 n=72 v=0
334800 On ch=1 n=62 v=80
334800 On ch=1 n=74 v=80
335255 On ch=1 n=62 v=0
335255 On ch=1 n=74 v=0
335280 On ch=1 n=63 v=80
335280 On ch=1 n=75 v=80
335963 On ch=1 n=63 v=0
335963 On ch=1 n=75 v=0
336000 On ch=1 n=62 v=80
336000 On ch=1 n=74 v=80
336227 On ch=1 n=62 v=0
336227 On ch=1 n=74 v=0
336240 On ch=1 n=63 v=80
336240 On ch=1 n=75 v=80
336923 On ch=1 n=63 v=0
336923 On ch=1 n=75 v=0
336960 On ch=1 n=62 v=80
336960 On ch=1 n=74 v=80
337187 On ch=1 n=62 v=0
337187 On ch=1 n=74 v=0
337200 On ch=1 n=60 v=80
337200 On ch=1 n=72 v=80
337655 On ch=1 n=60 v=0
337655 On ch=1 n=72 v=0
337680 On ch=1 n=58 v=80
337680 On ch=1 n=70 v=80
337907 On ch=1 n=58 v=0
337907 On ch=1 n=70 v=0
337920 On ch=1 n=60 v=80
337920 On ch=1 n=72 v=80
338831 On ch=1 n=60 v=0
338831 On ch=1 n=72 v=0
338880 On ch=1 n=63 v=80
338880 On ch=1 n=75 v=80
339107 On ch=1 n=63 v=0
339107 On ch=1 n=75 v=0
339120 On ch=1 n=65 v=80
339120 On ch=1 n=70 v=80
339120 On ch=1 n=77 v=80
339803 On ch=1 n=65 v=0
339803 On ch=1 n=70 v=0
339803 On ch=1 n=77 v=0
339840 On ch=1 n=63 v=80
339840 On ch=1 n=75 v=80
340067 On ch=1 n=63 v=0
340067 On ch=1 n=75 v=0
340080 On ch=1 n=65 v=80
340080 On ch=1 n=70 v=80
340080 On ch=1 n=77 v=80
340763 On ch=1 n=65 v=0
340763 On ch=1 n=70 v=0
340763 On ch=1 n=77 v=0
340800 On ch=1 n=63 v=80
340800 On ch=1 n=75 v=80
341027 On ch=1 n=63 v=0
341027 On ch=1 n=75 v=0
341040 On ch=1 n=62 v=80
341040 On ch=1 n=74 v=80
341495 On ch=1 n=62 v=0
341495 On ch=1 n=74 v=0
341520 On ch=1 n=60 v=80
341520 On ch=1 n=72 v=80
341747 On ch=1 n=60 v=0
341747 On ch=1 n=72 v=0
341760 On ch=1 n=62 v=80
341760 On ch=1 n=74 v=80
342671 On ch=1 n=62 v=0
342671 On ch=1 n=74 v=0
342720 On ch=1 n=70 v=80
342947 On ch=1 n=70 v=0
342960 On ch=1 n=67 v=80
342960 On ch=1 n=70 v=80
342960 On ch=1 n=79 v=80
343643 On ch=1 n=67 v=0
343643 On ch=1 n=70 v=0
343643 On ch=1 n=79 v=0
343680 On ch=1 n=67 v=80
343680 On ch=1 n=70 v=80
343680 On ch=1 n=74 v=80
343907 On ch=1 n=67 v=0
343907 On ch=1 n=70 v=0
343907 On ch=1 n=74 v=0
343920 On ch=1 n=67 v=80
343920 On ch=1 n=70 v=80
343920 On ch=1 n=74 v=80
344603 On ch=1 n=67 v=0
344603 On ch=1 n=70 v=0
344603 On ch=1 n=74 v=0
344640 On ch=1 n=67 v=80
344640 On ch=1 n=70 v=80
344867 On ch=1 n=67 v=0
344867 On ch=1 n=70 v=0
344880 On ch=1 n=67 v=80
344880 On ch=1 n=70 v=80
345563 On ch=1 n=67 v=0
345563 On ch=1 n=70 v=0
345600 On ch=1 n=67 v=80
345827 On ch=1 n=67 v=0
345840 On ch=1 n=67 v=80
345840 On ch=1 n=70 v=80
346523 On ch=1 n=67 v=0
346523 On ch=1 n=70 v=0
346560 On ch=1 n=67 v=80
346560 On ch=1 n=74 v=80
346787 On ch=1 n=67 v=0
346787 On ch=1 n=74 v=0
346800 On ch=1 n=67 v=80
346800 On ch=1 n=75 v=80
347483 On ch=1 n=67 v=0
347483 On ch=1 n=75 v=0
347520 On ch=1 n=67 v=80
347520 On ch=1 n=74 v=80
347747 On ch=1 n=67 v=0
347747 On ch=1 n=74 v=0
347760 On ch=1 n=67 v=80
347760 On ch=1 n=72 v=80
348443 On ch=1 n=67 v=0
348443 On ch=1 n=72 v=0
348480 On ch=1 n=67 v=80
348480 On ch=1 n=70 v=80
348707 On ch=1 n=67 v=0
348707 On ch=1 n=70 v=0
348720 On ch=1 n=67 v=80
348720 On ch=1 n=72 v=80
349859 On ch=1 n=67 v=0
349859 On ch=1 n=72 v=0
349920 On ch=1 n=72 v=80
349920 On ch=1 n=84 v=80
350147 On ch=1 n=72 v=0
350147 On ch=1 n=84 v=0
350160 On ch=1 n=74 v=80
350160 On ch=1 n=86 v=80
350615 On ch=1 n=74 v=0
350615 On ch=1 n=86 v=0
350640 On ch=1 n=75 v=80
350640 On ch=1 n=80 v=80
350640 On ch=1 n=87 v=80
350880 Tempo 324324
351323 On ch=1 n=75 v=0
351323 On ch=1 n=80 v=0
351323 On ch=1 n=87 v=0
351360 On ch=1 n=74 v=80
351360 On ch=1 n=86 v=80
351587 On ch=1 n=74 v=0
351587 On ch=1 n=86 v=0
351600 On ch=1 n=75 v=80
351600 On ch=1 n=80 v=80
351600 On ch=1 n=87 v=80
352283 On ch=1 n=75 v=0
352283 On ch=1 n=80 v=0
352283 On ch=1 n=87 v=0
352320 On ch=1 n=74 v=80
352320 On ch=1 n=86 v=80
352547 On ch=1 n=74 v=0
352547 On ch=1 n=86 v=0
352560 On ch=1 n=72 v=80
352560 On ch=1 n=84 v=80
353015 On ch=1 n=72 v=0
353015 On ch=1 n=84 v=0
353040 On ch=1 n=70 v=80
353040 On ch=1 n=82 v=80
353267 On ch=1 n=70 v=0
353267 On ch=1 n=82 v=0
353280 On ch=1 n=72 v=80
353280 On ch=1 n=84 v=80
354191 On ch=1 n=72 v=0
354191 On ch=1 n=84 v=0
354240 On ch=1 n=75 v=80
354240 On ch=1 n=87 v=80
354467 On ch=1 n=75 v=0
354467 On ch=1 n=87 v=0
354480 On ch=1 n=77 v=80
354480 On ch=1 n=82 v=80
354480 On ch=1 n=89 v=80
355163 On ch=1 n=77 v=0
355163 On ch=1 n=82 v=0
355163 On ch=1 n=89 v=0
355200 On ch=1 n=75 v=80
355200 On ch=1 n=87 v=80
355427 On ch=1 n=75 v=0
355427 On ch=1 n=87 v=0
355440 On ch=1 n=77 v=80
355440 On ch=1 n=82 v=80
355440 On ch=1 n=89 v=80
356123 On ch=1 n=77 v=0
356123 On ch=1 n=82 v=0
356123 On ch=1 n=89 v=0
356160 On ch=1 n=75 v=80
356160 On ch=1 n=87 v=80
356387 On ch=1 n=75 v=0
356387 On ch=1 n=87 v=0
356400 On ch=1 n=74 v=80
356400 On ch=1 n=82 v=80
356400 On ch=1 n=86 v=80
356855 On ch=1 n=74 v=0
356855 On ch=1 n=82 v=0
356855 On ch=1 n=86 v=0
356880 On ch=1 n=75 v=80
356880 On ch=1 n=87 v=80
357107 On ch=1 n=75 v=0
357107 On ch=1 n=87 v=0
357120 On ch=1 n=74 v=80
357120 On ch=1 n=82 v=80
357120 On ch=1 n=86 v=80
358031 On ch=1 n=74 v=0
358031 On ch=1 n=82 v=0
358031 On ch=1 n=86 v=0
358080 On ch=1 n=70 v=80
358080 On ch=1 n=82 v=80
358307 On ch=1 n=70 v=0
358307 On ch=1 n=82 v=0
358320 On ch=1 n=79 v=80
358320 On ch=1 n=86 v=80
358320 On ch=1 n=91 v=80
359003 On ch=1 n=79 v=0
359003 On ch=1 n=86 v=0
359003 On ch=1 n=91 v=0
359040 On ch=1 n=79 v=80
359040 On ch=1 n=82 v=80
359040 On ch=1 n=86 v=80
359267 On ch=1 n=79 v=0
359267 On ch=1 n=82 v=0
359267 On ch=1 n=86 v=0
359280 On ch=1 n=79 v=80
359280 On ch=1 n=82 v=80
359280 On ch=1 n=86 v=80
359963 On ch=1 n=79 v=0
359963 On ch=1 n=82 v=0
359963 On ch=1 n=86 v=0
360000 On ch=1 n=79 v=80
360000 On ch=1 n=82 v=80
360227 On ch=1 n=79 v=0
360227 On ch=1 n=82 v=0
360240 On ch=1 n=79 v=80
360240 On ch=1 n=82 v=80
360923 On ch=1 n=79 v=0
360923 On ch=1 n=82 v=0
360960 On ch=1 n=79 v=80
361187 On ch=1 n=79 v=0
361200 On ch=1 n=79 v=80
361200 On ch=1 n=82 v=80
361883 On ch=1 n=79 v=0
361883 On ch=1 n=82 v=0
361920 On ch=1 n=79 v=80
361920 On ch=1 n=86 v=80
362147 On ch=1 n=79 v=0
362147 On ch=1 n=86 v=0
362160 On ch=1 n=79 v=80
362160 On ch=1 n=87 v=80
362843 On ch=1 n=79 v=0
362843 On ch=1 n=87 v=0
362880 On ch=1 n=79 v=80
362880 On ch=1 n=86 v=80
363107 On ch=1 n=79 v=0
363107 On ch=1 n=86 v=0
363120 On ch=1 n=79 v=80
363120 On ch=1 n=84 v=80
363803 On ch=1 n=79 v=0
363803 On ch=1 n=84 v=0
363840 On ch=1 n=79 v=80
363840 On ch=1 n=82 v=80
364067 On ch=1 n=79 v=0
364067 On ch=1 n=82 v=0
364080 On ch=1 n=79 v=80
364080 On ch=1 n=84 v=80
364763 On ch=1 n=79 v=0
364763 On ch=1 n=84 v=0
364800 On ch=1 n=79 v=80
364800 On ch=1 n=87 v=80
365027 On ch=1 n=79 v=0
365027 On ch=1 n=87 v=0
365040 On ch=1 n=79 v=80
365040 On ch=1 n=86 v=80
365723 On ch=1 n=79 v=0
365723 On ch=1 n=86 v=0
365760 On ch=1 n=82 v=80
365987 On ch=1 n=82 v=0
366000 On ch=1 n=80 v=80
366683 On ch=1 n=80 v=0
366720 On ch=1 n=56 v=80
366795 On ch=1 n=56 v=0
366800 On ch=1 n=60 v=80
366875 On ch=1 n=60 v=0
366880 On ch=1 n=63 v=80
366955 On ch=1 n=63 v=0
366960 On ch=1 n=68 v=80
367035 On ch=1 n=68 v=0
367040 On ch=1 n=72 v=80
367115 On ch=1 n=72 v=0
367120 On ch=1 n=75 v=80
367195 On ch=1 n=75 v=0
367200 On ch=1 n=80 v=80
367275 On ch=1 n=80 v=0
367280 On ch=1 n=75 v=80
367355 On ch=1 n=75 v=0
367360 On ch=1 n=72 v=80
367435 On ch=1 n=72 v=0
367440 On ch=1 n=68 v=80
367515 On ch=1 n=68 v=0
367520 On ch=1 n=72 v=80
367595 On ch=1 n=72 v=0
367600 On ch=1 n=75 v=80
367675 On ch=1 n=75 v=0
367680 On ch=1 n=80 v=80
367755 On ch=1 n=80 v=0
367760 On ch=1 n=75 v=80
367835 On ch=1 n=75 v=0
367840 On ch=1 n=72 v=80
367915 On ch=1 n=72 v=0
367920 On ch=1 n=68 v=80
367995 On ch=1 n=68 v=0
368000 On ch=1 n=72 v=80
368075 On ch=1 n=72 v=0
368080 On ch=1 n=75 v=80
368155 On ch=1 n=75 v=0
368160 On ch=1 n=82 v=80
368273 On ch=1 n=82 v=0
368280 On ch=1 n=70 v=80
368393 On ch=1 n=70 v=0
368400 On ch=1 n=74 v=80
368513 On ch=1 n=74 v=0
368520 On ch=1 n=79 v=80
368633 On ch=1 n=79 v=0
368640 On ch=1 n=86 v=80
368753 On ch=1 n=86 v=0
368760 On ch=1 n=74 v=80
368873 On ch=1 n=74 v=0
368880 On ch=1 n=79 v=80
368993 On ch=1 n=79 v=0
369000 On ch=1 n=82 v=80
369113 On ch=1 n=82 v=0
369120 On ch=1 n=86 v=80
369233 On ch=1 n=86 v=0
369240 On ch=1 n=74 v=80
369353 On ch=1 n=74 v=0
369360 On ch=1 n=79 v=80
369473 On ch=1 n=79 v=0
369480 On ch=1 n=82 v=80
369593 On ch=1 n=82 v=0
369600 On ch=1 n=82 v=80
369713 On ch=1 n=82 v=0
369720 On ch=1 n=70 v=80
369833 On ch=1 n=70 v=0
369840 On ch=1 n=74 v=80
369953 On ch=1 n=74 v=0
369960 On ch=1 n=79 v=80
370073 On ch=1 n=79 v=0
370080 On ch=1 n=83 v=80
370193 On ch=1 n=83 v=0
370200 On ch=1 n=78 v=80
370313 On ch=1 n=78 v=0
370320 On ch=1 n=75 v=80
370433 On ch=1 n=75 v=0
370440 On ch=1 n=71 v=80
370553 On ch=1 n=71 v=0
370560 On ch=1 n=87 v=80
370673 On ch=1 n=87 v=0
370680 On ch=1 n=83 v=80
370793 On ch=1 n=83 v=0
370800 On ch=1 n=80 v=80
370913 On ch=1 n=80 v=0
370920 On ch=1 n=75 v=80
371033 On ch=1 n=75 v=0
371040 On ch=1 n=87 v=80
371153 On ch=1 n=87 v=0
371160 On ch=1 n=80 v=80
371273 On ch=1 n=80 v=0
371280 On ch=1 n=75 v=80
371393 On ch=1 n=75 v=0
371400 On ch=1 n=80 v=80
371513 On ch=1 n=80 v=0
371520 On ch=1 n=71 v=80
371520 On ch=1 n=83 v=80
371975 On ch=1 n=71 v=0
371975 On ch=1 n=83 v=0
372000 On ch=1 n=85 v=80
372113 On ch=1 n=85 v=0
372120 On ch=1 n=77 v=80
372233 On ch=1 n=77 v=0
372240 On ch=1 n=73 v=80
372353 On ch=1 n=73 v=0
372360 On ch=1 n=70 v=80
372929 On ch=1 n=70 v=0
372960 On ch=1 n=78 v=80
372960 On ch=1 n=90 v=80
373871 On ch=1 n=78 v=0
373871 On ch=1 n=90 v=0
373920 On ch=1 n=77 v=80
373920 On ch=1 n=89 v=80
374147 On ch=1 n=77 v=0
374147 On ch=1 n=89 v=0
374160 On ch=1 n=75 v=80
374160 On ch=1 n=87 v=80
374615 On ch=1 n=75 v=0
374615 On ch=1 n=87 v=0
374640 On ch=1 n=77 v=80
374640 On ch=1 n=89 v=80
375095 On ch=1 n=77 v=0
375095 On ch=1 n=89 v=0
375120 On ch=1 n=75 v=80
375120 On ch=1 n=87 v=80
375575 On ch=1 n=75 v=0
375575 On ch=1 n=87 v=0
375600 On ch=1 n=77 v=80
375600 On ch=1 n=89 v=80
376055 On ch=1 n=77 v=0
376055 On ch=1 n=89 v=0
376080 On ch=1 n=75 v=80
376080 On ch=1 n=87 v=80
376535 On ch=1 n=75 v=0
376535 On ch=1 n=87 v=0
376560 On ch=1 n=70 v=80
376560 On ch=1 n=82 v=80
377015 On ch=1 n=70 v=0
377015 On ch=1 n=82 v=0
377040 On ch=1 n=75 v=80
377040 On ch=1 n=87 v=80
377723 On ch=1 n=75 v=0
377723 On ch=1 n=87 v=0
377760 On ch=1 n=72 v=80
377760 On ch=1 n=75 v=80
377760 On ch=1 n=80 v=80
377760 On ch=1 n=84 v=80
378671 On ch=1 n=72 v=0
378671 On ch=1 n=75 v=0
378671 On ch=1 n=80 v=0
378671 On ch=1 n=84 v=0
378720 On ch=1 n=74 v=80
378720 On ch=1 n=86 v=80
379631 On ch=1 n=74 v=0
379631 On ch=1 n=86 v=0
379680 On ch=1 n=70 v=80
379680 On ch=1 n=82 v=80
379907 On ch=1 n=70 v=0
379907 On ch=1 n=82 v=0
379920 On ch=1 n=77 v=80
380375 On ch=1 n=77 v=0
380400 On ch=1 n=80 v=80
380855 On ch=1 n=80 v=0
380880 On ch=1 n=79 v=80
381563 On ch=1 n=79 v=0
381600 On ch=1 n=77 v=80
381600 On ch=1 n=89 v=80
381827 On ch=1 n=77 v=0
381827 On ch=1 n=89 v=0
381840 On ch=1 n=75 v=80
381840 On ch=1 n=87 v=80
382295 On ch=1 n=75 v=0
382295 On ch=1 n=87 v=0
382320 On ch=1 n=77 v=80
382320 On ch=1 n=89 v=80
382775 On ch=1 n=77 v=0
382775 On ch=1 n=89 v=0
382800 On ch=1 n=75 v=80
382800 On ch=1 n=87 v=80
383255 On ch=1 n=75 v=0
383255 On ch=1 n=87 v=0
383280 On ch=1 n=77 v=80
383280 On ch=1 n=89 v=80
383735 On ch=1 n=77 v=0
383735 On ch=1 n=89 v=0
383760 On ch=1 n=75 v=80
383760 On ch=1 n=87 v=80
384215 On ch=1 n=75 v=0
384215 On ch=1 n=87 v=0
384240 On ch=1 n=70 v=80
384240 On ch=1 n=82 v=80
384695 On ch=1 n=70 v=0
384695 On ch=1 n=82 v=0
384720 On ch=1 n=75 v=80
384720 On ch=1 n=87 v=80
385403 On ch=1 n=75 v=0
385403 On ch=1 n=87 v=0
385440 On ch=1 n=72 v=80
385440 On ch=1 n=75 v=80
385440 On ch=1 n=80 v=80
385440 On ch=1 n=84 v=80
386351 On ch=1 n=72 v=0
386351 On ch=1 n=75 v=0
386351 On ch=1 n=80 v=0
386351 On ch=1 n=84 v=0
386400 On ch=1 n=74 v=80
386400 On ch=1 n=86 v=80
387311 On ch=1 n=74 v=0
387311 On ch=1 n=86 v=0
387360 On ch=1 n=70 v=80
387360 On ch=1 n=82 v=80
387587 On ch=1 n=70 v=0
387587 On ch=1 n=82 v=0
387600 On ch=1 n=77 v=80
388055 On ch=1 n=77 v=0
388080 On ch=1 n=80 v=80
388535 On ch=1 n=80 v=0
388560 On ch=1 n=79 v=80
389243 On ch=1 n=79 v=0
389280 On ch=1 n=65 v=80
389280 On ch=1 n=77 v=80
389507 On ch=1 n=65 v=0
389507 On ch=1 n=77 v=0
389520 On ch=1 n=63 v=80
389520 On ch=1 n=75 v=80
389975 On ch=1 n=63 v=0
389975 On ch=1 n=75 v=0
390000 On ch=1 n=65 v=80
390000 On ch=1 n=77 v=80
390455 On ch=1 n=65 v=0
390455 On ch=1 n=77 v=0
390480 On ch=1 n=63 v=80
390480 On ch=1 n=75 v=80
390935 On ch=1 n=63 v=0
390935 On ch=1 n=75 v=0
390960 On ch=1 n=65 v=80
390960 On ch=1 n=77 v=80
391415 On ch=1 n=65 v=0
391415 On ch=1 n=77 v=0
391440 On ch=1 n=63 v=80
391440 On ch=1 n=75 v=80
391895 On ch=1 n=63 v=0
391895 On ch=1 n=75 v=0
391920 On ch=1 n=58 v=80
391920 On ch=1 n=70 v=80
392375 On ch=1 n=58 v=0
392375 On ch=1 n=70 v=0
392400 On ch=1 n=63 v=80
392400 On ch=1 n=75 v=80
393083 On ch=1 n=63 v=0
393083 On ch=1 n=75 v=0
393120 On ch=1 n=60 v=80
393120 On ch=1 n=63 v=80
393120 On ch=1 n=68 v=80
393120 On ch=1 n=72 v=80
394031 On ch=1 n=60 v=0
394031 On ch=1 n=63 v=0
394031 On ch=1 n=68 v=0
394031 On ch=1 n=72 v=0
394080 On ch=1 n=62 v=80
394080 On ch=1 n=74 v=80
394991 On ch=1 n=62 v=0
394991 On ch=1 n=74 v=0
395040 On ch=1 n=58 v=80
395040 On ch=1 n=70 v=80
395267 On ch=1 n=58 v=0
395267 On ch=1 n=70 v=0
395280 On ch=1 n=65 v=80
395735 On ch=1 n=65 v=0
395760 On ch=1 n=68 v=80
396215 On ch=1 n=68 v=0
396240 On ch=1 n=67 v=80
396923 On ch=1 n=67 v=0
396960 On ch=1 n=65 v=80
396960 On ch=1 n=77 v=80
397187 On ch=1 n=65 v=0
397187 On ch=1 n=77 v=0
397200 On ch=1 n=63 v=80
397200 On ch=1 n=75 v=80
397655 On ch=1 n=63 v=0
397655 On ch=1 n=75 v=0
397680 On ch=1 n=65 v=80
397680 On ch=1 n=77 v=80
398135 On ch=1 n=65 v=0
398135 On ch=1 n=77 v=0
398160 On ch=1 n=63 v=80
398160 On ch=1 n=75 v=80
398615 On ch=1 n=63 v=0
398615 On ch=1 n=75 v=0
398640 On ch=1 n=65 v=80
398640 On ch=1 n=77 v=80
399095 On ch=1 n=65 v=0
399095 On ch=1 n=77 v=0
399120 On ch=1 n=63 v=80
399120 On ch=1 n=75 v=80
399575 On ch=1 n=63 v=0
399575 On ch=1 n=75 v=0
399600 On ch=1 n=58 v=80
399600 On ch=1 n=70 v=80
400055 On ch=1 n=58 v=0
400055 On ch=1 n=70 v=0
400080 On ch=1 n=63 v=80
400080 On ch=1 n=75 v=80
400763 On ch=1 n=63 v=0
400763 On ch=1 n=75 v=0
400800 On ch=1 n=60 v=80
400800 On ch=1 n=63 v=80
400800 On ch=1 n=68 v=80
400800 On ch=1 n=72 v=80
401711 On ch=1 n=60 v=0
401711 On ch=1 n=63 v=0
401711 On ch=1 n=68 v=0
401711 On ch=1 n=72 v=0
401760 On ch=1 n=62 v=80
401760 On ch=1 n=74 v=80
402671 On ch=1 n=62 v=0
402671 On ch=1 n=74 v=0
402720 On ch=1 n=58 v=80
402720 On ch=1 n=70 v=80
402947 On ch=1 n=58 v=0
402947 On ch=1 n=70 v=0
402960 On ch=1 n=65 v=80
403415 On ch=1 n=65 v=0
403440 On ch=1 n=68 v=80
403895 On ch=1 n=68 v=0
403920 On ch=1 n=67 v=80
404603 On ch=1 n=67 v=0
404640 On ch=1 n=58 v=80
405095 On ch=1 n=58 v=0
405120 On ch=1 n=60 v=80
405575 On ch=1 n=60 v=0
405600 On ch=1 n=60 v=80
405600 On ch=1 n=63 v=80
405827 On ch=1 n=60 v=0
405827 On ch=1 n=63 v=0
405840 On ch=1 n=60 v=80
405840 On ch=1 n=65 v=80
406067 On ch=1 n=60 v=0
406067 On ch=1 n=65 v=0
406080 On ch=1 n=60 v=80
406080 On ch=1 n=63 v=80
406307 On ch=1 n=60 v=0
406307 On ch=1 n=63 v=0
406320 On ch=1 n=60 v=80
406320 On ch=1 n=65 v=80
406775 On ch=1 n=60 v=0
406775 On ch=1 n=65 v=0
406800 On ch=1 n=60 v=80
406800 On ch=1 n=65 v=80
407027 On ch=1 n=60 v=0
407027 On ch=1 n=65 v=0
407040 On ch=1 n=60 v=80
407040 On ch=1 n=63 v=80
407495 On ch=1 n=60 v=0
407495 On ch=1 n=63 v=0
407520 On ch=1 n=60 v=80
407747 On ch=1 n=60 v=0
407760 On ch=1 n=63 v=80
407987 On ch=1 n=63 v=0
408000 On ch=1 n=65 v=80
408227 On ch=1 n=65 v=0
408240 On ch=1 n=67 v=80
408467 On ch=1 n=67 v=0
408480 On ch=1 n=65 v=80
408935 On ch=1 n=65 v=0
408960 On ch=1 n=67 v=80
409415 On ch=1 n=67 v=0
409440 On ch=1 n=65 v=80
409667 On ch=1 n=65 v=0
409680 On ch=1 n=63 v=80
409907 On ch=1 n=63 v=0
409920 On ch=1 n=63 v=80
410147 On ch=1 n=63 v=0
410160 On ch=1 n=65 v=80
410615 On ch=1 n=65 v=0
410640 On ch=1 n=63 v=80
410867 On ch=1 n=63 v=0
410880 On ch=1 n=65 v=80
411107 On ch=1 n=65 v=0
411120 On ch=1 n=67 v=80
411575 On ch=1 n=67 v=0
411600 On ch=1 n=65 v=80
411827 On ch=1 n=65 v=0
411840 On ch=1 n=63 v=80
412067 On ch=1 n=63 v=0
412080 On ch=1 n=60 v=80
412307 On ch=1 n=60 v=0
412320 On ch=1 n=70 v=80
412775 On ch=1 n=70 v=0
412800 On ch=1 n=72 v=80
413255 On ch=1 n=72 v=0
413280 On ch=1 n=72 v=80
413280 On ch=1 n=75 v=80
413507 On ch=1 n=72 v=0
413507 On ch=1 n=75 v=0
413520 On ch=1 n=72 v=80
413520 On ch=1 n=77 v=80
413747 On ch=1 n=72 v=0
413747 On ch=1 n=77 v=0
413760 On ch=1 n=72 v=80
413760 On ch=1 n=75 v=80
413987 On ch=1 n=72 v=0
413987 On ch=1 n=75 v=0
414000 On ch=1 n=72 v=80
414000 On ch=1 n=77 v=80
414455 On ch=1 n=72 v=0
414455 On ch=1 n=77 v=0
414480 On ch=1 n=72 v=80
414480 On ch=1 n=77 v=80
414707 On ch=1 n=72 v=0
414707 On ch=1 n=77 v=0
414720 On ch=1 n=72 v=80
414720 On ch=1 n=75 v=80
415175 On ch=1 n=72 v=0
415175 On ch=1 n=75 v=0
415200 On ch=1 n=72 v=80
415427 On ch=1 n=72 v=0
415440 On ch=1 n=75 v=80
415667 On ch=1 n=75 v=0
415680 On ch=1 n=77 v=80
415907 On ch=1 n=77 v=0
415920 On ch=1 n=79 v=80
416147 On ch=1 n=79 v=0
416160 On ch=1 n=77 v=80
416387 On ch=1 n=77 v=0
416400 On ch=1 n=79 v=80
416627 On ch=1 n=79 v=0
416640 On ch=1 n=87 v=80
417095 On ch=1 n=87 v=0
417120 On ch=1 n=79 v=80
417347 On ch=1 n=79 v=0
417360 On ch=1 n=77 v=80
417815 On ch=1 n=77 v=0
417840 On ch=1 n=77 v=80
418295 On ch=1 n=77 v=0
418320 On ch=1 n=75 v=80
418547 On ch=1 n=75 v=0
418560 On ch=1 n=77 v=80
418787 On ch=1 n=77 v=0
418800 On ch=1 n=79 v=80
419027 On ch=1 n=79 v=0
419040 On ch=1 n=77 v=80
419267 On ch=1 n=77 v=0
419280 On ch=1 n=75 v=80
419963 On ch=1 n=75 v=0
419964 Meta TrkEnd
TrkEnd
MTrk
0 KeySig 0 major
0 Meta 0x21 00
1920 On ch=1 n=41 v=80
2147 On ch=1 n=41 v=0
2160 On ch=1 n=48 v=80
2387 On ch=1 n=48 v=0
2400 On ch=1 n=58 v=80
2627 On ch=1 n=58 v=0
2640 On ch=1 n=51 v=80
2867 On ch=1 n=51 v=0
2880 On ch=1 n=41 v=80
3107 On ch=1 n=41 v=0
3120 On ch=1 n=48 v=80
3347 On ch=1 n=48 v=0
3360 On ch=1 n=58 v=80
3587 On ch=1 n=58 v=0
3600 On ch=1 n=51 v=80
3827 On ch=1 n=51 v=0
3840 On ch=1 n=41 v=80
4067 On ch=1 n=41 v=0
4080 On ch=1 n=48 v=80
4307 On ch=1 n=48 v=0
4320 On ch=1 n=58 v=80
4547 On ch=1 n=58 v=0
4560 On ch=1 n=51 v=80
4787 On ch=1 n=51 v=0
4800 On ch=1 n=41 v=80
5027 On ch=1 n=41 v=0
5040 On ch=1 n=48 v=80
5267 On ch=1 n=48 v=0
5280 On ch=1 n=58 v=80
5507 On ch=1 n=58 v=0
5520 On ch=1 n=51 v=80
5747 On ch=1 n=51 v=0
5760 On ch=1 n=41 v=80
5987 On ch=1 n=41 v=0
6000 On ch=1 n=48 v=80
6227 On ch=1 n=48 v=0
6240 On ch=1 n=58 v=80
6467 On ch=1 n=58 v=0
6480 On ch=1 n=51 v=80
6707 On ch=1 n=51 v=0
6720 On ch=1 n=41 v=80
6947 On ch=1 n=41 v=0
6960 On ch=1 n=48 v=80
7187 On ch=1 n=48 v=0
7200 On ch=1 n=58 v=80
7427 On ch=1 n=58 v=0
7440 On ch=1 n=51 v=80
7667 On ch=1 n=51 v=0
7680 On ch=1 n=41 v=80
7907 On ch=1 n=41 v=0
7920 On ch=1 n=48 v=80
8147 On ch=1 n=48 v=0
8160 On ch=1 n=58 v=80
8387 On ch=1 n=58 v=0
8400 On ch=1 n=51 v=80
8627 On ch=1 n=51 v=0
8640 On ch=1 n=41 v=80
8867 On ch=1 n=41 v=0
8880 On ch=1 n=48 v=80
9107 On ch=1 n=48 v=0
9120 On ch=1 n=58 v=80
9347 On ch=1 n=58 v=0
9360 On ch=1 n=51 v=80
9587 On ch=1 n=51 v=0
9600 On ch=1 n=44 v=80
9827 On ch=1 n=44 v=0
9840 On ch=1 n=51 v=80
10067 On ch=1 n=51 v=0
10080 On ch=1 n=58 v=80
10307 On ch=1 n=58 v=0
10320 On ch=1 n=56 v=80
10547 On ch=1 n=56 v=0
10560 On ch=1 n=44 v=80
10787 On ch=1 n=44 v=0
10800 On ch=1 n=51 v=80
11027 On ch=1 n=51 v=0
11040 On ch=1 n=58 v=80
11267 On ch=1 n=58 v=0
11280 On ch=1 n=56 v=80
11507 On ch=1 n=56 v=0
11520 On ch=1 n=44 v=80
11747 On ch=1 n=44 v=0
11760 On ch=1 n=51 v=80
11987 On ch=1 n=51 v=0
12000 On ch=1 n=58 v=80
12227 On ch=1 n=58 v=0
12240 On ch=1 n=56 v=80
12467 On ch=1 n=56 v=0
12480 On ch=1 n=44 v=80
12707 On ch=1 n=44 v=0
12720 On ch=1 n=51 v=80
12947 On ch=1 n=51 v=0
12960 On ch=1 n=58 v=80
13187 On ch=1 n=58 v=0
13200 On ch=1 n=56 v=80
13427 On ch=1 n=56 v=0
13440 On ch=1 n=44 v=80
13667 On ch=1 n=44 v=0
13680 On ch=1 n=51 v=80
13907 On ch=1 n=51 v=0
13920 On ch=1 n=58 v=80
14147 On ch=1 n=58 v=0
14160 On ch=1 n=56 v=80
14387 On ch=1 n=56 v=0
14400 On ch=1 n=44 v=80
14627 On ch=1 n=44 v=0
14640 On ch=1 n=51 v=80
14867 On ch=1 n=51 v=0
14880 On ch=1 n=58 v=80
15107 On ch=1 n=58 v=0
15120 On ch=1 n=56 v=80
15347 On ch=1 n=56 v=0
15360 On ch=1 n=44 v=80
15587 On ch=1 n=44 v=0
15600 On ch=1 n=51 v=80
15827 On ch=1 n=51 v=0
15840 On ch=1 n=58 v=80
16067 On ch=1 n=58 v=0
16080 On ch=1 n=56 v=80
16307 On ch=1 n=56 v=0
16320 On ch=1 n=44 v=80
16547 On ch=1 n=44 v=0
16560 On ch=1 n=51 v=80
16787 On ch=1 n=51 v=0
16800 On ch=1 n=58 v=80
17027 On ch=1 n=58 v=0
17040 On ch=1 n=56 v=80
17267 On ch=1 n=56 v=0
17280 On ch=1 n=41 v=80
17507 On ch=1 n=41 v=0
17520 On ch=1 n=48 v=80
17747 On ch=1 n=48 v=0
17760 On ch=1 n=58 v=80
17987 On ch=1 n=58 v=0
18000 On ch=1 n=51 v=80
18227 On ch=1 n=51 v=0
18240 On ch=1 n=41 v=80
18467 On ch=1 n=41 v=0
18480 On ch=1 n=48 v=80
18707 On ch=1 n=48 v=0
18720 On ch=1 n=58 v=80
18947 On ch=1 n=58 v=0
18960 On ch=1 n=51 v=80
19187 On ch=1 n=51 v=0
19200 On ch=1 n=41 v=80
19427 On ch=1 n=41 v=0
19440 On ch=1 n=48 v=80
19667 On ch=1 n=48 v=0
19680 On ch=1 n=58 v=80
19907 On ch=1 n=58 v=0
19920 On ch=1 n=51 v=80
20147 On ch=1 n=51 v=0
20160 On ch=1 n=41 v=80
20387 On ch=1 n=41 v=0
20400 On ch=1 n=48 v=80
20627 On ch=1 n=48 v=0
20640 On ch=1 n=58 v=80
20867 On ch=1 n=58 v=0
20880 On ch=1 n=51 v=80
21107 On ch=1 n=51 v=0
21120 On ch=1 n=41 v=80
21347 On ch=1 n=41 v=0
21360 On ch=1 n=48 v=80
21587 On ch=1 n=48 v=0
21600 On ch=1 n=58 v=80
21827 On ch=1 n=58 v=0
21840 On ch=1 n=51 v=80
22067 On ch=1 n=51 v=0
22080 On ch=1 n=41 v=80
22307 On ch=1 n=41 v=0
22320 On ch=1 n=48 v=80
22547 On ch=1 n=48 v=0
22560 On ch=1 n=58 v=80
22787 On ch=1 n=58 v=0
22800 On ch=1 n=51 v=80
23027 On ch=1 n=51 v=0
23040 On ch=1 n=41 v=80
23267 On ch=1 n=41 v=0
23280 On ch=1 n=48 v=80
23507 On ch=1 n=48 v=0
23520 On ch=1 n=58 v=80
23747 On ch=1 n=58 v=0
23760 On ch=1 n=51 v=80
23987 On ch=1 n=51 v=0
24000 On ch=1 n=41 v=80
24227 On ch=1 n=41 v=0
24240 On ch=1 n=48 v=80
24467 On ch=1 n=48 v=0
24480 On ch=1 n=58 v=80
24707 On ch=1 n=58 v=0
24720 On ch=1 n=51 v=80
24947 On ch=1 n=51 v=0
24960 On ch=1 n=44 v=80
25187 On ch=1 n=44 v=0
25200 On ch=1 n=51 v=80
25427 On ch=1 n=51 v=0
25440 On ch=1 n=58 v=80
25667 On ch=1 n=58 v=0
25680 On ch=1 n=56 v=80
25907 On ch=1 n=56 v=0
25920 On ch=1 n=44 v=80
26147 On ch=1 n=44 v=0
26160 On ch=1 n=51 v=80
26387 On ch=1 n=51 v=0
26400 On ch=1 n=58 v=80
26627 On ch=1 n=58 v=0
26640 On ch=1 n=56 v=80
26867 On ch=1 n=56 v=0
26880 On ch=1 n=44 v=80
27107 On ch=1 n=44 v=0
27120 On ch=1 n=51 v=80
27347 On ch=1 n=51 v=0
27360 On ch=1 n=58 v=80
27587 On ch=1 n=58 v=0
27600 On ch=1 n=56 v=80
27827 On ch=1 n=56 v=0
27840 On ch=1 n=44 v=80
28067 On ch=1 n=44 v=0
28080 On ch=1 n=51 v=80
28307 On ch=1 n=51 v=0
28320 On ch=1 n=58 v=80
28547 On ch=1 n=58 v=0
28560 On ch=1 n=56 v=80
28787 On ch=1 n=56 v=0
28800 On ch=1 n=44 v=80
29027 On ch=1 n=44 v=0
29040 On ch=1 n=51 v=80
29267 On ch=1 n=51 v=0
29280 On ch=1 n=58 v=80
29507 On ch=1 n=58 v=0
29520 On ch=1 n=56 v=80
29747 On ch=1 n=56 v=0
29760 On ch=1 n=44 v=80
29987 On ch=1 n=44 v=0
30000 On ch=1 n=51 v=80
30227 On ch=1 n=51 v=0
30240 On ch=1 n=58 v=80
30467 On ch=1 n=58 v=0
30480 On ch=1 n=56 v=80
30707 On ch=1 n=56 v=0
30720 On ch=1 n=44 v=80
30947 On ch=1 n=44 v=0
30960 On ch=1 n=51 v=80
31187 On ch=1 n=51 v=0
31200 On ch=1 n=58 v=80
31427 On ch=1 n=58 v=0
31440 On ch=1 n=56 v=80
31667 On ch=1 n=56 v=0
31680 On ch=1 n=32 v=88
31680 On ch=1 n=44 v=88
31799 On ch=1 n=32 v=0
31799 On ch=1 n=44 v=0
31920 On ch=1 n=32 v=88
31920 On ch=1 n=44 v=88
32039 On ch=1 n=32 v=0
32039 On ch=1 n=44 v=0
32640 On ch=1 n=36 v=96
32640 On ch=1 n=48 v=96
33095 On ch=1 n=36 v=0
33095 On ch=1 n=48 v=0
33120 On ch=1 n=43 v=96
33347 On ch=1 n=43 v=0
33360 On ch=1 n=48 v=96
33587 On ch=1 n=48 v=0
33600 On ch=1 n=51 v=96
33600 On ch=1 n=55 v=96
33827 On ch=1 n=51 v=0
33827 On ch=1 n=55 v=0
33840 On ch=1 n=51 v=96
33840 On ch=1 n=55 v=96
34067 On ch=1 n=51 v=0
34067 On ch=1 n=55 v=0
34080 On ch=1 n=51 v=96
34080 On ch=1 n=55 v=96
34307 On ch=1 n=51 v=0
34307 On ch=1 n=55 v=0
34320 On ch=1 n=51 v=96
34320 On ch=1 n=55 v=96
34775 On ch=1 n=51 v=0
34775 On ch=1 n=55 v=0
34800 On ch=1 n=51 v=96
34800 On ch=1 n=55 v=96
35027 On ch=1 n=51 v=0
35027 On ch=1 n=55 v=0
35040 On ch=1 n=51 v=96
35040 On ch=1 n=55 v=96
35495 On ch=1 n=51 v=0
35495 On ch=1 n=55 v=0
35520 On ch=1 n=48 v=96
35747 On ch=1 n=48 v=0
35760 On ch=1 n=43 v=96
35987 On ch=1 n=43 v=0
36000 On ch=1 n=36 v=96
36455 On ch=1 n=36 v=0
36480 On ch=1 n=31 v=96
36707 On ch=1 n=31 v=0
36720 On ch=1 n=43 v=96
36947 On ch=1 n=43 v=0
36960 On ch=1 n=43 v=96
37187 On ch=1 n=43 v=0
37200 On ch=1 n=50 v=96
37427 On ch=1 n=50 v=0
37440 On ch=1 n=55 v=96
37667 On ch=1 n=55 v=0
37680 On ch=1 n=50 v=96
37907 On ch=1 n=50 v=0
37920 On ch=1 n=43 v=96
38147 On ch=1 n=43 v=0
38160 On ch=1 n=32 v=96
38160 On ch=1 n=44 v=96
38615 On ch=1 n=32 v=0
38615 On ch=1 n=44 v=0
38640 On ch=1 n=44 v=96
38867 On ch=1 n=44 v=0
38880 On ch=1 n=51 v=96
39107 On ch=1 n=51 v=0
39120 On ch=1 n=58 v=96
39575 On ch=1 n=58 v=0
39600 On ch=1 n=56 v=96
39827 On ch=1 n=56 v=0
39840 On ch=1 n=51 v=96
40067 On ch=1 n=51 v=0
40080 On ch=1 n=44 v=96
40307 On ch=1 n=44 v=0
40320 On ch=1 n=36 v=96
40547 On ch=1 n=36 v=0
40560 On ch=1 n=43 v=96
40787 On ch=1 n=43 v=0
40800 On ch=1 n=48 v=96
41027 On ch=1 n=48 v=0
41040 On ch=1 n=51 v=96
41267 On ch=1 n=51 v=0
41280 On ch=1 n=51 v=96
41280 On ch=1 n=55 v=96
41507 On ch=1 n=51 v=0
41507 On ch=1 n=55 v=0
41520 On ch=1 n=51 v=96
41520 On ch=1 n=55 v=96
41747 On ch=1 n=51 v=0
41747 On ch=1 n=55 v=0
41760 On ch=1 n=51 v=96
41760 On ch=1 n=55 v=96
41987 On ch=1 n=51 v=0
41987 On ch=1 n=55 v=0
42000 On ch=1 n=51 v=96
42000 On ch=1 n=55 v=96
42455 On ch=1 n=51 v=0
42455 On ch=1 n=55 v=0
42480 On ch=1 n=55 v=96
42707 On ch=1 n=55 v=0
42720 On ch=1 n=51 v=96
43175 On ch=1 n=51 v=0
43200 On ch=1 n=48 v=96
43655 On ch=1 n=48 v=0
43680 On ch=1 n=36 v=96
43680 On ch=1 n=43 v=96
44135 On ch=1 n=36 v=0
44135 On ch=1 n=43 v=0
44160 On ch=1 n=31 v=96
44387 On ch=1 n=31 v=0
44400 On ch=1 n=43 v=96
44627 On ch=1 n=43 v=0
44640 On ch=1 n=43 v=96
44867 On ch=1 n=43 v=0
44880 On ch=1 n=50 v=96
45107 On ch=1 n=50 v=0
45120 On ch=1 n=55 v=96
45347 On ch=1 n=55 v=0
45360 On ch=1 n=50 v=96
45587 On ch=1 n=50 v=0
45600 On ch=1 n=43 v=96
45827 On ch=1 n=43 v=0
45840 On ch=1 n=32 v=96
45840 On ch=1 n=44 v=96
46295 On ch=1 n=32 v=0
46295 On ch=1 n=44 v=0
46320 On ch=1 n=44 v=96
46547 On ch=1 n=44 v=0
46560 On ch=1 n=51 v=96
46787 On ch=1 n=51 v=0
46800 On ch=1 n=56 v=96
47255 On ch=1 n=56 v=0
48000 On ch=1 n=41 v=96
48227 On ch=1 n=41 v=0
48240 On ch=1 n=53 v=96
48467 On ch=1 n=53 v=0
48480 On ch=1 n=53 v=96
48707 On ch=1 n=53 v=0
48720 On ch=1 n=63 v=96
48947 On ch=1 n=63 v=0
48960 On ch=1 n=70 v=96
49187 On ch=1 n=70 v=0
49200 On ch=1 n=63 v=96
49427 On ch=1 n=63 v=0
49440 On ch=1 n=53 v=96
49667 On ch=1 n=53 v=0
49680 On ch=1 n=63 v=96
49907 On ch=1 n=63 v=0
49920 On ch=1 n=70 v=96
50147 On ch=1 n=70 v=0
50160 On ch=1 n=63 v=96
50387 On ch=1 n=63 v=0
50400 On ch=1 n=53 v=96
50627 On ch=1 n=53 v=0
50640 On ch=1 n=63 v=96
50867 On ch=1 n=63 v=0
50880 On ch=1 n=70 v=96
51107 On ch=1 n=70 v=0
51120 On ch=1 n=63 v=96
51347 On ch=1 n=63 v=0
51360 On ch=1 n=53 v=96
51587 On ch=1 n=53 v=0
51600 On ch=1 n=63 v=96
51827 On ch=1 n=63 v=0
51840 On ch=1 n=41 v=96
52067 On ch=1 n=41 v=0
52080 On ch=1 n=53 v=96
52307 On ch=1 n=53 v=0
52320 On ch=1 n=53 v=96
52547 On ch=1 n=53 v=0
52560 On ch=1 n=63 v=96
52787 On ch=1 n=63 v=0
52800 On ch=1 n=70 v=96
53027 On ch=1 n=70 v=0
53040 On ch=1 n=63 v=96
53267 On ch=1 n=63 v=0
53280 On ch=1 n=53 v=96
53507 On ch=1 n=53 v=0
53520 On ch=1 n=63 v=96
53747 On ch=1 n=63 v=0
53760 On ch=1 n=70 v=96
53987 On ch=1 n=70 v=0
54000 On ch=1 n=63 v=96
54227 On ch=1 n=63 v=0
54240 On ch=1 n=53 v=96
54467 On ch=1 n=53 v=0
54480 On ch=1 n=63 v=96
54707 On ch=1 n=63 v=0
54720 On ch=1 n=70 v=96
54947 On ch=1 n=70 v=0
54960 On ch=1 n=63 v=96
55187 On ch=1 n=63 v=0
55200 On ch=1 n=53 v=96
55427 On ch=1 n=53 v=0
55440 On ch=1 n=63 v=96
55667 On ch=1 n=63 v=0
55680 On ch=1 n=44 v=96
55907 On ch=1 n=44 v=0
55920 On ch=1 n=56 v=96
56147 On ch=1 n=56 v=0
56160 On ch=1 n=56 v=96
56387 On ch=1 n=56 v=0
56400 On ch=1 n=63 v=96
56627 On ch=1 n=63 v=0
56640 On ch=1 n=70 v=96
56867 On ch=1 n=70 v=0
56880 On ch=1 n=63 v=96
57107 On ch=1 n=63 v=0
57120 On ch=1 n=56 v=96
57347 On ch=1 n=56 v=0
57360 On ch=1 n=63 v=96
57587 On ch=1 n=63 v=0
57600 On ch=1 n=70 v=96
57827 On ch=1 n=70 v=0
57840 On ch=1 n=63 v=96
58067 On ch=1 n=63 v=0
58080 On ch=1 n=56 v=96
58307 On ch=1 n=56 v=0
58320 On ch=1 n=63 v=96
58547 On ch=1 n=63 v=0
58560 On ch=1 n=70 v=96
58787 On ch=1 n=70 v=0
58800 On ch=1 n=63 v=96
59027 On ch=1 n=63 v=0
59040 On ch=1 n=56 v=96
59267 On ch=1 n=56 v=0
59280 On ch=1 n=63 v=96
59507 On ch=1 n=63 v=0
59520 On ch=1 n=44 v=96
59747 On ch=1 n=44 v=0
59760 On ch=1 n=56 v=96
59987 On ch=1 n=56 v=0
60000 On ch=1 n=56 v=96
60227 On ch=1 n=56 v=0
60240 On ch=1 n=63 v=96
60467 On ch=1 n=63 v=0
60480 On ch=1 n=70 v=96
60707 On ch=1 n=70 v=0
60720 On ch=1 n=63 v=96
60947 On ch=1 n=63 v=0
60960 On ch=1 n=56 v=96
61187 On ch=1 n=56 v=0
61200 On ch=1 n=63 v=96
61427 On ch=1 n=63 v=0
61440 On ch=1 n=70 v=96
61667 On ch=1 n=70 v=0
61680 On ch=1 n=63 v=96
61907 On ch=1 n=63 v=0
61920 On ch=1 n=56 v=96
62147 On ch=1 n=56 v=0
62160 On ch=1 n=63 v=96
62387 On ch=1 n=63 v=0
62400 On ch=1 n=70 v=96
62627 On ch=1 n=70 v=0
62640 On ch=1 n=63 v=96
62867 On ch=1 n=63 v=0
62880 On ch=1 n=56 v=96
63107 On ch=1 n=56 v=0
63120 On ch=1 n=63 v=96
63347 On ch=1 n=63 v=0
63360 On ch=1 n=41 v=96
63587 On ch=1 n=41 v=0
63600 On ch=1 n=53 v=96
63827 On ch=1 n=53 v=0
63840 On ch=1 n=53 v=96
64067 On ch=1 n=53 v=0
64080 On ch=1 n=63 v=96
64307 On ch=1 n=63 v=0
64320 On ch=1 n=70 v=96
64547 On ch=1 n=70 v=0
64560 On ch=1 n=63 v=96
64787 On ch=1 n=63 v=0
64800 On ch=1 n=53 v=96
65027 On ch=1 n=53 v=0
65040 On ch=1 n=63 v=96
65267 On ch=1 n=63 v=0
65280 On ch=1 n=70 v=96
65507 On ch=1 n=70 v=0
65520 On ch=1 n=63 v=96
65747 On ch=1 n=63 v=0
65760 On ch=1 n=53 v=96
65987 On ch=1 n=53 v=0
66000 On ch=1 n=63 v=96
66227 On ch=1 n=63 v=0
66240 On ch=1 n=70 v=96
66467 On ch=1 n=70 v=0
66480 On ch=1 n=63 v=96
66707 On ch=1 n=63 v=0
66720 On ch=1 n=53 v=96
66947 On ch=1 n=53 v=0
66960 On ch=1 n=63 v=96
67187 On ch=1 n=63 v=0
67200 On ch=1 n=41 v=96
67427 On ch=1 n=41 v=0
67440 On ch=1 n=53 v=96
67667 On ch=1 n=53 v=0
67680 On ch=1 n=53 v=96
67907 On ch=1 n=53 v=0
67920 On ch=1 n=63 v=96
68147 On ch=1 n=63 v=0
68160 On ch=1 n=70 v=96
68387 On ch=1 n=70 v=0
68400 On ch=1 n=63 v=96
68627 On ch=1 n=63 v=0
68640 On ch=1 n=53 v=96
68867 On ch=1 n=53 v=0
68880 On ch=1 n=63 v=96
69107 On ch=1 n=63 v=0
69120 On ch=1 n=70 v=96
69347 On ch=1 n=70 v=0
69360 On ch=1 n=63 v=96
69587 On ch=1 n=63 v=0
69600 On ch=1 n=53 v=96
69827 On ch=1 n=53 v=0
69840 On ch=1 n=63 v=96
70067 On ch=1 n=63 v=0
70080 On ch=1 n=70 v=96
70307 On ch=1 n=70 v=0
70320 On ch=1 n=63 v=96
70547 On ch=1 n=63 v=0
70560 On ch=1 n=53 v=96
70787 On ch=1 n=53 v=0
70800 On ch=1 n=63 v=96
71027 On ch=1 n=63 v=0
71040 On ch=1 n=44 v=96
71267 On ch=1 n=44 v=0
71280 On ch=1 n=56 v=96
71507 On ch=1 n=56 v=0
71520 On ch=1 n=56 v=96
71747 On ch=1 n=56 v=0
71760 On ch=1 n=63 v=96
71987 On ch=1 n=63 v=0
72000 On ch=1 n=70 v=96
72227 On ch=1 n=70 v=0
72240 On ch=1 n=63 v=96
72467 On ch=1 n=63 v=0
72480 On ch=1 n=56 v=96
72707 On ch=1 n=56 v=0
72720 On ch=1 n=63 v=96
72947 On ch=1 n=63 v=0
72960 On ch=1 n=70 v=96
73187 On ch=1 n=70 v=0
73200 On ch=1 n=63 v=96
73427 On ch=1 n=63 v=0
73440 On ch=1 n=56 v=96
73667 On ch=1 n=56 v=0
73680 On ch=1 n=63 v=96
73907 On ch=1 n=63 v=0
73920 On ch=1 n=70 v=96
74147 On ch=1 n=70 v=0
74160 On ch=1 n=63 v=96
74387 On ch=1 n=63 v=0
74400 On ch=1 n=56 v=96
74627 On ch=1 n=56 v=0
74640 On ch=1 n=63 v=96
74867 On ch=1 n=63 v=0
74880 On ch=1 n=44 v=96
75107 On ch=1 n=44 v=0
75120 On ch=1 n=56 v=96
75347 On ch=1 n=56 v=0
75360 On ch=1 n=56 v=96
75587 On ch=1 n=56 v=0
75600 On ch=1 n=63 v=96
75827 On ch=1 n=63 v=0
75840 On ch=1 n=70 v=96
76067 On ch=1 n=70 v=0
76080 On ch=1 n=63 v=96
76307 On ch=1 n=63 v=0
76320 On ch=1 n=56 v=96
76547 On ch=1 n=56 v=0
76560 On ch=1 n=63 v=96
76787 On ch=1 n=63 v=0
76800 On ch=1 n=70 v=96
77027 On ch=1 n=70 v=0
77040 On ch=1 n=63 v=96
77267 On ch=1 n=63 v=0
77280 On ch=1 n=56 v=96
77507 On ch=1 n=56 v=0
77520 On ch=1 n=51 v=96
77747 On ch=1 n=51 v=0
77760 On ch=1 n=51 v=96
77987 On ch=1 n=51 v=0
78000 On ch=1 n=44 v=96
78359 On ch=1 n=44 v=0
78720 On ch=1 n=31 v=96
78720 On ch=1 n=43 v=96
79175 On ch=1 n=31 v=0
79175 On ch=1 n=43 v=0
79200 On ch=1 n=43 v=96
79427 On ch=1 n=43 v=0
79440 On ch=1 n=50 v=96
79440 On ch=1 n=55 v=96
79895 On ch=1 n=50 v=0
79895 On ch=1 n=55 v=0
79920 On ch=1 n=43 v=96
80147 On ch=1 n=43 v=0
80160 On ch=1 n=50 v=96
80160 On ch=1 n=55 v=96
80615 On ch=1 n=50 v=0
80615 On ch=1 n=55 v=0
80640 On ch=1 n=43 v=96
80867 On ch=1 n=43 v=0
80880 On ch=1 n=55 v=96
81107 On ch=1 n=55 v=0
81120 On ch=1 n=50 v=96
81347 On ch=1 n=50 v=0
81360 On ch=1 n=43 v=96
81587 On ch=1 n=43 v=0
81600 On ch=1 n=38 v=96
81827 On ch=1 n=38 v=0
81840 On ch=1 n=31 v=96
82295 On ch=1 n=31 v=0
82320 On ch=1 n=32 v=96
82320 On ch=1 n=44 v=96
82775 On ch=1 n=32 v=0
82775 On ch=1 n=44 v=0
82800 On ch=1 n=44 v=96
83027 On ch=1 n=44 v=0
83040 On ch=1 n=51 v=96
83040 On ch=1 n=56 v=96
83495 On ch=1 n=51 v=0
83495 On ch=1 n=56 v=0
83520 On ch=1 n=44 v=96
83747 On ch=1 n=44 v=0
83760 On ch=1 n=51 v=96
83760 On ch=1 n=56 v=96
84215 On ch=1 n=51 v=0
84215 On ch=1 n=56 v=0
84240 On ch=1 n=44 v=96
84467 On ch=1 n=44 v=0
84480 On ch=1 n=51 v=96
84707 On ch=1 n=51 v=0
84720 On ch=1 n=48 v=96
84947 On ch=1 n=48 v=0
84960 On ch=1 n=44 v=96
85187 On ch=1 n=44 v=0
85200 On ch=1 n=39 v=96
85427 On ch=1 n=39 v=0
85440 On ch=1 n=31 v=96
85440 On ch=1 n=43 v=96
85895 On ch=1 n=31 v=0
85895 On ch=1 n=43 v=0
85920 On ch=1 n=29 v=96
85920 On ch=1 n=41 v=96
86375 On ch=1 n=29 v=0
86375 On ch=1 n=41 v=0
86400 On ch=1 n=41 v=96
86627 On ch=1 n=41 v=0
86640 On ch=1 n=48 v=96
86640 On ch=1 n=53 v=96
87095 On ch=1 n=48 v=0
87095 On ch=1 n=53 v=0
87120 On ch=1 n=41 v=96
87347 On ch=1 n=41 v=0
87360 On ch=1 n=48 v=96
87360 On ch=1 n=53 v=96
87815 On ch=1 n=48 v=0
87815 On ch=1 n=53 v=0
87840 On ch=1 n=41 v=96
88067 On ch=1 n=41 v=0
88080 On ch=1 n=53 v=96
88307 On ch=1 n=53 v=0
88320 On ch=1 n=48 v=96
88547 On ch=1 n=48 v=0
88560 On ch=1 n=41 v=96
88787 On ch=1 n=41 v=0
88800 On ch=1 n=36 v=96
89027 On ch=1 n=36 v=0
89040 On ch=1 n=29 v=96
89495 On ch=1 n=29 v=0
89520 On ch=1 n=22 v=96
89520 On ch=1 n=34 v=96
89975 On ch=1 n=22 v=0
89975 On ch=1 n=34 v=0
90000 On ch=1 n=34 v=96
90227 On ch=1 n=34 v=0
90240 On ch=1 n=41 v=96
90240 On ch=1 n=46 v=96
90695 On ch=1 n=41 v=0
90695 On ch=1 n=46 v=0
90720 On ch=1 n=34 v=96
90720 On ch=1 n=46 v=96
90947 On ch=1 n=34 v=0
90947 On ch=1 n=46 v=0
90960 On ch=1 n=35 v=96
90960 On ch=1 n=47 v=96
91795 On ch=1 n=35 v=0
91795 On ch=1 n=47 v=0
91920 On ch=1 n=35 v=96
91950 On ch=1 n=43 v=96
92000 On ch=1 n=50 v=96
92375 On ch=1 n=35 v=0
92376 On ch=1 n=43 v=0
92379 On ch=1 n=50 v=0
93360 On ch=1 n=32 v=96
93360 On ch=1 n=44 v=96
93815 On ch=1 n=32 v=0
93815 On ch=1 n=44 v=0
93840 On ch=1 n=44 v=96
94067 On ch=1 n=44 v=0
94080 On ch=1 n=51 v=96
94307 On ch=1 n=51 v=0
94320 On ch=1 n=58 v=96
94547 On ch=1 n=58 v=0
94560 On ch=1 n=56 v=96
94787 On ch=1 n=56 v=0
94800 On ch=1 n=44 v=96
95027 On ch=1 n=44 v=0
95040 On ch=1 n=51 v=96
95040 On ch=1 n=58 v=96
95495 On ch=1 n=51 v=0
95495 On ch=1 n=58 v=0
95520 On ch=1 n=44 v=96
95747 On ch=1 n=44 v=0
95760 On ch=1 n=51 v=96
95760 On ch=1 n=58 v=96
95987 On ch=1 n=51 v=0
95987 On ch=1 n=58 v=0
96000 On ch=1 n=44 v=96
96227 On ch=1 n=44 v=0
96240 On ch=1 n=51 v=96
96467 On ch=1 n=51 v=0
96480 On ch=1 n=58 v=96
96707 On ch=1 n=58 v=0
97200 On ch=1 n=32 v=96
97200 On ch=1 n=44 v=96
97655 On ch=1 n=32 v=0
97655 On ch=1 n=44 v=0
97680 On ch=1 n=44 v=96
97907 On ch=1 n=44 v=0
97920 On ch=1 n=53 v=96
98147 On ch=1 n=53 v=0
98160 On ch=1 n=58 v=96
98387 On ch=1 n=58 v=0
98400 On ch=1 n=56 v=96
98627 On ch=1 n=56 v=0
98640 On ch=1 n=44 v=96
98867 On ch=1 n=44 v=0
98880 On ch=1 n=51 v=96
98880 On ch=1 n=58 v=96
99335 On ch=1 n=51 v=0
99335 On ch=1 n=58 v=0
99360 On ch=1 n=44 v=96
99587 On ch=1 n=44 v=0
99600 On ch=1 n=51 v=96
99600 On ch=1 n=58 v=96
99827 On ch=1 n=51 v=0
99827 On ch=1 n=58 v=0
99840 On ch=1 n=44 v=96
100067 On ch=1 n=44 v=0
100080 On ch=1 n=53 v=96
100307 On ch=1 n=53 v=0
100320 On ch=1 n=58 v=96
100547 On ch=1 n=58 v=0
101040 On ch=1 n=31 v=96
101267 On ch=1 n=31 v=0
101280 On ch=1 n=43 v=96
101507 On ch=1 n=43 v=0
101520 On ch=1 n=43 v=96
101747 On ch=1 n=43 v=0
101760 On ch=1 n=50 v=96
101987 On ch=1 n=50 v=0
102000 On ch=1 n=43 v=96
102227 On ch=1 n=43 v=0
102240 On ch=1 n=50 v=96
102467 On ch=1 n=50 v=0
102480 On ch=1 n=55 v=96
102707 On ch=1 n=55 v=0
102720 On ch=1 n=57 v=96
102947 On ch=1 n=57 v=0
102960 On ch=1 n=58 v=96
103187 On ch=1 n=58 v=0
103200 On ch=1 n=55 v=96
103427 On ch=1 n=55 v=0
103440 On ch=1 n=62 v=96
103667 On ch=1 n=62 v=0
103680 On ch=1 n=58 v=96
103907 On ch=1 n=58 v=0
103920 On ch=1 n=55 v=96
104147 On ch=1 n=55 v=0
104160 On ch=1 n=50 v=96
104387 On ch=1 n=50 v=0
104400 On ch=1 n=43 v=96
104855 On ch=1 n=43 v=0
104880 On ch=1 n=36 v=96
105107 On ch=1 n=36 v=0
105120 On ch=1 n=48 v=96
105347 On ch=1 n=48 v=0
105360 On ch=1 n=48 v=96
105587 On ch=1 n=48 v=0
105600 On ch=1 n=55 v=96
105827 On ch=1 n=55 v=0
105840 On ch=1 n=48 v=96
106067 On ch=1 n=48 v=0
106080 On ch=1 n=55 v=96
106307 On ch=1 n=55 v=0
106320 On ch=1 n=60 v=96
106547 On ch=1 n=60 v=0
106560 On ch=1 n=62 v=96
106787 On ch=1 n=62 v=0
106800 On ch=1 n=63 v=96
107027 On ch=1 n=63 v=0
107040 On ch=1 n=60 v=96
107267 On ch=1 n=60 v=0
107280 On ch=1 n=55 v=96
107507 On ch=1 n=55 v=0
107520 On ch=1 n=48 v=96
107747 On ch=1 n=48 v=0
107760 On ch=1 n=48 v=96
107760 On ch=1 n=60 v=96
108215 On ch=1 n=48 v=0
108215 On ch=1 n=60 v=0
108240 On ch=1 n=46 v=96
108240 On ch=1 n=58 v=96
108695 On ch=1 n=46 v=0
108695 On ch=1 n=58 v=0
108720 On ch=1 n=32 v=96
108720 On ch=1 n=44 v=96
109175 On ch=1 n=32 v=0
109175 On ch=1 n=44 v=0
109200 On ch=1 n=44 v=96
109427 On ch=1 n=44 v=0
109440 On ch=1 n=51 v=96
109667 On ch=1 n=51 v=0
109680 On ch=1 n=58 v=96
109907 On ch=1 n=58 v=0
109920 On ch=1 n=56 v=96
110147 On ch=1 n=56 v=0
110160 On ch=1 n=44 v=96
110387 On ch=1 n=44 v=0
110400 On ch=1 n=51 v=96
110400 On ch=1 n=58 v=96
110855 On ch=1 n=51 v=0
110855 On ch=1 n=58 v=0
110880 On ch=1 n=44 v=96
111107 On ch=1 n=44 v=0
111120 On ch=1 n=51 v=96
111120 On ch=1 n=58 v=96
111347 On ch=1 n=51 v=0
111347 On ch=1 n=58 v=0
111360 On ch=1 n=44 v=96
111587 On ch=1 n=44 v=0
111600 On ch=1 n=51 v=96
111827 On ch=1 n=51 v=0
111840 On ch=1 n=58 v=96
112067 On ch=1 n=58 v=0
112560 On ch=1 n=32 v=96
112560 On ch=1 n=44 v=96
113015 On ch=1 n=32 v=0
113015 On ch=1 n=44 v=0
113040 On ch=1 n=44 v=96
113267 On ch=1 n=44 v=0
113280 On ch=1 n=53 v=96
113507 On ch=1 n=53 v=0
113520 On ch=1 n=58 v=96
113747 On ch=1 n=58 v=0
113760 On ch=1 n=56 v=96
113987 On ch=1 n=56 v=0
114000 On ch=1 n=44 v=96
114227 On ch=1 n=44 v=0
114240 On ch=1 n=51 v=96
114240 On ch=1 n=58 v=96
114695 On ch=1 n=51 v=0
114695 On ch=1 n=58 v=0
114720 On ch=1 n=44 v=96
114947 On ch=1 n=44 v=0
114960 On ch=1 n=51 v=96
114960 On ch=1 n=58 v=96
115187 On ch=1 n=51 v=0
115187 On ch=1 n=58 v=0
115200 On ch=1 n=44 v=96
115427 On ch=1 n=44 v=0
115440 On ch=1 n=53 v=96
115667 On ch=1 n=53 v=0
115680 On ch=1 n=58 v=96
115907 On ch=1 n=58 v=0
116400 On ch=1 n=31 v=96
116627 On ch=1 n=31 v=0
116640 On ch=1 n=43 v=96
116867 On ch=1 n=43 v=0
116880 On ch=1 n=43 v=96
117107 On ch=1 n=43 v=0
117120 On ch=1 n=50 v=96
117347 On ch=1 n=50 v=0
117360 On ch=1 n=43 v=96
117587 On ch=1 n=43 v=0
117600 On ch=1 n=50 v=96
117827 On ch=1 n=50 v=0
117840 On ch=1 n=55 v=96
118067 On ch=1 n=55 v=0
118080 On ch=1 n=57 v=96
118307 On ch=1 n=57 v=0
118320 On ch=1 n=58 v=96
118547 On ch=1 n=58 v=0
118560 On ch=1 n=55 v=96
118787 On ch=1 n=55 v=0
118800 On ch=1 n=62 v=96
119027 On ch=1 n=62 v=0
119040 On ch=1 n=58 v=96
119267 On ch=1 n=58 v=0
119280 On ch=1 n=55 v=96
119507 On ch=1 n=55 v=0
119520 On ch=1 n=50 v=96
119747 On ch=1 n=50 v=0
119760 On ch=1 n=43 v=96
120215 On ch=1 n=43 v=0
120240 On ch=1 n=36 v=96
120467 On ch=1 n=36 v=0
120480 On ch=1 n=48 v=96
120707 On ch=1 n=48 v=0
120720 On ch=1 n=48 v=96
120947 On ch=1 n=48 v=0
120960 On ch=1 n=55 v=96
121187 On ch=1 n=55 v=0
121200 On ch=1 n=60 v=96
121427 On ch=1 n=60 v=0
121440 On ch=1 n=55 v=96
121667 On ch=1 n=55 v=0
121680 On ch=1 n=48 v=96
121907 On ch=1 n=48 v=0
121920 On ch=1 n=55 v=96
122147 On ch=1 n=55 v=0
122160 On ch=1 n=34 v=96
122387 On ch=1 n=34 v=0
122400 On ch=1 n=46 v=96
122627 On ch=1 n=46 v=0
122640 On ch=1 n=46 v=96
122867 On ch=1 n=46 v=0
122880 On ch=1 n=55 v=96
123107 On ch=1 n=55 v=0
123120 On ch=1 n=58 v=96
123347 On ch=1 n=58 v=0
123360 On ch=1 n=55 v=96
123587 On ch=1 n=55 v=0
123600 On ch=1 n=46 v=96
124055 On ch=1 n=46 v=0
124080 On ch=1 n=29 v=96
124080 On ch=1 n=41 v=96
124535 On ch=1 n=29 v=0
124535 On ch=1 n=41 v=0
124560 On ch=1 n=41 v=96
124787 On ch=1 n=41 v=0
124800 On ch=1 n=48 v=96
124800 On ch=1 n=53 v=96
125255 On ch=1 n=48 v=0
125255 On ch=1 n=53 v=0
125280 On ch=1 n=41 v=96
125507 On ch=1 n=41 v=0
125520 On ch=1 n=56 v=96
125975 On ch=1 n=56 v=0
126000 On ch=1 n=31 v=96
126000 On ch=1 n=43 v=96
126455 On ch=1 n=31 v=0
126455 On ch=1 n=43 v=0
126480 On ch=1 n=43 v=96
126707 On ch=1 n=43 v=0
126720 On ch=1 n=50 v=96
126720 On ch=1 n=58 v=96
127175 On ch=1 n=50 v=0
127175 On ch=1 n=58 v=0
127200 On ch=1 n=43 v=96
127427 On ch=1 n=43 v=0
127440 On ch=1 n=50 v=96
127440 On ch=1 n=58 v=96
127895 On ch=1 n=50 v=0
127895 On ch=1 n=58 v=0
127920 On ch=1 n=32 v=96
127920 On ch=1 n=44 v=96
128375 On ch=1 n=32 v=0
128375 On ch=1 n=44 v=0
128400 On ch=1 n=44 v=96
128627 On ch=1 n=44 v=0
128640 On ch=1 n=51 v=96
128640 On ch=1 n=56 v=96
128640 On ch=1 n=59 v=96
129095 On ch=1 n=51 v=0
129095 On ch=1 n=56 v=0
129095 On ch=1 n=59 v=0
129120 On ch=1 n=44 v=96
129347 On ch=1 n=44 v=0
129360 On ch=1 n=51 v=96
129360 On ch=1 n=56 v=96
129360 On ch=1 n=59 v=96
129815 On ch=1 n=51 v=0
129815 On ch=1 n=56 v=0
129815 On ch=1 n=59 v=0
129840 On ch=1 n=34 v=96
129840 On ch=1 n=46 v=96
130067 On ch=1 n=34 v=0
130067 On ch=1 n=46 v=0
130080 On ch=1 n=46 v=96
130307 On ch=1 n=46 v=0
130320 On ch=1 n=49 v=96
130320 On ch=1 n=53 v=96
130320 On ch=1 n=58 v=96
130547 On ch=1 n=49 v=0
130547 On ch=1 n=53 v=0
130547 On ch=1 n=58 v=0
130560 On ch=1 n=46 v=96
130787 On ch=1 n=46 v=0
130800 On ch=1 n=46 v=96
131255 On ch=1 n=46 v=0
131280 On ch=1 n=22 v=96
131280 On ch=1 n=34 v=96
131735 On ch=1 n=22 v=0
131735 On ch=1 n=34 v=0
131760 On ch=1 n=27 v=96
131760 On ch=1 n=39 v=96
131987 On ch=1 n=27 v=0
131987 On ch=1 n=39 v=0
132000 On ch=1 n=39 v=96
132227 On ch=1 n=39 v=0
132240 On ch=1 n=46 v=96
132467 On ch=1 n=46 v=0
132480 On ch=1 n=46 v=96
132480 On ch=1 n=51 v=96
132480 On ch=1 n=55 v=96
132935 On ch=1 n=46 v=0
132935 On ch=1 n=51 v=0
132935 On ch=1 n=55 v=0
132960 On ch=1 n=51 v=96
133187 On ch=1 n=51 v=0
133200 On ch=1 n=58 v=96
133427 On ch=1 n=58 v=0
133440 On ch=1 n=58 v=96
133440 On ch=1 n=63 v=96
133440 On ch=1 n=67 v=96
133895 On ch=1 n=58 v=0
133895 On ch=1 n=63 v=0
133895 On ch=1 n=67 v=0
133920 On ch=1 n=51 v=96
134147 On ch=1 n=51 v=0
134160 On ch=1 n=58 v=96
134387 On ch=1 n=58 v=0
134400 On ch=1 n=58 v=96
134400 On ch=1 n=63 v=96
134400 On ch=1 n=67 v=96
134855 On ch=1 n=58 v=0
134855 On ch=1 n=63 v=0
134855 On ch=1 n=67 v=0
134880 On ch=1 n=51 v=96
135107 On ch=1 n=51 v=0
135120 On ch=1 n=46 v=96
135347 On ch=1 n=46 v=0
135360 On ch=1 n=39 v=96
135587 On ch=1 n=39 v=0
135600 On ch=1 n=27 v=96
135600 On ch=1 n=39 v=96
136055 On ch=1 n=27 v=0
136055 On ch=1 n=39 v=0
136080 On ch=1 n=39 v=96
136307 On ch=1 n=39 v=0
136320 On ch=1 n=48 v=96
136547 On ch=1 n=48 v=0
136560 On ch=1 n=51 v=96
136787 On ch=1 n=51 v=0
136800 On ch=1 n=48 v=96
137027 On ch=1 n=48 v=0
137040 On ch=1 n=39 v=96
137267 On ch=1 n=39 v=0
137280 On ch=1 n=48 v=96
137507 On ch=1 n=48 v=0
137520 On ch=1 n=39 v=96
137520 On ch=1 n=51 v=96
137747 On ch=1 n=39 v=0
137747 On ch=1 n=51 v=0
137760 On ch=1 n=39 v=96
137760 On ch=1 n=51 v=96
138215 On ch=1 n=39 v=0
138215 On ch=1 n=51 v=0
138240 On ch=1 n=39 v=96
138240 On ch=1 n=51 v=96
138695 On ch=1 n=39 v=0
138695 On ch=1 n=51 v=0
138720 On ch=1 n=51 v=96
138947 On ch=1 n=51 v=0
138960 On ch=1 n=48 v=96
139187 On ch=1 n=48 v=0
139200 On ch=1 n=39 v=96
139427 On ch=1 n=39 v=0
139440 On ch=1 n=27 v=96
139440 On ch=1 n=39 v=96
139667 On ch=1 n=27 v=0
139667 On ch=1 n=39 v=0
139680 On ch=1 n=39 v=96
139907 On ch=1 n=39 v=0
139920 On ch=1 n=46 v=96
140147 On ch=1 n=46 v=0
140160 On ch=1 n=46 v=96
140160 On ch=1 n=51 v=96
140160 On ch=1 n=55 v=96
140615 On ch=1 n=46 v=0
140615 On ch=1 n=51 v=0
140615 On ch=1 n=55 v=0
140640 On ch=1 n=51 v=96
140867 On ch=1 n=51 v=0
140880 On ch=1 n=58 v=96
141107 On ch=1 n=58 v=0
141120 On ch=1 n=58 v=96
141120 On ch=1 n=63 v=96
141120 On ch=1 n=67 v=96
141575 On ch=1 n=58 v=0
141575 On ch=1 n=63 v=0
141575 On ch=1 n=67 v=0
141600 On ch=1 n=51 v=96
141827 On ch=1 n=51 v=0
141840 On ch=1 n=58 v=96
142067 On ch=1 n=58 v=0
142080 On ch=1 n=58 v=96
142080 On ch=1 n=63 v=96
142080 On ch=1 n=67 v=96
142535 On ch=1 n=58 v=0
142535 On ch=1 n=63 v=0
142535 On ch=1 n=67 v=0
142560 On ch=1 n=51 v=96
142787 On ch=1 n=51 v=0
142800 On ch=1 n=46 v=96
143027 On ch=1 n=46 v=0
143040 On ch=1 n=39 v=96
143267 On ch=1 n=39 v=0
143280 On ch=1 n=27 v=96
143280 On ch=1 n=39 v=96
143735 On ch=1 n=27 v=0
143735 On ch=1 n=39 v=0
143760 On ch=1 n=39 v=96
143987 On ch=1 n=39 v=0
144000 On ch=1 n=48 v=96
144227 On ch=1 n=48 v=0
144240 On ch=1 n=51 v=96
145151 On ch=1 n=51 v=0
145200 On ch=1 n=41 v=72
145200 On ch=1 n=53 v=72
145655 On ch=1 n=41 v=0
145655 On ch=1 n=53 v=0
145680 On ch=1 n=55 v=72
145680 On ch=1 n=58 v=72
145907 On ch=1 n=55 v=0
145907 On ch=1 n=58 v=0
145920 On ch=1 n=51 v=72
146147 On ch=1 n=51 v=0
146160 On ch=1 n=41 v=72
146160 On ch=1 n=53 v=72
146615 On ch=1 n=41 v=0
146615 On ch=1 n=53 v=0
146640 On ch=1 n=55 v=72
146640 On ch=1 n=58 v=72
146867 On ch=1 n=55 v=0
146867 On ch=1 n=58 v=0
146880 On ch=1 n=51 v=72
147107 On ch=1 n=51 v=0
147120 On ch=1 n=41 v=72
147120 On ch=1 n=53 v=72
147575 On ch=1 n=41 v=0
147575 On ch=1 n=53 v=0
147600 On ch=1 n=55 v=72
147600 On ch=1 n=58 v=72
147827 On ch=1 n=55 v=0
147827 On ch=1 n=58 v=0
147840 On ch=1 n=51 v=72
148067 On ch=1 n=51 v=0
148080 On ch=1 n=41 v=72
148080 On ch=1 n=53 v=72
148535 On ch=1 n=41 v=0
148535 On ch=1 n=53 v=0
148560 On ch=1 n=55 v=72
148560 On ch=1 n=58 v=72
148787 On ch=1 n=55 v=0
148787 On ch=1 n=58 v=0
148800 On ch=1 n=51 v=72
149027 On ch=1 n=51 v=0
149040 On ch=1 n=41 v=72
149040 On ch=1 n=53 v=72
149495 On ch=1 n=41 v=0
149495 On ch=1 n=53 v=0
149520 On ch=1 n=55 v=72
149520 On ch=1 n=58 v=72
149747 On ch=1 n=55 v=0
149747 On ch=1 n=58 v=0
149760 On ch=1 n=51 v=72
149987 On ch=1 n=51 v=0
150000 On ch=1 n=41 v=72
150000 On ch=1 n=53 v=72
150455 On ch=1 n=41 v=0
150455 On ch=1 n=53 v=0
150480 On ch=1 n=55 v=72
150480 On ch=1 n=58 v=72
150707 On ch=1 n=55 v=0
150707 On ch=1 n=58 v=0
150720 On ch=1 n=51 v=72
150947 On ch=1 n=51 v=0
150960 On ch=1 n=41 v=72
150960 On ch=1 n=53 v=72
151415 On ch=1 n=41 v=0
151415 On ch=1 n=53 v=0
151440 On ch=1 n=55 v=72
151440 On ch=1 n=58 v=72
151667 On ch=1 n=55 v=0
151667 On ch=1 n=58 v=0
151680 On ch=1 n=51 v=72
151907 On ch=1 n=51 v=0
151920 On ch=1 n=41 v=72
151920 On ch=1 n=53 v=72
152375 On ch=1 n=41 v=0
152375 On ch=1 n=53 v=0
152400 On ch=1 n=55 v=72
152400 On ch=1 n=58 v=72
152627 On ch=1 n=55 v=0
152627 On ch=1 n=58 v=0
152640 On ch=1 n=51 v=72
152867 On ch=1 n=51 v=0
152880 On ch=1 n=32 v=72
152880 On ch=1 n=44 v=72
153335 On ch=1 n=32 v=0
153335 On ch=1 n=44 v=0
153360 On ch=1 n=55 v=72
153360 On ch=1 n=58 v=72
153587 On ch=1 n=55 v=0
153587 On ch=1 n=58 v=0
153600 On ch=1 n=51 v=72
153827 On ch=1 n=51 v=0
153840 On ch=1 n=32 v=72
153840 On ch=1 n=44 v=72
154295 On ch=1 n=32 v=0
154295 On ch=1 n=44 v=0
154320 On ch=1 n=55 v=72
154320 On ch=1 n=58 v=72
154547 On ch=1 n=55 v=0
154547 On ch=1 n=58 v=0
154560 On ch=1 n=51 v=72
154787 On ch=1 n=51 v=0
154800 On ch=1 n=32 v=72
154800 On ch=1 n=44 v=72
155255 On ch=1 n=32 v=0
155255 On ch=1 n=44 v=0
155280 On ch=1 n=55 v=72
155280 On ch=1 n=58 v=72
155507 On ch=1 n=55 v=0
155507 On ch=1 n=58 v=0
155520 On ch=1 n=51 v=72
155747 On ch=1 n=51 v=0
155760 On ch=1 n=32 v=72
155760 On ch=1 n=44 v=72
156215 On ch=1 n=32 v=0
156215 On ch=1 n=44 v=0
156240 On ch=1 n=55 v=72
156240 On ch=1 n=58 v=72
156467 On ch=1 n=55 v=0
156467 On ch=1 n=58 v=0
156480 On ch=1 n=51 v=72
156707 On ch=1 n=51 v=0
156720 On ch=1 n=32 v=72
156720 On ch=1 n=44 v=72
157175 On ch=1 n=32 v=0
157175 On ch=1 n=44 v=0
157200 On ch=1 n=55 v=72
157200 On ch=1 n=58 v=72
157427 On ch=1 n=55 v=0
157427 On ch=1 n=58 v=0
157440 On ch=1 n=51 v=72
157667 On ch=1 n=51 v=0
157680 On ch=1 n=32 v=72
157680 On ch=1 n=44 v=72
158135 On ch=1 n=32 v=0
158135 On ch=1 n=44 v=0
158160 On ch=1 n=55 v=72
158160 On ch=1 n=58 v=72
158387 On ch=1 n=55 v=0
158387 On ch=1 n=58 v=0
158400 On ch=1 n=51 v=72
158627 On ch=1 n=51 v=0
158640 On ch=1 n=32 v=72
158640 On ch=1 n=44 v=72
159095 On ch=1 n=32 v=0
159095 On ch=1 n=44 v=0
159120 On ch=1 n=55 v=72
159120 On ch=1 n=58 v=72
159347 On ch=1 n=55 v=0
159347 On ch=1 n=58 v=0
159360 On ch=1 n=51 v=72
159587 On ch=1 n=51 v=0
159600 On ch=1 n=32 v=72
159600 On ch=1 n=44 v=72
160055 On ch=1 n=32 v=0
160055 On ch=1 n=44 v=0
160080 On ch=1 n=55 v=72
160080 On ch=1 n=58 v=72
160307 On ch=1 n=55 v=0
160307 On ch=1 n=58 v=0
160320 On ch=1 n=51 v=72
160547 On ch=1 n=51 v=0
160560 On ch=1 n=29 v=72
160560 On ch=1 n=41 v=72
161015 On ch=1 n=29 v=0
161015 On ch=1 n=41 v=0
161040 On ch=1 n=55 v=72
161040 On ch=1 n=58 v=72
161267 On ch=1 n=55 v=0
161267 On ch=1 n=58 v=0
161280 On ch=1 n=51 v=72
161507 On ch=1 n=51 v=0
161520 On ch=1 n=29 v=72
161520 On ch=1 n=41 v=72
161975 On ch=1 n=29 v=0
161975 On ch=1 n=41 v=0
162000 On ch=1 n=55 v=72
162000 On ch=1 n=58 v=72
162227 On ch=1 n=55 v=0
162227 On ch=1 n=58 v=0
162240 On ch=1 n=51 v=72
162467 On ch=1 n=51 v=0
162480 On ch=1 n=29 v=72
162480 On ch=1 n=41 v=72
162935 On ch=1 n=29 v=0
162935 On ch=1 n=41 v=0
162960 On ch=1 n=55 v=72
162960 On ch=1 n=58 v=72
163187 On ch=1 n=55 v=0
163187 On ch=1 n=58 v=0
163200 On ch=1 n=51 v=72
163427 On ch=1 n=51 v=0
163440 On ch=1 n=29 v=72
163440 On ch=1 n=41 v=72
163895 On ch=1 n=29 v=0
163895 On ch=1 n=41 v=0
163920 On ch=1 n=55 v=72
163920 On ch=1 n=58 v=72
164147 On ch=1 n=55 v=0
164147 On ch=1 n=58 v=0
164160 On ch=1 n=51 v=72
164387 On ch=1 n=51 v=0
164400 On ch=1 n=29 v=72
164400 On ch=1 n=41 v=72
164855 On ch=1 n=29 v=0
164855 On ch=1 n=41 v=0
164880 On ch=1 n=55 v=72
164880 On ch=1 n=58 v=72
165107 On ch=1 n=55 v=0
165107 On ch=1 n=58 v=0
165120 On ch=1 n=51 v=72
165347 On ch=1 n=51 v=0
165360 On ch=1 n=29 v=72
165360 On ch=1 n=41 v=72
165815 On ch=1 n=29 v=0
165815 On ch=1 n=41 v=0
165840 On ch=1 n=55 v=72
165840 On ch=1 n=58 v=72
166067 On ch=1 n=55 v=0
166067 On ch=1 n=58 v=0
166080 On ch=1 n=51 v=72
166307 On ch=1 n=51 v=0
166320 On ch=1 n=29 v=72
166320 On ch=1 n=41 v=72
166775 On ch=1 n=29 v=0
166775 On ch=1 n=41 v=0
166800 On ch=1 n=55 v=72
166800 On ch=1 n=58 v=72
167027 On ch=1 n=55 v=0
167027 On ch=1 n=58 v=0
167040 On ch=1 n=51 v=72
167267 On ch=1 n=51 v=0
167280 On ch=1 n=29 v=72
167280 On ch=1 n=41 v=72
167735 On ch=1 n=29 v=0
167735 On ch=1 n=41 v=0
167760 On ch=1 n=55 v=72
167760 On ch=1 n=58 v=72
167987 On ch=1 n=55 v=0
167987 On ch=1 n=58 v=0
168000 On ch=1 n=51 v=72
168227 On ch=1 n=51 v=0
168240 On ch=1 n=32 v=72
168240 On ch=1 n=44 v=72
168695 On ch=1 n=32 v=0
168695 On ch=1 n=44 v=0
168720 On ch=1 n=55 v=72
168720 On ch=1 n=58 v=72
168947 On ch=1 n=55 v=0
168947 On ch=1 n=58 v=0
168960 On ch=1 n=51 v=72
169187 On ch=1 n=51 v=0
169200 On ch=1 n=32 v=72
169200 On ch=1 n=44 v=72
169655 On ch=1 n=32 v=0
169655 On ch=1 n=44 v=0
169680 On ch=1 n=55 v=72
169680 On ch=1 n=58 v=72
169907 On ch=1 n=55 v=0
169907 On ch=1 n=58 v=0
169920 On ch=1 n=51 v=72
170147 On ch=1 n=51 v=0
170160 On ch=1 n=32 v=72
170160 On ch=1 n=44 v=72
170615 On ch=1 n=32 v=0
170615 On ch=1 n=44 v=0
170640 On ch=1 n=55 v=72
170640 On ch=1 n=58 v=72
170867 On ch=1 n=55 v=0
170867 On ch=1 n=58 v=0
170880 On ch=1 n=51 v=72
171107 On ch=1 n=51 v=0
171120 On ch=1 n=32 v=72
171120 On ch=1 n=44 v=72
171575 On ch=1 n=32 v=0
171575 On ch=1 n=44 v=0
171600 On ch=1 n=55 v=72
171600 On ch=1 n=58 v=72
171827 On ch=1 n=55 v=0
171827 On ch=1 n=58 v=0
171840 On ch=1 n=51 v=72
172067 On ch=1 n=51 v=0
172080 On ch=1 n=32 v=72
172080 On ch=1 n=44 v=72
172535 On ch=1 n=32 v=0
172535 On ch=1 n=44 v=0
172560 On ch=1 n=55 v=72
172560 On ch=1 n=58 v=72
172787 On ch=1 n=55 v=0
172787 On ch=1 n=58 v=0
172800 On ch=1 n=51 v=72
173027 On ch=1 n=51 v=0
173040 On ch=1 n=32 v=72
173040 On ch=1 n=44 v=72
173495 On ch=1 n=32 v=0
173495 On ch=1 n=44 v=0
173520 On ch=1 n=55 v=72
173520 On ch=1 n=58 v=72
173747 On ch=1 n=55 v=0
173747 On ch=1 n=58 v=0
173760 On ch=1 n=51 v=72
173987 On ch=1 n=51 v=0
174000 On ch=1 n=32 v=72
174000 On ch=1 n=44 v=72
174455 On ch=1 n=32 v=0
174455 On ch=1 n=44 v=0
174480 On ch=1 n=44 v=72
174707 On ch=1 n=44 v=0
174720 On ch=1 n=51 v=72
174947 On ch=1 n=51 v=0
174960 On ch=1 n=56 v=72
175415 On ch=1 n=56 v=0
175920 On ch=1 n=43 v=80
176147 On ch=1 n=43 v=0
176160 On ch=1 n=50 v=80
176387 On ch=1 n=50 v=0
176400 On ch=1 n=55 v=80
176627 On ch=1 n=55 v=0
176640 On ch=1 n=57 v=80
176867 On ch=1 n=57 v=0
176880 On ch=1 n=58 v=80
177107 On ch=1 n=58 v=0
177120 On ch=1 n=55 v=80
177347 On ch=1 n=55 v=0
177360 On ch=1 n=62 v=80
177587 On ch=1 n=62 v=0
177600 On ch=1 n=58 v=80
177827 On ch=1 n=58 v=0
177840 On ch=1 n=67 v=80
178067 On ch=1 n=67 v=0
178080 On ch=1 n=62 v=80
178307 On ch=1 n=62 v=0
178320 On ch=1 n=58 v=80
178547 On ch=1 n=58 v=0
178560 On ch=1 n=55 v=80
178787 On ch=1 n=55 v=0
178800 On ch=1 n=50 v=80
179027 On ch=1 n=50 v=0
179040 On ch=1 n=43 v=80
179267 On ch=1 n=43 v=0
179280 On ch=1 n=55 v=80
179735 On ch=1 n=55 v=0
179760 On ch=1 n=44 v=80
179987 On ch=1 n=44 v=0
180000 On ch=1 n=51 v=80
180227 On ch=1 n=51 v=0
180240 On ch=1 n=56 v=80
180467 On ch=1 n=56 v=0
180480 On ch=1 n=58 v=80
180707 On ch=1 n=58 v=0
180720 On ch=1 n=60 v=80
180947 On ch=1 n=60 v=0
180960 On ch=1 n=56 v=80
181187 On ch=1 n=56 v=0
181200 On ch=1 n=63 v=80
181427 On ch=1 n=63 v=0
181440 On ch=1 n=60 v=80
181667 On ch=1 n=60 v=0
181680 On ch=1 n=68 v=80
181907 On ch=1 n=68 v=0
181920 On ch=1 n=63 v=80
182147 On ch=1 n=63 v=0
182160 On ch=1 n=60 v=80
182387 On ch=1 n=60 v=0
182400 On ch=1 n=56 v=80
182627 On ch=1 n=56 v=0
182640 On ch=1 n=51 v=80
182867 On ch=1 n=51 v=0
182880 On ch=1 n=43 v=80
183107 On ch=1 n=43 v=0
183120 On ch=1 n=51 v=80
183347 On ch=1 n=51 v=0
183360 On ch=1 n=55 v=80
183587 On ch=1 n=55 v=0
183600 On ch=1 n=41 v=80
183827 On ch=1 n=41 v=0
183840 On ch=1 n=48 v=80
184067 On ch=1 n=48 v=0
184080 On ch=1 n=53 v=80
184307 On ch=1 n=53 v=0
184320 On ch=1 n=55 v=80
184547 On ch=1 n=55 v=0
184560 On ch=1 n=56 v=80
184787 On ch=1 n=56 v=0
184800 On ch=1 n=53 v=80
185027 On ch=1 n=53 v=0
185040 On ch=1 n=60 v=80
185267 On ch=1 n=60 v=0
185280 On ch=1 n=56 v=80
185507 On ch=1 n=56 v=0
185520 On ch=1 n=63 v=80
185747 On ch=1 n=63 v=0
185760 On ch=1 n=60 v=80
185987 On ch=1 n=60 v=0
186000 On ch=1 n=56 v=80
186227 On ch=1 n=56 v=0
186240 On ch=1 n=53 v=80
186467 On ch=1 n=53 v=0
186480 On ch=1 n=48 v=80
186707 On ch=1 n=48 v=0
186720 On ch=1 n=41 v=80
186947 On ch=1 n=41 v=0
186960 On ch=1 n=53 v=80
187187 On ch=1 n=53 v=0
187200 On ch=1 n=48 v=80
187427 On ch=1 n=48 v=0
187440 On ch=1 n=34 v=80
187667 On ch=1 n=34 v=0
187680 On ch=1 n=46 v=80
187907 On ch=1 n=46 v=0
187920 On ch=1 n=46 v=80
188147 On ch=1 n=46 v=0
188160 On ch=1 n=53 v=80
188160 On ch=1 n=58 v=80
188615 On ch=1 n=53 v=0
188615 On ch=1 n=58 v=0
188640 On ch=1 n=46 v=80
188640 On ch=1 n=58 v=80
188867 On ch=1 n=46 v=0
188867 On ch=1 n=58 v=0
188880 On ch=1 n=47 v=80
188880 On ch=1 n=59 v=80
189791 On ch=1 n=47 v=0
189791 On ch=1 n=59 v=0
189840 On ch=1 n=47 v=80
189900 On ch=1 n=55 v=80
189960 On ch=1 n=62 v=80
190295 On ch=1 n=47 v=0
190298 On ch=1 n=55 v=0
190301 On ch=1 n=62 v=0
191280 On ch=1 n=32 v=80
191280 On ch=1 n=44 v=80
191735 On ch=1 n=32 v=0
191735 On ch=1 n=44 v=0
191760 On ch=1 n=44 v=80
191987 On ch=1 n=44 v=0
192000 On ch=1 n=51 v=80
192227 On ch=1 n=51 v=0
192240 On ch=1 n=58 v=80
192467 On ch=1 n=58 v=0
192480 On ch=1 n=56 v=80
192707 On ch=1 n=56 v=0
192720 On ch=1 n=63 v=80
192947 On ch=1 n=63 v=0
192960 On ch=1 n=63 v=80
192960 On ch=1 n=70 v=80
193415 On ch=1 n=63 v=0
193415 On ch=1 n=70 v=0
193440 On ch=1 n=56 v=80
193667 On ch=1 n=56 v=0
193680 On ch=1 n=60 v=80
193680 On ch=1 n=63 v=80
194135 On ch=1 n=60 v=0
194135 On ch=1 n=63 v=0
194160 On ch=1 n=56 v=80
194387 On ch=1 n=56 v=0
194400 On ch=1 n=51 v=80
194627 On ch=1 n=51 v=0
194640 On ch=1 n=44 v=80
195095 On ch=1 n=44 v=0
195120 On ch=1 n=32 v=80
195120 On ch=1 n=44 v=80
195575 On ch=1 n=32 v=0
195575 On ch=1 n=44 v=0
195600 On ch=1 n=44 v=80
195827 On ch=1 n=44 v=0
195840 On ch=1 n=51 v=80
196067 On ch=1 n=51 v=0
196080 On ch=1 n=58 v=80
196307 On ch=1 n=58 v=0
196320 On ch=1 n=56 v=80
196547 On ch=1 n=56 v=0
196560 On ch=1 n=56 v=80
196787 On ch=1 n=56 v=0
196800 On ch=1 n=60 v=80
196800 On ch=1 n=63 v=80
196800 On ch=1 n=70 v=80
197255 On ch=1 n=60 v=0
197255 On ch=1 n=63 v=0
197255 On ch=1 n=70 v=0
197280 On ch=1 n=56 v=80
197507 On ch=1 n=56 v=0
197520 On ch=1 n=60 v=80
197520 On ch=1 n=63 v=80
197520 On ch=1 n=70 v=80
197975 On ch=1 n=60 v=0
197975 On ch=1 n=63 v=0
197975 On ch=1 n=70 v=0
198000 On ch=1 n=56 v=80
198227 On ch=1 n=56 v=0
198240 On ch=1 n=65 v=80
198923 On ch=1 n=65 v=0
198960 On ch=1 n=31 v=80
199187 On ch=1 n=31 v=0
199200 On ch=1 n=43 v=80
199427 On ch=1 n=43 v=0
199440 On ch=1 n=43 v=80
199667 On ch=1 n=43 v=0
199680 On ch=1 n=50 v=80
199907 On ch=1 n=50 v=0
199920 On ch=1 n=43 v=80
200147 On ch=1 n=43 v=0
200160 On ch=1 n=50 v=80
200387 On ch=1 n=50 v=0
200400 On ch=1 n=55 v=80
200627 On ch=1 n=55 v=0
200640 On ch=1 n=58 v=80
200867 On ch=1 n=58 v=0
200880 On ch=1 n=62 v=80
201107 On ch=1 n=62 v=0
201120 On ch=1 n=55 v=80
201347 On ch=1 n=55 v=0
201360 On ch=1 n=67 v=80
201587 On ch=1 n=67 v=0
201600 On ch=1 n=62 v=80
201827 On ch=1 n=62 v=0
201840 On ch=1 n=58 v=80
202067 On ch=1 n=58 v=0
202080 On ch=1 n=55 v=80
202307 On ch=1 n=55 v=0
202320 On ch=1 n=50 v=80
202547 On ch=1 n=50 v=0
202560 On ch=1 n=43 v=80
202787 On ch=1 n=43 v=0
202800 On ch=1 n=36 v=80
203027 On ch=1 n=36 v=0
203040 On ch=1 n=48 v=80
203267 On ch=1 n=48 v=0
203280 On ch=1 n=48 v=80
203507 On ch=1 n=48 v=0
203520 On ch=1 n=55 v=80
203747 On ch=1 n=55 v=0
203760 On ch=1 n=60 v=80
203987 On ch=1 n=60 v=0
204000 On ch=1 n=62 v=80
204227 On ch=1 n=62 v=0
204240 On ch=1 n=63 v=80
204467 On ch=1 n=63 v=0
204480 On ch=1 n=60 v=80
204707 On ch=1 n=60 v=0
204720 On ch=1 n=67 v=80
204947 On ch=1 n=67 v=0
204960 On ch=1 n=63 v=80
205187 On ch=1 n=63 v=0
205200 On ch=1 n=60 v=80
205427 On ch=1 n=60 v=0
205440 On ch=1 n=55 v=80
205667 On ch=1 n=55 v=0
205680 On ch=1 n=48 v=80
205680 On ch=1 n=60 v=80
206135 On ch=1 n=48 v=0
206135 On ch=1 n=60 v=0
206160 On ch=1 n=46 v=80
206160 On ch=1 n=58 v=80
206615 On ch=1 n=46 v=0
206615 On ch=1 n=58 v=0
206640 On ch=1 n=32 v=80
206640 On ch=1 n=44 v=80
207095 On ch=1 n=32 v=0
207095 On ch=1 n=44 v=0
207120 On ch=1 n=44 v=80
207347 On ch=1 n=44 v=0
207360 On ch=1 n=51 v=80
207587 On ch=1 n=51 v=0
207600 On ch=1 n=58 v=80
207827 On ch=1 n=58 v=0
207840 On ch=1 n=56 v=80
208067 On ch=1 n=56 v=0
208080 On ch=1 n=63 v=80
208307 On ch=1 n=63 v=0
208320 On ch=1 n=63 v=80
208320 On ch=1 n=70 v=80
208775 On ch=1 n=63 v=0
208775 On ch=1 n=70 v=0
208800 On ch=1 n=56 v=80
209027 On ch=1 n=56 v=0
209040 On ch=1 n=60 v=80
209040 On ch=1 n=63 v=80
209495 On ch=1 n=60 v=0
209495 On ch=1 n=63 v=0
209520 On ch=1 n=56 v=80
209747 On ch=1 n=56 v=0
209760 On ch=1 n=51 v=80
209987 On ch=1 n=51 v=0
210000 On ch=1 n=44 v=80
210455 On ch=1 n=44 v=0
210480 On ch=1 n=32 v=80
210480 On ch=1 n=44 v=80
210935 On ch=1 n=32 v=0
210935 On ch=1 n=44 v=0
210960 On ch=1 n=44 v=80
211187 On ch=1 n=44 v=0
211200 On ch=1 n=51 v=80
211427 On ch=1 n=51 v=0
211440 On ch=1 n=58 v=80
211667 On ch=1 n=58 v=0
211680 On ch=1 n=56 v=80
211907 On ch=1 n=56 v=0
211920 On ch=1 n=56 v=80
212147 On ch=1 n=56 v=0
212160 On ch=1 n=60 v=80
212160 On ch=1 n=63 v=80
212160 On ch=1 n=70 v=80
212615 On ch=1 n=60 v=0
212615 On ch=1 n=63 v=0
212615 On ch=1 n=70 v=0
212640 On ch=1 n=56 v=80
212867 On ch=1 n=56 v=0
212880 On ch=1 n=60 v=80
212880 On ch=1 n=63 v=80
212880 On ch=1 n=70 v=80
213335 On ch=1 n=60 v=0
213335 On ch=1 n=63 v=0
213335 On ch=1 n=70 v=0
213360 On ch=1 n=58 v=80
213587 On ch=1 n=58 v=0
213600 On ch=1 n=53 v=80
213827 On ch=1 n=53 v=0
213840 On ch=1 n=44 v=80
214295 On ch=1 n=44 v=0
214320 On ch=1 n=31 v=80
214547 On ch=1 n=31 v=0
214560 On ch=1 n=43 v=80
214787 On ch=1 n=43 v=0
214800 On ch=1 n=43 v=80
215027 On ch=1 n=43 v=0
215040 On ch=1 n=50 v=80
215267 On ch=1 n=50 v=0
215280 On ch=1 n=43 v=80
215507 On ch=1 n=43 v=0
215520 On ch=1 n=50 v=80
215747 On ch=1 n=50 v=0
215760 On ch=1 n=55 v=80
215987 On ch=1 n=55 v=0
216000 On ch=1 n=57 v=80
216227 On ch=1 n=57 v=0
216240 On ch=1 n=58 v=80
216467 On ch=1 n=58 v=0
216480 On ch=1 n=55 v=80
216707 On ch=1 n=55 v=0
216720 On ch=1 n=62 v=80
216947 On ch=1 n=62 v=0
216960 On ch=1 n=58 v=80
217187 On ch=1 n=58 v=0
217200 On ch=1 n=55 v=80
217427 On ch=1 n=55 v=0
217440 On ch=1 n=50 v=80
217667 On ch=1 n=50 v=0
217680 On ch=1 n=43 v=80
218135 On ch=1 n=43 v=0
218160 On ch=1 n=36 v=80
218387 On ch=1 n=36 v=0
218400 On ch=1 n=48 v=80
218627 On ch=1 n=48 v=0
218640 On ch=1 n=48 v=80
218867 On ch=1 n=48 v=0
218880 On ch=1 n=55 v=80
219107 On ch=1 n=55 v=0
219120 On ch=1 n=60 v=80
219347 On ch=1 n=60 v=0
219360 On ch=1 n=55 v=80
219587 On ch=1 n=55 v=0
219600 On ch=1 n=48 v=80
219827 On ch=1 n=48 v=0
219840 On ch=1 n=37 v=80
219840 On ch=1 n=49 v=80
220523 On ch=1 n=37 v=0
220523 On ch=1 n=49 v=0
220560 On ch=1 n=49 v=80
220640 On ch=1 n=53 v=80
220680 On ch=1 n=56 v=80
220720 On ch=1 n=60 v=80
221243 On ch=1 n=49 v=0
221249 On ch=1 n=56 v=0
221280 On ch=1 n=49 v=80
221340 On ch=1 n=53 v=80
221361 On ch=1 n=53 v=0
221365 On ch=1 n=60 v=0
221400 On ch=1 n=56 v=80
221460 On ch=1 n=60 v=80
221963 On ch=1 n=49 v=0
221966 On ch=1 n=53 v=0
221969 On ch=1 n=56 v=0
221972 On ch=1 n=60 v=0
222000 On ch=1 n=49 v=80
222060 On ch=1 n=53 v=80
222120 On ch=1 n=56 v=80
222180 On ch=1 n=60 v=80
222683 On ch=1 n=49 v=0
222686 On ch=1 n=53 v=0
222689 On ch=1 n=56 v=0
222692 On ch=1 n=60 v=0
222720 On ch=1 n=49 v=80
222780 On ch=1 n=53 v=80
222840 On ch=1 n=56 v=80
222900 On ch=1 n=60 v=80
223403 On ch=1 n=49 v=0
223406 On ch=1 n=53 v=0
223409 On ch=1 n=56 v=0
223412 On ch=1 n=60 v=0
223440 On ch=1 n=49 v=80
223500 On ch=1 n=53 v=80
223560 On ch=1 n=56 v=80
223620 On ch=1 n=60 v=80
224123 On ch=1 n=49 v=0
224126 On ch=1 n=53 v=0
224129 On ch=1 n=56 v=0
224132 On ch=1 n=60 v=0
224160 KeySig 250 major
224160 On ch=1 n=39 v=80
224160 On ch=1 n=51 v=80
224387 On ch=1 n=39 v=0
224387 On ch=1 n=51 v=0
224400 On ch=1 n=46 v=80
224627 On ch=1 n=46 v=0
224640 On ch=1 n=51 v=80
224867 On ch=1 n=51 v=0
224880 On ch=1 n=54 v=80
225107 On ch=1 n=54 v=0
225120 On ch=1 n=58 v=80
225347 On ch=1 n=58 v=0
225360 On ch=1 n=51 v=80
225587 On ch=1 n=51 v=0
225600 On ch=1 n=58 v=80
225827 On ch=1 n=58 v=0
225840 On ch=1 n=54 v=80
226067 On ch=1 n=54 v=0
226080 On ch=1 n=63 v=80
226307 On ch=1 n=63 v=0
226320 On ch=1 n=58 v=80
226547 On ch=1 n=58 v=0
226560 On ch=1 n=54 v=80
226787 On ch=1 n=54 v=0
226800 On ch=1 n=51 v=80
227027 On ch=1 n=51 v=0
227040 On ch=1 n=46 v=80
227267 On ch=1 n=46 v=0
227280 On ch=1 n=39 v=80
227507 On ch=1 n=39 v=0
227520 On ch=1 n=51 v=80
227747 On ch=1 n=51 v=0
227760 On ch=1 n=46 v=80
227987 On ch=1 n=46 v=0
228000 On ch=1 n=39 v=80
228227 On ch=1 n=39 v=0
228240 On ch=1 n=47 v=80
228467 On ch=1 n=47 v=0
228480 On ch=1 n=51 v=80
228707 On ch=1 n=51 v=0
228720 On ch=1 n=51 v=80
228947 On ch=1 n=51 v=0
228960 On ch=1 n=59 v=80
229187 On ch=1 n=59 v=0
229200 On ch=1 n=51 v=80
229427 On ch=1 n=51 v=0
229440 On ch=1 n=59 v=80
229667 On ch=1 n=59 v=0
229680 On ch=1 n=63 v=80
229907 On ch=1 n=63 v=0
229920 On ch=1 n=59 v=80
230147 On ch=1 n=59 v=0
230160 On ch=1 n=51 v=80
230387 On ch=1 n=51 v=0
230400 On ch=1 n=59 v=80
230627 On ch=1 n=59 v=0
230640 On ch=1 n=63 v=80
230867 On ch=1 n=63 v=0
230880 On ch=1 n=59 v=80
231107 On ch=1 n=59 v=0
231120 On ch=1 n=51 v=80
231347 On ch=1 n=51 v=0
231360 On ch=1 n=51 v=80
231587 On ch=1 n=51 v=0
231600 On ch=1 n=47 v=80
231827 On ch=1 n=47 v=0
231840 On ch=1 n=39 v=80
232067 On ch=1 n=39 v=0
232080 On ch=1 n=49 v=80
232307 On ch=1 n=49 v=0
232320 On ch=1 n=53 v=80
232547 On ch=1 n=53 v=0
232560 On ch=1 n=49 v=80
232787 On ch=1 n=49 v=0
232800 On ch=1 n=39 v=80
233027 On ch=1 n=39 v=0
233040 On ch=1 n=49 v=80
233267 On ch=1 n=49 v=0
233280 On ch=1 n=53 v=80
233507 On ch=1 n=53 v=0
233520 On ch=1 n=49 v=80
233747 On ch=1 n=49 v=0
233760 On ch=1 n=39 v=80
233987 On ch=1 n=39 v=0
234000 On ch=1 n=49 v=80
234227 On ch=1 n=49 v=0
234240 On ch=1 n=53 v=80
234467 On ch=1 n=53 v=0
234480 On ch=1 n=49 v=80
234707 On ch=1 n=49 v=0
234720 On ch=1 n=39 v=80
234947 On ch=1 n=39 v=0
234960 On ch=1 n=49 v=80
235187 On ch=1 n=49 v=0
235200 On ch=1 n=53 v=80
235427 On ch=1 n=53 v=0
235440 On ch=1 n=49 v=80
235667 On ch=1 n=49 v=0
235680 On ch=1 n=39 v=80
235907 On ch=1 n=39 v=0
235920 On ch=1 n=48 v=80
236147 On ch=1 n=48 v=0
236160 On ch=1 n=51 v=80
236387 On ch=1 n=51 v=0
236400 On ch=1 n=51 v=80
236627 On ch=1 n=51 v=0
236640 On ch=1 n=60 v=80
236867 On ch=1 n=60 v=0
236880 On ch=1 n=51 v=80
237107 On ch=1 n=51 v=0
237120 On ch=1 n=60 v=80
237347 On ch=1 n=60 v=0
237360 On ch=1 n=63 v=80
237587 On ch=1 n=63 v=0
237600 On ch=1 n=60 v=80
237827 On ch=1 n=60 v=0
237840 On ch=1 n=51 v=80
238067 On ch=1 n=51 v=0
238080 On ch=1 n=63 v=80
238307 On ch=1 n=63 v=0
238320 On ch=1 n=60 v=80
238547 On ch=1 n=60 v=0
238560 On ch=1 n=51 v=80
238787 On ch=1 n=51 v=0
238800 On ch=1 n=51 v=80
239027 On ch=1 n=51 v=0
239040 On ch=1 n=48 v=80
239267 On ch=1 n=48 v=0
239280 On ch=1 n=39 v=80
239507 On ch=1 n=39 v=0
239520 On ch=1 n=27 v=80
239520 On ch=1 n=39 v=80
239975 On ch=1 n=27 v=0
239975 On ch=1 n=39 v=0
240000 On ch=1 n=39 v=80
240227 On ch=1 n=39 v=0
240240 On ch=1 n=46 v=80
240467 On ch=1 n=46 v=0
240480 On ch=1 n=51 v=80
240707 On ch=1 n=51 v=0
240720 On ch=1 n=54 v=80
240947 On ch=1 n=54 v=0
240960 On ch=1 n=58 v=80
241187 On ch=1 n=58 v=0
241200 On ch=1 n=51 v=80
241427 On ch=1 n=51 v=0
241440 On ch=1 n=63 v=80
241667 On ch=1 n=63 v=0
241680 On ch=1 n=58 v=80
241907 On ch=1 n=58 v=0
241920 On ch=1 n=54 v=80
242147 On ch=1 n=54 v=0
242160 On ch=1 n=51 v=80
242387 On ch=1 n=51 v=0
242400 On ch=1 n=46 v=80
242627 On ch=1 n=46 v=0
242640 On ch=1 n=42 v=80
242867 On ch=1 n=42 v=0
242880 On ch=1 n=39 v=80
243107 On ch=1 n=39 v=0
243120 On ch=1 n=34 v=80
243347 On ch=1 n=34 v=0
243360 On ch=1 n=29 v=80
243587 On ch=1 n=29 v=0
243600 On ch=1 n=41 v=80
243827 On ch=1 n=41 v=0
243840 On ch=1 n=44 v=80
244067 On ch=1 n=44 v=0
244080 On ch=1 n=49 v=80
244307 On ch=1 n=49 v=0
244320 On ch=1 n=41 v=80
244547 On ch=1 n=41 v=0
244560 On ch=1 n=49 v=80
244787 On ch=1 n=49 v=0
244800 On ch=1 n=53 v=80
245027 On ch=1 n=53 v=0
245040 On ch=1 n=56 v=80
245267 On ch=1 n=56 v=0
245280 On ch=1 n=65 v=80
245507 On ch=1 n=65 v=0
245520 On ch=1 n=61 v=80
245747 On ch=1 n=61 v=0
245760 On ch=1 n=56 v=80
245987 On ch=1 n=56 v=0
246000 On ch=1 n=53 v=80
246227 On ch=1 n=53 v=0
246240 On ch=1 n=49 v=80
246467 On ch=1 n=49 v=0
246480 On ch=1 n=41 v=80
246707 On ch=1 n=41 v=0
246720 On ch=1 n=53 v=80
246947 On ch=1 n=53 v=0
246960 On ch=1 n=49 v=80
247187 On ch=1 n=49 v=0
247200 On ch=1 n=30 v=80
247427 On ch=1 n=30 v=0
247440 On ch=1 n=42 v=80
247667 On ch=1 n=42 v=0
247680 On ch=1 n=42 v=80
247907 On ch=1 n=42 v=0
247920 On ch=1 n=49 v=80
248147 On ch=1 n=49 v=0
248160 On ch=1 n=42 v=80
248387 On ch=1 n=42 v=0
248400 On ch=1 n=49 v=80
248627 On ch=1 n=49 v=0
248640 On ch=1 n=54 v=80
248867 On ch=1 n=54 v=0
248880 On ch=1 n=58 v=80
249107 On ch=1 n=58 v=0
249120 On ch=1 n=66 v=80
249347 On ch=1 n=66 v=0
249360 On ch=1 n=61 v=80
249587 On ch=1 n=61 v=0
249600 On ch=1 n=58 v=80
249827 On ch=1 n=58 v=0
249840 On ch=1 n=54 v=80
250067 On ch=1 n=54 v=0
250080 On ch=1 n=49 v=80
250307 On ch=1 n=49 v=0
250320 On ch=1 n=42 v=80
250547 On ch=1 n=42 v=0
250560 On ch=1 n=42 v=80
250787 On ch=1 n=42 v=0
250800 On ch=1 n=30 v=80
251027 On ch=1 n=30 v=0
251040 On ch=1 n=32 v=80
251040 On ch=1 n=44 v=80
251495 On ch=1 n=32 v=0
251495 On ch=1 n=44 v=0
251520 On ch=1 n=44 v=80
251747 On ch=1 n=44 v=0
251760 On ch=1 n=51 v=80
251760 On ch=1 n=56 v=80
252215 On ch=1 n=51 v=0
252215 On ch=1 n=56 v=0
252240 On ch=1 n=44 v=80
252467 On ch=1 n=44 v=0
252480 On ch=1 n=51 v=80
252480 On ch=1 n=56 v=80
252935 On ch=1 n=51 v=0
252935 On ch=1 n=56 v=0
252960 On ch=1 n=34 v=80
252960 On ch=1 n=46 v=80
253187 On ch=1 n=34 v=0
253187 On ch=1 n=46 v=0
253200 On ch=1 n=46 v=80
253427 On ch=1 n=46 v=0
253440 On ch=1 n=53 v=80
253667 On ch=1 n=53 v=0
253680 On ch=1 n=53 v=80
253680 On ch=1 n=58 v=80
254135 On ch=1 n=53 v=0
254135 On ch=1 n=58 v=0
254160 On ch=1 n=46 v=80
254387 On ch=1 n=46 v=0
254400 On ch=1 n=58 v=80
254627 On ch=1 n=58 v=0
254640 On ch=1 n=53 v=80
254867 On ch=1 n=53 v=0
254880 KeySig 253 major
254880 On ch=1 n=36 v=80
254880 On ch=1 n=48 v=80
255335 On ch=1 n=36 v=0
255335 On ch=1 n=48 v=0
255360 On ch=1 n=43 v=80
255587 On ch=1 n=43 v=0
255600 On ch=1 n=48 v=80
255827 On ch=1 n=48 v=0
255840 On ch=1 n=51 v=80
255840 On ch=1 n=55 v=80
256067 On ch=1 n=51 v=0
256067 On ch=1 n=55 v=0
256080 On ch=1 n=51 v=80
256080 On ch=1 n=55 v=80
256307 On ch=1 n=51 v=0
256307 On ch=1 n=55 v=0
256320 On ch=1 n=51 v=80
256320 On ch=1 n=55 v=80
256547 On ch=1 n=51 v=0
256547 On ch=1 n=55 v=0
256560 On ch=1 n=51 v=80
256560 On ch=1 n=55 v=80
257015 On ch=1 n=51 v=0
257015 On ch=1 n=55 v=0
257040 On ch=1 n=51 v=80
257040 On ch=1 n=55 v=80
257267 On ch=1 n=51 v=0
257267 On ch=1 n=55 v=0
257280 On ch=1 n=51 v=80
257280 On ch=1 n=55 v=80
257735 On ch=1 n=51 v=0
257735 On ch=1 n=55 v=0
257760 On ch=1 n=48 v=80
257987 On ch=1 n=48 v=0
258000 On ch=1 n=43 v=80
258227 On ch=1 n=43 v=0
258240 On ch=1 n=36 v=80
258695 On ch=1 n=36 v=0
258720 On ch=1 n=31 v=80
258947 On ch=1 n=31 v=0
258960 On ch=1 n=43 v=80
259187 On ch=1 n=43 v=0
259200 On ch=1 n=43 v=80
259427 On ch=1 n=43 v=0
259440 On ch=1 n=50 v=80
259667 On ch=1 n=50 v=0
259680 On ch=1 n=55 v=80
259907 On ch=1 n=55 v=0
259920 On ch=1 n=50 v=80
260147 On ch=1 n=50 v=0
260160 On ch=1 n=43 v=80
260387 On ch=1 n=43 v=0
260400 On ch=1 n=32 v=80
260400 On ch=1 n=44 v=80
260855 On ch=1 n=32 v=0
260855 On ch=1 n=44 v=0
260880 On ch=1 n=44 v=80
261107 On ch=1 n=44 v=0
261120 On ch=1 n=51 v=80
261347 On ch=1 n=51 v=0
261360 On ch=1 n=56 v=80
261815 On ch=1 n=56 v=0
261840 On ch=1 n=56 v=80
262067 On ch=1 n=56 v=0
262080 On ch=1 n=51 v=80
262307 On ch=1 n=51 v=0
262320 On ch=1 n=44 v=80
262547 On ch=1 n=44 v=0
262560 On ch=1 n=36 v=80
262787 On ch=1 n=36 v=0
262800 On ch=1 n=43 v=80
263027 On ch=1 n=43 v=0
263040 On ch=1 n=48 v=80
263267 On ch=1 n=48 v=0
263280 On ch=1 n=51 v=80
263507 On ch=1 n=51 v=0
263520 On ch=1 n=51 v=80
263520 On ch=1 n=55 v=80
263747 On ch=1 n=51 v=0
263747 On ch=1 n=55 v=0
263760 On ch=1 n=51 v=80
263760 On ch=1 n=55 v=80
263987 On ch=1 n=51 v=0
263987 On ch=1 n=55 v=0
264000 On ch=1 n=51 v=80
264000 On ch=1 n=55 v=80
264227 On ch=1 n=51 v=0
264227 On ch=1 n=55 v=0
264240 On ch=1 n=51 v=80
264240 On ch=1 n=55 v=80
264695 On ch=1 n=51 v=0
264695 On ch=1 n=55 v=0
264720 On ch=1 n=55 v=80
264947 On ch=1 n=55 v=0
264960 On ch=1 n=51 v=80
265187 On ch=1 n=51 v=0
265200 On ch=1 n=48 v=80
265427 On ch=1 n=48 v=0
265440 On ch=1 n=43 v=80
265667 On ch=1 n=43 v=0
265680 On ch=1 n=36 v=80
265907 On ch=1 n=36 v=0
265920 On ch=1 n=43 v=80
266147 On ch=1 n=43 v=0
266160 On ch=1 n=48 v=80
266387 On ch=1 n=48 v=0
266400 On ch=1 n=31 v=80
266627 On ch=1 n=31 v=0
266640 On ch=1 n=43 v=80
266867 On ch=1 n=43 v=0
266880 On ch=1 n=43 v=80
267107 On ch=1 n=43 v=0
267120 On ch=1 n=50 v=80
267347 On ch=1 n=50 v=0
267360 On ch=1 n=55 v=80
267815 On ch=1 n=55 v=0
267840 On ch=1 n=55 v=80
268067 On ch=1 n=55 v=0
268080 On ch=1 n=50 v=80
268307 On ch=1 n=50 v=0
268320 On ch=1 n=32 v=80
268320 On ch=1 n=44 v=80
268775 On ch=1 n=32 v=0
268775 On ch=1 n=44 v=0
268800 On ch=1 n=44 v=80
268800 On ch=1 n=51 v=80
268800 On ch=1 n=56 v=80
269255 On ch=1 n=44 v=0
269255 On ch=1 n=51 v=0
269255 On ch=1 n=56 v=0
269280 On ch=1 n=51 v=80
269280 On ch=1 n=56 v=80
269507 On ch=1 n=51 v=0
269507 On ch=1 n=56 v=0
269520 On ch=1 n=44 v=80
270203 On ch=1 n=44 v=0
270240 On ch=1 n=36 v=80
270467 On ch=1 n=36 v=0
270480 On ch=1 n=48 v=80
270707 On ch=1 n=48 v=0
270720 On ch=1 n=48 v=80
270947 On ch=1 n=48 v=0
270960 On ch=1 n=55 v=80
271187 On ch=1 n=55 v=0
271200 On ch=1 n=60 v=80
271427 On ch=1 n=60 v=0
271440 On ch=1 n=55 v=80
271667 On ch=1 n=55 v=0
271680 On ch=1 n=48 v=80
272135 On ch=1 n=48 v=0
272160 On ch=1 n=48 v=80
272387 On ch=1 n=48 v=0
272400 On ch=1 n=60 v=80
272627 On ch=1 n=60 v=0
272640 On ch=1 n=55 v=80
272867 On ch=1 n=55 v=0
272880 On ch=1 n=48 v=80
273107 On ch=1 n=48 v=0
273120 On ch=1 n=43 v=80
273347 On ch=1 n=43 v=0
273360 On ch=1 n=36 v=80
273587 On ch=1 n=36 v=0
273600 On ch=1 n=48 v=80
273827 On ch=1 n=48 v=0
273840 On ch=1 n=43 v=80
274067 On ch=1 n=43 v=0
274080 On ch=1 n=31 v=80
274307 On ch=1 n=31 v=0
274320 On ch=1 n=43 v=80
274547 On ch=1 n=43 v=0
274560 On ch=1 n=43 v=80
274787 On ch=1 n=43 v=0
274800 On ch=1 n=50 v=80
275027 On ch=1 n=50 v=0
275040 On ch=1 n=55 v=80
275267 On ch=1 n=55 v=0
275280 On ch=1 n=50 v=80
275507 On ch=1 n=50 v=0
275520 On ch=1 n=43 v=80
275975 On ch=1 n=43 v=0
276000 On ch=1 n=32 v=80
276227 On ch=1 n=32 v=0
276240 On ch=1 n=44 v=80
276467 On ch=1 n=44 v=0
276480 On ch=1 n=44 v=80
276707 On ch=1 n=44 v=0
276720 On ch=1 n=51 v=80
276947 On ch=1 n=51 v=0
276960 On ch=1 n=56 v=80
277187 On ch=1 n=56 v=0
277200 On ch=1 n=51 v=80
277427 On ch=1 n=51 v=0
277440 On ch=1 n=44 v=80
277440 On ch=1 n=51 v=80
277895 On ch=1 n=44 v=0
277895 On ch=1 n=51 v=0
277920 On ch=1 n=36 v=80
277920 On ch=1 n=48 v=80
278375 On ch=1 n=36 v=0
278375 On ch=1 n=48 v=0
278400 On ch=1 n=43 v=80
278627 On ch=1 n=43 v=0
278640 On ch=1 n=48 v=80
278867 On ch=1 n=48 v=0
278880 On ch=1 n=51 v=80
278880 On ch=1 n=55 v=80
279107 On ch=1 n=51 v=0
279107 On ch=1 n=55 v=0
279120 On ch=1 n=51 v=80
279120 On ch=1 n=55 v=80
279347 On ch=1 n=51 v=0
279347 On ch=1 n=55 v=0
279360 On ch=1 n=51 v=80
279360 On ch=1 n=55 v=80
279587 On ch=1 n=51 v=0
279587 On ch=1 n=55 v=0
279600 On ch=1 n=51 v=80
279600 On ch=1 n=55 v=80
280055 On ch=1 n=51 v=0
280055 On ch=1 n=55 v=0
280080 On ch=1 n=51 v=80
280080 On ch=1 n=55 v=80
280307 On ch=1 n=51 v=0
280307 On ch=1 n=55 v=0
280320 On ch=1 n=51 v=80
280320 On ch=1 n=55 v=80
280775 On ch=1 n=51 v=0
280775 On ch=1 n=55 v=0
280800 On ch=1 n=48 v=80
281027 On ch=1 n=48 v=0
281040 On ch=1 n=43 v=80
281267 On ch=1 n=43 v=0
281280 On ch=1 n=36 v=80
281735 On ch=1 n=36 v=0
281760 On ch=1 n=31 v=80
281987 On ch=1 n=31 v=0
282000 On ch=1 n=43 v=80
282227 On ch=1 n=43 v=0
282240 On ch=1 n=43 v=80
282467 On ch=1 n=43 v=0
282480 On ch=1 n=50 v=80
282707 On ch=1 n=50 v=0
282720 On ch=1 n=55 v=80
282947 On ch=1 n=55 v=0
282960 On ch=1 n=50 v=80
283187 On ch=1 n=50 v=0
283200 On ch=1 n=43 v=80
283427 On ch=1 n=43 v=0
283440 On ch=1 n=32 v=80
283440 On ch=1 n=44 v=80
283895 On ch=1 n=32 v=0
283895 On ch=1 n=44 v=0
283920 On ch=1 n=44 v=80
284147 On ch=1 n=44 v=0
284160 On ch=1 n=51 v=80
284387 On ch=1 n=51 v=0
284400 On ch=1 n=56 v=80
285083 On ch=1 n=56 v=0
285600 On ch=1 n=43 v=80
285827 On ch=1 n=43 v=0
285840 On ch=1 n=50 v=80
286067 On ch=1 n=50 v=0
286080 On ch=1 n=55 v=80
286307 On ch=1 n=55 v=0
286320 On ch=1 n=57 v=80
286547 On ch=1 n=57 v=0
286560 On ch=1 n=58 v=80
286787 On ch=1 n=58 v=0
286800 On ch=1 n=55 v=80
287027 On ch=1 n=55 v=0
287040 On ch=1 n=62 v=80
287267 On ch=1 n=62 v=0
287280 On ch=1 n=58 v=80
287507 On ch=1 n=58 v=0
287520 On ch=1 n=67 v=80
287747 On ch=1 n=67 v=0
287760 On ch=1 n=62 v=80
287987 On ch=1 n=62 v=0
288000 On ch=1 n=58 v=80
288227 On ch=1 n=58 v=0
288240 On ch=1 n=55 v=80
288467 On ch=1 n=55 v=0
288480 On ch=1 n=50 v=80
288707 On ch=1 n=50 v=0
288720 On ch=1 n=43 v=80
288947 On ch=1 n=43 v=0
288960 On ch=1 n=55 v=80
289415 On ch=1 n=55 v=0
289440 On ch=1 n=44 v=80
289667 On ch=1 n=44 v=0
289680 On ch=1 n=51 v=80
289907 On ch=1 n=51 v=0
289920 On ch=1 n=56 v=80
290147 On ch=1 n=56 v=0
290160 On ch=1 n=58 v=80
290387 On ch=1 n=58 v=0
290400 On ch=1 n=60 v=80
290627 On ch=1 n=60 v=0
290640 On ch=1 n=56 v=80
290867 On ch=1 n=56 v=0
290880 On ch=1 n=63 v=80
291107 On ch=1 n=63 v=0
291120 On ch=1 n=60 v=80
291347 On ch=1 n=60 v=0
291360 On ch=1 n=68 v=80
291587 On ch=1 n=68 v=0
291600 On ch=1 n=63 v=80
291827 On ch=1 n=63 v=0
291840 On ch=1 n=60 v=80
292067 On ch=1 n=60 v=0
292080 On ch=1 n=56 v=80
292307 On ch=1 n=56 v=0
292320 On ch=1 n=51 v=80
292547 On ch=1 n=51 v=0
292560 On ch=1 n=43 v=80
292787 On ch=1 n=43 v=0
292800 On ch=1 n=51 v=80
293027 On ch=1 n=51 v=0
293040 On ch=1 n=55 v=80
293267 On ch=1 n=55 v=0
293280 On ch=1 n=41 v=80
293507 On ch=1 n=41 v=0
293520 On ch=1 n=48 v=80
293747 On ch=1 n=48 v=0
293760 On ch=1 n=53 v=80
293987 On ch=1 n=53 v=0
294000 On ch=1 n=55 v=80
294227 On ch=1 n=55 v=0
294240 On ch=1 n=56 v=80
294467 On ch=1 n=56 v=0
294480 On ch=1 n=53 v=80
294707 On ch=1 n=53 v=0
294720 On ch=1 n=60 v=80
294947 On ch=1 n=60 v=0
294960 On ch=1 n=56 v=80
295187 On ch=1 n=56 v=0
295200 On ch=1 n=63 v=80
295427 On ch=1 n=63 v=0
295440 On ch=1 n=60 v=80
295667 On ch=1 n=60 v=0
295680 On ch=1 n=56 v=80
295907 On ch=1 n=56 v=0
295920 On ch=1 n=53 v=80
296147 On ch=1 n=53 v=0
296160 On ch=1 n=48 v=80
296387 On ch=1 n=48 v=0
296400 On ch=1 n=41 v=80
296627 On ch=1 n=41 v=0
296640 On ch=1 n=53 v=80
296867 On ch=1 n=53 v=0
296880 On ch=1 n=48 v=80
297107 On ch=1 n=48 v=0
297120 On ch=1 n=34 v=80
297347 On ch=1 n=34 v=0
297360 On ch=1 n=46 v=80
297587 On ch=1 n=46 v=0
297600 On ch=1 n=46 v=80
297827 On ch=1 n=46 v=0
297840 On ch=1 n=53 v=80
297840 On ch=1 n=58 v=80
298295 On ch=1 n=53 v=0
298295 On ch=1 n=58 v=0
298320 On ch=1 n=46 v=80
298320 On ch=1 n=58 v=80
298547 On ch=1 n=46 v=0
298547 On ch=1 n=58 v=0
298560 On ch=1 n=47 v=80
298560 On ch=1 n=59 v=80
299471 On ch=1 n=47 v=0
299471 On ch=1 n=59 v=0
299520 On ch=1 n=47 v=80
299535 On ch=1 n=55 v=80
299565 On ch=1 n=62 v=80
303623 On ch=1 n=47 v=0
303623 On ch=1 n=55 v=0
303625 On ch=1 n=62 v=0
304800 On ch=1 n=44 v=80
304800 On ch=1 n=56 v=80
305711 On ch=1 n=44 v=0
305711 On ch=1 n=56 v=0
305760 On ch=1 n=56 v=80
305987 On ch=1 n=56 v=0
306000 On ch=1 n=63 v=80
306227 On ch=1 n=63 v=0
306240 On ch=1 n=68 v=80
306467 On ch=1 n=68 v=0
306480 On ch=1 n=70 v=80
307619 On ch=1 n=70 v=0
307680 On ch=1 n=68 v=80
307907 On ch=1 n=68 v=0
307920 On ch=1 n=63 v=80
308147 On ch=1 n=63 v=0
308160 On ch=1 n=56 v=80
308615 On ch=1 n=56 v=0
308640 On ch=1 n=44 v=80
308640 On ch=1 n=56 v=80
309551 On ch=1 n=44 v=0
309551 On ch=1 n=56 v=0
309600 On ch=1 n=56 v=80
309827 On ch=1 n=56 v=0
309840 On ch=1 n=63 v=80
310067 On ch=1 n=63 v=0
310080 On ch=1 n=65 v=80
310307 On ch=1 n=65 v=0
310320 On ch=1 n=70 v=80
311459 On ch=1 n=70 v=0
311520 On ch=1 n=70 v=80
311747 On ch=1 n=70 v=0
311760 On ch=1 n=65 v=80
311987 On ch=1 n=65 v=0
312000 On ch=1 n=62 v=80
312455 On ch=1 n=62 v=0
312480 On ch=1 n=43 v=80
312707 On ch=1 n=43 v=0
312720 On ch=1 n=50 v=80
312947 On ch=1 n=50 v=0
312960 On ch=1 n=55 v=80
313187 On ch=1 n=55 v=0
313200 On ch=1 n=57 v=80
313427 On ch=1 n=57 v=0
313440 On ch=1 n=58 v=80
313667 On ch=1 n=58 v=0
313680 On ch=1 n=55 v=80
313907 On ch=1 n=55 v=0
313920 On ch=1 n=62 v=80
314147 On ch=1 n=62 v=0
314160 On ch=1 n=55 v=80
314387 On ch=1 n=55 v=0
314400 On ch=1 n=62 v=80
314627 On ch=1 n=62 v=0
314640 On ch=1 n=67 v=80
314867 On ch=1 n=67 v=0
314880 On ch=1 n=70 v=80
315107 On ch=1 n=70 v=0
315120 On ch=1 n=74 v=80
315347 On ch=1 n=74 v=0
315360 On ch=1 n=70 v=80
315587 On ch=1 n=70 v=0
315600 On ch=1 n=67 v=80
315827 On ch=1 n=67 v=0
315840 On ch=1 n=62 v=80
316295 On ch=1 n=62 v=0
316320 On ch=1 n=48 v=80
316547 On ch=1 n=48 v=0
316560 On ch=1 n=55 v=80
316787 On ch=1 n=55 v=0
316800 On ch=1 n=60 v=80
317027 On ch=1 n=60 v=0
317040 On ch=1 n=62 v=80
317267 On ch=1 n=62 v=0
317280 On ch=1 n=63 v=80
317507 On ch=1 n=63 v=0
317520 On ch=1 n=60 v=80
317747 On ch=1 n=60 v=0
317760 On ch=1 n=67 v=80
317987 On ch=1 n=67 v=0
318000 On ch=1 n=63 v=80
318227 On ch=1 n=63 v=0
318240 On ch=1 n=72 v=80
318467 On ch=1 n=72 v=0
318480 On ch=1 n=67 v=80
318707 On ch=1 n=67 v=0
318720 On ch=1 n=63 v=80
318947 On ch=1 n=63 v=0
318960 On ch=1 n=60 v=80
319187 On ch=1 n=60 v=0
319200 On ch=1 n=55 v=80
319655 On ch=1 n=55 v=0
319680 On ch=1 n=46 v=80
319680 On ch=1 n=58 v=80
320135 On ch=1 n=46 v=0
320135 On ch=1 n=58 v=0
320160 On ch=1 n=44 v=80
320387 On ch=1 n=44 v=0
320400 On ch=1 n=51 v=80
320627 On ch=1 n=51 v=0
320640 On ch=1 n=58 v=80
320867 On ch=1 n=58 v=0
320880 On ch=1 n=56 v=80
321335 On ch=1 n=56 v=0
321360 On ch=1 n=56 v=80
321587 On ch=1 n=56 v=0
321600 On ch=1 n=63 v=80
321827 On ch=1 n=63 v=0
321840 On ch=1 n=68 v=80
322979 On ch=1 n=68 v=0
323040 On ch=1 n=70 v=80
323267 On ch=1 n=70 v=0
323280 On ch=1 n=63 v=80
323963 On ch=1 n=63 v=0
324000 On ch=1 n=44 v=80
324227 On ch=1 n=44 v=0
324240 On ch=1 n=53 v=80
324467 On ch=1 n=53 v=0
324480 On ch=1 n=58 v=80
324707 On ch=1 n=58 v=0
324720 On ch=1 n=62 v=80
324947 On ch=1 n=62 v=0
324960 On ch=1 n=65 v=80
325187 On ch=1 n=65 v=0
325200 On ch=1 n=56 v=80
325427 On ch=1 n=56 v=0
325440 On ch=1 n=62 v=80
325667 On ch=1 n=62 v=0
325680 On ch=1 n=62 v=80
325680 On ch=1 n=65 v=80
326819 On ch=1 n=62 v=0
326819 On ch=1 n=65 v=0
326880 On ch=1 n=70 v=80
327107 On ch=1 n=70 v=0
327120 On ch=1 n=65 v=80
327347 On ch=1 n=65 v=0
327360 On ch=1 n=62 v=80
327815 On ch=1 n=62 v=0
327840 On ch=1 n=43 v=80
328067 On ch=1 n=43 v=0
328080 On ch=1 n=50 v=80
328307 On ch=1 n=50 v=0
328320 On ch=1 n=55 v=80
328547 On ch=1 n=55 v=0
328560 On ch=1 n=57 v=80
328787 On ch=1 n=57 v=0
328800 On ch=1 n=58 v=80
329027 On ch=1 n=58 v=0
329040 On ch=1 n=55 v=80
329267 On ch=1 n=55 v=0
329280 On ch=1 n=62 v=80
329507 On ch=1 n=62 v=0
329520 On ch=1 n=58 v=80
329747 On ch=1 n=58 v=0
329760 On ch=1 n=67 v=80
329987 On ch=1 n=67 v=0
330000 On ch=1 n=62 v=80
330227 On ch=1 n=62 v=0
330240 On ch=1 n=58 v=80
330467 On ch=1 n=58 v=0
330480 On ch=1 n=55 v=80
330707 On ch=1 n=55 v=0
330720 On ch=1 n=50 v=80
330947 On ch=1 n=50 v=0
330960 On ch=1 n=43 v=80
331187 On ch=1 n=43 v=0
331200 On ch=1 n=55 v=80
331655 On ch=1 n=55 v=0
331680 On ch=1 n=36 v=80
331907 On ch=1 n=36 v=0
331920 On ch=1 n=48 v=80
332147 On ch=1 n=48 v=0
332160 On ch=1 n=48 v=80
332387 On ch=1 n=48 v=0
332400 On ch=1 n=55 v=80
332627 On ch=1 n=55 v=0
332640 On ch=1 n=60 v=80
332867 On ch=1 n=60 v=0
332880 On ch=1 n=55 v=80
333107 On ch=1 n=55 v=0
333120 On ch=1 n=48 v=80
333575 On ch=1 n=48 v=0
333600 On ch=1 n=39 v=80
333600 On ch=1 n=51 v=80
333827 On ch=1 n=39 v=0
333827 On ch=1 n=51 v=0
333840 On ch=1 n=46 v=80
334067 On ch=1 n=46 v=0
334080 On ch=1 n=39 v=80
334535 On ch=1 n=39 v=0
334560 On ch=1 n=27 v=80
334560 On ch=1 n=39 v=80
335015 On ch=1 n=27 v=0
335015 On ch=1 n=39 v=0
335520 On ch=1 n=32 v=80
335520 On ch=1 n=44 v=80
335975 On ch=1 n=32 v=0
335975 On ch=1 n=44 v=0
336000 On ch=1 n=44 v=80
336227 On ch=1 n=44 v=0
336240 On ch=1 n=51 v=80
336467 On ch=1 n=51 v=0
336480 On ch=1 n=58 v=80
336707 On ch=1 n=58 v=0
336720 On ch=1 n=56 v=80
336947 On ch=1 n=56 v=0
336960 On ch=1 n=44 v=80
337187 On ch=1 n=44 v=0
337200 On ch=1 n=51 v=80
337200 On ch=1 n=58 v=80
337655 On ch=1 n=51 v=0
337655 On ch=1 n=58 v=0
337680 On ch=1 n=44 v=80
337907 On ch=1 n=44 v=0
337920 On ch=1 n=51 v=80
337920 On ch=1 n=58 v=80
338375 On ch=1 n=51 v=0
338375 On ch=1 n=58 v=0
338400 On ch=1 n=44 v=80
338627 On ch=1 n=44 v=0
338640 On ch=1 n=51 v=80
338867 On ch=1 n=51 v=0
338880 On ch=1 n=58 v=80
339119 On ch=1 n=58 v=0
339360 On ch=1 n=32 v=80
339360 On ch=1 n=44 v=80
339815 On ch=1 n=32 v=0
339815 On ch=1 n=44 v=0
339840 On ch=1 n=44 v=80
340067 On ch=1 n=44 v=0
340080 On ch=1 n=53 v=80
340307 On ch=1 n=53 v=0
340320 On ch=1 n=58 v=80
340547 On ch=1 n=58 v=0
340560 On ch=1 n=56 v=80
340787 On ch=1 n=56 v=0
340800 On ch=1 n=44 v=80
341027 On ch=1 n=44 v=0
341040 On ch=1 n=51 v=80
341040 On ch=1 n=58 v=80
341495 On ch=1 n=51 v=0
341495 On ch=1 n=58 v=0
341520 On ch=1 n=44 v=80
341747 On ch=1 n=44 v=0
341760 On ch=1 n=51 v=80
341760 On ch=1 n=58 v=80
342215 On ch=1 n=51 v=0
342215 On ch=1 n=58 v=0
342240 On ch=1 n=44 v=80
342467 On ch=1 n=44 v=0
342480 On ch=1 n=53 v=80
342707 On ch=1 n=53 v=0
342720 On ch=1 n=58 v=80
342959 On ch=1 n=58 v=0
343200 On ch=1 n=31 v=80
343427 On ch=1 n=31 v=0
343440 On ch=1 n=43 v=80
343667 On ch=1 n=43 v=0
343680 On ch=1 n=43 v=80
343907 On ch=1 n=43 v=0
343920 On ch=1 n=50 v=80
344147 On ch=1 n=50 v=0
344160 On ch=1 n=43 v=80
344387 On ch=1 n=43 v=0
344400 On ch=1 n=50 v=80
344627 On ch=1 n=50 v=0
344640 On ch=1 n=55 v=80
344867 On ch=1 n=55 v=0
344880 On ch=1 n=57 v=80
345107 On ch=1 n=57 v=0
345120 On ch=1 n=58 v=80
345347 On ch=1 n=58 v=0
345360 On ch=1 n=55 v=80
345587 On ch=1 n=55 v=0
345600 On ch=1 n=62 v=80
345827 On ch=1 n=62 v=0
345840 On ch=1 n=58 v=80
346067 On ch=1 n=58 v=0
346080 On ch=1 n=55 v=80
346307 On ch=1 n=55 v=0
346320 On ch=1 n=50 v=80
346547 On ch=1 n=50 v=0
346560 On ch=1 n=43 v=80
347015 On ch=1 n=43 v=0
347040 On ch=1 n=36 v=80
347267 On ch=1 n=36 v=0
347280 On ch=1 n=48 v=80
347507 On ch=1 n=48 v=0
347520 On ch=1 n=48 v=80
347747 On ch=1 n=48 v=0
347760 On ch=1 n=55 v=80
347987 On ch=1 n=55 v=0
348000 On ch=1 n=48 v=80
348227 On ch=1 n=48 v=0
348240 On ch=1 n=55 v=80
348467 On ch=1 n=55 v=0
348480 On ch=1 n=60 v=80
348707 On ch=1 n=60 v=0
348720 On ch=1 n=62 v=80
348947 On ch=1 n=62 v=0
348960 On ch=1 n=63 v=80
349187 On ch=1 n=63 v=0
349200 On ch=1 n=60 v=80
349427 On ch=1 n=60 v=0
349440 On ch=1 n=55 v=80
349667 On ch=1 n=55 v=0
349680 On ch=1 n=48 v=80
349907 On ch=1 n=48 v=0
349920 On ch=1 n=48 v=80
349920 On ch=1 n=60 v=80
350375 On ch=1 n=48 v=0
350375 On ch=1 n=60 v=0
350400 On ch=1 n=46 v=80
350400 On ch=1 n=58 v=80
350855 On ch=1 n=46 v=0
350855 On ch=1 n=58 v=0
350880 On ch=1 n=32 v=80
350880 On ch=1 n=44 v=80
351335 On ch=1 n=32 v=0
351335 On ch=1 n=44 v=0
351360 On ch=1 n=44 v=80
351587 On ch=1 n=44 v=0
351600 On ch=1 n=51 v=80
351827 On ch=1 n=51 v=0
351840 On ch=1 n=58 v=80
352067 On ch=1 n=58 v=0
352080 On ch=1 n=56 v=80
352307 On ch=1 n=56 v=0
352320 On ch=1 n=63 v=80
352547 On ch=1 n=63 v=0
352560 On ch=1 n=63 v=80
352560 On ch=1 n=70 v=80
353015 On ch=1 n=63 v=0
353015 On ch=1 n=70 v=0
353040 On ch=1 n=56 v=80
353267 On ch=1 n=56 v=0
353280 On ch=1 n=60 v=80
353280 On ch=1 n=63 v=80
353735 On ch=1 n=60 v=0
353735 On ch=1 n=63 v=0
353760 On ch=1 n=56 v=80
353987 On ch=1 n=56 v=0
354000 On ch=1 n=51 v=80
354227 On ch=1 n=51 v=0
354240 On ch=1 n=44 v=80
354695 On ch=1 n=44 v=0
354720 On ch=1 n=32 v=80
354720 On ch=1 n=44 v=80
355175 On ch=1 n=32 v=0
355175 On ch=1 n=44 v=0
355200 On ch=1 n=44 v=80
355427 On ch=1 n=44 v=0
355440 On ch=1 n=51 v=80
355667 On ch=1 n=51 v=0
355680 On ch=1 n=58 v=80
355907 On ch=1 n=58 v=0
355920 On ch=1 n=56 v=80
356147 On ch=1 n=56 v=0
356160 On ch=1 n=56 v=80
356387 On ch=1 n=56 v=0
356400 On ch=1 n=60 v=80
356400 On ch=1 n=63 v=80
356400 On ch=1 n=70 v=80
356855 On ch=1 n=60 v=0
356855 On ch=1 n=63 v=0
356855 On ch=1 n=70 v=0
356880 On ch=1 n=56 v=80
357107 On ch=1 n=56 v=0
357120 On ch=1 n=60 v=80
357120 On ch=1 n=63 v=80
357120 On ch=1 n=70 v=80
357575 On ch=1 n=60 v=0
357575 On ch=1 n=63 v=0
357575 On ch=1 n=70 v=0
357600 On ch=1 n=58 v=80
357827 On ch=1 n=58 v=0
357840 On ch=1 n=53 v=80
358067 On ch=1 n=53 v=0
358080 On ch=1 n=44 v=80
358535 On ch=1 n=44 v=0
358560 On ch=1 n=31 v=80
358787 On ch=1 n=31 v=0
358800 On ch=1 n=43 v=80
359027 On ch=1 n=43 v=0
359040 On ch=1 n=43 v=80
359267 On ch=1 n=43 v=0
359280 On ch=1 n=50 v=80
359507 On ch=1 n=50 v=0
359520 On ch=1 n=43 v=80
359747 On ch=1 n=43 v=0
359760 On ch=1 n=50 v=80
359987 On ch=1 n=50 v=0
360000 On ch=1 n=55 v=80
360227 On ch=1 n=55 v=0
360240 On ch=1 n=57 v=80
360467 On ch=1 n=57 v=0
360480 On ch=1 n=58 v=80
360707 On ch=1 n=58 v=0
360720 On ch=1 n=55 v=80
360947 On ch=1 n=55 v=0
360960 On ch=1 n=62 v=80
361187 On ch=1 n=62 v=0
361200 On ch=1 n=58 v=80
361427 On ch=1 n=58 v=0
361440 On ch=1 n=55 v=80
361667 On ch=1 n=55 v=0
361680 On ch=1 n=50 v=80
361907 On ch=1 n=50 v=0
361920 On ch=1 n=43 v=80
362375 On ch=1 n=43 v=0
362400 On ch=1 n=36 v=80
362627 On ch=1 n=36 v=0
362640 On ch=1 n=48 v=80
362867 On ch=1 n=48 v=0
362880 On ch=1 n=48 v=80
363107 On ch=1 n=48 v=0
363120 On ch=1 n=55 v=80
363347 On ch=1 n=55 v=0
363360 On ch=1 n=60 v=80
363587 On ch=1 n=60 v=0
363600 On ch=1 n=55 v=80
363827 On ch=1 n=55 v=0
363840 On ch=1 n=48 v=80
364295 On ch=1 n=48 v=0
364320 On ch=1 n=34 v=80
364547 On ch=1 n=34 v=0
364560 On ch=1 n=46 v=80
364787 On ch=1 n=46 v=0
364800 On ch=1 n=46 v=80
365027 On ch=1 n=46 v=0
365040 On ch=1 n=55 v=80
365267 On ch=1 n=55 v=0
365280 On ch=1 n=58 v=80
365507 On ch=1 n=58 v=0
365520 On ch=1 n=55 v=80
365747 On ch=1 n=55 v=0
365760 On ch=1 n=46 v=80
366215 On ch=1 n=46 v=0
366240 On ch=1 n=29 v=80
366240 On ch=1 n=41 v=80
366695 On ch=1 n=29 v=0
366695 On ch=1 n=41 v=0
366720 On ch=1 n=41 v=80
366720 On ch=1 n=48 v=80
367175 On ch=1 n=41 v=0
367175 On ch=1 n=48 v=0
367200 On ch=1 n=48 v=80
367200 On ch=1 n=56 v=80
367655 On ch=1 n=48 v=0
367655 On ch=1 n=56 v=0
367680 On ch=1 n=41 v=80
367680 On ch=1 n=48 v=80
368135 On ch=1 n=41 v=0
368135 On ch=1 n=48 v=0
368160 On ch=1 n=31 v=80
368160 On ch=1 n=43 v=80
368615 On ch=1 n=31 v=0
368615 On ch=1 n=43 v=0
368640 On ch=1 n=43 v=80
368640 On ch=1 n=50 v=80
369095 On ch=1 n=43 v=0
369095 On ch=1 n=50 v=0
369120 On ch=1 n=50 v=80
369120 On ch=1 n=58 v=80
369575 On ch=1 n=50 v=0
369575 On ch=1 n=58 v=0
369600 On ch=1 n=43 v=80
369600 On ch=1 n=50 v=80
369600 On ch=1 n=55 v=80
370055 On ch=1 n=43 v=0
370055 On ch=1 n=50 v=0
370055 On ch=1 n=55 v=0
370080 On ch=1 n=32 v=80
370080 On ch=1 n=44 v=80
370535 On ch=1 n=32 v=0
370535 On ch=1 n=44 v=0
370560 On ch=1 n=44 v=80
371015 On ch=1 n=44 v=0
371040 On ch=1 n=51 v=80
371040 On ch=1 n=56 v=80
371040 On ch=1 n=59 v=80
371495 On ch=1 n=51 v=0
371495 On ch=1 n=56 v=0
371495 On ch=1 n=59 v=0
371520 On ch=1 n=44 v=80
371975 On ch=1 n=44 v=0
372000 On ch=1 n=34 v=80
372000 On ch=1 n=46 v=80
372227 On ch=1 n=34 v=0
372227 On ch=1 n=46 v=0
372240 On ch=1 n=46 v=80
372467 On ch=1 n=46 v=0
372480 On ch=1 n=58 v=80
372707 On ch=1 n=58 v=0
372720 On ch=1 n=53 v=80
372947 On ch=1 n=53 v=0
372960 On ch=1 n=46 v=80
373415 On ch=1 n=46 v=0
373440 On ch=1 n=22 v=80
373440 On ch=1 n=34 v=80
373895 On ch=1 n=22 v=0
373895 On ch=1 n=34 v=0
373920 On ch=1 n=27 v=80
373920 On ch=1 n=39 v=80
374147 On ch=1 n=27 v=0
374147 On ch=1 n=39 v=0
374160 On ch=1 n=39 v=80
374387 On ch=1 n=39 v=0
374400 On ch=1 n=46 v=80
374627 On ch=1 n=46 v=0
374640 On ch=1 n=46 v=80
374640 On ch=1 n=51 v=80
374640 On ch=1 n=55 v=80
375095 On ch=1 n=46 v=0
375095 On ch=1 n=51 v=0
375095 On ch=1 n=55 v=0
375120 On ch=1 n=51 v=80
375347 On ch=1 n=51 v=0
375360 On ch=1 n=58 v=80
375587 On ch=1 n=58 v=0
375600 On ch=1 n=58 v=80
375600 On ch=1 n=63 v=80
375600 On ch=1 n=67 v=80
376055 On ch=1 n=58 v=0
376055 On ch=1 n=63 v=0
376055 On ch=1 n=67 v=0
376080 On ch=1 n=51 v=80
376307 On ch=1 n=51 v=0
376320 On ch=1 n=58 v=80
376547 On ch=1 n=58 v=0
376560 On ch=1 n=58 v=80
376560 On ch=1 n=63 v=80
376560 On ch=1 n=67 v=80
377015 On ch=1 n=58 v=0
377015 On ch=1 n=63 v=0
377015 On ch=1 n=67 v=0
377040 On ch=1 n=51 v=80
377267 On ch=1 n=51 v=0
377280 On ch=1 n=46 v=80
377507 On ch=1 n=46 v=0
377520 On ch=1 n=39 v=80
377747 On ch=1 n=39 v=0
377760 On ch=1 n=27 v=80
377760 On ch=1 n=39 v=80
378215 On ch=1 n=27 v=0
378215 On ch=1 n=39 v=0
378240 On ch=1 n=39 v=80
378467 On ch=1 n=39 v=0
378480 On ch=1 n=48 v=80
378707 On ch=1 n=48 v=0
378720 On ch=1 n=51 v=80
378947 On ch=1 n=51 v=0
378960 On ch=1 n=51 v=80
379187 On ch=1 n=51 v=0
379200 On ch=1 n=60 v=80
379427 On ch=1 n=60 v=0
379440 On ch=1 n=63 v=80
379667 On ch=1 n=63 v=0
379680 On ch=1 n=51 v=80
379680 On ch=1 n=60 v=80
379680 On ch=1 n=63 v=80
379907 On ch=1 n=51 v=0
379907 On ch=1 n=60 v=0
379907 On ch=1 n=63 v=0
379920 On ch=1 n=51 v=80
379920 On ch=1 n=60 v=80
380375 On ch=1 n=51 v=0
380375 On ch=1 n=60 v=0
380400 On ch=1 n=51 v=80
380400 On ch=1 n=63 v=80
380855 On ch=1 n=51 v=0
380855 On ch=1 n=63 v=0
380880 On ch=1 n=63 v=80
381107 On ch=1 n=63 v=0
381120 On ch=1 n=60 v=80
381347 On ch=1 n=60 v=0
381360 On ch=1 n=51 v=80
381587 On ch=1 n=51 v=0
381600 On ch=1 n=27 v=80
381600 On ch=1 n=39 v=80
381827 On ch=1 n=27 v=0
381827 On ch=1 n=39 v=0
381840 On ch=1 n=39 v=80
382067 On ch=1 n=39 v=0
382080 On ch=1 n=46 v=80
382307 On ch=1 n=46 v=0
382320 On ch=1 n=46 v=80
382320 On ch=1 n=51 v=80
382320 On ch=1 n=55 v=80
382775 On ch=1 n=46 v=0
382775 On ch=1 n=51 v=0
382775 On ch=1 n=55 v=0
382800 On ch=1 n=51 v=80
383027 On ch=1 n=51 v=0
383040 On ch=1 n=58 v=80
383267 On ch=1 n=58 v=0
383280 On ch=1 n=58 v=80
383280 On ch=1 n=63 v=80
383280 On ch=1 n=67 v=80
383735 On ch=1 n=58 v=0
383735 On ch=1 n=63 v=0
383735 On ch=1 n=67 v=0
383760 On ch=1 n=51 v=80
383987 On ch=1 n=51 v=0
384000 On ch=1 n=58 v=80
384227 On ch=1 n=58 v=0
384240 On ch=1 n=58 v=80
384240 On ch=1 n=63 v=80
384240 On ch=1 n=67 v=80
384695 On ch=1 n=58 v=0
384695 On ch=1 n=63 v=0
384695 On ch=1 n=67 v=0
384720 On ch=1 n=51 v=80
384947 On ch=1 n=51 v=0
384960 On ch=1 n=46 v=80
385187 On ch=1 n=46 v=0
385200 On ch=1 n=39 v=80
385427 On ch=1 n=39 v=0
385440 On ch=1 n=27 v=80
385440 On ch=1 n=39 v=80
385895 On ch=1 n=27 v=0
385895 On ch=1 n=39 v=0
385920 On ch=1 n=39 v=80
386147 On ch=1 n=39 v=0
386160 On ch=1 n=48 v=80
386387 On ch=1 n=48 v=0
386400 On ch=1 n=51 v=80
386627 On ch=1 n=51 v=0
386640 On ch=1 n=51 v=80
386867 On ch=1 n=51 v=0
386880 On ch=1 n=60 v=80
387107 On ch=1 n=60 v=0
387120 On ch=1 n=63 v=80
387347 On ch=1 n=63 v=0
387360 On ch=1 n=51 v=80
387360 On ch=1 n=60 v=80
387360 On ch=1 n=63 v=80
387587 On ch=1 n=51 v=0
387587 On ch=1 n=60 v=0
387587 On ch=1 n=63 v=0
387600 On ch=1 n=51 v=80
387600 On ch=1 n=60 v=80
388055 On ch=1 n=51 v=0
388055 On ch=1 n=60 v=0
388080 On ch=1 n=51 v=80
388080 On ch=1 n=63 v=80
388535 On ch=1 n=51 v=0
388535 On ch=1 n=63 v=0
388560 On ch=1 n=63 v=80
388787 On ch=1 n=63 v=0
388800 On ch=1 n=60 v=80
389027 On ch=1 n=60 v=0
389040 On ch=1 n=51 v=80
389267 On ch=1 n=51 v=0
389280 On ch=1 n=27 v=80
389280 On ch=1 n=39 v=80
389507 On ch=1 n=27 v=0
389507 On ch=1 n=39 v=0
389520 On ch=1 n=39 v=80
389747 On ch=1 n=39 v=0
389760 On ch=1 n=46 v=80
389987 On ch=1 n=46 v=0
390000 On ch=1 n=46 v=80
390000 On ch=1 n=51 v=80
390000 On ch=1 n=55 v=80
390455 On ch=1 n=46 v=0
390455 On ch=1 n=51 v=0
390455 On ch=1 n=55 v=0
390480 On ch=1 n=39 v=80
390707 On ch=1 n=39 v=0
390720 On ch=1 n=46 v=80
390947 On ch=1 n=46 v=0
390960 On ch=1 n=46 v=80
390960 On ch=1 n=51 v=80
390960 On ch=1 n=55 v=80
391415 On ch=1 n=46 v=0
391415 On ch=1 n=51 v=0
391415 On ch=1 n=55 v=0
391440 On ch=1 n=39 v=80
391667 On ch=1 n=39 v=0
391680 On ch=1 n=46 v=80
391907 On ch=1 n=46 v=0
391920 On ch=1 n=46 v=80
391920 On ch=1 n=51 v=80
391920 On ch=1 n=55 v=80
392375 On ch=1 n=46 v=0
392375 On ch=1 n=51 v=0
392375 On ch=1 n=55 v=0
392400 On ch=1 n=39 v=80
392627 On ch=1 n=39 v=0
392640 On ch=1 n=46 v=80
392867 On ch=1 n=46 v=0
392880 On ch=1 n=46 v=80
392880 On ch=1 n=51 v=80
392880 On ch=1 n=55 v=80
393107 On ch=1 n=46 v=0
393107 On ch=1 n=51 v=0
393107 On ch=1 n=55 v=0
393120 On ch=1 n=27 v=80
393120 On ch=1 n=39 v=80
393575 On ch=1 n=27 v=0
393575 On ch=1 n=39 v=0
393600 On ch=1 n=39 v=80
393827 On ch=1 n=39 v=0
393840 On ch=1 n=48 v=80
394067 On ch=1 n=48 v=0
394080 On ch=1 n=51 v=80
394307 On ch=1 n=51 v=0
394320 On ch=1 n=48 v=80
394547 On ch=1 n=48 v=0
394560 On ch=1 n=39 v=80
394787 On ch=1 n=39 v=0
394800 On ch=1 n=48 v=80
395027 On ch=1 n=48 v=0
395040 On ch=1 n=39 v=80
395040 On ch=1 n=48 v=80
395040 On ch=1 n=51 v=80
395267 On ch=1 n=39 v=0
395267 On ch=1 n=48 v=0
395267 On ch=1 n=51 v=0
395280 On ch=1 n=39 v=80
395280 On ch=1 n=48 v=80
395735 On ch=1 n=39 v=0
395735 On ch=1 n=48 v=0
395760 On ch=1 n=39 v=80
395760 On ch=1 n=51 v=80
396215 On ch=1 n=39 v=0
396215 On ch=1 n=51 v=0
396240 On ch=1 n=51 v=80
396467 On ch=1 n=51 v=0
396480 On ch=1 n=48 v=80
396707 On ch=1 n=48 v=0
396720 On ch=1 n=39 v=80
396947 On ch=1 n=39 v=0
396960 On ch=1 n=27 v=80
396960 On ch=1 n=39 v=80
397187 On ch=1 n=27 v=0
397187 On ch=1 n=39 v=0
397200 On ch=1 n=39 v=80
397427 On ch=1 n=39 v=0
397440 On ch=1 n=46 v=80
397667 On ch=1 n=46 v=0
397680 On ch=1 n=46 v=80
397680 On ch=1 n=51 v=80
397680 On ch=1 n=55 v=80
398135 On ch=1 n=46 v=0
398135 On ch=1 n=51 v=0
398135 On ch=1 n=55 v=0
398160 On ch=1 n=39 v=80
398387 On ch=1 n=39 v=0
398400 On ch=1 n=46 v=80
398627 On ch=1 n=46 v=0
398640 On ch=1 n=46 v=80
398640 On ch=1 n=51 v=80
398640 On ch=1 n=55 v=80
399095 On ch=1 n=46 v=0
399095 On ch=1 n=51 v=0
399095 On ch=1 n=55 v=0
399120 On ch=1 n=39 v=80
399347 On ch=1 n=39 v=0
399360 On ch=1 n=46 v=80
399587 On ch=1 n=46 v=0
399600 On ch=1 n=46 v=80
399600 On ch=1 n=51 v=80
399600 On ch=1 n=55 v=80
400055 On ch=1 n=46 v=0
400055 On ch=1 n=51 v=0
400055 On ch=1 n=55 v=0
400080 On ch=1 n=39 v=80
400307 On ch=1 n=39 v=0
400320 On ch=1 n=46 v=80
400547 On ch=1 n=46 v=0
400560 On ch=1 n=46 v=80
400560 On ch=1 n=51 v=80
400560 On ch=1 n=55 v=80
400787 On ch=1 n=46 v=0
400787 On ch=1 n=51 v=0
400787 On ch=1 n=55 v=0
400800 On ch=1 n=27 v=80
400800 On ch=1 n=39 v=80
401255 On ch=1 n=27 v=0
401255 On ch=1 n=39 v=0
401280 On ch=1 n=39 v=80
401507 On ch=1 n=39 v=0
401520 On ch=1 n=48 v=80
401747 On ch=1 n=48 v=0
401760 On ch=1 n=51 v=80
401987 On ch=1 n=51 v=0
402000 On ch=1 n=48 v=80
402227 On ch=1 n=48 v=0
402240 On ch=1 n=39 v=80
402467 On ch=1 n=39 v=0
402480 On ch=1 n=48 v=80
402707 On ch=1 n=48 v=0
402720 On ch=1 n=39 v=80
402720 On ch=1 n=48 v=80
402720 On ch=1 n=51 v=80
402947 On ch=1 n=39 v=0
402947 On ch=1 n=48 v=0
402947 On ch=1 n=51 v=0
402960 On ch=1 n=39 v=80
402960 On ch=1 n=48 v=80
403415 On ch=1 n=39 v=0
403415 On ch=1 n=48 v=0
403440 On ch=1 n=39 v=80
403440 On ch=1 n=51 v=80
403895 On ch=1 n=39 v=0
403895 On ch=1 n=51 v=0
403920 On ch=1 n=51 v=80
404147 On ch=1 n=51 v=0
404160 On ch=1 n=48 v=80
404387 On ch=1 n=48 v=0
404400 On ch=1 n=39 v=80
404627 On ch=1 n=39 v=0
404640 On ch=1 n=36 v=80
404867 On ch=1 n=36 v=0
404880 On ch=1 n=43 v=80
405107 On ch=1 n=43 v=0
405120 On ch=1 n=48 v=80
405347 On ch=1 n=48 v=0
405360 On ch=1 n=51 v=80
405587 On ch=1 n=51 v=0
405600 On ch=1 n=51 v=80
405600 On ch=1 n=55 v=80
405827 On ch=1 n=51 v=0
405827 On ch=1 n=55 v=0
405840 On ch=1 n=51 v=80
405840 On ch=1 n=55 v=80
406067 On ch=1 n=51 v=0
406067 On ch=1 n=55 v=0
406080 On ch=1 n=51 v=80
406080 On ch=1 n=55 v=80
406307 On ch=1 n=51 v=0
406307 On ch=1 n=55 v=0
406320 On ch=1 n=51 v=80
406320 On ch=1 n=55 v=80
406775 On ch=1 n=51 v=0
406775 On ch=1 n=55 v=0
406800 On ch=1 n=55 v=80
407027 On ch=1 n=55 v=0
407040 On ch=1 n=51 v=80
407495 On ch=1 n=51 v=0
407520 On ch=1 n=48 v=80
407747 On ch=1 n=48 v=0
407760 On ch=1 n=43 v=80
407987 On ch=1 n=43 v=0
408000 On ch=1 n=36 v=80
408455 On ch=1 n=36 v=0
408480 On ch=1 n=31 v=80
408707 On ch=1 n=31 v=0
408720 On ch=1 n=43 v=80
408947 On ch=1 n=43 v=0
408960 On ch=1 n=43 v=80
409187 On ch=1 n=43 v=0
409200 On ch=1 n=50 v=80
409427 On ch=1 n=50 v=0
409440 On ch=1 n=55 v=80
409667 On ch=1 n=55 v=0
409680 On ch=1 n=50 v=80
409907 On ch=1 n=50 v=0
409920 On ch=1 n=43 v=80
410147 On ch=1 n=43 v=0
410160 On ch=1 n=32 v=80
410160 On ch=1 n=44 v=80
410615 On ch=1 n=32 v=0
410615 On ch=1 n=44 v=0
410640 On ch=1 n=44 v=80
410867 On ch=1 n=44 v=0
410880 On ch=1 n=51 v=80
411107 On ch=1 n=51 v=0
411120 On ch=1 n=56 v=80
411575 On ch=1 n=56 v=0
411600 On ch=1 n=56 v=80
411827 On ch=1 n=56 v=0
411840 On ch=1 n=51 v=80
412067 On ch=1 n=51 v=0
412080 On ch=1 n=44 v=80
412307 On ch=1 n=44 v=0
412320 On ch=1 n=36 v=80
412547 On ch=1 n=36 v=0
412560 On ch=1 n=43 v=80
412787 On ch=1 n=43 v=0
412800 On ch=1 n=48 v=80
413027 On ch=1 n=48 v=0
413040 On ch=1 n=51 v=80
413267 On ch=1 n=51 v=0
413280 On ch=1 n=51 v=80
413280 On ch=1 n=55 v=80
413507 On ch=1 n=51 v=0
413507 On ch=1 n=55 v=0
413520 On ch=1 n=51 v=80
413520 On ch=1 n=55 v=80
413747 On ch=1 n=51 v=0
413747 On ch=1 n=55 v=0
413760 On ch=1 n=51 v=80
413760 On ch=1 n=55 v=80
413987 On ch=1 n=51 v=0
413987 On ch=1 n=55 v=0
414000 On ch=1 n=51 v=80
414000 On ch=1 n=55 v=80
414455 On ch=1 n=51 v=0
414455 On ch=1 n=55 v=0
414480 On ch=1 n=55 v=80
414707 On ch=1 n=55 v=0
414720 On ch=1 n=51 v=80
415175 On ch=1 n=51 v=0
415200 On ch=1 n=48 v=80
415427 On ch=1 n=48 v=0
415440 On ch=1 n=43 v=80
415667 On ch=1 n=43 v=0
415680 On ch=1 n=36 v=80
416135 On ch=1 n=36 v=0
416160 On ch=1 n=31 v=80
416387 On ch=1 n=31 v=0
416400 On ch=1 n=43 v=80
416627 On ch=1 n=43 v=0
416640 On ch=1 n=43 v=80
416867 On ch=1 n=43 v=0
416880 On ch=1 n=50 v=80
417107 On ch=1 n=50 v=0
417120 On ch=1 n=55 v=80
417347 On ch=1 n=55 v=0
417360 On ch=1 n=50 v=80
417587 On ch=1 n=50 v=0
417600 On ch=1 n=43 v=80
417827 On ch=1 n=43 v=0
417840 On ch=1 n=32 v=80
417840 On ch=1 n=44 v=80
418295 On ch=1 n=32 v=0
418295 On ch=1 n=44 v=0
418320 On ch=1 n=44 v=80
418547 On ch=1 n=44 v=0
418560 On ch=1 n=51 v=80
418787 On ch=1 n=51 v=0
418800 On ch=1 n=56 v=80
419027 On ch=1 n=56 v=0
419040 On ch=1 n=44 v=80
419040 On ch=1 n=51 v=80
419040 On ch=1 n=56 v=80
419267 On ch=1 n=44 v=0
419267 On ch=1 n=51 v=0
419267 On ch=1 n=56 v=0
419280 On ch=1 n=44 v=80
419280 On ch=1 n=51 v=80
419280 On ch=1 n=56 v=80
419963 On ch=1 n=44 v=0
419963 On ch=1 n=51 v=0
419963 On ch=1 n=56 v=0
419964 Meta TrkEnd
TrkEnd