MFile 1 2 960
MTrk
0 TimeSig 4/4 24 8
0 KeySig 1 minor
0 Tempo 606060
334080 TimeSig 9/8 36 8
338400 TimeSig 4/4 24 8
426720 Tempo 606060
426945 Tempo 615105
427170 Tempo 624425
427395 Tempo 634032
427620 Tempo 643938
427845 Tempo 654160
428070 Tempo 664710
428295 Tempo 675607
428520 Tempo 686868
428745 Tempo 698509
428970 Tempo 710553
429195 Tempo 723018
429420 Tempo 735930
429645 Tempo 749310
429870 Tempo 763185
430095 Tempo 777586
430320 Tempo 792539
430321 Meta TrkEnd
TrkEnd
MTrk
0 PrCh ch=1 p=0
0 Par ch=1 c=121 v=0
0 Par ch=1 c=64 v=0
0 Par ch=1 c=91 v=48
0 Par ch=1 c=10 v=51
0 Par ch=1 c=7 v=100
0 On ch=1 n=52 v=67
0 Par ch=1 c=121 v=0
0 Par ch=1 c=64 v=0
0 Par ch=1 c=91 v=48
0 Par ch=1 c=10 v=51
0 Par ch=1 c=7 v=100
0 Meta TrkName "Klavier"
0 On ch=1 n=28 v=67
0 On ch=1 n=40 v=67
480 Off ch=1 n=52 v=0
480 On ch=1 n=55 v=79
960 Off ch=1 n=55 v=0
960 On ch=1 n=52 v=75
1440 Off ch=1 n=52 v=0
1440 On ch=1 n=55 v=79
1920 Off ch=1 n=55 v=0
1920 On ch=1 n=54 v=71
2640 Off ch=1 n=54 v=0
2640 On ch=1 n=47 v=69
3360 Off ch=1 n=47 v=0
3360 On ch=1 n=47 v=79
3840 Off ch=1 n=47 v=0
3840 On ch=1 n=52 v=79
3840 Off ch=1 n=28 v=0
3840 Off ch=1 n=40 v=0
3840 On ch=1 n=36 v=81
3840 On ch=1 n=48 v=79
4320 Off ch=1 n=52 v=0
4320 On ch=1 n=55 v=79
4800 Off ch=1 n=55 v=0
4800 On ch=1 n=52 v=72
5280 Off ch=1 n=52 v=0
5280 On ch=1 n=55 v=80
5760 Off ch=1 n=55 v=0
5760 On ch=1 n=54 v=74
6480 Off ch=1 n=54 v=0
6480 On ch=1 n=47 v=68
7200 Off ch=1 n=47 v=0
7200 On ch=1 n=47 v=77
7680 Off ch=1 n=47 v=0
7680 On ch=1 n=52 v=79
7680 Off ch=1 n=36 v=0
7680 Off ch=1 n=48 v=0
7680 On ch=1 n=33 v=67
7680 On ch=1 n=45 v=77
8160 Off ch=1 n=52 v=0
8160 On ch=1 n=55 v=79
8640 Off ch=1 n=55 v=0
8640 On ch=1 n=52 v=75
9120 Off ch=1 n=52 v=0
9120 On ch=1 n=55 v=79
9600 Off ch=1 n=55 v=0
9600 On ch=1 n=54 v=76
10320 Off ch=1 n=54 v=0
10320 On ch=1 n=47 v=66
11040 Off ch=1 n=47 v=0
11040 On ch=1 n=47 v=73
11520 Off ch=1 n=47 v=0
11520 On ch=1 n=52 v=78
11520 Off ch=1 n=33 v=0
11520 Off ch=1 n=45 v=0
11520 On ch=1 n=35 v=87
11520 On ch=1 n=47 v=87
12000 Off ch=1 n=52 v=0
12000 On ch=1 n=55 v=83
12480 Off ch=1 n=55 v=0
12480 On ch=1 n=52 v=73
12960 Off ch=1 n=52 v=0
12960 On ch=1 n=55 v=83
13440 Off ch=1 n=55 v=0
13440 On ch=1 n=51 v=67
13440 On ch=1 n=54 v=67
14160 Off ch=1 n=51 v=0
14160 Off ch=1 n=54 v=0
14160 On ch=1 n=47 v=67
14880 Off ch=1 n=47 v=0
14880 On ch=1 n=47 v=72
15360 Off ch=1 n=47 v=0
15360 On ch=1 n=67 v=100
15360 On ch=1 n=76 v=100
15360 Off ch=1 n=35 v=0
15360 Off ch=1 n=47 v=0
15360 On ch=1 n=52 v=86
15360 On ch=1 n=40 v=71
15840 Off ch=1 n=67 v=0
15840 Off ch=1 n=76 v=0
15840 On ch=1 n=71 v=88
15840 On ch=1 n=79 v=88
16080 Off ch=1 n=52 v=0
16080 On ch=1 n=54 v=80
16320 Off ch=1 n=71 v=0
16320 Off ch=1 n=79 v=0
16320 On ch=1 n=67 v=70
16320 On ch=1 n=76 v=70
16800 Off ch=1 n=67 v=0
16800 Off ch=1 n=76 v=0
16800 On ch=1 n=71 v=81
16800 On ch=1 n=79 v=81
16800 Off ch=1 n=54 v=0
16800 On ch=1 n=52 v=79
17280 Off ch=1 n=71 v=0
17280 Off ch=1 n=79 v=0
17280 On ch=1 n=69 v=72
17280 On ch=1 n=78 v=72
17520 Off ch=1 n=52 v=0
17520 On ch=1 n=59 v=84
18000 Off ch=1 n=69 v=0
18000 Off ch=1 n=78 v=0
18000 On ch=1 n=64 v=63
18000 On ch=1 n=71 v=63
18240 Off ch=1 n=59 v=0
18240 On ch=1 n=54 v=73
18720 Off ch=1 n=64 v=0
18720 Off ch=1 n=71 v=0
18720 On ch=1 n=64 v=74
18720 On ch=1 n=71 v=74
18720 Off ch=1 n=54 v=0
18720 On ch=1 n=52 v=73
19200 Off ch=1 n=64 v=0
19200 Off ch=1 n=71 v=0
19200 On ch=1 n=67 v=84
19200 On ch=1 n=76 v=84
19200 Off ch=1 n=40 v=0
19200 Off ch=1 n=52 v=0
19200 On ch=1 n=31 v=80
19200 On ch=1 n=43 v=80
19680 Off ch=1 n=67 v=0
19680 Off ch=1 n=76 v=0
19680 On ch=1 n=71 v=81
19680 On ch=1 n=79 v=81
19920 On ch=1 n=54 v=69
20160 Off ch=1 n=71 v=0
20160 Off ch=1 n=79 v=0
20160 On ch=1 n=67 v=74
20160 On ch=1 n=76 v=74
20640 Off ch=1 n=67 v=0
20640 Off ch=1 n=76 v=0
20640 On ch=1 n=71 v=83
20640 On ch=1 n=79 v=83
20640 Off ch=1 n=54 v=0
20640 On ch=1 n=52 v=71
21120 Off ch=1 n=71 v=0
21120 Off ch=1 n=79 v=0
21120 On ch=1 n=69 v=71
21120 On ch=1 n=78 v=71
21360 Off ch=1 n=52 v=0
21360 On ch=1 n=59 v=81
21840 Off ch=1 n=69 v=0
21840 Off ch=1 n=78 v=0
21840 On ch=1 n=64 v=60
21840 On ch=1 n=71 v=60
22080 Off ch=1 n=59 v=0
22080 On ch=1 n=54 v=71
22560 Off ch=1 n=64 v=0
22560 Off ch=1 n=71 v=0
22560 On ch=1 n=64 v=71
22560 On ch=1 n=71 v=71
22560 Off ch=1 n=54 v=0
22560 On ch=1 n=52 v=71
23040 Off ch=1 n=64 v=0
23040 Off ch=1 n=71 v=0
23040 On ch=1 n=67 v=90
23040 On ch=1 n=76 v=90
23040 Off ch=1 n=31 v=0
23040 Off ch=1 n=43 v=0
23040 Off ch=1 n=52 v=0
23040 On ch=1 n=33 v=75
23040 On ch=1 n=45 v=75
23520 Off ch=1 n=67 v=0
23520 Off ch=1 n=76 v=0
23520 On ch=1 n=71 v=88
23520 On ch=1 n=79 v=88
23760 On ch=1 n=54 v=72
24000 Off ch=1 n=71 v=0
24000 Off ch=1 n=79 v=0
24000 On ch=1 n=67 v=68
24000 On ch=1 n=76 v=68
24480 Off ch=1 n=67 v=0
24480 Off ch=1 n=76 v=0
24480 On ch=1 n=71 v=82
24480 On ch=1 n=79 v=82
24480 Off ch=1 n=54 v=0
24480 On ch=1 n=52 v=75
24960 Off ch=1 n=71 v=0
24960 Off ch=1 n=79 v=0
24960 On ch=1 n=69 v=74
24960 On ch=1 n=78 v=74
25200 Off ch=1 n=52 v=0
25200 On ch=1 n=59 v=84
25680 Off ch=1 n=69 v=0
25680 Off ch=1 n=78 v=0
25680 On ch=1 n=64 v=60
25680 On ch=1 n=71 v=60
25920 Off ch=1 n=59 v=0
25920 On ch=1 n=54 v=76
26400 Off ch=1 n=64 v=0
26400 Off ch=1 n=71 v=0
26400 On ch=1 n=64 v=75
26400 On ch=1 n=71 v=75
26400 Off ch=1 n=54 v=0
26400 On ch=1 n=52 v=73
26880 Off ch=1 n=64 v=0
26880 Off ch=1 n=71 v=0
26880 On ch=1 n=67 v=85
26880 On ch=1 n=76 v=85
26880 Off ch=1 n=33 v=0
26880 Off ch=1 n=45 v=0
26880 Off ch=1 n=52 v=0
26880 On ch=1 n=36 v=79
26880 On ch=1 n=48 v=79
27360 Off ch=1 n=67 v=0
27360 Off ch=1 n=76 v=0
27360 On ch=1 n=71 v=84
27360 On ch=1 n=79 v=84
27600 On ch=1 n=54 v=65
27840 Off ch=1 n=71 v=0
27840 Off ch=1 n=79 v=0
27840 On ch=1 n=67 v=76
27840 On ch=1 n=76 v=76
28320 Off ch=1 n=67 v=0
28320 Off ch=1 n=76 v=0
28320 On ch=1 n=71 v=83
28320 On ch=1 n=79 v=83
28320 Off ch=1 n=54 v=0
28320 On ch=1 n=52 v=72
28800 Off ch=1 n=71 v=0
28800 Off ch=1 n=79 v=0
28800 On ch=1 n=69 v=72
28800 On ch=1 n=78 v=72
28800 Off ch=1 n=36 v=0
28800 Off ch=1 n=48 v=0
28800 Off ch=1 n=52 v=0
28800 On ch=1 n=38 v=79
28800 On ch=1 n=50 v=79
29280 Off ch=1 n=69 v=0
29280 Off ch=1 n=78 v=0
29280 On ch=1 n=59 v=67
29520 On ch=1 n=64 v=85
29520 On ch=1 n=66 v=85
29520 On ch=1 n=71 v=85
30000 Off ch=1 n=59 v=0
30000 Off ch=1 n=64 v=0
30000 Off ch=1 n=66 v=0
30000 Off ch=1 n=71 v=0
30000 On ch=1 n=59 v=67
30240 On ch=1 n=64 v=82
30240 On ch=1 n=66 v=82
30240 On ch=1 n=71 v=82
30720 Off ch=1 n=38 v=0
30720 Off ch=1 n=50 v=0
30720 On ch=1 n=40 v=70
31440 On ch=1 n=47 v=67
31680 Off ch=1 n=47 v=0
31680 On ch=1 n=52 v=76
32160 On ch=1 n=59 v=74
32160 Off ch=1 n=52 v=0
32160 On ch=1 n=47 v=71
32400 Off ch=1 n=59 v=0
32400 On ch=1 n=59 v=87
32400 Off ch=1 n=47 v=0
32400 On ch=1 n=40 v=74
32640 Off ch=1 n=59 v=0
32640 On ch=1 n=59 v=82
32880 Off ch=1 n=40 v=0
32880 On ch=1 n=40 v=76
33120 Off ch=1 n=59 v=0
33120 On ch=1 n=59 v=80
33360 Off ch=1 n=40 v=0
33360 On ch=1 n=47 v=82
33600 Off ch=1 n=59 v=0
33600 On ch=1 n=62 v=91
33600 Off ch=1 n=47 v=0
33600 On ch=1 n=52 v=85
34080 Off ch=1 n=62 v=0
34080 On ch=1 n=64 v=86
34560 Off ch=1 n=59 v=0
34560 Off ch=1 n=64 v=0
34560 Off ch=1 n=66 v=0
34560 Off ch=1 n=71 v=0
34560 Off ch=1 n=64 v=0
34560 Off ch=1 n=40 v=0
34560 Off ch=1 n=52 v=0
34560 On ch=1 n=36 v=71
35280 On ch=1 n=43 v=66
35520 Off ch=1 n=43 v=0
35520 On ch=1 n=52 v=79
36000 On ch=1 n=59 v=69
36000 Off ch=1 n=52 v=0
36000 On ch=1 n=43 v=68
36240 Off ch=1 n=59 v=0
36240 On ch=1 n=59 v=75
36240 Off ch=1 n=43 v=0
36240 On ch=1 n=36 v=66
36480 Off ch=1 n=59 v=0
36480 On ch=1 n=59 v=79
36720 Off ch=1 n=36 v=0
36720 On ch=1 n=36 v=74
36960 Off ch=1 n=59 v=0
36960 On ch=1 n=59 v=75
37200 Off ch=1 n=36 v=0
37200 On ch=1 n=43 v=79
37440 Off ch=1 n=59 v=0
37440 On ch=1 n=62 v=81
37440 Off ch=1 n=43 v=0
37440 On ch=1 n=52 v=90
37920 Off ch=1 n=62 v=0
37920 On ch=1 n=64 v=81
38400 Off ch=1 n=64 v=0
38400 Off ch=1 n=36 v=0
38400 Off ch=1 n=52 v=0
38400 On ch=1 n=45 v=87
38880 On ch=1 n=59 v=64
39120 On ch=1 n=52 v=71
39360 Off ch=1 n=59 v=0
39360 On ch=1 n=62 v=82
39360 Off ch=1 n=52 v=0
39360 On ch=1 n=57 v=81
39840 Off ch=1 n=62 v=0
39840 On ch=1 n=64 v=86
39840 Off ch=1 n=57 v=0
39840 On ch=1 n=52 v=74
40080 Off ch=1 n=52 v=0
40080 On ch=1 n=45 v=68
40560 Off ch=1 n=45 v=0
40560 On ch=1 n=45 v=79
40800 Off ch=1 n=64 v=0
40800 On ch=1 n=59 v=73
41040 Off ch=1 n=59 v=0
41040 On ch=1 n=59 v=75
41040 Off ch=1 n=45 v=0
41040 On ch=1 n=52 v=86
41280 Off ch=1 n=59 v=0
41280 On ch=1 n=62 v=83
41280 Off ch=1 n=52 v=0
41280 On ch=1 n=57 v=82
41760 Off ch=1 n=62 v=0
41760 On ch=1 n=64 v=79
42240 Off ch=1 n=64 v=0
42240 On ch=1 n=66 v=78
42240 Off ch=1 n=45 v=0
42240 Off ch=1 n=57 v=0
42240 On ch=1 n=47 v=79
42720 Off ch=1 n=66 v=0
42720 On ch=1 n=67 v=77
42960 On ch=1 n=54 v=70
43200 Off ch=1 n=67 v=0
43200 On ch=1 n=66 v=77
43200 Off ch=1 n=54 v=0
43200 On ch=1 n=59 v=75
43680 Off ch=1 n=66 v=0
43680 On ch=1 n=67 v=81
43680 Off ch=1 n=59 v=0
43680 On ch=1 n=54 v=76
43920 Off ch=1 n=54 v=0
43920 On ch=1 n=47 v=69
44160 Off ch=1 n=67 v=0
44160 On ch=1 n=66 v=78
44400 Off ch=1 n=47 v=0
44400 On ch=1 n=35 v=70
44640 Off ch=1 n=66 v=0
44640 On ch=1 n=62 v=68
44640 Off ch=1 n=35 v=0
44640 On ch=1 n=47 v=79
44880 Off ch=1 n=47 v=0
44880 On ch=1 n=47 v=77
45120 Off ch=1 n=62 v=0
45120 On ch=1 n=62 v=72
45120 Off ch=1 n=47 v=0
45120 On ch=1 n=59 v=83
45360 Off ch=1 n=59 v=0
45360 On ch=1 n=54 v=73
45600 Off ch=1 n=54 v=0
45600 On ch=1 n=47 v=70
45840 Off ch=1 n=47 v=0
45840 On ch=1 n=47 v=79
46080 Off ch=1 n=62 v=0
46080 On ch=1 n=71 v=83
46080 On ch=1 n=76 v=83
46080 Off ch=1 n=47 v=0
46080 Off ch=1 n=47 v=0
46080 On ch=1 n=40 v=69
46560 On ch=1 n=47 v=69
46800 Off ch=1 n=71 v=0
46800 Off ch=1 n=76 v=0
46800 On ch=1 n=78 v=85
46800 Off ch=1 n=47 v=0
46800 On ch=1 n=52 v=78
47040 Off ch=1 n=52 v=0
47040 On ch=1 n=55 v=83
47520 Off ch=1 n=78 v=0
47520 On ch=1 n=59 v=69
47520 On ch=1 n=83 v=86
47760 Off ch=1 n=59 v=0
47760 On ch=1 n=59 v=78
48000 Off ch=1 n=59 v=0
48000 On ch=1 n=59 v=78
48240 Off ch=1 n=55 v=0
48240 On ch=1 n=40 v=63
48480 Off ch=1 n=59 v=0
48480 On ch=1 n=59 v=77
48480 Off ch=1 n=40 v=0
48480 On ch=1 n=47 v=81
48720 Off ch=1 n=47 v=0
48720 On ch=1 n=52 v=81
48960 Off ch=1 n=59 v=0
48960 On ch=1 n=62 v=85
48960 Off ch=1 n=52 v=0
48960 On ch=1 n=55 v=83
49200 Off ch=1 n=55 v=0
49200 On ch=1 n=52 v=70
49440 Off ch=1 n=62 v=0
49440 On ch=1 n=64 v=82
49440 Off ch=1 n=52 v=0
49440 On ch=1 n=40 v=68
49920 Off ch=1 n=83 v=0
49920 Off ch=1 n=64 v=0
49920 On ch=1 n=72 v=67
49920 On ch=1 n=76 v=67
49920 Off ch=1 n=40 v=0
49920 Off ch=1 n=40 v=0
49920 On ch=1 n=36 v=76
50400 On ch=1 n=55 v=70
50640 Off ch=1 n=72 v=0
50640 Off ch=1 n=76 v=0
50640 On ch=1 n=78 v=81
50640 Off ch=1 n=55 v=0
50640 On ch=1 n=60 v=86
50880 On ch=1 n=67 v=68
50880 Off ch=1 n=60 v=0
50880 On ch=1 n=64 v=83
51360 Off ch=1 n=78 v=0
51360 Off ch=1 n=67 v=0
51360 On ch=1 n=66 v=68
51360 On ch=1 n=83 v=84
51600 Off ch=1 n=64 v=0
51600 On ch=1 n=48 v=69
52080 Off ch=1 n=48 v=0
52080 On ch=1 n=48 v=75
52320 Off ch=1 n=66 v=0
52320 On ch=1 n=67 v=79
52320 Off ch=1 n=48 v=0
52320 On ch=1 n=55 v=79
52560 Off ch=1 n=55 v=0
52560 On ch=1 n=60 v=89
52800 Off ch=1 n=67 v=0
52800 On ch=1 n=64 v=71
52800 Off ch=1 n=60 v=0
52800 On ch=1 n=60 v=79
53040 Off ch=1 n=60 v=0
53040 On ch=1 n=55 v=72
53280 Off ch=1 n=55 v=0
53280 On ch=1 n=48 v=65
53760 Off ch=1 n=83 v=0
53760 Off ch=1 n=64 v=0
53760 On ch=1 n=72 v=59
53760 On ch=1 n=76 v=59
53760 Off ch=1 n=36 v=0
53760 Off ch=1 n=48 v=0
53760 On ch=1 n=45 v=82
54240 On ch=1 n=52 v=69
54480 Off ch=1 n=72 v=0
54480 Off ch=1 n=76 v=0
54480 On ch=1 n=78 v=78
54480 Off ch=1 n=52 v=0
54480 On ch=1 n=57 v=80
54720 On ch=1 n=64 v=66
54720 Off ch=1 n=57 v=0
54720 On ch=1 n=60 v=83
55200 Off ch=1 n=78 v=0
55200 Off ch=1 n=64 v=0
55200 On ch=1 n=66 v=81
55200 On ch=1 n=83 v=85
55440 Off ch=1 n=60 v=0
55440 On ch=1 n=45 v=64
55680 Off ch=1 n=66 v=0
55680 On ch=1 n=67 v=78
55920 Off ch=1 n=45 v=0
55920 On ch=1 n=45 v=72
56160 Off ch=1 n=67 v=0
56160 On ch=1 n=64 v=72
56160 Off ch=1 n=45 v=0
56160 On ch=1 n=52 v=83
56400 Off ch=1 n=52 v=0
56400 On ch=1 n=57 v=83
56640 Off ch=1 n=64 v=0
56640 On ch=1 n=66 v=78
56640 Off ch=1 n=57 v=0
56640 On ch=1 n=60 v=81
56880 Off ch=1 n=60 v=0
56880 On ch=1 n=57 v=72
57120 Off ch=1 n=66 v=0
57120 On ch=1 n=67 v=79
57120 Off ch=1 n=57 v=0
57120 On ch=1 n=45 v=61
57600 Off ch=1 n=83 v=0
57600 Off ch=1 n=67 v=0
57600 On ch=1 n=69 v=81
57600 On ch=1 n=76 v=68
57600 Off ch=1 n=45 v=0
57600 Off ch=1 n=45 v=0
57600 On ch=1 n=47 v=81
58080 Off ch=1 n=69 v=0
58080 On ch=1 n=67 v=76
58080 On ch=1 n=55 v=68
58320 Off ch=1 n=76 v=0
58320 On ch=1 n=78 v=80
58320 Off ch=1 n=55 v=0
58320 On ch=1 n=59 v=76
58560 Off ch=1 n=67 v=0
58560 On ch=1 n=67 v=70
58560 Off ch=1 n=59 v=0
58560 On ch=1 n=64 v=86
59040 Off ch=1 n=78 v=0
59040 Off ch=1 n=67 v=0
59040 On ch=1 n=66 v=75
59040 On ch=1 n=83 v=85
59280 Off ch=1 n=64 v=0
59280 On ch=1 n=47 v=69
59520 Off ch=1 n=66 v=0
59520 On ch=1 n=66 v=75
59520 Off ch=1 n=47 v=0
59760 Off ch=1 n=47 v=0
59760 On ch=1 n=35 v=64
60000 Off ch=1 n=35 v=0
60000 On ch=1 n=47 v=89
60240 Off ch=1 n=66 v=0
60240 On ch=1 n=59 v=67
60240 Off ch=1 n=47 v=0
60240 On ch=1 n=51 v=83
60480 Off ch=1 n=51 v=0
60480 On ch=1 n=54 v=85
60720 Off ch=1 n=54 v=0
60720 On ch=1 n=51 v=73
60960 Off ch=1 n=51 v=0
60960 On ch=1 n=47 v=72
61440 Off ch=1 n=83 v=0
61440 Off ch=1 n=59 v=0
61440 On ch=1 n=64 v=87
61440 Off ch=1 n=47 v=0
61440 On ch=1 n=36 v=70
61680 Off ch=1 n=36 v=0
61680 On ch=1 n=48 v=82
61920 Off ch=1 n=64 v=0
61920 On ch=1 n=62 v=75
61920 Off ch=1 n=48 v=0
61920 On ch=1 n=36 v=68
62160 Off ch=1 n=36 v=0
62160 On ch=1 n=48 v=87
62400 Off ch=1 n=62 v=0
62400 On ch=1 n=64 v=85
62400 Off ch=1 n=48 v=0
62400 On ch=1 n=52 v=85
62400 On ch=1 n=55 v=85
62640 On ch=1 n=48 v=80
62880 Off ch=1 n=64 v=0
62880 On ch=1 n=67 v=80
62880 Off ch=1 n=48 v=0
62880 On ch=1 n=48 v=84
63120 Off ch=1 n=67 v=0
63120 On ch=1 n=64 v=70
63120 Off ch=1 n=48 v=0
63120 On ch=1 n=36 v=78
63360 Off ch=1 n=52 v=0
63360 Off ch=1 n=55 v=0
63360 Off ch=1 n=36 v=0
63360 On ch=1 n=48 v=88
63600 Off ch=1 n=48 v=0
63600 On ch=1 n=36 v=68
63840 Off ch=1 n=64 v=0
63840 On ch=1 n=62 v=73
63840 Off ch=1 n=36 v=0
63840 On ch=1 n=36 v=73
64080 Off ch=1 n=36 v=0
64080 On ch=1 n=48 v=86
64320 Off ch=1 n=62 v=0
64320 On ch=1 n=64 v=81
64320 Off ch=1 n=48 v=0
64320 On ch=1 n=52 v=82
64320 On ch=1 n=55 v=82
64560 On ch=1 n=48 v=78
64800 Off ch=1 n=64 v=0
64800 On ch=1 n=67 v=86
64800 Off ch=1 n=48 v=0
64800 On ch=1 n=48 v=82
65040 Off ch=1 n=67 v=0
65040 On ch=1 n=69 v=78
65040 Off ch=1 n=48 v=0
65040 On ch=1 n=48 v=83
65280 Off ch=1 n=52 v=0
65280 Off ch=1 n=55 v=0
65280 Off ch=1 n=48 v=0
65280 On ch=1 n=38 v=63
65520 Off ch=1 n=38 v=0
65520 On ch=1 n=50 v=84
65760 Off ch=1 n=69 v=0
65760 On ch=1 n=67 v=66
65760 Off ch=1 n=50 v=0
65760 On ch=1 n=38 v=70
66000 Off ch=1 n=38 v=0
66000 On ch=1 n=50 v=93
66240 Off ch=1 n=67 v=0
66240 On ch=1 n=67 v=76
66240 Off ch=1 n=50 v=0
66240 On ch=1 n=54 v=83
66240 On ch=1 n=57 v=83
66480 On ch=1 n=50 v=73
66720 Off ch=1 n=67 v=0
66720 On ch=1 n=64 v=72
66720 Off ch=1 n=50 v=0
66720 On ch=1 n=50 v=83
66960 Off ch=1 n=50 v=0
66960 On ch=1 n=38 v=73
67200 Off ch=1 n=64 v=0
67200 On ch=1 n=69 v=82
67200 Off ch=1 n=54 v=0
67200 Off ch=1 n=57 v=0
67200 Off ch=1 n=38 v=0
67200 On ch=1 n=50 v=86
67440 Off ch=1 n=50 v=0
67440 On ch=1 n=38 v=71
67680 Off ch=1 n=38 v=0
67680 On ch=1 n=38 v=70
67920 Off ch=1 n=69 v=0
67920 On ch=1 n=64 v=69
67920 Off ch=1 n=38 v=0
67920 On ch=1 n=50 v=86
68160 Off ch=1 n=50 v=0
68160 On ch=1 n=54 v=87
68160 On ch=1 n=57 v=87
68400 On ch=1 n=50 v=82
68640 Off ch=1 n=50 v=0
68640 On ch=1 n=50 v=86
68880 Off ch=1 n=50 v=0
68880 On ch=1 n=50 v=86
69120 Off ch=1 n=64 v=0
69120 On ch=1 n=64 v=80
69120 Off ch=1 n=54 v=0
69120 Off ch=1 n=57 v=0
69120 Off ch=1 n=50 v=0
69120 On ch=1 n=45 v=70
69360 Off ch=1 n=45 v=0
69360 On ch=1 n=52 v=84
69600 Off ch=1 n=64 v=0
69600 On ch=1 n=62 v=72
69600 Off ch=1 n=52 v=0
69600 On ch=1 n=45 v=73
69840 Off ch=1 n=45 v=0
69840 On ch=1 n=52 v=79
70080 Off ch=1 n=62 v=0
70080 On ch=1 n=64 v=85
70080 Off ch=1 n=52 v=0
70080 On ch=1 n=57 v=90
70080 On ch=1 n=60 v=90
70320 On ch=1 n=52 v=87
70560 Off ch=1 n=64 v=0
70560 On ch=1 n=67 v=84
70560 Off ch=1 n=52 v=0
70560 On ch=1 n=52 v=95
70800 Off ch=1 n=67 v=0
70800 On ch=1 n=64 v=70
70800 Off ch=1 n=52 v=0
70800 On ch=1 n=45 v=78
71040 Off ch=1 n=57 v=0
71040 Off ch=1 n=60 v=0
71040 Off ch=1 n=45 v=0
71040 On ch=1 n=52 v=82
71280 Off ch=1 n=52 v=0
71280 On ch=1 n=45 v=71
71520 Off ch=1 n=64 v=0
71520 On ch=1 n=62 v=64
71520 Off ch=1 n=45 v=0
71520 On ch=1 n=45 v=74
71760 Off ch=1 n=45 v=0
71760 On ch=1 n=52 v=82
72000 Off ch=1 n=62 v=0
72000 On ch=1 n=64 v=81
72000 Off ch=1 n=52 v=0
72000 On ch=1 n=57 v=97
72000 On ch=1 n=60 v=97
72240 On ch=1 n=52 v=91
72480 Off ch=1 n=64 v=0
72480 On ch=1 n=67 v=83
72480 Off ch=1 n=52 v=0
72480 On ch=1 n=52 v=96
72720 Off ch=1 n=67 v=0
72720 On ch=1 n=66 v=75
72720 Off ch=1 n=52 v=0
72720 On ch=1 n=52 v=94
72960 Off ch=1 n=57 v=0
72960 Off ch=1 n=60 v=0
72960 Off ch=1 n=52 v=0
72960 On ch=1 n=43 v=67
73200 Off ch=1 n=43 v=0
73200 On ch=1 n=50 v=81
73440 Off ch=1 n=66 v=0
73440 On ch=1 n=62 v=68
73440 Off ch=1 n=50 v=0
73440 On ch=1 n=43 v=70
73680 Off ch=1 n=43 v=0
73680 On ch=1 n=50 v=83
73920 Off ch=1 n=62 v=0
73920 On ch=1 n=62 v=80
73920 Off ch=1 n=50 v=0
73920 On ch=1 n=55 v=85
73920 On ch=1 n=59 v=85
74160 On ch=1 n=50 v=75
74400 Off ch=1 n=62 v=0
74400 On ch=1 n=59 v=74
74400 Off ch=1 n=50 v=0
74400 On ch=1 n=50 v=84
74640 Off ch=1 n=50 v=0
74640 On ch=1 n=43 v=77
74880 Off ch=1 n=59 v=0
74880 On ch=1 n=66 v=92
74880 Off ch=1 n=55 v=0
74880 Off ch=1 n=59 v=0
74880 Off ch=1 n=43 v=0
74880 On ch=1 n=50 v=78
75120 Off ch=1 n=50 v=0
75120 On ch=1 n=43 v=72
75360 Off ch=1 n=43 v=0
75360 On ch=1 n=43 v=75
75600 Off ch=1 n=66 v=0
75600 On ch=1 n=62 v=68
75600 Off ch=1 n=43 v=0
75600 On ch=1 n=50 v=83
75840 Off ch=1 n=50 v=0
75840 On ch=1 n=55 v=87
75840 On ch=1 n=59 v=87
76080 On ch=1 n=50 v=80
76320 Off ch=1 n=50 v=0
76320 On ch=1 n=50 v=86
76560 Off ch=1 n=50 v=0
76560 On ch=1 n=50 v=88
76800 Off ch=1 n=62 v=0
76800 On ch=1 n=67 v=98
76800 On ch=1 n=76 v=98
76800 Off ch=1 n=55 v=0
76800 Off ch=1 n=59 v=0
76800 Off ch=1 n=50 v=0
76800 On ch=1 n=36 v=66
77040 Off ch=1 n=36 v=0
77040 On ch=1 n=48 v=83
77280 Off ch=1 n=67 v=0
77280 Off ch=1 n=76 v=0
77280 On ch=1 n=74 v=77
77280 Off ch=1 n=48 v=0
77280 On ch=1 n=36 v=65
77520 Off ch=1 n=36 v=0
77520 On ch=1 n=48 v=85
77760 Off ch=1 n=74 v=0
77760 On ch=1 n=67 v=80
77760 On ch=1 n=76 v=80
77760 Off ch=1 n=48 v=0
77760 On ch=1 n=52 v=84
77760 On ch=1 n=55 v=84
78000 On ch=1 n=48 v=77
78240 Off ch=1 n=67 v=0
78240 Off ch=1 n=76 v=0
78240 On ch=1 n=79 v=77
78240 Off ch=1 n=48 v=0
78240 On ch=1 n=48 v=81
78480 Off ch=1 n=79 v=0
78480 On ch=1 n=76 v=77
78480 Off ch=1 n=48 v=0
78480 On ch=1 n=36 v=73
78720 Off ch=1 n=52 v=0
78720 Off ch=1 n=55 v=0
78720 Off ch=1 n=36 v=0
78720 On ch=1 n=48 v=82
78960 Off ch=1 n=48 v=0
78960 On ch=1 n=36 v=70
79200 Off ch=1 n=76 v=0
79200 On ch=1 n=74 v=69
79200 Off ch=1 n=36 v=0
79200 On ch=1 n=36 v=80
79440 Off ch=1 n=36 v=0
79440 On ch=1 n=48 v=83
79680 Off ch=1 n=74 v=0
79680 On ch=1 n=67 v=79
79680 On ch=1 n=76 v=79
79680 Off ch=1 n=48 v=0
79680 On ch=1 n=52 v=82
79680 On ch=1 n=55 v=82
79920 On ch=1 n=48 v=80
80160 Off ch=1 n=67 v=0
80160 Off ch=1 n=76 v=0
80160 On ch=1 n=79 v=88
80160 Off ch=1 n=48 v=0
80160 On ch=1 n=48 v=77
80400 Off ch=1 n=79 v=0
80400 On ch=1 n=69 v=82
80400 On ch=1 n=74 v=82
80400 On ch=1 n=78 v=82
80400 On ch=1 n=81 v=82
80400 Off ch=1 n=48 v=0
80400 On ch=1 n=48 v=84
80640 Off ch=1 n=52 v=0
80640 Off ch=1 n=55 v=0
80640 Off ch=1 n=48 v=0
80640 On ch=1 n=38 v=68
80880 Off ch=1 n=38 v=0
80880 On ch=1 n=50 v=82
81120 Off ch=1 n=69 v=0
81120 Off ch=1 n=74 v=0
81120 Off ch=1 n=78 v=0
81120 Off ch=1 n=81 v=0
81120 On ch=1 n=79 v=71
81120 Off ch=1 n=50 v=0
81120 On ch=1 n=38 v=67
81360 Off ch=1 n=38 v=0
81360 On ch=1 n=50 v=85
81600 Off ch=1 n=79 v=0
81600 On ch=1 n=69 v=77
81600 On ch=1 n=79 v=77
81600 Off ch=1 n=50 v=0
81600 On ch=1 n=54 v=85
81600 On ch=1 n=57 v=85
81840 On ch=1 n=50 v=79
82080 Off ch=1 n=69 v=0
82080 Off ch=1 n=79 v=0
82080 On ch=1 n=76 v=69
82080 Off ch=1 n=50 v=0
82080 On ch=1 n=50 v=81
82320 Off ch=1 n=50 v=0
82320 On ch=1 n=38 v=73
82560 Off ch=1 n=76 v=0
82560 On ch=1 n=69 v=88
82560 On ch=1 n=74 v=88
82560 On ch=1 n=78 v=88
82560 On ch=1 n=81 v=88
82560 Off ch=1 n=54 v=0
82560 Off ch=1 n=57 v=0
82560 Off ch=1 n=38 v=0
82560 On ch=1 n=50 v=85
82800 Off ch=1 n=50 v=0
82800 On ch=1 n=38 v=65
83040 Off ch=1 n=38 v=0
83040 On ch=1 n=38 v=72
83280 Off ch=1 n=69 v=0
83280 Off ch=1 n=74 v=0
83280 Off ch=1 n=78 v=0
83280 Off ch=1 n=81 v=0
83280 On ch=1 n=76 v=67
83280 Off ch=1 n=38 v=0
83280 On ch=1 n=50 v=83
83520 Off ch=1 n=50 v=0
83520 On ch=1 n=54 v=81
83520 On ch=1 n=57 v=81
83760 On ch=1 n=50 v=76
84000 Off ch=1 n=50 v=0
84000 On ch=1 n=50 v=82
84240 Off ch=1 n=50 v=0
84240 On ch=1 n=50 v=83
84480 Off ch=1 n=76 v=0
84480 On ch=1 n=71 v=61
84480 Off ch=1 n=54 v=0
84480 Off ch=1 n=57 v=0
84480 Off ch=1 n=50 v=0
84480 On ch=1 n=43 v=75
84720 Off ch=1 n=43 v=0
84720 On ch=1 n=50 v=84
84960 Off ch=1 n=71 v=0
84960 On ch=1 n=79 v=84
84960 Off ch=1 n=50 v=0
84960 On ch=1 n=43 v=72
85200 Off ch=1 n=43 v=0
85200 On ch=1 n=50 v=76
85440 Off ch=1 n=79 v=0
85440 On ch=1 n=71 v=75
85440 On ch=1 n=78 v=75
85440 Off ch=1 n=50 v=0
85440 On ch=1 n=55 v=86
85440 On ch=1 n=59 v=86
85680 On ch=1 n=50 v=80
85920 Off ch=1 n=71 v=0
85920 Off ch=1 n=78 v=0
85920 On ch=1 n=74 v=71
85920 Off ch=1 n=50 v=0
85920 On ch=1 n=50 v=77
86160 Off ch=1 n=74 v=0
86160 On ch=1 n=76 v=85
86160 Off ch=1 n=50 v=0
86160 On ch=1 n=43 v=81
86400 Off ch=1 n=55 v=0
86400 Off ch=1 n=59 v=0
86400 Off ch=1 n=43 v=0
86400 On ch=1 n=50 v=79
86640 Off ch=1 n=50 v=0
86640 On ch=1 n=43 v=68
86880 Off ch=1 n=76 v=0
86880 On ch=1 n=79 v=80
86880 Off ch=1 n=43 v=0
86880 On ch=1 n=43 v=72
87120 Off ch=1 n=43 v=0
87120 On ch=1 n=50 v=82
87360 Off ch=1 n=79 v=0
87360 On ch=1 n=71 v=72
87360 On ch=1 n=78 v=72
87360 Off ch=1 n=50 v=0
87360 On ch=1 n=55 v=86
87360 On ch=1 n=59 v=86
87600 On ch=1 n=50 v=75
87840 Off ch=1 n=71 v=0
87840 Off ch=1 n=78 v=0
87840 On ch=1 n=76 v=71
87840 Off ch=1 n=50 v=0
87840 On ch=1 n=50 v=86
88080 Off ch=1 n=76 v=0
88080 On ch=1 n=69 v=81
88080 On ch=1 n=71 v=81
88080 On ch=1 n=78 v=81
88080 Off ch=1 n=50 v=0
88080 On ch=1 n=50 v=90
88320 Off ch=1 n=55 v=0
88320 Off ch=1 n=59 v=0
88320 Off ch=1 n=50 v=0
88320 On ch=1 n=45 v=70
88800 On ch=1 n=52 v=65
89040 Off ch=1 n=52 v=0
89040 On ch=1 n=57 v=83
89280 Off ch=1 n=57 v=0
89280 On ch=1 n=59 v=78
89520 Off ch=1 n=59 v=0
89520 On ch=1 n=64 v=82
89760 Off ch=1 n=64 v=0
89760 On ch=1 n=66 v=88
90000 Off ch=1 n=66 v=0
90000 On ch=1 n=71 v=86
90240 Off ch=1 n=69 v=0
90240 Off ch=1 n=71 v=0
90240 Off ch=1 n=78 v=0
90720 On ch=1 n=71 v=69
90720 On ch=1 n=83 v=69
91200 Off ch=1 n=45 v=0
91200 Off ch=1 n=71 v=0
91440 Off ch=1 n=71 v=0
91440 Off ch=1 n=83 v=0
91440 On ch=1 n=64 v=64
91440 On ch=1 n=76 v=64
91920 On ch=1 n=40 v=71
92160 Off ch=1 n=64 v=0
92160 Off ch=1 n=76 v=0
92160 On ch=1 n=71 v=84
92160 On ch=1 n=76 v=84
92160 On ch=1 n=79 v=84
92160 On ch=1 n=83 v=84
92160 On ch=1 n=28 v=66
92640 On ch=1 n=52 v=63
92880 Off ch=1 n=52 v=0
92880 On ch=1 n=55 v=71
93120 Off ch=1 n=71 v=0
93120 Off ch=1 n=76 v=0
93120 Off ch=1 n=79 v=0
93120 Off ch=1 n=83 v=0
93120 On ch=1 n=74 v=88
93120 On ch=1 n=79 v=88
93120 On ch=1 n=83 v=88
93120 On ch=1 n=86 v=88
93120 Off ch=1 n=55 v=0
93120 On ch=1 n=59 v=86
93120 On ch=1 n=64 v=86
93600 Off ch=1 n=74 v=0
93600 Off ch=1 n=79 v=0
93600 Off ch=1 n=83 v=0
93600 Off ch=1 n=86 v=0
93600 On ch=1 n=71 v=72
93600 On ch=1 n=83 v=72
93600 Off ch=1 n=59 v=0
93600 Off ch=1 n=64 v=0
93600 On ch=1 n=40 v=66
93840 Off ch=1 n=40 v=0
93840 On ch=1 n=52 v=80
94320 Off ch=1 n=52 v=0
94320 On ch=1 n=40 v=57
94560 Off ch=1 n=71 v=0
94560 Off ch=1 n=83 v=0
94560 On ch=1 n=71 v=80
94560 On ch=1 n=76 v=80
94560 On ch=1 n=79 v=80
94560 On ch=1 n=83 v=80
94560 Off ch=1 n=40 v=0
94560 On ch=1 n=52 v=78
94800 Off ch=1 n=52 v=0
94800 On ch=1 n=52 v=74
95040 Off ch=1 n=52 v=0
95040 On ch=1 n=59 v=91
95040 On ch=1 n=64 v=91
95280 Off ch=1 n=71 v=0
95280 Off ch=1 n=76 v=0
95280 Off ch=1 n=79 v=0
95280 Off ch=1 n=83 v=0
95280 On ch=1 n=76 v=61
95280 Off ch=1 n=59 v=0
95280 Off ch=1 n=64 v=0
95280 On ch=1 n=55 v=67
95520 Off ch=1 n=55 v=0
95520 On ch=1 n=52 v=68
95760 Off ch=1 n=52 v=0
95760 On ch=1 n=40 v=64
96000 Off ch=1 n=76 v=0
96000 On ch=1 n=71 v=90
96000 On ch=1 n=76 v=90
96000 On ch=1 n=79 v=90
96000 On ch=1 n=83 v=90
96000 Off ch=1 n=40 v=0
96000 Off ch=1 n=28 v=0
96000 Off ch=1 n=40 v=0
96000 On ch=1 n=24 v=69
96000 On ch=1 n=36 v=69
96480 On ch=1 n=48 v=71
96720 Off ch=1 n=48 v=0
96720 On ch=1 n=52 v=77
96960 Off ch=1 n=71 v=0
96960 Off ch=1 n=76 v=0
96960 Off ch=1 n=79 v=0
96960 Off ch=1 n=83 v=0
96960 On ch=1 n=74 v=88
96960 On ch=1 n=79 v=88
96960 On ch=1 n=83 v=88
96960 On ch=1 n=86 v=88
96960 Off ch=1 n=52 v=0
96960 On ch=1 n=55 v=92
96960 On ch=1 n=60 v=92
97440 Off ch=1 n=74 v=0
97440 Off ch=1 n=79 v=0
97440 Off ch=1 n=83 v=0
97440 Off ch=1 n=86 v=0
97440 On ch=1 n=71 v=71
97440 On ch=1 n=83 v=71
97440 Off ch=1 n=55 v=0
97440 Off ch=1 n=60 v=0
97440 On ch=1 n=36 v=70
97680 Off ch=1 n=36 v=0
97680 On ch=1 n=48 v=81
98160 Off ch=1 n=48 v=0
98160 On ch=1 n=36 v=69
98400 Off ch=1 n=71 v=0
98400 Off ch=1 n=83 v=0
98400 On ch=1 n=71 v=77
98400 On ch=1 n=76 v=77
98400 On ch=1 n=79 v=77
98400 On ch=1 n=83 v=77
98400 Off ch=1 n=36 v=0
98400 On ch=1 n=48 v=79
98640 Off ch=1 n=48 v=0
98640 On ch=1 n=48 v=77
98880 Off ch=1 n=48 v=0
98880 On ch=1 n=55 v=94
98880 On ch=1 n=60 v=94
99120 Off ch=1 n=71 v=0
99120 Off ch=1 n=76 v=0
99120 Off ch=1 n=79 v=0
99120 Off ch=1 n=83 v=0
99120 On ch=1 n=64 v=61
99120 On ch=1 n=76 v=61
99120 Off ch=1 n=55 v=0
99120 Off ch=1 n=60 v=0
99120 On ch=1 n=52 v=67
99360 Off ch=1 n=52 v=0
99360 On ch=1 n=48 v=70
99600 Off ch=1 n=48 v=0
99600 On ch=1 n=36 v=71
99840 Off ch=1 n=64 v=0
99840 Off ch=1 n=76 v=0
99840 On ch=1 n=71 v=89
99840 On ch=1 n=76 v=89
99840 On ch=1 n=79 v=89
99840 On ch=1 n=83 v=89
99840 Off ch=1 n=24 v=0
99840 Off ch=1 n=36 v=0
99840 Off ch=1 n=36 v=0
99840 On ch=1 n=33 v=81
99840 On ch=1 n=45 v=81
100320 On ch=1 n=45 v=64
100560 Off ch=1 n=45 v=0
100560 On ch=1 n=48 v=74
100800 Off ch=1 n=71 v=0
100800 Off ch=1 n=76 v=0
100800 Off ch=1 n=79 v=0
100800 Off ch=1 n=83 v=0
100800 On ch=1 n=72 v=78
100800 On ch=1 n=76 v=78
100800 On ch=1 n=79 v=78
100800 On ch=1 n=84 v=78
100800 Off ch=1 n=48 v=0
100800 On ch=1 n=52 v=81
100800 On ch=1 n=57 v=81
101280 Off ch=1 n=72 v=0
101280 Off ch=1 n=76 v=0
101280 Off ch=1 n=79 v=0
101280 Off ch=1 n=84 v=0
101280 On ch=1 n=71 v=71
101280 On ch=1 n=83 v=71
101280 Off ch=1 n=52 v=0
101280 Off ch=1 n=57 v=0
101280 On ch=1 n=33 v=66
101520 Off ch=1 n=33 v=0
101520 On ch=1 n=45 v=83
102000 Off ch=1 n=45 v=0
102000 On ch=1 n=33 v=65
102240 Off ch=1 n=71 v=0
102240 Off ch=1 n=83 v=0
102240 On ch=1 n=71 v=78
102240 On ch=1 n=76 v=78
102240 On ch=1 n=79 v=78
102240 On ch=1 n=83 v=78
102240 Off ch=1 n=33 v=0
102240 On ch=1 n=45 v=80
102480 Off ch=1 n=45 v=0
102480 On ch=1 n=45 v=76
102720 Off ch=1 n=45 v=0
102720 On ch=1 n=52 v=85
102720 On ch=1 n=57 v=85
102960 Off ch=1 n=71 v=0
102960 Off ch=1 n=76 v=0
102960 Off ch=1 n=79 v=0
102960 Off ch=1 n=83 v=0
102960 On ch=1 n=64 v=63
102960 On ch=1 n=76 v=63
102960 Off ch=1 n=52 v=0
102960 Off ch=1 n=57 v=0
102960 On ch=1 n=48 v=67
103200 Off ch=1 n=48 v=0
103200 On ch=1 n=45 v=71
103440 Off ch=1 n=45 v=0
103440 On ch=1 n=33 v=67
103680 Off ch=1 n=64 v=0
103680 Off ch=1 n=76 v=0
103680 On ch=1 n=69 v=85
103680 On ch=1 n=74 v=85
103680 On ch=1 n=78 v=85
103680 On ch=1 n=81 v=85
103680 Off ch=1 n=33 v=0
103680 Off ch=1 n=45 v=0
103680 Off ch=1 n=33 v=0
103680 On ch=1 n=31 v=78
103680 On ch=1 n=43 v=78
104160 Off ch=1 n=69 v=0
104160 Off ch=1 n=74 v=0
104160 Off ch=1 n=78 v=0
104160 Off ch=1 n=81 v=0
104160 On ch=1 n=67 v=75
104160 On ch=1 n=79 v=75
104400 On ch=1 n=52 v=70
104640 Off ch=1 n=67 v=0
104640 Off ch=1 n=79 v=0
104640 On ch=1 n=69 v=83
104640 On ch=1 n=74 v=83
104640 On ch=1 n=78 v=83
104640 On ch=1 n=81 v=83
104640 Off ch=1 n=52 v=0
104640 On ch=1 n=55 v=79
104640 On ch=1 n=59 v=79
105120 Off ch=1 n=69 v=0
105120 Off ch=1 n=74 v=0
105120 Off ch=1 n=78 v=0
105120 Off ch=1 n=81 v=0
105120 On ch=1 n=67 v=73
105120 On ch=1 n=79 v=73
105360 Off ch=1 n=55 v=0
105360 Off ch=1 n=59 v=0
105360 On ch=1 n=52 v=67
105600 Off ch=1 n=67 v=0
105600 Off ch=1 n=79 v=0
105600 On ch=1 n=71 v=82
105600 On ch=1 n=76 v=82
105600 On ch=1 n=78 v=82
105600 On ch=1 n=83 v=82
105600 Off ch=1 n=31 v=0
105600 Off ch=1 n=43 v=0
105600 Off ch=1 n=52 v=0
105600 On ch=1 n=35 v=77
105600 On ch=1 n=47 v=77
106080 On ch=1 n=47 v=70
106320 Off ch=1 n=71 v=0
106320 Off ch=1 n=76 v=0
106320 Off ch=1 n=78 v=0
106320 Off ch=1 n=83 v=0
106320 On ch=1 n=64 v=67
106320 On ch=1 n=66 v=67
106320 On ch=1 n=71 v=67
106320 On ch=1 n=76 v=67
106320 Off ch=1 n=47 v=0
106320 On ch=1 n=54 v=84
106560 Off ch=1 n=54 v=0
106560 On ch=1 n=59 v=77
106800 Off ch=1 n=64 v=0
106800 Off ch=1 n=66 v=0
106800 Off ch=1 n=71 v=0
106800 Off ch=1 n=76 v=0
106800 On ch=1 n=64 v=77
106800 On ch=1 n=76 v=77
106800 Off ch=1 n=59 v=0
106800 On ch=1 n=54 v=72
107040 Off ch=1 n=54 v=0
107040 On ch=1 n=47 v=69
107280 Off ch=1 n=47 v=0
107280 On ch=1 n=35 v=68
107520 Off ch=1 n=64 v=0
107520 Off ch=1 n=76 v=0
107520 On ch=1 n=71 v=86
107520 On ch=1 n=76 v=86
107520 On ch=1 n=79 v=86
107520 On ch=1 n=83 v=86
107520 Off ch=1 n=35 v=0
107520 Off ch=1 n=47 v=0
107520 Off ch=1 n=35 v=0
107520 On ch=1 n=28 v=67
107520 On ch=1 n=40 v=67
108000 On ch=1 n=52 v=66
108240 Off ch=1 n=52 v=0
108240 On ch=1 n=55 v=76
108480 Off ch=1 n=71 v=0
108480 Off ch=1 n=76 v=0
108480 Off ch=1 n=79 v=0
108480 Off ch=1 n=83 v=0
108480 On ch=1 n=74 v=83
108480 On ch=1 n=79 v=83
108480 On ch=1 n=83 v=83
108480 On ch=1 n=86 v=83
108480 Off ch=1 n=55 v=0
108480 On ch=1 n=59 v=92
108480 On ch=1 n=64 v=92
108960 Off ch=1 n=74 v=0
108960 Off ch=1 n=79 v=0
108960 Off ch=1 n=83 v=0
108960 Off ch=1 n=86 v=0
108960 On ch=1 n=71 v=70
108960 On ch=1 n=83 v=70
108960 Off ch=1 n=59 v=0
108960 Off ch=1 n=64 v=0
108960 On ch=1 n=40 v=68
109200 Off ch=1 n=40 v=0
109200 On ch=1 n=52 v=87
109680 Off ch=1 n=52 v=0
109680 On ch=1 n=40 v=67
109920 Off ch=1 n=71 v=0
109920 Off ch=1 n=83 v=0
109920 On ch=1 n=71 v=71
109920 On ch=1 n=76 v=71
109920 On ch=1 n=79 v=71
109920 On ch=1 n=83 v=71
109920 Off ch=1 n=40 v=0
109920 On ch=1 n=52 v=86
110160 Off ch=1 n=52 v=0
110160 On ch=1 n=52 v=78
110400 Off ch=1 n=52 v=0
110400 On ch=1 n=59 v=103
110400 On ch=1 n=64 v=103
110640 Off ch=1 n=71 v=0
110640 Off ch=1 n=76 v=0
110640 Off ch=1 n=79 v=0
110640 Off ch=1 n=83 v=0
110640 On ch=1 n=76 v=64
110640 Off ch=1 n=59 v=0
110640 Off ch=1 n=64 v=0
110640 On ch=1 n=55 v=71
110880 Off ch=1 n=55 v=0
110880 On ch=1 n=52 v=74
111120 Off ch=1 n=52 v=0
111120 On ch=1 n=40 v=65
111360 Off ch=1 n=76 v=0
111360 On ch=1 n=71 v=90
111360 On ch=1 n=76 v=90
111360 On ch=1 n=79 v=90
111360 On ch=1 n=83 v=90
111360 Off ch=1 n=28 v=0
111360 Off ch=1 n=40 v=0
111360 Off ch=1 n=40 v=0
111360 On ch=1 n=24 v=72
111360 On ch=1 n=36 v=72
111840 On ch=1 n=48 v=68
112080 Off ch=1 n=48 v=0
112080 On ch=1 n=52 v=80
112320 Off ch=1 n=71 v=0
112320 Off ch=1 n=76 v=0
112320 Off ch=1 n=79 v=0
112320 Off ch=1 n=83 v=0
112320 On ch=1 n=74 v=90
112320 On ch=1 n=79 v=90
112320 On ch=1 n=83 v=90
112320 On ch=1 n=86 v=90
112320 Off ch=1 n=52 v=0
112320 On ch=1 n=55 v=95
112320 On ch=1 n=60 v=95
112800 Off ch=1 n=74 v=0
112800 Off ch=1 n=79 v=0
112800 Off ch=1 n=83 v=0
112800 Off ch=1 n=86 v=0
112800 On ch=1 n=71 v=76
112800 On ch=1 n=83 v=76
112800 Off ch=1 n=55 v=0
112800 Off ch=1 n=60 v=0
112800 On ch=1 n=36 v=70
113040 Off ch=1 n=36 v=0
113040 On ch=1 n=48 v=87
113520 Off ch=1 n=48 v=0
113520 On ch=1 n=36 v=63
113760 Off ch=1 n=71 v=0
113760 Off ch=1 n=83 v=0
113760 On ch=1 n=71 v=79
113760 On ch=1 n=76 v=79
113760 On ch=1 n=79 v=79
113760 On ch=1 n=83 v=79
113760 Off ch=1 n=36 v=0
113760 On ch=1 n=48 v=84
114000 Off ch=1 n=48 v=0
114000 On ch=1 n=48 v=79
114240 Off ch=1 n=48 v=0
114240 On ch=1 n=55 v=93
114240 On ch=1 n=60 v=93
114480 Off ch=1 n=71 v=0
114480 Off ch=1 n=76 v=0
114480 Off ch=1 n=79 v=0
114480 Off ch=1 n=83 v=0
114480 On ch=1 n=64 v=64
114480 On ch=1 n=76 v=64
114480 Off ch=1 n=55 v=0
114480 Off ch=1 n=60 v=0
114480 On ch=1 n=52 v=73
114720 Off ch=1 n=52 v=0
114720 On ch=1 n=48 v=71
114960 Off ch=1 n=48 v=0
114960 On ch=1 n=36 v=67
115200 Off ch=1 n=64 v=0
115200 Off ch=1 n=76 v=0
115200 On ch=1 n=71 v=90
115200 On ch=1 n=76 v=90
115200 On ch=1 n=79 v=90
115200 On ch=1 n=83 v=90
115200 Off ch=1 n=24 v=0
115200 Off ch=1 n=36 v=0
115200 Off ch=1 n=36 v=0
115200 On ch=1 n=31 v=85
115200 On ch=1 n=43 v=85
115680 On ch=1 n=43 v=69
115920 Off ch=1 n=43 v=0
115920 On ch=1 n=52 v=85
116160 Off ch=1 n=71 v=0
116160 Off ch=1 n=76 v=0
116160 Off ch=1 n=79 v=0
116160 Off ch=1 n=83 v=0
116160 On ch=1 n=72 v=81
116160 On ch=1 n=76 v=81
116160 On ch=1 n=79 v=81
116160 On ch=1 n=84 v=81
116160 Off ch=1 n=52 v=0
116160 On ch=1 n=55 v=82
116160 On ch=1 n=59 v=82
116640 Off ch=1 n=72 v=0
116640 Off ch=1 n=76 v=0
116640 Off ch=1 n=79 v=0
116640 Off ch=1 n=84 v=0
116640 On ch=1 n=71 v=68
116640 On ch=1 n=83 v=68
116640 Off ch=1 n=55 v=0
116640 Off ch=1 n=59 v=0
116640 On ch=1 n=31 v=69
116880 Off ch=1 n=31 v=0
116880 On ch=1 n=43 v=88
117360 Off ch=1 n=43 v=0
117360 On ch=1 n=31 v=66
117600 Off ch=1 n=71 v=0
117600 Off ch=1 n=83 v=0
117600 On ch=1 n=71 v=74
117600 On ch=1 n=76 v=74
117600 On ch=1 n=79 v=74
117600 On ch=1 n=83 v=74
117600 Off ch=1 n=31 v=0
117600 On ch=1 n=43 v=87
117840 Off ch=1 n=43 v=0
117840 On ch=1 n=43 v=75
118080 Off ch=1 n=43 v=0
118080 On ch=1 n=55 v=89
118080 On ch=1 n=59 v=89
118320 Off ch=1 n=71 v=0
118320 Off ch=1 n=76 v=0
118320 Off ch=1 n=79 v=0
118320 Off ch=1 n=83 v=0
118320 On ch=1 n=64 v=61
118320 On ch=1 n=76 v=61
118320 Off ch=1 n=55 v=0
118320 Off ch=1 n=59 v=0
118320 On ch=1 n=52 v=72
118560 Off ch=1 n=52 v=0
118560 On ch=1 n=43 v=66
118800 Off ch=1 n=43 v=0
118800 On ch=1 n=31 v=64
119040 Off ch=1 n=64 v=0
119040 Off ch=1 n=76 v=0
119040 On ch=1 n=69 v=87
119040 On ch=1 n=72 v=87
119040 On ch=1 n=76 v=87
119040 On ch=1 n=81 v=87
119040 Off ch=1 n=31 v=0
119040 Off ch=1 n=43 v=0
119040 Off ch=1 n=31 v=0
119040 On ch=1 n=33 v=79
119040 On ch=1 n=45 v=79
119520 Off ch=1 n=69 v=0
119520 Off ch=1 n=72 v=0
119520 Off ch=1 n=76 v=0
119520 Off ch=1 n=81 v=0
119520 On ch=1 n=71 v=79
119520 On ch=1 n=83 v=79
119760 On ch=1 n=52 v=66
120000 Off ch=1 n=71 v=0
120000 Off ch=1 n=83 v=0
120000 On ch=1 n=69 v=74
120000 On ch=1 n=72 v=74
120000 On ch=1 n=76 v=74
120000 On ch=1 n=81 v=74
120000 Off ch=1 n=52 v=0
120000 On ch=1 n=57 v=93
120000 On ch=1 n=60 v=93
120480 Off ch=1 n=69 v=0
120480 Off ch=1 n=72 v=0
120480 Off ch=1 n=76 v=0
120480 Off ch=1 n=81 v=0
120480 On ch=1 n=71 v=80
120480 On ch=1 n=83 v=80
120720 Off ch=1 n=57 v=0
120720 Off ch=1 n=60 v=0
120720 On ch=1 n=52 v=75
120960 Off ch=1 n=71 v=0
120960 Off ch=1 n=83 v=0
120960 On ch=1 n=69 v=73
120960 On ch=1 n=74 v=73
120960 On ch=1 n=78 v=73
120960 On ch=1 n=81 v=73
120960 Off ch=1 n=33 v=0
120960 Off ch=1 n=45 v=0
120960 Off ch=1 n=52 v=0
120960 On ch=1 n=35 v=81
120960 On ch=1 n=47 v=81
121440 On ch=1 n=47 v=71
121680 Off ch=1 n=69 v=0
121680 Off ch=1 n=74 v=0
121680 Off ch=1 n=78 v=0
121680 Off ch=1 n=81 v=0
121680 On ch=1 n=74 v=84
121680 On ch=1 n=78 v=84
121680 On ch=1 n=81 v=84
121680 On ch=1 n=86 v=84
121680 Off ch=1 n=47 v=0
121680 On ch=1 n=54 v=89
121680 On ch=1 n=59 v=89
122160 Off ch=1 n=54 v=0
122160 Off ch=1 n=59 v=0
122160 On ch=1 n=47 v=66
122400 Off ch=1 n=74 v=0
122400 Off ch=1 n=78 v=0
122400 Off ch=1 n=81 v=0
122400 Off ch=1 n=86 v=0
122400 On ch=1 n=71 v=69
122400 On ch=1 n=76 v=69
122400 On ch=1 n=78 v=69
122400 On ch=1 n=83 v=69
122400 Off ch=1 n=47 v=0
122400 On ch=1 n=54 v=85
122400 On ch=1 n=59 v=85
122880 Off ch=1 n=35 v=0
122880 Off ch=1 n=47 v=0
122880 Off ch=1 n=54 v=0
122880 Off ch=1 n=59 v=0
122880 On ch=1 n=28 v=65
122880 On ch=1 n=40 v=65
123360 On ch=1 n=59 v=64
123360 On ch=1 n=67 v=64
123600 On ch=1 n=52 v=64
123840 Off ch=1 n=59 v=0
123840 Off ch=1 n=67 v=0
123840 On ch=1 n=64 v=63
124080 Off ch=1 n=52 v=0
124080 On ch=1 n=47 v=72
124320 Off ch=1 n=64 v=0
124320 On ch=1 n=59 v=74
124320 On ch=1 n=67 v=74
124320 Off ch=1 n=47 v=0
124320 On ch=1 n=52 v=79
124560 Off ch=1 n=52 v=0
124560 On ch=1 n=47 v=73
124800 Off ch=1 n=59 v=0
124800 Off ch=1 n=67 v=0
124800 On ch=1 n=66 v=67
124800 Off ch=1 n=47 v=0
124800 On ch=1 n=55 v=80
125280 Off ch=1 n=55 v=0
125280 On ch=1 n=47 v=71
125520 Off ch=1 n=66 v=0
125520 On ch=1 n=59 v=62
125520 Off ch=1 n=47 v=0
125520 On ch=1 n=52 v=80
126000 Off ch=1 n=52 v=0
126000 On ch=1 n=47 v=70
126240 Off ch=1 n=59 v=0
126240 On ch=1 n=59 v=70
126240 Off ch=1 n=47 v=0
126240 On ch=1 n=54 v=82
126480 Off ch=1 n=54 v=0
126480 On ch=1 n=52 v=77
126720 Off ch=1 n=71 v=0
126720 Off ch=1 n=76 v=0
126720 Off ch=1 n=78 v=0
126720 Off ch=1 n=83 v=0
126720 Off ch=1 n=59 v=0
126720 On ch=1 n=64 v=89
126720 Off ch=1 n=28 v=0
126720 Off ch=1 n=40 v=0
126720 Off ch=1 n=52 v=0
126720 On ch=1 n=36 v=79
126720 On ch=1 n=48 v=79
127200 Off ch=1 n=64 v=0
127200 On ch=1 n=60 v=83
127200 On ch=1 n=67 v=83
127440 On ch=1 n=52 v=68
127680 Off ch=1 n=60 v=0
127680 Off ch=1 n=67 v=0
127680 On ch=1 n=64 v=68
127920 Off ch=1 n=52 v=0
127920 On ch=1 n=48 v=72
128160 Off ch=1 n=64 v=0
128160 On ch=1 n=60 v=88
128160 On ch=1 n=67 v=88
128160 Off ch=1 n=48 v=0
128160 On ch=1 n=52 v=86
128400 Off ch=1 n=52 v=0
128400 On ch=1 n=48 v=76
128640 Off ch=1 n=60 v=0
128640 Off ch=1 n=67 v=0
128640 On ch=1 n=66 v=79
128640 Off ch=1 n=48 v=0
128640 On ch=1 n=55 v=83
129120 Off ch=1 n=55 v=0
129120 On ch=1 n=48 v=71
129360 Off ch=1 n=66 v=0
129360 On ch=1 n=59 v=63
129360 Off ch=1 n=48 v=0
129360 On ch=1 n=52 v=80
129840 Off ch=1 n=52 v=0
129840 On ch=1 n=48 v=64
130080 Off ch=1 n=59 v=0
130080 On ch=1 n=59 v=77
130080 Off ch=1 n=48 v=0
130080 On ch=1 n=54 v=82
130320 Off ch=1 n=54 v=0
130320 On ch=1 n=52 v=78
130560 Off ch=1 n=59 v=0
130560 On ch=1 n=64 v=86
130560 Off ch=1 n=36 v=0
130560 Off ch=1 n=48 v=0
130560 Off ch=1 n=52 v=0
130560 On ch=1 n=33 v=70
130560 On ch=1 n=45 v=70
131040 Off ch=1 n=64 v=0
131040 On ch=1 n=60 v=80
131040 On ch=1 n=67 v=80
131280 On ch=1 n=52 v=71
131520 Off ch=1 n=60 v=0
131520 Off ch=1 n=67 v=0
131520 On ch=1 n=64 v=76
131760 Off ch=1 n=52 v=0
131760 On ch=1 n=45 v=73
132000 Off ch=1 n=64 v=0
132000 On ch=1 n=60 v=83
132000 On ch=1 n=67 v=83
132000 Off ch=1 n=45 v=0
132000 On ch=1 n=52 v=86
132240 Off ch=1 n=52 v=0
132240 On ch=1 n=45 v=72
132480 Off ch=1 n=60 v=0
132480 Off ch=1 n=67 v=0
132480 On ch=1 n=66 v=77
132480 Off ch=1 n=45 v=0
132480 On ch=1 n=55 v=91
132960 Off ch=1 n=55 v=0
132960 On ch=1 n=45 v=64
133200 Off ch=1 n=66 v=0
133200 On ch=1 n=59 v=69
133200 Off ch=1 n=45 v=0
133200 On ch=1 n=52 v=79
133680 Off ch=1 n=52 v=0
133680 On ch=1 n=45 v=72
133920 Off ch=1 n=59 v=0
133920 On ch=1 n=59 v=78
133920 Off ch=1 n=45 v=0
133920 On ch=1 n=54 v=83
134160 Off ch=1 n=54 v=0
134160 On ch=1 n=52 v=69
134400 Off ch=1 n=59 v=0
134400 On ch=1 n=64 v=86
134400 Off ch=1 n=33 v=0
134400 Off ch=1 n=45 v=0
134400 Off ch=1 n=52 v=0
134400 On ch=1 n=31 v=77
134400 On ch=1 n=43 v=77
134880 Off ch=1 n=64 v=0
134880 On ch=1 n=59 v=84
134880 On ch=1 n=67 v=84
135120 On ch=1 n=52 v=70
135360 Off ch=1 n=59 v=0
135360 Off ch=1 n=67 v=0
135360 On ch=1 n=64 v=69
135600 Off ch=1 n=52 v=0
135600 On ch=1 n=47 v=71
135840 Off ch=1 n=64 v=0
135840 On ch=1 n=59 v=83
135840 On ch=1 n=67 v=83
135840 Off ch=1 n=47 v=0
135840 On ch=1 n=52 v=83
136080 Off ch=1 n=52 v=0
136080 On ch=1 n=47 v=75
136320 Off ch=1 n=59 v=0
136320 Off ch=1 n=67 v=0
136320 On ch=1 n=66 v=72
136320 Off ch=1 n=31 v=0
136320 Off ch=1 n=43 v=0
136320 Off ch=1 n=47 v=0
136320 On ch=1 n=35 v=79
136320 On ch=1 n=47 v=79
136800 On ch=1 n=47 v=70
137040 Off ch=1 n=66 v=0
137040 On ch=1 n=59 v=69
137040 Off ch=1 n=47 v=0
137040 On ch=1 n=52 v=82
137040 On ch=1 n=54 v=82
137520 Off ch=1 n=52 v=0
137520 Off ch=1 n=54 v=0
137520 On ch=1 n=47 v=70
137760 Off ch=1 n=59 v=0
137760 On ch=1 n=59 v=74
137760 Off ch=1 n=47 v=0
137760 On ch=1 n=52 v=87
137760 On ch=1 n=54 v=87
138000 Off ch=1 n=52 v=0
138000 Off ch=1 n=54 v=0
138000 On ch=1 n=47 v=70
138240 Off ch=1 n=59 v=0
138240 On ch=1 n=67 v=96
138240 On ch=1 n=76 v=96
138240 Off ch=1 n=35 v=0
138240 Off ch=1 n=47 v=0
138240 Off ch=1 n=47 v=0
138240 On ch=1 n=40 v=65
138480 On ch=1 n=52 v=69
138720 Off ch=1 n=67 v=0
138720 Off ch=1 n=76 v=0
138720 On ch=1 n=71 v=86
138720 On ch=1 n=79 v=86
138720 Off ch=1 n=52 v=0
138720 On ch=1 n=54 v=81
138960 Off ch=1 n=54 v=0
138960 On ch=1 n=59 v=77
139200 Off ch=1 n=71 v=0
139200 Off ch=1 n=79 v=0
139200 On ch=1 n=67 v=72
139200 On ch=1 n=76 v=72
139200 Off ch=1 n=59 v=0
139200 On ch=1 n=52 v=68
139440 Off ch=1 n=52 v=0
139440 On ch=1 n=54 v=81
139680 Off ch=1 n=67 v=0
139680 Off ch=1 n=76 v=0
139680 On ch=1 n=71 v=83
139680 On ch=1 n=79 v=83
139680 Off ch=1 n=54 v=0
139680 On ch=1 n=59 v=84
139920 Off ch=1 n=59 v=0
139920 On ch=1 n=52 v=69
140160 Off ch=1 n=71 v=0
140160 Off ch=1 n=79 v=0
140160 On ch=1 n=69 v=73
140160 On ch=1 n=78 v=73
140160 Off ch=1 n=52 v=0
140160 On ch=1 n=64 v=91
140400 Off ch=1 n=64 v=0
140400 On ch=1 n=59 v=76
140640 Off ch=1 n=59 v=0
140640 On ch=1 n=52 v=67
140880 Off ch=1 n=69 v=0
140880 Off ch=1 n=78 v=0
140880 On ch=1 n=64 v=64
140880 On ch=1 n=66 v=64
140880 On ch=1 n=71 v=64
140880 Off ch=1 n=52 v=0
140880 On ch=1 n=59 v=80
141120 Off ch=1 n=59 v=0
141120 On ch=1 n=54 v=75
141360 Off ch=1 n=54 v=0
141360 On ch=1 n=52 v=72
141600 Off ch=1 n=64 v=0
141600 Off ch=1 n=66 v=0
141600 Off ch=1 n=71 v=0
141600 On ch=1 n=71 v=75
141600 Off ch=1 n=52 v=0
141600 On ch=1 n=59 v=87
141840 Off ch=1 n=59 v=0
141840 On ch=1 n=52 v=72
142080 Off ch=1 n=71 v=0
142080 On ch=1 n=67 v=88
142080 On ch=1 n=76 v=88
142080 Off ch=1 n=40 v=0
142080 Off ch=1 n=52 v=0
142080 On ch=1 n=43 v=78
142320 On ch=1 n=52 v=71
142560 Off ch=1 n=67 v=0
142560 Off ch=1 n=76 v=0
142560 On ch=1 n=71 v=78
142560 On ch=1 n=79 v=78
142560 Off ch=1 n=52 v=0
142560 On ch=1 n=54 v=77
142800 Off ch=1 n=54 v=0
142800 On ch=1 n=59 v=81
143040 Off ch=1 n=71 v=0
143040 Off ch=1 n=79 v=0
143040 On ch=1 n=67 v=67
143040 On ch=1 n=76 v=67
143040 Off ch=1 n=59 v=0
143040 On ch=1 n=52 v=66
143280 Off ch=1 n=52 v=0
143280 On ch=1 n=54 v=75
143520 Off ch=1 n=67 v=0
143520 Off ch=1 n=76 v=0
143520 On ch=1 n=71 v=83
143520 On ch=1 n=79 v=83
143520 Off ch=1 n=54 v=0
143520 On ch=1 n=59 v=79
143760 Off ch=1 n=59 v=0
143760 On ch=1 n=52 v=68
144000 Off ch=1 n=71 v=0
144000 Off ch=1 n=79 v=0
144000 On ch=1 n=69 v=75
144000 On ch=1 n=78 v=75
144000 Off ch=1 n=52 v=0
144000 On ch=1 n=64 v=98
144240 Off ch=1 n=64 v=0
144240 On ch=1 n=59 v=76
144480 Off ch=1 n=59 v=0
144480 On ch=1 n=52 v=66
144720 Off ch=1 n=69 v=0
144720 Off ch=1 n=78 v=0
144720 On ch=1 n=64 v=63
144720 On ch=1 n=66 v=63
144720 On ch=1 n=71 v=63
144720 Off ch=1 n=52 v=0
144720 On ch=1 n=59 v=80
144960 Off ch=1 n=59 v=0
144960 On ch=1 n=54 v=74
145200 Off ch=1 n=54 v=0
145200 On ch=1 n=52 v=67
145440 Off ch=1 n=64 v=0
145440 Off ch=1 n=66 v=0
145440 Off ch=1 n=71 v=0
145440 On ch=1 n=71 v=74
145440 Off ch=1 n=52 v=0
145440 On ch=1 n=59 v=84
145680 Off ch=1 n=59 v=0
145680 On ch=1 n=52 v=68
145920 Off ch=1 n=71 v=0
145920 On ch=1 n=67 v=89
145920 On ch=1 n=76 v=89
145920 Off ch=1 n=43 v=0
145920 Off ch=1 n=52 v=0
145920 On ch=1 n=45 v=78
146160 On ch=1 n=52 v=66
146400 Off ch=1 n=67 v=0
146400 Off ch=1 n=76 v=0
146400 On ch=1 n=71 v=84
146400 On ch=1 n=79 v=84
146400 Off ch=1 n=52 v=0
146400 On ch=1 n=57 v=77
146640 Off ch=1 n=57 v=0
146640 On ch=1 n=59 v=78
146880 Off ch=1 n=71 v=0
146880 Off ch=1 n=79 v=0
146880 On ch=1 n=67 v=65
146880 On ch=1 n=76 v=65
146880 Off ch=1 n=59 v=0
146880 On ch=1 n=52 v=71
147120 Off ch=1 n=52 v=0
147120 On ch=1 n=57 v=80
147360 Off ch=1 n=67 v=0
147360 Off ch=1 n=76 v=0
147360 On ch=1 n=71 v=83
147360 On ch=1 n=79 v=83
147360 Off ch=1 n=57 v=0
147360 On ch=1 n=59 v=80
147600 Off ch=1 n=59 v=0
147600 On ch=1 n=52 v=68
147840 Off ch=1 n=71 v=0
147840 Off ch=1 n=79 v=0
147840 On ch=1 n=69 v=76
147840 On ch=1 n=78 v=76
147840 Off ch=1 n=52 v=0
147840 On ch=1 n=64 v=94
148080 Off ch=1 n=64 v=0
148080 On ch=1 n=59 v=77
148320 Off ch=1 n=59 v=0
148320 On ch=1 n=52 v=69
148560 Off ch=1 n=69 v=0
148560 Off ch=1 n=78 v=0
148560 On ch=1 n=64 v=62
148560 On ch=1 n=66 v=62
148560 On ch=1 n=71 v=62
148560 Off ch=1 n=52 v=0
148560 On ch=1 n=59 v=81
148800 Off ch=1 n=59 v=0
148800 On ch=1 n=57 v=69
149040 Off ch=1 n=57 v=0
149040 On ch=1 n=52 v=70
149280 Off ch=1 n=64 v=0
149280 Off ch=1 n=66 v=0
149280 Off ch=1 n=71 v=0
149280 On ch=1 n=71 v=74
149280 Off ch=1 n=52 v=0
149280 On ch=1 n=59 v=84
149520 Off ch=1 n=59 v=0
149520 On ch=1 n=52 v=69
149760 Off ch=1 n=71 v=0
149760 On ch=1 n=67 v=86
149760 On ch=1 n=76 v=86
149760 Off ch=1 n=45 v=0
149760 Off ch=1 n=52 v=0
149760 On ch=1 n=48 v=79
150000 On ch=1 n=55 v=66
150240 Off ch=1 n=67 v=0
150240 Off ch=1 n=76 v=0
150240 On ch=1 n=71 v=88
150240 On ch=1 n=79 v=88
150240 Off ch=1 n=55 v=0
150240 On ch=1 n=60 v=87
150480 Off ch=1 n=60 v=0
150480 On ch=1 n=64 v=89
150720 Off ch=1 n=71 v=0
150720 Off ch=1 n=79 v=0
150720 On ch=1 n=67 v=69
150720 On ch=1 n=76 v=69
150720 Off ch=1 n=64 v=0
150720 On ch=1 n=55 v=72
150960 Off ch=1 n=55 v=0
150960 On ch=1 n=60 v=81
151200 Off ch=1 n=67 v=0
151200 Off ch=1 n=76 v=0
151200 On ch=1 n=71 v=83
151200 On ch=1 n=79 v=83
151200 Off ch=1 n=60 v=0
151200 On ch=1 n=64 v=85
151440 Off ch=1 n=64 v=0
151440 On ch=1 n=55 v=70
151680 Off ch=1 n=71 v=0
151680 Off ch=1 n=79 v=0
151680 On ch=1 n=69 v=73
151680 On ch=1 n=78 v=73
151680 Off ch=1 n=48 v=0
151680 Off ch=1 n=55 v=0
151680 On ch=1 n=50 v=83
151920 On ch=1 n=62 v=74
152160 Off ch=1 n=62 v=0
152160 On ch=1 n=57 v=69
152400 Off ch=1 n=69 v=0
152400 Off ch=1 n=78 v=0
152400 On ch=1 n=71 v=63
152400 Off ch=1 n=57 v=0
152400 On ch=1 n=54 v=72
152640 Off ch=1 n=54 v=0
152640 On ch=1 n=50 v=70
152880 Off ch=1 n=50 v=0
152880 On ch=1 n=45 v=70
153120 Off ch=1 n=71 v=0
153120 On ch=1 n=71 v=74
153120 Off ch=1 n=45 v=0
153120 On ch=1 n=38 v=68
153600 Off ch=1 n=50 v=0
153600 Off ch=1 n=38 v=0
153600 On ch=1 n=40 v=79
154320 On ch=1 n=52 v=67
154560 Off ch=1 n=52 v=0
154560 On ch=1 n=59 v=94
154560 On ch=1 n=62 v=94
155040 On ch=1 n=71 v=65
155040 On ch=1 n=83 v=65
155040 Off ch=1 n=59 v=0
155040 Off ch=1 n=62 v=0
155040 On ch=1 n=64 v=82
155280 Off ch=1 n=71 v=0
155280 Off ch=1 n=83 v=0
155280 On ch=1 n=71 v=69
155280 On ch=1 n=83 v=69
155280 Off ch=1 n=64 v=0
155280 On ch=1 n=52 v=72
155520 Off ch=1 n=71 v=0
155520 Off ch=1 n=83 v=0
155520 On ch=1 n=71 v=79
155520 On ch=1 n=83 v=79
155760 Off ch=1 n=52 v=0
155760 On ch=1 n=52 v=77
156000 Off ch=1 n=71 v=0
156000 Off ch=1 n=83 v=0
156000 On ch=1 n=71 v=72
156000 On ch=1 n=83 v=72
156000 Off ch=1 n=52 v=0
156000 On ch=1 n=59 v=84
156240 Off ch=1 n=59 v=0
156240 On ch=1 n=52 v=71
156480 Off ch=1 n=71 v=0
156480 Off ch=1 n=83 v=0
156480 On ch=1 n=74 v=78
156480 On ch=1 n=86 v=78
156480 Off ch=1 n=52 v=0
156480 On ch=1 n=59 v=97
156480 On ch=1 n=62 v=97
156960 Off ch=1 n=74 v=0
156960 Off ch=1 n=86 v=0
156960 On ch=1 n=76 v=84
156960 On ch=1 n=88 v=84
156960 Off ch=1 n=59 v=0
156960 Off ch=1 n=62 v=0
156960 On ch=1 n=64 v=88
157440 Off ch=1 n=71 v=0
157440 Off ch=1 n=76 v=0
157440 Off ch=1 n=88 v=0
157440 Off ch=1 n=40 v=0
157440 Off ch=1 n=64 v=0
157440 On ch=1 n=36 v=70
158160 On ch=1 n=48 v=69
158400 Off ch=1 n=48 v=0
158400 On ch=1 n=55 v=99
158400 On ch=1 n=60 v=99
158400 On ch=1 n=62 v=99
158880 On ch=1 n=71 v=70
158880 On ch=1 n=83 v=70
158880 Off ch=1 n=55 v=0
158880 Off ch=1 n=60 v=0
158880 Off ch=1 n=62 v=0
158880 On ch=1 n=64 v=85
159120 Off ch=1 n=71 v=0
159120 Off ch=1 n=83 v=0
159120 On ch=1 n=71 v=72
159120 On ch=1 n=83 v=72
159120 Off ch=1 n=64 v=0
159120 On ch=1 n=48 v=67
159360 Off ch=1 n=71 v=0
159360 Off ch=1 n=83 v=0
159360 On ch=1 n=71 v=76
159360 On ch=1 n=83 v=76
159600 Off ch=1 n=48 v=0
159600 On ch=1 n=48 v=76
159840 Off ch=1 n=71 v=0
159840 Off ch=1 n=83 v=0
159840 On ch=1 n=71 v=84
159840 On ch=1 n=83 v=84
159840 Off ch=1 n=48 v=0
159840 On ch=1 n=55 v=81
160080 Off ch=1 n=55 v=0
160080 On ch=1 n=48 v=69
160320 Off ch=1 n=71 v=0
160320 Off ch=1 n=83 v=0
160320 On ch=1 n=74 v=84
160320 On ch=1 n=86 v=84
160320 Off ch=1 n=48 v=0
160320 On ch=1 n=55 v=96
160320 On ch=1 n=60 v=96
160320 On ch=1 n=62 v=96
160800 Off ch=1 n=74 v=0
160800 Off ch=1 n=86 v=0
160800 On ch=1 n=76 v=83
160800 On ch=1 n=88 v=83
160800 Off ch=1 n=55 v=0
160800 Off ch=1 n=60 v=0
160800 Off ch=1 n=62 v=0
160800 On ch=1 n=64 v=79
161280 Off ch=1 n=76 v=0
161280 Off ch=1 n=88 v=0
161280 Off ch=1 n=36 v=0
161280 Off ch=1 n=64 v=0
161280 On ch=1 n=45 v=87
161760 On ch=1 n=71 v=67
161760 On ch=1 n=83 v=67
162000 On ch=1 n=52 v=66
162240 Off ch=1 n=71 v=0
162240 Off ch=1 n=83 v=0
162240 On ch=1 n=74 v=83
162240 On ch=1 n=86 v=83
162240 Off ch=1 n=52 v=0
162240 On ch=1 n=57 v=91
162240 On ch=1 n=60 v=91
162240 On ch=1 n=62 v=91
162720 Off ch=1 n=74 v=0
162720 Off ch=1 n=86 v=0
162720 On ch=1 n=76 v=82
162720 On ch=1 n=88 v=82
162720 Off ch=1 n=57 v=0
162720 Off ch=1 n=60 v=0
162720 Off ch=1 n=62 v=0
162720 On ch=1 n=64 v=88
162960 Off ch=1 n=64 v=0
162960 On ch=1 n=45 v=66
163440 Off ch=1 n=45 v=0
163440 On ch=1 n=45 v=80
163680 Off ch=1 n=76 v=0
163680 Off ch=1 n=88 v=0
163680 On ch=1 n=71 v=69
163680 On ch=1 n=83 v=69
163680 Off ch=1 n=45 v=0
163680 On ch=1 n=52 v=80
163920 Off ch=1 n=71 v=0
163920 Off ch=1 n=83 v=0
163920 On ch=1 n=71 v=79
163920 On ch=1 n=83 v=79
163920 Off ch=1 n=52 v=0
163920 On ch=1 n=45 v=74
164160 Off ch=1 n=71 v=0
164160 Off ch=1 n=83 v=0
164160 On ch=1 n=74 v=87
164160 On ch=1 n=86 v=87
164160 Off ch=1 n=45 v=0
164160 On ch=1 n=57 v=95
164160 On ch=1 n=60 v=95
164160 On ch=1 n=62 v=95
164640 Off ch=1 n=74 v=0
164640 Off ch=1 n=86 v=0
164640 On ch=1 n=76 v=87
164640 On ch=1 n=88 v=87
164640 Off ch=1 n=57 v=0
164640 Off ch=1 n=60 v=0
164640 Off ch=1 n=62 v=0
164640 On ch=1 n=64 v=86
165120 Off ch=1 n=76 v=0
165120 Off ch=1 n=88 v=0
165120 On ch=1 n=78 v=80
165120 On ch=1 n=90 v=80
165120 Off ch=1 n=45 v=0
165120 Off ch=1 n=64 v=0
165120 On ch=1 n=47 v=86
165600 Off ch=1 n=78 v=0
165600 Off ch=1 n=90 v=0
165600 On ch=1 n=79 v=82
165600 On ch=1 n=91 v=82
165840 On ch=1 n=54 v=69
166080 Off ch=1 n=79 v=0
166080 Off ch=1 n=91 v=0
166080 On ch=1 n=78 v=73
166080 On ch=1 n=90 v=73
166080 Off ch=1 n=54 v=0
166080 On ch=1 n=59 v=88
166080 On ch=1 n=62 v=88
166560 Off ch=1 n=78 v=0
166560 Off ch=1 n=90 v=0
166560 On ch=1 n=79 v=83
166560 On ch=1 n=91 v=83
166560 Off ch=1 n=59 v=0
166560 Off ch=1 n=62 v=0
166560 On ch=1 n=64 v=82
166800 Off ch=1 n=64 v=0
166800 On ch=1 n=47 v=68
167040 Off ch=1 n=79 v=0
167040 Off ch=1 n=91 v=0
167040 On ch=1 n=78 v=74
167040 On ch=1 n=90 v=74
167280 Off ch=1 n=47 v=0
167280 On ch=1 n=35 v=67
167520 Off ch=1 n=78 v=0
167520 Off ch=1 n=90 v=0
167520 On ch=1 n=74 v=66
167520 On ch=1 n=86 v=66
167520 Off ch=1 n=35 v=0
167520 On ch=1 n=47 v=84
167760 Off ch=1 n=47 v=0
167760 On ch=1 n=47 v=76
168000 Off ch=1 n=74 v=0
168000 Off ch=1 n=86 v=0
168000 On ch=1 n=74 v=73
168000 On ch=1 n=86 v=73
168000 Off ch=1 n=47 v=0
168000 On ch=1 n=59 v=80
168240 Off ch=1 n=59 v=0
168240 On ch=1 n=54 v=71
168480 Off ch=1 n=54 v=0
168480 On ch=1 n=47 v=70
168720 Off ch=1 n=47 v=0
168720 On ch=1 n=47 v=73
168960 Off ch=1 n=74 v=0
168960 Off ch=1 n=86 v=0
168960 On ch=1 n=76 v=57
168960 Off ch=1 n=47 v=0
168960 Off ch=1 n=47 v=0
168960 On ch=1 n=40 v=69
169200 Off ch=1 n=76 v=0
169200 On ch=1 n=71 v=64
169440 Off ch=1 n=71 v=0
169440 On ch=1 n=79 v=91
169440 On ch=1 n=47 v=69
169680 Off ch=1 n=79 v=0
169680 On ch=1 n=71 v=64
169680 Off ch=1 n=47 v=0
169680 On ch=1 n=52 v=81
169920 Off ch=1 n=71 v=0
169920 On ch=1 n=76 v=81
169920 Off ch=1 n=52 v=0
169920 On ch=1 n=55 v=83
170160 Off ch=1 n=76 v=0
170160 On ch=1 n=71 v=62
170400 Off ch=1 n=71 v=0
170400 On ch=1 n=79 v=90
170400 On ch=1 n=59 v=66
170640 Off ch=1 n=79 v=0
170640 On ch=1 n=71 v=67
170640 Off ch=1 n=59 v=0
170640 On ch=1 n=59 v=74
170880 Off ch=1 n=71 v=0
170880 On ch=1 n=78 v=91
170880 Off ch=1 n=55 v=0
170880 Off ch=1 n=59 v=0
170880 On ch=1 n=59 v=80
171360 Off ch=1 n=59 v=0
171360 On ch=1 n=59 v=77
171600 Off ch=1 n=78 v=0
171600 On ch=1 n=71 v=65
171600 On ch=1 n=52 v=70
171840 Off ch=1 n=59 v=0
171840 Off ch=1 n=52 v=0
171840 On ch=1 n=62 v=85
171840 On ch=1 n=55 v=81
171840 On ch=1 n=59 v=81
172320 Off ch=1 n=71 v=0
172320 On ch=1 n=71 v=77
172320 Off ch=1 n=62 v=0
172320 On ch=1 n=64 v=81
172800 Off ch=1 n=71 v=0
172800 On ch=1 n=76 v=83
172800 Off ch=1 n=40 v=0
172800 Off ch=1 n=55 v=0
172800 Off ch=1 n=59 v=0
172800 Off ch=1 n=64 v=0
172800 On ch=1 n=36 v=70
173040 Off ch=1 n=76 v=0
173040 On ch=1 n=71 v=66
173280 Off ch=1 n=71 v=0
173280 On ch=1 n=79 v=90
173280 On ch=1 n=55 v=68
173520 Off ch=1 n=79 v=0
173520 On ch=1 n=71 v=65
173520 Off ch=1 n=55 v=0
173520 On ch=1 n=60 v=86
173760 Off ch=1 n=71 v=0
173760 On ch=1 n=76 v=86
173760 Off ch=1 n=60 v=0
173760 On ch=1 n=67 v=64
173760 On ch=1 n=64 v=83
174000 Off ch=1 n=76 v=0
174000 On ch=1 n=71 v=71
174240 Off ch=1 n=71 v=0
174240 On ch=1 n=79 v=91
174240 Off ch=1 n=67 v=0
174240 On ch=1 n=66 v=72
174480 Off ch=1 n=79 v=0
174480 On ch=1 n=71 v=63
174720 Off ch=1 n=71 v=0
174720 On ch=1 n=78 v=88
174720 Off ch=1 n=64 v=0
175200 Off ch=1 n=66 v=0
175200 On ch=1 n=67 v=79
175440 Off ch=1 n=78 v=0
175440 On ch=1 n=71 v=64
175440 On ch=1 n=48 v=69
175680 Off ch=1 n=67 v=0
175680 Off ch=1 n=48 v=0
175680 On ch=1 n=60 v=72
175680 On ch=1 n=64 v=72
175680 On ch=1 n=55 v=80
176160 Off ch=1 n=71 v=0
176160 On ch=1 n=71 v=72
176640 Off ch=1 n=71 v=0
176640 On ch=1 n=76 v=88
176640 Off ch=1 n=36 v=0
176640 Off ch=1 n=60 v=0
176640 Off ch=1 n=64 v=0
176640 Off ch=1 n=55 v=0
176640 On ch=1 n=45 v=84
176880 Off ch=1 n=76 v=0
176880 On ch=1 n=71 v=67
177120 Off ch=1 n=71 v=0
177120 On ch=1 n=79 v=88
177120 On ch=1 n=52 v=70
177360 Off ch=1 n=79 v=0
177360 On ch=1 n=71 v=61
177360 Off ch=1 n=52 v=0
177360 On ch=1 n=57 v=79
177600 Off ch=1 n=71 v=0
177600 On ch=1 n=76 v=81
177600 Off ch=1 n=57 v=0
177600 On ch=1 n=64 v=68
177600 On ch=1 n=60 v=83
177840 Off ch=1 n=76 v=0
177840 On ch=1 n=71 v=65
178080 Off ch=1 n=71 v=0
178080 On ch=1 n=79 v=91
178080 Off ch=1 n=64 v=0
178080 On ch=1 n=66 v=79
178320 Off ch=1 n=79 v=0
178320 On ch=1 n=71 v=65
178560 Off ch=1 n=71 v=0
178560 On ch=1 n=78 v=88
178560 Off ch=1 n=60 v=0
178560 Off ch=1 n=66 v=0
178560 On ch=1 n=67 v=80
179040 Off ch=1 n=67 v=0
179040 On ch=1 n=64 v=74
179280 Off ch=1 n=78 v=0
179280 On ch=1 n=71 v=58
179280 On ch=1 n=57 v=74
179520 Off ch=1 n=64 v=0
179520 Off ch=1 n=57 v=0
179520 On ch=1 n=66 v=81
179520 On ch=1 n=60 v=89
179520 On ch=1 n=64 v=89
180000 Off ch=1 n=71 v=0
180000 On ch=1 n=71 v=76
180000 Off ch=1 n=66 v=0
180000 On ch=1 n=67 v=80
180480 Off ch=1 n=71 v=0
180480 On ch=1 n=76 v=89
180480 Off ch=1 n=45 v=0
180480 Off ch=1 n=60 v=0
180480 Off ch=1 n=64 v=0
180480 Off ch=1 n=67 v=0
180480 On ch=1 n=69 v=78
180480 On ch=1 n=47 v=82
180720 Off ch=1 n=76 v=0
180720 On ch=1 n=71 v=68
180960 Off ch=1 n=71 v=0
180960 On ch=1 n=79 v=85
180960 Off ch=1 n=69 v=0
180960 On ch=1 n=67 v=69
181200 Off ch=1 n=79 v=0
181200 On ch=1 n=71 v=61
181200 On ch=1 n=59 v=63
181440 Off ch=1 n=71 v=0
181440 On ch=1 n=76 v=86
181440 Off ch=1 n=67 v=0
181440 Off ch=1 n=59 v=0
181440 On ch=1 n=67 v=78
181440 On ch=1 n=64 v=90
181680 Off ch=1 n=76 v=0
181680 On ch=1 n=71 v=64
181920 Off ch=1 n=71 v=0
181920 On ch=1 n=79 v=87
181920 Off ch=1 n=67 v=0
181920 On ch=1 n=66 v=69
182160 Off ch=1 n=79 v=0
182160 On ch=1 n=71 v=64
182400 Off ch=1 n=71 v=0
182400 On ch=1 n=78 v=86
182400 Off ch=1 n=47 v=0
182400 Off ch=1 n=64 v=0
182400 Off ch=1 n=66 v=0
182400 On ch=1 n=66 v=82
182880 On ch=1 n=47 v=68
183120 Off ch=1 n=78 v=0
183120 On ch=1 n=63 v=68
183120 On ch=1 n=66 v=68
183120 On ch=1 n=71 v=68
183120 Off ch=1 n=66 v=0
183120 Off ch=1 n=47 v=0
183120 On ch=1 n=63 v=70
183120 On ch=1 n=54 v=83
183360 Off ch=1 n=54 v=0
183360 On ch=1 n=59 v=86
183600 Off ch=1 n=59 v=0
183600 On ch=1 n=54 v=72
183840 Off ch=1 n=63 v=0
183840 Off ch=1 n=54 v=0
183840 On ch=1 n=63 v=79
183840 On ch=1 n=47 v=66
184320 Off ch=1 n=63 v=0
184320 Off ch=1 n=66 v=0
184320 Off ch=1 n=71 v=0
184320 On ch=1 n=76 v=100
184320 On ch=1 n=88 v=100
184320 Off ch=1 n=63 v=0
184320 Off ch=1 n=47 v=0
184320 On ch=1 n=48 v=67
184560 On ch=1 n=62 v=68
184800 Off ch=1 n=76 v=0
184800 Off ch=1 n=88 v=0
184800 On ch=1 n=74 v=75
184800 On ch=1 n=86 v=75
184800 Off ch=1 n=62 v=0
184800 On ch=1 n=64 v=81
185040 Off ch=1 n=64 v=0
185040 On ch=1 n=55 v=66
185280 Off ch=1 n=74 v=0
185280 Off ch=1 n=86 v=0
185280 On ch=1 n=76 v=83
185280 On ch=1 n=88 v=83
185280 Off ch=1 n=55 v=0
185280 On ch=1 n=71 v=95
185520 Off ch=1 n=71 v=0
185520 On ch=1 n=64 v=67
185760 Off ch=1 n=76 v=0
185760 Off ch=1 n=88 v=0
185760 On ch=1 n=79 v=83
185760 On ch=1 n=91 v=83
185760 Off ch=1 n=64 v=0
185760 On ch=1 n=62 v=70
186000 Off ch=1 n=79 v=0
186000 Off ch=1 n=91 v=0
186000 On ch=1 n=76 v=74
186000 On ch=1 n=88 v=74
186000 Off ch=1 n=62 v=0
186000 On ch=1 n=64 v=76
186240 Off ch=1 n=64 v=0
186240 On ch=1 n=62 v=74
186480 Off ch=1 n=62 v=0
186480 On ch=1 n=55 v=70
186720 Off ch=1 n=76 v=0
186720 Off ch=1 n=88 v=0
186720 On ch=1 n=74 v=71
186720 On ch=1 n=86 v=71
186720 Off ch=1 n=55 v=0
186720 On ch=1 n=64 v=94
186960 Off ch=1 n=64 v=0
186960 On ch=1 n=62 v=73
187200 Off ch=1 n=74 v=0
187200 Off ch=1 n=86 v=0
187200 On ch=1 n=76 v=82
187200 On ch=1 n=88 v=82
187200 Off ch=1 n=62 v=0
187200 On ch=1 n=71 v=96
187440 Off ch=1 n=71 v=0
187440 On ch=1 n=64 v=65
187680 Off ch=1 n=76 v=0
187680 Off ch=1 n=88 v=0
187680 On ch=1 n=79 v=83
187680 On ch=1 n=91 v=83
187680 Off ch=1 n=64 v=0
187680 On ch=1 n=62 v=68
187920 Off ch=1 n=79 v=0
187920 Off ch=1 n=91 v=0
187920 On ch=1 n=81 v=83
187920 On ch=1 n=93 v=83
187920 Off ch=1 n=62 v=0
187920 On ch=1 n=64 v=81
188160 Off ch=1 n=48 v=0
188160 Off ch=1 n=64 v=0
188160 On ch=1 n=50 v=77
188400 On ch=1 n=62 v=69
188640 Off ch=1 n=81 v=0
188640 Off ch=1 n=93 v=0
188640 On ch=1 n=79 v=70
188640 On ch=1 n=91 v=70
188640 Off ch=1 n=62 v=0
188640 On ch=1 n=64 v=81
188880 Off ch=1 n=64 v=0
188880 On ch=1 n=57 v=63
189120 Off ch=1 n=79 v=0
189120 Off ch=1 n=91 v=0
189120 On ch=1 n=79 v=78
189120 On ch=1 n=91 v=78
189120 Off ch=1 n=57 v=0
189120 On ch=1 n=71 v=102
189360 Off ch=1 n=71 v=0
189360 On ch=1 n=64 v=65
189600 Off ch=1 n=79 v=0
189600 Off ch=1 n=91 v=0
189600 On ch=1 n=76 v=72
189600 On ch=1 n=88 v=72
189600 Off ch=1 n=64 v=0
189600 On ch=1 n=62 v=66
189840 Off ch=1 n=62 v=0
189840 On ch=1 n=64 v=82
190080 Off ch=1 n=76 v=0
190080 Off ch=1 n=88 v=0
190080 On ch=1 n=81 v=86
190080 On ch=1 n=93 v=86
190080 Off ch=1 n=64 v=0
190080 On ch=1 n=62 v=76
190320 Off ch=1 n=62 v=0
190320 On ch=1 n=57 v=68
190560 Off ch=1 n=57 v=0
190560 On ch=1 n=64 v=91
190800 Off ch=1 n=81 v=0
190800 Off ch=1 n=93 v=0
190800 On ch=1 n=76 v=63
190800 On ch=1 n=88 v=63
190800 Off ch=1 n=64 v=0
190800 On ch=1 n=62 v=77
191040 Off ch=1 n=62 v=0
191040 On ch=1 n=71 v=90
191280 Off ch=1 n=71 v=0
191280 On ch=1 n=64 v=67
191520 Off ch=1 n=64 v=0
191520 On ch=1 n=62 v=67
191760 Off ch=1 n=62 v=0
191760 On ch=1 n=64 v=82
192000 Off ch=1 n=76 v=0
192000 Off ch=1 n=88 v=0
192000 On ch=1 n=76 v=78
192000 On ch=1 n=88 v=78
192000 Off ch=1 n=50 v=0
192000 Off ch=1 n=64 v=0
192000 On ch=1 n=45 v=69
192240 On ch=1 n=62 v=71
192480 Off ch=1 n=76 v=0
192480 Off ch=1 n=88 v=0
192480 On ch=1 n=74 v=72
192480 On ch=1 n=86 v=72
192480 Off ch=1 n=62 v=0
192480 On ch=1 n=64 v=81
192720 Off ch=1 n=64 v=0
192720 On ch=1 n=57 v=69
192960 Off ch=1 n=74 v=0
192960 Off ch=1 n=86 v=0
192960 On ch=1 n=76 v=81
192960 On ch=1 n=88 v=81
192960 Off ch=1 n=57 v=0
192960 On ch=1 n=71 v=98
193200 Off ch=1 n=71 v=0
193200 On ch=1 n=64 v=65
193440 Off ch=1 n=76 v=0
193440 Off ch=1 n=88 v=0
193440 On ch=1 n=79 v=86
193440 On ch=1 n=91 v=86
193440 Off ch=1 n=64 v=0
193440 On ch=1 n=62 v=69
193680 Off ch=1 n=79 v=0
193680 Off ch=1 n=91 v=0
193680 On ch=1 n=76 v=68
193680 On ch=1 n=88 v=68
193680 Off ch=1 n=62 v=0
193680 On ch=1 n=64 v=79
193920 Off ch=1 n=64 v=0
193920 On ch=1 n=62 v=78
194160 Off ch=1 n=62 v=0
194160 On ch=1 n=57 v=70
194400 Off ch=1 n=76 v=0
194400 Off ch=1 n=88 v=0
194400 On ch=1 n=74 v=70
194400 On ch=1 n=86 v=70
194400 Off ch=1 n=57 v=0
194400 On ch=1 n=64 v=85
194640 Off ch=1 n=64 v=0
194640 On ch=1 n=62 v=73
194880 Off ch=1 n=74 v=0
194880 Off ch=1 n=86 v=0
194880 On ch=1 n=76 v=79
194880 On ch=1 n=88 v=79
194880 Off ch=1 n=62 v=0
194880 On ch=1 n=71 v=97
195120 Off ch=1 n=71 v=0
195120 On ch=1 n=64 v=62
195360 Off ch=1 n=76 v=0
195360 Off ch=1 n=88 v=0
195360 On ch=1 n=79 v=85
195360 On ch=1 n=91 v=85
195360 Off ch=1 n=64 v=0
195360 On ch=1 n=62 v=69
195600 Off ch=1 n=79 v=0
195600 Off ch=1 n=91 v=0
195600 On ch=1 n=78 v=74
195600 On ch=1 n=90 v=74
195600 Off ch=1 n=62 v=0
195600 On ch=1 n=64 v=79
195840 Off ch=1 n=45 v=0
195840 Off ch=1 n=64 v=0
195840 On ch=1 n=43 v=67
196080 On ch=1 n=62 v=68
196320 Off ch=1 n=78 v=0
196320 Off ch=1 n=90 v=0
196320 On ch=1 n=74 v=67
196320 On ch=1 n=86 v=67
196320 Off ch=1 n=62 v=0
196320 On ch=1 n=64 v=77
196560 Off ch=1 n=64 v=0
196560 On ch=1 n=55 v=67
196800 Off ch=1 n=74 v=0
196800 Off ch=1 n=86 v=0
196800 On ch=1 n=74 v=74
196800 On ch=1 n=86 v=74
196800 Off ch=1 n=55 v=0
196800 On ch=1 n=71 v=97
197040 Off ch=1 n=71 v=0
197040 On ch=1 n=64 v=63
197280 Off ch=1 n=74 v=0
197280 Off ch=1 n=86 v=0
197280 On ch=1 n=71 v=72
197280 On ch=1 n=83 v=72
197280 Off ch=1 n=64 v=0
197280 On ch=1 n=62 v=68
197520 Off ch=1 n=62 v=0
197520 On ch=1 n=64 v=82
197760 Off ch=1 n=71 v=0
197760 Off ch=1 n=83 v=0
197760 On ch=1 n=78 v=88
197760 On ch=1 n=90 v=88
197760 Off ch=1 n=64 v=0
197760 On ch=1 n=62 v=73
198000 Off ch=1 n=62 v=0
198000 On ch=1 n=55 v=69
198240 Off ch=1 n=55 v=0
198240 On ch=1 n=64 v=90
198480 Off ch=1 n=78 v=0
198480 Off ch=1 n=90 v=0
198480 On ch=1 n=74 v=70
198480 On ch=1 n=86 v=70
198480 Off ch=1 n=64 v=0
198480 On ch=1 n=62 v=72
198720 Off ch=1 n=62 v=0
198720 On ch=1 n=71 v=93
198960 Off ch=1 n=71 v=0
198960 On ch=1 n=64 v=64
199200 Off ch=1 n=64 v=0
199200 On ch=1 n=62 v=69
199440 Off ch=1 n=62 v=0
199440 On ch=1 n=64 v=77
199680 Off ch=1 n=74 v=0
199680 Off ch=1 n=86 v=0
199680 Off ch=1 n=43 v=0
199680 Off ch=1 n=64 v=0
199680 On ch=1 n=64 v=75
199680 On ch=1 n=48 v=75
199920 On ch=1 n=74 v=73
200160 Off ch=1 n=74 v=0
200160 On ch=1 n=76 v=75
200160 Off ch=1 n=64 v=0
200160 On ch=1 n=62 v=71
200400 Off ch=1 n=76 v=0
200400 On ch=1 n=71 v=64
200400 On ch=1 n=55 v=70
200640 Off ch=1 n=71 v=0
200640 On ch=1 n=74 v=83
200640 Off ch=1 n=62 v=0
200640 Off ch=1 n=55 v=0
200640 On ch=1 n=64 v=83
200640 On ch=1 n=60 v=85
200880 Off ch=1 n=74 v=0
200880 On ch=1 n=76 v=81
201120 Off ch=1 n=76 v=0
201120 On ch=1 n=83 v=90
201120 Off ch=1 n=64 v=0
201120 On ch=1 n=67 v=84
201360 Off ch=1 n=83 v=0
201360 On ch=1 n=76 v=68
201360 Off ch=1 n=67 v=0
201360 On ch=1 n=64 v=76
201600 Off ch=1 n=76 v=0
201600 On ch=1 n=74 v=68
201600 Off ch=1 n=60 v=0
201840 Off ch=1 n=74 v=0
201840 On ch=1 n=76 v=79
201840 On ch=1 n=55 v=68
202080 Off ch=1 n=76 v=0
202080 On ch=1 n=71 v=64
202080 Off ch=1 n=64 v=0
202080 Off ch=1 n=55 v=0
202080 On ch=1 n=62 v=74
202320 Off ch=1 n=71 v=0
202320 On ch=1 n=74 v=79
202320 On ch=1 n=55 v=71
202560 Off ch=1 n=74 v=0
202560 On ch=1 n=76 v=79
202560 Off ch=1 n=62 v=0
202560 Off ch=1 n=55 v=0
202560 On ch=1 n=64 v=82
202560 On ch=1 n=60 v=82
202800 Off ch=1 n=76 v=0
202800 On ch=1 n=74 v=74
203040 Off ch=1 n=74 v=0
203040 On ch=1 n=83 v=88
203040 Off ch=1 n=64 v=0
203040 On ch=1 n=67 v=83
203280 Off ch=1 n=83 v=0
203280 On ch=1 n=76 v=68
203280 Off ch=1 n=67 v=0
203280 On ch=1 n=69 v=86
203520 Off ch=1 n=76 v=0
203520 Off ch=1 n=48 v=0
203520 Off ch=1 n=60 v=0
203520 On ch=1 n=50 v=72
203760 On ch=1 n=74 v=69
204000 Off ch=1 n=74 v=0
204000 On ch=1 n=76 v=80
204000 Off ch=1 n=69 v=0
204000 On ch=1 n=67 v=71
204240 Off ch=1 n=76 v=0
204240 On ch=1 n=71 v=70
204240 On ch=1 n=57 v=67
204480 Off ch=1 n=71 v=0
204480 On ch=1 n=74 v=82
204480 Off ch=1 n=67 v=0
204480 Off ch=1 n=57 v=0
204480 On ch=1 n=67 v=73
204480 On ch=1 n=62 v=86
204720 Off ch=1 n=74 v=0
204720 On ch=1 n=76 v=84
204960 Off ch=1 n=76 v=0
204960 On ch=1 n=83 v=93
204960 Off ch=1 n=67 v=0
204960 On ch=1 n=64 v=70
205200 Off ch=1 n=83 v=0
205200 On ch=1 n=76 v=65
205440 Off ch=1 n=76 v=0
205440 On ch=1 n=74 v=68
205440 Off ch=1 n=62 v=0
205440 Off ch=1 n=64 v=0
205440 On ch=1 n=69 v=85
205680 Off ch=1 n=74 v=0
205680 On ch=1 n=76 v=74
205920 Off ch=1 n=76 v=0
205920 On ch=1 n=71 v=66
205920 On ch=1 n=57 v=69
206160 Off ch=1 n=71 v=0
206160 On ch=1 n=74 v=83
206160 Off ch=1 n=69 v=0
206160 Off ch=1 n=57 v=0
206160 On ch=1 n=64 v=65
206160 On ch=1 n=62 v=86
206400 Off ch=1 n=74 v=0
206400 On ch=1 n=76 v=79
206640 Off ch=1 n=76 v=0
206640 On ch=1 n=74 v=75
206640 Off ch=1 n=62 v=0
206640 On ch=1 n=57 v=77
206880 Off ch=1 n=74 v=0
206880 On ch=1 n=83 v=94
206880 Off ch=1 n=57 v=0
206880 On ch=1 n=57 v=77
207120 Off ch=1 n=83 v=0
207120 On ch=1 n=76 v=64
207360 Off ch=1 n=76 v=0
207360 Off ch=1 n=50 v=0
207360 Off ch=1 n=64 v=0
207360 Off ch=1 n=57 v=0
207360 On ch=1 n=59 v=73
207360 On ch=1 n=43 v=64
207600 On ch=1 n=74 v=70
207840 Off ch=1 n=74 v=0
207840 On ch=1 n=76 v=75
207840 Off ch=1 n=59 v=0
207840 On ch=1 n=67 v=90
208080 Off ch=1 n=76 v=0
208080 On ch=1 n=71 v=64
208080 On ch=1 n=55 v=63
208320 Off ch=1 n=71 v=0
208320 On ch=1 n=74 v=80
208320 Off ch=1 n=67 v=0
208320 Off ch=1 n=55 v=0
208320 On ch=1 n=66 v=80
208320 On ch=1 n=59 v=89
208320 On ch=1 n=62 v=89
208560 Off ch=1 n=74 v=0
208560 On ch=1 n=76 v=80
208800 Off ch=1 n=76 v=0
208800 On ch=1 n=83 v=93
208800 Off ch=1 n=66 v=0
208800 On ch=1 n=62 v=70
209040 Off ch=1 n=83 v=0
209040 On ch=1 n=76 v=65
209040 Off ch=1 n=62 v=0
209040 On ch=1 n=64 v=81
209280 Off ch=1 n=76 v=0
209280 On ch=1 n=74 v=69
209280 Off ch=1 n=59 v=0
209280 Off ch=1 n=62 v=0
209520 Off ch=1 n=74 v=0
209520 On ch=1 n=76 v=77
209520 On ch=1 n=55 v=71
209760 Off ch=1 n=76 v=0
209760 On ch=1 n=71 v=63
209760 Off ch=1 n=64 v=0
209760 Off ch=1 n=55 v=0
209760 On ch=1 n=67 v=84
210000 Off ch=1 n=71 v=0
210000 On ch=1 n=74 v=83
210000 On ch=1 n=55 v=71
210240 Off ch=1 n=74 v=0
210240 On ch=1 n=76 v=88
210240 Off ch=1 n=67 v=0
210240 Off ch=1 n=55 v=0
210240 On ch=1 n=66 v=75
210240 On ch=1 n=59 v=87
210240 On ch=1 n=62 v=87
210480 Off ch=1 n=76 v=0
210480 On ch=1 n=74 v=74
210720 Off ch=1 n=74 v=0
210720 On ch=1 n=83 v=94
210720 Off ch=1 n=66 v=0
210720 On ch=1 n=64 v=71
210960 Off ch=1 n=83 v=0
210960 On ch=1 n=76 v=67
210960 Off ch=1 n=64 v=0
210960 On ch=1 n=66 v=84
211200 Off ch=1 n=76 v=0
211200 Off ch=1 n=43 v=0
211200 Off ch=1 n=59 v=0
211200 Off ch=1 n=62 v=0
211200 On ch=1 n=45 v=73
211680 On ch=1 n=52 v=66
211920 Off ch=1 n=52 v=0
211920 On ch=1 n=57 v=81
212160 On ch=1 n=71 v=70
212160 Off ch=1 n=57 v=0
212160 On ch=1 n=59 v=77
212280 Off ch=1 n=71 v=0
212280 On ch=1 n=76 v=81
212400 Off ch=1 n=76 v=0
212400 On ch=1 n=78 v=82
212400 Off ch=1 n=59 v=0
212400 On ch=1 n=64 v=81
212520 Off ch=1 n=78 v=0
212520 On ch=1 n=83 v=89
212640 Off ch=1 n=83 v=0
212640 On ch=1 n=88 v=84
212640 Off ch=1 n=64 v=0
212640 On ch=1 n=66 v=83
212760 Off ch=1 n=88 v=0
212760 On ch=1 n=90 v=86
212880 Off ch=1 n=90 v=0
212880 On ch=1 n=95 v=91
212880 Off ch=1 n=66 v=0
212880 On ch=1 n=71 v=87
213600 Off ch=1 n=95 v=0
213600 On ch=1 n=71 v=80
213600 On ch=1 n=83 v=80
214080 Off ch=1 n=66 v=0
214080 Off ch=1 n=45 v=0
214080 Off ch=1 n=71 v=0
214320 Off ch=1 n=71 v=0
214320 Off ch=1 n=83 v=0
214320 On ch=1 n=64 v=62
214320 On ch=1 n=76 v=62
214800 On ch=1 n=40 v=67
215040 Off ch=1 n=64 v=0
215040 Off ch=1 n=76 v=0
215040 On ch=1 n=71 v=89
215040 On ch=1 n=76 v=89
215040 On ch=1 n=79 v=89
215040 On ch=1 n=83 v=89
215040 On ch=1 n=28 v=64
215520 On ch=1 n=52 v=62
215760 Off ch=1 n=52 v=0
215760 On ch=1 n=55 v=69
216000 Off ch=1 n=71 v=0
216000 Off ch=1 n=76 v=0
216000 Off ch=1 n=79 v=0
216000 Off ch=1 n=83 v=0
216000 On ch=1 n=74 v=86
216000 On ch=1 n=79 v=86
216000 On ch=1 n=83 v=86
216000 On ch=1 n=86 v=86
216000 Off ch=1 n=55 v=0
216000 On ch=1 n=59 v=83
216000 On ch=1 n=64 v=83
216480 Off ch=1 n=74 v=0
216480 Off ch=1 n=79 v=0
216480 Off ch=1 n=83 v=0
216480 Off ch=1 n=86 v=0
216480 On ch=1 n=71 v=72
216480 On ch=1 n=83 v=72
216480 Off ch=1 n=59 v=0
216480 Off ch=1 n=64 v=0
216480 On ch=1 n=40 v=63
216720 Off ch=1 n=40 v=0
216720 On ch=1 n=52 v=73
217200 Off ch=1 n=52 v=0
217200 On ch=1 n=40 v=58
217440 Off ch=1 n=71 v=0
217440 Off ch=1 n=83 v=0
217440 On ch=1 n=71 v=74
217440 On ch=1 n=76 v=74
217440 On ch=1 n=79 v=74
217440 On ch=1 n=83 v=74
217440 Off ch=1 n=40 v=0
217440 On ch=1 n=52 v=78
217680 Off ch=1 n=52 v=0
217680 On ch=1 n=52 v=74
217920 Off ch=1 n=52 v=0
217920 On ch=1 n=59 v=86
217920 On ch=1 n=64 v=86
218160 Off ch=1 n=71 v=0
218160 Off ch=1 n=76 v=0
218160 Off ch=1 n=79 v=0
218160 Off ch=1 n=83 v=0
218160 On ch=1 n=76 v=65
218160 Off ch=1 n=59 v=0
218160 Off ch=1 n=64 v=0
218160 On ch=1 n=55 v=67
218400 Off ch=1 n=55 v=0
218400 On ch=1 n=52 v=65
218640 Off ch=1 n=52 v=0
218640 On ch=1 n=40 v=57
218880 Off ch=1 n=76 v=0
218880 On ch=1 n=71 v=89
218880 On ch=1 n=76 v=89
218880 On ch=1 n=79 v=89
218880 On ch=1 n=83 v=89
218880 Off ch=1 n=40 v=0
218880 Off ch=1 n=28 v=0
218880 Off ch=1 n=40 v=0
218880 On ch=1 n=24 v=68
218880 On ch=1 n=36 v=68
219360 On ch=1 n=48 v=65
219600 Off ch=1 n=48 v=0
219600 On ch=1 n=52 v=80
219840 Off ch=1 n=71 v=0
219840 Off ch=1 n=76 v=0
219840 Off ch=1 n=79 v=0
219840 Off ch=1 n=83 v=0
219840 On ch=1 n=74 v=86
219840 On ch=1 n=79 v=86
219840 On ch=1 n=83 v=86
219840 On ch=1 n=86 v=86
219840 Off ch=1 n=52 v=0
219840 On ch=1 n=55 v=91
219840 On ch=1 n=60 v=91
220320 Off ch=1 n=74 v=0
220320 Off ch=1 n=79 v=0
220320 Off ch=1 n=83 v=0
220320 Off ch=1 n=86 v=0
220320 On ch=1 n=71 v=72
220320 On ch=1 n=83 v=72
220320 Off ch=1 n=55 v=0
220320 Off ch=1 n=60 v=0
220320 On ch=1 n=36 v=71
220560 Off ch=1 n=36 v=0
220560 On ch=1 n=48 v=86
221040 Off ch=1 n=48 v=0
221040 On ch=1 n=36 v=64
221280 Off ch=1 n=71 v=0
221280 Off ch=1 n=83 v=0
221280 On ch=1 n=71 v=75
221280 On ch=1 n=76 v=75
221280 On ch=1 n=79 v=75
221280 On ch=1 n=83 v=75
221280 Off ch=1 n=36 v=0
221280 On ch=1 n=48 v=86
221520 Off ch=1 n=48 v=0
221520 On ch=1 n=48 v=77
221760 Off ch=1 n=48 v=0
221760 On ch=1 n=55 v=98
221760 On ch=1 n=60 v=98
222000 Off ch=1 n=71 v=0
222000 Off ch=1 n=76 v=0
222000 Off ch=1 n=79 v=0
222000 Off ch=1 n=83 v=0
222000 On ch=1 n=64 v=68
222000 On ch=1 n=76 v=68
222000 Off ch=1 n=55 v=0
222000 Off ch=1 n=60 v=0
222000 On ch=1 n=52 v=71
222240 Off ch=1 n=52 v=0
222240 On ch=1 n=48 v=75
222480 Off ch=1 n=48 v=0
222480 On ch=1 n=36 v=66
222720 Off ch=1 n=64 v=0
222720 Off ch=1 n=76 v=0
222720 On ch=1 n=71 v=86
222720 On ch=1 n=76 v=86
222720 On ch=1 n=79 v=86
222720 On ch=1 n=83 v=86
222720 Off ch=1 n=24 v=0
222720 Off ch=1 n=36 v=0
222720 Off ch=1 n=36 v=0
222720 On ch=1 n=33 v=81
222720 On ch=1 n=45 v=81
223200 On ch=1 n=45 v=68
223440 Off ch=1 n=45 v=0
223440 On ch=1 n=48 v=75
223680 Off ch=1 n=71 v=0
223680 Off ch=1 n=76 v=0
223680 Off ch=1 n=79 v=0
223680 Off ch=1 n=83 v=0
223680 On ch=1 n=72 v=80
223680 On ch=1 n=76 v=80
223680 On ch=1 n=79 v=80
223680 On ch=1 n=84 v=80
223680 Off ch=1 n=48 v=0
223680 On ch=1 n=52 v=86
223680 On ch=1 n=57 v=86
224160 Off ch=1 n=72 v=0
224160 Off ch=1 n=76 v=0
224160 Off ch=1 n=79 v=0
224160 Off ch=1 n=84 v=0
224160 On ch=1 n=71 v=72
224160 On ch=1 n=83 v=72
224160 Off ch=1 n=52 v=0
224160 Off ch=1 n=57 v=0
224160 On ch=1 n=33 v=62
224400 Off ch=1 n=33 v=0
224400 On ch=1 n=45 v=88
224880 Off ch=1 n=45 v=0
224880 On ch=1 n=33 v=65
225120 Off ch=1 n=71 v=0
225120 Off ch=1 n=83 v=0
225120 On ch=1 n=71 v=78
225120 On ch=1 n=76 v=78
225120 On ch=1 n=79 v=78
225120 On ch=1 n=83 v=78
225120 Off ch=1 n=33 v=0
225120 On ch=1 n=45 v=86
225360 Off ch=1 n=45 v=0
225360 On ch=1 n=45 v=78
225600 Off ch=1 n=45 v=0
225600 On ch=1 n=52 v=85
225600 On ch=1 n=57 v=85
225840 Off ch=1 n=71 v=0
225840 Off ch=1 n=76 v=0
225840 Off ch=1 n=79 v=0
225840 Off ch=1 n=83 v=0
225840 On ch=1 n=64 v=65
225840 On ch=1 n=76 v=65
225840 Off ch=1 n=52 v=0
225840 Off ch=1 n=57 v=0
225840 On ch=1 n=48 v=67
226080 Off ch=1 n=48 v=0
226080 On ch=1 n=45 v=69
226320 Off ch=1 n=45 v=0
226320 On ch=1 n=33 v=64
226560 Off ch=1 n=64 v=0
226560 Off ch=1 n=76 v=0
226560 On ch=1 n=69 v=80
226560 On ch=1 n=74 v=80
226560 On ch=1 n=78 v=80
226560 On ch=1 n=81 v=80
226560 Off ch=1 n=33 v=0
226560 Off ch=1 n=45 v=0
226560 Off ch=1 n=33 v=0
226560 On ch=1 n=31 v=79
226560 On ch=1 n=43 v=79
227040 Off ch=1 n=69 v=0
227040 Off ch=1 n=74 v=0
227040 Off ch=1 n=78 v=0
227040 Off ch=1 n=81 v=0
227040 On ch=1 n=67 v=70
227040 On ch=1 n=79 v=70
227280 On ch=1 n=52 v=65
227520 Off ch=1 n=67 v=0
227520 Off ch=1 n=79 v=0
227520 On ch=1 n=69 v=85
227520 On ch=1 n=74 v=85
227520 On ch=1 n=78 v=85
227520 On ch=1 n=81 v=85
227520 Off ch=1 n=52 v=0
227520 On ch=1 n=55 v=85
227520 On ch=1 n=59 v=85
228000 Off ch=1 n=69 v=0
228000 Off ch=1 n=74 v=0
228000 Off ch=1 n=78 v=0
228000 Off ch=1 n=81 v=0
228000 On ch=1 n=67 v=70
228000 On ch=1 n=79 v=70
228240 Off ch=1 n=55 v=0
228240 Off ch=1 n=59 v=0
228240 On ch=1 n=52 v=73
228480 Off ch=1 n=67 v=0
228480 Off ch=1 n=79 v=0
228480 On ch=1 n=71 v=87
228480 On ch=1 n=76 v=87
228480 On ch=1 n=78 v=87
228480 On ch=1 n=83 v=87
228480 Off ch=1 n=31 v=0
228480 Off ch=1 n=43 v=0
228480 Off ch=1 n=52 v=0
228480 On ch=1 n=35 v=83
228480 On ch=1 n=47 v=83
228960 On ch=1 n=47 v=69
229200 Off ch=1 n=71 v=0
229200 Off ch=1 n=76 v=0
229200 Off ch=1 n=78 v=0
229200 Off ch=1 n=83 v=0
229200 On ch=1 n=64 v=64
229200 On ch=1 n=66 v=64
229200 On ch=1 n=71 v=64
229200 On ch=1 n=76 v=64
229200 Off ch=1 n=47 v=0
229200 On ch=1 n=54 v=83
229440 Off ch=1 n=54 v=0
229440 On ch=1 n=59 v=86
229680 Off ch=1 n=64 v=0
229680 Off ch=1 n=66 v=0
229680 Off ch=1 n=71 v=0
229680 Off ch=1 n=76 v=0
229680 On ch=1 n=64 v=70
229680 On ch=1 n=76 v=70
229680 Off ch=1 n=59 v=0
229680 On ch=1 n=54 v=74
229920 Off ch=1 n=54 v=0
229920 On ch=1 n=47 v=69
230160 Off ch=1 n=47 v=0
230160 On ch=1 n=35 v=63
230400 Off ch=1 n=64 v=0
230400 Off ch=1 n=76 v=0
230400 On ch=1 n=71 v=91
230400 On ch=1 n=76 v=91
230400 On ch=1 n=79 v=91
230400 On ch=1 n=83 v=91
230400 Off ch=1 n=35 v=0
230400 Off ch=1 n=47 v=0
230400 Off ch=1 n=35 v=0
230400 On ch=1 n=28 v=71
230400 On ch=1 n=40 v=71
230880 On ch=1 n=52 v=68
231120 Off ch=1 n=52 v=0
231120 On ch=1 n=55 v=79
231360 Off ch=1 n=71 v=0
231360 Off ch=1 n=76 v=0
231360 Off ch=1 n=79 v=0
231360 Off ch=1 n=83 v=0
231360 On ch=1 n=74 v=85
231360 On ch=1 n=79 v=85
231360 On ch=1 n=83 v=85
231360 On ch=1 n=86 v=85
231360 Off ch=1 n=55 v=0
231360 On ch=1 n=59 v=90
231360 On ch=1 n=64 v=90
231840 Off ch=1 n=74 v=0
231840 Off ch=1 n=79 v=0
231840 Off ch=1 n=83 v=0
231840 Off ch=1 n=86 v=0
231840 On ch=1 n=71 v=71
231840 On ch=1 n=83 v=71
231840 Off ch=1 n=59 v=0
231840 Off ch=1 n=64 v=0
231840 On ch=1 n=40 v=69
232080 Off ch=1 n=40 v=0
232080 On ch=1 n=52 v=85
232560 Off ch=1 n=52 v=0
232560 On ch=1 n=40 v=66
232800 Off ch=1 n=71 v=0
232800 Off ch=1 n=83 v=0
232800 On ch=1 n=71 v=74
232800 On ch=1 n=76 v=74
232800 On ch=1 n=79 v=74
232800 On ch=1 n=83 v=74
232800 Off ch=1 n=40 v=0
232800 On ch=1 n=52 v=86
233040 Off ch=1 n=52 v=0
233040 On ch=1 n=52 v=75
233280 Off ch=1 n=52 v=0
233280 On ch=1 n=59 v=98
233280 On ch=1 n=64 v=98
233520 Off ch=1 n=71 v=0
233520 Off ch=1 n=76 v=0
233520 Off ch=1 n=79 v=0
233520 Off ch=1 n=83 v=0
233520 On ch=1 n=76 v=62
233520 Off ch=1 n=59 v=0
233520 Off ch=1 n=64 v=0
233520 On ch=1 n=55 v=70
233760 Off ch=1 n=55 v=0
233760 On ch=1 n=52 v=68
234000 Off ch=1 n=52 v=0
234000 On ch=1 n=40 v=63
234240 Off ch=1 n=76 v=0
234240 On ch=1 n=71 v=86
234240 On ch=1 n=76 v=86
234240 On ch=1 n=79 v=86
234240 On ch=1 n=83 v=86
234240 Off ch=1 n=28 v=0
234240 Off ch=1 n=40 v=0
234240 Off ch=1 n=40 v=0
234240 On ch=1 n=24 v=74
234240 On ch=1 n=36 v=74
234720 On ch=1 n=48 v=68
234960 Off ch=1 n=48 v=0
234960 On ch=1 n=52 v=83
235200 Off ch=1 n=71 v=0
235200 Off ch=1 n=76 v=0
235200 Off ch=1 n=79 v=0
235200 Off ch=1 n=83 v=0
235200 On ch=1 n=74 v=88
235200 On ch=1 n=79 v=88
235200 On ch=1 n=83 v=88
235200 On ch=1 n=86 v=88
235200 Off ch=1 n=52 v=0
235200 On ch=1 n=55 v=90
235200 On ch=1 n=60 v=90
235680 Off ch=1 n=74 v=0
235680 Off ch=1 n=79 v=0
235680 Off ch=1 n=83 v=0
235680 Off ch=1 n=86 v=0
235680 On ch=1 n=71 v=71
235680 On ch=1 n=83 v=71
235680 Off ch=1 n=55 v=0
235680 Off ch=1 n=60 v=0
235680 On ch=1 n=36 v=70
235920 Off ch=1 n=36 v=0
235920 On ch=1 n=48 v=85
236400 Off ch=1 n=48 v=0
236400 On ch=1 n=36 v=66
236640 Off ch=1 n=71 v=0
236640 Off ch=1 n=83 v=0
236640 On ch=1 n=71 v=76
236640 On ch=1 n=76 v=76
236640 On ch=1 n=79 v=76
236640 On ch=1 n=83 v=76
236640 Off ch=1 n=36 v=0
236640 On ch=1 n=48 v=83
236880 Off ch=1 n=48 v=0
236880 On ch=1 n=48 v=78
237120 Off ch=1 n=48 v=0
237120 On ch=1 n=55 v=97
237120 On ch=1 n=60 v=97
237360 Off ch=1 n=71 v=0
237360 Off ch=1 n=76 v=0
237360 Off ch=1 n=79 v=0
237360 Off ch=1 n=83 v=0
237360 On ch=1 n=64 v=63
237360 On ch=1 n=76 v=63
237360 Off ch=1 n=55 v=0
237360 Off ch=1 n=60 v=0
237360 On ch=1 n=52 v=71
237600 Off ch=1 n=52 v=0
237600 On ch=1 n=48 v=75
237840 Off ch=1 n=48 v=0
237840 On ch=1 n=36 v=67
238080 Off ch=1 n=64 v=0
238080 Off ch=1 n=76 v=0
238080 On ch=1 n=71 v=86
238080 On ch=1 n=76 v=86
238080 On ch=1 n=79 v=86
238080 On ch=1 n=83 v=86
238080 Off ch=1 n=24 v=0
238080 Off ch=1 n=36 v=0
238080 Off ch=1 n=36 v=0
238080 On ch=1 n=31 v=89
238080 On ch=1 n=43 v=89
238560 On ch=1 n=43 v=69
238800 Off ch=1 n=43 v=0
238800 On ch=1 n=52 v=84
239040 Off ch=1 n=71 v=0
239040 Off ch=1 n=76 v=0
239040 Off ch=1 n=79 v=0
239040 Off ch=1 n=83 v=0
239040 On ch=1 n=72 v=86
239040 On ch=1 n=76 v=86
239040 On ch=1 n=79 v=86
239040 On ch=1 n=84 v=86
239040 Off ch=1 n=52 v=0
239040 On ch=1 n=55 v=84
239040 On ch=1 n=59 v=84
239520 Off ch=1 n=72 v=0
239520 Off ch=1 n=76 v=0
239520 Off ch=1 n=79 v=0
239520 Off ch=1 n=84 v=0
239520 On ch=1 n=71 v=73
239520 On ch=1 n=83 v=73
239520 Off ch=1 n=55 v=0
239520 Off ch=1 n=59 v=0
239520 On ch=1 n=31 v=68
239760 Off ch=1 n=31 v=0
239760 On ch=1 n=43 v=86
240240 Off ch=1 n=43 v=0
240240 On ch=1 n=31 v=65
240480 Off ch=1 n=71 v=0
240480 Off ch=1 n=83 v=0
240480 On ch=1 n=71 v=72
240480 On ch=1 n=76 v=72
240480 On ch=1 n=79 v=72
240480 On ch=1 n=83 v=72
240480 Off ch=1 n=31 v=0
240480 On ch=1 n=43 v=83
240720 Off ch=1 n=43 v=0
240720 On ch=1 n=43 v=77
240960 Off ch=1 n=43 v=0
240960 On ch=1 n=55 v=86
240960 On ch=1 n=59 v=86
241200 Off ch=1 n=71 v=0
241200 Off ch=1 n=76 v=0
241200 Off ch=1 n=79 v=0
241200 Off ch=1 n=83 v=0
241200 On ch=1 n=64 v=65
241200 On ch=1 n=76 v=65
241200 Off ch=1 n=55 v=0
241200 Off ch=1 n=59 v=0
241200 On ch=1 n=52 v=72
241440 Off ch=1 n=52 v=0
241440 On ch=1 n=43 v=68
241680 Off ch=1 n=43 v=0
241680 On ch=1 n=31 v=66
241920 Off ch=1 n=64 v=0
241920 Off ch=1 n=76 v=0
241920 On ch=1 n=69 v=83
241920 On ch=1 n=72 v=83
241920 On ch=1 n=76 v=83
241920 On ch=1 n=81 v=83
241920 Off ch=1 n=31 v=0
241920 Off ch=1 n=43 v=0
241920 Off ch=1 n=31 v=0
241920 On ch=1 n=33 v=78
241920 On ch=1 n=45 v=78
242400 Off ch=1 n=69 v=0
242400 Off ch=1 n=72 v=0
242400 Off ch=1 n=76 v=0
242400 Off ch=1 n=81 v=0
242400 On ch=1 n=71 v=86
242400 On ch=1 n=83 v=86
242640 On ch=1 n=52 v=68
242880 Off ch=1 n=71 v=0
242880 Off ch=1 n=83 v=0
242880 On ch=1 n=69 v=73
242880 On ch=1 n=72 v=73
242880 On ch=1 n=76 v=73
242880 On ch=1 n=81 v=73
242880 Off ch=1 n=52 v=0
242880 On ch=1 n=57 v=87
242880 On ch=1 n=60 v=87
243360 Off ch=1 n=69 v=0
243360 Off ch=1 n=72 v=0
243360 Off ch=1 n=76 v=0
243360 Off ch=1 n=81 v=0
243360 On ch=1 n=71 v=81
243360 On ch=1 n=83 v=81
243600 Off ch=1 n=57 v=0
243600 Off ch=1 n=60 v=0
243600 On ch=1 n=52 v=74
243840 Off ch=1 n=71 v=0
243840 Off ch=1 n=83 v=0
243840 On ch=1 n=69 v=73
243840 On ch=1 n=74 v=73
243840 On ch=1 n=78 v=73
243840 On ch=1 n=81 v=73
243840 Off ch=1 n=33 v=0
243840 Off ch=1 n=45 v=0
243840 Off ch=1 n=52 v=0
243840 On ch=1 n=35 v=80
243840 On ch=1 n=47 v=80
244320 On ch=1 n=47 v=71
244560 Off ch=1 n=69 v=0
244560 Off ch=1 n=74 v=0
244560 Off ch=1 n=78 v=0
244560 Off ch=1 n=81 v=0
244560 On ch=1 n=74 v=84
244560 On ch=1 n=78 v=84
244560 On ch=1 n=81 v=84
244560 On ch=1 n=86 v=84
244560 Off ch=1 n=47 v=0
244560 On ch=1 n=54 v=84
244560 On ch=1 n=59 v=84
245280 Off ch=1 n=74 v=0
245280 Off ch=1 n=78 v=0
245280 Off ch=1 n=81 v=0
245280 Off ch=1 n=86 v=0
245280 On ch=1 n=71 v=71
245280 On ch=1 n=76 v=71
245280 On ch=1 n=78 v=71
245280 On ch=1 n=83 v=71
245280 Off ch=1 n=35 v=0
245280 Off ch=1 n=47 v=0
245280 Off ch=1 n=54 v=0
245280 Off ch=1 n=59 v=0
245760 On ch=1 n=40 v=69
245760 On ch=1 n=52 v=69
246000 On ch=1 n=64 v=64
246240 Off ch=1 n=64 v=0
246240 On ch=1 n=64 v=69
246240 On ch=1 n=47 v=69
246480 Off ch=1 n=64 v=0
246480 On ch=1 n=64 v=71
246480 Off ch=1 n=47 v=0
246480 On ch=1 n=52 v=82
246720 Off ch=1 n=64 v=0
246720 On ch=1 n=64 v=70
246720 Off ch=1 n=52 v=0
246720 On ch=1 n=55 v=86
246720 On ch=1 n=59 v=86
246960 Off ch=1 n=64 v=0
246960 On ch=1 n=64 v=73
247200 Off ch=1 n=64 v=0
247200 On ch=1 n=64 v=69
247200 Off ch=1 n=55 v=0
247200 Off ch=1 n=59 v=0
247200 On ch=1 n=47 v=70
247440 Off ch=1 n=64 v=0
247440 On ch=1 n=64 v=73
247440 On ch=1 n=66 v=73
247440 Off ch=1 n=47 v=0
247440 On ch=1 n=40 v=67
247680 Off ch=1 n=71 v=0
247680 Off ch=1 n=76 v=0
247680 Off ch=1 n=78 v=0
247680 Off ch=1 n=83 v=0
247680 Off ch=1 n=64 v=0
247680 Off ch=1 n=66 v=0
247680 On ch=1 n=64 v=75
247680 On ch=1 n=66 v=75
247920 Off ch=1 n=64 v=0
247920 Off ch=1 n=66 v=0
247920 On ch=1 n=64 v=75
247920 On ch=1 n=66 v=75
247920 Off ch=1 n=40 v=0
247920 On ch=1 n=40 v=78
248160 Off ch=1 n=64 v=0
248160 Off ch=1 n=66 v=0
248160 On ch=1 n=64 v=83
248160 On ch=1 n=67 v=83
248160 Off ch=1 n=40 v=0
248160 On ch=1 n=47 v=84
248400 Off ch=1 n=64 v=0
248400 Off ch=1 n=67 v=0
248400 On ch=1 n=64 v=78
248400 On ch=1 n=67 v=78
248400 Off ch=1 n=47 v=0
248400 On ch=1 n=40 v=73
248640 Off ch=1 n=64 v=0
248640 Off ch=1 n=67 v=0
248640 On ch=1 n=64 v=81
248640 On ch=1 n=67 v=81
248640 Off ch=1 n=40 v=0
248640 On ch=1 n=55 v=88
248640 On ch=1 n=59 v=88
248880 Off ch=1 n=64 v=0
248880 Off ch=1 n=67 v=0
248880 On ch=1 n=64 v=83
248880 On ch=1 n=66 v=83
248880 On ch=1 n=69 v=83
249120 Off ch=1 n=64 v=0
249120 Off ch=1 n=66 v=0
249120 Off ch=1 n=69 v=0
249120 On ch=1 n=64 v=78
249120 On ch=1 n=66 v=78
249120 On ch=1 n=69 v=78
249120 Off ch=1 n=55 v=0
249120 Off ch=1 n=59 v=0
249120 On ch=1 n=47 v=69
249360 Off ch=1 n=64 v=0
249360 Off ch=1 n=66 v=0
249360 Off ch=1 n=69 v=0
249360 On ch=1 n=64 v=76
249360 On ch=1 n=66 v=76
249360 On ch=1 n=69 v=76
249600 Off ch=1 n=64 v=0
249600 Off ch=1 n=66 v=0
249600 Off ch=1 n=69 v=0
249600 On ch=1 n=64 v=85
249600 On ch=1 n=66 v=85
249600 On ch=1 n=74 v=85
249600 Off ch=1 n=40 v=0
249600 Off ch=1 n=52 v=0
249600 Off ch=1 n=47 v=0
249600 On ch=1 n=36 v=68
249600 On ch=1 n=48 v=68
249840 Off ch=1 n=64 v=0
249840 Off ch=1 n=66 v=0
249840 Off ch=1 n=74 v=0
249840 On ch=1 n=64 v=79
249840 On ch=1 n=66 v=79
249840 On ch=1 n=74 v=79
250080 Off ch=1 n=64 v=0
250080 Off ch=1 n=66 v=0
250080 Off ch=1 n=74 v=0
250080 On ch=1 n=64 v=79
250080 On ch=1 n=66 v=79
250080 On ch=1 n=74 v=79
250080 On ch=1 n=48 v=61
250320 Off ch=1 n=64 v=0
250320 Off ch=1 n=66 v=0
250320 Off ch=1 n=74 v=0
250320 On ch=1 n=64 v=77
250320 On ch=1 n=66 v=77
250320 On ch=1 n=74 v=77
250320 Off ch=1 n=48 v=0
250320 On ch=1 n=52 v=78
250560 Off ch=1 n=64 v=0
250560 Off ch=1 n=66 v=0
250560 Off ch=1 n=74 v=0
250560 On ch=1 n=64 v=76
250560 On ch=1 n=66 v=76
250560 On ch=1 n=74 v=76
250560 Off ch=1 n=52 v=0
250560 On ch=1 n=55 v=85
250560 On ch=1 n=60 v=85
250800 Off ch=1 n=64 v=0
250800 Off ch=1 n=66 v=0
250800 Off ch=1 n=74 v=0
250800 On ch=1 n=64 v=75
250800 On ch=1 n=66 v=75
250800 On ch=1 n=74 v=75
251040 Off ch=1 n=64 v=0
251040 Off ch=1 n=66 v=0
251040 Off ch=1 n=74 v=0
251040 On ch=1 n=64 v=74
251040 On ch=1 n=66 v=74
251040 On ch=1 n=74 v=74
251040 Off ch=1 n=55 v=0
251040 Off ch=1 n=60 v=0
251040 On ch=1 n=48 v=67
251280 Off ch=1 n=64 v=0
251280 Off ch=1 n=66 v=0
251280 Off ch=1 n=74 v=0
251280 On ch=1 n=64 v=74
251280 On ch=1 n=67 v=74
251280 On ch=1 n=71 v=74
251280 Off ch=1 n=48 v=0
251280 On ch=1 n=36 v=66
251520 Off ch=1 n=64 v=0
251520 Off ch=1 n=67 v=0
251520 Off ch=1 n=71 v=0
251520 On ch=1 n=64 v=73
251520 On ch=1 n=67 v=73
251520 On ch=1 n=71 v=73
251760 Off ch=1 n=64 v=0
251760 Off ch=1 n=67 v=0
251760 Off ch=1 n=71 v=0
251760 On ch=1 n=64 v=78
251760 On ch=1 n=67 v=78
251760 On ch=1 n=71 v=78
251760 Off ch=1 n=36 v=0
251760 On ch=1 n=36 v=78
252000 Off ch=1 n=64 v=0
252000 Off ch=1 n=67 v=0
252000 Off ch=1 n=71 v=0
252000 On ch=1 n=64 v=76
252000 On ch=1 n=67 v=76
252000 On ch=1 n=71 v=76
252000 Off ch=1 n=36 v=0
252000 On ch=1 n=48 v=85
252240 Off ch=1 n=64 v=0
252240 Off ch=1 n=67 v=0
252240 Off ch=1 n=71 v=0
252240 On ch=1 n=64 v=75
252240 On ch=1 n=67 v=75
252240 On ch=1 n=71 v=75
252240 Off ch=1 n=48 v=0
252240 On ch=1 n=36 v=64
252480 Off ch=1 n=64 v=0
252480 Off ch=1 n=67 v=0
252480 Off ch=1 n=71 v=0
252480 On ch=1 n=64 v=70
252480 On ch=1 n=67 v=70
252480 On ch=1 n=71 v=70
252480 Off ch=1 n=36 v=0
252480 On ch=1 n=55 v=94
252480 On ch=1 n=60 v=94
252720 Off ch=1 n=64 v=0
252720 Off ch=1 n=67 v=0
252720 Off ch=1 n=71 v=0
252720 On ch=1 n=64 v=77
252720 On ch=1 n=67 v=77
252720 On ch=1 n=71 v=77
252960 Off ch=1 n=64 v=0
252960 Off ch=1 n=67 v=0
252960 Off ch=1 n=71 v=0
252960 On ch=1 n=64 v=73
252960 On ch=1 n=67 v=73
252960 On ch=1 n=71 v=73
252960 Off ch=1 n=55 v=0
252960 Off ch=1 n=60 v=0
252960 On ch=1 n=48 v=70
253200 Off ch=1 n=64 v=0
253200 Off ch=1 n=67 v=0
253200 Off ch=1 n=71 v=0
253200 On ch=1 n=64 v=80
253200 On ch=1 n=67 v=80
253200 On ch=1 n=71 v=80
253440 Off ch=1 n=64 v=0
253440 Off ch=1 n=67 v=0
253440 Off ch=1 n=71 v=0
253440 On ch=1 n=64 v=68
253440 Off ch=1 n=36 v=0
253440 Off ch=1 n=48 v=0
253440 Off ch=1 n=48 v=0
253440 On ch=1 n=45 v=69
253680 Off ch=1 n=64 v=0
253680 On ch=1 n=64 v=74
253920 Off ch=1 n=64 v=0
253920 On ch=1 n=64 v=77
253920 On ch=1 n=45 v=69
254160 Off ch=1 n=64 v=0
254160 On ch=1 n=64 v=78
254160 Off ch=1 n=45 v=0
254160 On ch=1 n=52 v=84
254400 Off ch=1 n=64 v=0
254400 On ch=1 n=64 v=75
254400 Off ch=1 n=52 v=0
254400 On ch=1 n=57 v=92
254400 On ch=1 n=60 v=92
254640 Off ch=1 n=64 v=0
254640 On ch=1 n=64 v=79
254880 Off ch=1 n=64 v=0
254880 On ch=1 n=64 v=79
254880 Off ch=1 n=57 v=0
254880 Off ch=1 n=60 v=0
254880 On ch=1 n=52 v=69
255120 Off ch=1 n=64 v=0
255120 On ch=1 n=64 v=80
255120 On ch=1 n=66 v=80
255120 Off ch=1 n=52 v=0
255120 On ch=1 n=45 v=69
255360 Off ch=1 n=64 v=0
255360 Off ch=1 n=66 v=0
255360 On ch=1 n=64 v=73
255360 On ch=1 n=66 v=73
255600 Off ch=1 n=64 v=0
255600 Off ch=1 n=66 v=0
255600 On ch=1 n=64 v=74
255600 On ch=1 n=66 v=74
255600 Off ch=1 n=45 v=0
255600 On ch=1 n=45 v=78
255840 Off ch=1 n=64 v=0
255840 Off ch=1 n=66 v=0
255840 On ch=1 n=64 v=86
255840 On ch=1 n=66 v=86
255840 On ch=1 n=71 v=86
255840 Off ch=1 n=45 v=0
255840 On ch=1 n=52 v=81
256080 Off ch=1 n=64 v=0
256080 Off ch=1 n=66 v=0
256080 Off ch=1 n=71 v=0
256080 On ch=1 n=64 v=73
256080 On ch=1 n=66 v=73
256080 On ch=1 n=71 v=73
256080 Off ch=1 n=52 v=0
256080 On ch=1 n=45 v=71
256320 Off ch=1 n=64 v=0
256320 Off ch=1 n=66 v=0
256320 Off ch=1 n=71 v=0
256320 On ch=1 n=64 v=76
256320 On ch=1 n=66 v=76
256320 On ch=1 n=71 v=76
256320 Off ch=1 n=45 v=0
256320 On ch=1 n=57 v=97
256320 On ch=1 n=60 v=97
256560 Off ch=1 n=64 v=0
256560 Off ch=1 n=66 v=0
256560 Off ch=1 n=71 v=0
256560 On ch=1 n=64 v=73
256560 On ch=1 n=66 v=73
256560 On ch=1 n=69 v=73
256800 Off ch=1 n=64 v=0
256800 Off ch=1 n=66 v=0
256800 Off ch=1 n=69 v=0
256800 On ch=1 n=64 v=75
256800 On ch=1 n=66 v=75
256800 On ch=1 n=69 v=75
256800 Off ch=1 n=57 v=0
256800 Off ch=1 n=60 v=0
256800 On ch=1 n=45 v=66
257040 Off ch=1 n=64 v=0
257040 Off ch=1 n=66 v=0
257040 Off ch=1 n=69 v=0
257040 On ch=1 n=64 v=81
257040 On ch=1 n=66 v=81
257040 On ch=1 n=69 v=81
257280 Off ch=1 n=64 v=0
257280 Off ch=1 n=66 v=0
257280 Off ch=1 n=69 v=0
257280 On ch=1 n=64 v=63
257280 Off ch=1 n=45 v=0
257280 Off ch=1 n=45 v=0
257280 On ch=1 n=43 v=74
257520 Off ch=1 n=64 v=0
257520 On ch=1 n=64 v=78
257760 Off ch=1 n=64 v=0
257760 On ch=1 n=64 v=76
257760 On ch=1 n=43 v=71
258000 Off ch=1 n=64 v=0
258000 On ch=1 n=64 v=72
258000 Off ch=1 n=43 v=0
258000 On ch=1 n=52 v=84
258240 Off ch=1 n=64 v=0
258240 On ch=1 n=64 v=78
258240 Off ch=1 n=52 v=0
258240 On ch=1 n=55 v=86
258240 On ch=1 n=59 v=86
258480 Off ch=1 n=64 v=0
258480 On ch=1 n=64 v=74
258720 Off ch=1 n=64 v=0
258720 On ch=1 n=64 v=76
258720 Off ch=1 n=55 v=0
258720 Off ch=1 n=59 v=0
258720 On ch=1 n=52 v=72
258960 Off ch=1 n=64 v=0
258960 On ch=1 n=64 v=83
258960 On ch=1 n=66 v=83
258960 Off ch=1 n=52 v=0
258960 On ch=1 n=47 v=74
259200 Off ch=1 n=64 v=0
259200 Off ch=1 n=66 v=0
259200 On ch=1 n=64 v=75
259200 On ch=1 n=66 v=75
259200 Off ch=1 n=43 v=0
259440 Off ch=1 n=64 v=0
259440 Off ch=1 n=66 v=0
259440 On ch=1 n=64 v=75
259440 On ch=1 n=66 v=75
259440 On ch=1 n=47 v=72
259680 Off ch=1 n=64 v=0
259680 Off ch=1 n=66 v=0
259680 On ch=1 n=64 v=76
259680 On ch=1 n=66 v=76
259680 Off ch=1 n=47 v=0
259680 On ch=1 n=52 v=75
259920 Off ch=1 n=64 v=0
259920 Off ch=1 n=66 v=0
259920 On ch=1 n=64 v=76
259920 On ch=1 n=66 v=76
259920 Off ch=1 n=52 v=0
259920 On ch=1 n=47 v=68
260160 Off ch=1 n=64 v=0
260160 Off ch=1 n=66 v=0
260160 On ch=1 n=64 v=78
260160 On ch=1 n=66 v=78
260160 Off ch=1 n=47 v=0
260160 On ch=1 n=52 v=84
260160 On ch=1 n=54 v=84
260160 On ch=1 n=59 v=84
260400 Off ch=1 n=64 v=0
260400 Off ch=1 n=66 v=0
260400 On ch=1 n=64 v=76
260400 On ch=1 n=66 v=76
260640 Off ch=1 n=64 v=0
260640 Off ch=1 n=66 v=0
260640 On ch=1 n=64 v=75
260640 On ch=1 n=66 v=75
260640 Off ch=1 n=52 v=0
260640 Off ch=1 n=54 v=0
260640 Off ch=1 n=59 v=0
260640 On ch=1 n=47 v=65
260880 Off ch=1 n=64 v=0
260880 Off ch=1 n=66 v=0
260880 On ch=1 n=64 v=76
260880 On ch=1 n=66 v=76
261120 Off ch=1 n=64 v=0
261120 Off ch=1 n=66 v=0
261120 On ch=1 n=64 v=97
261120 On ch=1 n=67 v=97
261120 On ch=1 n=76 v=97
261120 Off ch=1 n=47 v=0
261120 Off ch=1 n=47 v=0
261120 On ch=1 n=28 v=70
261120 On ch=1 n=40 v=70
261360 Off ch=1 n=64 v=0
261360 Off ch=1 n=67 v=0
261360 Off ch=1 n=76 v=0
261360 On ch=1 n=67 v=74
261360 On ch=1 n=76 v=74
261600 Off ch=1 n=67 v=0
261600 Off ch=1 n=76 v=0
261600 On ch=1 n=67 v=75
261600 On ch=1 n=76 v=75
261600 On ch=1 n=52 v=70
261840 Off ch=1 n=67 v=0
261840 Off ch=1 n=76 v=0
261840 On ch=1 n=67 v=73
261840 On ch=1 n=76 v=73
261840 Off ch=1 n=52 v=0
261840 On ch=1 n=55 v=81
262080 Off ch=1 n=67 v=0
262080 Off ch=1 n=76 v=0
262080 On ch=1 n=67 v=76
262080 On ch=1 n=76 v=76
262080 Off ch=1 n=55 v=0
262080 On ch=1 n=59 v=96
262080 On ch=1 n=64 v=96
262320 Off ch=1 n=67 v=0
262320 Off ch=1 n=76 v=0
262320 On ch=1 n=67 v=82
262320 On ch=1 n=76 v=82
262320 Off ch=1 n=59 v=0
262320 Off ch=1 n=64 v=0
262320 On ch=1 n=55 v=69
262560 Off ch=1 n=67 v=0
262560 Off ch=1 n=76 v=0
262560 On ch=1 n=67 v=73
262560 On ch=1 n=76 v=73
262560 Off ch=1 n=55 v=0
262560 On ch=1 n=52 v=72
262800 Off ch=1 n=67 v=0
262800 Off ch=1 n=76 v=0
262800 On ch=1 n=66 v=78
262800 On ch=1 n=69 v=78
262800 On ch=1 n=78 v=78
262800 Off ch=1 n=52 v=0
262800 On ch=1 n=40 v=64
263040 Off ch=1 n=66 v=0
263040 Off ch=1 n=69 v=0
263040 Off ch=1 n=78 v=0
263040 On ch=1 n=66 v=76
263040 On ch=1 n=69 v=76
263040 On ch=1 n=78 v=76
263280 Off ch=1 n=66 v=0
263280 Off ch=1 n=69 v=0
263280 Off ch=1 n=78 v=0
263280 On ch=1 n=66 v=76
263280 On ch=1 n=69 v=76
263280 On ch=1 n=78 v=76
263280 Off ch=1 n=40 v=0
263280 On ch=1 n=52 v=87
263520 Off ch=1 n=66 v=0
263520 Off ch=1 n=69 v=0
263520 Off ch=1 n=78 v=0
263520 On ch=1 n=67 v=78
263520 On ch=1 n=71 v=78
263520 On ch=1 n=79 v=78
263520 Off ch=1 n=52 v=0
263520 On ch=1 n=55 v=81
263760 Off ch=1 n=67 v=0
263760 Off ch=1 n=71 v=0
263760 Off ch=1 n=79 v=0
263760 On ch=1 n=67 v=80
263760 On ch=1 n=71 v=80
263760 On ch=1 n=79 v=80
263760 Off ch=1 n=55 v=0
263760 On ch=1 n=52 v=75
264000 Off ch=1 n=67 v=0
264000 Off ch=1 n=71 v=0
264000 Off ch=1 n=79 v=0
264000 On ch=1 n=67 v=78
264000 On ch=1 n=71 v=78
264000 On ch=1 n=79 v=78
264000 Off ch=1 n=52 v=0
264000 On ch=1 n=59 v=98
264000 On ch=1 n=64 v=98
264240 Off ch=1 n=67 v=0
264240 Off ch=1 n=71 v=0
264240 Off ch=1 n=79 v=0
264240 On ch=1 n=69 v=80
264240 On ch=1 n=74 v=80
264240 On ch=1 n=78 v=80
264240 On ch=1 n=81 v=80
264240 Off ch=1 n=59 v=0
264240 Off ch=1 n=64 v=0
264240 On ch=1 n=55 v=72
264480 Off ch=1 n=69 v=0
264480 Off ch=1 n=74 v=0
264480 Off ch=1 n=78 v=0
264480 Off ch=1 n=81 v=0
264480 On ch=1 n=69 v=77
264480 On ch=1 n=74 v=77
264480 On ch=1 n=78 v=77
264480 On ch=1 n=81 v=77
264480 Off ch=1 n=55 v=0
264480 On ch=1 n=52 v=73
264720 Off ch=1 n=69 v=0
264720 Off ch=1 n=74 v=0
264720 Off ch=1 n=78 v=0
264720 Off ch=1 n=81 v=0
264720 On ch=1 n=69 v=77
264720 On ch=1 n=74 v=77
264720 On ch=1 n=78 v=77
264720 On ch=1 n=81 v=77
264720 Off ch=1 n=52 v=0
264720 On ch=1 n=40 v=65
264960 Off ch=1 n=69 v=0
264960 Off ch=1 n=74 v=0
264960 Off ch=1 n=78 v=0
264960 Off ch=1 n=81 v=0
264960 On ch=1 n=74 v=87
264960 On ch=1 n=78 v=87
264960 On ch=1 n=86 v=87
264960 Off ch=1 n=28 v=0
264960 Off ch=1 n=40 v=0
264960 Off ch=1 n=40 v=0
264960 On ch=1 n=36 v=82
264960 On ch=1 n=48 v=82
265200 Off ch=1 n=74 v=0
265200 Off ch=1 n=78 v=0
265200 Off ch=1 n=86 v=0
265200 On ch=1 n=74 v=82
265200 On ch=1 n=78 v=82
265200 On ch=1 n=86 v=82
265440 Off ch=1 n=74 v=0
265440 Off ch=1 n=78 v=0
265440 Off ch=1 n=86 v=0
265440 On ch=1 n=74 v=75
265440 On ch=1 n=78 v=75
265440 On ch=1 n=86 v=75
265440 On ch=1 n=48 v=67
265680 Off ch=1 n=74 v=0
265680 Off ch=1 n=78 v=0
265680 Off ch=1 n=86 v=0
265680 On ch=1 n=74 v=83
265680 On ch=1 n=78 v=83
265680 On ch=1 n=86 v=83
265680 Off ch=1 n=48 v=0
265680 On ch=1 n=55 v=80
265920 Off ch=1 n=74 v=0
265920 Off ch=1 n=78 v=0
265920 Off ch=1 n=86 v=0
265920 On ch=1 n=74 v=78
265920 On ch=1 n=78 v=78
265920 On ch=1 n=86 v=78
265920 Off ch=1 n=55 v=0
265920 On ch=1 n=60 v=96
265920 On ch=1 n=64 v=96
266160 Off ch=1 n=74 v=0
266160 Off ch=1 n=78 v=0
266160 Off ch=1 n=86 v=0
266160 On ch=1 n=74 v=75
266160 On ch=1 n=78 v=75
266160 On ch=1 n=86 v=75
266160 Off ch=1 n=60 v=0
266160 Off ch=1 n=64 v=0
266160 On ch=1 n=55 v=65
266400 Off ch=1 n=74 v=0
266400 Off ch=1 n=78 v=0
266400 Off ch=1 n=86 v=0
266400 On ch=1 n=74 v=72
266400 On ch=1 n=78 v=72
266400 On ch=1 n=86 v=72
266400 Off ch=1 n=55 v=0
266400 On ch=1 n=48 v=66
266640 Off ch=1 n=74 v=0
266640 Off ch=1 n=78 v=0
266640 Off ch=1 n=86 v=0
266640 On ch=1 n=71 v=69
266640 On ch=1 n=74 v=69
266640 On ch=1 n=83 v=69
266640 Off ch=1 n=48 v=0
266640 On ch=1 n=36 v=59
266880 Off ch=1 n=71 v=0
266880 Off ch=1 n=74 v=0
266880 Off ch=1 n=83 v=0
266880 On ch=1 n=71 v=73
266880 On ch=1 n=74 v=73
266880 On ch=1 n=83 v=73
267120 Off ch=1 n=71 v=0
267120 Off ch=1 n=74 v=0
267120 Off ch=1 n=83 v=0
267120 On ch=1 n=71 v=80
267120 On ch=1 n=74 v=80
267120 On ch=1 n=83 v=80
267120 Off ch=1 n=36 v=0
267120 On ch=1 n=48 v=87
267360 Off ch=1 n=71 v=0
267360 Off ch=1 n=74 v=0
267360 Off ch=1 n=83 v=0
267360 On ch=1 n=71 v=76
267360 On ch=1 n=74 v=76
267360 On ch=1 n=83 v=76
267360 Off ch=1 n=48 v=0
267360 On ch=1 n=55 v=83
267600 Off ch=1 n=71 v=0
267600 Off ch=1 n=74 v=0
267600 Off ch=1 n=83 v=0
267600 On ch=1 n=71 v=76
267600 On ch=1 n=74 v=76
267600 On ch=1 n=83 v=76
267600 Off ch=1 n=55 v=0
267600 On ch=1 n=48 v=73
267840 Off ch=1 n=71 v=0
267840 Off ch=1 n=74 v=0
267840 Off ch=1 n=83 v=0
267840 On ch=1 n=71 v=73
267840 On ch=1 n=74 v=73
267840 On ch=1 n=83 v=73
267840 Off ch=1 n=48 v=0
267840 On ch=1 n=60 v=102
267840 On ch=1 n=64 v=102
268080 Off ch=1 n=71 v=0
268080 Off ch=1 n=74 v=0
268080 Off ch=1 n=83 v=0
268080 On ch=1 n=71 v=78
268080 On ch=1 n=74 v=78
268080 On ch=1 n=83 v=78
268080 Off ch=1 n=60 v=0
268080 Off ch=1 n=64 v=0
268080 On ch=1 n=55 v=69
268320 Off ch=1 n=71 v=0
268320 Off ch=1 n=74 v=0
268320 Off ch=1 n=83 v=0
268320 On ch=1 n=71 v=74
268320 On ch=1 n=74 v=74
268320 On ch=1 n=83 v=74
268320 Off ch=1 n=55 v=0
268320 On ch=1 n=48 v=72
268560 Off ch=1 n=71 v=0
268560 Off ch=1 n=74 v=0
268560 Off ch=1 n=83 v=0
268560 On ch=1 n=71 v=76
268560 On ch=1 n=74 v=76
268560 On ch=1 n=83 v=76
268560 Off ch=1 n=48 v=0
268560 On ch=1 n=36 v=65
268800 Off ch=1 n=71 v=0
268800 Off ch=1 n=74 v=0
268800 Off ch=1 n=83 v=0
268800 On ch=1 n=64 v=63
268800 On ch=1 n=67 v=63
268800 On ch=1 n=76 v=63
268800 Off ch=1 n=36 v=0
268800 Off ch=1 n=48 v=0
268800 Off ch=1 n=36 v=0
268800 On ch=1 n=31 v=75
268800 On ch=1 n=43 v=75
269040 Off ch=1 n=64 v=0
269040 Off ch=1 n=67 v=0
269040 Off ch=1 n=76 v=0
269040 On ch=1 n=67 v=70
269040 On ch=1 n=76 v=70
269280 Off ch=1 n=67 v=0
269280 Off ch=1 n=76 v=0
269280 On ch=1 n=67 v=74
269280 On ch=1 n=76 v=74
269280 On ch=1 n=52 v=69
269520 Off ch=1 n=67 v=0
269520 Off ch=1 n=76 v=0
269520 On ch=1 n=67 v=78
269520 On ch=1 n=76 v=78
269520 Off ch=1 n=52 v=0
269520 On ch=1 n=55 v=74
269760 Off ch=1 n=67 v=0
269760 Off ch=1 n=76 v=0
269760 On ch=1 n=67 v=78
269760 On ch=1 n=76 v=78
269760 Off ch=1 n=55 v=0
269760 On ch=1 n=59 v=92
269760 On ch=1 n=64 v=92
270000 Off ch=1 n=67 v=0
270000 Off ch=1 n=76 v=0
270000 On ch=1 n=67 v=75
270000 On ch=1 n=76 v=75
270000 Off ch=1 n=59 v=0
270000 Off ch=1 n=64 v=0
270000 On ch=1 n=55 v=67
270240 Off ch=1 n=67 v=0
270240 Off ch=1 n=76 v=0
270240 On ch=1 n=67 v=81
270240 On ch=1 n=76 v=81
270240 Off ch=1 n=55 v=0
270240 On ch=1 n=52 v=72
270480 Off ch=1 n=67 v=0
270480 Off ch=1 n=76 v=0
270480 On ch=1 n=66 v=80
270480 On ch=1 n=69 v=80
270480 On ch=1 n=78 v=80
270480 Off ch=1 n=52 v=0
270480 On ch=1 n=43 v=72
270720 Off ch=1 n=66 v=0
270720 Off ch=1 n=69 v=0
270720 Off ch=1 n=78 v=0
270720 On ch=1 n=66 v=80
270720 On ch=1 n=69 v=80
270720 On ch=1 n=78 v=80
270960 Off ch=1 n=66 v=0
270960 Off ch=1 n=69 v=0
270960 Off ch=1 n=78 v=0
270960 On ch=1 n=66 v=77
270960 On ch=1 n=69 v=77
270960 On ch=1 n=78 v=77
270960 Off ch=1 n=43 v=0
270960 On ch=1 n=52 v=86
271200 Off ch=1 n=66 v=0
271200 Off ch=1 n=69 v=0
271200 Off ch=1 n=78 v=0
271200 On ch=1 n=71 v=86
271200 On ch=1 n=74 v=86
271200 On ch=1 n=83 v=86
271200 Off ch=1 n=52 v=0
271200 On ch=1 n=55 v=83
271440 Off ch=1 n=71 v=0
271440 Off ch=1 n=74 v=0
271440 Off ch=1 n=83 v=0
271440 On ch=1 n=71 v=77
271440 On ch=1 n=74 v=77
271440 On ch=1 n=83 v=77
271440 Off ch=1 n=55 v=0
271440 On ch=1 n=52 v=74
271680 Off ch=1 n=71 v=0
271680 Off ch=1 n=74 v=0
271680 Off ch=1 n=83 v=0
271680 On ch=1 n=71 v=78
271680 On ch=1 n=74 v=78
271680 On ch=1 n=83 v=78
271680 Off ch=1 n=52 v=0
271680 On ch=1 n=59 v=96
271680 On ch=1 n=64 v=96
271920 Off ch=1 n=71 v=0
271920 Off ch=1 n=74 v=0
271920 Off ch=1 n=83 v=0
271920 On ch=1 n=69 v=69
271920 On ch=1 n=76 v=69
271920 On ch=1 n=81 v=69
271920 Off ch=1 n=59 v=0
271920 Off ch=1 n=64 v=0
271920 On ch=1 n=55 v=69
272160 Off ch=1 n=69 v=0
272160 Off ch=1 n=76 v=0
272160 Off ch=1 n=81 v=0
272160 On ch=1 n=69 v=76
272160 On ch=1 n=76 v=76
272160 On ch=1 n=81 v=76
272160 Off ch=1 n=55 v=0
272160 On ch=1 n=52 v=73
272400 Off ch=1 n=69 v=0
272400 Off ch=1 n=76 v=0
272400 Off ch=1 n=81 v=0
272400 On ch=1 n=69 v=77
272400 On ch=1 n=76 v=77
272400 On ch=1 n=81 v=77
272400 Off ch=1 n=52 v=0
272400 On ch=1 n=43 v=70
272640 Off ch=1 n=69 v=0
272640 Off ch=1 n=76 v=0
272640 Off ch=1 n=81 v=0
272640 On ch=1 n=64 v=68
272640 On ch=1 n=67 v=68
272640 On ch=1 n=76 v=68
272640 Off ch=1 n=31 v=0
272640 Off ch=1 n=43 v=0
272640 Off ch=1 n=43 v=0
272640 On ch=1 n=33 v=76
272640 On ch=1 n=45 v=76
272880 Off ch=1 n=64 v=0
272880 Off ch=1 n=67 v=0
272880 Off ch=1 n=76 v=0
272880 On ch=1 n=67 v=70
272880 On ch=1 n=76 v=70
273120 Off ch=1 n=67 v=0
273120 Off ch=1 n=76 v=0
273120 On ch=1 n=67 v=78
273120 On ch=1 n=76 v=78
273120 On ch=1 n=52 v=68
273360 Off ch=1 n=67 v=0
273360 Off ch=1 n=76 v=0
273360 On ch=1 n=67 v=78
273360 On ch=1 n=76 v=78
273360 Off ch=1 n=52 v=0
273360 On ch=1 n=57 v=78
273600 Off ch=1 n=67 v=0
273600 Off ch=1 n=76 v=0
273600 On ch=1 n=67 v=76
273600 On ch=1 n=76 v=76
273600 Off ch=1 n=57 v=0
273600 On ch=1 n=60 v=86
273600 On ch=1 n=64 v=86
273840 Off ch=1 n=67 v=0
273840 Off ch=1 n=76 v=0
273840 On ch=1 n=67 v=74
273840 On ch=1 n=76 v=74
273840 Off ch=1 n=60 v=0
273840 Off ch=1 n=64 v=0
273840 On ch=1 n=57 v=74
274080 Off ch=1 n=67 v=0
274080 Off ch=1 n=76 v=0
274080 On ch=1 n=67 v=73
274080 On ch=1 n=76 v=73
274080 Off ch=1 n=57 v=0
274080 On ch=1 n=52 v=71
274320 Off ch=1 n=67 v=0
274320 Off ch=1 n=76 v=0
274320 On ch=1 n=69 v=81
274320 On ch=1 n=71 v=81
274320 On ch=1 n=78 v=81
274320 Off ch=1 n=52 v=0
274320 On ch=1 n=35 v=65
274560 Off ch=1 n=33 v=0
274560 Off ch=1 n=45 v=0
274560 On ch=1 n=47 v=68
274800 Off ch=1 n=47 v=0
274800 On ch=1 n=47 v=68
275040 Off ch=1 n=69 v=0
275040 Off ch=1 n=71 v=0
275040 Off ch=1 n=78 v=0
275040 On ch=1 n=71 v=83
275040 On ch=1 n=83 v=83
275040 Off ch=1 n=47 v=0
275040 On ch=1 n=51 v=77
275040 On ch=1 n=54 v=77
275040 On ch=1 n=59 v=77
275280 Off ch=1 n=51 v=0
275280 Off ch=1 n=54 v=0
275280 Off ch=1 n=59 v=0
275280 On ch=1 n=59 v=67
275520 Off ch=1 n=71 v=0
275520 Off ch=1 n=83 v=0
275520 On ch=1 n=79 v=96
275520 On ch=1 n=91 v=96
275520 Off ch=1 n=59 v=0
275520 On ch=1 n=63 v=83
275520 On ch=1 n=66 v=83
275520 On ch=1 n=71 v=83
275760 Off ch=1 n=63 v=0
275760 Off ch=1 n=66 v=0
275760 Off ch=1 n=71 v=0
275760 On ch=1 n=59 v=61
276000 Off ch=1 n=79 v=0
276000 Off ch=1 n=91 v=0
276000 On ch=1 n=78 v=80
276000 On ch=1 n=90 v=80
276000 Off ch=1 n=59 v=0
276000 On ch=1 n=47 v=57
276240 Off ch=1 n=78 v=0
276240 Off ch=1 n=90 v=0
276240 On ch=1 n=79 v=83
276240 On ch=1 n=83 v=83
276240 On ch=1 n=88 v=83
276240 On ch=1 n=91 v=83
276480 Off ch=1 n=35 v=0
276480 Off ch=1 n=47 v=0
276480 On ch=1 n=28 v=68
276480 On ch=1 n=40 v=68
276960 On ch=1 n=47 v=68
277200 Off ch=1 n=47 v=0
277200 On ch=1 n=52 v=81
277440 Off ch=1 n=52 v=0
277440 On ch=1 n=55 v=81
277440 On ch=1 n=59 v=81
277680 Off ch=1 n=55 v=0
277680 Off ch=1 n=59 v=0
277680 On ch=1 n=52 v=69
277920 Off ch=1 n=52 v=0
277920 On ch=1 n=55 v=81
278160 Off ch=1 n=55 v=0
278160 On ch=1 n=59 v=86
278160 On ch=1 n=64 v=86
278400 Off ch=1 n=79 v=0
278400 Off ch=1 n=83 v=0
278400 Off ch=1 n=88 v=0
278400 Off ch=1 n=91 v=0
278400 On ch=1 n=71 v=61
278400 On ch=1 n=83 v=61
278640 Off ch=1 n=71 v=0
278640 Off ch=1 n=83 v=0
278640 On ch=1 n=71 v=74
278640 On ch=1 n=83 v=74
278880 Off ch=1 n=59 v=0
278880 Off ch=1 n=64 v=0
278880 On ch=1 n=40 v=69
279120 Off ch=1 n=71 v=0
279120 Off ch=1 n=83 v=0
279120 On ch=1 n=79 v=90
279120 On ch=1 n=91 v=90
279360 Off ch=1 n=40 v=0
279360 On ch=1 n=59 v=94
279360 On ch=1 n=64 v=94
279600 Off ch=1 n=59 v=0
279600 Off ch=1 n=64 v=0
279600 On ch=1 n=55 v=71
279840 Off ch=1 n=79 v=0
279840 Off ch=1 n=91 v=0
279840 On ch=1 n=78 v=74
279840 On ch=1 n=90 v=74
279840 Off ch=1 n=55 v=0
279840 On ch=1 n=52 v=74
280080 Off ch=1 n=78 v=0
280080 Off ch=1 n=90 v=0
280080 On ch=1 n=81 v=81
280080 On ch=1 n=84 v=81
280080 On ch=1 n=88 v=81
280080 On ch=1 n=93 v=81
280320 Off ch=1 n=28 v=0
280320 Off ch=1 n=40 v=0
280320 Off ch=1 n=52 v=0
280320 On ch=1 n=36 v=88
280320 On ch=1 n=48 v=88
280800 On ch=1 n=48 v=72
281040 Off ch=1 n=48 v=0
281040 On ch=1 n=52 v=79
281280 Off ch=1 n=52 v=0
281280 On ch=1 n=55 v=92
281280 On ch=1 n=60 v=92
281520 Off ch=1 n=55 v=0
281520 Off ch=1 n=60 v=0
281520 On ch=1 n=52 v=70
281760 Off ch=1 n=52 v=0
281760 On ch=1 n=55 v=78
282000 Off ch=1 n=55 v=0
282000 On ch=1 n=60 v=91
282000 On ch=1 n=64 v=91
282240 Off ch=1 n=81 v=0
282240 Off ch=1 n=84 v=0
282240 Off ch=1 n=88 v=0
282240 Off ch=1 n=93 v=0
282240 On ch=1 n=71 v=56
282240 On ch=1 n=83 v=56
282480 Off ch=1 n=71 v=0
282480 Off ch=1 n=83 v=0
282480 On ch=1 n=71 v=77
282480 On ch=1 n=83 v=77
282720 Off ch=1 n=60 v=0
282720 Off ch=1 n=64 v=0
282720 On ch=1 n=36 v=67
282960 Off ch=1 n=71 v=0
282960 Off ch=1 n=83 v=0
282960 On ch=1 n=79 v=92
282960 On ch=1 n=91 v=92
283200 Off ch=1 n=36 v=0
283200 On ch=1 n=60 v=95
283200 On ch=1 n=64 v=95
283440 Off ch=1 n=60 v=0
283440 Off ch=1 n=64 v=0
283440 On ch=1 n=55 v=73
283680 Off ch=1 n=79 v=0
283680 Off ch=1 n=91 v=0
283680 On ch=1 n=78 v=72
283680 On ch=1 n=90 v=72
283680 Off ch=1 n=55 v=0
283680 On ch=1 n=52 v=72
283920 Off ch=1 n=78 v=0
283920 Off ch=1 n=90 v=0
283920 On ch=1 n=74 v=62
283920 On ch=1 n=78 v=62
283920 On ch=1 n=86 v=62
284160 Off ch=1 n=36 v=0
284160 Off ch=1 n=48 v=0
284160 Off ch=1 n=52 v=0
284160 On ch=1 n=33 v=76
284160 On ch=1 n=45 v=76
284640 On ch=1 n=45 v=67
284880 Off ch=1 n=45 v=0
284880 On ch=1 n=52 v=83
285120 Off ch=1 n=74 v=0
285120 Off ch=1 n=78 v=0
285120 Off ch=1 n=86 v=0
285120 On ch=1 n=78 v=88
285120 On ch=1 n=90 v=88
285120 Off ch=1 n=52 v=0
285120 On ch=1 n=57 v=86
285120 On ch=1 n=60 v=86
285360 Off ch=1 n=57 v=0
285360 Off ch=1 n=60 v=0
285360 On ch=1 n=52 v=74
285600 Off ch=1 n=78 v=0
285600 Off ch=1 n=90 v=0
285600 On ch=1 n=78 v=79
285600 On ch=1 n=90 v=79
285600 Off ch=1 n=52 v=0
285600 On ch=1 n=57 v=79
285840 Off ch=1 n=78 v=0
285840 Off ch=1 n=90 v=0
285840 On ch=1 n=78 v=77
285840 On ch=1 n=90 v=77
285840 Off ch=1 n=57 v=0
285840 On ch=1 n=60 v=90
285840 On ch=1 n=64 v=90
286320 Off ch=1 n=78 v=0
286320 Off ch=1 n=90 v=0
286320 On ch=1 n=78 v=80
286320 On ch=1 n=90 v=80
286560 Off ch=1 n=60 v=0
286560 Off ch=1 n=64 v=0
286560 On ch=1 n=33 v=66
286800 Off ch=1 n=78 v=0
286800 Off ch=1 n=90 v=0
286800 On ch=1 n=78 v=79
286800 On ch=1 n=90 v=79
287040 Off ch=1 n=33 v=0
287040 On ch=1 n=60 v=95
287040 On ch=1 n=64 v=95
287280 Off ch=1 n=78 v=0
287280 Off ch=1 n=90 v=0
287280 On ch=1 n=76 v=76
287280 On ch=1 n=88 v=76
287280 Off ch=1 n=60 v=0
287280 Off ch=1 n=64 v=0
287280 On ch=1 n=57 v=75
287520 Off ch=1 n=57 v=0
287520 On ch=1 n=52 v=73
287760 Off ch=1 n=76 v=0
287760 Off ch=1 n=88 v=0
287760 On ch=1 n=78 v=82
287760 On ch=1 n=83 v=82
287760 On ch=1 n=90 v=82
288000 Off ch=1 n=33 v=0
288000 Off ch=1 n=45 v=0
288000 Off ch=1 n=52 v=0
288000 On ch=1 n=31 v=75
288000 On ch=1 n=43 v=75
288240 Off ch=1 n=78 v=0
288240 Off ch=1 n=83 v=0
288240 Off ch=1 n=90 v=0
288240 On ch=1 n=79 v=86
288240 On ch=1 n=91 v=86
288480 On ch=1 n=52 v=68
288720 Off ch=1 n=79 v=0
288720 Off ch=1 n=91 v=0
288720 On ch=1 n=76 v=73
288720 On ch=1 n=79 v=73
288720 On ch=1 n=83 v=73
288720 On ch=1 n=88 v=73
288720 Off ch=1 n=52 v=0
288720 On ch=1 n=55 v=80
288960 Off ch=1 n=55 v=0
288960 On ch=1 n=59 v=98
288960 On ch=1 n=64 v=98
289200 Off ch=1 n=59 v=0
289200 Off ch=1 n=64 v=0
289200 On ch=1 n=55 v=74
289440 Off ch=1 n=55 v=0
289440 On ch=1 n=52 v=74
289680 Off ch=1 n=52 v=0
289680 On ch=1 n=35 v=75
289680 On ch=1 n=47 v=75
289920 Off ch=1 n=76 v=0
289920 Off ch=1 n=79 v=0
289920 Off ch=1 n=83 v=0
289920 Off ch=1 n=88 v=0
289920 On ch=1 n=71 v=64
289920 On ch=1 n=83 v=64
289920 Off ch=1 n=31 v=0
289920 Off ch=1 n=43 v=0
290160 Off ch=1 n=71 v=0
290160 Off ch=1 n=83 v=0
290160 On ch=1 n=71 v=77
290160 On ch=1 n=83 v=77
290400 On ch=1 n=51 v=67
290400 On ch=1 n=54 v=67
290400 On ch=1 n=59 v=67
290640 Off ch=1 n=71 v=0
290640 Off ch=1 n=83 v=0
290640 On ch=1 n=79 v=87
290640 On ch=1 n=91 v=87
290880 Off ch=1 n=51 v=0
290880 Off ch=1 n=54 v=0
290880 Off ch=1 n=59 v=0
290880 On ch=1 n=63 v=95
290880 On ch=1 n=66 v=95
290880 On ch=1 n=71 v=95
291120 Off ch=1 n=63 v=0
291120 Off ch=1 n=66 v=0
291120 Off ch=1 n=71 v=0
291120 On ch=1 n=59 v=65
291360 Off ch=1 n=79 v=0
291360 Off ch=1 n=91 v=0
291360 On ch=1 n=78 v=74
291360 On ch=1 n=90 v=74
291360 Off ch=1 n=59 v=0
291360 On ch=1 n=47 v=67
291600 Off ch=1 n=78 v=0
291600 Off ch=1 n=90 v=0
291600 On ch=1 n=79 v=78
291600 On ch=1 n=83 v=78
291600 On ch=1 n=88 v=78
291600 On ch=1 n=91 v=78
291840 Off ch=1 n=35 v=0
291840 Off ch=1 n=47 v=0
291840 Off ch=1 n=47 v=0
291840 On ch=1 n=28 v=69
291840 On ch=1 n=40 v=69
292320 On ch=1 n=47 v=69
292560 Off ch=1 n=47 v=0
292560 On ch=1 n=52 v=82
292800 Off ch=1 n=52 v=0
292800 On ch=1 n=55 v=84
292800 On ch=1 n=59 v=84
293040 Off ch=1 n=55 v=0
293040 Off ch=1 n=59 v=0
293040 On ch=1 n=52 v=69
293280 Off ch=1 n=52 v=0
293280 On ch=1 n=55 v=77
293520 Off ch=1 n=55 v=0
293520 On ch=1 n=59 v=95
293520 On ch=1 n=64 v=95
293760 Off ch=1 n=79 v=0
293760 Off ch=1 n=83 v=0
293760 Off ch=1 n=88 v=0
293760 Off ch=1 n=91 v=0
293760 On ch=1 n=71 v=61
293760 On ch=1 n=83 v=61
294000 Off ch=1 n=71 v=0
294000 Off ch=1 n=83 v=0
294000 On ch=1 n=71 v=76
294000 On ch=1 n=83 v=76
294240 Off ch=1 n=59 v=0
294240 Off ch=1 n=64 v=0
294240 On ch=1 n=40 v=63
294480 Off ch=1 n=71 v=0
294480 Off ch=1 n=83 v=0
294480 On ch=1 n=79 v=87
294480 On ch=1 n=91 v=87
294720 Off ch=1 n=40 v=0
294720 On ch=1 n=59 v=97
294720 On ch=1 n=64 v=97
294960 Off ch=1 n=59 v=0
294960 Off ch=1 n=64 v=0
294960 On ch=1 n=55 v=72
295200 Off ch=1 n=79 v=0
295200 Off ch=1 n=91 v=0
295200 On ch=1 n=78 v=71
295200 On ch=1 n=90 v=71
295200 Off ch=1 n=55 v=0
295200 On ch=1 n=52 v=69
295440 Off ch=1 n=78 v=0
295440 Off ch=1 n=90 v=0
295440 On ch=1 n=81 v=82
295440 On ch=1 n=84 v=82
295440 On ch=1 n=88 v=82
295440 On ch=1 n=93 v=82
295680 Off ch=1 n=28 v=0
295680 Off ch=1 n=40 v=0
295680 Off ch=1 n=52 v=0
295680 On ch=1 n=36 v=89
295680 On ch=1 n=48 v=89
296160 On ch=1 n=48 v=69
296400 Off ch=1 n=48 v=0
296400 On ch=1 n=52 v=81
296640 Off ch=1 n=52 v=0
296640 On ch=1 n=55 v=90
296640 On ch=1 n=60 v=90
296880 Off ch=1 n=55 v=0
296880 Off ch=1 n=60 v=0
296880 On ch=1 n=52 v=70
297120 Off ch=1 n=52 v=0
297120 On ch=1 n=55 v=80
297360 Off ch=1 n=55 v=0
297360 On ch=1 n=60 v=92
297360 On ch=1 n=64 v=92
297600 Off ch=1 n=81 v=0
297600 Off ch=1 n=84 v=0
297600 Off ch=1 n=88 v=0
297600 Off ch=1 n=93 v=0
297600 On ch=1 n=71 v=64
297600 On ch=1 n=83 v=64
297840 Off ch=1 n=71 v=0
297840 Off ch=1 n=83 v=0
297840 On ch=1 n=71 v=72
297840 On ch=1 n=83 v=72
298080 Off ch=1 n=60 v=0
298080 Off ch=1 n=64 v=0
298080 On ch=1 n=36 v=71
298320 Off ch=1 n=71 v=0
298320 Off ch=1 n=83 v=0
298320 On ch=1 n=79 v=88
298320 On ch=1 n=91 v=88
298560 Off ch=1 n=36 v=0
298560 On ch=1 n=60 v=96
298560 On ch=1 n=64 v=96
298800 Off ch=1 n=60 v=0
298800 Off ch=1 n=64 v=0
298800 On ch=1 n=55 v=77
299040 Off ch=1 n=79 v=0
299040 Off ch=1 n=91 v=0
299040 On ch=1 n=78 v=71
299040 On ch=1 n=90 v=71
299040 Off ch=1 n=55 v=0
299040 On ch=1 n=52 v=74
299280 Off ch=1 n=78 v=0
299280 Off ch=1 n=90 v=0
299280 On ch=1 n=74 v=64
299280 On ch=1 n=78 v=64
299280 On ch=1 n=86 v=64
299520 Off ch=1 n=36 v=0
299520 Off ch=1 n=48 v=0
299520 Off ch=1 n=52 v=0
299520 On ch=1 n=31 v=69
299520 On ch=1 n=43 v=69
300000 On ch=1 n=43 v=61
300240 Off ch=1 n=43 v=0
300240 On ch=1 n=52 v=85
300480 Off ch=1 n=74 v=0
300480 Off ch=1 n=78 v=0
300480 Off ch=1 n=86 v=0
300480 On ch=1 n=78 v=85
300480 On ch=1 n=90 v=85
300480 Off ch=1 n=52 v=0
300480 On ch=1 n=55 v=86
300480 On ch=1 n=59 v=86
300720 Off ch=1 n=55 v=0
300720 Off ch=1 n=59 v=0
300720 On ch=1 n=52 v=66
300960 Off ch=1 n=78 v=0
300960 Off ch=1 n=90 v=0
300960 On ch=1 n=78 v=78
300960 On ch=1 n=90 v=78
300960 Off ch=1 n=52 v=0
300960 On ch=1 n=55 v=80
301200 Off ch=1 n=78 v=0
301200 Off ch=1 n=90 v=0
301200 On ch=1 n=78 v=73
301200 On ch=1 n=90 v=73
301200 Off ch=1 n=55 v=0
301200 On ch=1 n=59 v=89
301200 On ch=1 n=64 v=89
301680 Off ch=1 n=78 v=0
301680 Off ch=1 n=90 v=0
301680 On ch=1 n=78 v=75
301680 On ch=1 n=90 v=75
301920 Off ch=1 n=59 v=0
301920 Off ch=1 n=64 v=0
301920 On ch=1 n=31 v=64
302160 Off ch=1 n=78 v=0
302160 Off ch=1 n=90 v=0
302160 On ch=1 n=78 v=76
302160 On ch=1 n=90 v=76
302400 Off ch=1 n=31 v=0
302400 On ch=1 n=59 v=96
302400 On ch=1 n=64 v=96
302640 Off ch=1 n=78 v=0
302640 Off ch=1 n=90 v=0
302640 On ch=1 n=76 v=70
302640 On ch=1 n=88 v=70
302640 Off ch=1 n=59 v=0
302640 Off ch=1 n=64 v=0
302640 On ch=1 n=55 v=72
302880 Off ch=1 n=55 v=0
302880 On ch=1 n=52 v=73
303120 Off ch=1 n=76 v=0
303120 Off ch=1 n=88 v=0
303120 On ch=1 n=78 v=80
303120 On ch=1 n=83 v=80
303120 On ch=1 n=90 v=80
303360 Off ch=1 n=31 v=0
303360 Off ch=1 n=43 v=0
303360 Off ch=1 n=52 v=0
303360 On ch=1 n=33 v=79
303360 On ch=1 n=45 v=79
303600 Off ch=1 n=78 v=0
303600 Off ch=1 n=83 v=0
303600 Off ch=1 n=90 v=0
303600 On ch=1 n=79 v=83
303600 On ch=1 n=91 v=83
303840 On ch=1 n=52 v=68
304080 Off ch=1 n=79 v=0
304080 Off ch=1 n=91 v=0
304080 On ch=1 n=76 v=72
304080 On ch=1 n=81 v=72
304080 On ch=1 n=84 v=72
304080 On ch=1 n=88 v=72
304080 Off ch=1 n=52 v=0
304080 On ch=1 n=57 v=77
304320 Off ch=1 n=57 v=0
304320 On ch=1 n=60 v=92
304320 On ch=1 n=64 v=92
304560 Off ch=1 n=60 v=0
304560 Off ch=1 n=64 v=0
304560 On ch=1 n=57 v=75
304800 Off ch=1 n=57 v=0
304800 On ch=1 n=52 v=71
305040 Off ch=1 n=52 v=0
305040 On ch=1 n=35 v=72
305040 On ch=1 n=47 v=72
305280 Off ch=1 n=33 v=0
305280 Off ch=1 n=45 v=0
305520 On ch=1 n=47 v=64
305760 Off ch=1 n=47 v=0
305760 On ch=1 n=52 v=69
306000 Off ch=1 n=52 v=0
306000 On ch=1 n=54 v=77
306240 Off ch=1 n=76 v=0
306240 Off ch=1 n=81 v=0
306240 Off ch=1 n=84 v=0
306240 Off ch=1 n=88 v=0
306240 Off ch=1 n=54 v=0
306240 On ch=1 n=59 v=79
306480 On ch=1 n=63 v=67
306720 Off ch=1 n=63 v=0
306720 On ch=1 n=66 v=81
306960 Off ch=1 n=66 v=0
306960 On ch=1 n=71 v=87
307200 Off ch=1 n=71 v=0
307200 On ch=1 n=64 v=63
307200 Off ch=1 n=35 v=0
307200 Off ch=1 n=47 v=0
307200 Off ch=1 n=59 v=0
307200 On ch=1 n=36 v=69
307440 Off ch=1 n=36 v=0
307440 On ch=1 n=48 v=83
307680 Off ch=1 n=64 v=0
307680 On ch=1 n=62 v=67
307680 Off ch=1 n=48 v=0
307680 On ch=1 n=36 v=70
307920 Off ch=1 n=36 v=0
307920 On ch=1 n=48 v=84
308160 Off ch=1 n=62 v=0
308160 On ch=1 n=64 v=78
308160 Off ch=1 n=48 v=0
308160 On ch=1 n=52 v=86
308160 On ch=1 n=55 v=86
308400 On ch=1 n=48 v=79
308640 Off ch=1 n=64 v=0
308640 On ch=1 n=67 v=85
308640 Off ch=1 n=48 v=0
308640 On ch=1 n=48 v=85
308880 Off ch=1 n=67 v=0
308880 On ch=1 n=64 v=72
308880 Off ch=1 n=48 v=0
308880 On ch=1 n=36 v=75
309120 Off ch=1 n=52 v=0
309120 Off ch=1 n=55 v=0
309120 Off ch=1 n=36 v=0
309120 On ch=1 n=48 v=85
309360 Off ch=1 n=48 v=0
309360 On ch=1 n=36 v=69
309600 Off ch=1 n=64 v=0
309600 On ch=1 n=62 v=69
309600 Off ch=1 n=36 v=0
309600 On ch=1 n=36 v=70
309840 Off ch=1 n=36 v=0
309840 On ch=1 n=48 v=86
310080 Off ch=1 n=62 v=0
310080 On ch=1 n=64 v=80
310080 Off ch=1 n=48 v=0
310080 On ch=1 n=52 v=83
310080 On ch=1 n=55 v=83
310320 On ch=1 n=48 v=74
310560 Off ch=1 n=64 v=0
310560 On ch=1 n=67 v=80
310560 Off ch=1 n=48 v=0
310560 On ch=1 n=48 v=81
310800 Off ch=1 n=67 v=0
310800 On ch=1 n=69 v=85
310800 Off ch=1 n=48 v=0
310800 On ch=1 n=48 v=82
311040 Off ch=1 n=52 v=0
311040 Off ch=1 n=55 v=0
311040 Off ch=1 n=48 v=0
311040 On ch=1 n=38 v=67
311280 Off ch=1 n=38 v=0
311280 On ch=1 n=50 v=88
311520 Off ch=1 n=69 v=0
311520 On ch=1 n=67 v=74
311520 Off ch=1 n=50 v=0
311520 On ch=1 n=38 v=67
311760 Off ch=1 n=38 v=0
311760 On ch=1 n=50 v=86
312000 Off ch=1 n=67 v=0
312000 On ch=1 n=67 v=76
312000 Off ch=1 n=50 v=0
312000 On ch=1 n=54 v=81
312000 On ch=1 n=57 v=81
312240 On ch=1 n=50 v=72
312480 Off ch=1 n=67 v=0
312480 On ch=1 n=64 v=71
312480 Off ch=1 n=50 v=0
312480 On ch=1 n=50 v=79
312720 Off ch=1 n=50 v=0
312720 On ch=1 n=38 v=70
312960 Off ch=1 n=64 v=0
312960 On ch=1 n=69 v=77
312960 Off ch=1 n=54 v=0
312960 Off ch=1 n=57 v=0
312960 Off ch=1 n=38 v=0
312960 On ch=1 n=50 v=86
313200 Off ch=1 n=50 v=0
313200 On ch=1 n=38 v=69
313440 Off ch=1 n=38 v=0
313440 On ch=1 n=38 v=77
313680 Off ch=1 n=69 v=0
313680 On ch=1 n=64 v=65
313680 Off ch=1 n=38 v=0
313680 On ch=1 n=50 v=88
313920 Off ch=1 n=50 v=0
313920 On ch=1 n=54 v=84
313920 On ch=1 n=57 v=84
314160 On ch=1 n=50 v=78
314400 Off ch=1 n=50 v=0
314400 On ch=1 n=50 v=78
314640 Off ch=1 n=50 v=0
314640 On ch=1 n=50 v=86
314880 Off ch=1 n=64 v=0
314880 On ch=1 n=64 v=70
314880 Off ch=1 n=54 v=0
314880 Off ch=1 n=57 v=0
314880 Off ch=1 n=50 v=0
314880 On ch=1 n=45 v=69
315120 Off ch=1 n=45 v=0
315120 On ch=1 n=52 v=83
315360 Off ch=1 n=64 v=0
315360 On ch=1 n=62 v=74
315360 Off ch=1 n=52 v=0
315360 On ch=1 n=45 v=69
315600 Off ch=1 n=45 v=0
315600 On ch=1 n=52 v=89
315840 Off ch=1 n=62 v=0
315840 On ch=1 n=64 v=80
315840 Off ch=1 n=52 v=0
315840 On ch=1 n=57 v=88
315840 On ch=1 n=60 v=88
316080 On ch=1 n=52 v=84
316320 Off ch=1 n=64 v=0
316320 On ch=1 n=67 v=82
316320 Off ch=1 n=52 v=0
316320 On ch=1 n=52 v=88
316560 Off ch=1 n=67 v=0
316560 On ch=1 n=64 v=74
316560 Off ch=1 n=52 v=0
316560 On ch=1 n=45 v=79
316800 Off ch=1 n=57 v=0
316800 Off ch=1 n=60 v=0
316800 Off ch=1 n=45 v=0
316800 On ch=1 n=52 v=83
317040 Off ch=1 n=52 v=0
317040 On ch=1 n=45 v=73
317280 Off ch=1 n=64 v=0
317280 On ch=1 n=62 v=75
317280 Off ch=1 n=45 v=0
317280 On ch=1 n=45 v=69
317520 Off ch=1 n=45 v=0
317520 On ch=1 n=52 v=82
317760 Off ch=1 n=62 v=0
317760 On ch=1 n=64 v=78
317760 Off ch=1 n=52 v=0
317760 On ch=1 n=57 v=92
317760 On ch=1 n=60 v=92
318000 On ch=1 n=52 v=91
318240 Off ch=1 n=64 v=0
318240 On ch=1 n=67 v=81
318240 Off ch=1 n=52 v=0
318240 On ch=1 n=52 v=94
318480 Off ch=1 n=67 v=0
318480 On ch=1 n=66 v=74
318480 Off ch=1 n=52 v=0
318480 On ch=1 n=52 v=92
318720 Off ch=1 n=57 v=0
318720 Off ch=1 n=60 v=0
318720 Off ch=1 n=52 v=0
318720 On ch=1 n=43 v=69
318960 Off ch=1 n=43 v=0
318960 On ch=1 n=50 v=81
319200 Off ch=1 n=66 v=0
319200 On ch=1 n=62 v=73
319200 Off ch=1 n=50 v=0
319200 On ch=1 n=43 v=74
319440 Off ch=1 n=43 v=0
319440 On ch=1 n=50 v=81
319680 Off ch=1 n=62 v=0
319680 On ch=1 n=62 v=71
319680 Off ch=1 n=50 v=0
319680 On ch=1 n=55 v=84
319680 On ch=1 n=59 v=84
319920 On ch=1 n=50 v=74
320160 Off ch=1 n=62 v=0
320160 On ch=1 n=59 v=72
320160 Off ch=1 n=50 v=0
320160 On ch=1 n=50 v=81
320400 Off ch=1 n=50 v=0
320400 On ch=1 n=43 v=76
320640 Off ch=1 n=59 v=0
320640 On ch=1 n=66 v=90
320640 Off ch=1 n=55 v=0
320640 Off ch=1 n=59 v=0
320640 Off ch=1 n=43 v=0
320640 On ch=1 n=50 v=82
320880 Off ch=1 n=50 v=0
320880 On ch=1 n=43 v=70
321120 Off ch=1 n=43 v=0
321120 On ch=1 n=43 v=73
321360 Off ch=1 n=66 v=0
321360 On ch=1 n=62 v=69
321360 Off ch=1 n=43 v=0
321360 On ch=1 n=50 v=78
321600 Off ch=1 n=50 v=0
321600 On ch=1 n=55 v=89
321600 On ch=1 n=59 v=89
321840 On ch=1 n=50 v=84
322080 Off ch=1 n=50 v=0
322080 On ch=1 n=50 v=88
322320 Off ch=1 n=50 v=0
322320 On ch=1 n=50 v=88
322560 Off ch=1 n=62 v=0
322560 On ch=1 n=67 v=95
322560 On ch=1 n=76 v=95
322560 Off ch=1 n=55 v=0
322560 Off ch=1 n=59 v=0
322560 Off ch=1 n=50 v=0
322560 On ch=1 n=36 v=66
322800 Off ch=1 n=36 v=0
322800 On ch=1 n=48 v=81
323040 Off ch=1 n=67 v=0
323040 Off ch=1 n=76 v=0
323040 On ch=1 n=74 v=77
323040 Off ch=1 n=48 v=0
323040 On ch=1 n=36 v=69
323280 Off ch=1 n=36 v=0
323280 On ch=1 n=48 v=85
323520 Off ch=1 n=74 v=0
323520 On ch=1 n=67 v=81
323520 On ch=1 n=76 v=81
323520 Off ch=1 n=48 v=0
323520 On ch=1 n=52 v=82
323520 On ch=1 n=55 v=82
323760 On ch=1 n=48 v=78
324000 Off ch=1 n=67 v=0
324000 Off ch=1 n=76 v=0
324000 On ch=1 n=79 v=82
324000 Off ch=1 n=48 v=0
324000 On ch=1 n=48 v=81
324240 Off ch=1 n=79 v=0
324240 On ch=1 n=76 v=68
324240 Off ch=1 n=48 v=0
324240 On ch=1 n=36 v=70
324480 Off ch=1 n=52 v=0
324480 Off ch=1 n=55 v=0
324480 Off ch=1 n=36 v=0
324480 On ch=1 n=48 v=86
324720 Off ch=1 n=48 v=0
324720 On ch=1 n=36 v=70
324960 Off ch=1 n=76 v=0
324960 On ch=1 n=74 v=72
324960 Off ch=1 n=36 v=0
324960 On ch=1 n=36 v=74
325200 Off ch=1 n=36 v=0
325200 On ch=1 n=48 v=86
325440 Off ch=1 n=74 v=0
325440 On ch=1 n=67 v=80
325440 On ch=1 n=76 v=80
325440 Off ch=1 n=48 v=0
325440 On ch=1 n=52 v=87
325440 On ch=1 n=55 v=87
325680 On ch=1 n=48 v=87
325920 Off ch=1 n=67 v=0
325920 Off ch=1 n=76 v=0
325920 On ch=1 n=79 v=87
325920 Off ch=1 n=48 v=0
325920 On ch=1 n=48 v=90
326160 Off ch=1 n=79 v=0
326160 On ch=1 n=69 v=82
326160 On ch=1 n=74 v=82
326160 On ch=1 n=78 v=82
326160 On ch=1 n=81 v=82
326160 Off ch=1 n=48 v=0
326160 On ch=1 n=48 v=87
326400 Off ch=1 n=52 v=0
326400 Off ch=1 n=55 v=0
326400 Off ch=1 n=48 v=0
326400 On ch=1 n=38 v=65
326640 Off ch=1 n=38 v=0
326640 On ch=1 n=50 v=90
326880 Off ch=1 n=69 v=0
326880 Off ch=1 n=74 v=0
326880 Off ch=1 n=78 v=0
326880 Off ch=1 n=81 v=0
326880 On ch=1 n=79 v=73
326880 Off ch=1 n=50 v=0
326880 On ch=1 n=38 v=67
327120 Off ch=1 n=38 v=0
327120 On ch=1 n=50 v=82
327360 Off ch=1 n=79 v=0
327360 On ch=1 n=69 v=79
327360 On ch=1 n=79 v=79
327360 Off ch=1 n=50 v=0
327360 On ch=1 n=54 v=85
327360 On ch=1 n=57 v=85
327600 On ch=1 n=50 v=78
327840 Off ch=1 n=69 v=0
327840 Off ch=1 n=79 v=0
327840 On ch=1 n=76 v=72
327840 Off ch=1 n=50 v=0
327840 On ch=1 n=50 v=80
328080 Off ch=1 n=50 v=0
328080 On ch=1 n=38 v=72
328320 Off ch=1 n=76 v=0
328320 On ch=1 n=69 v=83
328320 On ch=1 n=74 v=83
328320 On ch=1 n=78 v=83
328320 On ch=1 n=81 v=83
328320 Off ch=1 n=54 v=0
328320 Off ch=1 n=57 v=0
328320 Off ch=1 n=38 v=0
328320 On ch=1 n=50 v=83
328560 Off ch=1 n=50 v=0
328560 On ch=1 n=38 v=68
328800 Off ch=1 n=38 v=0
328800 On ch=1 n=38 v=74
329040 Off ch=1 n=69 v=0
329040 Off ch=1 n=74 v=0
329040 Off ch=1 n=78 v=0
329040 Off ch=1 n=81 v=0
329040 On ch=1 n=76 v=70
329040 Off ch=1 n=38 v=0
329040 On ch=1 n=50 v=87
329280 Off ch=1 n=50 v=0
329280 On ch=1 n=54 v=88
329280 On ch=1 n=57 v=88
329520 On ch=1 n=50 v=83
329760 Off ch=1 n=50 v=0
329760 On ch=1 n=50 v=84
330000 Off ch=1 n=50 v=0
330000 On ch=1 n=50 v=86
330240 Off ch=1 n=76 v=0
330240 On ch=1 n=71 v=68
330240 Off ch=1 n=54 v=0
330240 Off ch=1 n=57 v=0
330240 Off ch=1 n=50 v=0
330240 On ch=1 n=43 v=67
330480 Off ch=1 n=43 v=0
330480 On ch=1 n=50 v=80
330720 Off ch=1 n=71 v=0
330720 On ch=1 n=79 v=89
330720 Off ch=1 n=50 v=0
330720 On ch=1 n=43 v=71
330960 Off ch=1 n=43 v=0
330960 On ch=1 n=50 v=83
331200 Off ch=1 n=79 v=0
331200 On ch=1 n=71 v=76
331200 On ch=1 n=78 v=76
331200 Off ch=1 n=50 v=0
331200 On ch=1 n=55 v=84
331200 On ch=1 n=59 v=84
331440 On ch=1 n=50 v=75
331680 Off ch=1 n=71 v=0
331680 Off ch=1 n=78 v=0
331680 On ch=1 n=74 v=71
331680 Off ch=1 n=50 v=0
331680 On ch=1 n=50 v=82
331920 Off ch=1 n=74 v=0
331920 On ch=1 n=76 v=80
331920 Off ch=1 n=50 v=0
331920 On ch=1 n=43 v=75
332160 Off ch=1 n=55 v=0
332160 Off ch=1 n=59 v=0
332160 Off ch=1 n=43 v=0
332160 On ch=1 n=50 v=80
332400 Off ch=1 n=50 v=0
332400 On ch=1 n=43 v=71
332640 Off ch=1 n=76 v=0
332640 On ch=1 n=79 v=81
332640 Off ch=1 n=43 v=0
332640 On ch=1 n=43 v=77
332880 Off ch=1 n=43 v=0
332880 On ch=1 n=50 v=82
333120 Off ch=1 n=79 v=0
333120 On ch=1 n=71 v=69
333120 On ch=1 n=78 v=69
333120 Off ch=1 n=50 v=0
333120 On ch=1 n=55 v=86
333120 On ch=1 n=59 v=86
333360 On ch=1 n=50 v=82
333600 Off ch=1 n=71 v=0
333600 Off ch=1 n=78 v=0
333600 On ch=1 n=76 v=67
333600 Off ch=1 n=50 v=0
333600 On ch=1 n=50 v=83
333840 Off ch=1 n=76 v=0
333840 On ch=1 n=69 v=76
333840 On ch=1 n=71 v=76
333840 On ch=1 n=78 v=76
333840 Off ch=1 n=50 v=0
333840 On ch=1 n=50 v=85
334080 Off ch=1 n=55 v=0
334080 Off ch=1 n=59 v=0
334080 Off ch=1 n=50 v=0
334080 On ch=1 n=45 v=73
334800 On ch=1 n=57 v=68
334800 On ch=1 n=59 v=68
335520 Off ch=1 n=57 v=0
335520 Off ch=1 n=59 v=0
335520 On ch=1 n=64 v=83
335520 On ch=1 n=66 v=83
336000 Off ch=1 n=69 v=0
336000 Off ch=1 n=71 v=0
336000 Off ch=1 n=78 v=0
336480 On ch=1 n=83 v=64
337200 Off ch=1 n=83 v=0
337440 Off ch=1 n=45 v=0
337440 Off ch=1 n=64 v=0
337440 Off ch=1 n=66 v=0
337680 On ch=1 n=76 v=61
338160 On ch=1 n=52 v=73
338400 Off ch=1 n=76 v=0
338400 On ch=1 n=76 v=86
338400 On ch=1 n=79 v=86
338400 On ch=1 n=83 v=86
338400 On ch=1 n=59 v=96
338400 On ch=1 n=67 v=96
338880 On ch=1 n=71 v=67
339120 Off ch=1 n=71 v=0
339120 On ch=1 n=64 v=57
339360 Off ch=1 n=76 v=0
339360 Off ch=1 n=79 v=0
339360 Off ch=1 n=83 v=0
339360 On ch=1 n=86 v=84
339360 Off ch=1 n=64 v=0
339360 On ch=1 n=66 v=76
339600 Off ch=1 n=66 v=0
339600 On ch=1 n=71 v=82
339840 Off ch=1 n=86 v=0
339840 On ch=1 n=83 v=67
339840 Off ch=1 n=71 v=0
339840 On ch=1 n=64 v=64
340080 Off ch=1 n=64 v=0
340080 On ch=1 n=66 v=81
340320 Off ch=1 n=66 v=0
340320 On ch=1 n=71 v=87
340560 Off ch=1 n=71 v=0
340560 On ch=1 n=64 v=64
340800 Off ch=1 n=83 v=0
340800 On ch=1 n=83 v=81
340800 Off ch=1 n=64 v=0
340800 On ch=1 n=66 v=75
341040 Off ch=1 n=66 v=0
341040 On ch=1 n=71 v=89
341280 Off ch=1 n=71 v=0
341280 On ch=1 n=64 v=66
341520 Off ch=1 n=83 v=0
341520 On ch=1 n=76 v=63
341520 Off ch=1 n=64 v=0
341520 On ch=1 n=66 v=75
341760 Off ch=1 n=66 v=0
341760 On ch=1 n=71 v=88
342000 Off ch=1 n=71 v=0
342000 On ch=1 n=48 v=66
342240 Off ch=1 n=76 v=0
342240 On ch=1 n=76 v=83
342240 On ch=1 n=79 v=83
342240 On ch=1 n=83 v=83
342240 Off ch=1 n=52 v=0
342240 Off ch=1 n=59 v=0
342240 Off ch=1 n=67 v=0
342240 On ch=1 n=55 v=71
342240 On ch=1 n=64 v=71
342720 On ch=1 n=71 v=61
342960 Off ch=1 n=71 v=0
342960 On ch=1 n=64 v=55
343200 Off ch=1 n=76 v=0
343200 Off ch=1 n=79 v=0
343200 Off ch=1 n=83 v=0
343200 On ch=1 n=86 v=86
343200 Off ch=1 n=64 v=0
343200 On ch=1 n=66 v=67
343440 Off ch=1 n=66 v=0
343440 On ch=1 n=71 v=70
343680 Off ch=1 n=86 v=0
343680 On ch=1 n=83 v=72
343680 Off ch=1 n=71 v=0
343680 On ch=1 n=64 v=56
343920 Off ch=1 n=64 v=0
343920 On ch=1 n=66 v=67
344160 Off ch=1 n=66 v=0
344160 On ch=1 n=71 v=74
344400 Off ch=1 n=71 v=0
344400 On ch=1 n=64 v=60
344640 Off ch=1 n=83 v=0
344640 On ch=1 n=83 v=78
344640 Off ch=1 n=64 v=0
344640 On ch=1 n=66 v=66
344880 Off ch=1 n=66 v=0
344880 On ch=1 n=71 v=72
345120 Off ch=1 n=71 v=0
345120 On ch=1 n=64 v=61
345360 Off ch=1 n=83 v=0
345360 On ch=1 n=76 v=60
345360 Off ch=1 n=64 v=0
345360 On ch=1 n=66 v=67
345600 Off ch=1 n=66 v=0
345600 On ch=1 n=71 v=77
345840 Off ch=1 n=71 v=0
345840 On ch=1 n=45 v=60
346080 Off ch=1 n=76 v=0
346080 On ch=1 n=71 v=87
346080 On ch=1 n=76 v=87
346080 On ch=1 n=83 v=87
346080 Off ch=1 n=48 v=0
346080 Off ch=1 n=55 v=0
346080 Off ch=1 n=64 v=0
346080 On ch=1 n=52 v=68
346080 On ch=1 n=60 v=68
346560 On ch=1 n=71 v=73
346800 Off ch=1 n=71 v=0
346800 On ch=1 n=64 v=59
347040 Off ch=1 n=71 v=0
347040 Off ch=1 n=76 v=0
347040 Off ch=1 n=83 v=0
347040 On ch=1 n=84 v=82
347040 Off ch=1 n=64 v=0
347040 On ch=1 n=66 v=72
347280 Off ch=1 n=66 v=0
347280 On ch=1 n=71 v=88
347520 Off ch=1 n=84 v=0
347520 On ch=1 n=83 v=73
347520 Off ch=1 n=71 v=0
347520 On ch=1 n=64 v=64
347760 Off ch=1 n=64 v=0
347760 On ch=1 n=66 v=83
348000 Off ch=1 n=66 v=0
348000 On ch=1 n=71 v=90
348240 Off ch=1 n=71 v=0
348240 On ch=1 n=64 v=61
348480 Off ch=1 n=83 v=0
348480 On ch=1 n=83 v=75
348480 Off ch=1 n=64 v=0
348480 On ch=1 n=66 v=76
348720 Off ch=1 n=66 v=0
348720 On ch=1 n=71 v=87
348960 Off ch=1 n=71 v=0
348960 On ch=1 n=64 v=65
349200 Off ch=1 n=83 v=0
349200 On ch=1 n=76 v=64
349200 Off ch=1 n=64 v=0
349200 On ch=1 n=66 v=82
349440 Off ch=1 n=66 v=0
349440 On ch=1 n=71 v=83
349680 Off ch=1 n=71 v=0
349680 On ch=1 n=43 v=64
349920 Off ch=1 n=76 v=0
349920 On ch=1 n=71 v=85
349920 On ch=1 n=76 v=85
349920 On ch=1 n=81 v=85
349920 Off ch=1 n=45 v=0
349920 Off ch=1 n=52 v=0
349920 Off ch=1 n=60 v=0
349920 On ch=1 n=52 v=77
349920 On ch=1 n=59 v=77
350400 Off ch=1 n=71 v=0
350400 Off ch=1 n=76 v=0
350400 Off ch=1 n=81 v=0
350400 On ch=1 n=79 v=72
350400 On ch=1 n=71 v=57
350640 Off ch=1 n=71 v=0
350640 On ch=1 n=64 v=53
350880 Off ch=1 n=79 v=0
350880 On ch=1 n=81 v=79
350880 Off ch=1 n=64 v=0
350880 On ch=1 n=66 v=65
351120 Off ch=1 n=66 v=0
351120 On ch=1 n=71 v=70
351360 Off ch=1 n=81 v=0
351360 On ch=1 n=79 v=73
351360 Off ch=1 n=71 v=0
351360 On ch=1 n=64 v=52
351600 Off ch=1 n=64 v=0
351600 On ch=1 n=66 v=64
351840 Off ch=1 n=79 v=0
351840 On ch=1 n=71 v=80
351840 On ch=1 n=76 v=80
351840 On ch=1 n=83 v=80
351840 Off ch=1 n=43 v=0
351840 Off ch=1 n=52 v=0
351840 Off ch=1 n=59 v=0
351840 Off ch=1 n=66 v=0
351840 On ch=1 n=47 v=67
352080 On ch=1 n=54 v=69
352320 Off ch=1 n=54 v=0
352320 On ch=1 n=59 v=80
352560 Off ch=1 n=71 v=0
352560 Off ch=1 n=76 v=0
352560 Off ch=1 n=83 v=0
352560 On ch=1 n=76 v=64
352560 Off ch=1 n=59 v=0
352560 On ch=1 n=66 v=91
352800 Off ch=1 n=66 v=0
352800 On ch=1 n=71 v=90
353040 Off ch=1 n=76 v=0
353040 On ch=1 n=76 v=72
353040 Off ch=1 n=71 v=0
353040 On ch=1 n=66 v=71
353280 Off ch=1 n=66 v=0
353280 On ch=1 n=59 v=68
353520 Off ch=1 n=59 v=0
353520 On ch=1 n=47 v=66
353760 Off ch=1 n=76 v=0
353760 On ch=1 n=71 v=92
353760 On ch=1 n=76 v=92
353760 On ch=1 n=79 v=92
353760 On ch=1 n=83 v=92
353760 Off ch=1 n=47 v=0
353760 Off ch=1 n=47 v=0
353760 On ch=1 n=52 v=83
354000 On ch=1 n=59 v=64
354240 Off ch=1 n=59 v=0
354240 On ch=1 n=67 v=91
354480 On ch=1 n=59 v=85
354720 Off ch=1 n=71 v=0
354720 Off ch=1 n=76 v=0
354720 Off ch=1 n=79 v=0
354720 Off ch=1 n=83 v=0
354720 On ch=1 n=74 v=84
354720 On ch=1 n=86 v=84
354720 Off ch=1 n=67 v=0
354720 Off ch=1 n=59 v=0
354720 On ch=1 n=64 v=80
354960 On ch=1 n=59 v=77
355200 Off ch=1 n=74 v=0
355200 Off ch=1 n=86 v=0
355200 On ch=1 n=71 v=67
355200 On ch=1 n=83 v=67
355200 Off ch=1 n=64 v=0
355200 Off ch=1 n=59 v=0
355200 On ch=1 n=67 v=94
355440 On ch=1 n=59 v=93
355680 Off ch=1 n=67 v=0
355680 Off ch=1 n=59 v=0
355680 On ch=1 n=66 v=87
355920 On ch=1 n=52 v=78
356160 Off ch=1 n=71 v=0
356160 Off ch=1 n=83 v=0
356160 On ch=1 n=71 v=72
356160 On ch=1 n=83 v=72
356160 Off ch=1 n=52 v=0
356160 On ch=1 n=55 v=85
356400 Off ch=1 n=66 v=0
356400 Off ch=1 n=55 v=0
356400 On ch=1 n=59 v=79
356640 On ch=1 n=52 v=72
356880 Off ch=1 n=71 v=0
356880 Off ch=1 n=83 v=0
356880 On ch=1 n=64 v=62
356880 On ch=1 n=76 v=62
356880 Off ch=1 n=52 v=0
356880 On ch=1 n=55 v=82
357120 Off ch=1 n=59 v=0
357120 Off ch=1 n=55 v=0
357120 On ch=1 n=59 v=81
357360 On ch=1 n=52 v=71
357600 Off ch=1 n=64 v=0
357600 Off ch=1 n=76 v=0
357600 On ch=1 n=71 v=86
357600 On ch=1 n=76 v=86
357600 On ch=1 n=79 v=86
357600 On ch=1 n=83 v=86
357600 Off ch=1 n=52 v=0
357600 Off ch=1 n=59 v=0
357600 Off ch=1 n=52 v=0
357600 On ch=1 n=48 v=77
357840 On ch=1 n=60 v=64
358080 Off ch=1 n=60 v=0
358080 On ch=1 n=67 v=88
358320 On ch=1 n=60 v=70
358560 Off ch=1 n=71 v=0
358560 Off ch=1 n=76 v=0
358560 Off ch=1 n=79 v=0
358560 Off ch=1 n=83 v=0
358560 On ch=1 n=74 v=80
358560 On ch=1 n=86 v=80
358560 Off ch=1 n=67 v=0
358560 Off ch=1 n=60 v=0
358560 On ch=1 n=64 v=81
358800 On ch=1 n=60 v=73
359040 Off ch=1 n=74 v=0
359040 Off ch=1 n=86 v=0
359040 On ch=1 n=71 v=76
359040 On ch=1 n=83 v=76
359040 Off ch=1 n=64 v=0
359040 Off ch=1 n=60 v=0
359040 On ch=1 n=67 v=89
359280 On ch=1 n=60 v=76
359520 Off ch=1 n=67 v=0
359520 Off ch=1 n=60 v=0
359520 On ch=1 n=66 v=90
359760 On ch=1 n=52 v=81
360000 Off ch=1 n=71 v=0
360000 Off ch=1 n=83 v=0
360000 On ch=1 n=71 v=73
360000 On ch=1 n=83 v=73
360000 Off ch=1 n=52 v=0
360000 On ch=1 n=55 v=93
360240 Off ch=1 n=66 v=0
360240 Off ch=1 n=55 v=0
360240 On ch=1 n=59 v=86
360480 On ch=1 n=52 v=75
360720 Off ch=1 n=71 v=0
360720 Off ch=1 n=83 v=0
360720 On ch=1 n=64 v=61
360720 On ch=1 n=76 v=61
360720 Off ch=1 n=52 v=0
360720 On ch=1 n=55 v=85
360960 Off ch=1 n=59 v=0
360960 Off ch=1 n=55 v=0
360960 On ch=1 n=59 v=79
361200 On ch=1 n=52 v=72
361440 Off ch=1 n=64 v=0
361440 Off ch=1 n=76 v=0
361440 On ch=1 n=71 v=90
361440 On ch=1 n=76 v=90
361440 On ch=1 n=79 v=90
361440 On ch=1 n=83 v=90
361440 Off ch=1 n=48 v=0
361440 Off ch=1 n=59 v=0
361440 Off ch=1 n=52 v=0
361440 On ch=1 n=43 v=74
361680 On ch=1 n=59 v=70
361920 Off ch=1 n=59 v=0
361920 On ch=1 n=67 v=88
362160 On ch=1 n=59 v=80
362400 Off ch=1 n=71 v=0
362400 Off ch=1 n=76 v=0
362400 Off ch=1 n=79 v=0
362400 Off ch=1 n=83 v=0
362400 On ch=1 n=72 v=84
362400 On ch=1 n=84 v=84
362400 Off ch=1 n=67 v=0
362400 Off ch=1 n=59 v=0
362400 On ch=1 n=64 v=82
362640 On ch=1 n=59 v=75
362880 Off ch=1 n=72 v=0
362880 Off ch=1 n=84 v=0
362880 On ch=1 n=71 v=71
362880 On ch=1 n=83 v=71
362880 Off ch=1 n=64 v=0
362880 Off ch=1 n=59 v=0
362880 On ch=1 n=67 v=87
363120 On ch=1 n=59 v=84
363360 Off ch=1 n=67 v=0
363360 Off ch=1 n=59 v=0
363360 On ch=1 n=66 v=91
363600 On ch=1 n=52 v=80
363840 Off ch=1 n=71 v=0
363840 Off ch=1 n=83 v=0
363840 On ch=1 n=71 v=79
363840 On ch=1 n=83 v=79
363840 Off ch=1 n=52 v=0
363840 On ch=1 n=55 v=95
364080 Off ch=1 n=66 v=0
364080 Off ch=1 n=55 v=0
364080 On ch=1 n=59 v=84
364320 On ch=1 n=52 v=78
364560 Off ch=1 n=71 v=0
364560 Off ch=1 n=83 v=0
364560 On ch=1 n=64 v=61
364560 On ch=1 n=76 v=61
364560 Off ch=1 n=52 v=0
364560 On ch=1 n=55 v=87
364800 Off ch=1 n=59 v=0
364800 Off ch=1 n=55 v=0
364800 On ch=1 n=59 v=83
365040 On ch=1 n=52 v=79
365280 Off ch=1 n=64 v=0
365280 Off ch=1 n=76 v=0
365280 On ch=1 n=69 v=83
365280 On ch=1 n=72 v=83
365280 On ch=1 n=76 v=83
365280 On ch=1 n=81 v=83
365280 Off ch=1 n=43 v=0
365280 Off ch=1 n=59 v=0
365280 Off ch=1 n=52 v=0
365280 On ch=1 n=45 v=75
365520 On ch=1 n=60 v=65
365760 Off ch=1 n=69 v=0
365760 Off ch=1 n=72 v=0
365760 Off ch=1 n=76 v=0
365760 Off ch=1 n=81 v=0
365760 On ch=1 n=71 v=78
365760 On ch=1 n=83 v=78
365760 Off ch=1 n=60 v=0
365760 On ch=1 n=67 v=89
366000 On ch=1 n=60 v=75
366240 Off ch=1 n=71 v=0
366240 Off ch=1 n=83 v=0
366240 On ch=1 n=69 v=80
366240 On ch=1 n=81 v=80
366240 Off ch=1 n=67 v=0
366240 Off ch=1 n=60 v=0
366240 On ch=1 n=64 v=80
366480 On ch=1 n=60 v=72
366720 Off ch=1 n=69 v=0
366720 Off ch=1 n=81 v=0
366720 On ch=1 n=71 v=79
366720 On ch=1 n=83 v=79
366720 Off ch=1 n=64 v=0
366720 Off ch=1 n=60 v=0
366720 On ch=1 n=67 v=94
366960 On ch=1 n=60 v=76
367200 Off ch=1 n=71 v=0
367200 Off ch=1 n=83 v=0
367200 On ch=1 n=69 v=72
367200 On ch=1 n=74 v=72
367200 On ch=1 n=78 v=72
367200 On ch=1 n=81 v=72
367200 Off ch=1 n=45 v=0
367200 Off ch=1 n=67 v=0
367200 Off ch=1 n=60 v=0
367200 On ch=1 n=47 v=83
367200 On ch=1 n=59 v=83
367680 On ch=1 n=59 v=69
367920 Off ch=1 n=69 v=0
367920 Off ch=1 n=74 v=0
367920 Off ch=1 n=78 v=0
367920 Off ch=1 n=81 v=0
367920 On ch=1 n=74 v=87
367920 On ch=1 n=86 v=87
367920 Off ch=1 n=59 v=0
367920 On ch=1 n=66 v=101
367920 On ch=1 n=71 v=101
368640 Off ch=1 n=74 v=0
368640 Off ch=1 n=86 v=0
368640 On ch=1 n=71 v=74
368640 On ch=1 n=83 v=74
368640 Off ch=1 n=47 v=0
368640 Off ch=1 n=59 v=0
368640 Off ch=1 n=66 v=0
368640 Off ch=1 n=71 v=0
369120 Off ch=1 n=71 v=0
369120 Off ch=1 n=83 v=0
369120 On ch=1 n=28 v=67
369120 On ch=1 n=40 v=67
369600 On ch=1 n=74 v=69
369600 On ch=1 n=79 v=69
369600 On ch=1 n=83 v=69
369600 On ch=1 n=86 v=69
369600 On ch=1 n=52 v=69
369840 Off ch=1 n=52 v=0
369840 On ch=1 n=55 v=74
370080 Off ch=1 n=74 v=0
370080 Off ch=1 n=79 v=0
370080 Off ch=1 n=83 v=0
370080 Off ch=1 n=86 v=0
370080 On ch=1 n=69 v=63
370080 On ch=1 n=81 v=63
370080 Off ch=1 n=55 v=0
370080 On ch=1 n=59 v=97
370080 On ch=1 n=64 v=97
370560 Off ch=1 n=59 v=0
370560 Off ch=1 n=64 v=0
370560 On ch=1 n=40 v=67
370800 Off ch=1 n=40 v=0
370800 On ch=1 n=52 v=83
371040 Off ch=1 n=69 v=0
371040 Off ch=1 n=81 v=0
371040 On ch=1 n=69 v=74
371040 On ch=1 n=81 v=74
371280 Off ch=1 n=52 v=0
371280 On ch=1 n=40 v=63
371520 Off ch=1 n=69 v=0
371520 Off ch=1 n=81 v=0
371520 On ch=1 n=67 v=72
371520 On ch=1 n=71 v=72
371520 On ch=1 n=74 v=72
371520 On ch=1 n=79 v=72
371520 Off ch=1 n=40 v=0
371520 On ch=1 n=52 v=83
371760 Off ch=1 n=52 v=0
371760 On ch=1 n=52 v=76
372000 Off ch=1 n=52 v=0
372000 On ch=1 n=59 v=98
372000 On ch=1 n=64 v=98
372240 Off ch=1 n=67 v=0
372240 Off ch=1 n=71 v=0
372240 Off ch=1 n=74 v=0
372240 Off ch=1 n=79 v=0
372240 On ch=1 n=76 v=68
372240 Off ch=1 n=59 v=0
372240 Off ch=1 n=64 v=0
372240 On ch=1 n=55 v=67
372480 Off ch=1 n=55 v=0
372480 On ch=1 n=52 v=70
372720 Off ch=1 n=52 v=0
372720 On ch=1 n=40 v=63
372960 Off ch=1 n=76 v=0
372960 Off ch=1 n=28 v=0
372960 Off ch=1 n=40 v=0
372960 Off ch=1 n=40 v=0
372960 On ch=1 n=24 v=68
372960 On ch=1 n=36 v=68
373440 On ch=1 n=74 v=70
373440 On ch=1 n=79 v=70
373440 On ch=1 n=83 v=70
373440 On ch=1 n=86 v=70
373440 On ch=1 n=48 v=66
373680 Off ch=1 n=48 v=0
373680 On ch=1 n=52 v=79
373920 Off ch=1 n=74 v=0
373920 Off ch=1 n=79 v=0
373920 Off ch=1 n=83 v=0
373920 Off ch=1 n=86 v=0
373920 On ch=1 n=69 v=61
373920 On ch=1 n=81 v=61
373920 Off ch=1 n=52 v=0
373920 On ch=1 n=55 v=92
373920 On ch=1 n=60 v=92
374400 Off ch=1 n=55 v=0
374400 Off ch=1 n=60 v=0
374400 On ch=1 n=36 v=71
374640 Off ch=1 n=36 v=0
374640 On ch=1 n=48 v=84
374880 Off ch=1 n=69 v=0
374880 Off ch=1 n=81 v=0
374880 On ch=1 n=69 v=75
374880 On ch=1 n=81 v=75
375120 Off ch=1 n=48 v=0
375120 On ch=1 n=36 v=66
375360 Off ch=1 n=69 v=0
375360 Off ch=1 n=81 v=0
375360 On ch=1 n=67 v=72
375360 On ch=1 n=71 v=72
375360 On ch=1 n=74 v=72
375360 On ch=1 n=79 v=72
375360 Off ch=1 n=36 v=0
375360 On ch=1 n=48 v=82
375600 Off ch=1 n=48 v=0
375600 On ch=1 n=48 v=76
375840 Off ch=1 n=48 v=0
375840 On ch=1 n=55 v=100
375840 On ch=1 n=60 v=100
376080 Off ch=1 n=67 v=0
376080 Off ch=1 n=71 v=0
376080 Off ch=1 n=74 v=0
376080 Off ch=1 n=79 v=0
376080 On ch=1 n=64 v=70
376080 On ch=1 n=76 v=70
376080 Off ch=1 n=55 v=0
376080 Off ch=1 n=60 v=0
376080 On ch=1 n=52 v=77
376320 Off ch=1 n=52 v=0
376320 On ch=1 n=48 v=74
376560 Off ch=1 n=48 v=0
376560 On ch=1 n=36 v=64
376800 Off ch=1 n=64 v=0
376800 Off ch=1 n=76 v=0
376800 Off ch=1 n=24 v=0
376800 Off ch=1 n=36 v=0
376800 Off ch=1 n=36 v=0
376800 On ch=1 n=33 v=85
376800 On ch=1 n=45 v=85
377280 On ch=1 n=74 v=69
377280 On ch=1 n=79 v=69
377280 On ch=1 n=83 v=69
377280 On ch=1 n=86 v=69
377280 On ch=1 n=45 v=66
377520 Off ch=1 n=45 v=0
377520 On ch=1 n=48 v=87
377760 Off ch=1 n=74 v=0
377760 Off ch=1 n=79 v=0
377760 Off ch=1 n=83 v=0
377760 Off ch=1 n=86 v=0
377760 On ch=1 n=69 v=64
377760 On ch=1 n=81 v=64
377760 Off ch=1 n=48 v=0
377760 On ch=1 n=52 v=81
377760 On ch=1 n=57 v=81
378240 Off ch=1 n=52 v=0
378240 Off ch=1 n=57 v=0
378240 On ch=1 n=33 v=69
378480 Off ch=1 n=33 v=0
378480 On ch=1 n=45 v=84
378720 Off ch=1 n=69 v=0
378720 Off ch=1 n=81 v=0
378720 On ch=1 n=69 v=72
378720 On ch=1 n=81 v=72
378960 Off ch=1 n=45 v=0
378960 On ch=1 n=33 v=64
379200 Off ch=1 n=69 v=0
379200 Off ch=1 n=81 v=0
379200 On ch=1 n=67 v=73
379200 On ch=1 n=72 v=73
379200 On ch=1 n=76 v=73
379200 On ch=1 n=79 v=73
379200 Off ch=1 n=33 v=0
379200 On ch=1 n=45 v=89
379440 Off ch=1 n=45 v=0
379440 On ch=1 n=45 v=77
379680 Off ch=1 n=45 v=0
379680 On ch=1 n=52 v=90
379680 On ch=1 n=57 v=90
379920 Off ch=1 n=67 v=0
379920 Off ch=1 n=72 v=0
379920 Off ch=1 n=76 v=0
379920 Off ch=1 n=79 v=0
379920 On ch=1 n=64 v=70
379920 On ch=1 n=76 v=70
379920 Off ch=1 n=52 v=0
379920 Off ch=1 n=57 v=0
379920 On ch=1 n=48 v=68
380160 Off ch=1 n=48 v=0
380160 On ch=1 n=45 v=76
380400 Off ch=1 n=45 v=0
380400 On ch=1 n=33 v=69
380640 Off ch=1 n=64 v=0
380640 Off ch=1 n=76 v=0
380640 On ch=1 n=64 v=73
380640 On ch=1 n=67 v=73
380640 On ch=1 n=71 v=73
380640 On ch=1 n=76 v=73
380640 Off ch=1 n=33 v=0
380640 Off ch=1 n=45 v=0
380640 Off ch=1 n=33 v=0
380640 On ch=1 n=31 v=73
380640 On ch=1 n=43 v=73
381120 Off ch=1 n=64 v=0
381120 Off ch=1 n=67 v=0
381120 Off ch=1 n=71 v=0
381120 Off ch=1 n=76 v=0
381120 On ch=1 n=67 v=86
381120 On ch=1 n=79 v=86
381360 On ch=1 n=52 v=65
381600 Off ch=1 n=67 v=0
381600 Off ch=1 n=79 v=0
381600 On ch=1 n=64 v=73
381600 On ch=1 n=76 v=73
381600 Off ch=1 n=52 v=0
381600 On ch=1 n=55 v=80
381600 On ch=1 n=59 v=80
382080 Off ch=1 n=64 v=0
382080 Off ch=1 n=76 v=0
382080 On ch=1 n=67 v=80
382080 On ch=1 n=79 v=80
382320 Off ch=1 n=55 v=0
382320 Off ch=1 n=59 v=0
382320 On ch=1 n=52 v=70
382560 Off ch=1 n=67 v=0
382560 Off ch=1 n=79 v=0
382560 On ch=1 n=66 v=73
382560 On ch=1 n=71 v=73
382560 On ch=1 n=76 v=73
382560 On ch=1 n=78 v=73
382560 Off ch=1 n=31 v=0
382560 Off ch=1 n=43 v=0
382560 Off ch=1 n=52 v=0
382560 On ch=1 n=35 v=79
382560 On ch=1 n=47 v=79
383040 On ch=1 n=47 v=65
383280 Off ch=1 n=66 v=0
383280 Off ch=1 n=71 v=0
383280 Off ch=1 n=76 v=0
383280 Off ch=1 n=78 v=0
383280 On ch=1 n=71 v=60
383280 Off ch=1 n=47 v=0
383280 On ch=1 n=54 v=84
383520 Off ch=1 n=54 v=0
383520 On ch=1 n=59 v=82
383760 Off ch=1 n=71 v=0
383760 On ch=1 n=71 v=70
383760 Off ch=1 n=59 v=0
383760 On ch=1 n=54 v=71
384000 Off ch=1 n=54 v=0
384000 On ch=1 n=47 v=67
384240 Off ch=1 n=47 v=0
384240 On ch=1 n=35 v=64
384480 Off ch=1 n=71 v=0
384480 Off ch=1 n=35 v=0
384480 Off ch=1 n=47 v=0
384480 Off ch=1 n=35 v=0
384480 On ch=1 n=28 v=73
384480 On ch=1 n=40 v=73
384960 On ch=1 n=74 v=72
384960 On ch=1 n=79 v=72
384960 On ch=1 n=83 v=72
384960 On ch=1 n=86 v=72
384960 On ch=1 n=52 v=73
385200 Off ch=1 n=52 v=0
385200 On ch=1 n=55 v=80
385440 Off ch=1 n=74 v=0
385440 Off ch=1 n=79 v=0
385440 Off ch=1 n=83 v=0
385440 Off ch=1 n=86 v=0
385440 On ch=1 n=69 v=67
385440 On ch=1 n=81 v=67
385440 Off ch=1 n=55 v=0
385440 On ch=1 n=59 v=94
385440 On ch=1 n=64 v=94
385920 Off ch=1 n=59 v=0
385920 Off ch=1 n=64 v=0
385920 On ch=1 n=40 v=65
386160 Off ch=1 n=40 v=0
386160 On ch=1 n=52 v=89
386400 Off ch=1 n=69 v=0
386400 Off ch=1 n=81 v=0
386400 On ch=1 n=69 v=74
386400 On ch=1 n=81 v=74
386640 Off ch=1 n=52 v=0
386640 On ch=1 n=40 v=65
386880 Off ch=1 n=69 v=0
386880 Off ch=1 n=81 v=0
386880 On ch=1 n=67 v=68
386880 On ch=1 n=71 v=68
386880 On ch=1 n=74 v=68
386880 On ch=1 n=79 v=68
386880 Off ch=1 n=40 v=0
386880 On ch=1 n=52 v=84
387120 Off ch=1 n=52 v=0
387120 On ch=1 n=52 v=76
387360 Off ch=1 n=52 v=0
387360 On ch=1 n=59 v=95
387360 On ch=1 n=64 v=95
387600 Off ch=1 n=67 v=0
387600 Off ch=1 n=71 v=0
387600 Off ch=1 n=74 v=0
387600 Off ch=1 n=79 v=0
387600 On ch=1 n=76 v=68
387600 Off ch=1 n=59 v=0
387600 Off ch=1 n=64 v=0
387600 On ch=1 n=55 v=69
387840 Off ch=1 n=55 v=0
387840 On ch=1 n=52 v=72
388080 Off ch=1 n=52 v=0
388080 On ch=1 n=40 v=67
388320 Off ch=1 n=76 v=0
388320 Off ch=1 n=28 v=0
388320 Off ch=1 n=40 v=0
388320 Off ch=1 n=40 v=0
388320 On ch=1 n=24 v=72
388320 On ch=1 n=36 v=72
388800 On ch=1 n=74 v=70
388800 On ch=1 n=79 v=70
388800 On ch=1 n=83 v=70
388800 On ch=1 n=86 v=70
388800 On ch=1 n=48 v=67
389040 Off ch=1 n=48 v=0
389040 On ch=1 n=52 v=81
389280 Off ch=1 n=74 v=0
389280 Off ch=1 n=79 v=0
389280 Off ch=1 n=83 v=0
389280 Off ch=1 n=86 v=0
389280 On ch=1 n=69 v=58
389280 On ch=1 n=81 v=58
389280 Off ch=1 n=52 v=0
389280 On ch=1 n=55 v=86
389280 On ch=1 n=60 v=86
389760 Off ch=1 n=55 v=0
389760 Off ch=1 n=60 v=0
389760 On ch=1 n=36 v=70
390000 Off ch=1 n=36 v=0
390000 On ch=1 n=48 v=86
390240 Off ch=1 n=69 v=0
390240 Off ch=1 n=81 v=0
390240 On ch=1 n=69 v=78
390240 On ch=1 n=81 v=78
390480 Off ch=1 n=48 v=0
390480 On ch=1 n=36 v=66
390720 Off ch=1 n=69 v=0
390720 Off ch=1 n=81 v=0
390720 On ch=1 n=67 v=69
390720 On ch=1 n=71 v=69
390720 On ch=1 n=74 v=69
390720 On ch=1 n=79 v=69
390720 Off ch=1 n=36 v=0
390720 On ch=1 n=48 v=85
390960 Off ch=1 n=48 v=0
390960 On ch=1 n=48 v=80
391200 Off ch=1 n=48 v=0
391200 On ch=1 n=55 v=95
391200 On ch=1 n=60 v=95
391440 Off ch=1 n=67 v=0
391440 Off ch=1 n=71 v=0
391440 Off ch=1 n=74 v=0
391440 Off ch=1 n=79 v=0
391440 On ch=1 n=64 v=74
391440 On ch=1 n=76 v=74
391440 Off ch=1 n=55 v=0
391440 Off ch=1 n=60 v=0
391440 On ch=1 n=52 v=77
391680 Off ch=1 n=52 v=0
391680 On ch=1 n=48 v=68
391920 Off ch=1 n=48 v=0
391920 On ch=1 n=36 v=65
392160 Off ch=1 n=64 v=0
392160 Off ch=1 n=76 v=0
392160 Off ch=1 n=24 v=0
392160 Off ch=1 n=36 v=0
392160 Off ch=1 n=36 v=0
392160 On ch=1 n=31 v=83
392160 On ch=1 n=43 v=83
392640 On ch=1 n=74 v=70
392640 On ch=1 n=79 v=70
392640 On ch=1 n=83 v=70
392640 On ch=1 n=86 v=70
392640 On ch=1 n=43 v=66
392880 Off ch=1 n=43 v=0
392880 On ch=1 n=52 v=85
393120 Off ch=1 n=74 v=0
393120 Off ch=1 n=79 v=0
393120 Off ch=1 n=83 v=0
393120 Off ch=1 n=86 v=0
393120 On ch=1 n=69 v=66
393120 On ch=1 n=81 v=66
393120 Off ch=1 n=52 v=0
393120 On ch=1 n=55 v=85
393120 On ch=1 n=59 v=85
393600 Off ch=1 n=55 v=0
393600 Off ch=1 n=59 v=0
393600 On ch=1 n=31 v=69
393840 Off ch=1 n=31 v=0
393840 On ch=1 n=43 v=82
394080 Off ch=1 n=69 v=0
394080 Off ch=1 n=81 v=0
394080 On ch=1 n=69 v=72
394080 On ch=1 n=81 v=72
394320 Off ch=1 n=43 v=0
394320 On ch=1 n=31 v=66
394560 Off ch=1 n=69 v=0
394560 Off ch=1 n=81 v=0
394560 On ch=1 n=67 v=73
394560 On ch=1 n=71 v=73
394560 On ch=1 n=74 v=73
394560 On ch=1 n=79 v=73
394560 Off ch=1 n=31 v=0
394560 On ch=1 n=43 v=85
394800 Off ch=1 n=43 v=0
394800 On ch=1 n=43 v=78
395040 Off ch=1 n=43 v=0
395040 On ch=1 n=55 v=86
395040 On ch=1 n=59 v=86
395280 Off ch=1 n=67 v=0
395280 Off ch=1 n=71 v=0
395280 Off ch=1 n=74 v=0
395280 Off ch=1 n=79 v=0
395280 On ch=1 n=64 v=69
395280 On ch=1 n=76 v=69
395280 Off ch=1 n=55 v=0
395280 Off ch=1 n=59 v=0
395280 On ch=1 n=52 v=72
395520 Off ch=1 n=52 v=0
395520 On ch=1 n=43 v=67
395760 Off ch=1 n=43 v=0
395760 On ch=1 n=31 v=67
396000 Off ch=1 n=64 v=0
396000 Off ch=1 n=76 v=0
396000 On ch=1 n=64 v=74
396000 On ch=1 n=69 v=74
396000 On ch=1 n=72 v=74
396000 On ch=1 n=76 v=74
396000 Off ch=1 n=31 v=0
396000 Off ch=1 n=43 v=0
396000 Off ch=1 n=31 v=0
396000 On ch=1 n=33 v=77
396000 On ch=1 n=45 v=77
396480 Off ch=1 n=64 v=0
396480 Off ch=1 n=69 v=0
396480 Off ch=1 n=72 v=0
396480 Off ch=1 n=76 v=0
396480 On ch=1 n=67 v=82
396480 On ch=1 n=79 v=82
396720 On ch=1 n=52 v=71
396960 Off ch=1 n=67 v=0
396960 Off ch=1 n=79 v=0
396960 On ch=1 n=64 v=67
396960 On ch=1 n=76 v=67
396960 Off ch=1 n=52 v=0
396960 On ch=1 n=57 v=89
396960 On ch=1 n=60 v=89
397440 Off ch=1 n=64 v=0
397440 Off ch=1 n=76 v=0
397440 On ch=1 n=67 v=81
397440 On ch=1 n=79 v=81
397680 Off ch=1 n=57 v=0
397680 Off ch=1 n=60 v=0
397680 On ch=1 n=52 v=72
397920 Off ch=1 n=67 v=0
397920 Off ch=1 n=79 v=0
397920 On ch=1 n=66 v=73
397920 On ch=1 n=71 v=73
397920 On ch=1 n=76 v=73
397920 On ch=1 n=78 v=73
397920 Off ch=1 n=33 v=0
397920 Off ch=1 n=45 v=0
397920 Off ch=1 n=52 v=0
397920 On ch=1 n=35 v=71
398160 On ch=1 n=47 v=72
398400 Off ch=1 n=47 v=0
398400 On ch=1 n=47 v=74
398640 Off ch=1 n=66 v=0
398640 Off ch=1 n=71 v=0
398640 Off ch=1 n=76 v=0
398640 Off ch=1 n=78 v=0
398640 On ch=1 n=71 v=62
398640 Off ch=1 n=47 v=0
398640 On ch=1 n=54 v=87
398640 On ch=1 n=59 v=87
398880 Off ch=1 n=54 v=0
398880 Off ch=1 n=59 v=0
398880 On ch=1 n=47 v=63
399120 Off ch=1 n=47 v=0
399120 On ch=1 n=42 v=78
399120 On ch=1 n=47 v=78
399360 Off ch=1 n=71 v=0
399360 On ch=1 n=71 v=76
399360 Off ch=1 n=42 v=0
399360 Off ch=1 n=47 v=0
399360 On ch=1 n=35 v=62
399600 Off ch=1 n=35 v=0
399600 On ch=1 n=35 v=77
399840 Off ch=1 n=35 v=0
399840 Off ch=1 n=35 v=0
399840 On ch=1 n=28 v=82
399840 On ch=1 n=40 v=82
400320 On ch=1 n=55 v=74
400800 Off ch=1 n=55 v=0
400800 On ch=1 n=52 v=73
401280 Off ch=1 n=52 v=0
401280 On ch=1 n=55 v=77
401760 Off ch=1 n=55 v=0
401760 On ch=1 n=54 v=73
402480 Off ch=1 n=54 v=0
402480 On ch=1 n=47 v=72
403200 Off ch=1 n=47 v=0
403200 On ch=1 n=47 v=73
403680 Off ch=1 n=71 v=0
403680 On ch=1 n=52 v=72
403680 Off ch=1 n=28 v=0
403680 Off ch=1 n=40 v=0
403680 Off ch=1 n=47 v=0
403680 On ch=1 n=24 v=75
403680 On ch=1 n=36 v=75
404160 Off ch=1 n=52 v=0
404160 On ch=1 n=55 v=76
404640 Off ch=1 n=55 v=0
404640 On ch=1 n=52 v=73
405120 Off ch=1 n=52 v=0
405120 On ch=1 n=55 v=77
405600 Off ch=1 n=55 v=0
405600 On ch=1 n=54 v=73
406320 Off ch=1 n=54 v=0
406320 On ch=1 n=47 v=71
407040 Off ch=1 n=47 v=0
407040 On ch=1 n=47 v=74
407520 Off ch=1 n=47 v=0
407520 On ch=1 n=52 v=82
407520 Off ch=1 n=24 v=0
407520 Off ch=1 n=36 v=0
407520 On ch=1 n=21 v=78
407520 On ch=1 n=33 v=78
408000 Off ch=1 n=52 v=0
408000 On ch=1 n=55 v=78
408480 Off ch=1 n=55 v=0
408480 On ch=1 n=52 v=77
408960 Off ch=1 n=52 v=0
408960 On ch=1 n=55 v=79
409440 Off ch=1 n=55 v=0
409440 On ch=1 n=54 v=72
410160 Off ch=1 n=54 v=0
410160 On ch=1 n=47 v=71
410880 Off ch=1 n=47 v=0
410880 On ch=1 n=47 v=78
411360 Off ch=1 n=47 v=0
411360 On ch=1 n=52 v=81
411360 Off ch=1 n=21 v=0
411360 Off ch=1 n=33 v=0
411360 On ch=1 n=23 v=80
411360 On ch=1 n=35 v=80
411840 Off ch=1 n=52 v=0
411840 On ch=1 n=55 v=85
412320 Off ch=1 n=55 v=0
412320 On ch=1 n=52 v=71
412800 Off ch=1 n=52 v=0
412800 On ch=1 n=55 v=83
413280 Off ch=1 n=55 v=0
413280 On ch=1 n=51 v=70
413280 On ch=1 n=54 v=70
414000 Off ch=1 n=51 v=0
414000 Off ch=1 n=54 v=0
414000 On ch=1 n=47 v=64
414720 Off ch=1 n=47 v=0
414720 On ch=1 n=47 v=81
415200 Off ch=1 n=47 v=0
415200 On ch=1 n=64 v=98
415200 Off ch=1 n=23 v=0
415200 Off ch=1 n=35 v=0
415200 On ch=1 n=52 v=81
415200 On ch=1 n=28 v=73
415200 On ch=1 n=40 v=73
415680 Off ch=1 n=52 v=0
415680 On ch=1 n=55 v=80
415920 Off ch=1 n=64 v=0
415920 On ch=1 n=66 v=81
416160 Off ch=1 n=55 v=0
416160 On ch=1 n=52 v=76
416640 Off ch=1 n=66 v=0
416640 On ch=1 n=64 v=73
416640 Off ch=1 n=52 v=0
416640 On ch=1 n=55 v=78
417120 Off ch=1 n=55 v=0
417120 On ch=1 n=54 v=72
417360 Off ch=1 n=64 v=0
417360 On ch=1 n=71 v=92
417840 Off ch=1 n=54 v=0
417840 On ch=1 n=47 v=71
418080 Off ch=1 n=71 v=0
418080 On ch=1 n=66 v=66
418560 Off ch=1 n=66 v=0
418560 On ch=1 n=64 v=73
418560 Off ch=1 n=47 v=0
418560 On ch=1 n=47 v=76
419040 Off ch=1 n=64 v=0
419040 On ch=1 n=64 v=76
419040 Off ch=1 n=28 v=0
419040 Off ch=1 n=40 v=0
419040 Off ch=1 n=47 v=0
419040 On ch=1 n=52 v=80
419040 On ch=1 n=31 v=82
419040 On ch=1 n=43 v=82
419520 Off ch=1 n=52 v=0
419520 On ch=1 n=55 v=76
419760 Off ch=1 n=64 v=0
419760 On ch=1 n=66 v=80
420000 Off ch=1 n=55 v=0
420000 On ch=1 n=52 v=75
420480 Off ch=1 n=66 v=0
420480 On ch=1 n=64 v=73
420480 Off ch=1 n=52 v=0
420480 On ch=1 n=55 v=77
420960 Off ch=1 n=55 v=0
420960 On ch=1 n=54 v=72
421200 Off ch=1 n=64 v=0
421200 On ch=1 n=71 v=90
421680 Off ch=1 n=54 v=0
421680 On ch=1 n=47 v=66
421920 Off ch=1 n=71 v=0
421920 On ch=1 n=66 v=71
422400 Off ch=1 n=66 v=0
422400 On ch=1 n=64 v=70
422400 Off ch=1 n=47 v=0
422400 On ch=1 n=47 v=76
422880 Off ch=1 n=64 v=0
422880 On ch=1 n=64 v=77
422880 Off ch=1 n=31 v=0
422880 Off ch=1 n=43 v=0
422880 Off ch=1 n=47 v=0
422880 On ch=1 n=52 v=82
422880 On ch=1 n=33 v=83
422880 On ch=1 n=45 v=83
423360 Off ch=1 n=52 v=0
423360 On ch=1 n=55 v=80
423600 Off ch=1 n=64 v=0
423600 On ch=1 n=66 v=80
423840 Off ch=1 n=55 v=0
423840 On ch=1 n=52 v=76
424320 Off ch=1 n=66 v=0
424320 On ch=1 n=64 v=73
424320 Off ch=1 n=52 v=0
424320 On ch=1 n=55 v=82
424800 Off ch=1 n=55 v=0
424800 On ch=1 n=54 v=77
425040 Off ch=1 n=64 v=0
425040 On ch=1 n=71 v=91
425520 Off ch=1 n=54 v=0
425520 On ch=1 n=47 v=72
425760 Off ch=1 n=71 v=0
425760 On ch=1 n=66 v=66
426240 Off ch=1 n=66 v=0
426240 On ch=1 n=64 v=71
426240 Off ch=1 n=47 v=0
426240 On ch=1 n=47 v=73
426720 Off ch=1 n=64 v=0
426720 On ch=1 n=64 v=75
426720 Off ch=1 n=33 v=0
426720 Off ch=1 n=45 v=0
426720 Off ch=1 n=47 v=0
426720 On ch=1 n=52 v=81
426720 On ch=1 n=36 v=78
426720 On ch=1 n=48 v=78
427200 Off ch=1 n=52 v=0
427200 On ch=1 n=55 v=78
427440 Off ch=1 n=64 v=0
427440 On ch=1 n=66 v=84
427680 Off ch=1 n=55 v=0
427680 On ch=1 n=52 v=74
428160 Off ch=1 n=66 v=0
428160 On ch=1 n=64 v=69
428160 Off ch=1 n=52 v=0
428160 On ch=1 n=55 v=75
428640 Off ch=1 n=36 v=0
428640 Off ch=1 n=48 v=0
428640 Off ch=1 n=55 v=0
428640 On ch=1 n=54 v=77
428640 On ch=1 n=35 v=74
428640 On ch=1 n=47 v=74
428880 Off ch=1 n=64 v=0
428880 On ch=1 n=71 v=93
429360 Off ch=1 n=54 v=0
429360 On ch=1 n=47 v=68
429600 Off ch=1 n=71 v=0
429600 On ch=1 n=66 v=67
430080 Off ch=1 n=66 v=0
430080 On ch=1 n=64 v=74
430080 Off ch=1 n=47 v=0
430080 On ch=1 n=47 v=74
430560 Off ch=1 n=35 v=0
430560 Off ch=1 n=47 v=0
430560 Off ch=1 n=47 v=0
430560 On ch=1 n=28 v=70
430560 On ch=1 n=40 v=70
434201 On ch=1 n=52 v=85
434258 On ch=1 n=55 v=85
434321 On ch=1 n=59 v=85
434400 Off ch=1 n=64 v=0
434400 On ch=1 n=69 v=103
434400 On ch=1 n=74 v=103
434400 On ch=1 n=78 v=103
434400 On ch=1 n=81 v=103
434400 On ch=1 n=66 v=85
442080 Off ch=1 n=69 v=0
442080 Off ch=1 n=74 v=0
442080 Off ch=1 n=78 v=0
442080 Off ch=1 n=81 v=0
442080 Off ch=1 n=28 v=0
442080 Off ch=1 n=40 v=0
442080 Off ch=1 n=52 v=0
442080 Off ch=1 n=55 v=0
442080 Off ch=1 n=59 v=0
442080 Off ch=1 n=66 v=0
442081 Meta TrkEnd
TrkEnd