MFile 1 2 480
MTrk
0 TimeSig 4/4 24 8
0 KeySig 252 major
0 Par ch=1 c=121 v=0
0 PrCh ch=1 p=0
0 Par ch=1 c=7 v=100
0 Par ch=1 c=10 v=64
0 Par ch=1 c=91 v=0
0 Par ch=1 c=93 v=0
0 Meta 0x21 00
1920 Tempo 461538
2160 On ch=1 n=87 v=64
2399 On ch=1 n=87 v=0
2400 On ch=1 n=84 v=64
2639 On ch=1 n=84 v=0
2640 On ch=1 n=84 v=64
2879 On ch=1 n=84 v=0
2880 On ch=1 n=82 v=64
3119 On ch=1 n=82 v=0
3120 On ch=1 n=80 v=64
3359 On ch=1 n=80 v=0
3360 On ch=1 n=79 v=64
3599 On ch=1 n=79 v=0
3600 On ch=1 n=75 v=64
3719 On ch=1 n=75 v=0
3720 On ch=1 n=75 v=64
3839 On ch=1 n=75 v=0
3840 On ch=1 n=77 v=64
4079 On ch=1 n=77 v=0
4080 On ch=1 n=80 v=64
4319 On ch=1 n=80 v=0
4320 On ch=1 n=87 v=64
4559 On ch=1 n=87 v=0
4560 On ch=1 n=84 v=64
5039 On ch=1 n=84 v=0
5040 On ch=1 n=84 v=64
5279 On ch=1 n=84 v=0
5280 On ch=1 n=85 v=64
5519 On ch=1 n=85 v=0
5520 On ch=1 n=87 v=64
5759 On ch=1 n=87 v=0
6000 On ch=1 n=81 v=64
6066 On ch=1 n=81 v=0
6067 On ch=1 n=82 v=64
6238 On ch=1 n=82 v=0
6240 On ch=1 n=83 v=64
6299 On ch=1 n=83 v=0
6300 On ch=1 n=82 v=64
6479 On ch=1 n=82 v=0
6480 On ch=1 n=80 v=64
6719 On ch=1 n=80 v=0
6960 On ch=1 n=80 v=64
7199 On ch=1 n=80 v=0
7200 On ch=1 n=79 v=64
7439 On ch=1 n=79 v=0
7440 On ch=1 n=77 v=64
7667 On ch=1 n=77 v=0
7680 On ch=1 n=105 v=96
7715 On ch=1 n=105 v=0
7719 On ch=1 n=104 v=96
7754 On ch=1 n=104 v=0
7759 On ch=1 n=103 v=96
7794 On ch=1 n=103 v=0
7800 On ch=1 n=102 v=96
7835 On ch=1 n=102 v=0
7839 On ch=1 n=101 v=96
7874 On ch=1 n=101 v=0
7879 On ch=1 n=100 v=96
7914 On ch=1 n=100 v=0
7920 On ch=1 n=99 v=96
7955 On ch=1 n=99 v=0
7959 On ch=1 n=98 v=96
7994 On ch=1 n=98 v=0
7999 On ch=1 n=97 v=96
8034 On ch=1 n=97 v=0
8040 On ch=1 n=96 v=96
8075 On ch=1 n=96 v=0
8079 On ch=1 n=95 v=96
8114 On ch=1 n=95 v=0
8119 On ch=1 n=94 v=96
8154 On ch=1 n=94 v=0
8160 On ch=1 n=93 v=96
8195 On ch=1 n=93 v=0
8199 On ch=1 n=92 v=96
8234 On ch=1 n=92 v=0
8239 On ch=1 n=91 v=96
8274 On ch=1 n=91 v=0
8280 On ch=1 n=90 v=96
8315 On ch=1 n=90 v=0
8319 On ch=1 n=89 v=96
8354 On ch=1 n=89 v=0
8359 On ch=1 n=88 v=96
8394 On ch=1 n=88 v=0
8400 On ch=1 n=87 v=96
8435 On ch=1 n=87 v=0
8439 On ch=1 n=86 v=96
8474 On ch=1 n=86 v=0
8479 On ch=1 n=85 v=96
8514 On ch=1 n=85 v=0
8520 On ch=1 n=84 v=96
8555 On ch=1 n=84 v=0
8559 On ch=1 n=83 v=96
8594 On ch=1 n=83 v=0
8599 On ch=1 n=82 v=96
8634 On ch=1 n=82 v=0
9600 KeySig 255 major
9600 Tempo 400000
9840 On ch=1 n=76 v=80
9919 On ch=1 n=76 v=0
9920 On ch=1 n=77 v=80
9999 On ch=1 n=77 v=0
10000 On ch=1 n=79 v=80
10079 On ch=1 n=79 v=0
10080 On ch=1 n=84 v=80
10319 On ch=1 n=84 v=0
10320 On ch=1 n=79 v=80
10559 On ch=1 n=79 v=0
10560 On ch=1 n=76 v=80
11039 On ch=1 n=76 v=0
11040 On ch=1 n=77 v=80
11519 On ch=1 n=77 v=0
11760 On ch=1 n=76 v=80
11839 On ch=1 n=76 v=0
11840 On ch=1 n=77 v=80
11919 On ch=1 n=77 v=0
11920 On ch=1 n=79 v=80
11999 On ch=1 n=79 v=0
12000 On ch=1 n=84 v=80
12239 On ch=1 n=84 v=0
12240 On ch=1 n=86 v=80
12479 On ch=1 n=86 v=0
12480 On ch=1 n=88 v=80
12839 On ch=1 n=88 v=0
12840 On ch=1 n=89 v=80
13199 On ch=1 n=89 v=0
13200 On ch=1 n=81 v=80
13427 On ch=1 n=81 v=0
13680 On ch=1 n=76 v=80
13759 On ch=1 n=76 v=0
13760 On ch=1 n=77 v=80
13839 On ch=1 n=77 v=0
13840 On ch=1 n=79 v=80
13919 On ch=1 n=79 v=0
13920 On ch=1 n=84 v=80
14159 On ch=1 n=84 v=0
14160 On ch=1 n=79 v=80
14399 On ch=1 n=79 v=0
14400 On ch=1 n=76 v=80
14879 On ch=1 n=76 v=0
14880 On ch=1 n=77 v=80
15359 On ch=1 n=77 v=0
15360 On ch=1 n=76 v=80
15439 On ch=1 n=76 v=0
15440 On ch=1 n=77 v=80
15519 On ch=1 n=77 v=0
15520 On ch=1 n=79 v=80
15599 On ch=1 n=79 v=0
15600 On ch=1 n=84 v=80
15679 On ch=1 n=84 v=0
15680 On ch=1 n=88 v=80
15759 On ch=1 n=88 v=0
15760 On ch=1 n=89 v=80
15839 On ch=1 n=89 v=0
15840 On ch=1 n=91 v=80
15919 On ch=1 n=91 v=0
15920 On ch=1 n=96 v=80
15999 On ch=1 n=96 v=0
16000 On ch=1 n=100 v=80
16079 On ch=1 n=100 v=0
16080 On ch=1 n=101 v=80
16199 On ch=1 n=101 v=0
16200 On ch=1 n=103 v=80
16319 On ch=1 n=103 v=0
16320 On ch=1 n=100 v=80
16320 On ch=1 n=108 v=80
16559 On ch=1 n=100 v=0
16559 On ch=1 n=108 v=0
16560 On ch=1 n=100 v=80
16560 On ch=1 n=108 v=80
16787 On ch=1 n=100 v=0
16787 On ch=1 n=108 v=0
16800 On ch=1 n=74 v=80
17027 On ch=1 n=74 v=0
17040 On ch=1 n=72 v=80
17267 On ch=1 n=72 v=0
17280 On ch=1 n=74 v=96
17280 On ch=1 n=86 v=96
17639 On ch=1 n=74 v=0
17639 On ch=1 n=86 v=0
17640 On ch=1 n=72 v=96
17640 On ch=1 n=84 v=96
17999 On ch=1 n=72 v=0
17999 On ch=1 n=84 v=0
18000 On ch=1 n=69 v=96
18000 On ch=1 n=81 v=96
18239 On ch=1 n=69 v=0
18239 On ch=1 n=81 v=0
18240 On ch=1 n=64 v=96
18240 On ch=1 n=76 v=96
18719 On ch=1 n=64 v=0
18719 On ch=1 n=76 v=0
18720 On ch=1 n=65 v=96
18720 On ch=1 n=77 v=96
19199 On ch=1 n=65 v=0
19199 On ch=1 n=77 v=0
19200 On ch=1 n=74 v=96
19200 On ch=1 n=79 v=96
19200 On ch=1 n=86 v=96
19559 On ch=1 n=74 v=0
19559 On ch=1 n=79 v=0
19559 On ch=1 n=86 v=0
19560 On ch=1 n=72 v=96
19560 On ch=1 n=84 v=96
19919 On ch=1 n=72 v=0
19919 On ch=1 n=84 v=0
19920 On ch=1 n=74 v=96
19920 On ch=1 n=79 v=96
19920 On ch=1 n=86 v=96
20159 On ch=1 n=74 v=0
20159 On ch=1 n=79 v=0
20159 On ch=1 n=86 v=0
20160 On ch=1 n=76 v=96
20160 On ch=1 n=88 v=96
20519 On ch=1 n=76 v=0
20519 On ch=1 n=88 v=0
20520 On ch=1 n=77 v=96
20520 On ch=1 n=89 v=96
20879 On ch=1 n=77 v=0
20879 On ch=1 n=89 v=0
20880 On ch=1 n=69 v=96
20880 On ch=1 n=81 v=96
21119 On ch=1 n=69 v=0
21119 On ch=1 n=81 v=0
21120 On ch=1 n=74 v=96
21120 On ch=1 n=79 v=96
21120 On ch=1 n=86 v=96
21479 On ch=1 n=74 v=0
21479 On ch=1 n=79 v=0
21479 On ch=1 n=86 v=0
21480 On ch=1 n=72 v=96
21480 On ch=1 n=84 v=96
21839 On ch=1 n=72 v=0
21839 On ch=1 n=84 v=0
21840 On ch=1 n=69 v=96
21840 On ch=1 n=81 v=96
22079 On ch=1 n=69 v=0
22079 On ch=1 n=81 v=0
22080 On ch=1 n=64 v=96
22080 On ch=1 n=76 v=96
22559 On ch=1 n=64 v=0
22559 On ch=1 n=76 v=0
22560 On ch=1 n=65 v=96
22560 On ch=1 n=77 v=96
23039 On ch=1 n=65 v=0
23039 On ch=1 n=77 v=0
23040 On ch=1 n=74 v=96
23040 On ch=1 n=79 v=96
23040 On ch=1 n=86 v=96
23399 On ch=1 n=74 v=0
23399 On ch=1 n=79 v=0
23399 On ch=1 n=86 v=0
23400 On ch=1 n=72 v=96
23400 On ch=1 n=84 v=96
23759 On ch=1 n=72 v=0
23759 On ch=1 n=84 v=0
23760 On ch=1 n=74 v=96
23760 On ch=1 n=79 v=96
23760 On ch=1 n=86 v=96
23999 On ch=1 n=74 v=0
23999 On ch=1 n=79 v=0
23999 On ch=1 n=86 v=0
24000 On ch=1 n=76 v=96
24000 On ch=1 n=88 v=96
24359 On ch=1 n=76 v=0
24359 On ch=1 n=88 v=0
24360 On ch=1 n=77 v=96
24360 On ch=1 n=89 v=96
24719 On ch=1 n=77 v=0
24719 On ch=1 n=89 v=0
24720 On ch=1 n=79 v=96
24720 On ch=1 n=91 v=96
24947 On ch=1 n=79 v=0
24947 On ch=1 n=91 v=0
24960 On ch=1 n=62 v=96
24960 On ch=1 n=74 v=96
25319 On ch=1 n=62 v=0
25319 On ch=1 n=74 v=0
25320 On ch=1 n=60 v=96
25320 On ch=1 n=72 v=96
25679 On ch=1 n=60 v=0
25679 On ch=1 n=72 v=0
25680 On ch=1 n=57 v=96
25680 On ch=1 n=69 v=96
25919 On ch=1 n=57 v=0
25919 On ch=1 n=69 v=0
25920 On ch=1 n=52 v=96
25920 On ch=1 n=64 v=96
26399 On ch=1 n=52 v=0
26399 On ch=1 n=64 v=0
26400 On ch=1 n=53 v=96
26400 On ch=1 n=65 v=96
26879 On ch=1 n=53 v=0
26879 On ch=1 n=65 v=0
26880 On ch=1 n=62 v=96
26880 On ch=1 n=67 v=96
26880 On ch=1 n=74 v=96
27239 On ch=1 n=62 v=0
27239 On ch=1 n=67 v=0
27239 On ch=1 n=74 v=0
27240 On ch=1 n=60 v=96
27240 On ch=1 n=72 v=96
27599 On ch=1 n=60 v=0
27599 On ch=1 n=72 v=0
27600 On ch=1 n=62 v=96
27600 On ch=1 n=74 v=96
27839 On ch=1 n=62 v=0
27839 On ch=1 n=74 v=0
27840 On ch=1 n=64 v=96
27840 On ch=1 n=76 v=96
28199 On ch=1 n=64 v=0
28199 On ch=1 n=76 v=0
28200 On ch=1 n=65 v=96
28200 On ch=1 n=77 v=96
28559 On ch=1 n=65 v=0
28559 On ch=1 n=77 v=0
28560 On ch=1 n=57 v=96
28560 On ch=1 n=69 v=96
28799 On ch=1 n=57 v=0
28799 On ch=1 n=69 v=0
28800 On ch=1 n=62 v=96
28800 On ch=1 n=67 v=96
28800 On ch=1 n=74 v=96
29159 On ch=1 n=62 v=0
29159 On ch=1 n=67 v=0
29159 On ch=1 n=74 v=0
29160 On ch=1 n=60 v=96
29160 On ch=1 n=72 v=96
29519 On ch=1 n=60 v=0
29519 On ch=1 n=72 v=0
29520 On ch=1 n=57 v=96
29520 On ch=1 n=69 v=96
29759 On ch=1 n=57 v=0
29759 On ch=1 n=69 v=0
29760 On ch=1 n=52 v=96
29760 On ch=1 n=64 v=96
30239 On ch=1 n=52 v=0
30239 On ch=1 n=64 v=0
30240 On ch=1 n=53 v=96
30240 On ch=1 n=65 v=96
30240 On ch=1 n=53 v=0
30719 On ch=1 n=65 v=0
30720 On ch=1 n=62 v=96
30720 On ch=1 n=67 v=96
30720 On ch=1 n=74 v=96
31079 On ch=1 n=62 v=0
31079 On ch=1 n=67 v=0
31079 On ch=1 n=74 v=0
31080 On ch=1 n=60 v=96
31080 On ch=1 n=72 v=96
31439 On ch=1 n=60 v=0
31439 On ch=1 n=72 v=0
31440 On ch=1 n=62 v=96
31440 On ch=1 n=67 v=96
31440 On ch=1 n=74 v=96
31679 On ch=1 n=62 v=0
31679 On ch=1 n=67 v=0
31679 On ch=1 n=74 v=0
31680 On ch=1 n=64 v=96
31680 On ch=1 n=76 v=96
32039 On ch=1 n=64 v=0
32039 On ch=1 n=76 v=0
32040 On ch=1 n=65 v=96
32040 On ch=1 n=77 v=96
32399 On ch=1 n=65 v=0
32399 On ch=1 n=77 v=0
32400 On ch=1 n=67 v=96
32400 On ch=1 n=79 v=96
32627 On ch=1 n=67 v=0
32627 On ch=1 n=79 v=0
32640 On ch=1 n=62 v=80
33119 On ch=1 n=62 v=0
33120 On ch=1 n=74 v=80
33599 On ch=1 n=74 v=0
33600 On ch=1 n=72 v=80
34079 On ch=1 n=72 v=0
34080 On ch=1 n=69 v=80
34559 On ch=1 n=69 v=0
34560 On ch=1 n=67 v=80
34919 On ch=1 n=67 v=0
34920 On ch=1 n=65 v=80
35279 On ch=1 n=65 v=0
35280 On ch=1 n=64 v=80
35999 On ch=1 n=64 v=0
36000 On ch=1 n=76 v=80
36076 On ch=1 n=76 v=0
36077 On ch=1 n=77 v=80
36958 On ch=1 n=77 v=0
36960 On ch=1 n=76 v=80
37439 On ch=1 n=76 v=0
37440 On ch=1 n=69 v=80
37895 On ch=1 n=69 v=0
38400 On ch=1 n=67 v=80
38741 On ch=1 n=67 v=0
38760 On ch=1 n=72 v=80
39101 On ch=1 n=72 v=0
39120 On ch=1 n=70 v=80
39347 On ch=1 n=70 v=0
39360 On ch=1 n=69 v=80
39701 On ch=1 n=69 v=0
39720 On ch=1 n=64 v=80
40061 On ch=1 n=64 v=0
40080 On ch=1 n=62 v=80
40307 On ch=1 n=62 v=0
40320 On ch=1 n=62 v=80
40799 On ch=1 n=62 v=0
40800 On ch=1 n=74 v=80
41279 On ch=1 n=74 v=0
41280 On ch=1 n=72 v=80
41759 On ch=1 n=72 v=0
41760 On ch=1 n=68 v=80
42239 On ch=1 n=68 v=0
42240 On ch=1 n=67 v=80
42599 On ch=1 n=67 v=0
42600 On ch=1 n=65 v=80
42959 On ch=1 n=65 v=0
42960 On ch=1 n=64 v=80
43679 On ch=1 n=64 v=0
43680 On ch=1 n=62 v=80
43680 On ch=1 n=65 v=80
44135 On ch=1 n=62 v=0
44135 On ch=1 n=65 v=0
44160 TimeSig 15/16 24 8
45960 TimeSig 3/4 24 8
45960 On ch=1 n=72 v=80
45960 On ch=1 n=76 v=80
46280 On ch=1 n=72 v=0
46280 On ch=1 n=76 v=0
46440 On ch=1 n=74 v=80
46760 On ch=1 n=74 v=0
46920 On ch=1 n=76 v=80
47240 On ch=1 n=76 v=0
47400 TimeSig 7/16 24 8
47400 On ch=1 n=74 v=80
47627 On ch=1 n=74 v=0
47640 On ch=1 n=76 v=80
47867 On ch=1 n=76 v=0
47880 On ch=1 n=77 v=80
47993 On ch=1 n=77 v=0
48000 On ch=1 n=79 v=80
48227 On ch=1 n=79 v=0
48240 TimeSig 6/8 24 8
48240 Tempo 888889
48240 On ch=1 n=69 v=80
48240 On ch=1 n=74 v=80
48240 On ch=1 n=81 v=80
48479 On ch=1 n=69 v=0
48479 On ch=1 n=74 v=0
48479 On ch=1 n=81 v=0
48480 Tempo 869565
48480 On ch=1 n=67 v=80
48480 On ch=1 n=79 v=80
48719 On ch=1 n=67 v=0
48719 On ch=1 n=79 v=0
48720 On ch=1 n=72 v=80
48720 On ch=1 n=77 v=80
48720 On ch=1 n=84 v=80
48879 On ch=1 n=72 v=0
48879 On ch=1 n=77 v=0
48879 On ch=1 n=84 v=0
48880 On ch=1 n=67 v=80
48960 Tempo 851064
48960 On ch=1 n=72 v=80
48960 On ch=1 n=79 v=80
49439 On ch=1 n=67 v=0
49439 On ch=1 n=72 v=0
49439 On ch=1 n=79 v=0
49440 Tempo 816327
49440 On ch=1 n=65 v=80
49440 On ch=1 n=77 v=80
49599 On ch=1 n=65 v=0
49599 On ch=1 n=77 v=0
49600 On ch=1 n=67 v=80
49600 On ch=1 n=79 v=80
49679 On ch=1 n=67 v=0
49679 On ch=1 n=79 v=0
49680 Tempo 800000
49680 On ch=1 n=69 v=80
49680 On ch=1 n=81 v=80
49919 On ch=1 n=69 v=0
49919 On ch=1 n=81 v=0
49920 On ch=1 n=67 v=80
49920 On ch=1 n=79 v=80
50079 On ch=1 n=67 v=0
50079 On ch=1 n=79 v=0
50080 Tempo 784314
50080 On ch=1 n=67 v=80
50080 On ch=1 n=79 v=80
50319 On ch=1 n=67 v=0
50319 On ch=1 n=79 v=0
50320 On ch=1 n=65 v=80
50320 On ch=1 n=77 v=80
50399 On ch=1 n=65 v=0
50399 On ch=1 n=77 v=0
50400 On ch=1 n=60 v=80
50400 On ch=1 n=72 v=80
50592 On ch=1 n=60 v=0
51083 On ch=1 n=72 v=0
51120 On ch=1 n=62 v=80
51120 On ch=1 n=67 v=80
51120 On ch=1 n=74 v=80
51347 On ch=1 n=62 v=0
51347 On ch=1 n=67 v=0
51347 On ch=1 n=74 v=0
51360 On ch=1 n=64 v=80
51360 On ch=1 n=76 v=80
51473 On ch=1 n=64 v=0
51473 On ch=1 n=76 v=0
51480 On ch=1 n=65 v=80
51480 On ch=1 n=77 v=80
51707 On ch=1 n=65 v=0
51707 On ch=1 n=77 v=0
51840 On ch=1 n=64 v=80
51840 On ch=1 n=76 v=80
52067 On ch=1 n=64 v=0
52067 On ch=1 n=76 v=0
52080 On ch=1 n=62 v=80
52080 On ch=1 n=74 v=80
52307 On ch=1 n=62 v=0
52307 On ch=1 n=74 v=0
52320 On ch=1 n=60 v=80
52320 On ch=1 n=72 v=80
52433 On ch=1 n=60 v=0
52433 On ch=1 n=72 v=0
52440 On ch=1 n=60 v=80
52477 On ch=1 n=60 v=0
52480 On ch=1 n=64 v=80
52517 On ch=1 n=64 v=0
52520 On ch=1 n=65 v=80
52557 On ch=1 n=65 v=0
52560 TimeSig 9/8 24 8
52560 Tempo 500000
52560 On ch=1 n=60 v=96
52560 On ch=1 n=64 v=96
52560 On ch=1 n=69 v=96
52799 On ch=1 n=60 v=0
52799 On ch=1 n=64 v=0
52799 On ch=1 n=69 v=0
52800 On ch=1 n=60 v=96
52800 On ch=1 n=64 v=96
52800 On ch=1 n=69 v=96
53039 On ch=1 n=60 v=0
53039 On ch=1 n=64 v=0
53039 On ch=1 n=69 v=0
53040 On ch=1 n=60 v=96
53040 On ch=1 n=64 v=96
53040 On ch=1 n=69 v=96
53279 On ch=1 n=60 v=0
53279 On ch=1 n=64 v=0
53279 On ch=1 n=69 v=0
53280 On ch=1 n=60 v=80
53340 On ch=1 n=60 v=0
53345 On ch=1 n=64 v=80
53405 On ch=1 n=64 v=0
53410 On ch=1 n=65 v=80
53470 On ch=1 n=65 v=0
53475 On ch=1 n=67 v=80
53535 On ch=1 n=67 v=0
53540 On ch=1 n=72 v=80
53600 On ch=1 n=72 v=0
53605 On ch=1 n=76 v=80
53665 On ch=1 n=76 v=0
53670 On ch=1 n=77 v=80
53730 On ch=1 n=77 v=0
53735 On ch=1 n=79 v=80
53795 On ch=1 n=79 v=0
53800 On ch=1 n=84 v=80
53860 On ch=1 n=84 v=0
53865 On ch=1 n=88 v=80
53925 On ch=1 n=88 v=0
53930 On ch=1 n=89 v=80
53990 On ch=1 n=89 v=0
54000 On ch=1 n=84 v=96
54000 On ch=1 n=88 v=96
54000 On ch=1 n=91 v=96
54239 On ch=1 n=84 v=0
54239 On ch=1 n=88 v=0
54239 On ch=1 n=91 v=0
54240 On ch=1 n=84 v=96
54240 On ch=1 n=88 v=96
54240 On ch=1 n=91 v=96
54479 On ch=1 n=84 v=0
54479 On ch=1 n=88 v=0
54479 On ch=1 n=91 v=0
54480 Tempo 1000000
54480 On ch=1 n=84 v=96
54480 On ch=1 n=88 v=96
54480 On ch=1 n=91 v=96
54719 On ch=1 n=84 v=0
54719 On ch=1 n=88 v=0
54719 On ch=1 n=91 v=0
54720 TimeSig 12/8 24 8
54720 Tempo 333333
54720 On ch=1 n=77 v=115
54720 On ch=1 n=81 v=115
54720 On ch=1 n=84 v=115
54720 On ch=1 n=89 v=115
55439 On ch=1 n=77 v=0
55439 On ch=1 n=81 v=0
55439 On ch=1 n=84 v=0
55439 On ch=1 n=89 v=0
55440 On ch=1 n=76 v=96
55440 On ch=1 n=81 v=96
55440 On ch=1 n=84 v=96
55440 On ch=1 n=88 v=96
56159 On ch=1 n=76 v=0
56159 On ch=1 n=81 v=0
56159 On ch=1 n=84 v=0
56159 On ch=1 n=88 v=0
56160 On ch=1 n=72 v=96
56160 On ch=1 n=77 v=96
56160 On ch=1 n=84 v=96
56639 On ch=1 n=72 v=0
56639 On ch=1 n=77 v=0
56639 On ch=1 n=84 v=0
56640 On ch=1 n=60 v=96
56640 On ch=1 n=64 v=96
56640 On ch=1 n=67 v=96
56879 On ch=1 n=60 v=0
56879 On ch=1 n=64 v=0
56879 On ch=1 n=67 v=0
57360 On ch=1 n=77 v=96
57360 On ch=1 n=81 v=96
57599 On ch=1 n=77 v=0
57599 On ch=1 n=81 v=0
57600 On ch=1 n=77 v=96
57600 On ch=1 n=81 v=96
57600 On ch=1 n=84 v=96
57600 On ch=1 n=89 v=96
58319 On ch=1 n=77 v=0
58319 On ch=1 n=81 v=0
58319 On ch=1 n=84 v=0
58319 On ch=1 n=89 v=0
58320 On ch=1 n=76 v=96
58320 On ch=1 n=81 v=96
58320 On ch=1 n=84 v=96
58320 On ch=1 n=88 v=96
59039 On ch=1 n=76 v=0
59039 On ch=1 n=81 v=0
59039 On ch=1 n=84 v=0
59039 On ch=1 n=88 v=0
59040 On ch=1 n=67 v=96
59040 On ch=1 n=72 v=96
59040 On ch=1 n=79 v=96
59519 On ch=1 n=67 v=0
59519 On ch=1 n=72 v=0
59519 On ch=1 n=79 v=0
59520 On ch=1 n=65 v=96
59520 On ch=1 n=77 v=96
60239 On ch=1 n=65 v=0
60239 On ch=1 n=77 v=0
60240 On ch=1 n=65 v=96
60479 On ch=1 n=65 v=0
60480 On ch=1 n=65 v=96
60480 On ch=1 n=69 v=96
60480 On ch=1 n=72 v=96
60480 On ch=1 n=77 v=96
60719 On ch=1 n=65 v=0
60719 On ch=1 n=69 v=0
60719 On ch=1 n=72 v=0
60719 On ch=1 n=77 v=0
60720 On ch=1 n=67 v=96
60720 On ch=1 n=79 v=96
60959 On ch=1 n=67 v=0
60959 On ch=1 n=79 v=0
60960 On ch=1 n=69 v=96
60960 On ch=1 n=81 v=96
61199 On ch=1 n=69 v=0
61199 On ch=1 n=81 v=0
61200 On ch=1 n=72 v=96
61200 On ch=1 n=84 v=96
61679 On ch=1 n=72 v=0
61679 On ch=1 n=84 v=0
61680 On ch=1 n=69 v=96
61680 On ch=1 n=81 v=96
61919 On ch=1 n=69 v=0
61919 On ch=1 n=81 v=0
61920 On ch=1 n=67 v=96
61920 On ch=1 n=79 v=96
62399 On ch=1 n=67 v=0
62399 On ch=1 n=79 v=0
62400 On ch=1 n=65 v=96
62400 On ch=1 n=77 v=96
62879 On ch=1 n=65 v=0
62879 On ch=1 n=77 v=0
62880 On ch=1 n=65 v=96
62880 On ch=1 n=77 v=96
63119 On ch=1 n=65 v=0
63119 On ch=1 n=77 v=0
63120 On ch=1 n=74 v=96
63120 On ch=1 n=86 v=96
63359 On ch=1 n=74 v=0
63359 On ch=1 n=86 v=0
63360 On ch=1 n=72 v=96
63360 On ch=1 n=84 v=96
64799 On ch=1 n=72 v=0
64799 On ch=1 n=84 v=0
64800 On ch=1 n=77 v=96
64800 On ch=1 n=81 v=96
64800 On ch=1 n=84 v=96
64800 On ch=1 n=89 v=96
66167 On ch=1 n=77 v=0
66167 On ch=1 n=81 v=0
66167 On ch=1 n=84 v=0
66167 On ch=1 n=89 v=0
66240 On ch=1 n=77 v=96
66240 On ch=1 n=81 v=96
66240 On ch=1 n=84 v=96
66240 On ch=1 n=89 v=96
66959 On ch=1 n=77 v=0
66959 On ch=1 n=81 v=0
66959 On ch=1 n=84 v=0
66959 On ch=1 n=89 v=0
66960 On ch=1 n=76 v=96
66960 On ch=1 n=81 v=96
66960 On ch=1 n=84 v=96
66960 On ch=1 n=88 v=96
67679 On ch=1 n=76 v=0
67679 On ch=1 n=81 v=0
67679 On ch=1 n=84 v=0
67679 On ch=1 n=88 v=0
67680 On ch=1 n=72 v=96
67680 On ch=1 n=77 v=96
67680 On ch=1 n=84 v=96
68159 On ch=1 n=72 v=0
68159 On ch=1 n=77 v=0
68159 On ch=1 n=84 v=0
68160 On ch=1 n=60 v=96
68160 On ch=1 n=64 v=96
68160 On ch=1 n=67 v=96
68399 On ch=1 n=60 v=0
68399 On ch=1 n=64 v=0
68399 On ch=1 n=67 v=0
68880 On ch=1 n=77 v=96
69119 On ch=1 n=77 v=0
69120 On ch=1 n=77 v=96
69120 On ch=1 n=81 v=96
69120 On ch=1 n=84 v=96
69120 On ch=1 n=89 v=96
69839 On ch=1 n=77 v=0
69839 On ch=1 n=81 v=0
69839 On ch=1 n=84 v=0
69839 On ch=1 n=89 v=0
69840 On ch=1 n=76 v=96
69840 On ch=1 n=81 v=96
69840 On ch=1 n=84 v=96
69840 On ch=1 n=88 v=96
70319 On ch=1 n=76 v=0
70319 On ch=1 n=81 v=0
70319 On ch=1 n=84 v=0
70319 On ch=1 n=88 v=0
70320 On ch=1 n=77 v=96
70320 On ch=1 n=89 v=96
70559 On ch=1 n=77 v=0
70559 On ch=1 n=89 v=0
70560 On ch=1 n=67 v=96
70560 On ch=1 n=79 v=96
71039 On ch=1 n=67 v=0
71039 On ch=1 n=79 v=0
71040 On ch=1 n=65 v=96
71040 On ch=1 n=77 v=96
71759 On ch=1 n=65 v=0
71759 On ch=1 n=77 v=0
71760 On ch=1 n=65 v=96
71999 On ch=1 n=65 v=0
72000 On ch=1 n=65 v=96
72000 On ch=1 n=77 v=96
72239 On ch=1 n=65 v=0
72239 On ch=1 n=77 v=0
72240 On ch=1 n=62 v=96
72240 On ch=1 n=74 v=96
72479 On ch=1 n=62 v=0
72479 On ch=1 n=74 v=0
72480 On ch=1 n=69 v=96
72480 On ch=1 n=81 v=96
72719 On ch=1 n=69 v=0
72719 On ch=1 n=81 v=0
72720 On ch=1 n=67 v=96
72720 On ch=1 n=79 v=96
73199 On ch=1 n=67 v=0
73199 On ch=1 n=79 v=0
73200 On ch=1 n=69 v=96
73200 On ch=1 n=81 v=96
73439 On ch=1 n=69 v=0
73439 On ch=1 n=81 v=0
73440 On ch=1 n=72 v=96
73440 On ch=1 n=84 v=96
73919 On ch=1 n=72 v=0
73919 On ch=1 n=84 v=0
73920 On ch=1 n=69 v=96
73920 On ch=1 n=81 v=96
74399 On ch=1 n=69 v=0
74399 On ch=1 n=81 v=0
74400 On ch=1 n=67 v=96
74400 On ch=1 n=79 v=96
74639 On ch=1 n=67 v=0
74639 On ch=1 n=79 v=0
74640 On ch=1 n=65 v=96
74640 On ch=1 n=77 v=96
74879 On ch=1 n=65 v=0
74879 On ch=1 n=77 v=0
74880 On ch=1 n=65 v=96
74880 On ch=1 n=77 v=96
75563 On ch=1 n=65 v=0
75563 On ch=1 n=77 v=0
75600 On ch=1 n=60 v=96
75600 On ch=1 n=64 v=96
76055 On ch=1 n=60 v=0
76055 On ch=1 n=64 v=0
76080 On ch=1 n=60 v=96
76080 On ch=1 n=69 v=96
76307 On ch=1 n=60 v=0
76307 On ch=1 n=69 v=0
76320 On ch=1 n=60 v=96
76320 On ch=1 n=64 v=96
76320 On ch=1 n=67 v=96
77459 On ch=1 n=60 v=0
77459 On ch=1 n=64 v=0
77459 On ch=1 n=67 v=0
77520 On ch=1 n=77 v=96
77747 On ch=1 n=77 v=0
77760 On ch=1 n=77 v=115
77760 On ch=1 n=81 v=115
77760 On ch=1 n=84 v=115
77760 On ch=1 n=89 v=115
78479 On ch=1 n=77 v=0
78479 On ch=1 n=81 v=0
78479 On ch=1 n=84 v=0
78479 On ch=1 n=89 v=0
78480 On ch=1 n=76 v=96
78480 On ch=1 n=81 v=96
78480 On ch=1 n=84 v=96
78480 On ch=1 n=88 v=96
79199 On ch=1 n=76 v=0
79199 On ch=1 n=81 v=0
79199 On ch=1 n=84 v=0
79199 On ch=1 n=88 v=0
79200 On ch=1 n=72 v=96
79200 On ch=1 n=77 v=96
79200 On ch=1 n=84 v=96
79679 On ch=1 n=72 v=0
79679 On ch=1 n=77 v=0
79679 On ch=1 n=84 v=0
79680 On ch=1 n=60 v=96
79680 On ch=1 n=64 v=96
79680 On ch=1 n=67 v=96
79919 On ch=1 n=60 v=0
79919 On ch=1 n=64 v=0
79919 On ch=1 n=67 v=0
80400 On ch=1 n=77 v=96
80400 On ch=1 n=81 v=96
80639 On ch=1 n=77 v=0
80639 On ch=1 n=81 v=0
80640 On ch=1 n=77 v=96
80640 On ch=1 n=81 v=96
80640 On ch=1 n=84 v=96
80640 On ch=1 n=89 v=96
81359 On ch=1 n=77 v=0
81359 On ch=1 n=81 v=0
81359 On ch=1 n=84 v=0
81359 On ch=1 n=89 v=0
81360 On ch=1 n=76 v=96
81360 On ch=1 n=81 v=96
81360 On ch=1 n=84 v=96
81360 On ch=1 n=88 v=96
82079 On ch=1 n=76 v=0
82079 On ch=1 n=81 v=0
82079 On ch=1 n=84 v=0
82079 On ch=1 n=88 v=0
82080 On ch=1 n=69 v=96
82080 On ch=1 n=74 v=96
82080 On ch=1 n=81 v=96
82319 On ch=1 n=69 v=0
82319 On ch=1 n=74 v=0
82319 On ch=1 n=81 v=0
82320 On ch=1 n=67 v=96
82320 On ch=1 n=79 v=96
82559 On ch=1 n=67 v=0
82559 On ch=1 n=79 v=0
82560 On ch=1 n=65 v=96
82560 On ch=1 n=77 v=96
83279 On ch=1 n=65 v=0
83279 On ch=1 n=77 v=0
83280 On ch=1 n=65 v=96
83519 On ch=1 n=65 v=0
83520 On ch=1 n=65 v=96
83520 On ch=1 n=69 v=96
83520 On ch=1 n=72 v=96
83520 On ch=1 n=77 v=96
83759 On ch=1 n=65 v=0
83759 On ch=1 n=69 v=0
83759 On ch=1 n=72 v=0
83759 On ch=1 n=77 v=0
83760 On ch=1 n=67 v=96
83760 On ch=1 n=79 v=96
83999 On ch=1 n=67 v=0
83999 On ch=1 n=79 v=0
84000 On ch=1 n=69 v=96
84000 On ch=1 n=81 v=96
84239 On ch=1 n=69 v=0
84239 On ch=1 n=81 v=0
84240 On ch=1 n=72 v=96
84240 On ch=1 n=84 v=96
84719 On ch=1 n=72 v=0
84719 On ch=1 n=84 v=0
84720 On ch=1 n=69 v=96
84720 On ch=1 n=81 v=96
84959 On ch=1 n=69 v=0
84959 On ch=1 n=81 v=0
84960 On ch=1 n=67 v=96
84960 On ch=1 n=79 v=96
85919 On ch=1 n=67 v=0
85919 On ch=1 n=79 v=0
85920 On ch=1 n=74 v=96
85920 On ch=1 n=86 v=96
86399 On ch=1 n=74 v=0
86399 On ch=1 n=86 v=0
86400 On ch=1 n=72 v=96
86400 On ch=1 n=84 v=96
87119 On ch=1 n=72 v=0
87119 On ch=1 n=84 v=0
87120 On ch=1 n=65 v=96
87120 On ch=1 n=67 v=96
87839 On ch=1 n=65 v=0
87839 On ch=1 n=67 v=0
87840 On ch=1 n=77 v=96
87840 On ch=1 n=81 v=96
87840 On ch=1 n=84 v=96
87840 On ch=1 n=89 v=96
88559 On ch=1 n=77 v=0
88559 On ch=1 n=81 v=0
88559 On ch=1 n=84 v=0
88559 On ch=1 n=89 v=0
88560 On ch=1 n=60 v=96
88560 On ch=1 n=64 v=96
89039 On ch=1 n=60 v=0
89039 On ch=1 n=64 v=0
89040 On ch=1 n=77 v=96
89267 On ch=1 n=77 v=0
89280 On ch=1 n=77 v=96
89280 On ch=1 n=81 v=96
89280 On ch=1 n=84 v=96
89280 On ch=1 n=89 v=96
89999 On ch=1 n=77 v=0
89999 On ch=1 n=81 v=0
89999 On ch=1 n=84 v=0
89999 On ch=1 n=89 v=0
90000 On ch=1 n=76 v=96
90000 On ch=1 n=81 v=96
90000 On ch=1 n=84 v=96
90000 On ch=1 n=88 v=96
90719 On ch=1 n=76 v=0
90719 On ch=1 n=81 v=0
90719 On ch=1 n=84 v=0
90719 On ch=1 n=88 v=0
90720 On ch=1 n=72 v=96
90720 On ch=1 n=77 v=96
90720 On ch=1 n=84 v=96
91199 On ch=1 n=72 v=0
91199 On ch=1 n=77 v=0
91199 On ch=1 n=84 v=0
91200 On ch=1 n=60 v=96
91200 On ch=1 n=64 v=96
91200 On ch=1 n=67 v=96
91439 On ch=1 n=60 v=0
91439 On ch=1 n=64 v=0
91439 On ch=1 n=67 v=0
91920 On ch=1 n=77 v=96
92159 On ch=1 n=77 v=0
92160 On ch=1 n=77 v=96
92160 On ch=1 n=81 v=96
92160 On ch=1 n=84 v=96
92160 On ch=1 n=89 v=96
92879 On ch=1 n=77 v=0
92879 On ch=1 n=81 v=0
92879 On ch=1 n=84 v=0
92879 On ch=1 n=89 v=0
92880 On ch=1 n=76 v=96
92880 On ch=1 n=81 v=96
92880 On ch=1 n=84 v=96
92880 On ch=1 n=88 v=96
93599 On ch=1 n=76 v=0
93599 On ch=1 n=81 v=0
93599 On ch=1 n=84 v=0
93599 On ch=1 n=88 v=0
93600 On ch=1 n=67 v=96
93600 On ch=1 n=79 v=96
94079 On ch=1 n=67 v=0
94079 On ch=1 n=79 v=0
94080 On ch=1 n=65 v=96
94080 On ch=1 n=77 v=96
94799 On ch=1 n=65 v=0
94799 On ch=1 n=77 v=0
94800 On ch=1 n=65 v=96
95039 On ch=1 n=65 v=0
95040 On ch=1 n=65 v=96
95040 On ch=1 n=77 v=96
95279 On ch=1 n=65 v=0
95279 On ch=1 n=77 v=0
95280 On ch=1 n=67 v=96
95280 On ch=1 n=79 v=96
95519 On ch=1 n=67 v=0
95519 On ch=1 n=79 v=0
95520 On ch=1 n=69 v=96
95520 On ch=1 n=81 v=96
95759 On ch=1 n=69 v=0
95759 On ch=1 n=81 v=0
95760 On ch=1 n=72 v=96
95760 On ch=1 n=84 v=96
96239 On ch=1 n=72 v=0
96239 On ch=1 n=84 v=0
96240 On ch=1 n=69 v=96
96240 On ch=1 n=81 v=96
96479 On ch=1 n=69 v=0
96479 On ch=1 n=81 v=0
96480 On ch=1 n=67 v=96
96480 On ch=1 n=79 v=96
96959 On ch=1 n=67 v=0
96959 On ch=1 n=79 v=0
96960 On ch=1 n=65 v=96
96960 On ch=1 n=77 v=96
97439 On ch=1 n=65 v=0
97439 On ch=1 n=77 v=0
97440 On ch=1 n=67 v=96
97440 On ch=1 n=79 v=96
97679 On ch=1 n=67 v=0
97679 On ch=1 n=79 v=0
97680 On ch=1 n=65 v=96
97680 On ch=1 n=77 v=96
97919 On ch=1 n=65 v=0
97919 On ch=1 n=77 v=0
97920 On ch=1 n=65 v=96
97920 On ch=1 n=77 v=96
98603 On ch=1 n=65 v=0
98603 On ch=1 n=77 v=0
98640 On ch=1 n=60 v=96
98640 On ch=1 n=64 v=96
99095 On ch=1 n=60 v=0
99095 On ch=1 n=64 v=0
99120 On ch=1 n=60 v=96
99347 On ch=1 n=60 v=0
99360 On ch=1 n=60 v=96
99360 On ch=1 n=64 v=96
99360 On ch=1 n=69 v=96
99587 On ch=1 n=60 v=0
99587 On ch=1 n=64 v=0
99587 On ch=1 n=69 v=0
99600 On ch=1 n=67 v=96
99827 On ch=1 n=67 v=0
99840 On ch=1 n=65 v=96
100067 On ch=1 n=65 v=0
100080 On ch=1 n=64 v=96
100307 On ch=1 n=64 v=0
100320 On ch=1 n=65 v=96
100775 On ch=1 n=65 v=0
100800 TimeSig 2/4 24 8
101040 On ch=1 n=65 v=96
101279 On ch=1 n=65 v=0
101280 On ch=1 n=67 v=96
101519 On ch=1 n=67 v=0
101520 On ch=1 n=69 v=96
101999 On ch=1 n=69 v=0
102000 On ch=1 n=67 v=96
102239 On ch=1 n=67 v=0
102240 On ch=1 n=69 v=96
102479 On ch=1 n=69 v=0
102480 On ch=1 n=72 v=96
102959 On ch=1 n=72 v=0
102960 On ch=1 n=69 v=96
103199 On ch=1 n=69 v=0
103200 On ch=1 n=67 v=96
103439 On ch=1 n=67 v=0
103440 On ch=1 n=65 v=96
103679 On ch=1 n=65 v=0
103680 On ch=1 n=65 v=96
103919 On ch=1 n=65 v=0
103920 On ch=1 n=67 v=96
104159 On ch=1 n=67 v=0
104160 On ch=1 n=67 v=96
104399 On ch=1 n=67 v=0
104400 On ch=1 n=65 v=96
104627 On ch=1 n=65 v=0
104640 TimeSig 4/4 24 8
104640 On ch=1 n=69 v=96
104640 On ch=1 n=74 v=96
104640 On ch=1 n=81 v=96
106007 On ch=1 n=69 v=0
106007 On ch=1 n=74 v=0
106007 On ch=1 n=81 v=0
106080 On ch=1 n=72 v=96
106080 On ch=1 n=77 v=96
106080 On ch=1 n=79 v=96
106080 On ch=1 n=84 v=96
106763 On ch=1 n=72 v=0
106763 On ch=1 n=77 v=0
106763 On ch=1 n=79 v=0
106763 On ch=1 n=84 v=0
106800 On ch=1 n=60 v=96
106800 On ch=1 n=64 v=96
106800 On ch=1 n=67 v=96
107040 On ch=1 n=60 v=0
107483 On ch=1 n=64 v=0
107483 On ch=1 n=67 v=0
107520 On ch=1 n=77 v=96
107520 On ch=1 n=89 v=96
107747 On ch=1 n=77 v=0
107747 On ch=1 n=89 v=0
107760 On ch=1 n=76 v=96
107760 On ch=1 n=88 v=96
107987 On ch=1 n=76 v=0
107987 On ch=1 n=88 v=0
108000 On ch=1 n=72 v=96
108000 On ch=1 n=84 v=96
108227 On ch=1 n=72 v=0
108227 On ch=1 n=84 v=0
108240 On ch=1 n=69 v=96
108240 On ch=1 n=81 v=96
108467 On ch=1 n=69 v=0
108467 On ch=1 n=81 v=0
108480 On ch=1 n=67 v=96
108480 On ch=1 n=79 v=96
109163 On ch=1 n=67 v=0
109163 On ch=1 n=79 v=0
109200 On ch=1 n=72 v=96
109200 On ch=1 n=84 v=96
109655 On ch=1 n=72 v=0
109655 On ch=1 n=84 v=0
109680 On ch=1 n=65 v=96
109680 On ch=1 n=77 v=96
109907 On ch=1 n=65 v=0
109907 On ch=1 n=77 v=0
109920 On ch=1 n=64 v=96
109920 On ch=1 n=76 v=96
110375 On ch=1 n=64 v=0
110375 On ch=1 n=76 v=0
110400 On ch=1 n=60 v=96
110400 On ch=1 n=64 v=96
110880 On ch=1 n=60 v=0
111083 On ch=1 n=64 v=0
111120 On ch=1 n=76 v=96
111347 On ch=1 n=76 v=0
111360 On ch=1 n=77 v=96
111587 On ch=1 n=77 v=0
111600 On ch=1 n=76 v=96
111827 On ch=1 n=76 v=0
111840 On ch=1 n=72 v=96
112295 On ch=1 n=72 v=0
112320 On ch=1 n=76 v=96
112439 On ch=1 n=76 v=0
112440 On ch=1 n=77 v=96
112559 On ch=1 n=77 v=0
112560 On ch=1 n=76 v=96
112679 On ch=1 n=76 v=0
112680 On ch=1 n=74 v=96
112799 On ch=1 n=74 v=0
112800 On ch=1 n=72 v=96
112919 On ch=1 n=72 v=0
112920 On ch=1 n=74 v=96
113039 On ch=1 n=74 v=0
113040 On ch=1 n=72 v=96
113159 On ch=1 n=72 v=0
113160 On ch=1 n=69 v=96
113279 On ch=1 n=69 v=0
113280 On ch=1 n=67 v=96
113399 On ch=1 n=67 v=0
113400 On ch=1 n=69 v=96
113519 On ch=1 n=69 v=0
113520 On ch=1 n=67 v=96
113639 On ch=1 n=67 v=0
113640 On ch=1 n=65 v=96
113759 On ch=1 n=65 v=0
113760 On ch=1 n=64 v=96
113879 On ch=1 n=64 v=0
113880 On ch=1 n=65 v=96
113999 On ch=1 n=65 v=0
114000 On ch=1 n=64 v=96
114119 On ch=1 n=64 v=0
114120 On ch=1 n=62 v=96
114239 On ch=1 n=62 v=0
114240 On ch=1 n=60 v=96
114479 On ch=1 n=60 v=0
114480 On ch=1 n=62 v=96
114719 On ch=1 n=62 v=0
114720 On ch=1 n=64 v=96
114959 On ch=1 n=64 v=0
114960 On ch=1 n=60 v=96
115439 On ch=1 n=60 v=0
115440 On ch=1 n=57 v=96
115679 On ch=1 n=57 v=0
115680 On ch=1 n=60 v=96
115919 On ch=1 n=60 v=0
115920 On ch=1 n=62 v=96
116159 On ch=1 n=62 v=0
116160 On ch=1 n=57 v=96
116160 On ch=1 n=65 v=96
116879 On ch=1 n=57 v=0
116879 On ch=1 n=65 v=0
116880 On ch=1 n=57 v=96
116880 On ch=1 n=64 v=96
117599 On ch=1 n=57 v=0
117599 On ch=1 n=64 v=0
117600 On ch=1 n=60 v=96
118079 On ch=1 n=60 v=0
118080 On ch=1 n=60 v=96
118080 On ch=1 n=67 v=96
118080 On ch=1 n=72 v=96
118799 On ch=1 n=60 v=0
118799 On ch=1 n=67 v=0
118799 On ch=1 n=72 v=0
118800 On ch=1 n=77 v=96
118800 On ch=1 n=79 v=96
118800 On ch=1 n=84 v=96
119519 On ch=1 n=77 v=0
119519 On ch=1 n=79 v=0
119519 On ch=1 n=84 v=0
119520 On ch=1 n=77 v=96
119759 On ch=1 n=77 v=0
119760 On ch=1 n=79 v=96
119987 On ch=1 n=79 v=0
120000 On ch=1 n=84 v=96
120119 On ch=1 n=84 v=0
120120 On ch=1 n=77 v=96
120239 On ch=1 n=77 v=0
120240 On ch=1 n=76 v=96
120359 On ch=1 n=76 v=0
120360 On ch=1 n=81 v=96
120479 On ch=1 n=81 v=0
120480 On ch=1 n=74 v=96
120599 On ch=1 n=74 v=0
120600 On ch=1 n=72 v=96
120719 On ch=1 n=72 v=0
120720 On ch=1 n=74 v=96
120839 On ch=1 n=74 v=0
120840 On ch=1 n=69 v=96
120959 On ch=1 n=69 v=0
120960 On ch=1 n=72 v=96
121079 On ch=1 n=72 v=0
121080 On ch=1 n=77 v=96
121199 On ch=1 n=77 v=0
121200 On ch=1 n=69 v=96
121319 On ch=1 n=69 v=0
121320 On ch=1 n=67 v=96
121439 On ch=1 n=67 v=0
121440 On ch=1 n=69 v=96
121559 On ch=1 n=69 v=0
121560 On ch=1 n=67 v=96
121919 On ch=1 n=67 v=0
121920 On ch=1 n=65 v=96
121920 On ch=1 n=69 v=96
121920 On ch=1 n=72 v=96
122399 On ch=1 n=65 v=0
122399 On ch=1 n=69 v=0
122399 On ch=1 n=72 v=0
122400 On ch=1 n=69 v=96
122639 On ch=1 n=69 v=0
122640 On ch=1 n=67 v=96
123119 On ch=1 n=67 v=0
123120 On ch=1 n=65 v=96
123803 On ch=1 n=65 v=0
123840 On ch=1 n=77 v=96
123840 On ch=1 n=89 v=96
124319 On ch=1 n=77 v=0
124319 On ch=1 n=89 v=0
124320 On ch=1 n=76 v=96
124320 On ch=1 n=88 v=96
124559 On ch=1 n=76 v=0
124559 On ch=1 n=88 v=0
124560 On ch=1 n=77 v=96
124560 On ch=1 n=89 v=96
125039 On ch=1 n=77 v=0
125039 On ch=1 n=89 v=0
125040 On ch=1 n=79 v=96
125040 On ch=1 n=91 v=96
125519 On ch=1 n=79 v=0
125519 On ch=1 n=91 v=0
125520 On ch=1 n=84 v=96
125520 On ch=1 n=96 v=96
126719 On ch=1 n=84 v=0
126719 On ch=1 n=96 v=0
126720 On ch=1 n=84 v=96
126720 On ch=1 n=96 v=96
127079 On ch=1 n=84 v=0
127079 On ch=1 n=96 v=0
127080 On ch=1 n=86 v=96
127080 On ch=1 n=98 v=96
127439 On ch=1 n=86 v=0
127439 On ch=1 n=98 v=0
127440 On ch=1 n=88 v=96
127440 On ch=1 n=100 v=96
127679 On ch=1 n=88 v=0
127679 On ch=1 n=100 v=0
127680 On ch=1 n=89 v=96
127680 On ch=1 n=101 v=96
128159 On ch=1 n=89 v=0
128159 On ch=1 n=101 v=0
128160 On ch=1 n=88 v=96
128160 On ch=1 n=100 v=96
128399 On ch=1 n=88 v=0
128399 On ch=1 n=100 v=0
128400 On ch=1 n=84 v=96
128400 On ch=1 n=96 v=96
128879 On ch=1 n=84 v=0
128879 On ch=1 n=96 v=0
128880 On ch=1 n=79 v=96
128880 On ch=1 n=91 v=96
129359 On ch=1 n=79 v=0
129359 On ch=1 n=91 v=0
129360 On ch=1 n=79 v=96
129360 On ch=1 n=91 v=96
129839 On ch=1 n=79 v=0
129839 On ch=1 n=91 v=0
129840 On ch=1 n=77 v=96
129840 On ch=1 n=89 v=96
130319 On ch=1 n=77 v=0
130319 On ch=1 n=89 v=0
130320 On ch=1 n=76 v=96
130320 On ch=1 n=88 v=96
130799 On ch=1 n=76 v=0
130799 On ch=1 n=88 v=0
130800 On ch=1 n=72 v=96
130800 On ch=1 n=84 v=96
131279 On ch=1 n=72 v=0
131279 On ch=1 n=84 v=0
131280 On ch=1 n=72 v=96
131519 On ch=1 n=72 v=0
131520 On ch=1 n=77 v=96
131759 On ch=1 n=77 v=0
131760 On ch=1 n=79 v=96
131999 On ch=1 n=79 v=0
132000 On ch=1 n=81 v=96
132239 On ch=1 n=81 v=0
132240 On ch=1 n=69 v=96
132240 On ch=1 n=74 v=96
132240 On ch=1 n=79 v=96
132959 On ch=1 n=69 v=0
132959 On ch=1 n=74 v=0
132959 On ch=1 n=79 v=0
132960 On ch=1 n=77 v=96
133439 On ch=1 n=77 v=0
133440 On ch=1 n=72 v=96
133440 On ch=1 n=76 v=96
134159 On ch=1 n=72 v=0
134159 On ch=1 n=76 v=0
134160 On ch=1 n=72 v=96
134160 On ch=1 n=77 v=96
134879 On ch=1 n=72 v=0
134879 On ch=1 n=77 v=0
134880 On ch=1 n=72 v=96
134880 On ch=1 n=79 v=96
135359 On ch=1 n=72 v=0
135359 On ch=1 n=79 v=0
135360 On ch=1 n=72 v=96
135360 On ch=1 n=76 v=96
136043 On ch=1 n=72 v=0
136043 On ch=1 n=76 v=0
136080 On ch=1 n=60 v=96
136080 On ch=1 n=64 v=96
136535 On ch=1 n=60 v=0
136535 On ch=1 n=64 v=0
136560 On ch=1 n=64 v=96
136787 On ch=1 n=64 v=0
136800 On ch=1 n=65 v=96
137027 On ch=1 n=65 v=0
137040 On ch=1 n=67 v=96
137267 On ch=1 n=67 v=0
137280 On ch=1 n=60 v=96
137280 On ch=1 n=64 v=96
137621 On ch=1 n=60 v=0
137621 On ch=1 n=64 v=0
137640 On ch=1 n=60 v=96
137640 On ch=1 n=64 v=96
138209 On ch=1 n=60 v=0
138209 On ch=1 n=64 v=0
139200 On ch=1 n=101 v=96
139313 On ch=1 n=101 v=0
139320 On ch=1 n=100 v=96
139433 On ch=1 n=100 v=0
139440 On ch=1 n=96 v=96
139553 On ch=1 n=96 v=0
139560 On ch=1 n=93 v=96
139673 On ch=1 n=93 v=0
139680 On ch=1 n=89 v=96
139793 On ch=1 n=89 v=0
139800 On ch=1 n=88 v=96
139913 On ch=1 n=88 v=0
139920 On ch=1 n=84 v=96
140033 On ch=1 n=84 v=0
140040 On ch=1 n=81 v=96
140153 On ch=1 n=81 v=0
140160 On ch=1 n=77 v=96
140289 On ch=1 n=77 v=0
140297 On ch=1 n=76 v=96
140426 On ch=1 n=76 v=0
140434 On ch=1 n=72 v=96
140563 On ch=1 n=72 v=0
140571 On ch=1 n=69 v=96
140700 On ch=1 n=69 v=0
140708 On ch=1 n=65 v=96
140837 On ch=1 n=65 v=0
140845 On ch=1 n=64 v=96
140974 On ch=1 n=64 v=0
140982 On ch=1 n=60 v=96
141111 On ch=1 n=60 v=0
141120 On ch=1 n=57 v=96
141233 On ch=1 n=57 v=0
141240 On ch=1 n=60 v=96
141353 On ch=1 n=60 v=0
141360 On ch=1 n=64 v=96
141473 On ch=1 n=64 v=0
141480 On ch=1 n=65 v=96
141593 On ch=1 n=65 v=0
141600 On ch=1 n=69 v=96
141713 On ch=1 n=69 v=0
141720 On ch=1 n=72 v=96
141833 On ch=1 n=72 v=0
141840 On ch=1 n=76 v=96
141953 On ch=1 n=76 v=0
141960 On ch=1 n=69 v=96
142073 On ch=1 n=69 v=0
142080 On ch=1 n=72 v=96
142180 On ch=1 n=72 v=0
142187 On ch=1 n=76 v=96
142287 On ch=1 n=76 v=0
142294 On ch=1 n=77 v=96
142394 On ch=1 n=77 v=0
142401 On ch=1 n=81 v=96
142501 On ch=1 n=81 v=0
142508 On ch=1 n=84 v=96
142608 On ch=1 n=84 v=0
142615 On ch=1 n=88 v=96
142715 On ch=1 n=88 v=0
142722 On ch=1 n=89 v=96
142822 On ch=1 n=89 v=0
142829 On ch=1 n=93 v=96
142929 On ch=1 n=93 v=0
142936 On ch=1 n=96 v=96
143036 On ch=1 n=96 v=0
143040 On ch=1 n=105 v=96
143153 On ch=1 n=105 v=0
143160 On ch=1 n=101 v=96
143273 On ch=1 n=101 v=0
143280 On ch=1 n=100 v=96
143393 On ch=1 n=100 v=0
143400 On ch=1 n=96 v=96
143513 On ch=1 n=96 v=0
143520 On ch=1 n=93 v=96
143633 On ch=1 n=93 v=0
143640 On ch=1 n=89 v=96
143753 On ch=1 n=89 v=0
143760 On ch=1 n=88 v=96
143873 On ch=1 n=88 v=0
143880 On ch=1 n=84 v=96
143993 On ch=1 n=84 v=0
144000 On ch=1 n=81 v=96
144113 On ch=1 n=81 v=0
144120 On ch=1 n=77 v=96
144233 On ch=1 n=77 v=0
144240 On ch=1 n=76 v=96
144353 On ch=1 n=76 v=0
144360 On ch=1 n=72 v=96
144473 On ch=1 n=72 v=0
144480 On ch=1 n=69 v=96
144593 On ch=1 n=69 v=0
144600 On ch=1 n=65 v=96
144713 On ch=1 n=65 v=0
144720 On ch=1 n=64 v=96
144833 On ch=1 n=64 v=0
144840 On ch=1 n=60 v=96
144953 On ch=1 n=60 v=0
144960 On ch=1 n=57 v=96
145073 On ch=1 n=57 v=0
145080 On ch=1 n=60 v=96
145193 On ch=1 n=60 v=0
145200 On ch=1 n=64 v=96
145313 On ch=1 n=64 v=0
145320 On ch=1 n=65 v=96
145433 On ch=1 n=65 v=0
145440 On ch=1 n=69 v=96
145553 On ch=1 n=69 v=0
145560 On ch=1 n=72 v=96
145673 On ch=1 n=72 v=0
145680 On ch=1 n=76 v=96
145793 On ch=1 n=76 v=0
145800 On ch=1 n=69 v=96
145913 On ch=1 n=69 v=0
145920 On ch=1 n=72 v=96
146020 On ch=1 n=72 v=0
146027 On ch=1 n=76 v=96
146127 On ch=1 n=76 v=0
146134 On ch=1 n=77 v=96
146234 On ch=1 n=77 v=0
146241 On ch=1 n=81 v=96
146341 On ch=1 n=81 v=0
146348 On ch=1 n=84 v=96
146448 On ch=1 n=84 v=0
146455 On ch=1 n=88 v=96
146555 On ch=1 n=88 v=0
146562 On ch=1 n=89 v=96
146662 On ch=1 n=89 v=0
146669 On ch=1 n=93 v=96
146769 On ch=1 n=93 v=0
146776 On ch=1 n=96 v=96
146876 On ch=1 n=96 v=0
146880 On ch=1 n=101 v=96
146993 On ch=1 n=101 v=0
147000 On ch=1 n=100 v=96
147113 On ch=1 n=100 v=0
147120 On ch=1 n=96 v=96
147233 On ch=1 n=96 v=0
147240 On ch=1 n=93 v=96
147353 On ch=1 n=93 v=0
147360 On ch=1 n=89 v=96
147473 On ch=1 n=89 v=0
147480 On ch=1 n=88 v=96
147593 On ch=1 n=88 v=0
147600 On ch=1 n=84 v=96
147713 On ch=1 n=84 v=0
147720 On ch=1 n=81 v=96
147833 On ch=1 n=81 v=0
147840 On ch=1 n=77 v=96
147969 On ch=1 n=77 v=0
147977 On ch=1 n=76 v=96
148106 On ch=1 n=76 v=0
148114 On ch=1 n=72 v=96
148243 On ch=1 n=72 v=0
148251 On ch=1 n=69 v=96
148380 On ch=1 n=69 v=0
148388 On ch=1 n=65 v=96
148517 On ch=1 n=65 v=0
148525 On ch=1 n=64 v=96
148654 On ch=1 n=64 v=0
148662 On ch=1 n=60 v=96
148791 On ch=1 n=60 v=0
148800 On ch=1 n=57 v=96
148913 On ch=1 n=57 v=0
148920 On ch=1 n=60 v=96
149033 On ch=1 n=60 v=0
149040 On ch=1 n=64 v=96
149153 On ch=1 n=64 v=0
149160 On ch=1 n=65 v=96
149273 On ch=1 n=65 v=0
149280 On ch=1 n=69 v=96
149393 On ch=1 n=69 v=0
149400 On ch=1 n=72 v=96
149513 On ch=1 n=72 v=0
149520 On ch=1 n=76 v=96
149633 On ch=1 n=76 v=0
149640 On ch=1 n=69 v=96
149753 On ch=1 n=69 v=0
149760 On ch=1 n=72 v=96
149860 On ch=1 n=72 v=0
149867 On ch=1 n=76 v=96
149967 On ch=1 n=76 v=0
149974 On ch=1 n=77 v=96
150074 On ch=1 n=77 v=0
150081 On ch=1 n=81 v=96
150181 On ch=1 n=81 v=0
150188 On ch=1 n=84 v=96
150288 On ch=1 n=84 v=0
150295 On ch=1 n=88 v=96
150395 On ch=1 n=88 v=0
150402 On ch=1 n=89 v=96
150502 On ch=1 n=89 v=0
150509 On ch=1 n=93 v=96
150609 On ch=1 n=93 v=0
150616 On ch=1 n=96 v=96
150716 On ch=1 n=96 v=0
150720 On ch=1 n=105 v=96
150833 On ch=1 n=105 v=0
150840 On ch=1 n=101 v=96
150953 On ch=1 n=101 v=0
150960 On ch=1 n=100 v=96
151073 On ch=1 n=100 v=0
151080 On ch=1 n=96 v=96
151193 On ch=1 n=96 v=0
151200 On ch=1 n=93 v=96
151313 On ch=1 n=93 v=0
151320 On ch=1 n=89 v=96
151433 On ch=1 n=89 v=0
151440 On ch=1 n=88 v=96
151553 On ch=1 n=88 v=0
151560 On ch=1 n=84 v=96
151673 On ch=1 n=84 v=0
151680 On ch=1 n=81 v=96
151793 On ch=1 n=81 v=0
151800 On ch=1 n=77 v=96
151913 On ch=1 n=77 v=0
151920 On ch=1 n=76 v=96
152033 On ch=1 n=76 v=0
152040 On ch=1 n=72 v=96
152153 On ch=1 n=72 v=0
152160 On ch=1 n=69 v=96
152273 On ch=1 n=69 v=0
152280 On ch=1 n=65 v=96
152393 On ch=1 n=65 v=0
152400 On ch=1 n=64 v=96
152513 On ch=1 n=64 v=0
152520 On ch=1 n=60 v=96
152633 On ch=1 n=60 v=0
152640 On ch=1 n=57 v=96
152753 On ch=1 n=57 v=0
152760 On ch=1 n=60 v=96
152873 On ch=1 n=60 v=0
152880 On ch=1 n=64 v=96
152993 On ch=1 n=64 v=0
153000 On ch=1 n=65 v=96
153113 On ch=1 n=65 v=0
153120 On ch=1 n=69 v=96
153233 On ch=1 n=69 v=0
153240 On ch=1 n=72 v=96
153353 On ch=1 n=72 v=0
153360 On ch=1 n=76 v=96
153473 On ch=1 n=76 v=0
153480 On ch=1 n=69 v=96
153593 On ch=1 n=69 v=0
153600 On ch=1 n=72 v=96
153729 On ch=1 n=72 v=0
153737 On ch=1 n=76 v=96
153866 On ch=1 n=76 v=0
153874 On ch=1 n=77 v=96
154003 On ch=1 n=77 v=0
154011 On ch=1 n=69 v=96
154140 On ch=1 n=69 v=0
154148 On ch=1 n=72 v=96
154277 On ch=1 n=72 v=0
154285 On ch=1 n=76 v=96
154414 On ch=1 n=76 v=0
154422 On ch=1 n=77 v=96
154551 On ch=1 n=77 v=0
154560 On ch=1 n=69 v=96
154560 On ch=1 n=81 v=96
155279 On ch=1 n=69 v=0
155279 On ch=1 n=81 v=0
155280 On ch=1 n=67 v=96
155280 On ch=1 n=79 v=96
155999 On ch=1 n=67 v=0
155999 On ch=1 n=79 v=0
156000 On ch=1 n=65 v=96
156000 On ch=1 n=77 v=96
156479 On ch=1 n=65 v=0
156479 On ch=1 n=77 v=0
156480 On ch=1 n=72 v=96
156480 On ch=1 n=84 v=96
157199 On ch=1 n=72 v=0
157199 On ch=1 n=84 v=0
157200 On ch=1 n=70 v=96
157200 On ch=1 n=82 v=96
157919 On ch=1 n=70 v=0
157919 On ch=1 n=82 v=0
157920 On ch=1 n=69 v=96
157920 On ch=1 n=81 v=96
158399 On ch=1 n=69 v=0
158399 On ch=1 n=81 v=0
158400 On ch=1 n=65 v=115
158400 On ch=1 n=67 v=115
158759 On ch=1 n=65 v=0
158759 On ch=1 n=67 v=0
158760 On ch=1 n=65 v=115
158760 On ch=1 n=67 v=115
159119 On ch=1 n=65 v=0
159119 On ch=1 n=67 v=0
159120 On ch=1 n=65 v=115
159120 On ch=1 n=67 v=115
159359 On ch=1 n=65 v=0
159359 On ch=1 n=67 v=0
159360 On ch=1 n=65 v=96
159479 On ch=1 n=65 v=0
159480 On ch=1 n=67 v=96
159599 On ch=1 n=67 v=0
159600 On ch=1 n=69 v=96
159719 On ch=1 n=69 v=0
159720 On ch=1 n=72 v=96
159839 On ch=1 n=72 v=0
159840 On ch=1 n=79 v=96
160079 On ch=1 n=79 v=0
160080 On ch=1 n=81 v=96
160319 On ch=1 n=81 v=0
160320 On ch=1 n=77 v=115
160320 On ch=1 n=79 v=115
160320 On ch=1 n=84 v=115
160679 On ch=1 n=77 v=0
160679 On ch=1 n=79 v=0
160679 On ch=1 n=84 v=0
160680 On ch=1 n=77 v=115
160680 On ch=1 n=79 v=115
160680 On ch=1 n=84 v=115
161039 On ch=1 n=77 v=0
161039 On ch=1 n=79 v=0
161039 On ch=1 n=84 v=0
161040 On ch=1 n=77 v=115
161040 On ch=1 n=79 v=115
161040 On ch=1 n=84 v=115
161279 On ch=1 n=77 v=0
161279 On ch=1 n=79 v=0
161279 On ch=1 n=84 v=0
162240 TimeSig 3/4 24 8
163680 TimeSig 4/4 24 8
163680 On ch=1 n=77 v=64
163680 On ch=1 n=84 v=64
165047 On ch=1 n=77 v=0
165047 On ch=1 n=84 v=0
165600 On ch=1 n=89 v=65
165827 On ch=1 n=89 v=0
165840 On ch=1 n=88 v=65
166067 On ch=1 n=88 v=0
166080 On ch=1 n=77 v=65
166307 On ch=1 n=77 v=0
166320 On ch=1 n=76 v=65
166547 On ch=1 n=76 v=0
171360 On ch=1 n=103 v=69
171815 On ch=1 n=103 v=0
171840 On ch=1 n=89 v=69
171840 On ch=1 n=101 v=69
172067 On ch=1 n=89 v=0
172067 On ch=1 n=101 v=0
172080 On ch=1 n=89 v=69
172080 On ch=1 n=101 v=69
172535 On ch=1 n=89 v=0
172535 On ch=1 n=101 v=0
172560 On ch=1 n=88 v=70
172560 On ch=1 n=100 v=70
173015 On ch=1 n=88 v=0
173015 On ch=1 n=100 v=0
173040 On ch=1 n=84 v=70
173040 On ch=1 n=96 v=70
173267 On ch=1 n=84 v=0
173267 On ch=1 n=96 v=0
174240 On ch=1 n=82 v=71
174467 On ch=1 n=82 v=0
174480 On ch=1 n=84 v=71
174707 On ch=1 n=84 v=0
174720 On ch=1 n=82 v=71
174947 On ch=1 n=82 v=0
174960 On ch=1 n=81 v=72
175187 On ch=1 n=81 v=0
175200 On ch=1 n=77 v=72
175200 On ch=1 n=79 v=72
175883 On ch=1 n=77 v=0
175883 On ch=1 n=79 v=0
175920 On ch=1 n=77 v=72
176375 On ch=1 n=77 v=0
177120 On ch=1 n=72 v=73
177347 On ch=1 n=72 v=0
177360 On ch=1 n=69 v=73
177587 On ch=1 n=69 v=0
177600 On ch=1 n=65 v=73
177827 On ch=1 n=65 v=0
177840 On ch=1 n=67 v=74
178067 On ch=1 n=67 v=0
178080 On ch=1 n=69 v=74
178307 On ch=1 n=69 v=0
178320 On ch=1 n=72 v=74
178547 On ch=1 n=72 v=0
178560 On ch=1 n=69 v=74
178787 On ch=1 n=69 v=0
178800 On ch=1 n=65 v=74
179027 On ch=1 n=65 v=0
179040 On ch=1 n=67 v=74
179723 On ch=1 n=67 v=0
182880 On ch=1 n=72 v=77
183791 On ch=1 n=72 v=0
184800 TimeSig 6/8 24 8
186240 TimeSig 6/4 24 8
186240 On ch=1 n=72 v=80
187151 On ch=1 n=72 v=0
187200 On ch=1 n=65 v=80
187427 On ch=1 n=65 v=0
187440 On ch=1 n=69 v=80
187667 On ch=1 n=69 v=0
187680 On ch=1 n=67 v=80
187907 On ch=1 n=67 v=0
187920 On ch=1 n=64 v=80
188147 On ch=1 n=64 v=0
188160 On ch=1 n=65 v=80
188387 On ch=1 n=65 v=0
188400 On ch=1 n=57 v=80
188627 On ch=1 n=57 v=0
188640 On ch=1 n=67 v=80
188867 On ch=1 n=67 v=0
188880 On ch=1 n=70 v=80
189107 On ch=1 n=70 v=0
189120 On ch=1 n=65 v=80
189120 On ch=1 n=69 v=80
189575 On ch=1 n=65 v=0
189575 On ch=1 n=69 v=0
190560 On ch=1 n=77 v=80
190560 On ch=1 n=77 v=0
190560 On ch=1 n=77 v=80
190800 On ch=1 n=67 v=80
191015 On ch=1 n=77 v=0
191027 On ch=1 n=67 v=0
191040 On ch=1 n=76 v=80
191040 On ch=1 n=76 v=0
191040 On ch=1 n=76 v=80
191280 On ch=1 n=65 v=80
191495 On ch=1 n=76 v=0
191507 On ch=1 n=65 v=0
191520 On ch=1 n=72 v=80
191520 On ch=1 n=67 v=80
191747 On ch=1 n=72 v=0
191747 On ch=1 n=67 v=0
191760 On ch=1 n=84 v=80
191987 On ch=1 n=84 v=0
192000 On ch=1 n=81 v=80
193367 On ch=1 n=81 v=0
193440 On ch=1 n=69 v=80
194123 On ch=1 n=69 v=0
194160 On ch=1 n=65 v=80
194387 On ch=1 n=65 v=0
194400 On ch=1 n=65 v=80
194627 On ch=1 n=65 v=0
194640 On ch=1 n=72 v=80
194867 On ch=1 n=72 v=0
194880 On ch=1 n=65 v=80
194880 On ch=1 n=67 v=80
194880 On ch=1 n=72 v=80
195791 On ch=1 n=65 v=0
195791 On ch=1 n=67 v=0
195791 On ch=1 n=72 v=0
197040 On ch=1 n=65 v=80
197267 On ch=1 n=65 v=0
197280 On ch=1 n=65 v=80
197507 On ch=1 n=65 v=0
197520 On ch=1 n=73 v=80
197747 On ch=1 n=73 v=0
197760 On ch=1 n=73 v=80
198215 On ch=1 n=73 v=0
198240 On ch=1 n=70 v=80
198240 On ch=1 n=70 v=0
198240 On ch=1 n=70 v=80
198480 On ch=1 n=57 v=80
198695 On ch=1 n=70 v=0
198707 On ch=1 n=57 v=0
198720 On ch=1 n=69 v=80
198720 On ch=1 n=69 v=0
198720 On ch=1 n=69 v=80
198960 On ch=1 n=64 v=80
199175 On ch=1 n=69 v=0
199187 On ch=1 n=64 v=0
199200 On ch=1 n=76 v=80
199200 On ch=1 n=76 v=0
199200 On ch=1 n=76 v=80
199440 On ch=1 n=64 v=80
199655 On ch=1 n=76 v=0
199667 On ch=1 n=64 v=0
199680 On ch=1 n=70 v=80
199680 On ch=1 n=70 v=0
199680 On ch=1 n=70 v=80
199920 On ch=1 n=57 v=80
200135 On ch=1 n=70 v=0
200147 On ch=1 n=57 v=0
200160 On ch=1 n=69 v=80
200615 On ch=1 n=69 v=0
200640 On ch=1 n=72 v=80
200640 On ch=1 n=77 v=80
200640 On ch=1 n=84 v=80
201359 On ch=1 n=72 v=0
201359 On ch=1 n=77 v=0
201359 On ch=1 n=84 v=0
201360 On ch=1 n=67 v=80
201360 On ch=1 n=72 v=80
201360 On ch=1 n=79 v=80
202079 On ch=1 n=67 v=0
202079 On ch=1 n=72 v=0
202079 On ch=1 n=79 v=0
202080 On ch=1 n=65 v=80
202080 On ch=1 n=72 v=80
202080 On ch=1 n=77 v=80
202559 On ch=1 n=65 v=0
202559 On ch=1 n=72 v=0
202559 On ch=1 n=77 v=0
202560 On ch=1 n=67 v=80
202560 On ch=1 n=72 v=80
202560 On ch=1 n=79 v=80
203039 On ch=1 n=67 v=0
203039 On ch=1 n=72 v=0
203039 On ch=1 n=79 v=0
203040 On ch=1 n=65 v=80
203040 On ch=1 n=77 v=80
203519 On ch=1 n=65 v=0
203519 On ch=1 n=77 v=0
203520 On ch=1 n=69 v=80
203520 On ch=1 n=74 v=80
203520 On ch=1 n=77 v=80
203520 On ch=1 n=81 v=80
203999 On ch=1 n=69 v=0
203999 On ch=1 n=74 v=0
203999 On ch=1 n=77 v=0
203999 On ch=1 n=81 v=0
206160 On ch=1 n=79 v=80
206399 On ch=1 n=79 v=0
206400 On ch=1 n=79 v=80
206400 On ch=1 n=84 v=80
206400 On ch=1 n=91 v=80
207359 On ch=1 n=79 v=0
207359 On ch=1 n=84 v=0
207359 On ch=1 n=91 v=0
207360 On ch=1 n=77 v=80
207360 On ch=1 n=84 v=80
207360 On ch=1 n=89 v=80
207839 On ch=1 n=77 v=0
207839 On ch=1 n=84 v=0
207839 On ch=1 n=89 v=0
207840 On ch=1 n=76 v=80
207840 On ch=1 n=88 v=80
208319 On ch=1 n=76 v=0
208319 On ch=1 n=88 v=0
209280 On ch=1 n=60 v=80
209280 On ch=1 n=64 v=80
210719 On ch=1 n=60 v=0
210719 On ch=1 n=64 v=0
211440 On ch=1 n=65 v=80
211679 On ch=1 n=65 v=0
211680 On ch=1 n=67 v=80
211919 On ch=1 n=67 v=0
211920 On ch=1 n=65 v=80
212159 On ch=1 n=65 v=0
212160 On ch=1 n=65 v=80
212160 On ch=1 n=69 v=80
212639 On ch=1 n=65 v=0
212639 On ch=1 n=69 v=0
212640 On ch=1 n=67 v=80
213119 On ch=1 n=67 v=0
213120 On ch=1 n=65 v=80
213120 On ch=1 n=70 v=80
213599 On ch=1 n=65 v=0
213599 On ch=1 n=70 v=0
213600 On ch=1 n=65 v=80
213600 On ch=1 n=69 v=80
214319 On ch=1 n=65 v=0
214319 On ch=1 n=69 v=0
214320 On ch=1 n=77 v=80
214559 On ch=1 n=77 v=0
214560 On ch=1 n=79 v=80
214799 On ch=1 n=79 v=0
214800 On ch=1 n=81 v=80
215039 On ch=1 n=81 v=0
215520 On ch=1 n=81 v=80
215759 On ch=1 n=81 v=0
215760 On ch=1 n=82 v=80
215999 On ch=1 n=82 v=0
216000 On ch=1 n=81 v=80
216239 On ch=1 n=81 v=0
216240 On ch=1 n=74 v=80
216240 On ch=1 n=74 v=0
216480 On ch=1 n=79 v=80
216959 On ch=1 n=79 v=0
216960 On ch=1 n=77 v=80
217439 On ch=1 n=77 v=0
217440 On ch=1 n=76 v=80
217895 On ch=1 n=76 v=0
217920 TimeSig 12/8 24 8
217920 Tempo 333333
217920 On ch=1 n=77 v=115
217920 On ch=1 n=81 v=115
217920 On ch=1 n=84 v=115
217920 On ch=1 n=89 v=115
218639 On ch=1 n=77 v=0
218639 On ch=1 n=81 v=0
218639 On ch=1 n=84 v=0
218639 On ch=1 n=89 v=0
218640 On ch=1 n=76 v=96
218640 On ch=1 n=81 v=96
218640 On ch=1 n=84 v=96
218640 On ch=1 n=88 v=96
219359 On ch=1 n=76 v=0
219359 On ch=1 n=81 v=0
219359 On ch=1 n=84 v=0
219359 On ch=1 n=88 v=0
219360 On ch=1 n=72 v=96
219360 On ch=1 n=77 v=96
219360 On ch=1 n=84 v=96
219839 On ch=1 n=72 v=0
219839 On ch=1 n=77 v=0
219839 On ch=1 n=84 v=0
219840 On ch=1 n=60 v=96
219840 On ch=1 n=64 v=96
219840 On ch=1 n=67 v=96
220079 On ch=1 n=60 v=0
220079 On ch=1 n=64 v=0
220079 On ch=1 n=67 v=0
220560 On ch=1 n=77 v=96
220560 On ch=1 n=81 v=96
220799 On ch=1 n=77 v=0
220799 On ch=1 n=81 v=0
220800 On ch=1 n=77 v=96
220800 On ch=1 n=81 v=96
220800 On ch=1 n=84 v=96
220800 On ch=1 n=89 v=96
221519 On ch=1 n=77 v=0
221519 On ch=1 n=81 v=0
221519 On ch=1 n=84 v=0
221519 On ch=1 n=89 v=0
221520 On ch=1 n=76 v=96
221520 On ch=1 n=81 v=96
221520 On ch=1 n=84 v=96
221520 On ch=1 n=88 v=96
222239 On ch=1 n=76 v=0
222239 On ch=1 n=81 v=0
222239 On ch=1 n=84 v=0
222239 On ch=1 n=88 v=0
222240 On ch=1 n=67 v=96
222240 On ch=1 n=72 v=96
222240 On ch=1 n=79 v=96
222719 On ch=1 n=67 v=0
222719 On ch=1 n=72 v=0
222719 On ch=1 n=79 v=0
222720 On ch=1 n=65 v=96
222720 On ch=1 n=77 v=96
223439 On ch=1 n=65 v=0
223439 On ch=1 n=77 v=0
223440 On ch=1 n=65 v=96
223679 On ch=1 n=65 v=0
223680 On ch=1 n=65 v=96
223680 On ch=1 n=69 v=96
223680 On ch=1 n=72 v=96
223680 On ch=1 n=77 v=96
223919 On ch=1 n=65 v=0
223919 On ch=1 n=69 v=0
223919 On ch=1 n=72 v=0
223919 On ch=1 n=77 v=0
223920 On ch=1 n=67 v=96
223920 On ch=1 n=79 v=96
224159 On ch=1 n=67 v=0
224159 On ch=1 n=79 v=0
224160 On ch=1 n=69 v=96
224160 On ch=1 n=81 v=96
224399 On ch=1 n=69 v=0
224399 On ch=1 n=81 v=0
224400 On ch=1 n=72 v=96
224400 On ch=1 n=84 v=96
224879 On ch=1 n=72 v=0
224879 On ch=1 n=84 v=0
224880 On ch=1 n=69 v=96
224880 On ch=1 n=81 v=96
225119 On ch=1 n=69 v=0
225119 On ch=1 n=81 v=0
225120 On ch=1 n=67 v=96
225120 On ch=1 n=79 v=96
225599 On ch=1 n=67 v=0
225599 On ch=1 n=79 v=0
225600 On ch=1 n=65 v=96
225600 On ch=1 n=77 v=96
226079 On ch=1 n=65 v=0
226079 On ch=1 n=77 v=0
226080 On ch=1 n=65 v=96
226080 On ch=1 n=77 v=96
226319 On ch=1 n=65 v=0
226319 On ch=1 n=77 v=0
226320 On ch=1 n=74 v=96
226320 On ch=1 n=86 v=96
226559 On ch=1 n=74 v=0
226559 On ch=1 n=86 v=0
226560 On ch=1 n=72 v=96
226560 On ch=1 n=84 v=96
227999 On ch=1 n=72 v=0
227999 On ch=1 n=84 v=0
228000 On ch=1 n=77 v=96
228000 On ch=1 n=81 v=96
228000 On ch=1 n=84 v=96
228000 On ch=1 n=89 v=96
229367 On ch=1 n=77 v=0
229367 On ch=1 n=81 v=0
229367 On ch=1 n=84 v=0
229367 On ch=1 n=89 v=0
229440 On ch=1 n=77 v=96
229440 On ch=1 n=81 v=96
229440 On ch=1 n=84 v=96
229440 On ch=1 n=89 v=96
230159 On ch=1 n=77 v=0
230159 On ch=1 n=81 v=0
230159 On ch=1 n=84 v=0
230159 On ch=1 n=89 v=0
230160 On ch=1 n=76 v=96
230160 On ch=1 n=81 v=96
230160 On ch=1 n=84 v=96
230160 On ch=1 n=88 v=96
230879 On ch=1 n=76 v=0
230879 On ch=1 n=81 v=0
230879 On ch=1 n=84 v=0
230879 On ch=1 n=88 v=0
230880 On ch=1 n=72 v=96
230880 On ch=1 n=77 v=96
230880 On ch=1 n=84 v=96
231359 On ch=1 n=72 v=0
231359 On ch=1 n=77 v=0
231359 On ch=1 n=84 v=0
231360 On ch=1 n=60 v=96
231360 On ch=1 n=64 v=96
231360 On ch=1 n=67 v=96
231599 On ch=1 n=60 v=0
231599 On ch=1 n=64 v=0
231599 On ch=1 n=67 v=0
232080 On ch=1 n=77 v=96
232319 On ch=1 n=77 v=0
232320 On ch=1 n=77 v=96
232320 On ch=1 n=81 v=96
232320 On ch=1 n=84 v=96
232320 On ch=1 n=89 v=96
233039 On ch=1 n=77 v=0
233039 On ch=1 n=81 v=0
233039 On ch=1 n=84 v=0
233039 On ch=1 n=89 v=0
233040 On ch=1 n=76 v=96
233040 On ch=1 n=81 v=96
233040 On ch=1 n=84 v=96
233040 On ch=1 n=88 v=96
233519 On ch=1 n=76 v=0
233519 On ch=1 n=81 v=0
233519 On ch=1 n=84 v=0
233519 On ch=1 n=88 v=0
233520 On ch=1 n=77 v=96
233520 On ch=1 n=89 v=96
233759 On ch=1 n=77 v=0
233759 On ch=1 n=89 v=0
233760 On ch=1 n=67 v=96
233760 On ch=1 n=79 v=96
234239 On ch=1 n=67 v=0
234239 On ch=1 n=79 v=0
234240 On ch=1 n=65 v=96
234240 On ch=1 n=77 v=96
234959 On ch=1 n=65 v=0
234959 On ch=1 n=77 v=0
234960 On ch=1 n=65 v=96
235199 On ch=1 n=65 v=0
235200 On ch=1 n=65 v=96
235200 On ch=1 n=77 v=96
235439 On ch=1 n=65 v=0
235439 On ch=1 n=77 v=0
235440 On ch=1 n=62 v=96
235440 On ch=1 n=74 v=96
235679 On ch=1 n=62 v=0
235679 On ch=1 n=74 v=0
235680 On ch=1 n=69 v=96
235680 On ch=1 n=81 v=96
235919 On ch=1 n=69 v=0
235919 On ch=1 n=81 v=0
235920 On ch=1 n=67 v=96
235920 On ch=1 n=79 v=96
236399 On ch=1 n=67 v=0
236399 On ch=1 n=79 v=0
236400 On ch=1 n=69 v=96
236400 On ch=1 n=81 v=96
236639 On ch=1 n=69 v=0
236639 On ch=1 n=81 v=0
236640 On ch=1 n=72 v=96
236640 On ch=1 n=84 v=96
237119 On ch=1 n=72 v=0
237119 On ch=1 n=84 v=0
237120 On ch=1 n=69 v=96
237120 On ch=1 n=81 v=96
237599 On ch=1 n=69 v=0
237599 On ch=1 n=81 v=0
237600 On ch=1 n=67 v=96
237600 On ch=1 n=79 v=96
237839 On ch=1 n=67 v=0
237839 On ch=1 n=79 v=0
237840 On ch=1 n=65 v=96
237840 On ch=1 n=77 v=96
238079 On ch=1 n=65 v=0
238079 On ch=1 n=77 v=0
238080 On ch=1 n=65 v=96
238080 On ch=1 n=77 v=96
238763 On ch=1 n=65 v=0
238763 On ch=1 n=77 v=0
238800 On ch=1 n=60 v=96
238800 On ch=1 n=64 v=96
239255 On ch=1 n=60 v=0
239255 On ch=1 n=64 v=0
239280 On ch=1 n=60 v=96
239280 On ch=1 n=69 v=96
239507 On ch=1 n=60 v=0
239507 On ch=1 n=69 v=0
239520 On ch=1 n=60 v=96
239520 On ch=1 n=64 v=96
239520 On ch=1 n=67 v=96
240659 On ch=1 n=60 v=0
240659 On ch=1 n=64 v=0
240659 On ch=1 n=67 v=0
240720 On ch=1 n=77 v=96
240947 On ch=1 n=77 v=0
240960 On ch=1 n=77 v=115
240960 On ch=1 n=81 v=115
240960 On ch=1 n=84 v=115
240960 On ch=1 n=89 v=115
241679 On ch=1 n=77 v=0
241679 On ch=1 n=81 v=0
241679 On ch=1 n=84 v=0
241679 On ch=1 n=89 v=0
241680 On ch=1 n=76 v=96
241680 On ch=1 n=81 v=96
241680 On ch=1 n=84 v=96
241680 On ch=1 n=88 v=96
242399 On ch=1 n=76 v=0
242399 On ch=1 n=81 v=0
242399 On ch=1 n=84 v=0
242399 On ch=1 n=88 v=0
242400 On ch=1 n=72 v=96
242400 On ch=1 n=77 v=96
242400 On ch=1 n=84 v=96
242879 On ch=1 n=72 v=0
242879 On ch=1 n=77 v=0
242879 On ch=1 n=84 v=0
242880 On ch=1 n=60 v=96
242880 On ch=1 n=64 v=96
242880 On ch=1 n=67 v=96
243119 On ch=1 n=60 v=0
243119 On ch=1 n=64 v=0
243119 On ch=1 n=67 v=0
243600 On ch=1 n=77 v=96
243600 On ch=1 n=81 v=96
243839 On ch=1 n=77 v=0
243839 On ch=1 n=81 v=0
243840 On ch=1 n=77 v=96
243840 On ch=1 n=81 v=96
243840 On ch=1 n=84 v=96
243840 On ch=1 n=89 v=96
244559 On ch=1 n=77 v=0
244559 On ch=1 n=81 v=0
244559 On ch=1 n=84 v=0
244559 On ch=1 n=89 v=0
244560 On ch=1 n=76 v=96
244560 On ch=1 n=81 v=96
244560 On ch=1 n=84 v=96
244560 On ch=1 n=88 v=96
245279 On ch=1 n=76 v=0
245279 On ch=1 n=81 v=0
245279 On ch=1 n=84 v=0
245279 On ch=1 n=88 v=0
245280 On ch=1 n=69 v=96
245280 On ch=1 n=74 v=96
245280 On ch=1 n=81 v=96
245519 On ch=1 n=69 v=0
245519 On ch=1 n=74 v=0
245519 On ch=1 n=81 v=0
245520 On ch=1 n=67 v=96
245520 On ch=1 n=79 v=96
245759 On ch=1 n=67 v=0
245759 On ch=1 n=79 v=0
245760 On ch=1 n=65 v=96
245760 On ch=1 n=77 v=96
246479 On ch=1 n=65 v=0
246479 On ch=1 n=77 v=0
246480 On ch=1 n=65 v=96
246719 On ch=1 n=65 v=0
246720 On ch=1 n=65 v=96
246720 On ch=1 n=69 v=96
246720 On ch=1 n=72 v=96
246720 On ch=1 n=77 v=96
246959 On ch=1 n=65 v=0
246959 On ch=1 n=69 v=0
246959 On ch=1 n=72 v=0
246959 On ch=1 n=77 v=0
246960 On ch=1 n=67 v=96
246960 On ch=1 n=79 v=96
247199 On ch=1 n=67 v=0
247199 On ch=1 n=79 v=0
247200 On ch=1 n=69 v=96
247200 On ch=1 n=81 v=96
247439 On ch=1 n=69 v=0
247439 On ch=1 n=81 v=0
247440 On ch=1 n=72 v=96
247440 On ch=1 n=84 v=96
247919 On ch=1 n=72 v=0
247919 On ch=1 n=84 v=0
247920 On ch=1 n=69 v=96
247920 On ch=1 n=81 v=96
248159 On ch=1 n=69 v=0
248159 On ch=1 n=81 v=0
248160 On ch=1 n=67 v=96
248160 On ch=1 n=79 v=96
249119 On ch=1 n=67 v=0
249119 On ch=1 n=79 v=0
249120 On ch=1 n=74 v=96
249120 On ch=1 n=86 v=96
249599 On ch=1 n=74 v=0
249599 On ch=1 n=86 v=0
249600 On ch=1 n=72 v=96
249600 On ch=1 n=84 v=96
250319 On ch=1 n=72 v=0
250319 On ch=1 n=84 v=0
250320 On ch=1 n=65 v=96
250320 On ch=1 n=67 v=96
251039 On ch=1 n=65 v=0
251039 On ch=1 n=67 v=0
251040 On ch=1 n=77 v=96
251040 On ch=1 n=81 v=96
251040 On ch=1 n=84 v=96
251040 On ch=1 n=89 v=96
251759 On ch=1 n=77 v=0
251759 On ch=1 n=81 v=0
251759 On ch=1 n=84 v=0
251759 On ch=1 n=89 v=0
251760 On ch=1 n=60 v=96
251760 On ch=1 n=64 v=96
252239 On ch=1 n=60 v=0
252239 On ch=1 n=64 v=0
252240 On ch=1 n=77 v=96
252467 On ch=1 n=77 v=0
252480 On ch=1 n=77 v=96
252480 On ch=1 n=81 v=96
252480 On ch=1 n=84 v=96
252480 On ch=1 n=89 v=96
253199 On ch=1 n=77 v=0
253199 On ch=1 n=81 v=0
253199 On ch=1 n=84 v=0
253199 On ch=1 n=89 v=0
253200 On ch=1 n=76 v=96
253200 On ch=1 n=81 v=96
253200 On ch=1 n=84 v=96
253200 On ch=1 n=88 v=96
253919 On ch=1 n=76 v=0
253919 On ch=1 n=81 v=0
253919 On ch=1 n=84 v=0
253919 On ch=1 n=88 v=0
253920 On ch=1 n=72 v=96
253920 On ch=1 n=77 v=96
253920 On ch=1 n=84 v=96
254399 On ch=1 n=72 v=0
254399 On ch=1 n=77 v=0
254399 On ch=1 n=84 v=0
254400 On ch=1 n=60 v=96
254400 On ch=1 n=64 v=96
254400 On ch=1 n=67 v=96
254639 On ch=1 n=60 v=0
254639 On ch=1 n=64 v=0
254639 On ch=1 n=67 v=0
255120 On ch=1 n=77 v=96
255359 On ch=1 n=77 v=0
255360 On ch=1 n=77 v=96
255360 On ch=1 n=81 v=96
255360 On ch=1 n=84 v=96
255360 On ch=1 n=89 v=96
256079 On ch=1 n=77 v=0
256079 On ch=1 n=81 v=0
256079 On ch=1 n=84 v=0
256079 On ch=1 n=89 v=0
256080 On ch=1 n=76 v=96
256080 On ch=1 n=81 v=96
256080 On ch=1 n=84 v=96
256080 On ch=1 n=88 v=96
256799 On ch=1 n=76 v=0
256799 On ch=1 n=81 v=0
256799 On ch=1 n=84 v=0
256799 On ch=1 n=88 v=0
256800 On ch=1 n=67 v=96
256800 On ch=1 n=79 v=96
257279 On ch=1 n=67 v=0
257279 On ch=1 n=79 v=0
257280 On ch=1 n=65 v=96
257280 On ch=1 n=77 v=96
257999 On ch=1 n=65 v=0
257999 On ch=1 n=77 v=0
258000 On ch=1 n=65 v=96
258239 On ch=1 n=65 v=0
258240 On ch=1 n=65 v=96
258240 On ch=1 n=77 v=96
258479 On ch=1 n=65 v=0
258479 On ch=1 n=77 v=0
258480 On ch=1 n=67 v=96
258480 On ch=1 n=79 v=96
258719 On ch=1 n=67 v=0
258719 On ch=1 n=79 v=0
258720 On ch=1 n=69 v=96
258720 On ch=1 n=81 v=96
258959 On ch=1 n=69 v=0
258959 On ch=1 n=81 v=0
258960 On ch=1 n=72 v=96
258960 On ch=1 n=84 v=96
259439 On ch=1 n=72 v=0
259439 On ch=1 n=84 v=0
259440 On ch=1 n=69 v=96
259440 On ch=1 n=81 v=96
259679 On ch=1 n=69 v=0
259679 On ch=1 n=81 v=0
259680 On ch=1 n=67 v=96
259680 On ch=1 n=79 v=96
260159 On ch=1 n=67 v=0
260159 On ch=1 n=79 v=0
260160 On ch=1 n=65 v=96
260160 On ch=1 n=77 v=96
260639 On ch=1 n=65 v=0
260639 On ch=1 n=77 v=0
260640 On ch=1 n=67 v=96
260640 On ch=1 n=79 v=96
260879 On ch=1 n=67 v=0
260879 On ch=1 n=79 v=0
260880 On ch=1 n=65 v=96
260880 On ch=1 n=77 v=96
261119 On ch=1 n=65 v=0
261119 On ch=1 n=77 v=0
261120 TimeSig 12/8 24 8
261120 On ch=1 n=65 v=80
261120 On ch=1 n=77 v=80
261803 On ch=1 n=65 v=0
261803 On ch=1 n=77 v=0
261840 On ch=1 n=60 v=80
261840 On ch=1 n=64 v=80
262295 On ch=1 n=60 v=0
262295 On ch=1 n=64 v=0
262320 On ch=1 n=60 v=80
262547 On ch=1 n=60 v=0
262560 On ch=1 n=60 v=80
262560 On ch=1 n=64 v=80
262560 On ch=1 n=69 v=80
263927 On ch=1 n=60 v=0
263927 On ch=1 n=64 v=0
263927 On ch=1 n=69 v=0
264000 TimeSig 2/4 24 8
264000 On ch=1 n=81 v=64
264227 On ch=1 n=81 v=0
264240 On ch=1 n=84 v=64
264467 On ch=1 n=84 v=0
264480 On ch=1 n=86 v=64
264707 On ch=1 n=86 v=0
264720 On ch=1 n=84 v=64
264947 On ch=1 n=84 v=0
264960 TimeSig 12/8 24 8
264960 On ch=1 n=84 v=64
265187 On ch=1 n=84 v=0
265200 On ch=1 n=86 v=64
265427 On ch=1 n=86 v=0
265440 On ch=1 n=84 v=64
265667 On ch=1 n=84 v=0
265680 On ch=1 n=81 v=64
265907 On ch=1 n=81 v=0
265920 On ch=1 n=84 v=64
266147 On ch=1 n=84 v=0
266160 On ch=1 n=89 v=64
266387 On ch=1 n=89 v=0
266400 On ch=1 n=81 v=64
266400 On ch=1 n=88 v=64
266855 On ch=1 n=81 v=0
266855 On ch=1 n=88 v=0
266880 On ch=1 n=84 v=64
267335 On ch=1 n=84 v=0
267840 On ch=1 n=77 v=96
267840 On ch=1 n=79 v=96
268295 On ch=1 n=77 v=0
268295 On ch=1 n=79 v=0
268320 On ch=1 n=77 v=96
268775 On ch=1 n=77 v=0
268800 On ch=1 n=72 v=96
268800 On ch=1 n=77 v=96
269027 On ch=1 n=72 v=0
269027 On ch=1 n=77 v=0
269040 On ch=1 n=81 v=96
269267 On ch=1 n=81 v=0
269280 On ch=1 n=72 v=96
269280 On ch=1 n=79 v=96
269735 On ch=1 n=72 v=0
269735 On ch=1 n=79 v=0
269760 On ch=1 n=77 v=96
270215 On ch=1 n=77 v=0
270480 On ch=1 n=89 v=96
270707 On ch=1 n=89 v=0
270720 On ch=1 n=89 v=64
270947 On ch=1 n=89 v=0
270960 On ch=1 n=91 v=64
271187 On ch=1 n=91 v=0
271200 On ch=1 n=93 v=64
271427 On ch=1 n=93 v=0
271440 On ch=1 n=96 v=64
271895 On ch=1 n=96 v=0
271920 On ch=1 n=93 v=64
272147 On ch=1 n=93 v=0
272160 On ch=1 n=91 v=64
272387 On ch=1 n=91 v=0
272400 On ch=1 n=89 v=64
272627 On ch=1 n=89 v=0
272640 On ch=1 n=89 v=64
272867 On ch=1 n=89 v=0
272880 On ch=1 n=91 v=64
273107 On ch=1 n=91 v=0
273120 On ch=1 n=91 v=64
273347 On ch=1 n=91 v=0
273360 On ch=1 n=89 v=64
273587 On ch=1 n=89 v=0
273600 On ch=1 n=89 v=64
276335 On ch=1 n=89 v=0
276336 Meta TrkEnd
TrkEnd
MTrk
0 KeySig 252 major
0 Meta 0x21 00
1920 On ch=1 n=61 v=64
1920 On ch=1 n=65 v=64
1920 On ch=1 n=68 v=64
1920 On ch=1 n=72 v=64
1922 Par ch=1 c=64 v=127
2831 On ch=1 n=61 v=0
2831 On ch=1 n=65 v=0
2831 On ch=1 n=68 v=0
2831 On ch=1 n=72 v=0
2880 On ch=1 n=63 v=64
2880 On ch=1 n=67 v=64
2880 On ch=1 n=68 v=64
2880 On ch=1 n=72 v=64
3791 On ch=1 n=63 v=0
3791 On ch=1 n=67 v=0
3791 On ch=1 n=68 v=0
3791 On ch=1 n=72 v=0
3840 On ch=1 n=65 v=64
3840 On ch=1 n=68 v=64
3840 On ch=1 n=72 v=64
3841 Par ch=1 c=64 v=0
3842 Par ch=1 c=64 v=127
4751 On ch=1 n=65 v=0
4751 On ch=1 n=68 v=0
4751 On ch=1 n=72 v=0
4800 On ch=1 n=60 v=64
4800 On ch=1 n=68 v=64
4800 On ch=1 n=70 v=64
5711 On ch=1 n=60 v=0
5711 On ch=1 n=68 v=0
5711 On ch=1 n=70 v=0
5760 On ch=1 n=61 v=64
5760 On ch=1 n=65 v=64
5760 On ch=1 n=68 v=64
5760 On ch=1 n=72 v=64
5761 Par ch=1 c=64 v=0
5762 Par ch=1 c=64 v=127
6671 On ch=1 n=61 v=0
6671 On ch=1 n=65 v=0
6671 On ch=1 n=68 v=0
6671 On ch=1 n=72 v=0
6720 On ch=1 n=63 v=64
6720 On ch=1 n=67 v=64
6720 On ch=1 n=68 v=64
6720 On ch=1 n=72 v=64
7631 On ch=1 n=63 v=0
7631 On ch=1 n=67 v=0
7631 On ch=1 n=68 v=0
7631 On ch=1 n=72 v=0
7680 On ch=1 n=74 v=96
7680 On ch=1 n=62 v=96
7680 On ch=1 n=69 v=96
7681 Par ch=1 c=64 v=0
7682 Par ch=1 c=64 v=127
8363 On ch=1 n=74 v=0
8400 On ch=1 n=81 v=96
8627 On ch=1 n=81 v=0
8640 On ch=1 n=81 v=96
9095 On ch=1 n=81 v=0
9120 On ch=1 n=60 v=96
9347 On ch=1 n=60 v=0
9360 On ch=1 n=57 v=88
9503 On ch=1 n=62 v=0
9503 On ch=1 n=69 v=0
9587 On ch=1 n=57 v=0
9600 KeySig 255 major
9600 On ch=1 n=50 v=80
9600 On ch=1 n=57 v=80
9600 On ch=1 n=60 v=80
9601 Par ch=1 c=64 v=0
9602 Par ch=1 c=64 v=127
10511 On ch=1 n=50 v=0
10511 On ch=1 n=57 v=0
10511 On ch=1 n=60 v=0
10560 On ch=1 n=53 v=80
10560 On ch=1 n=60 v=80
10560 On ch=1 n=64 v=80
11243 On ch=1 n=53 v=0
11243 On ch=1 n=60 v=0
11243 On ch=1 n=64 v=0
11280 On ch=1 n=64 v=80
11507 On ch=1 n=64 v=0
11520 On ch=1 n=55 v=80
11520 On ch=1 n=58 v=80
11520 On ch=1 n=62 v=80
11520 On ch=1 n=65 v=80
11521 Par ch=1 c=64 v=0
11522 Par ch=1 c=64 v=127
12431 On ch=1 n=55 v=0
12431 On ch=1 n=58 v=0
12431 On ch=1 n=62 v=0
12431 On ch=1 n=65 v=0
12480 On ch=1 n=58 v=80
12935 On ch=1 n=58 v=0
12960 On ch=1 n=61 v=80
13415 On ch=1 n=61 v=0
13440 On ch=1 n=62 v=80
13440 On ch=1 n=65 v=80
13440 On ch=1 n=69 v=80
13440 On ch=1 n=72 v=80
13441 Par ch=1 c=64 v=0
13442 Par ch=1 c=64 v=127
14351 On ch=1 n=62 v=0
14351 On ch=1 n=65 v=0
14351 On ch=1 n=69 v=0
14351 On ch=1 n=72 v=0
14400 On ch=1 n=65 v=80
14400 On ch=1 n=69 v=80
14400 On ch=1 n=72 v=80
15083 On ch=1 n=65 v=0
15083 On ch=1 n=69 v=0
15083 On ch=1 n=72 v=0
15120 On ch=1 n=65 v=80
15347 On ch=1 n=65 v=0
15360 On ch=1 n=55 v=80
15360 On ch=1 n=58 v=80
15360 On ch=1 n=62 v=80
15360 On ch=1 n=65 v=80
15361 Par ch=1 c=64 v=0
15362 Par ch=1 c=64 v=127
16271 On ch=1 n=55 v=0
16271 On ch=1 n=58 v=0
16271 On ch=1 n=62 v=0
16271 On ch=1 n=65 v=0
16320 On ch=1 n=60 v=80
16320 On ch=1 n=67 v=80
16321 Par ch=1 c=64 v=0
16547 On ch=1 n=60 v=0
16547 On ch=1 n=67 v=0
16560 On ch=1 n=60 v=80
16560 On ch=1 n=67 v=80
16787 On ch=1 n=60 v=0
16787 On ch=1 n=67 v=0
17280 On ch=1 n=26 v=96
17280 On ch=1 n=38 v=96
17282 Par ch=1 c=64 v=127
17507 On ch=1 n=26 v=0
17507 On ch=1 n=38 v=0
17520 On ch=1 n=38 v=96
17747 On ch=1 n=38 v=0
17760 On ch=1 n=50 v=96
17873 On ch=1 n=50 v=0
17880 On ch=1 n=45 v=96
18221 On ch=1 n=45 v=0
18240 On ch=1 n=29 v=96
18240 On ch=1 n=41 v=96
18467 On ch=1 n=29 v=0
18467 On ch=1 n=41 v=0
18480 On ch=1 n=41 v=96
18707 On ch=1 n=41 v=0
18720 On ch=1 n=53 v=96
18947 On ch=1 n=53 v=0
18960 On ch=1 n=48 v=96
19187 On ch=1 n=48 v=0
19200 On ch=1 n=31 v=96
19200 On ch=1 n=43 v=96
19201 Par ch=1 c=64 v=0
19202 Par ch=1 c=64 v=127
19427 On ch=1 n=31 v=0
19427 On ch=1 n=43 v=0
19440 On ch=1 n=43 v=96
19667 On ch=1 n=43 v=0
19680 On ch=1 n=55 v=96
19793 On ch=1 n=55 v=0
19800 On ch=1 n=50 v=96
20141 On ch=1 n=50 v=0
20160 On ch=1 n=34 v=96
20160 On ch=1 n=46 v=96
20615 On ch=1 n=34 v=0
20615 On ch=1 n=46 v=0
20640 On ch=1 n=37 v=96
20640 On ch=1 n=49 v=96
21095 On ch=1 n=37 v=0
21095 On ch=1 n=49 v=0
21120 On ch=1 n=26 v=96
21120 On ch=1 n=38 v=96
21121 Par ch=1 c=64 v=0
21122 Par ch=1 c=64 v=127
21347 On ch=1 n=26 v=0
21347 On ch=1 n=38 v=0
21360 On ch=1 n=38 v=96
21587 On ch=1 n=38 v=0
21600 On ch=1 n=50 v=96
21713 On ch=1 n=50 v=0
21720 On ch=1 n=45 v=96
22061 On ch=1 n=45 v=0
22080 On ch=1 n=29 v=96
22080 On ch=1 n=41 v=96
22307 On ch=1 n=29 v=0
22307 On ch=1 n=41 v=0
22320 On ch=1 n=41 v=96
22547 On ch=1 n=41 v=0
22560 On ch=1 n=53 v=96
22787 On ch=1 n=53 v=0
22800 On ch=1 n=48 v=96
23027 On ch=1 n=48 v=0
23040 On ch=1 n=31 v=96
23040 On ch=1 n=43 v=96
23041 Par ch=1 c=64 v=0
23042 Par ch=1 c=64 v=127
23267 On ch=1 n=31 v=0
23267 On ch=1 n=43 v=0
23280 On ch=1 n=43 v=96
23507 On ch=1 n=43 v=0
23520 On ch=1 n=55 v=96
23633 On ch=1 n=55 v=0
23640 On ch=1 n=50 v=96
23981 On ch=1 n=50 v=0
24000 On ch=1 n=34 v=96
24000 On ch=1 n=46 v=96
24455 On ch=1 n=34 v=0
24455 On ch=1 n=46 v=0
24480 On ch=1 n=37 v=96
24480 On ch=1 n=49 v=96
24935 On ch=1 n=37 v=0
24935 On ch=1 n=49 v=0
24960 On ch=1 n=26 v=96
24960 On ch=1 n=38 v=96
24961 Par ch=1 c=64 v=0
24962 Par ch=1 c=64 v=127
25187 On ch=1 n=26 v=0
25187 On ch=1 n=38 v=0
25200 On ch=1 n=38 v=96
25427 On ch=1 n=38 v=0
25440 On ch=1 n=50 v=96
25553 On ch=1 n=50 v=0
25560 On ch=1 n=45 v=96
25901 On ch=1 n=45 v=0
25920 On ch=1 n=29 v=96
25920 On ch=1 n=41 v=96
26147 On ch=1 n=29 v=0
26147 On ch=1 n=41 v=0
26160 On ch=1 n=41 v=96
26387 On ch=1 n=41 v=0
26400 On ch=1 n=48 v=96
26627 On ch=1 n=48 v=0
26640 On ch=1 n=41 v=96
26867 On ch=1 n=41 v=0
26880 On ch=1 n=31 v=96
26880 On ch=1 n=43 v=96
26881 Par ch=1 c=64 v=0
26882 Par ch=1 c=64 v=127
27107 On ch=1 n=31 v=0
27107 On ch=1 n=43 v=0
27120 On ch=1 n=43 v=96
27347 On ch=1 n=43 v=0
27360 On ch=1 n=55 v=96
27473 On ch=1 n=55 v=0
27480 On ch=1 n=50 v=96
27821 On ch=1 n=50 v=0
27840 On ch=1 n=34 v=96
27840 On ch=1 n=46 v=96
28295 On ch=1 n=34 v=0
28295 On ch=1 n=46 v=0
28320 On ch=1 n=37 v=96
28320 On ch=1 n=49 v=96
28775 On ch=1 n=37 v=0
28775 On ch=1 n=49 v=0
28800 On ch=1 n=26 v=96
28800 On ch=1 n=38 v=96
28801 Par ch=1 c=64 v=0
28802 Par ch=1 c=64 v=127
29027 On ch=1 n=26 v=0
29027 On ch=1 n=38 v=0
29040 On ch=1 n=38 v=96
29267 On ch=1 n=38 v=0
29280 On ch=1 n=50 v=96
29393 On ch=1 n=50 v=0
29400 On ch=1 n=45 v=96
29741 On ch=1 n=45 v=0
29760 On ch=1 n=29 v=96
29760 On ch=1 n=41 v=96
29987 On ch=1 n=29 v=0
29987 On ch=1 n=41 v=0
30000 On ch=1 n=41 v=96
30227 On ch=1 n=41 v=0
30240 On ch=1 n=53 v=96
30480 On ch=1 n=48 v=96
30707 On ch=1 n=48 v=0
30719 On ch=1 n=53 v=0
30720 On ch=1 n=31 v=96
30720 On ch=1 n=43 v=96
30721 Par ch=1 c=64 v=0
30722 Par ch=1 c=64 v=127
30947 On ch=1 n=31 v=0
30947 On ch=1 n=43 v=0
30960 On ch=1 n=43 v=96
31187 On ch=1 n=43 v=0
31200 On ch=1 n=55 v=96
31313 On ch=1 n=55 v=0
31320 On ch=1 n=50 v=96
31661 On ch=1 n=50 v=0
31680 On ch=1 n=34 v=96
31680 On ch=1 n=46 v=96
32135 On ch=1 n=34 v=0
32135 On ch=1 n=46 v=0
32160 On ch=1 n=37 v=96
32160 On ch=1 n=49 v=96
32615 On ch=1 n=37 v=0
32615 On ch=1 n=49 v=0
32640 On ch=1 n=50 v=80
32640 On ch=1 n=57 v=80
32641 Par ch=1 c=64 v=0
32642 Par ch=1 c=64 v=127
33551 On ch=1 n=50 v=0
33551 On ch=1 n=57 v=0
33600 On ch=1 n=49 v=80
33600 On ch=1 n=57 v=80
34511 On ch=1 n=49 v=0
34511 On ch=1 n=57 v=0
34560 On ch=1 n=48 v=80
34560 On ch=1 n=55 v=80
34560 On ch=1 n=60 v=80
34561 Par ch=1 c=64 v=0
34562 Par ch=1 c=64 v=127
35471 On ch=1 n=48 v=0
35471 On ch=1 n=55 v=0
35471 On ch=1 n=60 v=0
35520 On ch=1 n=47 v=80
35520 On ch=1 n=55 v=80
36431 On ch=1 n=47 v=0
36431 On ch=1 n=55 v=0
36480 On ch=1 n=46 v=80
36480 On ch=1 n=50 v=80
36480 On ch=1 n=57 v=80
36481 Par ch=1 c=64 v=0
36482 Par ch=1 c=64 v=127
37391 On ch=1 n=46 v=0
37391 On ch=1 n=50 v=0
37391 On ch=1 n=57 v=0
37440 On ch=1 n=53 v=80
37440 On ch=1 n=45 v=80
37781 On ch=1 n=53 v=0
37800 On ch=1 n=60 v=80
38141 On ch=1 n=60 v=0
38160 On ch=1 n=53 v=80
38351 On ch=1 n=45 v=0
38387 On ch=1 n=53 v=0
38400 On ch=1 n=38 v=80
38401 Par ch=1 c=64 v=0
38627 On ch=1 n=38 v=0
38640 On ch=1 n=50 v=80
38867 On ch=1 n=50 v=0
38880 On ch=1 n=50 v=80
38993 On ch=1 n=50 v=0
39000 On ch=1 n=53 v=64
39000 On ch=1 n=57 v=64
39000 On ch=1 n=60 v=64
39341 On ch=1 n=53 v=0
39341 On ch=1 n=57 v=0
39341 On ch=1 n=60 v=0
39360 On ch=1 n=53 v=64
39360 On ch=1 n=57 v=64
39360 On ch=1 n=60 v=64
39587 On ch=1 n=53 v=0
39587 On ch=1 n=57 v=0
39587 On ch=1 n=60 v=0
39600 On ch=1 n=53 v=64
39600 On ch=1 n=57 v=64
39600 On ch=1 n=60 v=64
39827 On ch=1 n=53 v=0
39827 On ch=1 n=57 v=0
39827 On ch=1 n=60 v=0
39840 On ch=1 n=53 v=64
39840 On ch=1 n=57 v=64
39840 On ch=1 n=60 v=64
39953 On ch=1 n=53 v=0
39953 On ch=1 n=57 v=0
39953 On ch=1 n=60 v=0
39960 On ch=1 n=57 v=80
40301 On ch=1 n=57 v=0
40320 On ch=1 n=38 v=80
40322 Par ch=1 c=64 v=127
40547 On ch=1 n=38 v=0
40560 On ch=1 n=50 v=80
40787 On ch=1 n=50 v=0
40800 On ch=1 n=53 v=80
40800 On ch=1 n=60 v=80
41027 On ch=1 n=53 v=0
41027 On ch=1 n=60 v=0
41040 On ch=1 n=57 v=80
41267 On ch=1 n=57 v=0
41280 On ch=1 n=49 v=80
41507 On ch=1 n=49 v=0
41520 On ch=1 n=57 v=80
41975 On ch=1 n=57 v=0
42000 On ch=1 n=60 v=80
42227 On ch=1 n=60 v=0
42240 On ch=1 n=48 v=80
42241 Par ch=1 c=64 v=0
42242 Par ch=1 c=64 v=127
42467 On ch=1 n=48 v=0
42480 On ch=1 n=55 v=80
42707 On ch=1 n=55 v=0
42720 On ch=1 n=60 v=80
42833 On ch=1 n=60 v=0
42840 On ch=1 n=55 v=80
43181 On ch=1 n=55 v=0
43200 On ch=1 n=35 v=80
43200 On ch=1 n=47 v=80
43427 On ch=1 n=35 v=0
43427 On ch=1 n=47 v=0
43440 On ch=1 n=47 v=80
43667 On ch=1 n=47 v=0
43680 On ch=1 n=55 v=80
43907 On ch=1 n=55 v=0
43920 On ch=1 n=46 v=80
44147 On ch=1 n=46 v=0
44160 On ch=1 n=34 v=80
44161 Par ch=1 c=64 v=0
44162 Par ch=1 c=64 v=127
44387 On ch=1 n=34 v=0
44400 On ch=1 n=58 v=80
44513 On ch=1 n=58 v=0
44520 On ch=1 n=57 v=80
44633 On ch=1 n=57 v=0
44640 On ch=1 n=62 v=80
44753 On ch=1 n=62 v=0
44760 On ch=1 n=69 v=80
44873 On ch=1 n=69 v=0
44880 On ch=1 n=70 v=80
44993 On ch=1 n=70 v=0
45000 On ch=1 n=69 v=80
45113 On ch=1 n=69 v=0
45120 On ch=1 n=74 v=80
45233 On ch=1 n=74 v=0
45240 On ch=1 n=81 v=80
45353 On ch=1 n=81 v=0
45360 On ch=1 n=69 v=80
45473 On ch=1 n=69 v=0
45480 On ch=1 n=70 v=80
45593 On ch=1 n=70 v=0
45600 On ch=1 n=69 v=80
45713 On ch=1 n=69 v=0
45720 On ch=1 n=74 v=80
45833 On ch=1 n=74 v=0
45840 On ch=1 n=77 v=80
45953 On ch=1 n=77 v=0
45960 On ch=1 n=62 v=80
45960 On ch=1 n=65 v=80
45960 On ch=1 n=69 v=80
45961 Par ch=1 c=64 v=0
46280 On ch=1 n=62 v=0
46280 On ch=1 n=65 v=0
46280 On ch=1 n=69 v=0
46440 On ch=1 n=62 v=80
46440 On ch=1 n=65 v=80
46440 On ch=1 n=69 v=80
46760 On ch=1 n=62 v=0
46760 On ch=1 n=65 v=0
46760 On ch=1 n=69 v=0
46920 On ch=1 n=62 v=80
46920 On ch=1 n=65 v=80
46920 On ch=1 n=69 v=80
47240 On ch=1 n=62 v=0
47240 On ch=1 n=65 v=0
47240 On ch=1 n=69 v=0
48240 On ch=1 n=46 v=80
48242 Par ch=1 c=64 v=127
48315 On ch=1 n=46 v=0
48320 On ch=1 n=53 v=80
48395 On ch=1 n=53 v=0
48400 On ch=1 n=60 v=80
48475 On ch=1 n=60 v=0
48480 On ch=1 n=58 v=80
48555 On ch=1 n=58 v=0
48560 On ch=1 n=70 v=80
48635 On ch=1 n=70 v=0
48640 On ch=1 n=65 v=80
48715 On ch=1 n=65 v=0
48720 On ch=1 n=62 v=80
48795 On ch=1 n=62 v=0
48800 On ch=1 n=65 v=80
48951 On ch=1 n=65 v=0
48960 On ch=1 n=49 v=80
49035 On ch=1 n=49 v=0
49040 On ch=1 n=57 v=80
49115 On ch=1 n=57 v=0
49120 On ch=1 n=64 v=80
49195 On ch=1 n=64 v=0
49200 On ch=1 n=65 v=80
49275 On ch=1 n=65 v=0
49280 On ch=1 n=64 v=80
49355 On ch=1 n=64 v=0
49360 On ch=1 n=62 v=80
49435 On ch=1 n=62 v=0
49440 On ch=1 n=60 v=80
49515 On ch=1 n=60 v=0
49520 On ch=1 n=62 v=80
49671 On ch=1 n=62 v=0
49680 On ch=1 n=38 v=80
49681 Par ch=1 c=64 v=0
49682 Par ch=1 c=64 v=127
49736 On ch=1 n=38 v=0
49740 On ch=1 n=41 v=80
49796 On ch=1 n=41 v=0
49800 On ch=1 n=45 v=80
49856 On ch=1 n=45 v=0
49860 On ch=1 n=48 v=80
49916 On ch=1 n=48 v=0
49920 On ch=1 n=50 v=80
49976 On ch=1 n=50 v=0
49980 On ch=1 n=53 v=80
50036 On ch=1 n=53 v=0
50040 On ch=1 n=57 v=80
50096 On ch=1 n=57 v=0
50100 On ch=1 n=60 v=80
50156 On ch=1 n=60 v=0
50160 On ch=1 n=57 v=80
50216 On ch=1 n=57 v=0
50220 On ch=1 n=53 v=80
50390 On ch=1 n=53 v=0
50400 On ch=1 n=41 v=80
50401 Par ch=1 c=64 v=0
50402 Par ch=1 c=64 v=127
50444 On ch=1 n=41 v=0
50448 On ch=1 n=48 v=80
50492 On ch=1 n=48 v=0
50496 On ch=1 n=53 v=80
50540 On ch=1 n=53 v=0
50544 On ch=1 n=55 v=80
50588 On ch=1 n=55 v=0
50592 On ch=1 n=60 v=80
50640 On ch=1 n=64 v=80
50689 On ch=1 n=64 v=0
50693 On ch=1 n=65 v=80
50742 On ch=1 n=65 v=0
50746 On ch=1 n=64 v=80
50795 On ch=1 n=64 v=0
50799 On ch=1 n=60 v=0
50799 On ch=1 n=60 v=80
50852 On ch=1 n=55 v=80
50901 On ch=1 n=55 v=0
50905 On ch=1 n=53 v=80
50954 On ch=1 n=53 v=0
50958 On ch=1 n=62 v=80
51007 On ch=1 n=62 v=0
51011 On ch=1 n=67 v=80
51060 On ch=1 n=67 v=0
51064 On ch=1 n=69 v=80
51083 On ch=1 n=60 v=0
51113 On ch=1 n=69 v=0
51120 On ch=1 n=34 v=96
51121 Par ch=1 c=64 v=0
51122 Par ch=1 c=64 v=127
51239 On ch=1 n=34 v=0
51240 On ch=1 n=41 v=80
51353 On ch=1 n=41 v=0
51360 On ch=1 n=48 v=80
51587 On ch=1 n=48 v=0
51600 On ch=1 n=53 v=80
51637 On ch=1 n=53 v=0
51640 On ch=1 n=57 v=80
51677 On ch=1 n=57 v=0
51680 On ch=1 n=60 v=80
51717 On ch=1 n=60 v=0
51720 On ch=1 n=64 v=80
51757 On ch=1 n=64 v=0
51760 On ch=1 n=69 v=80
51797 On ch=1 n=69 v=0
51800 On ch=1 n=72 v=80
51837 On ch=1 n=72 v=0
51840 On ch=1 n=36 v=96
51919 On ch=1 n=36 v=0
51920 On ch=1 n=43 v=80
51995 On ch=1 n=43 v=0
52000 On ch=1 n=48 v=80
52075 On ch=1 n=48 v=0
52080 On ch=1 n=48 v=80
52155 On ch=1 n=48 v=0
52160 On ch=1 n=60 v=80
52235 On ch=1 n=60 v=0
52240 On ch=1 n=55 v=80
52315 On ch=1 n=55 v=0
52320 On ch=1 n=48 v=80
52547 On ch=1 n=48 v=0
52560 On ch=1 n=26 v=96
52560 On ch=1 n=38 v=96
52561 Par ch=1 c=64 v=0
52799 On ch=1 n=26 v=0
52799 On ch=1 n=38 v=0
52800 On ch=1 n=26 v=96
52800 On ch=1 n=38 v=96
53039 On ch=1 n=26 v=0
53039 On ch=1 n=38 v=0
53040 On ch=1 n=26 v=96
53040 On ch=1 n=38 v=96
53279 On ch=1 n=26 v=0
53279 On ch=1 n=38 v=0
53282 Par ch=1 c=64 v=127
54000 On ch=1 n=29 v=96
54000 On ch=1 n=41 v=96
54001 Par ch=1 c=64 v=0
54239 On ch=1 n=29 v=0
54239 On ch=1 n=41 v=0
54240 On ch=1 n=29 v=96
54240 On ch=1 n=41 v=96
54479 On ch=1 n=29 v=0
54479 On ch=1 n=41 v=0
54480 On ch=1 n=29 v=96
54480 On ch=1 n=41 v=96
54719 On ch=1 n=29 v=0
54719 On ch=1 n=41 v=0
54720 On ch=1 n=22 v=115
54720 On ch=1 n=34 v=115
54722 Par ch=1 c=64 v=127
55667 On ch=1 n=22 v=0
55667 On ch=1 n=34 v=0
55680 On ch=1 n=50 v=96
55680 On ch=1 n=57 v=96
55907 On ch=1 n=50 v=0
55907 On ch=1 n=57 v=0
55920 On ch=1 n=53 v=96
56147 On ch=1 n=53 v=0
56160 On ch=1 n=24 v=96
56160 On ch=1 n=36 v=96
56843 On ch=1 n=24 v=0
56843 On ch=1 n=36 v=0
56880 On ch=1 n=60 v=96
57107 On ch=1 n=60 v=0
57120 On ch=1 n=55 v=96
57347 On ch=1 n=55 v=0
57360 On ch=1 n=26 v=96
57360 On ch=1 n=38 v=96
57587 On ch=1 n=26 v=0
57587 On ch=1 n=38 v=0
57600 On ch=1 n=26 v=96
57600 On ch=1 n=38 v=96
57601 Par ch=1 c=64 v=0
57602 Par ch=1 c=64 v=127
58511 On ch=1 n=26 v=0
58511 On ch=1 n=38 v=0
58560 On ch=1 n=53 v=96
58560 On ch=1 n=60 v=96
58787 On ch=1 n=53 v=0
58787 On ch=1 n=60 v=0
58800 On ch=1 n=57 v=96
59027 On ch=1 n=57 v=0
59040 On ch=1 n=29 v=96
59040 On ch=1 n=41 v=96
59723 On ch=1 n=29 v=0
59723 On ch=1 n=41 v=0
59760 On ch=1 n=53 v=96
59987 On ch=1 n=53 v=0
60000 On ch=1 n=48 v=96
60227 On ch=1 n=48 v=0
60240 On ch=1 n=34 v=96
60467 On ch=1 n=34 v=0
60480 On ch=1 n=22 v=96
60480 On ch=1 n=34 v=96
60481 Par ch=1 c=64 v=0
60482 Par ch=1 c=64 v=127
61163 On ch=1 n=22 v=0
61163 On ch=1 n=34 v=0
61200 On ch=1 n=46 v=96
61427 On ch=1 n=46 v=0
61440 On ch=1 n=50 v=96
61440 On ch=1 n=53 v=96
61440 On ch=1 n=57 v=96
61895 On ch=1 n=50 v=0
61895 On ch=1 n=53 v=0
61895 On ch=1 n=57 v=0
61920 On ch=1 n=24 v=96
61920 On ch=1 n=36 v=96
62603 On ch=1 n=24 v=0
62603 On ch=1 n=36 v=0
62640 On ch=1 n=60 v=96
62867 On ch=1 n=60 v=0
62880 On ch=1 n=55 v=96
63335 On ch=1 n=55 v=0
63360 On ch=1 n=38 v=96
63360 On ch=1 n=50 v=96
63361 Par ch=1 c=64 v=0
63362 Par ch=1 c=64 v=127
64043 On ch=1 n=38 v=0
64043 On ch=1 n=50 v=0
64080 On ch=1 n=37 v=96
64080 On ch=1 n=49 v=96
64763 On ch=1 n=37 v=0
64763 On ch=1 n=49 v=0
64800 On ch=1 n=36 v=96
64800 On ch=1 n=48 v=96
65483 On ch=1 n=36 v=0
65483 On ch=1 n=48 v=0
65520 On ch=1 n=35 v=96
65520 On ch=1 n=47 v=96
66203 On ch=1 n=35 v=0
66203 On ch=1 n=47 v=0
66240 On ch=1 n=22 v=96
66240 On ch=1 n=34 v=96
66241 Par ch=1 c=64 v=0
66242 Par ch=1 c=64 v=127
67151 On ch=1 n=22 v=0
67151 On ch=1 n=34 v=0
67200 On ch=1 n=50 v=96
67200 On ch=1 n=57 v=96
67427 On ch=1 n=50 v=0
67427 On ch=1 n=57 v=0
67440 On ch=1 n=53 v=96
67667 On ch=1 n=53 v=0
67680 On ch=1 n=24 v=96
67680 On ch=1 n=36 v=96
68363 On ch=1 n=24 v=0
68363 On ch=1 n=36 v=0
68400 On ch=1 n=60 v=96
68627 On ch=1 n=60 v=0
68640 On ch=1 n=55 v=96
68867 On ch=1 n=55 v=0
68880 On ch=1 n=26 v=96
68880 On ch=1 n=38 v=96
69107 On ch=1 n=26 v=0
69107 On ch=1 n=38 v=0
69120 On ch=1 n=26 v=96
69120 On ch=1 n=38 v=96
69121 Par ch=1 c=64 v=0
69122 Par ch=1 c=64 v=127
70031 On ch=1 n=26 v=0
70031 On ch=1 n=38 v=0
70080 On ch=1 n=53 v=96
70080 On ch=1 n=57 v=96
70080 On ch=1 n=60 v=96
70535 On ch=1 n=53 v=0
70535 On ch=1 n=57 v=0
70535 On ch=1 n=60 v=0
70560 On ch=1 n=29 v=96
70560 On ch=1 n=41 v=96
71243 On ch=1 n=29 v=0
71243 On ch=1 n=41 v=0
71280 On ch=1 n=53 v=96
71507 On ch=1 n=53 v=0
71520 On ch=1 n=48 v=96
71975 On ch=1 n=48 v=0
72000 On ch=1 n=34 v=96
72000 On ch=1 n=46 v=96
72001 Par ch=1 c=64 v=0
72002 Par ch=1 c=64 v=127
72455 On ch=1 n=34 v=0
72455 On ch=1 n=46 v=0
72480 On ch=1 n=46 v=96
72707 On ch=1 n=46 v=0
72720 On ch=1 n=50 v=96
72720 On ch=1 n=53 v=96
72720 On ch=1 n=57 v=96
73403 On ch=1 n=50 v=0
73403 On ch=1 n=53 v=0
73403 On ch=1 n=57 v=0
73440 On ch=1 n=36 v=96
73440 On ch=1 n=48 v=96
74123 On ch=1 n=36 v=0
74123 On ch=1 n=48 v=0
74160 On ch=1 n=55 v=96
74160 On ch=1 n=60 v=96
74843 On ch=1 n=55 v=0
74843 On ch=1 n=60 v=0
74880 On ch=1 n=26 v=96
74880 On ch=1 n=38 v=96
74881 Par ch=1 c=64 v=0
74882 Par ch=1 c=64 v=127
75791 On ch=1 n=26 v=0
75791 On ch=1 n=38 v=0
75840 On ch=1 n=53 v=96
75840 On ch=1 n=57 v=96
76295 On ch=1 n=53 v=0
76295 On ch=1 n=57 v=0
76320 On ch=1 n=29 v=96
76320 On ch=1 n=41 v=96
76775 On ch=1 n=29 v=0
76775 On ch=1 n=41 v=0
76800 On ch=1 n=41 v=96
77027 On ch=1 n=41 v=0
77040 On ch=1 n=53 v=96
77267 On ch=1 n=53 v=0
77280 On ch=1 n=55 v=96
77735 On ch=1 n=55 v=0
77760 On ch=1 n=22 v=115
77760 On ch=1 n=34 v=115
77761 Par ch=1 c=64 v=0
77762 Par ch=1 c=64 v=127
78707 On ch=1 n=22 v=0
78707 On ch=1 n=34 v=0
78720 On ch=1 n=50 v=96
78720 On ch=1 n=57 v=96
78947 On ch=1 n=50 v=0
78947 On ch=1 n=57 v=0
78960 On ch=1 n=53 v=96
79187 On ch=1 n=53 v=0
79200 On ch=1 n=24 v=96
79200 On ch=1 n=36 v=96
79883 On ch=1 n=24 v=0
79883 On ch=1 n=36 v=0
79920 On ch=1 n=60 v=96
80147 On ch=1 n=60 v=0
80160 On ch=1 n=55 v=96
80387 On ch=1 n=55 v=0
80400 On ch=1 n=26 v=96
80400 On ch=1 n=38 v=96
80627 On ch=1 n=26 v=0
80627 On ch=1 n=38 v=0
80640 On ch=1 n=26 v=96
80640 On ch=1 n=38 v=96
80641 Par ch=1 c=64 v=0
80642 Par ch=1 c=64 v=127
81551 On ch=1 n=26 v=0
81551 On ch=1 n=38 v=0
81600 On ch=1 n=53 v=96
81600 On ch=1 n=60 v=96
81827 On ch=1 n=53 v=0
81827 On ch=1 n=60 v=0
81840 On ch=1 n=57 v=96
82067 On ch=1 n=57 v=0
82080 On ch=1 n=29 v=96
82080 On ch=1 n=41 v=96
82763 On ch=1 n=29 v=0
82763 On ch=1 n=41 v=0
82800 On ch=1 n=53 v=96
83027 On ch=1 n=53 v=0
83040 On ch=1 n=48 v=96
83495 On ch=1 n=48 v=0
83520 On ch=1 n=34 v=96
83520 On ch=1 n=46 v=96
83521 Par ch=1 c=64 v=0
83522 Par ch=1 c=64 v=127
84203 On ch=1 n=34 v=0
84203 On ch=1 n=46 v=0
84240 On ch=1 n=46 v=96
84467 On ch=1 n=46 v=0
84480 On ch=1 n=50 v=96
84480 On ch=1 n=53 v=96
84480 On ch=1 n=57 v=96
84935 On ch=1 n=50 v=0
84935 On ch=1 n=53 v=0
84935 On ch=1 n=57 v=0
84960 On ch=1 n=24 v=96
84960 On ch=1 n=36 v=96
85415 On ch=1 n=24 v=0
85415 On ch=1 n=36 v=0
85440 On ch=1 n=60 v=96
85667 On ch=1 n=60 v=0
85680 On ch=1 n=55 v=96
86363 On ch=1 n=55 v=0
86400 On ch=1 n=26 v=96
86400 On ch=1 n=38 v=96
86401 Par ch=1 c=64 v=0
86402 Par ch=1 c=64 v=127
87311 On ch=1 n=26 v=0
87311 On ch=1 n=38 v=0
87360 On ch=1 n=45 v=96
87360 On ch=1 n=50 v=96
87587 On ch=1 n=45 v=0
87587 On ch=1 n=50 v=0
87600 On ch=1 n=28 v=96
87600 On ch=1 n=40 v=96
87827 On ch=1 n=28 v=0
87827 On ch=1 n=40 v=0
87840 On ch=1 n=29 v=96
87840 On ch=1 n=41 v=96
88751 On ch=1 n=29 v=0
88751 On ch=1 n=41 v=0
88800 On ch=1 n=48 v=96
88800 On ch=1 n=53 v=96
89255 On ch=1 n=48 v=0
89255 On ch=1 n=53 v=0
89280 On ch=1 n=22 v=96
89280 On ch=1 n=34 v=96
89281 Par ch=1 c=64 v=0
89282 Par ch=1 c=64 v=127
90191 On ch=1 n=22 v=0
90191 On ch=1 n=34 v=0
90240 On ch=1 n=50 v=96
90240 On ch=1 n=57 v=96
90467 On ch=1 n=50 v=0
90467 On ch=1 n=57 v=0
90480 On ch=1 n=53 v=96
90707 On ch=1 n=53 v=0
90720 On ch=1 n=24 v=96
90720 On ch=1 n=36 v=96
91403 On ch=1 n=24 v=0
91403 On ch=1 n=36 v=0
91440 On ch=1 n=60 v=96
91667 On ch=1 n=60 v=0
91680 On ch=1 n=55 v=96
91907 On ch=1 n=55 v=0
91920 On ch=1 n=26 v=96
91920 On ch=1 n=38 v=96
92147 On ch=1 n=26 v=0
92147 On ch=1 n=38 v=0
92160 On ch=1 n=26 v=96
92160 On ch=1 n=38 v=96
92161 Par ch=1 c=64 v=0
92162 Par ch=1 c=64 v=127
93071 On ch=1 n=26 v=0
93071 On ch=1 n=38 v=0
93120 On ch=1 n=53 v=96
93120 On ch=1 n=60 v=96
93347 On ch=1 n=53 v=0
93347 On ch=1 n=60 v=0
93360 On ch=1 n=57 v=96
93587 On ch=1 n=57 v=0
93600 On ch=1 n=29 v=96
93600 On ch=1 n=41 v=96
94283 On ch=1 n=29 v=0
94283 On ch=1 n=41 v=0
94320 On ch=1 n=53 v=96
94547 On ch=1 n=53 v=0
94560 On ch=1 n=48 v=96
95015 On ch=1 n=48 v=0
95040 On ch=1 n=34 v=96
95040 On ch=1 n=46 v=96
95041 Par ch=1 c=64 v=0
95042 Par ch=1 c=64 v=127
95723 On ch=1 n=34 v=0
95723 On ch=1 n=46 v=0
95760 On ch=1 n=46 v=96
95987 On ch=1 n=46 v=0
96000 On ch=1 n=50 v=96
96000 On ch=1 n=53 v=96
96000 On ch=1 n=57 v=96
96455 On ch=1 n=50 v=0
96455 On ch=1 n=53 v=0
96455 On ch=1 n=57 v=0
96480 On ch=1 n=36 v=96
96480 On ch=1 n=48 v=96
97163 On ch=1 n=36 v=0
97163 On ch=1 n=48 v=0
97200 On ch=1 n=60 v=96
97427 On ch=1 n=60 v=0
97440 On ch=1 n=55 v=96
97895 On ch=1 n=55 v=0
97920 On ch=1 n=26 v=96
97920 On ch=1 n=38 v=96
97921 Par ch=1 c=64 v=0
97922 Par ch=1 c=64 v=127
98831 On ch=1 n=26 v=0
98831 On ch=1 n=38 v=0
98880 On ch=1 n=53 v=96
98880 On ch=1 n=57 v=96
99335 On ch=1 n=53 v=0
99335 On ch=1 n=57 v=0
99360 On ch=1 n=29 v=96
99360 On ch=1 n=41 v=96
100043 On ch=1 n=29 v=0
100043 On ch=1 n=41 v=0
100320 On ch=1 n=48 v=96
100320 On ch=1 n=53 v=96
100547 On ch=1 n=48 v=0
100547 On ch=1 n=53 v=0
100560 On ch=1 n=55 v=96
100787 On ch=1 n=55 v=0
100800 On ch=1 n=48 v=96
100801 Par ch=1 c=64 v=0
101027 On ch=1 n=48 v=0
101760 On ch=1 n=34 v=115
101760 On ch=1 n=46 v=115
101762 Par ch=1 c=64 v=127
101999 On ch=1 n=34 v=0
101999 On ch=1 n=46 v=0
102721 Par ch=1 c=64 v=0
102722 Par ch=1 c=64 v=127
104640 On ch=1 n=22 v=96
104640 On ch=1 n=34 v=96
104641 Par ch=1 c=64 v=0
104642 Par ch=1 c=64 v=127
105095 On ch=1 n=22 v=0
105095 On ch=1 n=34 v=0
105120 On ch=1 n=46 v=96
105347 On ch=1 n=46 v=0
105360 On ch=1 n=50 v=96
105587 On ch=1 n=50 v=0
105600 On ch=1 n=53 v=96
105827 On ch=1 n=53 v=0
105840 On ch=1 n=57 v=96
106067 On ch=1 n=57 v=0
106080 On ch=1 n=24 v=96
106080 On ch=1 n=36 v=96
106535 On ch=1 n=24 v=0
106535 On ch=1 n=36 v=0
106560 On ch=1 n=48 v=96
106561 Par ch=1 c=64 v=0
106562 Par ch=1 c=64 v=127
107015 On ch=1 n=48 v=0
107040 On ch=1 n=60 v=96
107280 On ch=1 n=55 v=96
107483 On ch=1 n=60 v=0
107507 On ch=1 n=55 v=0
108480 On ch=1 n=34 v=96
108480 On ch=1 n=46 v=96
108481 Par ch=1 c=64 v=0
108482 Par ch=1 c=64 v=127
109391 On ch=1 n=34 v=0
109391 On ch=1 n=46 v=0
109440 On ch=1 n=53 v=96
109440 On ch=1 n=57 v=96
109895 On ch=1 n=53 v=0
109895 On ch=1 n=57 v=0
109920 On ch=1 n=36 v=96
109920 On ch=1 n=48 v=96
110375 On ch=1 n=36 v=0
110375 On ch=1 n=48 v=0
110401 Par ch=1 c=64 v=0
110640 On ch=1 n=55 v=96
110867 On ch=1 n=55 v=0
110880 On ch=1 n=60 v=96
111107 On ch=1 n=60 v=0
112320 On ch=1 n=38 v=96
112320 On ch=1 n=45 v=96
112320 On ch=1 n=50 v=96
112322 Par ch=1 c=64 v=127
113003 On ch=1 n=38 v=0
113003 On ch=1 n=45 v=0
113003 On ch=1 n=50 v=0
113040 On ch=1 n=57 v=96
113040 On ch=1 n=60 v=96
113723 On ch=1 n=57 v=0
113723 On ch=1 n=60 v=0
113760 On ch=1 n=45 v=96
114215 On ch=1 n=45 v=0
114240 On ch=1 n=29 v=96
114240 On ch=1 n=41 v=96
114241 Par ch=1 c=64 v=0
114242 Par ch=1 c=64 v=127
114923 On ch=1 n=29 v=0
114923 On ch=1 n=41 v=0
114960 On ch=1 n=41 v=96
114960 On ch=1 n=48 v=96
114960 On ch=1 n=53 v=96
115643 On ch=1 n=41 v=0
115643 On ch=1 n=48 v=0
115643 On ch=1 n=53 v=0
116160 On ch=1 n=22 v=96
116160 On ch=1 n=34 v=96
116161 Par ch=1 c=64 v=0
116162 Par ch=1 c=64 v=127
117071 On ch=1 n=22 v=0
117071 On ch=1 n=34 v=0
117120 On ch=1 n=50 v=96
117347 On ch=1 n=50 v=0
117360 On ch=1 n=53 v=96
117587 On ch=1 n=53 v=0
117840 On ch=1 n=36 v=96
117840 On ch=1 n=48 v=96
118067 On ch=1 n=36 v=0
118067 On ch=1 n=48 v=0
118080 On ch=1 n=36 v=96
118080 On ch=1 n=48 v=96
118081 Par ch=1 c=64 v=0
118082 Par ch=1 c=64 v=127
118991 On ch=1 n=36 v=0
118991 On ch=1 n=48 v=0
119040 On ch=1 n=55 v=96
119040 On ch=1 n=60 v=96
119267 On ch=1 n=55 v=0
119267 On ch=1 n=60 v=0
119280 On ch=1 n=62 v=96
119507 On ch=1 n=62 v=0
120000 On ch=1 n=38 v=96
120000 On ch=1 n=45 v=96
120000 On ch=1 n=48 v=96
120001 Par ch=1 c=64 v=0
120002 Par ch=1 c=64 v=127
120683 On ch=1 n=38 v=0
120683 On ch=1 n=45 v=0
120683 On ch=1 n=48 v=0
120720 On ch=1 n=53 v=96
120720 On ch=1 n=57 v=96
121403 On ch=1 n=53 v=0
121403 On ch=1 n=57 v=0
121440 On ch=1 n=50 v=96
121895 On ch=1 n=50 v=0
121920 On ch=1 n=29 v=96
121920 On ch=1 n=41 v=96
121921 Par ch=1 c=64 v=0
121922 Par ch=1 c=64 v=127
122831 On ch=1 n=29 v=0
122831 On ch=1 n=41 v=0
122880 On ch=1 n=41 v=96
122880 On ch=1 n=48 v=96
122880 On ch=1 n=53 v=96
123335 On ch=1 n=41 v=0
123335 On ch=1 n=48 v=0
123335 On ch=1 n=53 v=0
123360 On ch=1 n=53 v=96
123815 On ch=1 n=53 v=0
123840 On ch=1 n=34 v=96
123840 On ch=1 n=46 v=96
123841 Par ch=1 c=64 v=0
123842 Par ch=1 c=64 v=127
124751 On ch=1 n=34 v=0
124751 On ch=1 n=46 v=0
124800 On ch=1 n=46 v=96
125255 On ch=1 n=46 v=0
125280 On ch=1 n=50 v=96
125280 On ch=1 n=53 v=96
125280 On ch=1 n=57 v=96
125735 On ch=1 n=50 v=0
125735 On ch=1 n=53 v=0
125735 On ch=1 n=57 v=0
125760 On ch=1 n=36 v=96
125760 On ch=1 n=48 v=96
125761 Par ch=1 c=64 v=0
125762 Par ch=1 c=64 v=127
126215 On ch=1 n=36 v=0
126215 On ch=1 n=48 v=0
126240 On ch=1 n=48 v=96
126467 On ch=1 n=48 v=0
126480 On ch=1 n=60 v=96
126707 On ch=1 n=60 v=0
126720 On ch=1 n=62 v=96
127061 On ch=1 n=62 v=0
127080 On ch=1 n=60 v=96
127649 On ch=1 n=60 v=0
127680 On ch=1 n=38 v=96
127680 On ch=1 n=50 v=96
127681 Par ch=1 c=64 v=0
127682 Par ch=1 c=64 v=127
128591 On ch=1 n=38 v=0
128591 On ch=1 n=50 v=0
128640 On ch=1 n=53 v=96
128640 On ch=1 n=57 v=96
128640 On ch=1 n=60 v=96
129551 On ch=1 n=53 v=0
129551 On ch=1 n=57 v=0
129551 On ch=1 n=60 v=0
129601 Par ch=1 c=64 v=0
129602 Par ch=1 c=64 v=127
130080 On ch=1 n=41 v=96
130307 On ch=1 n=41 v=0
130320 On ch=1 n=48 v=96
130547 On ch=1 n=48 v=0
130560 On ch=1 n=53 v=96
130787 On ch=1 n=53 v=0
130800 On ch=1 n=55 v=96
131027 On ch=1 n=55 v=0
131040 On ch=1 n=53 v=96
131040 On ch=1 n=60 v=96
131495 On ch=1 n=53 v=0
131495 On ch=1 n=60 v=0
131520 On ch=1 n=34 v=96
131521 Par ch=1 c=64 v=0
131522 Par ch=1 c=64 v=127
131747 On ch=1 n=34 v=0
131760 On ch=1 n=46 v=96
132215 On ch=1 n=46 v=0
132240 On ch=1 n=46 v=96
132467 On ch=1 n=46 v=0
132480 On ch=1 n=57 v=96
132707 On ch=1 n=57 v=0
132720 On ch=1 n=53 v=96
133403 On ch=1 n=53 v=0
133440 On ch=1 n=36 v=96
133441 Par ch=1 c=64 v=0
133442 Par ch=1 c=64 v=127
133667 On ch=1 n=36 v=0
133680 On ch=1 n=48 v=96
133907 On ch=1 n=48 v=0
133920 On ch=1 n=48 v=96
134375 On ch=1 n=48 v=0
134400 On ch=1 n=55 v=96
134400 On ch=1 n=60 v=96
134627 On ch=1 n=55 v=0
134627 On ch=1 n=60 v=0
134640 On ch=1 n=62 v=96
135323 On ch=1 n=62 v=0
135360 On ch=1 n=38 v=96
135360 On ch=1 n=45 v=96
135360 On ch=1 n=48 v=96
135361 Par ch=1 c=64 v=0
135362 Par ch=1 c=64 v=127
136271 On ch=1 n=38 v=0
136271 On ch=1 n=45 v=0
136271 On ch=1 n=48 v=0
136320 On ch=1 n=53 v=96
136320 On ch=1 n=57 v=96
137231 On ch=1 n=53 v=0
137231 On ch=1 n=57 v=0
137280 On ch=1 n=29 v=96
137280 On ch=1 n=41 v=96
137281 Par ch=1 c=64 v=0
137282 Par ch=1 c=64 v=127
137963 On ch=1 n=29 v=0
137963 On ch=1 n=41 v=0
138000 On ch=1 n=48 v=96
138000 On ch=1 n=53 v=96
138455 On ch=1 n=48 v=0
138455 On ch=1 n=53 v=0
138480 On ch=1 n=55 v=96
138707 On ch=1 n=55 v=0
138720 On ch=1 n=48 v=96
138947 On ch=1 n=48 v=0
138960 On ch=1 n=34 v=96
139187 On ch=1 n=34 v=0
139200 On ch=1 n=22 v=96
139200 On ch=1 n=34 v=96
139201 Par ch=1 c=64 v=0
139202 Par ch=1 c=64 v=127
139883 On ch=1 n=22 v=0
139883 On ch=1 n=34 v=0
139920 On ch=1 n=34 v=96
139920 On ch=1 n=46 v=96
140603 On ch=1 n=34 v=0
140603 On ch=1 n=46 v=0
140640 On ch=1 n=22 v=96
140640 On ch=1 n=34 v=96
141095 On ch=1 n=22 v=0
141095 On ch=1 n=34 v=0
141120 On ch=1 n=24 v=96
141120 On ch=1 n=36 v=96
141121 Par ch=1 c=64 v=0
141122 Par ch=1 c=64 v=127
141803 On ch=1 n=24 v=0
141803 On ch=1 n=36 v=0
141840 On ch=1 n=36 v=96
141840 On ch=1 n=43 v=96
141840 On ch=1 n=48 v=96
142523 On ch=1 n=36 v=0
142523 On ch=1 n=43 v=0
142523 On ch=1 n=48 v=0
142560 On ch=1 n=24 v=96
142560 On ch=1 n=36 v=96
143015 On ch=1 n=24 v=0
143015 On ch=1 n=36 v=0
143040 On ch=1 n=26 v=96
143040 On ch=1 n=38 v=96
143041 Par ch=1 c=64 v=0
143042 Par ch=1 c=64 v=127
143723 On ch=1 n=26 v=0
143723 On ch=1 n=38 v=0
143760 On ch=1 n=38 v=96
143760 On ch=1 n=45 v=96
144443 On ch=1 n=38 v=0
144443 On ch=1 n=45 v=0
144480 On ch=1 n=26 v=96
144480 On ch=1 n=38 v=96
144935 On ch=1 n=26 v=0
144935 On ch=1 n=38 v=0
144960 On ch=1 n=29 v=96
144960 On ch=1 n=41 v=96
144961 Par ch=1 c=64 v=0
144962 Par ch=1 c=64 v=127
145643 On ch=1 n=29 v=0
145643 On ch=1 n=41 v=0
145680 On ch=1 n=48 v=96
145680 On ch=1 n=55 v=96
146363 On ch=1 n=48 v=0
146363 On ch=1 n=55 v=0
146400 On ch=1 n=29 v=96
146400 On ch=1 n=41 v=96
146855 On ch=1 n=29 v=0
146855 On ch=1 n=41 v=0
146880 On ch=1 n=22 v=96
146880 On ch=1 n=34 v=96
146881 Par ch=1 c=64 v=0
146881 Par ch=1 c=64 v=0
146882 Par ch=1 c=64 v=127
147563 On ch=1 n=22 v=0
147563 On ch=1 n=34 v=0
147600 On ch=1 n=34 v=96
147600 On ch=1 n=46 v=96
148283 On ch=1 n=34 v=0
148283 On ch=1 n=46 v=0
148320 On ch=1 n=22 v=96
148320 On ch=1 n=34 v=96
148775 On ch=1 n=22 v=0
148775 On ch=1 n=34 v=0
148800 On ch=1 n=24 v=96
148800 On ch=1 n=36 v=96
148801 Par ch=1 c=64 v=0
148802 Par ch=1 c=64 v=127
149483 On ch=1 n=24 v=0
149483 On ch=1 n=36 v=0
149520 On ch=1 n=36 v=96
149520 On ch=1 n=43 v=96
149520 On ch=1 n=48 v=96
150203 On ch=1 n=36 v=0
150203 On ch=1 n=43 v=0
150203 On ch=1 n=48 v=0
150240 On ch=1 n=24 v=96
150240 On ch=1 n=36 v=96
150695 On ch=1 n=24 v=0
150695 On ch=1 n=36 v=0
150720 On ch=1 n=26 v=96
150720 On ch=1 n=38 v=96
150721 Par ch=1 c=64 v=0
150722 Par ch=1 c=64 v=127
151403 On ch=1 n=26 v=0
151403 On ch=1 n=38 v=0
151440 On ch=1 n=38 v=96
151440 On ch=1 n=45 v=96
152123 On ch=1 n=38 v=0
152123 On ch=1 n=45 v=0
152160 On ch=1 n=26 v=96
152160 On ch=1 n=38 v=96
152615 On ch=1 n=26 v=0
152615 On ch=1 n=38 v=0
152640 On ch=1 n=29 v=96
152640 On ch=1 n=41 v=96
152641 Par ch=1 c=64 v=0
152641 Par ch=1 c=64 v=0
152642 Par ch=1 c=64 v=127
153323 On ch=1 n=29 v=0
153323 On ch=1 n=41 v=0
153360 On ch=1 n=48 v=96
153360 On ch=1 n=53 v=96
153815 On ch=1 n=48 v=0
153815 On ch=1 n=53 v=0
153840 On ch=1 n=48 v=96
154523 On ch=1 n=48 v=0
154560 On ch=1 n=34 v=96
154560 On ch=1 n=46 v=96
154561 Par ch=1 c=64 v=0
154562 Par ch=1 c=64 v=127
155471 On ch=1 n=34 v=0
155471 On ch=1 n=46 v=0
155520 On ch=1 n=50 v=96
155520 On ch=1 n=57 v=96
155747 On ch=1 n=50 v=0
155747 On ch=1 n=57 v=0
155760 On ch=1 n=53 v=96
156443 On ch=1 n=53 v=0
156480 On ch=1 n=36 v=96
156480 On ch=1 n=48 v=96
156481 Par ch=1 c=64 v=0
156482 Par ch=1 c=64 v=127
157391 On ch=1 n=36 v=0
157391 On ch=1 n=48 v=0
157440 On ch=1 n=55 v=96
157440 On ch=1 n=60 v=96
158351 On ch=1 n=55 v=0
158351 On ch=1 n=60 v=0
158400 On ch=1 n=38 v=115
158400 On ch=1 n=45 v=115
158400 On ch=1 n=50 v=115
158401 Par ch=1 c=64 v=0
158759 On ch=1 n=38 v=0
158759 On ch=1 n=45 v=0
158759 On ch=1 n=50 v=0
158760 On ch=1 n=38 v=115
158760 On ch=1 n=45 v=115
158760 On ch=1 n=50 v=115
159107 On ch=1 n=38 v=0
159107 On ch=1 n=45 v=0
159107 On ch=1 n=50 v=0
159120 On ch=1 n=38 v=115
159120 On ch=1 n=45 v=115
159120 On ch=1 n=50 v=115
159359 On ch=1 n=38 v=0
159359 On ch=1 n=45 v=0
159359 On ch=1 n=50 v=0
160320 On ch=1 n=29 v=115
160320 On ch=1 n=41 v=115
160679 On ch=1 n=29 v=0
160679 On ch=1 n=41 v=0
160680 On ch=1 n=29 v=115
160680 On ch=1 n=41 v=115
161027 On ch=1 n=29 v=0
161027 On ch=1 n=41 v=0
161040 On ch=1 n=29 v=115
161040 On ch=1 n=41 v=115
161279 On ch=1 n=29 v=0
161279 On ch=1 n=41 v=0
163680 On ch=1 n=58 v=64
163682 Par ch=1 c=64 v=127
163907 On ch=1 n=58 v=0
163920 On ch=1 n=65 v=64
164147 On ch=1 n=65 v=0
164160 On ch=1 n=69 v=64
164387 On ch=1 n=69 v=0
164400 On ch=1 n=70 v=64
164627 On ch=1 n=70 v=0
164640 On ch=1 n=72 v=64
164867 On ch=1 n=72 v=0
164880 On ch=1 n=74 v=64
165107 On ch=1 n=74 v=0
165120 On ch=1 n=76 v=65
165347 On ch=1 n=76 v=0
165360 On ch=1 n=77 v=65
165587 On ch=1 n=77 v=0
165601 Par ch=1 c=64 v=0
165602 Par ch=1 c=64 v=127
166560 On ch=1 n=74 v=66
166787 On ch=1 n=74 v=0
166800 On ch=1 n=72 v=66
167027 On ch=1 n=72 v=0
167040 On ch=1 n=77 v=66
167267 On ch=1 n=77 v=0
167280 On ch=1 n=84 v=66
167507 On ch=1 n=84 v=0
167520 On ch=1 n=60 v=66
167521 Par ch=1 c=64 v=0
167522 Par ch=1 c=64 v=127
167747 On ch=1 n=60 v=0
167760 On ch=1 n=67 v=66
167987 On ch=1 n=67 v=0
168000 On ch=1 n=72 v=67
168227 On ch=1 n=72 v=0
168240 On ch=1 n=74 v=67
168467 On ch=1 n=74 v=0
168480 On ch=1 n=76 v=67
168707 On ch=1 n=76 v=0
168720 On ch=1 n=77 v=67
168947 On ch=1 n=77 v=0
168960 On ch=1 n=84 v=67
169187 On ch=1 n=84 v=0
169200 On ch=1 n=89 v=67
169427 On ch=1 n=89 v=0
169440 On ch=1 n=84 v=68
169441 Par ch=1 c=64 v=0
169442 Par ch=1 c=64 v=127
169667 On ch=1 n=84 v=0
169680 On ch=1 n=86 v=68
169907 On ch=1 n=86 v=0
169920 On ch=1 n=88 v=68
170147 On ch=1 n=88 v=0
170160 On ch=1 n=89 v=68
170387 On ch=1 n=89 v=0
170400 On ch=1 n=96 v=68
170627 On ch=1 n=96 v=0
170640 On ch=1 n=100 v=68
170867 On ch=1 n=100 v=0
170880 On ch=1 n=89 v=69
171107 On ch=1 n=89 v=0
171120 On ch=1 n=96 v=69
171347 On ch=1 n=96 v=0
171360 On ch=1 n=50 v=69
171361 Par ch=1 c=64 v=0
171362 Par ch=1 c=64 v=127
171587 On ch=1 n=50 v=0
171600 On ch=1 n=57 v=69
171827 On ch=1 n=57 v=0
171840 On ch=1 n=65 v=69
172067 On ch=1 n=65 v=0
172080 On ch=1 n=62 v=69
172307 On ch=1 n=62 v=0
172320 On ch=1 n=72 v=70
172775 On ch=1 n=72 v=0
172800 On ch=1 n=72 v=70
173255 On ch=1 n=72 v=0
173280 On ch=1 n=77 v=70
173281 Par ch=1 c=64 v=0
173282 Par ch=1 c=64 v=127
173507 On ch=1 n=77 v=0
173520 On ch=1 n=79 v=70
173747 On ch=1 n=79 v=0
173760 On ch=1 n=79 v=71
173987 On ch=1 n=79 v=0
174000 On ch=1 n=81 v=71
174227 On ch=1 n=81 v=0
174240 On ch=1 n=69 v=71
175151 On ch=1 n=69 v=0
175200 On ch=1 n=53 v=72
175201 Par ch=1 c=64 v=0
175202 Par ch=1 c=64 v=127
175427 On ch=1 n=53 v=0
175440 On ch=1 n=60 v=72
175667 On ch=1 n=60 v=0
175680 On ch=1 n=65 v=72
175907 On ch=1 n=65 v=0
175920 On ch=1 n=67 v=72
176147 On ch=1 n=67 v=0
176160 On ch=1 n=65 v=72
176387 On ch=1 n=65 v=0
176400 On ch=1 n=72 v=73
176627 On ch=1 n=72 v=0
176640 On ch=1 n=77 v=73
176867 On ch=1 n=77 v=0
176880 On ch=1 n=76 v=73
177107 On ch=1 n=76 v=0
177121 Par ch=1 c=64 v=0
177122 Par ch=1 c=64 v=127
179040 On ch=1 n=46 v=74
179041 Par ch=1 c=64 v=0
179042 Par ch=1 c=64 v=127
179267 On ch=1 n=46 v=0
179280 On ch=1 n=53 v=75
179507 On ch=1 n=53 v=0
179520 On ch=1 n=60 v=75
179747 On ch=1 n=60 v=0
179760 On ch=1 n=58 v=75
179987 On ch=1 n=58 v=0
180000 On ch=1 n=60 v=75
180227 On ch=1 n=60 v=0
180240 On ch=1 n=62 v=75
180467 On ch=1 n=62 v=0
180480 On ch=1 n=64 v=75
180707 On ch=1 n=64 v=0
180720 On ch=1 n=65 v=76
180947 On ch=1 n=65 v=0
180960 On ch=1 n=64 v=76
180961 Par ch=1 c=64 v=0
180962 Par ch=1 c=64 v=127
181187 On ch=1 n=64 v=0
181200 On ch=1 n=62 v=76
181427 On ch=1 n=62 v=0
181440 On ch=1 n=60 v=76
181667 On ch=1 n=60 v=0
181680 On ch=1 n=62 v=76
181907 On ch=1 n=62 v=0
181920 On ch=1 n=64 v=76
182147 On ch=1 n=64 v=0
182160 On ch=1 n=65 v=77
182387 On ch=1 n=65 v=0
182400 On ch=1 n=65 v=77
182627 On ch=1 n=65 v=0
182640 On ch=1 n=72 v=77
182867 On ch=1 n=72 v=0
182880 On ch=1 n=48 v=77
182881 Par ch=1 c=64 v=0
182882 Par ch=1 c=64 v=127
183107 On ch=1 n=48 v=0
183120 On ch=1 n=55 v=77
183347 On ch=1 n=55 v=0
183360 On ch=1 n=60 v=77
183587 On ch=1 n=60 v=0
183600 On ch=1 n=62 v=78
183827 On ch=1 n=62 v=0
183840 On ch=1 n=64 v=78
184067 On ch=1 n=64 v=0
184080 On ch=1 n=65 v=78
184307 On ch=1 n=65 v=0
184320 On ch=1 n=67 v=78
184547 On ch=1 n=67 v=0
184560 On ch=1 n=64 v=78
184787 On ch=1 n=64 v=0
184800 On ch=1 n=62 v=78
184801 Par ch=1 c=64 v=0
184802 Par ch=1 c=64 v=127
185027 On ch=1 n=62 v=0
185040 On ch=1 n=60 v=79
185267 On ch=1 n=60 v=0
185280 On ch=1 n=62 v=79
185507 On ch=1 n=62 v=0
185520 On ch=1 n=65 v=79
185747 On ch=1 n=65 v=0
185760 On ch=1 n=65 v=79
185987 On ch=1 n=65 v=0
186000 On ch=1 n=72 v=79
186227 On ch=1 n=72 v=0
186240 On ch=1 n=49 v=80
186241 Par ch=1 c=64 v=0
186242 Par ch=1 c=64 v=127
186695 On ch=1 n=49 v=0
186720 On ch=1 n=57 v=80
186947 On ch=1 n=57 v=0
186960 On ch=1 n=64 v=80
187643 On ch=1 n=64 v=0
189120 On ch=1 n=50 v=80
189121 Par ch=1 c=64 v=0
189122 Par ch=1 c=64 v=127
189347 On ch=1 n=50 v=0
189360 On ch=1 n=60 v=80
189587 On ch=1 n=60 v=0
189600 On ch=1 n=65 v=80
189827 On ch=1 n=65 v=0
189840 On ch=1 n=67 v=80
190067 On ch=1 n=67 v=0
190080 On ch=1 n=72 v=80
190307 On ch=1 n=72 v=0
190320 On ch=1 n=77 v=80
190547 On ch=1 n=77 v=0
192000 On ch=1 n=46 v=80
192001 Par ch=1 c=64 v=0
192002 Par ch=1 c=64 v=127
192227 On ch=1 n=46 v=0
192240 On ch=1 n=53 v=80
192467 On ch=1 n=53 v=0
192480 On ch=1 n=60 v=80
192707 On ch=1 n=60 v=0
192720 On ch=1 n=58 v=80
192947 On ch=1 n=58 v=0
192960 On ch=1 n=62 v=80
193187 On ch=1 n=62 v=0
193200 On ch=1 n=65 v=80
193427 On ch=1 n=65 v=0
194160 On ch=1 n=58 v=80
194843 On ch=1 n=58 v=0
194880 On ch=1 n=48 v=80
194881 Par ch=1 c=64 v=0
194882 Par ch=1 c=64 v=127
195107 On ch=1 n=48 v=0
195120 On ch=1 n=55 v=80
195347 On ch=1 n=55 v=0
195360 On ch=1 n=60 v=80
195587 On ch=1 n=60 v=0
195600 On ch=1 n=62 v=80
195827 On ch=1 n=62 v=0
195840 On ch=1 n=64 v=80
196067 On ch=1 n=64 v=0
196080 On ch=1 n=65 v=80
196307 On ch=1 n=65 v=0
196320 On ch=1 n=67 v=80
196547 On ch=1 n=67 v=0
196560 On ch=1 n=64 v=80
196787 On ch=1 n=64 v=0
196800 On ch=1 n=62 v=80
197027 On ch=1 n=62 v=0
197040 On ch=1 n=60 v=80
197267 On ch=1 n=60 v=0
197760 On ch=1 n=49 v=80
197761 Par ch=1 c=64 v=0
197762 Par ch=1 c=64 v=127
198443 On ch=1 n=49 v=0
200400 On ch=1 n=38 v=80
200400 On ch=1 n=50 v=80
200627 On ch=1 n=38 v=0
200627 On ch=1 n=50 v=0
200640 On ch=1 n=38 v=80
200640 On ch=1 n=50 v=80
200641 Par ch=1 c=64 v=0
200642 Par ch=1 c=64 v=127
201323 On ch=1 n=38 v=0
201323 On ch=1 n=50 v=0
201600 On ch=1 n=50 v=80
201600 On ch=1 n=60 v=80
201827 On ch=1 n=50 v=0
201827 On ch=1 n=60 v=0
201840 On ch=1 n=60 v=80
202067 On ch=1 n=60 v=0
202320 On ch=1 n=62 v=80
202547 On ch=1 n=62 v=0
202800 On ch=1 n=36 v=80
202800 On ch=1 n=48 v=80
203027 On ch=1 n=36 v=0
203027 On ch=1 n=48 v=0
203280 On ch=1 n=34 v=80
203280 On ch=1 n=46 v=80
203507 On ch=1 n=34 v=0
203507 On ch=1 n=46 v=0
203520 On ch=1 n=34 v=80
203520 On ch=1 n=46 v=80
203521 Par ch=1 c=64 v=0
203522 Par ch=1 c=64 v=127
203975 On ch=1 n=34 v=0
203975 On ch=1 n=46 v=0
204000 On ch=1 n=58 v=80
204090 On ch=1 n=58 v=0
204096 On ch=1 n=57 v=80
204186 On ch=1 n=57 v=0
204192 On ch=1 n=62 v=80
204282 On ch=1 n=62 v=0
204288 On ch=1 n=65 v=80
204378 On ch=1 n=65 v=0
204384 On ch=1 n=69 v=80
204474 On ch=1 n=69 v=0
204480 On ch=1 n=70 v=80
204593 On ch=1 n=70 v=0
204600 On ch=1 n=69 v=80
204713 On ch=1 n=69 v=0
204720 On ch=1 n=74 v=80
204833 On ch=1 n=74 v=0
204840 On ch=1 n=81 v=80
204953 On ch=1 n=81 v=0
204960 On ch=1 n=70 v=80
205050 On ch=1 n=70 v=0
205056 On ch=1 n=69 v=80
205146 On ch=1 n=69 v=0
205152 On ch=1 n=74 v=80
205242 On ch=1 n=74 v=0
205248 On ch=1 n=77 v=80
205338 On ch=1 n=77 v=0
205344 On ch=1 n=81 v=80
205434 On ch=1 n=81 v=0
205440 On ch=1 n=82 v=80
205530 On ch=1 n=82 v=0
205536 On ch=1 n=81 v=80
205626 On ch=1 n=81 v=0
205632 On ch=1 n=86 v=80
205722 On ch=1 n=86 v=0
205728 On ch=1 n=89 v=80
205818 On ch=1 n=89 v=0
205824 On ch=1 n=93 v=80
205914 On ch=1 n=93 v=0
206400 On ch=1 n=36 v=80
206400 On ch=1 n=48 v=80
206401 Par ch=1 c=64 v=0
206402 Par ch=1 c=64 v=127
206855 On ch=1 n=36 v=0
206855 On ch=1 n=48 v=0
206880 On ch=1 n=48 v=80
207107 On ch=1 n=48 v=0
207120 On ch=1 n=60 v=80
207347 On ch=1 n=60 v=0
207360 On ch=1 n=62 v=80
207587 On ch=1 n=62 v=0
207600 On ch=1 n=64 v=80
207827 On ch=1 n=64 v=0
208080 On ch=1 n=62 v=80
208307 On ch=1 n=62 v=0
208320 On ch=1 n=60 v=80
208547 On ch=1 n=60 v=0
208560 On ch=1 n=67 v=80
208787 On ch=1 n=67 v=0
208800 On ch=1 n=72 v=80
209027 On ch=1 n=72 v=0
209040 On ch=1 n=65 v=80
209267 On ch=1 n=65 v=0
209280 On ch=1 n=26 v=80
209280 On ch=1 n=38 v=80
209281 Par ch=1 c=64 v=0
209282 Par ch=1 c=64 v=127
209735 On ch=1 n=26 v=0
209735 On ch=1 n=38 v=0
209760 On ch=1 n=38 v=80
209987 On ch=1 n=38 v=0
210000 On ch=1 n=50 v=80
210227 On ch=1 n=50 v=0
210240 On ch=1 n=55 v=80
210467 On ch=1 n=55 v=0
210480 On ch=1 n=57 v=80
210707 On ch=1 n=57 v=0
210720 On ch=1 n=60 v=80
211175 On ch=1 n=60 v=0
212160 On ch=1 n=29 v=80
212160 On ch=1 n=41 v=80
212161 Par ch=1 c=64 v=0
212162 Par ch=1 c=64 v=127
212843 On ch=1 n=29 v=0
212843 On ch=1 n=41 v=0
212880 On ch=1 n=41 v=80
213107 On ch=1 n=41 v=0
213120 On ch=1 n=53 v=80
213575 On ch=1 n=53 v=0
213600 On ch=1 n=64 v=80
213827 On ch=1 n=64 v=0
213840 On ch=1 n=64 v=80
214067 On ch=1 n=64 v=0
214080 On ch=1 n=60 v=80
214307 On ch=1 n=60 v=0
215040 On ch=1 n=62 v=80
215041 Par ch=1 c=64 v=0
215495 On ch=1 n=62 v=0
215520 On ch=1 n=72 v=80
215747 On ch=1 n=72 v=0
215760 On ch=1 n=74 v=80
215987 On ch=1 n=74 v=0
216000 On ch=1 n=72 v=80
216227 On ch=1 n=72 v=0
216240 On ch=1 n=74 v=80
216479 On ch=1 n=74 v=0
216480 On ch=1 n=72 v=80
216935 On ch=1 n=72 v=0
216960 On ch=1 n=70 v=80
217415 On ch=1 n=70 v=0
217920 On ch=1 n=22 v=115
217920 On ch=1 n=34 v=115
217922 Par ch=1 c=64 v=127
218867 On ch=1 n=22 v=0
218867 On ch=1 n=34 v=0
218880 On ch=1 n=50 v=96
218880 On ch=1 n=57 v=96
219107 On ch=1 n=50 v=0
219107 On ch=1 n=57 v=0
219120 On ch=1 n=53 v=96
219347 On ch=1 n=53 v=0
219360 On ch=1 n=24 v=96
219360 On ch=1 n=36 v=96
220043 On ch=1 n=24 v=0
220043 On ch=1 n=36 v=0
220080 On ch=1 n=60 v=96
220307 On ch=1 n=60 v=0
220320 On ch=1 n=55 v=96
220547 On ch=1 n=55 v=0
220560 On ch=1 n=26 v=96
220560 On ch=1 n=38 v=96
220787 On ch=1 n=26 v=0
220787 On ch=1 n=38 v=0
220800 On ch=1 n=26 v=96
220800 On ch=1 n=38 v=96
220801 Par ch=1 c=64 v=0
220802 Par ch=1 c=64 v=127
221711 On ch=1 n=26 v=0
221711 On ch=1 n=38 v=0
221760 On ch=1 n=53 v=96
221760 On ch=1 n=60 v=96
221987 On ch=1 n=53 v=0
221987 On ch=1 n=60 v=0
222000 On ch=1 n=57 v=96
222227 On ch=1 n=57 v=0
222240 On ch=1 n=29 v=96
222240 On ch=1 n=41 v=96
222923 On ch=1 n=29 v=0
222923 On ch=1 n=41 v=0
222960 On ch=1 n=53 v=96
223187 On ch=1 n=53 v=0
223200 On ch=1 n=48 v=96
223427 On ch=1 n=48 v=0
223440 On ch=1 n=34 v=96
223667 On ch=1 n=34 v=0
223680 On ch=1 n=22 v=96
223680 On ch=1 n=34 v=96
223681 Par ch=1 c=64 v=0
223682 Par ch=1 c=64 v=127
224363 On ch=1 n=22 v=0
224363 On ch=1 n=34 v=0
224400 On ch=1 n=46 v=96
224627 On ch=1 n=46 v=0
224640 On ch=1 n=50 v=96
224640 On ch=1 n=53 v=96
224640 On ch=1 n=57 v=96
225095 On ch=1 n=50 v=0
225095 On ch=1 n=53 v=0
225095 On ch=1 n=57 v=0
225120 On ch=1 n=24 v=96
225120 On ch=1 n=36 v=96
225803 On ch=1 n=24 v=0
225803 On ch=1 n=36 v=0
225840 On ch=1 n=60 v=96
226067 On ch=1 n=60 v=0
226080 On ch=1 n=55 v=96
226535 On ch=1 n=55 v=0
226560 On ch=1 n=38 v=96
226560 On ch=1 n=50 v=96
226561 Par ch=1 c=64 v=0
226562 Par ch=1 c=64 v=127
227243 On ch=1 n=38 v=0
227243 On ch=1 n=50 v=0
227280 On ch=1 n=37 v=96
227280 On ch=1 n=49 v=96
227963 On ch=1 n=37 v=0
227963 On ch=1 n=49 v=0
228000 On ch=1 n=36 v=96
228000 On ch=1 n=48 v=96
228683 On ch=1 n=36 v=0
228683 On ch=1 n=48 v=0
228720 On ch=1 n=35 v=96
228720 On ch=1 n=47 v=96
229403 On ch=1 n=35 v=0
229403 On ch=1 n=47 v=0
229440 On ch=1 n=22 v=96
229440 On ch=1 n=34 v=96
229441 Par ch=1 c=64 v=0
229442 Par ch=1 c=64 v=127
230351 On ch=1 n=22 v=0
230351 On ch=1 n=34 v=0
230400 On ch=1 n=50 v=96
230400 On ch=1 n=57 v=96
230627 On ch=1 n=50 v=0
230627 On ch=1 n=57 v=0
230640 On ch=1 n=53 v=96
230867 On ch=1 n=53 v=0
230880 On ch=1 n=24 v=96
230880 On ch=1 n=36 v=96
231563 On ch=1 n=24 v=0
231563 On ch=1 n=36 v=0
231600 On ch=1 n=60 v=96
231827 On ch=1 n=60 v=0
231840 On ch=1 n=55 v=96
232067 On ch=1 n=55 v=0
232080 On ch=1 n=26 v=96
232080 On ch=1 n=38 v=96
232307 On ch=1 n=26 v=0
232307 On ch=1 n=38 v=0
232320 On ch=1 n=26 v=96
232320 On ch=1 n=38 v=96
232321 Par ch=1 c=64 v=0
232322 Par ch=1 c=64 v=127
233231 On ch=1 n=26 v=0
233231 On ch=1 n=38 v=0
233280 On ch=1 n=53 v=96
233280 On ch=1 n=57 v=96
233280 On ch=1 n=60 v=96
233735 On ch=1 n=53 v=0
233735 On ch=1 n=57 v=0
233735 On ch=1 n=60 v=0
233760 On ch=1 n=29 v=96
233760 On ch=1 n=41 v=96
234443 On ch=1 n=29 v=0
234443 On ch=1 n=41 v=0
234480 On ch=1 n=53 v=96
234707 On ch=1 n=53 v=0
234720 On ch=1 n=48 v=96
235175 On ch=1 n=48 v=0
235200 On ch=1 n=34 v=96
235200 On ch=1 n=46 v=96
235201 Par ch=1 c=64 v=0
235202 Par ch=1 c=64 v=127
235655 On ch=1 n=34 v=0
235655 On ch=1 n=46 v=0
235680 On ch=1 n=46 v=96
235907 On ch=1 n=46 v=0
235920 On ch=1 n=50 v=96
235920 On ch=1 n=53 v=96
235920 On ch=1 n=57 v=96
236603 On ch=1 n=50 v=0
236603 On ch=1 n=53 v=0
236603 On ch=1 n=57 v=0
236640 On ch=1 n=36 v=96
236640 On ch=1 n=48 v=96
237323 On ch=1 n=36 v=0
237323 On ch=1 n=48 v=0
237360 On ch=1 n=55 v=96
237360 On ch=1 n=60 v=96
238043 On ch=1 n=55 v=0
238043 On ch=1 n=60 v=0
238080 On ch=1 n=26 v=96
238080 On ch=1 n=38 v=96
238081 Par ch=1 c=64 v=0
238082 Par ch=1 c=64 v=127
238991 On ch=1 n=26 v=0
238991 On ch=1 n=38 v=0
239040 On ch=1 n=53 v=96
239040 On ch=1 n=57 v=96
239495 On ch=1 n=53 v=0
239495 On ch=1 n=57 v=0
239520 On ch=1 n=29 v=96
239520 On ch=1 n=41 v=96
239975 On ch=1 n=29 v=0
239975 On ch=1 n=41 v=0
240000 On ch=1 n=41 v=96
240227 On ch=1 n=41 v=0
240240 On ch=1 n=53 v=96
240467 On ch=1 n=53 v=0
240480 On ch=1 n=55 v=96
240935 On ch=1 n=55 v=0
240960 On ch=1 n=22 v=115
240960 On ch=1 n=34 v=115
240961 Par ch=1 c=64 v=0
240962 Par ch=1 c=64 v=127
241907 On ch=1 n=22 v=0
241907 On ch=1 n=34 v=0
241920 On ch=1 n=50 v=96
241920 On ch=1 n=57 v=96
242147 On ch=1 n=50 v=0
242147 On ch=1 n=57 v=0
242160 On ch=1 n=53 v=96
242387 On ch=1 n=53 v=0
242400 On ch=1 n=24 v=96
242400 On ch=1 n=36 v=96
243083 On ch=1 n=24 v=0
243083 On ch=1 n=36 v=0
243120 On ch=1 n=60 v=96
243347 On ch=1 n=60 v=0
243360 On ch=1 n=55 v=96
243587 On ch=1 n=55 v=0
243600 On ch=1 n=26 v=96
243600 On ch=1 n=38 v=96
243827 On ch=1 n=26 v=0
243827 On ch=1 n=38 v=0
243840 On ch=1 n=26 v=96
243840 On ch=1 n=38 v=96
243841 Par ch=1 c=64 v=0
243842 Par ch=1 c=64 v=127
244751 On ch=1 n=26 v=0
244751 On ch=1 n=38 v=0
244800 On ch=1 n=53 v=96
244800 On ch=1 n=60 v=96
245027 On ch=1 n=53 v=0
245027 On ch=1 n=60 v=0
245040 On ch=1 n=57 v=96
245267 On ch=1 n=57 v=0
245280 On ch=1 n=29 v=96
245280 On ch=1 n=41 v=96
245963 On ch=1 n=29 v=0
245963 On ch=1 n=41 v=0
246000 On ch=1 n=53 v=96
246227 On ch=1 n=53 v=0
246240 On ch=1 n=48 v=96
246695 On ch=1 n=48 v=0
246720 On ch=1 n=34 v=96
246720 On ch=1 n=46 v=96
246721 Par ch=1 c=64 v=0
246722 Par ch=1 c=64 v=127
247403 On ch=1 n=34 v=0
247403 On ch=1 n=46 v=0
247440 On ch=1 n=46 v=96
247667 On ch=1 n=46 v=0
247680 On ch=1 n=50 v=96
247680 On ch=1 n=53 v=96
247680 On ch=1 n=57 v=96
248135 On ch=1 n=50 v=0
248135 On ch=1 n=53 v=0
248135 On ch=1 n=57 v=0
248160 On ch=1 n=24 v=96
248160 On ch=1 n=36 v=96
248615 On ch=1 n=24 v=0
248615 On ch=1 n=36 v=0
248640 On ch=1 n=60 v=96
248867 On ch=1 n=60 v=0
248880 On ch=1 n=55 v=96
249563 On ch=1 n=55 v=0
249600 On ch=1 n=26 v=96
249600 On ch=1 n=38 v=96
249601 Par ch=1 c=64 v=0
249602 Par ch=1 c=64 v=127
250511 On ch=1 n=26 v=0
250511 On ch=1 n=38 v=0
250560 On ch=1 n=45 v=96
250560 On ch=1 n=50 v=96
250787 On ch=1 n=45 v=0
250787 On ch=1 n=50 v=0
250800 On ch=1 n=28 v=96
250800 On ch=1 n=40 v=96
251027 On ch=1 n=28 v=0
251027 On ch=1 n=40 v=0
251040 On ch=1 n=29 v=96
251040 On ch=1 n=41 v=96
251951 On ch=1 n=29 v=0
251951 On ch=1 n=41 v=0
252000 On ch=1 n=48 v=96
252000 On ch=1 n=53 v=96
252455 On ch=1 n=48 v=0
252455 On ch=1 n=53 v=0
252480 On ch=1 n=22 v=96
252480 On ch=1 n=34 v=96
252481 Par ch=1 c=64 v=0
252482 Par ch=1 c=64 v=127
253391 On ch=1 n=22 v=0
253391 On ch=1 n=34 v=0
253440 On ch=1 n=50 v=96
253440 On ch=1 n=57 v=96
253667 On ch=1 n=50 v=0
253667 On ch=1 n=57 v=0
253680 On ch=1 n=53 v=96
253907 On ch=1 n=53 v=0
253920 On ch=1 n=24 v=96
253920 On ch=1 n=36 v=96
254603 On ch=1 n=24 v=0
254603 On ch=1 n=36 v=0
254640 On ch=1 n=60 v=96
254867 On ch=1 n=60 v=0
254880 On ch=1 n=55 v=96
255107 On ch=1 n=55 v=0
255120 On ch=1 n=26 v=96
255120 On ch=1 n=38 v=96
255347 On ch=1 n=26 v=0
255347 On ch=1 n=38 v=0
255360 On ch=1 n=26 v=96
255360 On ch=1 n=38 v=96
255361 Par ch=1 c=64 v=0
255362 Par ch=1 c=64 v=127
256271 On ch=1 n=26 v=0
256271 On ch=1 n=38 v=0
256320 On ch=1 n=53 v=96
256320 On ch=1 n=60 v=96
256547 On ch=1 n=53 v=0
256547 On ch=1 n=60 v=0
256560 On ch=1 n=57 v=96
256787 On ch=1 n=57 v=0
256800 On ch=1 n=29 v=96
256800 On ch=1 n=41 v=96
257483 On ch=1 n=29 v=0
257483 On ch=1 n=41 v=0
257520 On ch=1 n=53 v=96
257747 On ch=1 n=53 v=0
257760 On ch=1 n=48 v=96
258215 On ch=1 n=48 v=0
258240 On ch=1 n=34 v=96
258240 On ch=1 n=46 v=96
258241 Par ch=1 c=64 v=0
258242 Par ch=1 c=64 v=127
258923 On ch=1 n=34 v=0
258923 On ch=1 n=46 v=0
258960 On ch=1 n=46 v=96
259187 On ch=1 n=46 v=0
259200 On ch=1 n=50 v=96
259200 On ch=1 n=53 v=96
259200 On ch=1 n=57 v=96
259655 On ch=1 n=50 v=0
259655 On ch=1 n=53 v=0
259655 On ch=1 n=57 v=0
259680 On ch=1 n=36 v=96
259680 On ch=1 n=48 v=96
260363 On ch=1 n=36 v=0
260363 On ch=1 n=48 v=0
260400 On ch=1 n=60 v=96
260627 On ch=1 n=60 v=0
260640 On ch=1 n=55 v=96
261095 On ch=1 n=55 v=0
261120 On ch=1 n=26 v=80
261120 On ch=1 n=38 v=80
261121 Par ch=1 c=64 v=0
261122 Par ch=1 c=64 v=127
262031 On ch=1 n=26 v=0
262031 On ch=1 n=38 v=0
262080 On ch=1 n=53 v=80
262080 On ch=1 n=57 v=80
262535 On ch=1 n=53 v=0
262535 On ch=1 n=57 v=0
262560 On ch=1 n=29 v=80
262560 On ch=1 n=41 v=80
263243 On ch=1 n=29 v=0
263243 On ch=1 n=41 v=0
263280 On ch=1 n=41 v=80
263507 On ch=1 n=41 v=0
263520 On ch=1 n=48 v=80
263747 On ch=1 n=48 v=0
263760 On ch=1 n=53 v=80
263987 On ch=1 n=53 v=0
264001 Par ch=1 c=64 v=0
264960 On ch=1 n=58 v=64
264962 Par ch=1 c=64 v=127
265187 On ch=1 n=58 v=0
265200 On ch=1 n=65 v=64
265427 On ch=1 n=65 v=0
265440 On ch=1 n=72 v=64
265667 On ch=1 n=72 v=0
266400 On ch=1 n=60 v=64
266627 On ch=1 n=60 v=0
266640 On ch=1 n=67 v=64
266867 On ch=1 n=67 v=0
266880 On ch=1 n=72 v=64
267107 On ch=1 n=72 v=0
267120 On ch=1 n=74 v=64
267347 On ch=1 n=74 v=0
267360 On ch=1 n=77 v=64
267587 On ch=1 n=77 v=0
267600 On ch=1 n=81 v=64
267827 On ch=1 n=81 v=0
267841 Par ch=1 c=64 v=0
267842 Par ch=1 c=64 v=127
268320 On ch=1 n=38 v=96
268320 On ch=1 n=50 v=96
268547 On ch=1 n=38 v=0
268547 On ch=1 n=50 v=0
268560 On ch=1 n=38 v=96
268560 On ch=1 n=50 v=96
268787 On ch=1 n=38 v=0
268787 On ch=1 n=50 v=0
269280 On ch=1 n=29 v=96
269280 On ch=1 n=41 v=96
269735 On ch=1 n=29 v=0
269735 On ch=1 n=41 v=0
270000 On ch=1 n=48 v=96
270227 On ch=1 n=48 v=0
270240 On ch=1 n=53 v=96
270467 On ch=1 n=53 v=0
270721 Par ch=1 c=64 v=0
270722 Par ch=1 c=64 v=127
271200 On ch=1 n=70 v=64
271200 On ch=1 n=77 v=64
271200 On ch=1 n=81 v=64
271655 On ch=1 n=70 v=0
271655 On ch=1 n=77 v=0
271655 On ch=1 n=81 v=0
272640 On ch=1 n=72 v=64
272640 On ch=1 n=79 v=64
273095 On ch=1 n=72 v=0
273095 On ch=1 n=79 v=0
273600 On ch=1 n=74 v=64
273600 On ch=1 n=77 v=64
273600 On ch=1 n=81 v=64
273600 On ch=1 n=84 v=64
273601 Par ch=1 c=64 v=0
273602 Par ch=1 c=64 v=127
276335 On ch=1 n=74 v=0
276335 On ch=1 n=77 v=0
276335 On ch=1 n=81 v=0
276335 On ch=1 n=84 v=0
276480 Par ch=1 c=64 v=0
276481 Meta TrkEnd
TrkEnd